<svg width="354" height="66" viewBox="0 0 354 66" fill="none" xmlns="http://www.w3.org/2000/svg">
<g clip-path="url(#clip0_324_1761)">
<path d="M183.043 47.3818L183.061 51.0105L183.079 54.5747V54.6485L183.098 58.2127L183.116 61.8415L179.501 61.8599L179.52 65.4979L183.149 65.4795L186.787 65.461L186.768 61.823H186.75L186.731 58.1943L186.713 54.6301L190.342 54.6116L190.323 50.9736L193.961 50.9552L193.98 54.5932L197.595 54.5747L197.613 58.1389L197.631 61.7677L193.993 61.7861L194.012 65.4241L197.65 65.4057L201.279 65.3872L201.26 61.7493L201.242 58.1205L201.223 54.4825H201.242L204.87 54.4641L204.852 50.8953V50.8353L208.49 50.8169L208.472 47.2481L212.04 47.2296L212.022 43.5916L215.651 43.5732L215.632 39.9444L219.27 39.926L219.252 36.288L222.881 36.2696L222.862 32.6408L222.844 29.0028L222.825 25.3741L222.807 21.7453L219.178 21.7637L219.196 25.3925L219.215 29.0213L215.577 29.0397L215.595 32.6777L211.967 32.6961L211.985 36.3249L208.416 36.3433H208.347L204.778 36.3618L201.15 36.3802V36.3111L201.131 32.7468L197.493 32.7653L197.475 29.1273L193.846 29.1457L193.827 25.517L190.189 25.5354L190.171 21.9067L186.542 21.9251L186.524 18.2871L186.505 14.6584L186.487 11.0204L186.468 7.39164L186.45 3.75365L182.817 3.7721L182.789 0.147949L179.156 0.166393L175.522 0.184836L171.889 0.20328L168.256 0.221723L164.622 0.240167L160.984 0.25861L157.351 0.277054L157.369 3.90581L153.74 3.92426L153.759 7.56224L153.777 11.191L153.796 14.829L153.814 18.4577L157.443 18.4393L161.076 18.4209L164.714 18.4024L168.348 18.384L168.366 22.0219L164.733 22.0404L161.095 22.0588L161.113 25.6876L164.751 25.6691L168.385 25.6507L172.018 25.6323L172.036 29.261L172.055 32.899L168.422 32.9174L164.788 32.9359L164.807 36.5647L168.44 36.5462L168.458 40.1842L172.092 40.1657L172.073 36.5278L175.707 36.5093L175.725 40.1473L179.359 40.1289L179.377 43.7576L183.01 43.7392L183.029 47.3772M175.601 14.7183L175.582 11.0803L179.216 11.0619L179.234 14.6999L175.601 14.7183Z" fill="#F2F2F2"/>
<path d="M333.671 45.1686H330.77V39.3589H333.671V45.1686ZM351.091 39.3589H348.19V45.1686H351.091V39.3589ZM336.571 65.4979V62.5885H330.77V65.4979H336.571ZM327.861 62.5885H330.77V59.6882H327.861V62.5885ZM345.29 62.5885V65.4979H351.091V62.5885H345.29ZM354 62.5885V59.6882H351.091V62.5885H354ZM354 50.9783V56.788H351.091V59.6882H330.766V56.788H327.856V50.9783H330.766V48.0688H333.666V45.1686H348.186V48.0688H351.086V50.9783H353.995H354ZM348.19 50.9783H342.381V53.8785H348.19V50.9783ZM333.671 50.9783V53.8785H339.48V50.9783H333.671Z" fill="#F2F2F2"/>
<path d="M351.432 12.1408L351.054 10.8682L349.79 11.2417L349.417 9.97834L348.14 10.3564L347.761 9.07922L346.498 9.4527L346.125 8.18932L344.852 8.56741L344.474 7.29481L343.21 7.66829L342.837 6.40491L341.56 6.77839L341.186 5.50579L339.923 5.87927L339.545 4.61589L338.272 4.99398L337.894 3.72138L336.622 4.09486L336.248 2.83148L334.985 3.20496L334.607 1.93236L333.334 2.31045L332.956 1.04707L331.693 1.42055H331.683L331.305 0.147949L330.042 0.52143L328.778 0.894911L329.157 2.17212L329.53 3.4355L329.908 4.70811L330.282 5.97149L330.66 7.2487L331.033 8.51208L331.411 9.78468L331.785 11.0481L332.158 12.3253L332.536 13.5887L332.91 14.8613L333.283 16.1246L333.661 17.4018L334.039 18.6744L334.413 19.9378L334.791 21.2104L335.165 22.4738L335.543 23.751L335.916 25.0144L336.294 26.287L337.558 25.9135L338.83 25.5354L338.452 24.2628L339.72 23.8893L339.342 22.626L340.619 22.2479L340.241 20.9753L341.504 20.6018L342.782 20.2237L343.155 21.4963L343.529 22.7597L344.806 22.3816L345.184 23.6588L346.447 23.2853L346.821 24.5487L348.093 24.1706L349.357 23.7971L350.634 23.419L350.256 22.1557L349.882 20.8831L349.509 19.6151L349.131 18.3425L347.854 18.7206L347.48 17.4572L347.107 16.1846L345.839 16.5581L345.465 15.2947L346.729 14.9166L348.006 14.5431L349.269 14.165L350.542 13.7915L351.805 13.418L353.082 13.04L352.704 11.7627L351.432 12.1408Z" fill="#F2F2F2"/>
<path d="M86.6014 65.4979V0.147949L73.3774 0.147949V65.4979H86.6014Z" fill="#0060E6"/>
<path d="M60.5408 65.4979L60.5408 0.147949L47.3168 0.147949V65.4979H60.5408Z" fill="#D62D3B"/>
<path d="M112.667 65.4979V0.147949L99.4428 0.147949V65.4979H112.667Z" fill="#FAA701"/>
<path d="M13.9894 11.8411H0V25.8305H13.9894V11.8411Z" fill="#F2F2F2"/>
<path d="M27.9788 25.8306H13.9894V39.82H27.9788V25.8306Z" fill="#F2F2F2"/>
<path d="M13.9894 39.8152H0V53.8046H13.9894V39.8152Z" fill="#F2F2F2"/>
<g clip-path="url(#clip1_324_1761)">
<path d="M259.324 4.21606H257.216V12.6483H259.324V4.21606Z" fill="#F2F2F2"/>
<path d="M274.081 4.21606H271.973V16.8645H274.081V4.21606Z" fill="#F2F2F2"/>
<path d="M271.973 16.8645H269.865V27.4048H271.973V16.8645Z" fill="#F2F2F2"/>
<path d="M269.865 0H261.432V2.10806H269.865V0Z" fill="#F2F2F2"/>
<path d="M271.973 2.10815H269.865V4.21622H271.973V2.10815Z" fill="#F2F2F2"/>
<path d="M261.432 2.10815H259.324V4.21622H261.432V2.10815Z" fill="#F2F2F2"/>
<path d="M261.432 18.9727H259.324V21.0807H261.432V18.9727Z" fill="#F2F2F2"/>
<path d="M257.216 12.6484H255.108V14.7565H257.216V12.6484Z" fill="#F2F2F2"/>
<path d="M259.324 16.8645H255.108V18.9726H259.324V16.8645Z" fill="#F2F2F2"/>
<path d="M255.108 14.7563H253V16.8644H255.108V14.7563Z" fill="#F2F2F2"/>
<path d="M263.54 21.0806H261.432V27.4048H263.54V21.0806Z" fill="#F2F2F2"/>
<path d="M261.432 27.4048H259.324V29.5128H261.432V27.4048Z" fill="#F2F2F2"/>
<path d="M259.324 29.5129H257.216V31.621H259.324V29.5129Z" fill="#F2F2F2"/>
<path d="M255.108 33.7289V35.837H257.216V33.7289V31.6208H255.108V33.7289Z" fill="#F2F2F2"/>
<path d="M255.108 35.8372H253V46.3775H255.108V35.8372Z" fill="#F2F2F2"/>
<path d="M257.216 46.3774H255.108V50.5936H257.216V46.3774Z" fill="#F2F2F2"/>
<path d="M259.324 50.5935H257.216V52.7016H259.324V50.5935Z" fill="#F2F2F2"/>
<path d="M276.189 27.4048H271.973V29.5128H276.189V27.4048Z" fill="#F2F2F2"/>
<path d="M280.405 29.5129H276.189V31.621H280.405V29.5129Z" fill="#F2F2F2"/>
<path d="M284.621 31.6208H280.405V33.7289H284.621V31.6208Z" fill="#F2F2F2"/>
<path d="M290.945 33.729H284.621V35.8371H290.945V33.729Z" fill="#F2F2F2"/>
<path d="M263.54 52.7017H259.324V54.8097H263.54V52.7017Z" fill="#F2F2F2"/>
<path d="M295.161 35.8372H293.053V37.9452H295.161V35.8372Z" fill="#F2F2F2"/>
<path d="M295.161 31.6208H290.945V33.7289H295.161V31.6208Z" fill="#F2F2F2"/>
<path d="M297.269 33.729H295.161V35.8371H297.269V33.729Z" fill="#F2F2F2"/>
<path d="M290.945 40.0531H288.837V42.1612H293.053V44.2693H295.161V40.0531H293.053V37.9451H290.945V40.0531Z" fill="#F2F2F2"/>
<path d="M290.945 46.3774H288.837V48.4855H290.945V46.3774Z" fill="#F2F2F2"/>
<path d="M293.053 44.2693H290.945V46.3774H293.053V44.2693Z" fill="#F2F2F2"/>
<path d="M286.729 50.5935H280.405V52.7016H286.729V50.5935Z" fill="#F2F2F2"/>
<path d="M288.837 48.4856H286.729V50.5937H288.837V48.4856Z" fill="#F2F2F2"/>
<path d="M288.837 37.9451H284.621V40.0531H288.837V37.9451Z" fill="#F2F2F2"/>
<path d="M263.54 63.2418H265.648V56.9176H267.756V65.3499H269.864V56.9176H274.081V63.2418H276.189V56.9176V54.8096H263.54V56.9176V63.2418Z" fill="#F2F2F2"/>
<path d="M280.405 52.7017H278.297V65.35H280.405V52.7017Z" fill="#F2F2F2"/>
<path d="M263.54 63.2419H261.432V65.35H263.54V63.2419Z" fill="#F2F2F2"/>
<path d="M274.081 63.2419H271.973V65.35H274.081V63.2419Z" fill="#F2F2F2"/>
<path d="M290.945 33.7291V35.8372H284.621V33.7291H280.405V31.6211H276.189V29.513H271.973V27.4049H269.864V16.8646H271.973V4.21622H269.864V2.10815H261.432V4.21622H259.324V10.5404H263.54V12.6485H265.648V16.8646H259.324V18.9727H261.432V21.0807H263.54V27.4049H261.432V29.513H259.324V31.6211H257.216V35.8372H255.108V46.3775H257.216V50.5936H259.324V52.7017H263.54V54.8098H278.297V52.7017H280.405V50.5936H286.729V48.4856H288.837V46.3775H290.945V44.2694H293.053V42.1614H288.837V40.0533H284.621V37.9453H288.837V40.0533H290.945V37.9453H293.053V35.8372H295.161V33.7291H290.945ZM267.756 10.5404V8.43235H269.864V12.6485H267.756V10.5404Z" fill="#F2F2F2"/>
</g>
</g>
<defs>
<clipPath id="clip0_324_1761">
<rect width="354" height="65.3499" fill="white" transform="translate(0 0.147949)"/>
</clipPath>
<clipPath id="clip1_324_1761">
<rect width="44.2694" height="65.35" fill="white" transform="translate(253)"/>
</clipPath>
</defs>
</svg>
