<svg width="26" height="812" viewBox="0 0 26 812" fill="none" xmlns="http://www.w3.org/2000/svg">
<g clip-path="url(#clip0_361_2303)">
<path d="M26 421.528L26 416.768L23.1584 416.768L23.1584 421.528L26 421.528Z" fill="#F2F2F2"/>
<path d="M14.2608 811.15L14.2609 50.3906L8.17111 50.3906L8.17108 811.15L14.2608 811.15Z" fill="#F2F2F2"/>
<path d="M14.2608 811.527L14.2609 409.624L8.17111 409.624L8.1711 811.527L14.2608 811.527Z" fill="#0060E6"/>
<path d="M14.2608 811.528L14.2608 595.956L8.17105 595.956L8.17104 811.528L14.2608 811.528Z" fill="#D62D3B"/>
<path d="M14.2609 308.808L14.2609 226.949L8.17111 226.949L8.17111 308.808L14.2609 308.808Z" fill="#FAA701"/>
<path d="M14.2609 24.8631L14.2609 0.0419922L8.17111 0.0419919L8.17111 24.8631L14.2609 24.8631Z" fill="#0060E6"/>
<path d="M2.84161 55.8117L2.84161 51.0518L-2.00272e-05 51.0518L-2.02352e-05 55.8117L2.84161 55.8117Z" fill="#F2F2F2"/>
<path d="M2.84161 64.0451L2.84161 59.2852L-2.00272e-05 59.2852L-2.02352e-05 64.0451L2.84161 64.0451Z" fill="#F2F2F2"/>
<path d="M2.84161 72.2795L2.84161 67.5195L-2.00272e-05 67.5195L-2.02352e-05 72.2795L2.84161 72.2795Z" fill="#F2F2F2"/>
<path d="M2.84161 80.5129L2.84161 75.7529L-2.00272e-05 75.7529L-2.02352e-05 80.5129L2.84161 80.5129Z" fill="#F2F2F2"/>
</g>
<defs>
<clipPath id="clip0_361_2303">
<rect width="811.486" height="26" fill="white" transform="translate(26 0.0419922) rotate(90)"/>
</clipPath>
</defs>
</svg>
