<svg width="1440" height="69" viewBox="0 0 1440 69" fill="none" xmlns="http://www.w3.org/2000/svg">
<g clip-path="url(#clip0_624_1428)">
<path d="M1643.74 24.54H1047.56V40.72H1643.74V24.54Z" fill="#0060E6"/>
<path d="M1256.82 24.54H850.57V40.72H1256.82V24.54Z" fill="#FAA701"/>
<path d="M866.18 24.54H-340.5V40.72H866.18V24.54Z" fill="white"/>
<path d="M967.74 24.54H732.46V40.72H967.74V24.54Z" fill="#D62D3B"/>
<path d="M740.01 0.549805H732.46V8.0998H740.01V0.549805Z" fill="white"/>
<path d="M753.07 0.549805H745.52V8.0998H753.07V0.549805Z" fill="white"/>
<path d="M766.13 0.549805H758.58V8.0998H766.13V0.549805Z" fill="white"/>
<path d="M779.19 0.549805H771.64V8.0998H779.19V0.549805Z" fill="white"/>
<path d="M976.79 60.9497H969.24V68.4997H976.79V60.9497Z" fill="white"/>
<path d="M989.85 60.9497H982.3V68.4997H989.85V60.9497Z" fill="white"/>
<path d="M1002.91 60.9497H995.36V68.4997H1002.91V60.9497Z" fill="white"/>
</g>
<defs>
<clipPath id="clip0_624_1428">
<rect width="2121" height="67.96" fill="white" transform="translate(-340.5 0.549805)"/>
</clipPath>
</defs>
</svg>
