<svg width="66" height="180" viewBox="0 0 66 180" fill="none" xmlns="http://www.w3.org/2000/svg">
<path fill-rule="evenodd" clip-rule="evenodd" d="M36.1404 168.799C37.579 168.799 38.7719 169.992 38.7719 171.431V176.693C38.7719 178.132 37.6141 179.324 36.1404 179.324C34.6667 179.324 33.5088 178.132 33.5088 176.693V171.431C33.5088 169.992 34.7018 168.799 36.1404 168.799Z" fill="white"/>
<path fill-rule="evenodd" clip-rule="evenodd" d="M20.3509 168.799C21.7895 168.799 22.9825 169.992 22.9825 171.431V176.693C22.9825 178.132 21.7895 179.324 20.3509 179.324C18.9123 179.324 17.7193 178.132 17.7193 176.693V171.431C17.7193 169.992 18.9123 168.799 20.3509 168.799Z" fill="white"/>
<path fill-rule="evenodd" clip-rule="evenodd" d="M4.59648 168.799C6.03508 168.799 7.22806 169.992 7.22806 171.431L7.22806 176.693C7.22806 178.132 6.03508 179.324 4.59648 179.324C3.15789 179.324 1.9649 178.132 1.9649 176.693L1.9649 171.431C1.9649 169.992 3.15789 168.799 4.59648 168.799Z" fill="white"/>
<path fill-rule="evenodd" clip-rule="evenodd" d="M36.1404 84.7737C37.579 84.7737 38.7719 85.9665 38.7719 87.405V92.6675C38.7719 94.106 37.6141 95.2988 36.1404 95.2988C34.6667 95.2988 33.5088 94.106 33.5088 92.6675V87.405C33.5088 85.9665 34.7018 84.7737 36.1404 84.7737Z" fill="white"/>
<path fill-rule="evenodd" clip-rule="evenodd" d="M20.3509 84.7737C21.7895 84.7737 22.9825 85.9665 22.9825 87.405V92.6675C22.9825 94.106 21.7895 95.2988 20.3509 95.2988C18.9123 95.2988 17.7193 94.106 17.7193 92.6675V87.405C17.7193 85.9665 18.9123 84.7737 20.3509 84.7737Z" fill="white"/>
<path fill-rule="evenodd" clip-rule="evenodd" d="M4.59648 84.7737C6.03508 84.7737 7.22806 85.9665 7.22806 87.405L7.22806 92.6675C7.22806 94.106 6.03508 95.2988 4.59648 95.2988C3.15789 95.2988 1.9649 94.106 1.9649 92.6675L1.9649 87.405C1.9649 85.9665 3.15789 84.7737 4.59648 84.7737Z" fill="white"/>
<path fill-rule="evenodd" clip-rule="evenodd" d="M36.1404 0.713026C37.579 0.713026 38.7719 1.87079 38.7719 3.34431V8.60688C38.7719 10.0453 37.6141 11.2382 36.1404 11.2382C34.6667 11.2382 33.5088 10.0453 33.5088 8.60688V3.34431C33.5088 1.90587 34.7018 0.713026 36.1404 0.713026Z" fill="white"/>
<path fill-rule="evenodd" clip-rule="evenodd" d="M20.3509 0.713026C21.7895 0.713026 22.9825 1.87079 22.9825 3.34431V8.60688C22.9825 10.0453 21.7895 11.2382 20.3509 11.2382C18.9123 11.2382 17.7193 10.0453 17.7193 8.60688V3.34431C17.7193 1.90587 18.9123 0.713026 20.3509 0.713026Z" fill="white"/>
<path fill-rule="evenodd" clip-rule="evenodd" d="M4.59648 0.713026C6.03508 0.713026 7.22806 1.87079 7.22806 3.34431L7.22806 8.60688C7.22806 10.0453 6.03508 11.2382 4.59648 11.2382C3.15789 11.2382 1.9649 10.0453 1.9649 8.60688L1.9649 3.34431C1.9649 1.90587 3.15789 0.713026 4.59648 0.713026Z" fill="white"/>
<path fill-rule="evenodd" clip-rule="evenodd" d="M4.59648 147.784C6.03508 147.784 7.22806 148.977 7.22806 150.416L7.22806 155.678C7.22806 157.117 6.03508 158.309 4.59648 158.309C3.15789 158.309 1.9649 157.117 1.9649 155.678L1.9649 150.416C1.9649 148.977 3.15789 147.784 4.59648 147.784Z" fill="white"/>
<path fill-rule="evenodd" clip-rule="evenodd" d="M4.59648 105.754C6.03508 105.754 7.22806 106.947 7.22806 108.385L7.22806 113.648C7.22806 115.086 6.03508 116.279 4.59648 116.279C3.15789 116.279 1.9649 115.086 1.9649 113.648L1.9649 108.385C1.9649 106.947 3.15789 105.754 4.59648 105.754Z" fill="white"/>
<path fill-rule="evenodd" clip-rule="evenodd" d="M36.1404 63.7234C37.579 63.7234 38.7719 64.8812 38.7719 66.3547V71.6173C38.7719 73.0557 37.6141 74.2485 36.1404 74.2485C34.6667 74.2485 33.5088 73.0908 33.5088 71.6173V66.3547C33.5088 64.9162 34.7018 63.7234 36.1404 63.7234Z" fill="white"/>
<path fill-rule="evenodd" clip-rule="evenodd" d="M36.2106 21.7282C37.6492 21.7282 38.8421 22.8859 38.8421 24.3594V29.622C38.8421 31.0604 37.6492 32.2533 36.2106 32.2533C34.772 32.2533 33.579 31.0955 33.579 29.622V24.3594C33.579 22.921 34.772 21.7282 36.2106 21.7282Z" fill="white"/>
<path fill-rule="evenodd" clip-rule="evenodd" d="M4.5965 128.348C6.63159 128.348 8.28071 129.997 8.28071 132.032C8.28071 134.066 6.63159 135.715 4.5965 135.715C2.56141 135.715 0.912292 134.066 0.912292 132.032C0.912292 129.997 2.56141 128.348 4.5965 128.348Z" fill="white"/>
<path fill-rule="evenodd" clip-rule="evenodd" d="M20.3509 128.348C22.386 128.348 24.0351 129.997 24.0351 132.032C24.0351 134.066 22.386 135.715 20.3509 135.715C18.3158 135.715 16.6667 134.066 16.6667 132.032C16.6667 129.997 18.3158 128.348 20.3509 128.348Z" fill="white"/>
<path fill-rule="evenodd" clip-rule="evenodd" d="M36.1053 44.3221C38.1404 44.3221 39.7895 45.9711 39.7895 48.0059C39.7895 50.0408 38.1404 51.6897 36.1053 51.6897C34.0702 51.6897 32.4211 50.0408 32.4211 48.0059C32.4211 45.9711 34.0702 44.3221 36.1053 44.3221Z" fill="white"/>
<path fill-rule="evenodd" clip-rule="evenodd" d="M20.3509 44.3221C22.386 44.3221 24.0351 45.9711 24.0351 48.0059C24.0351 50.0408 22.386 51.6897 20.3509 51.6897C18.3158 51.6897 16.6667 50.0408 16.6667 48.0059C16.6667 45.9711 18.3158 44.3221 20.3509 44.3221Z" fill="white"/>
<path d="M62.9825 157.397L59.6141 159.151L62.9825 160.941V157.397ZM57.8246 159.186V159.046L65.6842 154.766V155.959L63.7544 156.976V161.327L65.6842 162.344V163.467L57.8246 159.186Z" fill="white"/>
<path d="M61.8245 145.398C61.8245 143.539 61.2632 142.627 60.2807 142.627C59.193 142.627 58.7719 143.609 58.7719 145.574V146.311H61.8245V145.363M58 147.398V145.469C58 142.837 58.807 141.539 60.2456 141.539C61.3333 141.539 62.2105 142.451 62.421 143.925L65.6842 140.592V141.96L62.5263 145.153V146.311H65.6842V147.398H58.0351H58Z" fill="white"/>
<path d="M65.0877 130.804C65.0877 129.611 64.5263 128.874 63.7193 128.874C62.9123 128.874 62.5263 129.541 62.1053 130.698L61.8597 131.33C61.3333 132.698 60.6316 133.365 59.6842 133.365C58.5614 133.365 57.7193 132.312 57.7193 130.698C57.7193 129.856 57.9298 129.085 58.2456 128.488H59.2281C58.7368 129.26 58.4912 129.997 58.4912 130.734C58.4912 131.716 58.9825 132.347 59.614 132.347C60.2456 132.347 60.7018 131.786 61.1228 130.628L61.3684 129.997C61.8947 128.558 62.7017 127.822 63.6842 127.822C64.9474 127.822 65.8947 129.014 65.8947 130.769C65.8947 131.576 65.6842 132.453 65.2983 133.4L64.2105 133.505C64.7368 132.488 65.0176 131.646 65.0176 130.839" fill="white"/>
<path d="M58 119.612V118.524H61.193V113.402H58V112.315H65.6491V113.402H62.0351V118.524H65.6491V119.612H58Z" fill="white"/>
<path d="M62.9825 98.8422L59.6141 100.596L62.9825 102.386V98.8422ZM57.8246 100.667V100.526L65.6842 96.246V97.4389L63.7544 98.4563V102.807L65.6842 103.824V104.947L57.8246 100.667Z" fill="white"/>
<path d="M58 88.8785V87.791H64.8421V83.4756H65.6491V88.8785H58Z" fill="white"/>
<path d="M58 75.8976V74.81H64.8421V70.4947H65.6491V75.8976H58Z" fill="white"/>
<path d="M66 50.9179L58.0351 54.1105V52.9878L63.7193 50.8126L57.7895 48.4269V48.3216L63.7193 46.0763L58.0351 43.9362V42.8486L66 46.0763V46.2166L60.0702 48.4269L66 50.8126V50.9529V50.9179Z" fill="white"/>
<path d="M62.9825 31.2007L59.6141 32.9549L62.9825 34.7442V31.2007ZM57.8246 33.0251V32.8848L65.6842 28.6045V29.7974L63.7544 30.8148V35.1652L65.6842 36.1826V37.3053L57.8246 33.0251Z" fill="white"/>
<path d="M65.8947 17.5532C65.8947 18.6057 65.614 19.5881 65.0526 20.395C64.2807 21.5177 63.1228 22.1492 61.8246 22.1492C59.4737 22.1492 57.7193 20.1494 57.7193 17.5181C57.7193 16.5709 57.9649 15.6587 58.4561 14.8167L59.4035 14.9219C58.8421 15.7288 58.5614 16.5708 58.5614 17.483C58.5614 19.5179 59.9298 21.0265 61.8246 21.0265C63.7193 21.0265 65.0526 19.553 65.0526 17.5181C65.0526 16.5358 64.7368 15.6236 64.0702 14.7114L65.1579 14.8167C65.6491 15.6236 65.8947 16.5709 65.8947 17.5532Z" fill="white"/>
<path d="M58 6.74744V1.69536H58.7719V5.69494H61.2632V2.25672H62.0351V5.69494H64.807V1.6603L65.614 1.6603V6.74744L57.9649 6.74744H58Z" fill="white"/>
<path d="M57.6843 171.782L65.6492 168.589V169.747L59.965 171.922L65.8948 174.308V174.413L59.965 176.658L65.6492 178.798V179.886L57.6843 176.658V176.518L63.6141 174.308L57.6843 171.922V171.782Z" fill="white"/>
</svg>
