<svg width="181" height="66" viewBox="0 0 181 66" fill="none" xmlns="http://www.w3.org/2000/svg">
<path fill-rule="evenodd" clip-rule="evenodd" d="M12.0759 36.1404C12.0759 37.579 10.8831 38.7719 9.44463 38.7719H4.18206C2.74363 38.7719 1.55078 37.6141 1.55078 36.1404C1.55078 34.6667 2.74363 33.5088 4.18206 33.5088H9.44463C10.8831 33.5088 12.0759 34.7018 12.0759 36.1404Z" fill="black"/>
<path fill-rule="evenodd" clip-rule="evenodd" d="M12.0759 20.3509C12.0759 21.7895 10.8831 22.9825 9.44463 22.9825H4.18206C2.74363 22.9825 1.55078 21.7895 1.55078 20.3509C1.55078 18.9123 2.74363 17.7193 4.18206 17.7193H9.44463C10.8831 17.7193 12.0759 18.9123 12.0759 20.3509Z" fill="black"/>
<path fill-rule="evenodd" clip-rule="evenodd" d="M12.0759 4.59649C12.0759 6.03509 10.8831 7.22807 9.44463 7.22807H4.18206C2.74363 7.22807 1.55078 6.03509 1.55078 4.59649C1.55078 3.1579 2.74363 1.96491 4.18206 1.96491H9.44463C10.8831 1.96491 12.0759 3.1579 12.0759 4.59649Z" fill="black"/>
<path fill-rule="evenodd" clip-rule="evenodd" d="M96.1015 36.1404C96.1015 37.579 94.9087 38.7719 93.4703 38.7719H88.2077C86.7693 38.7719 85.5764 37.6141 85.5764 36.1404C85.5764 34.6667 86.7693 33.5088 88.2077 33.5088H93.4703C94.9087 33.5088 96.1015 34.7018 96.1015 36.1404Z" fill="black"/>
<path fill-rule="evenodd" clip-rule="evenodd" d="M96.1015 20.3509C96.1015 21.7895 94.9087 22.9825 93.4703 22.9825H88.2077C86.7693 22.9825 85.5764 21.7895 85.5764 20.3509C85.5764 18.9123 86.7693 17.7193 88.2077 17.7193H93.4703C94.9087 17.7193 96.1015 18.9123 96.1015 20.3509Z" fill="black"/>
<path fill-rule="evenodd" clip-rule="evenodd" d="M96.1015 4.59649C96.1015 6.03509 94.9087 7.22807 93.4703 7.22807H88.2077C86.7693 7.22807 85.5764 6.03509 85.5764 4.59649C85.5764 3.1579 86.7693 1.96491 88.2077 1.96491H93.4703C94.9087 1.96491 96.1015 3.1579 96.1015 4.59649Z" fill="black"/>
<path fill-rule="evenodd" clip-rule="evenodd" d="M180.162 36.1404C180.162 37.579 179.004 38.7719 177.531 38.7719H172.268C170.83 38.7719 169.637 37.6141 169.637 36.1404C169.637 34.6667 170.83 33.5088 172.268 33.5088H177.531C178.969 33.5088 180.162 34.7018 180.162 36.1404Z" fill="black"/>
<path fill-rule="evenodd" clip-rule="evenodd" d="M180.162 20.3509C180.162 21.7895 179.004 22.9825 177.531 22.9825H172.268C170.83 22.9825 169.637 21.7895 169.637 20.3509C169.637 18.9123 170.83 17.7193 172.268 17.7193H177.531C178.969 17.7193 180.162 18.9123 180.162 20.3509Z" fill="black"/>
<path fill-rule="evenodd" clip-rule="evenodd" d="M180.162 4.59649C180.162 6.03509 179.004 7.22807 177.531 7.22807H172.268C170.83 7.22807 169.637 6.03509 169.637 4.59649C169.637 3.1579 170.83 1.96491 172.268 1.96491H177.531C178.969 1.96491 180.162 3.1579 180.162 4.59649Z" fill="black"/>
<path fill-rule="evenodd" clip-rule="evenodd" d="M33.0909 4.59649C33.0909 6.03509 31.8981 7.22807 30.4596 7.22807H25.1971C23.7586 7.22807 22.5658 6.03509 22.5658 4.59649C22.5658 3.1579 23.7586 1.96491 25.1971 1.96491H30.4596C31.8981 1.96491 33.0909 3.1579 33.0909 4.59649Z" fill="black"/>
<path fill-rule="evenodd" clip-rule="evenodd" d="M75.1213 4.59649C75.1213 6.03509 73.9285 7.22807 72.49 7.22807H67.2275C65.789 7.22807 64.5962 6.03509 64.5962 4.59649C64.5962 3.1579 65.789 1.96491 67.2275 1.96491H72.49C73.9285 1.96491 75.1213 3.1579 75.1213 4.59649Z" fill="black"/>
<path fill-rule="evenodd" clip-rule="evenodd" d="M117.152 36.1404C117.152 37.579 115.994 38.7719 114.521 38.7719H109.258C107.82 38.7719 106.627 37.6141 106.627 36.1404C106.627 34.6667 107.784 33.5088 109.258 33.5088H114.521C115.959 33.5088 117.152 34.7018 117.152 36.1404Z" fill="black"/>
<path fill-rule="evenodd" clip-rule="evenodd" d="M159.147 36.2105C159.147 37.6491 157.989 38.8421 156.516 38.8421H151.253C149.815 38.8421 148.622 37.6491 148.622 36.2105C148.622 34.7719 149.78 33.579 151.253 33.579H156.516C157.954 33.579 159.147 34.7719 159.147 36.2105Z" fill="black"/>
<path fill-rule="evenodd" clip-rule="evenodd" d="M52.5275 4.5965C52.5275 6.63159 50.8786 8.28071 48.8437 8.28071C46.8088 8.28071 45.1599 6.63159 45.1599 4.5965C45.1599 2.56141 46.8088 0.912292 48.8437 0.912292C50.8786 0.912292 52.5275 2.56141 52.5275 4.5965Z" fill="black"/>
<path fill-rule="evenodd" clip-rule="evenodd" d="M52.5275 20.3509C52.5275 22.386 50.8786 24.0351 48.8437 24.0351C46.8088 24.0351 45.1599 22.386 45.1599 20.3509C45.1599 18.3158 46.8088 16.6667 48.8437 16.6667C50.8786 16.6667 52.5275 18.3158 52.5275 20.3509Z" fill="black"/>
<path fill-rule="evenodd" clip-rule="evenodd" d="M136.553 36.1053C136.553 38.1404 134.904 39.7895 132.869 39.7895C130.834 39.7895 129.186 38.1404 129.186 36.1053C129.186 34.0702 130.834 32.4211 132.869 32.4211C134.904 32.4211 136.553 34.0702 136.553 36.1053Z" fill="black"/>
<path fill-rule="evenodd" clip-rule="evenodd" d="M136.553 20.3509C136.553 22.386 134.904 24.0351 132.869 24.0351C130.834 24.0351 129.186 22.386 129.186 20.3509C129.186 18.3158 130.834 16.6667 132.869 16.6667C134.904 16.6667 136.553 18.3158 136.553 20.3509Z" fill="black"/>
<path d="M23.4781 62.9825L21.7239 59.6141L19.9346 62.9825H23.4781ZM21.6888 57.8246H21.8291L26.1093 65.6842H24.9165L23.8991 63.7544H19.5487L18.5312 65.6842H17.4086L21.6888 57.8246Z" fill="black"/>
<path d="M35.4768 61.8245C37.3363 61.8245 38.2484 61.2632 38.2484 60.2807C38.2484 59.193 37.2661 58.7719 35.3014 58.7719H34.5646V61.8245H35.5119M33.4771 58H35.4067C38.0379 58 39.336 58.807 39.336 60.2456C39.336 61.3333 38.4239 62.2105 36.9503 62.421L40.2833 65.6842H38.915L35.7224 62.5263H34.5646V65.6842H33.4771V58.0351V58Z" fill="black"/>
<path d="M50.0716 65.0877C51.2644 65.0877 52.0012 64.5263 52.0012 63.7193C52.0012 62.9123 51.3346 62.5263 50.1768 62.1053L49.5453 61.8597C48.177 61.3333 47.5105 60.6316 47.5105 59.6842C47.5105 58.5614 48.563 57.7193 50.1768 57.7193C51.0188 57.7193 51.7907 57.9298 52.3871 58.2456V59.2281C51.6153 58.7368 50.8785 58.4912 50.1417 58.4912C49.1594 58.4912 48.5279 58.9825 48.5279 59.614C48.5279 60.2456 49.0892 60.7018 50.247 61.1228L50.8785 61.3684C52.3169 61.8947 53.0537 62.7017 53.0537 63.6842C53.0537 64.9474 51.8608 65.8947 50.1066 65.8947C49.2997 65.8947 48.4226 65.6842 47.4754 65.2983L47.3701 64.2105C48.3875 64.7368 49.2296 65.0176 50.0365 65.0176" fill="black"/>
<path d="M61.2633 58H62.3509V61.193H67.4731V58H68.5607V65.6491H67.4731V62.0351H62.3509V65.6491H61.2633V58Z" fill="black"/>
<path d="M82.033 62.9825L80.2789 59.6141L78.4896 62.9825H82.033ZM80.2087 57.8246H80.349L84.6292 65.6842H83.4364L82.419 63.7544H78.0686L77.0511 65.6842H75.9285L80.2087 57.8246Z" fill="black"/>
<path d="M91.9967 58H93.0843V64.8421H97.3996V65.6491H91.9967V58Z" fill="black"/>
<path d="M104.978 58H106.065V64.8421H110.381V65.6491H104.978V58Z" fill="black"/>
<path d="M129.957 66L126.765 58.0351H127.887L130.063 63.7193L132.448 57.7895H132.554L134.799 63.7193L136.939 58.0351H138.027L134.799 66H134.659L132.448 60.0702L130.063 66H129.922H129.957Z" fill="black"/>
<path d="M149.675 62.9825L147.92 59.6141L146.131 62.9825H149.675ZM147.85 57.8246H147.99L152.271 65.6842H151.078L150.06 63.7544H145.71L144.693 65.6842H143.57L147.85 57.8246Z" fill="black"/>
<path d="M163.322 65.8947C162.27 65.8947 161.287 65.614 160.48 65.0526C159.358 64.2807 158.726 63.1228 158.726 61.8246C158.726 59.4737 160.726 57.7193 163.357 57.7193C164.304 57.7193 165.217 57.9649 166.059 58.4561L165.953 59.4035C165.146 58.8421 164.304 58.5614 163.392 58.5614C161.357 58.5614 159.849 59.9298 159.849 61.8246C159.849 63.7193 161.322 65.0526 163.357 65.0526C164.339 65.0526 165.252 64.7368 166.164 64.0702L166.059 65.1579C165.252 65.6491 164.304 65.8947 163.322 65.8947Z" fill="black"/>
<path d="M174.128 58H179.18V58.7719H175.18V61.2632H178.619V62.0351H175.18V64.807H179.215V65.614H174.128V57.9649V58Z" fill="black"/>
<path d="M9.09374 57.6842L12.2864 65.6492H11.1286L8.9534 59.965L6.5677 65.8948H6.46245L4.21709 59.965L2.07698 65.6492H0.98938L4.21709 57.6842H4.35743L6.5677 63.6141L8.9534 57.6842H9.09374Z" fill="black"/>
</svg>
