<?xml version="1.0" encoding="UTF-8"?>
<svg id="Layer_1" xmlns="http://www.w3.org/2000/svg" viewBox="0 0 425.2 98.35">
  <defs>
    <style>
      .cls-1 {
        fill: #f2f2f2;
      }
    </style>
  </defs>
  <path class="cls-1" d="M73.43,0h10.87v32.97h41.06V.03h10.89v77.85h-10.84v-35.2h-41.1v35.18h-10.88V0Z"/>
  <path class="cls-1" d="M415.28,28.42v-8.21h9.83c.02.5.07.98.07,1.47,0,16.07.06,32.14-.04,48.21-.02,3.72-.33,7.48-.95,11.15-1.32,7.8-6.15,12.85-13.48,15.36-7.76,2.66-15.63,2.68-23.29-.45-6.52-2.66-10.12-7.8-11.49-14.59-.03-.15-.04-.3-.03-.45,0-.09.06-.19.15-.43,3.17,0,6.39-.02,9.61.04.28,0,.69.52.79.87,1.57,5.15,5.24,7.67,10.42,8.01,2.55.16,5.17.09,7.68-.36,5.72-1.02,9.58-5.05,10.33-10.82.45-3.48.41-7.03.59-10.79-.4.25-.55.29-.61.38-4.3,6.79-10.71,9.38-18.47,9.19-10.67-.26-18.81-6.53-21.77-17.18-2.84-10.23-2.63-20.37,2.79-29.81,6.39-11.14,22.31-14.55,32.39-7.04,2.03,1.51,3.63,3.6,5.46,5.45ZM383.69,48.14c-.14.02-.27.05-.41.07.61,3.41.92,6.92,1.89,10.22,3.86,13.09,19.71,12.3,25.51,5.68,2.85-3.25,4.27-7.06,4.74-11.26.66-5.9.55-11.74-2.27-17.16-3.09-5.93-8.2-8.39-14.75-8.12-6.54.27-10.87,3.59-13.11,9.69-1.29,3.51-1.66,7.17-1.6,10.89Z"/>
  <path class="cls-1" d="M157.94,52.28c-.3,10.53,7.24,19.74,19.83,18.39,5.77-.62,10.12-3.25,12.64-8.61.16-.35.6-.8.91-.81,3.12-.06,6.25-.04,9.57-.04-1.12,4.09-2.99,7.54-5.81,10.45-5.32,5.5-12,7.63-19.47,7.71-7.73.08-14.71-1.96-20.3-7.57-3.9-3.91-6.15-8.71-7.27-14.07-1.34-6.39-1.27-12.76.53-19.04,3.13-10.92,11.62-18.18,22.98-19.37,10.2-1.06,18.82,2.03,24.83,10.73,4.36,6.32,5.64,13.51,5.42,21.06-.04,1.26-.76,1.16-1.61,1.16-13.46,0-26.91,0-40.37,0h-1.87ZM158.07,43.79h33.1c.75-8.49-6.73-16.1-16.01-16.25-11.72-.18-17.1,7.84-17.09,16.25Z"/>
  <path class="cls-1" d="M38.01,1.03h18.94v76.98h-18.94V1.03Z"/>
  <path class="cls-1" d="M0,1.01h18.86v77.05H0V1.01Z"/>
  <path class="cls-1" d="M231.44,59.34h10.32c.19.68.34,1.31.54,1.93,1.71,5.52,5.43,8.73,11.16,9.56,4.44.64,8.8.35,12.87-1.73,5.9-3.03,6.18-9.77.58-13.33-3.24-2.05-7-2.5-10.63-3.37-4.51-1.08-9.15-1.85-13.46-3.48-9.19-3.48-10.82-11.46-9.04-17.8.93-3.31,2.99-5.95,5.92-7.6,10.17-5.72,20.65-6.48,31.06-.82,5.42,2.95,8.15,8.05,9.29,14.28-3.32,0-6.48.02-9.64-.04-.28,0-.7-.51-.8-.86-1.37-4.65-4.55-7.27-9.21-8.18-4.4-.86-8.76-.7-12.95,1.07-2.55,1.08-4.3,2.86-4.32,5.82-.03,2.95,1.37,5.18,4.12,6.1,3.33,1.12,6.81,1.8,10.22,2.69,4.25,1.11,8.6,1.91,12.7,3.41,6.18,2.27,10.34,6.47,10.62,13.51.3,7.45-3.11,12.9-9.78,15.83-10.42,4.59-20.87,4.69-30.63-1.89-5.19-3.5-8.03-8.67-8.93-15.1Z"/>
  <path class="cls-1" d="M325.55,27.92c2.15-1.93,3.97-4.13,6.28-5.52,6.91-4.15,14.32-4.42,21.7-1.47,5.04,2.02,7.64,6.34,8.79,11.44.61,2.69.96,5.49.99,8.24.11,12.13.05,24.25.06,36.38,0,.25-.03.5-.05.87h-9.77c0-.67,0-1.26,0-1.85-.02-11.47-.02-22.94-.1-34.41-.01-1.75-.28-3.53-.66-5.25-1.21-5.5-4.7-8.37-10.34-8.67-9.2-.49-15.12,4.32-16.44,13.49-.3,2.09-.41,4.22-.42,6.34-.04,9.55-.02,19.1-.02,28.65,0,.54,0,1.08,0,1.72h-9.74V20.16h9.72v7.76Z"/>
  <path class="cls-1" d="M212.15.02h9.63v77.87h-9.63V.02Z"/>
  <path class="cls-1" d="M291.7,20.18h9.64v57.71h-9.64V20.18Z"/>
  <path class="cls-1" d="M25.33,52.28v-25.54h6.14v25.54h-6.14Z"/>
  <path class="cls-1" d="M291.67,11.66V.05h9.68v11.61h-9.68Z"/>
</svg>