<?xml version="1.0" encoding="UTF-8"?>
<svg id="Layer_1" xmlns="http://www.w3.org/2000/svg" viewBox="0 0 104.67 188.05">
  <defs>
    <style>
      .cls-1 {
        fill: #f2f2f2;
      }
    </style>
  </defs>
  <path class="cls-1" d="M34.8,141.47H0V0h34.8v141.47Z"/>
  <path class="cls-1" d="M104.53,141.47h-34.8V0h34.8v141.47Z"/>
  <path class="cls-1" d="M46.49,47.17h11.53v47.08h-11.53v-47.08Z"/>
  <path class="cls-1" d="M.28,158.84h3.19v9.79h12.2v-9.78h3.21v23.1h-3.18v-10.45H3.48v10.45H.28v-23.12Z"/>
  <path class="cls-1" d="M101.66,178.89c-.9,1.46-2.16,2.38-3.85,2.68-3.94.69-7.08-1.24-8.16-5.11-.72-2.56-.67-5.13.32-7.62,1.58-3.97,5.39-4.97,8.64-3.98,1.34.41,2.32,1.31,3.13,2.62v-2.64h2.93c0,.18,0,.36,0,.54,0,4.74.02,9.48-.01,14.22,0,1.07-.09,2.15-.26,3.21-.4,2.43-1.88,3.98-4.17,4.71-2.47.79-4.95.76-7.29-.45-1.7-.88-2.57-2.38-2.89-4.3.99,0,1.93,0,2.86.01.1,0,.24.16.28.27.5,1.57,1.64,2.31,3.21,2.36.86.03,1.76-.01,2.58-.23,1.4-.37,2.35-1.34,2.58-2.8.18-1.13.19-2.29.27-3.44l-.18-.05ZM92.27,173c.12.93.16,1.74.32,2.52.46,2.21,1.8,3.48,3.83,3.71,2.13.24,3.99-.72,4.8-2.66.95-2.26.96-4.6.02-6.87-.81-1.95-2.5-2.84-4.78-2.68-1.85.13-3.22,1.27-3.75,3.27-.24.92-.31,1.88-.44,2.71Z"/>
  <path class="cls-1" d="M38.42,174.35h-13.06c-.28,2.23,1.28,4.58,3.45,5.27,2.63.83,4.96-.11,6.3-2.58h2.96c-.38,1.4-1.09,2.56-2.16,3.5-.9.8-1.95,1.31-3.11,1.59-1.58.37-3.17.38-4.74-.02-2.45-.63-4.18-2.12-5.11-4.46-1.09-2.75-1.14-5.55-.01-8.3,1.44-3.53,4.83-5.23,8.48-4.77,3.67.46,6.17,3.03,6.75,6.78.15.95.17,1.93.25,2.99ZM35.28,171.86c-.13-1.83-.78-3.34-2.4-4.22-1.9-1.03-3.84-.91-5.63.29-1.36.91-1.82,2.32-1.9,3.93h9.93Z"/>
  <path class="cls-1" d="M61.57,169.79c-.97,0-1.89,0-2.81-.01-.09,0-.24-.14-.26-.24-.5-1.68-1.74-2.38-3.38-2.55-1.1-.11-2.18-.03-3.21.42-.76.33-1.29.86-1.3,1.75,0,.91.46,1.58,1.3,1.85,1.15.36,2.34.58,3.51.88,1.07.27,2.16.5,3.19.88,1.81.67,3.06,1.87,3.18,3.94.12,2.23-.87,3.86-2.86,4.77-2.82,1.29-5.71,1.36-8.49-.15-1.88-1.02-2.94-2.69-3.27-4.9.98,0,1.93,0,2.88.01.08,0,.21.16.23.26.67,2.73,2.84,3.47,5.33,3.19.65-.07,1.31-.29,1.92-.56.79-.35,1.32-.98,1.35-1.91.03-.96-.42-1.71-1.26-2.07-.96-.42-1.99-.68-3.01-.95-1.05-.28-2.14-.44-3.19-.73-.64-.18-1.27-.46-1.83-.82-2.46-1.57-2.6-5.02-.3-6.82,1.15-.9,2.49-1.31,3.91-1.47,1.95-.22,3.87-.1,5.6.97,1.56.97,2.43,2.4,2.76,4.25Z"/>
  <path class="cls-1" d="M72.23,164.82h2.85v2.35c.06.04.11.07.17.11.02-.08.03-.17.08-.23,1.1-1.6,2.67-2.38,4.56-2.5.78-.05,1.59-.02,2.36.12,2.03.38,3.23,1.68,3.74,3.64.18.68.31,1.39.31,2.09.03,3.78.02,7.57.02,11.35,0,.05-.01.1-.02.19h-2.87c0-.19,0-.38,0-.57,0-3.41,0-6.83-.03-10.24,0-.52-.08-1.04-.2-1.54-.37-1.61-1.41-2.46-3.07-2.55-2.74-.15-4.52,1.31-4.9,4.04-.09.61-.12,1.24-.12,1.86-.01,2.81,0,5.62,0,8.42,0,.18,0,.36,0,.58h-2.87v-17.12Z"/>
  <path class="cls-1" d="M41.45,158.84h2.84v23.11h-2.84v-23.11Z"/>
  <path class="cls-1" d="M65.06,164.83h2.83v17.12h-2.83v-17.12Z"/>
  <path class="cls-1" d="M67.92,158.84v3.42h-2.86v-3.42h2.86Z"/>
</svg>