<?xml version="1.0" encoding="UTF-8"?>
<svg id="Layer_1" xmlns="http://www.w3.org/2000/svg" viewBox="0 0 425.2 91.42">
  <defs>
    <style>
      .cls-1 {
        fill-rule: evenodd;
      }

      .cls-1, .cls-2 {
        fill: #f2f2f2;
      }
    </style>
  </defs>
  <path class="cls-2" d="M123.54,57.98c0,1.21-.26,2.28-.77,3.21-.49.92-1.24,1.68-2.16,2.18-.94.51-1.99.77-3.2.77h-5.99v8.72h7.26c2.73,0,5.18-.61,7.35-1.84,2.14-1.19,3.91-2.94,5.12-5.06,1.24-2.15,1.86-4.57,1.86-7.27v-28.66h-9.48v27.95ZM149.05,55.37h19.84v-8.01h-19.84v-9.09h21.93v-8.25h-31.17v42.82h31.78v-8.25h-22.55v-9.22ZM174.57,38.52h12.69v34.31h9.48v-34.31h12.63v-8.49h-34.81v8.51h.01ZM241.74,51.37c-.76-.4-1.56-.71-2.39-.92.63-.18,1.24-.41,1.82-.7,1.57-.81,2.8-1.95,3.68-3.41.88-1.47,1.34-3.14,1.34-5.05,0-2.18-.6-4.13-1.78-5.85-1.18-1.71-2.85-3.04-4.98-4.01-2.13-.95-4.58-1.44-7.31-1.44h-19.02v42.82h19.39c2.87,0,5.43-.5,7.7-1.51,2.25-1.01,4-2.4,5.25-4.21,1.24-1.79,1.86-3.84,1.86-6.15,0-2.12-.48-4.01-1.47-5.69-.96-1.66-2.38-3.01-4.08-3.9h-.01s0,.01,0,.01ZM222.3,37.21h8.41c1.17,0,2.19.21,3.09.63.86.38,1.58,1,2.09,1.79.5.77.75,1.68.75,2.72s-.26,2.02-.75,2.83c-.5.81-1.2,1.42-2.09,1.86-.9.44-1.92.65-3.09.65h-8.41v-10.5h0v.02ZM236.79,63.11c-.54.81-1.31,1.44-2.29,1.88-1,.44-2.12.65-3.41.65h-8.78v-10.98h8.78c1.27,0,2.39.24,3.39.71.98.47,1.76,1.12,2.3,1.98.54.85.83,1.82.83,2.92s-.27,2.03-.81,2.85h0ZM279.06,55.53c2.38-1.14,4.21-2.75,5.52-4.81,1.31-2.06,1.96-4.45,1.96-7.18s-.64-5.04-1.92-7.08c-1.28-2.05-3.1-3.63-5.45-4.75-2.35-1.12-5.07-1.68-8.17-1.68h-18.75v42.82h9.49v-15.59h6.17l8.69,15.59h10.82l-9.79-16.74c.48-.17.97-.36,1.42-.57h-.01ZM275.99,46.78c-.53.9-1.32,1.62-2.26,2.06-.98.48-2.13.72-3.46.72h-8.54v-11.85h8.54c1.32,0,2.47.24,3.46.71.94.44,1.73,1.15,2.26,2.05.53.88.8,1.94.8,3.13s-.27,2.25-.8,3.15v.03ZM305.41,30.02l-15.29,42.82h9.63l3.03-9.45h15.88l3.24,9.45h9.45l-15.66-42.82h-10.27ZM304.92,56.23l4.92-15.11.58-2.75.58,2.75,5.26,15.11h-11.35ZM334.48,72.84h9.79V30.02h-9.79v42.82ZM378.79,58.98l-18.42-28.96h-9.23v42.82h8.65v-28.96l18.32,28.96h9.33V30.02h-8.65v28.96h0ZM423.83,54.19c-.92-1.78-2.23-3.27-3.9-4.48-1.66-1.21-3.58-2.01-5.75-2.42l-7.28-1.49c-1.14-.27-2.05-.74-2.72-1.42-.67-.68-1.01-1.54-1.01-2.55,0-.92.24-1.72.74-2.4.48-.68,1.18-1.21,2.06-1.59.88-.38,1.91-.57,3.07-.57s2.22.2,3.12.6c.9.4,1.59.95,2.09,1.68.5.72.76,1.58.75,2.46h9.49c-.06-2.49-.75-4.7-2.06-6.6-1.31-1.92-3.14-3.41-5.48-4.5-2.33-1.08-5.01-1.62-8-1.62s-5.63.55-7.95,1.68c-2.32,1.12-4.14,2.67-5.43,4.67-1.29,1.99-1.95,4.25-1.95,6.8,0,2.06.41,3.93,1.25,5.58.83,1.65,2.04,3.07,3.54,4.14,1.54,1.1,3.3,1.86,5.32,2.29l7.71,1.59c1.27.3,2.26.85,3,1.65.74.8,1.1,1.78,1.1,2.97.01.92-.27,1.83-.81,2.58-.54.75-1.3,1.34-2.26,1.75-.97.41-2.11.61-3.41.61s-2.55-.23-3.61-.68c-1.07-.45-1.89-1.11-2.48-1.96-.6-.84-.88-1.82-.88-2.92h-9.49c.04,2.67.75,5.02,2.16,7.07,1.39,2.03,3.31,3.63,5.76,4.77,2.45,1.14,5.25,1.71,8.41,1.71s6-.58,8.45-1.75c2.46-1.17,4.37-2.77,5.75-4.82,1.38-2.05,2.06-4.37,2.06-6.96,0-2.12-.47-4.07-1.39-5.86h.03s0,.01,0,.01ZM18.57,67.14h24.28v5.71h-24.28v-5.71Z"/>
  <path class="cls-1" d="M29.06,5.23L11.43,22.86l-6.2,6.2C1.88,32.4,0,36.95,0,41.68v42.6C0,88.22,3.2,91.42,7.14,91.42h42.6c4.74,0,9.27-1.89,12.63-5.23l6.2-6.2,17.63-17.63c3.34-3.34,5.23-7.89,5.23-12.63V7.14c0-3.94-3.2-7.14-7.14-7.14h-42.6c-4.74,0-9.27,1.89-12.63,5.23ZM68.57,79.99V22.86H11.43v57.14h57.14Z"/>
</svg>