<?xml version="1.0" encoding="UTF-8"?>
<svg id="Layer_1" xmlns="http://www.w3.org/2000/svg" viewBox="0 0 141.73 141.73">
  <defs>
    <style>
      .cls-1 {
        fill: #f2f2f2;
      }
    </style>
  </defs>
  <path class="cls-1" d="M25.39,61.72h-3.76v4.09h3.83c1.89,0,2.93-.73,2.93-2.03,0-1.18-.94-2.06-3-2.06h0Z"/>
  <path class="cls-1" d="M46.04,53.98h-3.4v5.34l3.43-.07c2.06,0,3.28-1.02,3.28-2.62,0-1.77-1.28-2.65-3.31-2.65h0Z"/>
  <path class="cls-1" d="M27.52,55.51l-.05-.07c0-1.23-.99-1.89-2.79-1.89h-3.05v3.87h2.93c1.87,0,2.95-.61,2.95-1.91h0Z"/>
  <polygon class="cls-1" points="64.49 61.96 69.35 61.96 66.99 55.7 64.49 61.96 64.49 61.96"/>
  <path class="cls-1" d="M119.79,70.87c-3.74.09-7.39-1.16-10.28-3.54l3.43-4.09c1.99,1.67,4.49,2.61,7.09,2.67,1.68,0,2.55-.57,2.55-1.54s-.73-1.42-3.76-2.15c-4.72-1.09-8.34-2.36-8.34-6.92,0-4.11,3.24-7.09,8.55-7.09,3.29-.13,6.52.92,9.12,2.95l-2.98,4.35c-1.79-1.34-3.95-2.1-6.19-2.17-1.49,0-2.22.59-2.22,1.42,0,.99.76,1.44,3.85,2.15,5.06,1.09,8.13,2.74,8.13,6.87,0,4.51-3.57,7.09-8.95,7.09h0ZM108.47,70.68h-5.34l-8.34-12.14v12.14h-6.07v-22.13h5.72l7.96,11.81v-11.81h6.07v22.13h0ZM86.36,70.68h-6.14v-22.13h6.14v22.13h0ZM72.76,70.72l-1.58-3.99h-8.57l-1.58,3.99h-6.4v-.02s-5.46,0-5.46,0l-4.44-6.71h-2.06v6.71h-6.05v-22.09h9.69c2.58-.17,5.12.68,7.09,2.36,1.4,1.35,2.18,3.23,2.13,5.17.09,3.01-1.74,5.75-4.56,6.83l4.29,6.26,8.75-20.81h5.91l9.45,22.3h-6.59ZM68.57,124.02H15.43v-8.86h53.15v8.86h0ZM13.2,36.61l3.94-3.73c.76,1.2,2.05,1.97,3.47,2.06,1.51,0,2.5-1.04,2.5-3.09v-14.13h6.09v14.17c.18,2.24-.56,4.46-2.06,6.14-1.64,1.53-3.83,2.34-6.07,2.24-3.08.2-6.05-1.18-7.89-3.66h0ZM34.54,64.54c0,3.8-3.09,6.12-8.39,6.12h-10.49v-22.04h10.44c2.19-.16,4.35.54,6.02,1.96.95.96,1.46,2.27,1.42,3.61.05,2.21-1.32,4.2-3.4,4.94,2.6.48,4.46,2.77,4.39,5.41h0ZM31.89,17.72h17.79v5.17h-11.81v3.4h10.61v4.72h-10.44v3.52h11.81v5.22h-17.95v-22.04h0ZM51.8,17.72h19.39v5.36h-6.64v16.77h-6.14v-16.72h-6.61v-5.41h0ZM0,0v141.73h141.73V0H0Z"/>
  <polygon class="cls-1" points="55.24 69.24 54.62 70.7 56.24 70.7 55.24 69.24 55.24 69.24"/>
</svg>