<svg width="20" height="21" viewBox="0 0 20 21" fill="none" xmlns="http://www.w3.org/2000/svg">
<g clip-path="url(#clip0_364_2602)">
<path d="M10 0.361328C4.47833 0.361328 0 4.83883 0 10.3613C0 14.7797 2.865 18.528 6.83917 19.8505C7.33833 19.943 7.5 19.633 7.5 19.3697V17.508C4.71833 18.113 4.13917 16.328 4.13917 16.328C3.68417 15.1722 3.02833 14.8647 3.02833 14.8647C2.12083 14.2438 3.0975 14.2572 3.0975 14.2572C4.10167 14.3272 4.63 15.288 4.63 15.288C5.52167 16.8163 6.96917 16.3747 7.54 16.1188C7.62917 15.473 7.88833 15.0313 8.175 14.7822C5.95417 14.528 3.61917 13.6705 3.61917 9.83966C3.61917 8.74716 4.01 7.85549 4.64917 7.15549C4.54583 6.90299 4.20333 5.88549 4.74667 4.50883C4.74667 4.50883 5.58667 4.24049 7.4975 5.53383C8.295 5.31216 9.15 5.20133 10 5.19716C10.85 5.20133 11.7058 5.31216 12.505 5.53383C14.4142 4.24049 15.2525 4.50883 15.2525 4.50883C15.7967 5.88633 15.4542 6.90383 15.3508 7.15549C15.9925 7.85549 16.38 8.74799 16.38 9.83966C16.38 13.6805 14.0408 14.5263 11.8142 14.7738C12.1725 15.0838 12.5 15.6922 12.5 16.6255V19.3697C12.5 19.6355 12.66 19.948 13.1675 19.8497C17.1383 18.5255 20 14.778 20 10.3613C20 4.83883 15.5225 0.361328 10 0.361328Z" fill="black"/>
</g>
<defs>
<clipPath id="clip0_364_2602">
<rect width="20" height="20" fill="white" transform="translate(0 0.361328)"/>
</clipPath>
</defs>
</svg>
