<svg width="20" height="21" viewBox="0 0 20 21" fill="none" xmlns="http://www.w3.org/2000/svg">
<g clip-path="url(#clip0_364_2604)">
<path d="M10 0.361328C4.4775 0.361328 0 4.83883 0 10.3613C0 15.8838 4.4775 20.3613 10 20.3613C15.5225 20.3613 20 15.8838 20 10.3613C20 4.83883 15.5225 0.361328 10 0.361328ZM8.33333 13.6947H6.66667V8.69466H8.33333V13.6947ZM7.5 7.95216C6.99417 7.95216 6.58333 7.53883 6.58333 7.02799C6.58333 6.51799 6.99333 6.10383 7.5 6.10383C8.00667 6.10383 8.41667 6.51799 8.41667 7.02799C8.41667 7.53883 8.00583 7.95216 7.5 7.95216ZM14.1667 13.6947H12.5017V11.3105C12.5017 9.74299 10.8333 9.87549 10.8333 11.3105V13.6947H9.16667V8.69466H10.8333V9.60549C11.56 8.25883 14.1667 8.15883 14.1667 10.8955V13.6947Z" fill="black"/>
</g>
<defs>
<clipPath id="clip0_364_2604">
<rect width="20" height="20" fill="white" transform="translate(0 0.361328)"/>
</clipPath>
</defs>
</svg>
