<svg width="287" height="293" viewBox="0 0 287 293" fill="none" xmlns="http://www.w3.org/2000/svg">
<g clip-path="url(#clip0_794_468)">
<rect x="87" width="112" height="23" fill="#2B2B2B"/>
<rect x="87" y="270" width="112" height="23" fill="#2B2B2B"/>
<rect x="22" y="46" width="44" height="23" fill="#2B2B2B"/>
<rect x="22" y="224" width="44" height="23" fill="#2B2B2B"/>
<rect x="221" y="224" width="44" height="23" fill="#2B2B2B"/>
<rect x="221" y="46" width="44" height="23" fill="#2B2B2B"/>
<rect x="154" y="135" width="44" height="23" fill="#2B2B2B"/>
<rect x="243" y="69" width="22" height="44" fill="#2B2B2B"/>
<rect x="22" y="69" width="22" height="44" fill="#2B2B2B"/>
<rect x="22" y="180" width="22" height="44" fill="#2B2B2B"/>
<rect x="243" y="180" width="22" height="44" fill="#2B2B2B"/>
<rect y="91" width="22" height="111" fill="#2B2B2B"/>
<rect x="265" y="91" width="22" height="111" fill="#2B2B2B"/>
<rect x="132" y="69" width="22" height="89" fill="#2B2B2B"/>
<rect x="43" y="23" width="67" height="23" fill="#2B2B2B"/>
<rect x="44" y="247" width="67" height="23" fill="#2B2B2B"/>
<rect x="176" y="247" width="67" height="23" fill="#2B2B2B"/>
<rect x="176" y="23" width="67" height="23" fill="#2B2B2B"/>
</g>
<defs>
<clipPath id="clip0_794_468">
<rect width="287" height="293" fill="white"/>
</clipPath>
</defs>
</svg>
