<?xml version="1.0" encoding="UTF-8"?>
<svg id="Layer_1" xmlns="http://www.w3.org/2000/svg" viewBox="0 0 149.94 141.73">
  <path d="M86.4,102.43l.04-7.89,7.88.04.04-7.87,7.88.04.04-7.89,7.88.04-.04,7.89,7.88.04.04-7.89,7.88.04.04-7.87-7.88-.04-7.88-.04.04-7.89.04-7.87,7.88.04,7.88.04,7.89.04.04-7.87-7.89-.04-7.88-.04.04-7.89,7.88.04,7.89.04,7.88.04,7.87.04.04-7.87.04-7.89.04-7.87.04-7.89-7.87-.04.04-7.87-7.88-.04-7.89-.04-7.88-.04-7.88-.04-7.88-.04-7.88-.04-7.88-.04-.04,7.87-7.88-.04-.04,7.89-.04,7.87-.04,7.89-.04,7.87-.04,7.89-7.87-.04-.04,7.87-7.89-.04-.04,7.87-7.87-.04-.04,7.89-7.89-.04-.04,7.73v.15s-7.87-.04-7.87-.04l-7.74-.04h-.15s-7.74-.04-7.74-.04l.04-7.87-7.87-.04.04-7.89-7.89-.04.04-7.87.04-7.87-7.87-.04-.04,7.87-.04,7.87-.04,7.89-.04,7.87,7.87.04-.04,7.89,7.89.04-.04,7.87,7.87.04-.04,7.89,7.74.04-.04,7.74,7.89.04v.13s-.04-.15-.04-.15l7.87.04h.04s-.04.67-.04.67l-.04,7.87-.04,7.89,7.87.04,7.89.04.04-7.89-7.89-.04.04-7.87.04-.51,7.84.04h.04s7.89.04,7.89.04l-.04,7.89,7.87.04-.04,7.73-.04,7.87h-.04s-.04,7.89-.04,7.89l7.89.04,7.87.04.04-7.89-7.84-.04.04-7.87.04-7.73v-.16s.04-7.73.04-7.73l.04-7.87M94.67,31.56l.04-7.89,7.88.04-.04,7.89-7.88-.04Z"/>
</svg>