<svg width="67" height="67" viewBox="0 0 67 67" fill="none" xmlns="http://www.w3.org/2000/svg">
<path d="M19.5601 0.550049C8.80878 0.550049 0.0600586 9.29877 0.0600586 20.05V47.05C0.0600586 57.8013 8.80878 66.55 19.5601 66.55H46.5601C57.3113 66.55 66.0601 57.8013 66.0601 47.05V20.05C66.0601 9.29877 57.3113 0.550049 46.5601 0.550049H19.5601ZM19.5601 3.55005H46.5601C55.6898 3.55005 63.0601 10.9203 63.0601 20.05V47.05C63.0601 56.1798 55.6898 63.55 46.5601 63.55H19.5601C10.4303 63.55 3.06006 56.1798 3.06006 47.05V20.05C3.06006 10.9203 10.4303 3.55005 19.5601 3.55005ZM51.0601 12.55C49.4032 12.55 48.0601 13.8932 48.0601 15.55C48.0601 17.2069 49.4032 18.55 51.0601 18.55C52.7169 18.55 54.0601 17.2069 54.0601 15.55C54.0601 13.8932 52.7169 12.55 51.0601 12.55ZM33.0601 17.05C23.9651 17.05 16.5601 24.4551 16.5601 33.55C16.5601 42.645 23.9651 50.05 33.0601 50.05C42.155 50.05 49.5601 42.645 49.5601 33.55C49.5601 24.4551 42.155 17.05 33.0601 17.05ZM33.0601 20.05C40.5337 20.05 46.5601 26.0764 46.5601 33.55C46.5601 41.0237 40.5337 47.05 33.0601 47.05C25.5864 47.05 19.5601 41.0237 19.5601 33.55C19.5601 26.0764 25.5864 20.05 33.0601 20.05Z" fill="#F2F2F2"/>
</svg>
