<svg width="33" height="1000" viewBox="0 0 33 1000" fill="none" xmlns="http://www.w3.org/2000/svg">
<g clip-path="url(#clip0_302_945)">
<path d="M12.2693 64.4791V345.563H19.8978V64.4791H12.2693Z" fill="#0060E6"/>
<path d="M12.2693 246.902V438.439H19.8978V246.902H12.2693Z" fill="#FAA701"/>
<path d="M12.2693 431.08V1000H19.8978V431.08H12.2693Z" fill="#F2F2F2"/>
<path d="M12.2693 383.197V494.125H19.8978V383.197H12.2693Z" fill="#D62D3B"/>
<path d="M12.2693 5.34058e-05V37.3787H19.8978V5.34058e-05H12.2693Z" fill="#F2F2F2"/>
<path d="M0.958496 490.566V494.125H4.51814V490.566H0.958496Z" fill="#F2F2F2"/>
<path d="M0.958496 484.408V487.968H4.51814V484.408H0.958496Z" fill="#F2F2F2"/>
<path d="M0.958496 478.251V481.811H4.51814V478.251H0.958496Z" fill="#F2F2F2"/>
<path d="M0.958496 472.093V475.653H4.51814V472.093H0.958496Z" fill="#F2F2F2"/>
<path d="M29.4355 378.93V382.489H32.9952V378.93H29.4355Z" fill="#F2F2F2"/>
<path d="M29.4355 372.772V376.332H32.9952V372.772H29.4355Z" fill="#F2F2F2"/>
<path d="M29.4355 366.615V370.174H32.9952V366.615H29.4355Z" fill="#F2F2F2"/>
</g>
<defs>
<clipPath id="clip0_302_945">
<rect width="1000" height="32.0415" fill="white" transform="matrix(0 -1 1 0 0.958496 1000)"/>
</clipPath>
</defs>
</svg>
