<svg width="1000" height="33" viewBox="0 0 1000 33" fill="none" xmlns="http://www.w3.org/2000/svg">
<g clip-path="url(#clip0_306_693)">
<path d="M519.4 0H513.534V3.50177H519.4V0Z" fill="#F2F2F2"/>
<path d="M999.534 14.4663H62.0446V21.9708H999.534V14.4663Z" fill="#F2F2F2"/>
<path d="M1000 14.4663H504.731V21.9708H1000V14.4663Z" fill="#0060E6"/>
<path d="M1000 14.4663H734.349V21.9708H1000V14.4663Z" fill="#ED4250"/>
<path d="M380.495 14.4663H279.62V21.9708H380.495V14.4663Z" fill="#FAA701"/>
<path d="M30.5872 14.4663H0V21.9708H30.5872V14.4663Z" fill="#0060E6"/>
<path d="M68.7261 28.5383H62.8604V32.0401H68.7261V28.5383Z" fill="#F2F2F2"/>
<path d="M78.8726 28.5383H73.0068V32.0401H78.8726V28.5383Z" fill="#F2F2F2"/>
<path d="M89.0192 28.5383H83.1534V32.0401H89.0192V28.5383Z" fill="#F2F2F2"/>
<path d="M99.1656 28.5383H93.2999V32.0401H99.1656V28.5383Z" fill="#F2F2F2"/>
</g>
<defs>
<clipPath id="clip0_306_693">
<rect width="1000" height="32.04" fill="white"/>
</clipPath>
</defs>
</svg>
