<svg width="160" height="146" viewBox="0 0 160 146" fill="none" xmlns="http://www.w3.org/2000/svg">
<rect width="20" height="20" transform="matrix(-1 0 0 1 181 0)" fill="black"/>
<rect width="20" height="20" transform="matrix(-1 0 0 1 161 20)" fill="black"/>
<rect width="20" height="20" transform="matrix(-1 0 0 1 141 40)" fill="black"/>
<rect width="20" height="20" transform="matrix(-1 0 0 1 141 20)" fill="black"/>
<rect width="20" height="20" transform="matrix(-1 0 0 1 181 20)" fill="black"/>
<rect width="20" height="20" transform="matrix(-1 0 0 1 161 0)" fill="black"/>
<rect width="20" height="20" transform="matrix(-1 0 0 1 161 59)" fill="black"/>
<rect width="20" height="20" transform="matrix(-1 0 0 1 181 79)" fill="black"/>
<rect width="20" height="20" transform="matrix(-1 0 0 1 181 40)" fill="black"/>
<rect width="20" height="20" transform="matrix(-1 0 0 1 141 79)" fill="black"/>
<rect width="20" height="20" transform="matrix(-1 0 0 1 141 99)" fill="black"/>
<rect width="20" height="20" transform="matrix(-1 0 0 1 121 0)" fill="black"/>
<rect width="20" height="20" transform="matrix(-1 0 0 1 121 40)" fill="black"/>
<rect width="20" height="20" transform="matrix(-1 0 0 1 101 20)" fill="black"/>
<rect width="20" height="20" transform="matrix(-1 0 0 1 81 0)" fill="black"/>
<rect width="20" height="20" transform="matrix(-1 0 0 1 81 20)" fill="black"/>
<rect width="20" height="20" transform="matrix(-1 0 0 1 101 60)" fill="black"/>
<rect width="20" height="20" transform="matrix(-1 0 0 1 81 40)" fill="black"/>
<rect width="20" height="20" transform="matrix(-1 0 0 1 61 20)" fill="black"/>
<rect width="20" height="20" transform="matrix(-1 0 0 1 20 0)" fill="black"/>
<rect width="20" height="20" transform="matrix(-1 0 0 1 41 39)" fill="black"/>
<rect width="20" height="20" transform="matrix(-1 0 0 1 20 60)" fill="black"/>
<rect width="20" height="20" transform="matrix(-1 0 0 1 20 80)" fill="black"/>
<rect width="20" height="20" transform="matrix(-1 0 0 1 40 80)" fill="black"/>
<rect width="20" height="20" transform="matrix(-1 0 0 1 60 80)" fill="black"/>
<rect width="20" height="20" transform="matrix(-1 0 0 1 60 100)" fill="black"/>
<rect width="20" height="20" transform="matrix(-1 0 0 1 161 119)" fill="black"/>
</svg>
