<svg width="160" height="146" viewBox="0 0 160 146" fill="none" xmlns="http://www.w3.org/2000/svg">
<rect width="20" height="20" fill="black"/>
<rect x="20" y="20" width="20" height="20" fill="black"/>
<rect x="40" width="20" height="20" fill="black"/>
<rect x="40" y="20" width="20" height="20" fill="black"/>
<rect y="20" width="20" height="20" fill="black"/>
<rect y="39" width="20" height="20" fill="black"/>
<rect x="20" y="59" width="20" height="20" fill="black"/>
<rect y="79" width="20" height="20" fill="black"/>
<rect y="99" width="20" height="20" fill="black"/>
<rect x="40" y="79" width="20" height="20" fill="black"/>
<rect x="20" y="99" width="20" height="20" fill="black"/>
<rect x="60" width="20" height="20" fill="black"/>
<rect x="60" y="40" width="20" height="20" fill="black"/>
<rect x="80" y="40" width="20" height="20" fill="black"/>
<rect x="60" y="60" width="20" height="20" fill="black"/>
<rect x="40" y="40" width="20" height="20" fill="black"/>
<rect x="80" y="20" width="20" height="20" fill="black"/>
<rect x="100" width="20" height="20" fill="black"/>
<rect x="100" y="39" width="20" height="20" fill="black"/>
<rect x="100" y="59" width="20" height="20" fill="black"/>
<rect x="120" y="20" width="20" height="20" fill="black"/>
<rect x="120" width="20" height="20" fill="black"/>
<rect x="120" y="79.45" width="20" height="20" fill="black"/>
<rect x="80" y="79.45" width="20" height="20" fill="black"/>
<rect x="100" y="99.45" width="20" height="20" fill="black"/>
<rect x="60" y="125.45" width="20" height="20" fill="black"/>
<rect x="140" y="39.45" width="20" height="20" fill="black"/>
</svg>
