<?xml version="1.0" encoding="UTF-8"?>
<svg id="Layer_1" xmlns="http://www.w3.org/2000/svg" viewBox="0 0 141.58 141.73">
  <defs>
    <style>
      .cls-1 {
        fill: #f2f2f2;
      }
    </style>
  </defs>
  <path class="cls-1" d="M76.24,0c1.57.23,3.13.47,4.7.7,9.49,1.35,18.33,4.54,26.54,9.49.16.1.31.24.57.45-3.08,4.98-6.14,9.94-9.23,14.94-17.7-9.93-35.65-10.83-53.62-1.18-12.42,6.67-20.78,17.03-25,30.47-8.77,27.91,6.46,57.46,34.23,66.42,27.45,8.86,53.91-5.76,63.88-27.1-21.64-4.81-43.26-9.62-64.87-14.42,0-.04.01-.09.02-.13h87.86c-.87,3.81-1.46,7.58-2.58,11.18-6.9,22.11-21.08,37.71-42.65,46.14-25.7,10.04-54.82,3.93-74.53-15.24C9.72,110.21,2.79,96.22.52,79.89.36,78.75.17,77.62,0,76.48c0-3.78,0-7.55,0-11.33.08-.24.2-.47.24-.72.53-3.21.86-6.47,1.59-9.63,3.17-13.85,9.98-25.68,20.29-35.43C32.98,9.09,45.87,2.87,60.68.7,62.25.47,63.82.23,65.38,0c3.62,0,7.24,0,10.86,0Z"/>
  <path class="cls-1" d="M141.58,56.75v14.73h-3.61v-5.82h-2.71v5.83h-3.71v-14.74h3.61v5.5h2.76v-5.5h3.66Z"/>
  <path class="cls-1" d="M63.36,71.56c-1.23,0-2.28.06-3.33-.04-.28-.03-.66-.47-.75-.79-.35-1.16-.58-2.35-.89-3.53-.19-.7-.48-1.33-1.54-1.39v5.67h-3.7v-14.68c2.19,0,4.35-.13,6.48.04,1.89.15,2.84,1.18,3.14,2.83.36,1.99-.2,3.27-1.88,4.27-.09.05-.17.13-.25.19,1.87,2.11,1.71,4.89,2.73,7.43ZM56.7,63.23c.9-.45,1.73-.62,2.12-1.13.3-.4.27-1.42-.04-1.8-.41-.48-1.26-.59-2.07-.92v3.85Z"/>
  <path class="cls-1" d="M112.28,71.51h-3.64v-14.92c2.35.11,4.74.1,7.09.38,1.4.17,2.22,1.28,2.45,2.69.25,1.5.09,2.91-1.26,3.92-.27.2-.57.36-.86.55,1.83,2.1,1.72,4.84,2.74,7.44-1.27,0-2.38.04-3.49-.03-.21-.01-.5-.42-.58-.7-.35-1.24-.61-2.51-.96-3.76-.24-.87-.47-1.02-1.5-1.2v5.64ZM112.15,59.29v3.9c.85-.41,1.67-.58,2.09-1.07.3-.35.31-1.35.02-1.7-.42-.51-1.23-.68-2.11-1.12Z"/>
  <path class="cls-1" d="M94.62,71.47c1.26-4.14,2.49-8.22,3.74-12.28.77-2.51.79-2.45,3.42-2.52,1.03-.03,1.5.23,1.78,1.28,1.16,4.23,2.42,8.42,3.65,12.63.08.26.13.53.21.9h-3.75c-.24-.94-.5-1.95-.74-2.92-.14-.04-.22-.08-.29-.08-1.14,0-2.51-.37-3.34.14-.72.44-.84,1.88-1.25,2.96-.9,0-1.84,0-2.78,0-.18,0-.37-.05-.64-.09ZM101.18,60.26c-.06,0-.13-.02-.19-.02-.43,1.75-.87,3.5-1.3,5.27h2.56c-.37-1.81-.72-3.53-1.07-5.25Z"/>
  <path class="cls-1" d="M68.4,59.7v2.77h4.42v2.91h-4.38v3.14h4.85v2.96h-8.51v-14.69h8.25v2.91h-4.64Z"/>
  <path class="cls-1" d="M85.62,71.48v-14.74h8.22v2.95h-4.59v2.81h4.37v2.85h-4.34v3.16h4.84v2.97h-8.49Z"/>
  <path class="cls-1" d="M82.75,59.82c-.95-.18-1.9-.5-2.85-.48-.53.01-1.26.5-1.5.97-.37.72.16,1.33.86,1.69.66.34,1.34.66,2,1,1.93,1,2.68,2.31,2.5,4.36-.19,2.2-1.29,3.62-3.35,4.18-1.87.51-3.72.28-5.62-.31.06-1.05.12-2.05.18-3.1,1.02.24,1.9.52,2.81.64.82.11,1.72.08,2.02-.94.32-1.06-.2-1.72-1.2-2.08-.37-.13-.72-.31-1.08-.47-2.45-1.09-3.37-2.82-2.87-5.39.4-2.06,2.12-3.36,4.58-3.46.2,0,.39,0,.59,0,3.03.03,3.37.43,2.93,3.37Z"/>
  <path class="cls-1" d="M129.62,60.41c-4.15-2-6.3.23-6,4.21.26,3.4,2.5,4.73,5.65,3.39.14-.06.29-.09.55-.16,0,.69-.1,1.33.02,1.93.25,1.27-.3,1.69-1.48,1.91-5.27.98-9.02-2.41-8.59-7.98.11-1.41.44-2.91,1.08-4.15,1.68-3.27,5.65-3.63,8.44-2.61.23.09.49.5.49.76.01.86-.09,1.71-.16,2.71Z"/>
</svg>