<?xml version="1.0" encoding="UTF-8"?>
<svg id="Layer_1" xmlns="http://www.w3.org/2000/svg" viewBox="0 0 425.2 109.03">
  <defs>
    <style>
      .cls-1 {
        fill: #f2f2f2;
      }
    </style>
  </defs>
  <path class="cls-1" d="M12.75.11h.53s.19.05.45.05c3.23.16,6.02,1.4,8.37,3.74,2.17,2.15,3.42,4.66,3.74,7.53.03.34.08.48.08.4.05-.05.11-.13.11-.24.34-3.31,1.83-6.1,4.45-8.37,2.28-1.99,5.01-3.02,8.16-3.13h.58s.13.05.32.05c2.01.08,3.87.61,5.59,1.56,1.51.85,2.84,1.96,3.95,3.34,1.56,1.91,2.44,4,2.68,6.28.03.32.05.48.05.48.08,0,.13-.05.16-.16.37-3.45,1.93-6.33,4.72-8.64,2.23-1.86,4.88-2.84,7.95-2.94h.53s.19.05.45.05c2.49.11,4.77.9,6.81,2.41,1.46,1.09,2.65,2.36,3.55,3.87,1.06,1.78,1.64,3.6,1.78,5.51.03.4.05.42.08.11.29-2.84,1.33-5.3,3.13-7.39,2.28-2.73,5.17-4.24,8.72-4.53.37-.03.64-.05.82-.05h.66s.19.05.45.05c2.76.08,5.22,1.06,7.45,2.89,2.65,2.25,4.21,5.14,4.69,8.64.03.21.08.21.16.03.37-3.26,1.78-6.02,4.24-8.27,2.28-2.09,5.06-3.21,8.35-3.34h.58s.13.05.32.05c2.86.13,5.41,1.11,7.63,2.97.69.58,1.35,1.27,2.01,2.09,1.33,1.75,2.17,3.71,2.54,5.88.05.32.11.58.16.8q.03.08.03,0c.21-2.36,1.03-4.51,2.46-6.47,1.19-1.64,2.7-2.92,4.51-3.84,1.7-.87,3.6-1.38,5.7-1.48h.53c.03.05.13.05.32.05,1.72.05,3.39.45,4.98,1.25,1.8.87,3.29,2.07,4.48,3.55,1.59,1.99,2.52,4.16,2.81,6.52,0,.08.05.16.13.19.03,0,.05-.05.05-.16.4-3.37,1.91-6.12,4.53-8.32,2.28-1.91,4.98-2.94,8.08-3.07h.58s.16.05.37.05c3.18.13,5.94,1.33,8.27,3.6,2.23,2.17,3.55,4.88,3.92,8.06.03.13.05.08.13-.21.37-3.31,1.83-6.1,4.4-8.32,2.31-2.01,5.06-3.07,8.27-3.21h.53s.13.05.32.05c2.31.11,4.43.8,6.39,2.04,1.64,1.06,3.02,2.46,4.13,4.27,1.27,2.04,1.88,4.35,1.88,6.86-.03,2.99-.95,5.7-2.81,8.06-1.78,2.31-4.13,3.84-7,4.58-.64.16-1.22.27-1.8.32-.08.03-.16.05-.21.13-.05.08-.03.08.11.03.08-.03.16-.05.27-.03,1.93.19,3.82.9,5.67,2.09,1.7,1.14,3.05,2.6,4.03,4.37,1.22,2.07,1.8,4.32,1.75,6.73-.05,3.66-1.38,6.7-3.92,9.2-2.07,2.01-4.58,3.23-7.55,3.66-.13.03-.16.05-.03.13,2.86.32,5.38,1.48,7.53,3.55,2.33,2.23,3.66,4.96,3.92,8.19.27,3.13-.45,5.99-2.15,8.59-1.01,1.54-2.31,2.84-3.92,3.84-2.07,1.35-4.35,2.01-6.86,2.01s-4.77-.66-6.81-1.93c-1.78-1.06-3.18-2.49-4.24-4.24-1.03-1.75-1.67-3.58-1.88-5.54,0-.05-.05-.08-.11-.05-.16,1.59-.61,3.1-1.33,4.56-.85,1.86-2.2,3.45-4,4.74-2.81,2.04-5.94,2.81-9.38,2.33-2.25-.32-4.24-1.14-5.94-2.46-1.22-.93-2.25-2.01-3.05-3.23-1.09-1.67-1.8-3.52-2.07-5.62.03-.19.03-.34,0-.53-.03-.16-.05-.19-.11-.05-.05.21-.08.4-.08.58-.19,1.62-.69,3.21-1.54,4.74-1.03,1.88-2.44,3.39-4.24,4.56-2.49,1.64-5.25,2.33-8.27,2.07-2.36-.21-4.45-.98-6.25-2.31-1.3-.93-2.31-1.96-3.05-3.05-1.38-1.86-2.17-3.92-2.39-6.15-.03-.16.03-.21.11-.19-.13-.11-.19-.08-.24.08-.64,3.63-2.12,6.47-4.48,8.51-2.12,1.86-4.58,2.89-7.37,3.1-2.49.21-4.82-.27-7-1.4-1.4-.72-2.62-1.64-3.68-2.81-2.01-2.17-3.1-4.64-3.29-7.39,0-.16-.03-.21-.05-.13-.08.05-.11.13-.11.21-.24,2.7-1.33,5.11-3.26,7.26-1.43,1.59-3.13,2.76-5.09,3.47-1.8.69-3.66.95-5.57.8-2.23-.19-4.24-.87-6.07-2.07-1.27-.82-2.31-1.8-3.13-2.89-1.43-1.88-2.33-4-2.65-6.36.03-.27.03-.5-.05-.74-.03-.11-.08-.08-.13.05-.03.21-.03.45,0,.66-.37,2.99-1.67,5.57-3.84,7.71-2.15,2.15-4.77,3.37-7.84,3.63-3.13.29-5.99-.48-8.59-2.28-1.72-1.19-3.05-2.68-3.98-4.45-.74-1.43-1.22-2.94-1.48-4.56-.05-.27-.11-.37-.21-.29-.42,3.29-1.83,6.04-4.24,8.27-1.83,1.7-3.95,2.73-6.36,3.13-2.09.37-4.13.24-6.12-.4-1.93-.53-3.71-1.59-5.3-3.18-2.17-2.17-3.42-4.77-3.74-7.71,0-.08-.03-.16-.08-.24-.13-.21-.16-.21-.11-.05.03.08.03.16.03.27-.29,3.15-1.67,5.86-4.13,8.11-2.46,2.31-5.38,3.45-8.77,3.42-2.65,0-5.06-.74-7.21-2.2-1.09-.72-1.99-1.54-2.7-2.44-1.86-1.99-2.86-4.53-3.13-7.45v-1.86s.05-.16.05-.37c.29-3.18,1.59-5.88,3.92-8.14,1.99-1.93,4.4-3.1,7.21-3.52.34.05.56.03.58-.13,0-.05-.21-.05-.66-.05-3.15-.42-5.83-1.88-7.98-4.37-1.86-2.2-2.92-4.77-3.13-7.74v-1.86c.24-2.7,1.14-5.06,2.68-7.05,1.33-1.75,2.89-3.02,4.66-3.82,1.4-.66,2.89-1.06,4.43-1.19.03,0,.03-.05-.05-.11-1.8-.21-3.45-.72-4.96-1.54-1.59-.85-2.94-1.99-4.03-3.45-1.59-2.07-2.49-4.48-2.73-7.23v-1.8c.13-1.72.56-3.31,1.27-4.8.93-1.88,2.15-3.45,3.71-4.64C7.21,1.19,9.78.27,12.75.11ZM18.37,13.28c0-2.97-2.41-5.38-5.38-5.38s-5.38,2.41-5.38,5.38,2.41,5.35,5.38,5.35,5.38-2.39,5.38-5.35ZM44.28,13.25c0-2.97-2.41-5.38-5.38-5.38s-5.38,2.41-5.38,5.38,2.41,5.38,5.38,5.38,5.38-2.41,5.38-5.38ZM70.23,13.28c0-2.97-2.41-5.38-5.38-5.38s-5.38,2.41-5.38,5.38,2.41,5.38,5.38,5.38,5.38-2.41,5.38-5.38ZM96.15,13.28c0-2.97-2.41-5.38-5.38-5.38s-5.38,2.41-5.38,5.38,2.41,5.38,5.38,5.38,5.38-2.41,5.38-5.38ZM122.09,13.28c0-2.97-2.41-5.38-5.38-5.38s-5.38,2.41-5.38,5.38h0c0,2.97,2.41,5.38,5.38,5.38h0c2.97-.03,5.38-2.41,5.38-5.38ZM148.01,13.28c0-2.97-2.41-5.38-5.38-5.38h0c-2.97,0-5.38,2.41-5.38,5.38s2.41,5.38,5.38,5.38c2.97-.03,5.38-2.41,5.38-5.38h0ZM173.95,13.28c0-2.97-2.41-5.38-5.38-5.38s-5.38,2.41-5.38,5.38,2.41,5.38,5.38,5.38c2.97-.03,5.38-2.41,5.38-5.38ZM199.87,13.28c0-2.97-2.41-5.38-5.38-5.38h0c-2.97,0-5.38,2.41-5.38,5.38s2.41,5.38,5.38,5.38c2.97-.03,5.38-2.41,5.38-5.38h0ZM129.7,14.66c-.11.56-.24,1.14-.37,1.75-.53,2.44-1.72,4.53-3.55,6.31-2.12,2.04-4.53,3.23-7.23,3.55-.08,0-.16.05-.21.13-.03.05.05.08.27.11,1.88.24,3.68.93,5.41,2.09,1.38.87,2.54,2.04,3.47,3.47,1.14,1.75,1.88,3.76,2.2,6.02.03.16.05.11.08-.19.21-1.72.74-3.37,1.59-4.9.95-1.62,2.09-2.94,3.45-3.98,1.8-1.38,3.82-2.23,6.02-2.54.29-.11.34-.16.13-.21-2.23-.29-4.27-1.14-6.15-2.54-2.7-2.01-4.32-4.66-4.88-7.92-.08-.42-.11-.85-.11-1.27-.03-.08-.05-.05-.11.13ZM37.53,26.5l.11.05c.11-.11.08-.16-.05-.19-2.7-.48-4.93-1.4-6.7-2.78-1.56-1.22-2.81-2.76-3.68-4.66-.58-1.3-.98-2.68-1.17-4.13-.05-.16-.11-.19-.11-.08-.32,2.84-1.43,5.33-3.34,7.47-2.04,2.25-4.53,3.6-7.47,4.03-.21.03-.37.05-.48.08-.11.08-.08.16.05.16,3.31.42,6.02,1.88,8.16,4.4,1.8,2.09,2.81,4.48,3.05,7.16.05.16.11.13.13-.03.21-1.8.77-3.52,1.67-5.14,1.14-2.04,2.73-3.63,4.77-4.77,1.54-.9,3.15-1.43,4.82-1.62.08-.03.16,0,.24.05ZM51.81,37.79c.03.16.08.16.13.03,0,0,0-.11.03-.29.34-2.23,1.17-4.21,2.46-5.94,1.14-1.54,2.57-2.76,4.21-3.66,1.48-.82,3.02-1.3,4.58-1.43.4-.08.42-.13.11-.19-2.2-.29-4.24-1.09-6.07-2.33-.98-.64-1.91-1.54-2.76-2.68-1.46-1.93-2.33-4.11-2.6-6.55-.08-.11-.13-.11-.13,0-.37,3.42-1.86,6.25-4.43,8.51-1.99,1.67-4.21,2.68-6.73,3.02-.29.11-.29.16.03.21,1.91.27,3.74.95,5.49,2.07,1.46.95,2.68,2.2,3.66,3.71,1.09,1.67,1.75,3.52,2.01,5.51ZM115.33,26.47c.19.08.24.05.16-.03-.05-.08-.13-.11-.21-.11-1.8-.16-3.58-.74-5.27-1.8-1.88-1.14-3.31-2.57-4.27-4.27-1.09-1.83-1.72-3.68-1.86-5.57,0-.03-.03-.03-.03-.03-.08.03-.13.08-.13.16-.27,2.76-1.35,5.17-3.26,7.26-2.15,2.36-4.8,3.76-7.92,4.19-.11.03-.13.05-.11.11.05.05.13.11.24.11,2.2.27,4.27,1.14,6.2,2.65,1.56,1.22,2.81,2.78,3.71,4.72.58,1.25.98,2.57,1.14,3.95,0,.08.05.16.13.19,0,.03.03-.11.05-.45.21-2.36,1.17-4.53,2.86-6.55,2.23-2.62,5.01-4.13,8.32-4.56.05-.03.13,0,.24.03ZM178.93,21.23c-1.14,1.56-2.57,2.78-4.29,3.66-1.43.77-2.84,1.22-4.27,1.35-.08,0-.19.03-.27.08-.21.05-.13.11.21.16,2.39.24,4.58,1.19,6.55,2.86,2.68,2.25,4.21,5.11,4.58,8.59.08.16.11.24.11.19.24-2.52,1.14-4.8,2.7-6.84,2.2-2.81,5.01-4.43,8.43-4.82.08,0,.13-.05.16-.13.03-.05-.13-.08-.48-.13-2.15-.24-4.11-1.09-5.88-2.6-1.62-1.27-2.86-2.86-3.71-4.72-.61-1.27-1.01-2.65-1.19-4.11-.08-.16-.11-.16-.13,0-.29,2.36-1.11,4.48-2.52,6.47ZM66.57,26.29c-.27,0-.4.03-.42.08-.05.08-.03.11.05.11.13,0,.27,0,.37.03,2.17.24,4.21,1.09,6.07,2.46,1.64,1.25,2.92,2.78,3.82,4.61.69,1.35,1.09,2.7,1.22,4.05,0,.08.05.16.11.24.05.05.08,0,.11-.16.27-2.2,1.09-4.21,2.44-6.04.93-1.22,1.99-2.25,3.23-3.13,1.48-1.03,3.13-1.7,4.93-1.96.24-.03.45-.08.61-.13.32.08.48.08.45,0-.03-.13-.24-.19-.66-.13-2.99-.45-5.57-1.8-7.69-4.05-1.83-1.96-2.92-4.24-3.31-6.89-.03-.24-.05-.34-.08-.37-.08-.05-.11-.03-.13.05-.27,2.2-1.11,4.27-2.54,6.2-1.14,1.54-2.54,2.73-4.24,3.66-1.33.69-2.78,1.17-4.32,1.38ZM155.48,15.4c-.5,3.31-2.04,6.02-4.64,8.08-1.93,1.59-4.08,2.52-6.47,2.81-.08,0-.11.05-.08.13.03.03.24.08.61.13,2.23.29,4.32,1.27,6.2,2.94,2.33,2.04,3.74,4.51,4.27,7.45.08.48.16.8.24.95.03.08.05.08.08-.03.29-2.99,1.56-5.62,3.84-7.82,2.2-2.17,4.77-3.37,7.71-3.6.08,0,.08-.03,0-.05-.29-.05-.56-.11-.87-.16-2.15-.32-4.08-1.19-5.8-2.6-1.56-1.19-2.78-2.73-3.71-4.64-.61-1.3-1.01-2.6-1.14-3.95,0-.08-.05-.13-.16-.11-.03,0-.03.16-.08.45ZM12.88,44.87c2.94.05,5.41-2.31,5.46-5.3h0c.05-2.99-2.28-5.46-5.25-5.51-2.94-.05-5.41,2.31-5.46,5.3h0c-.05,2.99,2.28,5.46,5.25,5.51ZM38.96,44.87c2.94-.03,5.33-2.46,5.3-5.46-.03-2.99-2.44-5.38-5.38-5.35-2.94.03-5.33,2.46-5.3,5.46.03,2.97,2.44,5.38,5.38,5.35ZM64.64,44.87c2.94.11,5.43-2.23,5.54-5.19.11-2.99-2.17-5.49-5.14-5.62h0c-2.94-.11-5.43,2.23-5.54,5.19-.11,2.99,2.2,5.51,5.14,5.62h0ZM90.9,44.87c2.94-.08,5.3-2.54,5.22-5.54h0c-.08-2.99-2.52-5.35-5.46-5.27h0c-2.94.08-5.3,2.54-5.22,5.54h0c.05,2.97,2.52,5.35,5.46,5.27h0ZM122.09,39.46c0-2.97-2.41-5.38-5.38-5.38s-5.38,2.41-5.38,5.38,2.41,5.38,5.38,5.38h0c2.97,0,5.38-2.41,5.38-5.38ZM142.68,44.87c2.94-.03,5.33-2.46,5.3-5.46-.03-2.99-2.44-5.38-5.41-5.35-2.94.03-5.33,2.46-5.3,5.46h0c.05,2.99,2.46,5.38,5.41,5.35h0ZM168.49,44.87c2.94.03,5.38-2.36,5.41-5.35h0c.03-2.99-2.33-5.43-5.27-5.46-2.94-.03-5.38,2.36-5.41,5.35h0c-.03,2.97,2.33,5.43,5.27,5.46h0ZM199.87,39.46c0-2.97-2.41-5.38-5.38-5.38h0c-2.97,0-5.38,2.41-5.38,5.38s2.41,5.38,5.38,5.38,5.38-2.41,5.38-5.38h0ZM166.82,52.63c.29.03.48,0,.53-.13.03-.03-.16-.05-.53-.05-2.92-.34-5.43-1.62-7.5-3.76-2.17-2.25-3.39-4.98-3.68-8.16-.03-.11-.05,0-.08.32-.37,3.45-1.86,6.28-4.43,8.56-2.01,1.78-4.27,2.78-6.7,3.02-.34.11-.42.16-.21.21,3.13.45,5.8,1.86,8,4.19,1.64,1.8,2.7,3.92,3.15,6.39.05.37.08.58.08.66.11.16.16.13.21-.05.58-3.45,2.09-6.23,4.58-8.29,1.96-1.62,4.13-2.57,6.57-2.89ZM129.64,41.16c-.21,1.67-.74,3.21-1.56,4.66-.93,1.64-2.07,2.99-3.45,4.03-1.93,1.48-4,2.36-6.17,2.57-.29.11-.34.19-.21.21,2.44.37,4.66,1.3,6.7,2.86.08.05.13.11.21.16,2.49,2.17,4,5.01,4.48,8.51,0,.08.03.08.05,0,.03-.21.08-.5.13-.85.27-2.04,1.09-3.92,2.46-5.67,2.2-2.84,5.01-4.48,8.4-4.96.08,0,.16-.05.24-.08.13-.05.08-.11-.19-.13-2.15-.29-4.05-1.06-5.75-2.33-1.43-1.06-2.6-2.33-3.47-3.82-1.09-1.8-1.67-3.63-1.78-5.51,0-.08-.05-.13-.13-.16.08,0,.08.19.03.5ZM37.1,52.63c.34.08.53.03.58-.13.03-.03-.19-.05-.58-.05-1.46-.21-2.78-.64-4-1.25-1.86-.93-3.42-2.23-4.64-3.92-1.4-1.93-2.23-4-2.44-6.23,0-.08-.03-.16-.08-.24-.03-.13-.05-.11-.05.08-.24,2.73-1.3,5.14-3.18,7.29-2.17,2.46-4.82,3.87-7.92,4.27-.32.08-.48.13-.48.13,3.55.48,6.44,2.04,8.67,4.66,1.7,2.01,2.65,4.35,2.94,6.94.05.16.11.16.11-.03.4-3.42,1.91-6.25,4.51-8.53,1.86-1.62,4.05-2.62,6.57-2.99ZM114.96,52.63c.4-.03.56-.08.5-.19-.03-.05-.21-.05-.5,0-2.36-.34-4.48-1.25-6.33-2.73-1.46-1.17-2.62-2.62-3.5-4.37-.69-1.43-1.11-2.92-1.27-4.45-.08-.19-.11-.16-.16.08-.27,1.8-.8,3.47-1.64,4.98-.98,1.72-2.28,3.15-3.92,4.29-1.83,1.3-3.76,2.01-5.78,2.17-.29.08-.37.11-.27.13,2.41.32,4.61,1.17,6.55,2.6,1.64,1.25,2.86,2.76,3.71,4.51.69,1.38,1.14,2.84,1.35,4.43.08.27.13.29.16.08.29-2.52,1.25-4.85,2.89-6.97.05-.08.11-.13.16-.21,2.12-2.39,4.8-3.84,8.06-4.35ZM63.13,52.63c.29.03.45-.03.48-.13,0-.05-.16-.08-.53-.05-2.39-.24-4.56-1.19-6.55-2.86-2.62-2.2-4.13-5.09-4.58-8.59-.08-.16-.13-.16-.16-.03-.32,3.05-1.59,5.7-3.84,7.95-2.15,2.09-4.69,3.29-7.63,3.58-.13.05-.13.08,0,.11,2.94.34,5.49,1.54,7.63,3.58,2.25,2.15,3.55,4.77,3.87,7.79.08.21.11.27.13.13.37-2.84,1.48-5.27,3.29-7.31,2.12-2.33,4.74-3.74,7.9-4.16ZM181.45,41.24c-.42,2.99-1.72,5.57-3.87,7.71-2.07,2.04-4.43,3.21-7.1,3.5-.29.11-.42.19-.37.19,3.13.45,5.75,1.78,7.92,4,1.93,2.07,3.07,4.53,3.45,7.37.08.27.11.27.16.05.45-3.31,1.88-6.07,4.35-8.29,1.99-1.78,4.27-2.81,6.84-3.1.08,0,.13-.05.11-.16-.03,0-.11-.03-.29-.05-2.36-.24-4.51-1.19-6.41-2.86-2.62-2.28-4.13-5.19-4.61-8.72-.08-.05-.11.05-.16.37ZM66.31,52.6c2.57.32,4.85,1.27,6.84,2.92,2.52,2.09,4.05,4.85,4.58,8.29.05.34.11.34.16,0,.34-2.65,1.43-4.98,3.31-7.02,2.15-2.33,4.77-3.71,7.87-4.13.21-.11.24-.16.11-.19-2.46-.32-4.66-1.25-6.6-2.81-2.6-2.12-4.16-4.9-4.64-8.32-.03-.19-.13-.24-.27-.08.03.05.03.21-.03.48-.37,2.78-1.62,5.17-3.71,7.16-2.23,2.12-4.85,3.34-7.9,3.66,0,0,.08.03.27.05ZM18.37,65.67c0-2.97-2.41-5.38-5.38-5.38h0c-2.97,0-5.38,2.41-5.38,5.38h0c0,2.97,2.41,5.38,5.38,5.38h0c2.97-.03,5.38-2.41,5.38-5.38h0ZM39.01,71.08c2.94-.05,5.3-2.52,5.25-5.49-.05-2.99-2.49-5.35-5.43-5.3-2.94.05-5.3,2.52-5.25,5.49.05,2.97,2.49,5.35,5.43,5.3ZM70.23,65.67c0-2.97-2.41-5.38-5.38-5.38s-5.38,2.41-5.38,5.38,2.41,5.38,5.38,5.38,5.38-2.41,5.38-5.38ZM96.15,65.67c0-2.97-2.41-5.38-5.38-5.38s-5.38,2.41-5.38,5.38,2.41,5.38,5.38,5.38,5.38-2.41,5.38-5.38ZM122.09,65.67c0-2.97-2.41-5.38-5.38-5.38s-5.38,2.41-5.38,5.38h0c0,2.97,2.41,5.38,5.38,5.38h0c2.97-.03,5.38-2.41,5.38-5.38ZM148.01,65.67c0-2.97-2.41-5.38-5.38-5.38h0c-2.97,0-5.38,2.41-5.38,5.38s2.41,5.38,5.38,5.38c2.97,0,5.38-2.41,5.38-5.38h0ZM173.93,65.67c0-2.97-2.41-5.38-5.38-5.38h0c-2.97,0-5.38,2.41-5.38,5.38s2.41,5.38,5.38,5.38,5.38-2.41,5.38-5.38h0ZM199.87,65.67c0-2.97-2.41-5.38-5.38-5.38h0c-2.97,0-5.38,2.41-5.38,5.38s2.41,5.38,5.38,5.38c2.97,0,5.38-2.41,5.38-5.38h0Z"/>
  <circle class="cls-1" cx="12.99" cy="13.28" r="5.38"/>
  <circle class="cls-1" cx="38.93" cy="13.25" r="5.38"/>
  <circle class="cls-1" cx="64.85" cy="13.28" r="5.38"/>
  <circle class="cls-1" cx="90.77" cy="13.28" r="5.38"/>
  <circle class="cls-1" cx="116.71" cy="13.28" r="5.38"/>
  <circle class="cls-1" cx="142.63" cy="13.28" r="5.38"/>
  <circle class="cls-1" cx="168.57" cy="13.28" r="5.38"/>
  <circle class="cls-1" cx="194.49" cy="13.28" r="5.38"/>
  <path class="cls-1" d="M411.67,12.72c1.83.85,3.5,1.83,5.01,2.94,1.7,1.17,3.07,2.6,4.13,4.27.95,1.51,1.43,3.18,1.4,5.01,0,.98-.13,1.88-.42,2.7-.5,1.56-1.43,2.81-2.78,3.71-1.56,1.11-3.29,1.56-5.14,1.35-1.96-.21-3.6-1.09-4.93-2.57-.74-.82-1.22-1.75-1.51-2.81-.42-1.56-.34-3.18.24-4.8.56-1.51,1.48-2.65,2.84-3.39.11-.05.13-.16.05-.24-.29-.42-.66-.82-1.17-1.22-2.94-2.39-6.41-3.63-10.44-3.74-2.04-.05-4.03.29-5.94,1.01-2.44.85-4.64,2.31-6.63,4.37-1.7,1.78-2.92,3.74-3.66,5.88-.66,1.75-1.09,3.63-1.27,5.62-.21,2.78-.08,5.57.4,8.35.72,4.53,2.12,8.85,4.19,12.93,1.91,3.79,4.45,6.81,7.63,9.06,3.26,2.36,6.92,3.47,10.92,3.34,5.04-.16,9.49-1.88,13.36-5.19,1.72-1.46,3.18-3.1,4.32-4.88.08-.11.16-.13.29-.05,1.01.61,1.86,1.17,2.57,1.67.08.05.08.11.05.19-1.4,2.57-3.29,4.93-5.67,7.05-3.74,3.26-7.95,5.51-12.67,6.73-3.47.9-7.02,1.19-10.65.85-3.98-.42-7.71-1.59-11.21-3.5-3.29-1.78-6.15-4-8.61-6.68-1.46-1.62-2.7-3.37-3.76-5.25-2.7-4.93-3.9-10.26-3.58-16.03.19-3.47.93-6.84,2.17-10.07,1.51-3.74,3.63-7.02,6.33-9.88,2.84-2.99,6.17-5.33,10.02-7,3.21-1.4,6.55-2.17,10.02-2.33,5.11-.27,9.83.61,14.1,2.6Z"/>
  <path class="cls-1" d="M303.75,10.39c1.88.05,3.66.34,5.35.85,2.73.85,5.11,2.41,7.18,4.69,1.4,1.56,2.52,3.34,3.34,5.33.05.13.11.13.19.03,2.15-2.7,4.4-4.93,6.84-6.63,3.42-2.41,7.13-3.84,11.16-4.21,2.62-.27,5.17-.03,7.63.66,1.59.45,3.05,1.11,4.35,2.01,1.72,1.14,3.21,2.6,4.51,4.37,1.25,1.67,2.15,3.58,2.68,5.67.58,2.31.85,4.8.85,7.47.03,10.76.03,21.52,0,32.28,0,.64.11,1.3.34,1.96.48,1.33,1.4,2.09,2.78,2.33.66.11,1.3.16,1.91.13.08,0,.13.05.16.13.05.27.05.74.03,1.43,0,.16-.11.27-.27.27h-23.37c-.13,0-.21-.05-.21-.21v-1.43c0-.16.08-.24.24-.24,1.22.08,2.2-.08,2.97-.48.9-.45,1.51-1.25,1.8-2.39.16-.61.24-1.25.21-1.91-.03-11.29-.03-22.58,0-33.87,0-2.52-.64-4.72-1.93-6.6-1.48-2.09-3.63-3.31-6.41-3.66-2.92-.32-5.72.4-8.43,2.15-2.33,1.51-4.4,3.45-6.2,5.78-.05.08-.11.13-.19.19-.37.32-.48.69-.32,1.14.03.08.05.16.05.27.08,2.44.13,5.09.13,7.95.05,8.82.05,17.68,0,26.5,0,1.14.19,2.17.61,3.1.48.9,1.25,1.46,2.25,1.64.66.16,1.4.21,2.23.16.08,0,.13.05.13.13.03.53.03,1.03,0,1.56,0,.08-.05.13-.13.13-7.71.03-15.5.03-23.4.03-.19,0-.27-.08-.29-.27-.03-.34-.03-.8,0-1.33,0-.19.11-.27.29-.27.53.03,1.03,0,1.51-.05,1.27-.13,2.2-.69,2.76-1.67.5-.9.74-1.93.69-3.1v-29.81c0-1.62-.03-3.02-.05-4.24-.05-2.23-.61-4.24-1.67-6.02-.5-.85-1.14-1.54-1.91-2.12-1.91-1.46-4.19-2.09-6.81-1.93-2.09.13-4.08.8-5.96,1.99-2.57,1.59-4.82,3.66-6.73,6.2-.05.08-.08.16-.08.24.08,12,.05,23.77-.08,35.3-.03,1.3.21,2.46.69,3.5.5.95,1.38,1.51,2.57,1.67.64.08,1.25.13,1.8.11.08,0,.13.05.16.13.05.27.05.77.03,1.48,0,.16-.08.27-.27.27h-23.32c-.13,0-.21-.05-.21-.21v-1.22c0-.34.19-.53.53-.5,1.3.16,2.36-.11,3.23-.82.93-.77,1.4-1.83,1.4-3.23,0-15.11.03-30.21.05-45.32,0-1.3-.34-2.36-1.01-3.23-.74-.87-1.99-1.27-3.71-1.19-.29,0-.48-.13-.5-.42-.08-.53-.05-.98.05-1.35.03-.08.08-.13.16-.13,5.91-.03,11.87-.03,17.86-.03.34,0,.53.19.53.53,0,2.46,0,4.88.03,7.23,0,.16.05.19.16.05,2.41-2.62,4.96-4.69,7.63-6.2,3.52-1.93,7.34-2.86,11.42-2.76Z"/>
  <path class="cls-1" d="M232.68,11.55h23.45c.13,0,.21.05.21.21v1.59c0,.08-.05.13-.13.13h-1.27c-1.22-.03-2.2.42-2.89,1.35-.69.87-.98,1.91-.87,3.02v.27c-.03,14.66-.05,29.36-.05,44.12,0,.87.08,1.67.27,2.39.34,1.11.98,1.86,1.91,2.28.77.34,1.7.45,2.76.37.19-.03.29.08.29.27v1.48c0,.11-.05.19-.19.19-7.95,0-15.77,0-23.45-.03-.08,0-.13-.05-.16-.13-.08-.27-.08-.69-.05-1.33.03-.32.19-.48.53-.45,1.06.11,1.99-.11,2.76-.61.61-.4,1.09-1.01,1.46-1.8.29-.61.45-1.3.48-2.07.03-14.71.05-29.42.03-44.1,0-.82-.03-1.51-.08-2.09-.21-1.27-.85-2.2-1.91-2.7-.82-.4-1.8-.53-2.92-.4-.16,0-.24-.05-.24-.21v-1.56c-.05-.13,0-.19.08-.19Z"/>
  <path class="cls-1" d="M66.57,26.29c0,.05.03.13,0,.19-.11-.03-.24-.03-.37-.03-.08,0-.11-.03-.05-.11.03-.05.16-.08.42-.05Z"/>
  <path class="cls-1" d="M88.91,26.29c.42-.05.64,0,.66.13,0,.08-.13.08-.45,0-.11-.08-.19-.11-.21-.13Z"/>
  <ellipse class="cls-1" cx="12.99" cy="39.47" rx="5.41" ry="5.35" transform="translate(-26.74 51.63) rotate(-88.8)"/>
  <ellipse class="cls-1" cx="38.93" cy="39.46" rx="5.35" ry="5.41" transform="translate(-.34 .34) rotate(-.5)"/>
  <ellipse class="cls-1" cx="64.85" cy="39.46" rx="5.41" ry="5.35" transform="translate(22.93 102.75) rotate(-87.8)"/>
  <ellipse class="cls-1" cx="90.76" cy="39.46" rx="5.35" ry="5.41" transform="translate(-.87 2.07) rotate(-1.3)"/>
  <circle class="cls-1" cx="116.71" cy="39.46" r="5.38"/>
  <ellipse class="cls-1" cx="142.62" cy="39.46" rx="5.35" ry="5.41" transform="translate(-.41 1.5) rotate(-.6)"/>
  <ellipse class="cls-1" cx="168.56" cy="39.46" rx="5.41" ry="5.35" transform="translate(127.05 207.53) rotate(-89.3)"/>
  <circle class="cls-1" cx="194.49" cy="39.46" r="5.38"/>
  <path class="cls-1" d="M11.13,52.45c.45,0,.66.03.66.05-.05.13-.24.19-.58.13.05-.05.03-.11-.08-.19Z"/>
  <path class="cls-1" d="M37.1,52.45c.42,0,.61.03.58.05-.05.16-.27.19-.58.13.13-.05.13-.11,0-.19Z"/>
  <path class="cls-1" d="M63.07,52.45c.37-.03.53,0,.53.05-.03.11-.16.13-.48.13.03-.05,0-.11-.05-.19Z"/>
  <path class="cls-1" d="M114.96,52.45c.32-.05.48-.05.5,0,.05.08-.13.16-.5.19.05-.05.05-.11,0-.19Z"/>
  <path class="cls-1" d="M166.82,52.45c.37,0,.56.03.53.05-.05.11-.24.16-.53.13.05-.05.05-.11,0-.19Z"/>
  <circle class="cls-1" cx="12.99" cy="65.67" r="5.38"/>
  <ellipse class="cls-1" cx="38.93" cy="65.67" rx="5.35" ry="5.41" transform="translate(-1.14 .69) rotate(-1)"/>
  <circle class="cls-1" cx="64.85" cy="65.67" r="5.38"/>
  <circle class="cls-1" cx="90.77" cy="65.67" r="5.38"/>
  <circle class="cls-1" cx="116.71" cy="65.67" r="5.38"/>
  <circle class="cls-1" cx="142.63" cy="65.67" r="5.38"/>
  <circle class="cls-1" cx="168.57" cy="65.67" r="5.38"/>
  <circle class="cls-1" cx="194.49" cy="65.67" r="5.38"/>
  <path class="cls-1" d="M77.86,66.68c.08.24.08.48.05.74h-.19c-.03-.21-.03-.45,0-.66.05-.16.08-.16.13-.08Z"/>
  <path class="cls-1" d="M155.69,66.84c.03.19.03.34,0,.53h-.19c0-.19.03-.37.08-.58.05-.13.08-.11.11.05Z"/>
  <path class="cls-1" d="M418.77,85.76c1.48,0,2.76.45,3.82,1.35.93.77,1.51,1.8,1.8,3.13.24,1.06.32,2.12.19,3.26,0,.08-.05.13-.13.13-1.17.08-2.31.08-3.47,0-.08,0-.13-.05-.13-.13-.05-.93-.13-1.7-.24-2.33-.08-.56-.32-1.01-.69-1.38-.53-.5-1.17-.64-1.91-.37-.4.13-.69.37-.85.77-.24.56-.34,1.17-.34,1.86.03,4.03.03,8.03,0,12.06,0,.9.29,1.51.87,1.83.53.29,1.11.32,1.78.08.58-.16.95-.58,1.11-1.27.27-1.06.32-2.31.16-3.79,0-.08-.05-.13-.16-.13-.72-.05-1.46-.05-2.17-.05-.08,0-.13-.05-.13-.13-.03-.72-.03-1.59-.03-2.57,0-.34.19-.53.53-.53h5.78c.19,0,.27.08.27.27v11.37c0,.13-.05.21-.21.21-.4.03-.95.03-1.62,0-.11,0-.19-.05-.21-.13-.21-.5-.4-.93-.56-1.33-.08-.19-.16-.19-.29-.05-.74.93-1.56,1.48-2.52,1.67-1.54.29-2.86.11-4.03-.56-.85-.5-1.51-1.25-2.01-2.23-.37-.8-.58-1.64-.58-2.6-.05-4.24-.05-8.48,0-12.72,0-1.06.27-2.07.8-2.97.5-.93,1.25-1.62,2.17-2.07.9-.45,1.91-.64,3.02-.64Z"/>
  <path class="cls-1" d="M232.2,86.1h11.4c.11,0,.19.05.19.19.03.87.03,1.91.03,3.07,0,.19-.08.27-.27.27h-3.34c-.16,0-.24.08-.24.24v18.97c0,.34-.19.53-.53.53h-3.31c-.13,0-.21-.05-.21-.21v-19.35c0-.11-.05-.19-.19-.19-.95-.03-2.04-.03-3.21-.03-.34,0-.53-.19-.53-.53v-2.78c.03-.11.11-.19.21-.19Z"/>
  <path class="cls-1" d="M261.8,86.1c2.09-.03,4.21-.03,6.33,0,.98.03,1.86.19,2.65.53,1.09.4,1.86,1.03,2.36,1.93.61,1.19.93,2.52.95,3.95,0,1.25-.13,2.36-.4,3.39-.42,1.38-1.14,2.31-2.12,2.76-.16.08-.21.19-.16.37,1.14,3.6,2.23,7,3.29,10.18.03.11,0,.13-.11.13h-3.79c-.16,0-.24-.08-.29-.21-.9-3.1-1.8-6.17-2.73-9.22-.03-.08-.08-.13-.19-.13-.5-.03-1.06,0-1.7.05-.08,0-.13.05-.13.16-.05,2.84-.08,5.88-.05,9.12,0,.13-.08.21-.21.21-1.06.03-2.25.03-3.58.03-.19,0-.27-.08-.27-.27v-22.9c.03-.05.05-.08.13-.08ZM268.98,89.84c-.82-.45-1.86-.58-3.1-.37-.08.03-.13.05-.13.16-.03,2.15-.03,4.32-.03,6.55,0,.21.11.32.32.32,1.11.16,2.07.03,2.86-.34.48-.24.8-.66.93-1.27.32-1.38.29-2.7-.05-4.03-.13-.42-.4-.77-.8-1.01Z"/>
  <path class="cls-1" d="M296.41,86.1h4.37c.11,0,.19.05.21.16,1.4,7.63,2.84,15.29,4.24,22.95.03.11-.03.13-.13.13h-3.39c-.27,0-.42-.13-.45-.4-.19-1.59-.4-3.15-.66-4.64-.03-.08-.05-.13-.16-.13-1.09-.03-2.41-.03-3.98,0-.11,0-.19.05-.19.16-.19,1.64-.42,3.26-.69,4.82-.03.08-.08.13-.16.13-1.06.05-2.25.05-3.58.03-.13,0-.19-.08-.16-.19,1.38-7.53,2.76-15.05,4.16-22.61.08-.27.26-.42.56-.42ZM298.32,91.77c-.4,2.86-.85,5.75-1.38,8.69-.03.13.03.19.16.19h2.78c.08,0,.13-.05.11-.13-.53-3.15-1.01-6.28-1.46-9.38,0-.08-.05-.08-.08-.03-.05.13-.11.37-.13.66Z"/>
  <path class="cls-1" d="M322.83,86.1h6.23c1.43,0,2.68.42,3.66,1.25.85.69,1.43,1.67,1.78,2.94.16.53.27,1.17.32,1.86.08,3.58.08,7.16,0,10.73-.03.72-.08,1.27-.21,1.72-.27,1.59-.98,2.84-2.15,3.68-.85.64-1.8.98-2.89,1.01-2.17.13-4.43.16-6.78.05-.16,0-.24-.08-.24-.24v-22.74c.03-.19.13-.27.29-.27ZM329.83,89.86c-.82-.45-1.86-.58-3.05-.4-.08.03-.13.05-.13.16-.03,5.41-.03,10.81,0,16.19,0,.08.05.13.13.13,1.03.11,1.96.03,2.76-.24.08-.03.16-.05.24-.11.66-.37,1.01-1.03,1.03-2.04.05-3.71.05-7.42,0-11.13,0-.66-.13-1.33-.37-1.93-.13-.27-.34-.48-.61-.64Z"/>
  <path class="cls-1" d="M357.13,86.1h3.74c.08,0,.16.08.16.16v22.95c0,.08-.08.16-.16.16h-3.74c-.08,0-.16-.08-.16-.16v-22.95c0-.08.08-.16.16-.16Z"/>
  <path class="cls-1" d="M383.28,86.1c1.14-.03,2.31-.03,3.5,0,.08,0,.11.03.13.11,1.67,4.45,3.26,8.77,4.74,12.93.03.08.05.08.05,0,.05-4.08.08-8.22.05-12.43,0-.4.19-.58.58-.58,1.03-.03,1.99,0,2.89.05.08,0,.13.05.13.13.05,7.42.08,15.03.05,22.87,0,.13-.05.19-.19.19-.93.03-1.96.03-3.13.03-.13,0-.21-.05-.27-.19-1.67-4.72-3.29-9.35-4.85-13.91-.13-.34-.19-.32-.19.11v13.78c0,.13-.05.19-.19.19-.93.03-2.01.03-3.26.03-.13,0-.19-.08-.19-.21,0-7.76,0-15.4.03-22.9-.05-.13,0-.16.08-.19Z"/>
</svg>