<?xml version="1.0" encoding="UTF-8"?>
<svg id="Layer_1" xmlns="http://www.w3.org/2000/svg" viewBox="0 0 425.2 113.4">
  <defs>
    <style>
      .cls-1 {
        fill: #f2f2f2;
      }
    </style>
  </defs>
  <g>
    <path class="cls-1" d="M14.32,15.7V0c.95.35,1.55.52,2.1.79,8.17,4.07,16.31,8.18,24.5,12.2,1.57.77,2.11,1.79,2.1,3.5-.04,28.68-.03,57.37-.03,86.05,0,.64-.08,1.27-.15,2.29-4.91-2.35-9.55-4.56-14.19-6.77-.11-.12-.23-.24-.34-.35.12-.63.35-1.27.35-1.9.02-23.66,0-47.33.03-70.99,0-1.2-.35-2-1.48-2.56-4.32-2.15-8.59-4.38-12.89-6.57v.02Z"/>
    <path class="cls-1" d="M28.31,97.71c.11.12.23.24.34.35,0,5,0,10,0,15.34-.9-.36-1.5-.55-2.05-.83-8.34-4.15-16.66-8.33-25.01-12.44C.39,99.54,0,98.79,0,97.49.03,68.48.02,39.47.03,10.46c0-.47.06-.94.12-1.82,4.86,2.42,9.52,4.74,14.18,7.05,0,0,0-.02,0-.02,0,.89.03,1.79.03,2.68,0,23.31.02,46.62-.04,69.93,0,1.9.6,2.88,2.3,3.66,3.95,1.81,7.81,3.83,11.71,5.76Z"/>
  </g>
  <g>
    <path class="cls-1" d="M342.35,43.47c6.01-4.39,11.25-3.87,16.12.99,1.06-.8,1.96-1.74,3.06-2.26,5.66-2.66,11.26-2.47,16.47,1.07,3.42,2.32,4.76,5.97,4.86,9.93.17,6.32.04,12.65.08,18.97,0,1.21-.41,1.76-1.66,1.72-1.49-.05-2.99-.08-4.47.01-1.6.11-2.21-.44-2.18-2.12.09-5.67.08-11.34,0-17-.05-3.97-2.52-6.38-6.25-6.27-2.97.08-5.24,1.9-5.5,4.85-.3,3.38-.26,6.79-.32,10.18-.05,2.86-.06,5.73,0,8.59.03,1.33-.52,1.82-1.8,1.78-1.55-.06-3.11-.07-4.65,0-1.4.07-1.87-.49-1.86-1.88.05-5.85.06-11.7,0-17.54-.05-3.88-2.9-6.35-6.68-5.95-3,.32-5.11,2.64-5.14,5.86-.06,5.67-.02,11.34-.03,17.01,0,2.44-.05,2.48-2.52,2.49-1.19,0-2.39,0-3.58,0-2.3-.02-2.37-.08-2.38-2.46,0-8.23,0-16.47,0-24.7,0-1.13.08-2.27-.02-3.4-.13-1.61.57-2.12,2.1-2.02,1.43.1,2.86.03,4.29.02,1.21-.01,2.45-.09,2.07,2.15Z"/>
    <path class="cls-1" d="M213.02,40.99c-.54,0-1.08-.04-1.61,0-1.46.13-2.47-.21-3.4-1.6-1.94-2.9-7.38-3.58-10.21-1.52-2.55,1.85-2.16,5.69.9,6.95,2.41.99,5.02,1.51,7.52,2.3,1.76.55,3.55,1.06,5.23,1.82,8.78,3.99,8.52,17.91,1.99,22.22-5.46,3.6-17.27,3.98-22.75-2.61-1.89-2.27-2.99-4.84-3.43-7.75-.19-1.24.25-1.64,1.41-1.58.89.04,1.79.05,2.68,0,2.47-.14,4.43-.15,5.73,2.91,1.52,3.57,7.96,4.39,11.09,1.99,2.55-1.96,1.88-6-1.36-7.21-2.62-.98-5.42-1.45-8.05-2.39-2.22-.79-4.54-1.63-6.43-2.99-4.24-3.05-5.09-7.63-4.49-12.48.58-4.67,3.3-7.87,7.68-9.52,5.77-2.18,14.37-1.75,18.63,3.74,1.38,1.78,2.16,4.06,3.1,6.16.44.99-.04,1.59-1.19,1.57-1.01-.02-2.03,0-3.04,0h0Z"/>
    <path class="cls-1" d="M159.84,62.78c-1.24,5.29-3.95,8.67-8.69,10.13-3.91,1.21-7.92,1.22-11.76-.29-4.72-1.86-7.3-5.58-7.84-10.48-.38-3.41-.4-6.92-.06-10.33.82-8.13,6.73-12.51,14.95-12.03,9.01.52,13.62,5.69,13.72,14.76q.06,5.11-5.05,5.11c-4.41,0-8.83,0-13.24,0-2.2,0-2.65.63-1.95,2.73.73,2.19,2.32,3.42,4.57,3.78,2.39.39,4.61-.09,6.1-2.08.81-1.08,1.66-1.36,2.87-1.33,2.01.06,4.02.02,6.39.02ZM151.55,52.78c-.04-3.36-1.82-5.17-5.15-5.54-3.07-.34-5.98,1.45-6.56,4.04-.18.81-.12,1.49.92,1.49,3.56.02,7.12,0,10.8,0Z"/>
    <path class="cls-1" d="M328.73,62.77c-.59,3.62-2.1,6.35-4.81,8.21-5.17,3.56-10.82,3.64-16.36,1.21-5.32-2.34-7.1-7.14-7.32-12.58-.11-2.67-.1-5.39.26-8.03,1.15-8.4,7.14-12.17,14.84-11.82,8.9.4,13.75,5.74,13.85,14.7q.06,5.19-5.13,5.19c-4.54,0-9.07,0-13.61,0-1.96,0-2.11.22-1.71,2.06.48,2.17,1.74,3.65,3.89,4.26,2.46.7,4.88.47,6.57-1.56,1.15-1.38,2.37-1.74,4.01-1.65,1.76.09,3.53.02,5.52.02ZM320.52,52.7c0-3.49-2.5-5.68-6.01-5.49-3.67.19-5.98,2.4-5.62,5.49h11.63Z"/>
    <path class="cls-1" d="M218.92,41.02c2.78,0,5.28-.09,7.76.07.5.03,1.14.95,1.36,1.58,2,5.56,3.91,11.15,5.86,16.73.19.55.42,1.08.82,2.1.41-1,.68-1.55.88-2.12,1.93-5.52,3.89-11.03,5.74-16.58.45-1.36,1.1-1.93,2.55-1.85,2.13.11,4.27.03,6.68.03-.18.74-.26,1.24-.43,1.71-4.39,12.25-8.76,24.5-13.18,36.74-1.72,4.77-3.05,5.65-8.05,5.66-1.25,0-2.51-.03-3.76,0-1.05.03-1.54-.43-1.53-1.49.02-1.49.02-2.98,0-4.48,0-1.02.41-1.59,1.48-1.55.36.01.72,0,1.07-.01,3-.03,4.69-2.41,3.67-5.31-2.19-6.25-4.44-12.48-6.66-18.72-1.28-3.6-2.58-7.19-3.86-10.79-.15-.43-.21-.9-.39-1.73Z"/>
    <path class="cls-1" d="M86.79,43.89c3.47-3.3,7.11-4.06,11.15-3.01,5.58,1.45,9.34,6.14,9.49,12.24.16,6.38.04,12.77.07,19.16,0,1.13-.42,1.65-1.57,1.62-1.55-.04-3.11-.08-4.65.02-1.55.1-2.1-.46-2.08-2.04.07-5.73.09-11.46,0-17.19-.08-4.72-3.98-7.33-8.46-5.82-1.85.62-3.08,1.85-3.54,3.72-.28,1.15-.41,2.35-.42,3.54-.04,5.19-.08,10.39.01,15.58.03,1.76-.61,2.35-2.29,2.22-1.3-.1-2.63-.11-3.94,0-1.7.14-2.12-.6-2.11-2.19.06-9.37.03-18.74.03-28.11,0-.24.02-.48,0-.72-.08-1.16.47-1.61,1.6-1.57,1.43.05,2.87.08,4.3-.01,1.52-.09,2.65.14,2.41,2.58Z"/>
    <path class="cls-1" d="M272.53,50.28c-.84,0-1.71.15-2.5-.04-.77-.19-1.65-.58-2.13-1.16-1.48-1.8-4.5-2.53-6.45-1.2-.59.4-1.28,1.43-1.14,1.98.2.77,1.01,1.71,1.75,1.94,2.5.77,5.1,1.23,7.65,1.86,6.28,1.54,9.29,6.4,7.88,12.68-.51,2.27-1.81,4.02-3.71,5.3-5.57,3.76-15.6,2.72-20.01-2.29-1.24-1.4-1.84-3.4-2.59-5.19-.42-.99.06-1.59,1.2-1.59,1.85.01,3.7-.06,5.55.04.55.03,1.25.42,1.59.86,1.86,2.41,4.6,3.4,7.6,2.62,1.17-.3,2.14-.79,2.2-2.2.06-1.41-.81-2.07-1.99-2.37-2.66-.67-5.36-1.2-8.01-1.91-5.77-1.56-8.78-6.81-7.19-12.45.9-3.18,3.13-5.19,6.12-6.31,3.88-1.46,7.86-1.47,11.75-.08,3.67,1.31,5.77,4.06,6.56,7.87.24,1.16-.02,1.72-1.27,1.67-.95-.04-1.91,0-2.86,0Z"/>
    <path class="cls-1" d="M406.99,50.3c-.78,0-1.55-.04-2.33,0-1.04.06-1.74-.24-2.35-1.2-1.12-1.78-4.73-2.44-6.45-1.2-.54.39-1.12,1.33-1.01,1.88.15.74.83,1.68,1.51,1.94,1.72.64,3.56.96,5.36,1.39.81.2,1.64.34,2.45.55,6.13,1.6,8.84,5.49,8.08,11.77-.4,3.28-2.18,5.73-5.25,6.93-5.37,2.1-10.74,2.03-15.9-.78-2.7-1.47-4.5-3.7-5.18-6.74-.42-1.89-.13-2.25,1.77-2.29,1.07-.02,2.15.03,3.22-.01,1.59-.06,2.86.05,3.89,1.74,1.28,2.08,5.72,2.74,7.88,1.45.61-.36,1.24-1.28,1.23-1.94,0-.66-.65-1.63-1.26-1.91-1.28-.59-2.72-.84-4.11-1.19-2.93-.75-6.01-1.02-8.54-2.98-5.11-3.96-4.92-12.26.57-15.66,5.07-3.14,10.43-3.08,15.72-.47,2.76,1.36,4.12,3.86,4.8,6.78.32,1.4-.14,2.04-1.61,1.94-.83-.06-1.67-.01-2.51,0Z"/>
    <path class="cls-1" d="M112.16,50.77c0-5.01.04-10.02-.02-15.02-.02-1.45.45-2.07,1.95-1.98,1.6.09,3.22.05,4.83.02,1.05-.02,1.54.45,1.51,1.5-.02.66,0,1.31,0,1.97.02,4.31-.35,3.75,3.88,3.79.83,0,1.67.04,2.5,0,1.31-.07,1.74.55,1.78,1.82.18,5.68.21,5.68-5.55,5.71-2.57.01-2.6.03-2.6,2.59,0,3.87-.03,7.75.01,11.62.03,2.79.58,3.29,3.4,3.33q4.74.06,4.73,4.74,0,2.79-2.72,2.8c-1.85,0-3.7.02-5.54,0-5.36-.07-7.99-2.65-8.13-8.03-.06-2.44-.02-4.89-.02-7.33,0-2.5,0-5.01,0-7.51Z"/>
    <path class="cls-1" d="M280.77,51.19c0-5.07.06-10.14-.03-15.21-.03-1.75.6-2.35,2.29-2.22,1.42.11,2.86.08,4.29,0,1.34-.06,1.81.53,1.75,1.81-.06,1.25.03,2.51-.02,3.76-.05,1.21.43,1.75,1.67,1.71,1.49-.05,2.98.04,4.47-.02,1.28-.05,1.88.41,1.81,1.76-.07,1.37-.06,2.74,0,4.11.05,1.25-.52,1.7-1.71,1.67-1.55-.04-3.1.01-4.65,0-.99-.01-1.58.31-1.57,1.43.03,4.65,0,9.3.03,13.95,0,1.36.77,2.07,2.13,2.13,1.43.06,2.86.14,4.29.2,1.02.04,1.51.51,1.48,1.57-.04,1.43-.03,2.86,0,4.29.02,1.06-.46,1.52-1.51,1.51-2.68-.03-5.37.06-8.05-.06-3.93-.18-6.51-2.82-6.59-6.83-.11-5.19-.03-10.38-.03-15.56-.01,0-.02,0-.04,0Z"/>
    <path class="cls-1" d="M65.52,51.01c0-6.8.05-13.6-.03-20.41-.02-1.74.58-2.35,2.28-2.23,1.54.11,3.1.04,4.65.03.96,0,1.44.43,1.42,1.4,0,.36,0,.72,0,1.07,0,13.54,0,27.09,0,40.63,0,2.35-.02,2.36-2.42,2.38-1.25,0-2.51-.08-3.76.02-1.62.12-2.2-.47-2.18-2.14.07-6.92.03-13.84.03-20.76Z"/>
    <path class="cls-1" d="M174.18,44.05c2.41-2.63,5.19-3.29,8.21-3.37,1.18-.03,1.78.36,1.73,1.64-.06,1.67-.05,3.34,0,5.01.03,1.17-.49,1.61-1.61,1.56-.89-.04-1.79-.04-2.68.03-3.59.25-5.7,2.41-5.74,6.03-.06,5.49-.02,10.98-.03,16.46,0,2.45-.05,2.48-2.52,2.49-1.13,0-2.27,0-3.4,0-2.52-.01-2.55-.03-2.55-2.64,0-8.53,0-17.06,0-25.59,0-.89.04-1.79,0-2.68-.06-1.24.51-1.71,1.72-1.65,1.25.06,2.51.04,3.76,0,1.72-.04,3.59-.33,3.14,2.72Z"/>
    <path class="cls-1" d="M420.02,49.98c-2.85-.02-5.16-2.29-5.17-5.07,0-2.81,2.48-5.32,5.24-5.27,2.83.05,5.1,2.34,5.11,5.15,0,2.99-2.21,5.21-5.18,5.19ZM420.05,40.65c-2.34-.02-4.18,1.83-4.19,4.21,0,2.27,1.91,4.21,4.2,4.26,2.24.05,4.22-1.95,4.2-4.24-.02-2.34-1.88-4.21-4.22-4.23Z"/>
    <path class="cls-1" d="M421.59,47.61c-.55-.67-1.21-1.48-2.09-2.55-.32,1.11-.53,1.84-.74,2.56-.19-.01-.38-.02-.58-.04,0-1.76-.13-3.54.13-5.26.04-.28,1.93-.55,2.81-.31.52.15,1.04,1.32,1.06,2.04.03,1.13-.36,2.26-.6,3.55Z"/>
  </g>
</svg>