<?xml version="1.0" encoding="UTF-8"?>
<svg id="Layer_1" xmlns="http://www.w3.org/2000/svg" viewBox="0 0 425.2 129.01">
  <defs>
    <style>
      .cls-1 {
        fill: #f2f2f2;
      }
    </style>
  </defs>
  <g id="qrt">
    <path class="cls-1" d="M396.81,11.15h-45.22v16.63h28.57v80.46h16.65V27.78h28.39V11.15h-28.39ZM343.57,64.82c1.73-2.74,3.08-5.71,4.02-8.81.98-3.26,1.47-6.65,1.45-10.06.02-4.65-.92-9.26-2.78-13.52-1.79-4.11-4.33-7.85-7.49-11.02-3.17-3.17-6.92-5.71-11.05-7.49-4.26-1.86-8.87-2.81-13.52-2.78h-36.33v97.08h16.65V27.78h19.68c7.35.03,13.97,4.46,16.78,11.25,1.87,4.43,1.87,9.42,0,13.85-.91,2.22-2.22,4.25-3.87,5.98-3.39,3.48-8.05,5.43-12.91,5.4h-7.21l-6.8,16.65h11.38l17.62,27.32h19.83l-19.83-30.78c5.88-2.82,10.85-7.23,14.36-12.73M264.08,74.7c-1.47,4.73-3.65,9.22-6.44,13.32l8.73,8.89v23.58l-50.49-50.39v-23.58l29.69,29.53c4.92-9.06,5.52-19.85,1.65-29.41-1.67-4.13-4.17-7.87-7.33-11-3.14-3.16-6.87-5.69-10.97-7.43-4.13-1.72-8.56-2.58-13.04-2.55-4.42-.03-8.8.84-12.88,2.55-4.1,1.75-7.83,4.27-10.97,7.43-3.16,3.12-5.66,6.84-7.36,10.95-1.68,4.1-2.55,8.48-2.55,12.91,0,4.44.87,8.85,2.55,12.96,1.68,4.13,4.19,7.88,7.36,11.02,3.12,3.17,6.85,5.68,10.97,7.36,4.08,1.7,8.46,2.56,12.88,2.55,1.18,0,2.36-.07,3.54-.2,1.17-.13,2.29-.31,3.41-.48l13.16,13.16c-3.11,1.31-6.33,2.34-9.62,3.06-3.45.75-6.96,1.13-10.49,1.12-6.74.03-13.42-1.31-19.63-3.95-5.99-2.54-11.43-6.21-16.01-10.82-4.57-4.63-8.21-10.1-10.74-16.09-2.67-6.2-4.03-12.88-4-19.63-.05-6.74,1.3-13.43,3.95-19.63,2.53-6,6.18-11.46,10.74-16.09,4.59-4.61,10.03-8.28,16.01-10.82,12.58-5.27,26.75-5.27,39.34,0,12.1,5.15,21.72,14.8,26.84,26.91,2.65,6.2,3.99,12.89,3.95,19.63.03,5.18-.74,10.33-2.29,15.28"/>
    <polygon class="cls-1" points="19.35 21.95 19.35 41.22 36.36 31.6 19.35 21.95"/>
    <polygon class="cls-1" points="37.17 52.19 37.17 32.92 20.14 42.57 37.17 52.19"/>
    <polygon class="cls-1" points="17.8 41.22 17.8 21.95 .79 31.6 17.8 41.22"/>
    <polygon class="cls-1" points="58.05 21.95 58.05 41.22 75.06 31.6 58.05 21.95"/>
    <polygon class="cls-1" points="75.87 52.19 75.87 32.92 58.87 42.57 75.87 52.19"/>
    <polygon class="cls-1" points="96.78 21.95 96.78 41.22 113.78 31.6 96.78 21.95"/>
    <polygon class="cls-1" points="95.22 41.22 95.22 21.95 78.22 31.6 95.22 41.22"/>
    <polygon class="cls-1" points="38.7 32.92 38.7 52.19 55.71 42.57 38.7 32.92"/>
    <polygon class="cls-1" points="58.05 43.89 58.05 63.17 75.06 53.52 58.05 43.89"/>
    <polygon class="cls-1" points="56.52 63.17 56.52 43.89 39.52 53.52 56.52 63.17"/>
    <polygon class="cls-1" points="77.43 32.92 77.43 52.19 94.43 42.57 77.43 32.92"/>
    <polygon class="cls-1" points="37.17 30.25 37.17 10.97 20.14 20.62 37.17 30.25"/>
    <polygon class="cls-1" points="58.05 0 58.05 19.3 75.06 9.65 58.05 0"/>
    <polygon class="cls-1" points="56.52 0 39.52 9.65 56.52 19.3 56.52 0"/>
    <polygon class="cls-1" points="77.43 10.97 77.43 30.25 94.43 20.62 77.43 10.97"/>
    <polygon class="cls-1" points="56.52 41.22 56.52 21.95 39.52 31.6 56.52 41.22"/>
    <polygon class="cls-1" points="38.7 10.97 38.7 30.25 55.71 20.62 38.7 10.97"/>
    <polygon class="cls-1" points="75.87 30.25 75.87 10.97 58.87 20.62 75.87 30.25"/>
    <polygon class="cls-1" points="0 32.92 0 52.19 17.01 42.57 0 32.92"/>
    <polygon class="cls-1" points="19.35 43.89 19.35 63.17 36.36 53.52 19.35 43.89"/>
    <polygon class="cls-1" points="17.8 63.17 17.8 43.89 .79 53.52 17.8 63.17"/>
    <polygon class="cls-1" points="38.7 54.87 38.7 74.14 55.71 64.52 38.7 54.87"/>
    <polygon class="cls-1" points="56.52 85.12 56.52 65.84 39.52 75.47 56.52 85.12"/>
    <polygon class="cls-1" points="37.17 74.14 37.17 54.87 20.14 64.52 37.17 74.14"/>
    <polygon class="cls-1" points="19.35 65.84 19.35 85.12 36.36 75.47 19.35 65.84"/>
    <polygon class="cls-1" points="38.7 76.82 38.7 96.09 55.71 86.44 38.7 76.82"/>
    <polygon class="cls-1" points="37.17 96.09 37.17 76.82 20.14 86.44 37.17 96.09"/>
    <polygon class="cls-1" points="19.35 87.79 19.35 107.06 36.36 97.41 19.35 87.79"/>
    <polygon class="cls-1" points="0 54.87 0 74.14 17.01 64.52 0 54.87"/>
    <polygon class="cls-1" points="17.8 85.12 17.8 65.84 .79 75.47 17.8 85.12"/>
    <polygon class="cls-1" points="0 76.82 0 96.09 17.01 86.44 0 76.82"/>
    <polygon class="cls-1" points="17.8 107.06 17.8 87.79 .79 97.41 17.8 107.06"/>
    <polygon class="cls-1" points="56.52 107.06 56.52 87.79 39.52 97.41 56.52 107.06"/>
    <polygon class="cls-1" points="38.7 98.74 38.7 118.04 55.71 108.39 38.7 98.74"/>
    <polygon class="cls-1" points="56.52 129.01 56.52 109.71 39.52 119.36 56.52 129.01"/>
    <polygon class="cls-1" points="37.17 118.04 37.17 98.74 20.14 108.39 37.17 118.04"/>
    <polygon class="cls-1" points="95.22 63.17 95.22 43.89 78.22 53.52 95.22 63.17"/>
    <polygon class="cls-1" points="75.87 74.14 75.87 54.87 58.87 64.52 75.87 74.14"/>
    <polygon class="cls-1" points="58.05 65.84 58.05 85.12 75.06 75.47 58.05 65.84"/>
    <polygon class="cls-1" points="75.87 96.09 75.87 76.82 58.87 86.44 75.87 96.09"/>
    <polygon class="cls-1" points="58.05 87.79 58.05 107.06 75.06 97.41 58.05 87.79"/>
    <polygon class="cls-1" points="77.43 76.82 77.43 96.09 94.43 86.44 77.43 76.82"/>
    <polygon class="cls-1" points="77.43 54.87 77.43 74.14 94.43 64.52 77.43 54.87"/>
    <polygon class="cls-1" points="114.57 52.19 114.57 32.92 97.57 42.57 114.57 52.19"/>
    <polygon class="cls-1" points="96.78 43.89 96.78 63.17 113.78 53.52 96.78 43.89"/>
    <polygon class="cls-1" points="58.05 109.71 58.05 129.01 75.06 119.36 58.05 109.71"/>
    <polygon class="cls-1" points="75.87 118.04 75.87 98.74 58.87 108.39 75.87 118.04"/>
    <polygon class="cls-1" points="77.43 98.74 77.43 118.04 94.43 108.39 77.43 98.74"/>
    <polygon class="cls-1" points="96.78 87.79 96.78 107.06 113.78 97.41 96.78 87.79"/>
    <polygon class="cls-1" points="96.78 65.84 96.78 85.12 113.78 75.47 96.78 65.84"/>
    <polygon class="cls-1" points="114.57 96.09 114.57 76.82 97.57 86.44 114.57 96.09"/>
    <polygon class="cls-1" points="95.22 107.06 95.22 87.79 78.22 97.41 95.22 107.06"/>
    <polygon class="cls-1" points="95.22 85.12 95.22 65.84 78.22 75.47 95.22 85.12"/>
    <polygon class="cls-1" points="114.57 74.14 114.57 54.87 97.57 64.52 114.57 74.14"/>
  </g>
</svg>