<?xml version="1.0" encoding="UTF-8"?>
<svg id="Layer_1" xmlns="http://www.w3.org/2000/svg" viewBox="0 0 538.74 56.69">
  <defs>
    <style>
      .cls-1 {
        fill: #f2f2f2;
      }
    </style>
  </defs>
  <g>
    <path class="cls-1" d="M92.66,56.21c-8.1,0-12.11-4.62-12.11-12.33v-20.38h-7.33v-7.94h7.33V5.39l9.64-2.39v12.57h10.1v7.94h-10.1v19.5c0,3.08,1.38,4.41,4.46,4.41,1.99,0,3.61-.08,6.24-.4v8.1c-2.71.69-5.39,1.06-8.26,1.06h0l.03.03Z"/>
    <path class="cls-1" d="M130.2,55.68v-24.76c0-4.62-1.54-7.49-6.64-7.49-5.79,0-8.26,6.16-8.26,11.1v21.12h-9.64V.03h9.64v19.82c2.31-3.4,6.77-5.23,10.95-5.23,8.55,0,13.58,6.08,13.58,14.35v26.75h-9.64l.03-.03Z"/>
    <path class="cls-1" d="M181.66,38.65h-26.83c-.08,3.08,1.01,6,2.92,7.86,1.38,1.3,3.32,2.47,5.95,2.47,2.76,0,4.46-.53,5.87-1.94.82-.85,1.54-1.94,1.94-3.4h9.25c-.24,2.39-1.86,5.55-3.4,7.41-3.37,4.01-8.4,5.63-13.5,5.63-5.47,0-9.48-1.94-12.65-4.94-4.01-3.85-6.16-9.48-6.16-16.02s1.94-12.11,5.79-16.05c3-3.08,7.33-5.07,12.81-5.07,5.95,0,11.34,2.39,14.64,7.41,2.92,4.41,3.61,8.95,3.48,13.95,0,0-.08,1.83-.08,2.68h-.03ZM169.65,24.63c-1.3-1.38-3.32-2.31-6.08-2.31-2.92,0-5.31,1.25-6.72,3.08-1.38,1.78-1.99,3.61-2.07,6.24h17.35c-.08-3-.93-5.31-2.47-7.01h0Z"/>
    <path class="cls-1" d="M202.44,10.25v45.43h-10.44V10.25h-16.18V.5h42.83v9.75h-16.21Z"/>
    <path class="cls-1" d="M234.64,24.15c-6.77,0-10.33,4.86-10.33,11.34v20.19h-9.7V15.59h8.16l.85,6.03c1.86-4.62,6.64-6.56,11.34-6.56,1.01,0,2.02.08,3,.24v9.25c-1.06-.24-2.23-.4-3.32-.4h0Z"/>
    <path class="cls-1" d="M273.18,56.29c-4.17,0-6.48-2.63-6.77-5.63-1.86,3.24-6.48,6-12.19,6-9.56,0-14.48-6-14.48-12.57,0-7.62,5.92-12.03,13.58-12.57l11.8-.85v-2.47c0-3.77-1.33-6.32-6.8-6.32-4.46,0-7.09,1.99-7.33,5.71h-9.32c.53-9.03,7.7-13.04,16.66-13.04,6.88,0,12.73,2.15,15.04,8.18,1.01,2.55,1.17,5.39,1.17,8.1v14.88c0,1.86.61,2.55,2.23,2.55.61,0,1.25-.16,1.25-.16v7.09c-1.65.69-2.47,1.09-4.81,1.09h0ZM265.11,37.86l-10.17.77c-2.92.24-5.79,2.02-5.79,5.23s2.71,4.99,5.71,4.99c6.03,0,10.25-3.24,10.25-9.19v-1.86h0v.05Z"/>
    <path class="cls-1" d="M309.37,55.68l-.61-4.38c-2.39,3.69-6.88,5.31-11.26,5.31-4.01,0-7.33-1.38-9.8-3.4-4.78-3.93-7.09-9.96-7.09-17.51s2.39-13.95,7.17-17.91c2.47-1.99,5.71-3.24,9.8-3.24,5.1,0,8.79,1.7,10.49,3.77V0h9.64v55.66h-8.34v.03ZM299.43,22.69c-3,0-5.1,1.38-6.48,3.16-2.02,2.63-2.55,6.24-2.55,9.72s.53,7.17,2.55,9.78c1.38,1.78,3.48,3.16,6.48,3.16,7.54,0,9.11-7.17,9.11-12.94s-1.54-12.88-9.11-12.88h0Z"/>
    <path class="cls-1" d="M358.86,38.65h-26.83c-.08,3.08,1.01,6,2.92,7.86,1.38,1.3,3.32,2.47,5.92,2.47,2.79,0,4.46-.53,5.87-1.94.85-.85,1.54-1.94,1.94-3.4h9.25c-.24,2.39-1.86,5.55-3.4,7.41-3.4,4.01-8.4,5.63-13.5,5.63-5.47,0-9.48-1.91-12.65-4.94-4.01-3.85-6.16-9.48-6.16-16.02s1.94-12.11,5.79-16.05c3-3.08,7.33-5.07,12.81-5.07,5.95,0,11.34,2.39,14.66,7.41,2.92,4.41,3.61,8.95,3.48,13.95,0,0-.08,1.83-.08,2.68h-.03ZM346.83,24.6c-1.3-1.38-3.32-2.31-6.08-2.31-2.92,0-5.31,1.25-6.69,3.08-1.38,1.78-1.99,3.61-2.07,6.24h17.35c-.08-3-.93-5.31-2.47-7.01h-.03Z"/>
    <path class="cls-1" d="M400.38,49.81c-3.61,3.77-9.11,5.84-15.36,5.84h-21.28V1.01h21.28c6.24,0,11.72,2.07,15.36,5.84,5.63,5.79,6.4,13.89,6.4,21.44s-.77,15.73-6.4,21.52h0ZM392.76,13.04c-1.86-1.86-4.54-3.08-7.7-3.08h-11.34v36.77h11.34c3.16,0,5.87-1.22,7.7-3.08,3.85-3.85,3.93-10.33,3.93-15.33s-.08-11.42-3.93-15.28Z"/>
    <path class="cls-1" d="M446.56,38.65h-26.83c-.08,3.08,1.01,6,2.92,7.86,1.38,1.3,3.29,2.47,5.92,2.47,2.76,0,4.46-.53,5.87-1.94.85-.85,1.54-1.94,1.94-3.4h9.25c-.24,2.39-1.86,5.55-3.4,7.41-3.4,4.01-8.4,5.63-13.5,5.63-5.47,0-9.48-1.94-12.65-4.94-4.01-3.85-6.16-9.48-6.16-16.02s1.94-12.11,5.79-16.05c3-3.08,7.33-5.07,12.81-5.07,5.95,0,11.34,2.39,14.66,7.41,2.92,4.41,3.61,8.95,3.48,13.95,0,0-.08,1.83-.08,2.68h-.03ZM434.52,24.63c-1.3-1.38-3.32-2.31-6.08-2.31-2.92,0-5.31,1.25-6.72,3.08-1.38,1.78-2.02,3.61-2.07,6.24h17.35c-.08-3-.93-5.31-2.44-7.01h-.03Z"/>
    <path class="cls-1" d="M487.65,0v55.66h9.64v-10.55l6.4-6.93,11.26,17.51h11.18l-15.89-24.6,14.35-15.49h-12.09l-15.2,16.29V0h-9.67Z"/>
    <path class="cls-1" d="M472.43,31.93c-3.93-.61-4.94-.69-8.55-1.17-2.15-.32-4.62-1.17-4.62-4.01,0-2.1,1.38-3.56,3.08-4.25,1.46-.61,2.79-.61,4.17-.61,1.99,0,4.09.69,5.23,1.86.93,1.01,1.62,2.23,1.62,3.77h9.19c0-2.92-1.38-5.95-3.56-8.26-2.92-3.16-7.78-4.7-12.57-4.7s-9.25,1.46-12.19,4.01c-2.39,2.1-4.09,4.94-4.09,9.03,0,5.07,3.69,9.56,9.19,10.71,3.53.77,7.54,1.01,11.1,1.54,2.47.4,4.01,1.94,4.01,4.25,0,4.41-4.94,5.1-8.18,5.1-2.76,0-4.54-.56-6.08-1.78-1.04-.82-1.81-2.31-2.07-3.83h-9.06c.27,3.4,2.05,6.38,4.2,8.45,3.32,3.16,7.86,4.62,12.96,4.62,5.47,0,10.49-1.38,13.71-4.62,2.07-2.07,3.48-4.94,3.48-8.79,0-6.32-4.62-10.33-10.97-11.32h0Z"/>
    <path class="cls-1" d="M533.59,15.46c-2.98,0-5.15-2.31-5.15-5.23s2.21-5.26,5.15-5.26,5.15,2.31,5.15,5.23-2.18,5.26-5.15,5.26ZM533.59,5.87c-2.52,0-4.2,1.86-4.2,4.33s1.67,4.33,4.2,4.33,4.2-1.83,4.2-4.33-1.67-4.33-4.2-4.33h0ZM534.76,12.86l-.9-1.99h-1.06v1.99h-.96v-5.47h2.02c1.04,0,1.94.61,1.94,1.73,0,.72-.29,1.28-.98,1.57l1.01,2.18h-1.06ZM533.83,8.29h-1.06v1.67h1.06c.56,0,.96-.27.96-.85s-.43-.85-.96-.85h0v.03Z"/>
  </g>
  <g>
    <path class="cls-1" d="M15.22,41.05v12.25C6.16,48.59,0,39.16,0,28.27c0-3.98.82-7.78,2.34-11.21h11.5c-2.42,3.08-3.88,6.99-3.88,11.21,0,4.97,1.99,9.48,5.23,12.78h.03Z"/>
    <path class="cls-1" d="M56.32,28.27c0,15.57-12.62,28.16-28.16,28.16-1.7,0-3.35-.16-4.97-.45v-10.23c1.57.45,3.24.69,4.97.69,10.04,0,18.2-8.16,18.2-18.2,0-4.99-2.02-9.54-5.29-12.81V3.24c9.06,4.68,15.25,14.13,15.25,25.05v-.03Z"/>
    <polygon class="cls-1" points="12.41 .27 12.41 10.23 23.19 10.23 23.19 31.77 33.18 31.77 33.18 .27 12.41 .27"/>
  </g>
</svg>