<?xml version="1.0" encoding="UTF-8"?>
<svg id="Layer_1" xmlns="http://www.w3.org/2000/svg" viewBox="0 0 522.04 85.04">
  <defs>
    <style>
      .cls-1 {
        fill: #f2f2f2;
      }
    </style>
  </defs>
  <path class="cls-1" d="M0,55.74c.25-.45.51-.89.74-1.34C9.5,36.89,18.26,19.39,27.02,1.89c.14-.27.27-.56.43-.81.53-.83,1.48-1.23,2.38-1.01.94.22,1.61.95,1.72,1.94.05.44.03.89.03,1.33,0,15.16,0,30.32,0,45.49v1.31c.07.04.13.08.2.12.26-.23.54-.45.79-.69,2.4-2.39,4.79-4.78,7.18-7.17,4.76-4.76,9.55-9.49,14.27-14.29,1.38-1.41,2.73-1.72,4.43.01,7.06,7.14,14.19,14.22,21.3,21.31.28.28.57.54.86.81.08-.03.15-.06.23-.09v-1.28c0-15.09,0-30.19,0-45.28,0-.44-.02-.89.02-1.33.11-1.18.79-1.98,1.83-2.19.98-.2,1.89.26,2.46,1.26.14.24.25.48.38.73,8.68,17.35,17.35,34.7,26.07,52.03,1.13,2.24.51,3.4-1.51,4.41-17.32,8.61-34.62,17.27-51.92,25.91-.39.2-.77.44-1.15.65h-1.64c-.38-.22-.75-.47-1.14-.67-17.19-8.59-34.39-17.18-51.58-25.77-.31-.15-.61-.31-.92-.46-.6-.29-1.09-.7-1.37-1.32-.08-.18-.25-.32-.37-.47,0-.2,0-.41,0-.61ZM53.89,34.86c-.96.62-20.79,20.48-21.17,21.17.86,1.15,20.45,20.61,21.17,21v-42.17ZM58.63,34.91s-.12.1-.12.15c-.02,13.72-.03,27.43-.03,41.15,0,.24.04.47.06.71,0,.03.04.05.06.07.03.02.06.02.11.04.07-.04.18-.07.25-.14,6.81-6.8,13.63-13.6,20.44-20.41.12-.12.2-.27.3-.41.02-.02.02-.06.02-.1,0-.03,0-.07,0-.1-.87-1.13-20.44-20.59-21.09-20.96ZM85.45,12.28c-.23,2.04-.13,40.5.09,41.26.89.23,19.68.23,20.53,0-.13-.79-19.86-40.33-20.62-41.26ZM6.21,53.53c1.21.26,19.92.22,20.73,0,.03-.08.1-.17.11-.26.03-.2.04-.41.04-.61-.01-13.38-.02-26.75-.04-40.13,0-.03-.02-.07-.05-.09-.02-.02-.07-.02-.2-.04-6.84,13.66-13.69,27.35-20.59,41.14ZM99.99,58.45c-.02-.06-.04-.13-.06-.19-.26-.02-.51-.05-.77-.05-4.71,0-9.42,0-14.14-.01-.71,0-1.22.23-1.71.72-4.89,4.91-9.79,9.8-14.69,14.7-.17.17-.31.38-.47.57.04.04.07.07.11.11,10.57-5.28,21.15-10.56,31.72-15.85ZM12.6,58.28c-.02.07-.04.15-.06.22,10.54,5.27,21.09,10.53,31.63,15.8-.06-.35-.23-.55-.41-.73-4.88-4.88-9.77-9.75-14.64-14.64-.49-.5-1-.73-1.71-.72-4.65.02-9.3.01-13.95.01-.29,0-.58.04-.87.06Z"/>
  <path class="cls-1" d="M522.04,61.06c-.3.58-.77.77-1.42.77-7.21-.02-14.42,0-21.64-.01-1.09,0-1.41-.32-1.45-1.39,0-.2,0-.41,0-.61,0-11.51,0-23.02,0-34.52,0-1.9.14-2.03,2.04-2.03,6.94,0,13.88,0,20.82,0,.67,0,1.31.02,1.65.72v5.33c-.42.53-.99.61-1.63.61-4.79-.02-9.57,0-14.36,0-.4,0-.8,0-1.23,0v9c.44,0,.8,0,1.17,0,3.83,0,7.66,0,11.49,0,.27,0,.55-.01.82.01.66.06,1.04.38,1.06,1.02.04,1.54.03,3.07,0,4.61-.01.61-.35.92-.96.99-.3.03-.61.02-.92.02-3.83,0-7.66,0-11.49,0-.37,0-.73,0-1.17,0v9.6c.44,0,.84,0,1.25,0,4.79,0,9.57,0,14.36,0,.69,0,1.3.09,1.62.79v5.12Z"/>
  <path class="cls-1" d="M376.09,40.34c-.17,1.06-.35,2.12-.51,3.18-.85,5.56-1.7,11.13-2.55,16.69-.04.24-.08.47-.13.71-.11.54-.46.87-.99.88-1.67.03-3.35.04-5.02,0-.76-.02-1.08-.44-.98-1.25.12-1.02.32-2.02.49-3.03,1.62-9.17,3.25-18.34,4.88-27.51.35-1.95.68-3.9,1.04-5.84.11-.62.13-1.32,1.02-1.44,1.24-.16,1.7.02,2.16,1.02,3.65,7.82,7.3,15.65,10.95,23.48.3.64.6,1.27,1,2.1.27-.53.46-.87.62-1.23,3.7-7.92,7.39-15.83,11.08-23.75.09-.19.17-.37.26-.56.48-1,1.39-1.37,2.44-1,.45.16.59.52.67.94.24,1.34.48,2.69.72,4.03,1.63,9.24,3.25,18.48,4.88,27.72.28,1.58.56,3.16.83,4.74.21,1.24-.1,1.61-1.4,1.62-1.37.01-2.73.01-4.1,0-1.13,0-1.45-.3-1.62-1.4-.97-6.27-1.95-12.54-2.92-18.81-.05-.33-.14-.66-.25-1.16-.23.25-.42.38-.5.55-.37.77-.7,1.55-1.05,2.33-2.65,5.95-5.31,11.91-7.97,17.86-.48,1.08-1.5,1.54-2.56,1.06-.3-.14-.55-.5-.71-.82-.46-.92-.85-1.86-1.27-2.79-2.62-5.82-5.24-11.64-7.87-17.45-.13-.3-.3-.58-.45-.87l-.18.02Z"/>
  <path class="cls-1" d="M144.31,45.86c.16-.4.33-.8.49-1.21,2.64-6.84,5.29-13.69,7.93-20.53.1-.25.2-.51.3-.76.17-.43.49-.63.95-.64.21,0,.41,0,.62,0,1.03.01,1.13.07,1.51,1.04,1.65,4.23,3.29,8.46,4.93,12.69,1.14,2.93,2.28,5.85,3.42,8.78.08.22.19.42.37.83.15-.4.26-.63.32-.86,1.76-6.84,3.51-13.68,5.27-20.52.32-1.25.5-1.4,1.74-1.4,1.37,0,2.73-.01,4.1,0,1.32.01,1.64.44,1.27,1.74-1.64,5.85-3.29,11.69-4.94,17.54-1.73,6.14-3.46,12.28-5.19,18.42-.36,1.28-.59,1.42-1.85,1.41-.74,0-1.08-.37-1.34-1.02-1.4-3.59-2.83-7.18-4.25-10.76-1.68-4.25-3.37-8.5-5.05-12.75-.12-.31-.26-.61-.43-.99-.45.29-.49.72-.63,1.07-2.82,7.18-5.62,14.36-8.43,21.54-.24.6-.47,1.21-.71,1.81-.42,1.04-.6,1.14-1.79,1.09-.89-.04-1.09-.2-1.38-1.22-.77-2.72-1.53-5.45-2.3-8.18-2.56-9.1-5.13-18.19-7.69-27.29-.09-.33-.2-.65-.27-.99-.19-.95.12-1.36,1.07-1.42.44-.03.89,0,1.33,0,1.03,0,2.05,0,3.08,0,1.19,0,1.4.17,1.71,1.32,1.63,6.24,3.26,12.48,4.89,18.71.22.85.45,1.7.68,2.55.08,0,.17.01.25.02Z"/>
  <path class="cls-1" d="M217.6,37.43v1.09c0,7.07,0,14.14,0,21.21,0,.27.01.55,0,.82-.05.88-.39,1.26-1.26,1.28-1.54.03-3.08.03-4.61,0-.89-.02-1.22-.39-1.26-1.26-.01-.24,0-.48,0-.72,0-11.75,0-23.49,0-35.24,0-.27-.02-.55,0-.82.05-.67.35-.99,1.02-1.05.83-.07,1.51.03,2.18.75,7.04,7.54,14.13,15.04,21.2,22.55.25.27.44.6.66.9.1-.05.21-.11.31-.16,0-.35.02-.71.02-1.06,0-6.76,0-13.52,0-20.28,0-.27,0-.55,0-.82.03-.99.32-1.31,1.28-1.33,1.54-.03,3.08-.03,4.61,0,.92.02,1.26.4,1.29,1.34,0,.24,0,.48,0,.72,0,11.68,0,23.36,0,35.04,0,.07,0,.14,0,.2,0,1.59-.61,2.11-2.17,1.75-.32-.07-.62-.39-.86-.65-4.11-4.49-8.2-8.98-12.3-13.47-3.06-3.36-6.12-6.72-9.18-10.07-.23-.25-.47-.49-.7-.74-.08.02-.16.03-.24.05Z"/>
  <path class="cls-1" d="M348,46.36c.16.32.32.65.49.97,2.2,4.09,4.41,8.17,6.61,12.25.88,1.64.52,2.23-1.35,2.23-1.54,0-3.08-.03-4.61.01-.79.02-1.24-.29-1.59-1-2.14-4.31-4.31-8.6-6.47-12.9-.2-.39-.42-.78-.61-1.14h-6.11c0,.42,0,.78,0,1.15,0,3.99,0,7.99,0,11.98,0,.24.01.48,0,.72-.05.76-.37,1.15-1.13,1.17-1.64.03-3.28.03-4.92,0-.71-.02-1.04-.39-1.11-1.09-.03-.27-.01-.55-.01-.82,0-11.57,0-23.14,0-34.71,0-.24-.01-.48,0-.72.05-.83.37-1.14,1.21-1.21.17-.01.34,0,.51,0,4.99,0,9.98,0,14.97,0,3.57,0,6.62,1.26,9.04,3.89,4.7,5.11,4.06,12.72-1.44,16.99-1.04.81-2.23,1.43-3.48,2.22ZM334.59,29.9c-.22,1.3-.17,10.08.05,10.86,3.16,0,6.34.16,9.5-.05,2.94-.19,5.15-3.4,4.63-6.3-.46-2.6-2.66-4.48-5.32-4.51-2.19-.03-4.38,0-6.56,0-.75,0-1.49,0-2.3,0Z"/>
  <path class="cls-1" d="M451.06,36.57c0,3.65.05,7.31-.01,10.96-.12,6.72-4.49,12.41-10.97,14.22-8.71,2.44-17.14-2.48-19.24-10.71-.3-1.18-.47-2.42-.48-3.64-.04-7.48-.02-14.96-.02-22.44,0-.17,0-.34,0-.51.06-.76.38-1.16,1.14-1.17,1.71-.04,3.42-.03,5.13,0,.72.02,1.02.38,1.07,1.11.02.27,0,.55,0,.82,0,7.03-.02,14.07.02,21.1,0,1.08.13,2.19.41,3.23.81,3.05,3.61,5.86,8.16,5.61,3.49-.19,6.46-2.69,7.19-6.23.17-.83.23-1.69.23-2.54.02-7.03,0-14.07,0-21.1,0-.27-.01-.55,0-.82.05-.83.36-1.18,1.22-1.19,1.64-.03,3.28-.03,4.92,0,.86.02,1.2.4,1.22,1.31.02,1.3,0,2.6,0,3.89,0,2.7,0,5.4,0,8.09h0Z"/>
  <path class="cls-1" d="M297.02,29.9v8.95c.39.02.75.04,1.11.04,3.86,0,7.73,0,11.59,0,.27,0,.55-.02.82.01.66.06,1.04.38,1.06,1.02.03,1.54.03,3.07,0,4.61-.01.63-.34.92-.96.99-.3.03-.61.02-.92.02-3.83,0-7.66,0-11.49,0h-1.18v9.6c.38,0,.74,0,1.11,0,4.72,0,9.43,0,14.15,0,.27,0,.55-.01.82.01.82.08,1.15.41,1.17,1.25.02,1.4.02,2.8,0,4.2-.02.84-.35,1.15-1.19,1.21-.2.01-.41,0-.62,0-6.94,0-13.88,0-20.82,0-.24,0-.48.01-.72,0-.78-.06-1.1-.38-1.15-1.16-.02-.24,0-.48,0-.72,0-11.61,0-23.22,0-34.83,0-.14,0-.27,0-.41.02-1.16.28-1.44,1.47-1.44,7.18,0,14.36,0,21.53,0,1.24,0,1.49.27,1.5,1.52,0,1.13,0,2.25,0,3.38,0,1.51-.22,1.73-1.7,1.74-4.79,0-9.57,0-14.36,0-.37,0-.74,0-1.23,0Z"/>
  <path class="cls-1" d="M270.05,29.9v1.48c0,9.46,0,18.92,0,28.38,0,1.94-.14,2.07-2.12,2.07-1.16,0-2.32,0-3.49,0-1.33,0-1.64-.31-1.64-1.62,0-3.48,0-6.97,0-10.45,0-6.18,0-12.36,0-18.54v-1.31c-.49,0-.85,0-1.22,0-2.22,0-4.44,0-6.67,0-1.28,0-1.58-.3-1.58-1.56,0-1.16,0-2.32,0-3.48,0-1.34.26-1.59,1.64-1.6,1.23,0,2.46,0,3.69,0,6.29,0,12.58,0,18.87,0,1.87,0,2.02.16,2.02,2.07,0,.89,0,1.78,0,2.66,0,1.68-.23,1.91-1.87,1.91-2.15,0-4.31,0-6.46,0-.34,0-.67,0-1.17,0Z"/>
  <path class="cls-1" d="M477.77,29.96v29.58c0,.24,0,.48,0,.72-.01,1.27-.29,1.55-1.57,1.56-1.33,0-2.67,0-4,0-1.34,0-1.64-.3-1.64-1.62,0-5.05,0-10.11,0-15.16,0-4.61,0-9.22,0-13.83v-1.25c-.41-.02-.76-.06-1.12-.06-2.26,0-4.51,0-6.77,0-1.28,0-1.57-.29-1.58-1.56,0-1.16,0-2.32,0-3.48,0-1.35.24-1.59,1.64-1.59,1.44,0,2.87,0,4.31,0,5.98,0,11.97,0,17.95,0,.21,0,.41,0,.62,0,1.43.01,1.67.25,1.67,1.67,0,1.09,0,2.19,0,3.28,0,1.43-.26,1.69-1.66,1.69-2.32,0-4.65,0-6.97,0-.24,0-.47.03-.87.06Z"/>
  <path class="cls-1" d="M188.53,42.42c0-5.74,0-11.47,0-17.21,0-.27-.02-.55,0-.82.06-.7.39-1.1,1.09-1.11,1.67-.04,3.35-.04,5.02,0,.73.02,1.03.35,1.11,1.09.04.3.03.61.03.92,0,11.51,0,23.02,0,34.53,0,1.82-.19,2.01-1.99,2.01-1.23,0-2.46,0-3.69,0-1.25,0-1.58-.33-1.59-1.57,0-5.94,0-11.88,0-17.83Z"/>
</svg>