<?xml version="1.0" encoding="UTF-8"?>
<svg id="Layer_1" xmlns="http://www.w3.org/2000/svg" viewBox="0 0 202.09 72.12">
  <defs>
    <style>
      .cls-1 {
        fill: #f2f2f2;
      }
    </style>
  </defs>
  <path class="cls-1" d="M69.92,41.42c0,4.25-.1,8.5.03,12.75.11,3.52.86,7.07.6,10.55-.18,2.36-1,5.66-2.66,6.65-2.01,1.19-5.28.72-7.88.27-1.03-.18-2.32-2.2-2.45-3.49-.49-4.95-.55-9.94-.78-14.92-.16-3.47-.17-6.95-.58-10.39-.53-4.46-1.99-8.88-1.98-13.32.02-5.92-.21-12.04,2.88-17.55,1.81-3.23,5.1-2.85,7.88-3.07,2.54-.2,3.83,1.92,5.09,4.17,4.38,7.81,9.11,15.42,13.74,23.1.18.3.62.45,1.53,1.06.46-5.48.7-10.52,1.36-15.5.54-4.12,1.54-8.18,2.41-12.25.65-3.04,4.58-3.63,8.07-2.47,2.76.92,3.07,2.7,2.75,6.09-.89,9.23-1.39,18.5-2.03,27.76-.44,6.32-.8,12.64-1.29,18.95-.18,2.31-3.68,5.35-6.2,5.65-4.27.5-7.75-1.32-9.07-5.21-2.2-6.48-5.46-12.34-9.6-17.76-.35-.45-.74-.87-1.12-1.3l-.7.22Z"/>
  <path class="cls-1" d="M120.54,39.13c-.12,1.16-.39,2.32-.34,3.47.27,6.23.74,12.45.85,18.67.03,1.91-.43,4.12-1.43,5.71-2.01,3.18-6.99,4.31-10.17,2.34-1.18-.73-2.31-2.57-2.33-3.93-.21-11-.34-22-.08-33,.11-4.75.82-9.56,1.95-14.18,1.21-4.94,2.65-5.75,7.75-5.24,3.91.39,7.56,1.4,9.44,5.64,2.76,6.23,5.85,12.32,9.07,19.02.75-2.52,1.53-4.65,2.01-6.85,2.02-9.18,4.14-18.31,8.16-26.9,1.77-3.77,3.67-4.71,7.18-3.21,2.07.89,2.4,2.36,2.09,4.21-1.03,6.03-2.14,12.04-3.16,18.07-1.38,8.16-2.61,16.34-4.09,24.48-.9,4.9-2,9.78-3.31,14.59-1.26,4.62-5.88,5.67-9.16,2.11-1.19-1.29-1.75-3.16-2.58-4.78-3.53-6.84-7.04-13.69-10.57-20.54-.42.1-.85.21-1.27.31Z"/>
  <path class="cls-1" d="M40.55,29.59c.99,6.24,1.75,12.53,3.03,18.72,1.21,5.84,3.09,11.53,4.34,17.36.19.88-1.28,2.85-2.28,3.09-2.82.69-5.81,1.05-8.72.98-2.77-.07-3.82-2.14-4.06-4.95-.47-5.53-1.23-11.04-2.13-16.51-.12-.74-1.72-1.75-2.64-1.76-3.18-.03-6.38.19-9.53.62-.82.11-1.91,1.21-2.17,2.06-1.11,3.7-2.12,7.45-2.85,11.24-1.17,6.11-4.85,8.48-10.92,7.18-2.55-.55-2.93-1.77-2.43-3.88,1.89-7.94,3.62-15.91,5.72-23.79,1.99-7.49,4.3-14.9,6.61-22.31.63-2.03,1.73-3.92,2.71-5.83.76-1.49,1.58-2.91,3.79-2.07.51.19,1.48-.41,2.05-.88.53-.43.8-1.18,1.2-1.78,3.74-5.67,4.36-5.7,11.06-4.02,4.48,1.12,4.87,4.89,5.46,7.99,1.17,6.08,1.49,12.32,2.16,18.49-.14.02-.27.03-.41.05ZM26.93,19.27c-.38.03-.76.06-1.14.09-1.5,3.66-3.04,7.3-4.5,10.98-.56,1.42-1.02,2.89-1.37,4.37-.19.81-.03,1.7-.03,2.56,2.62-.12,5.26-.16,7.86-.44.37-.04.88-1.27.85-1.93-.13-2.9-.37-5.79-.68-8.68-.25-2.33-.66-4.64-1-6.95Z"/>
  <path class="cls-1" d="M161.05,65.51c-4.96-.17-6.03-1.7-4.75-6.65,3.04-11.83,5.93-23.7,9.11-35.49,1.24-4.61,2.98-9.11,4.73-13.56,1.35-3.44,5.41-6.18,8.71-5.07,2.54.85,4.78,3.21,6.64,5.34,6.77,7.78,7.74,17.75,10.09,27.22,1.79,7.22,4.04,14.32,6.26,21.43.92,2.94-.57,4.77-4.97,5.51-4.78.81-7.56-.98-8.95-5.68-.81-2.74-1.55-5.51-2.64-8.14-.37-.89-1.7-1.4-2.61-2.05-.14-.1-.4-.02-.61-.01-2.76.06-6.14-.83-8.1.45-1.73,1.13-1.89,4.66-2.73,7.14-.33.97-.67,1.93-.96,2.91-1.68,5.63-3.38,6.86-9.23,6.66ZM175.11,40.05c3.24-.22,5.48-.38,8.17-.56-1.58-4.96-2.96-9.25-4.33-13.54-.45.05-.9.11-1.35.16-.79,4.39-1.57,8.78-2.5,13.94Z"/>
</svg>