<?xml version="1.0" encoding="UTF-8"?>
<svg id="Layer_1" xmlns="http://www.w3.org/2000/svg" viewBox="0 0 245.74 141.73">
  <defs>
    <style>
      .cls-1 {
        fill: #f2f2f2;
      }

      .cls-2 {
        fill: #b3b3b3;
      }
    </style>
  </defs>
  <path class="cls-2" d="M52.78,141.65c6.16.01,12.28-1.06,18.07-3.17h.24c27.26,9.96,57.42-4.07,67.38-31.33,4.34-11.88,4.25-24.93-.26-36.75v-.26c9.64-27.36-4.72-57.35-32.08-66.99-11.39-4.01-23.81-3.98-35.18.09h-.24C43.46-6.78,13.25,7.19,3.23,34.43c-4.35,11.82-4.31,24.82.12,36.61v.24c-9.9,27.27,4.18,57.4,31.44,67.3,5.77,2.09,11.85,3.16,17.99,3.15v-.08ZM70.97,136.63h-.12c-6.63-2.56-12.66-6.48-17.69-11.51-1.94-1.96-3.72-4.06-5.32-6.3l-.82-1.14,1.26.6c14.48,6.79,31.25,6.67,45.62-.34l1.28-.64-.84,1.18c-5.78,8.21-13.87,14.52-23.23,18.15h-.14ZM26.52,45.54h0c3.25-1.93,6.7-3.5,10.29-4.69l.6-.2-.14.62c-2.2,10.07-1.4,20.57,2.29,30.19v.26c-3.25,9.33-3.83,19.38-1.66,29.01l.14.62-.6-.18c-3.67-1.15-7.19-2.71-10.51-4.65h0c-9.23-15.7-9.39-35.14-.42-50.99ZM23.91,94.49l-1.16-.84c-2.17-1.58-4.22-3.33-6.12-5.22-4.94-4.92-8.81-10.8-11.37-17.29v-.26c2.54-6.68,6.48-12.74,11.55-17.79,1.77-1.76,3.67-3.4,5.66-4.91l1.14-.84-.6,1.3c-6.52,14.16-6.42,30.49.28,44.57l.62,1.28ZM121.62,70.56c.01,9-2.37,17.85-6.9,25.62h0c-3.15,1.87-6.49,3.38-9.97,4.53l-.6.2.14-.62c2.24-9.95,1.55-20.34-1.99-29.91v-.26c3.42-9.46,4.05-19.7,1.83-29.51l-.14-.62.6.2c3.6,1.12,7.06,2.64,10.31,4.55h0c4.53,7.9,6.84,16.88,6.7,25.98l.02-.16ZM117.63,46.84l1.14.82c2.24,1.61,4.34,3.4,6.28,5.34,4.86,4.84,8.68,10.62,11.23,16.99v.26c-2.52,6.87-6.52,13.1-11.71,18.27-1.81,1.81-3.75,3.48-5.8,5.01l-1.16.86.62-1.32c6.7-14.24,6.7-30.73,0-44.97l-.6-1.26ZM40.28,74.75l.26-.94.42.9c2.58,5.58,6.13,10.66,10.49,15,4.52,4.52,9.82,8.19,15.65,10.81l.88.4-.94.28c-4.71,1.35-9.58,2.02-14.48,1.99-4.21.01-8.4-.5-12.48-1.54h-.22v-.22c-2.22-8.73-2.08-17.89.4-26.54l.02-.14ZM40.28,68.09c-2.88-9.04-3.2-18.71-.9-27.92v-.2h.2c9.21-2.44,18.92-2.27,28.04.48l.94.28-.9.4c-12.01,5.35-21.57,15.04-26.76,27.12l-.4.88-.22-1.04ZM52.72,88.53c-4.85-4.85-8.67-10.63-11.23-16.99v-.26c5.07-13.66,15.75-24.5,29.33-29.77h.26c13.28,5.19,23.8,15.69,28.99,28.97v.26c-5.21,13.55-15.94,24.24-29.51,29.39h-.26c-6.62-2.54-12.63-6.44-17.63-11.47l.04-.14ZM73.34,40.67l.92-.28c8.92-2.7,18.4-2.93,27.44-.66h.2v.2c2.24,8.98,2.03,18.39-.62,27.26l-.28.92-.4-.88c-5.36-11.62-14.76-20.89-26.44-26.1l-.82-.46ZM73.8,100.5c11.98-5.28,21.56-14.84,26.88-26.8l.4-.88.28.92c2.78,8.97,3.06,18.52.82,27.64v.2h-.2c-4.33,1.15-8.78,1.73-13.26,1.73-5.02,0-10.01-.73-14.82-2.19l-.94-.28.84-.34ZM103.39,103.37v-.2h.2c2.69-.79,5.31-1.79,7.84-3.01l1.3-.64-.84,1.18c-3.04,4.18-6.7,7.87-10.85,10.95l-1.14.86.6-1.3c1.16-2.53,2.13-5.15,2.89-7.84ZM111.63,41.55c-2.64-1.24-5.38-2.26-8.2-3.05h-.2v-.2c-.8-2.85-1.83-5.62-3.09-8.3l-.62-1.28,1.16.84c2.13,1.56,4.13,3.3,5.98,5.18,1.96,1.96,3.76,4.07,5.38,6.32l.82,1.14-1.24-.66ZM101.18,37.36l.18.6-.6-.14c-9.87-2.23-20.16-1.58-29.67,1.87h-.24c-5.79-2.12-11.9-3.2-18.07-3.19-4.12,0-8.23.49-12.24,1.44l-.62.16.18-.62c1.13-3.66,2.68-7.18,4.61-10.49l.14-.14c15.91-9.34,35.63-9.39,51.59-.12h0c1.99,3.37,3.58,6.97,4.75,10.71v-.08ZM41.18,30.09c-1.27,2.69-2.3,5.47-3.09,8.34v.18h-.2c-2.82.82-5.55,1.9-8.18,3.21l-1.28.62.82-1.16c1.67-2.37,3.53-4.59,5.58-6.64,1.82-1.83,3.78-3.51,5.86-5.04l1.16-.86-.68,1.36ZM29.99,99.88c2.68,1.28,5.47,2.32,8.34,3.11h.2v.2c.8,2.82,1.82,5.58,3.07,8.24l.6,1.26-1.14-.82c-2.25-1.61-4.38-3.41-6.34-5.36-1.9-1.9-3.65-3.96-5.22-6.14l-.84-1.16,1.34.68ZM40.6,104.14l-.18-.6.6.12c9.74,2.2,19.9,1.59,29.31-1.75h.24c5.8,2.11,11.92,3.18,18.09,3.17,4.14,0,8.26-.48,12.28-1.44l.62-.14-.2.6c-1.07,3.47-2.52,6.81-4.31,9.97h0c-15.87,9.51-35.65,9.66-51.67.4h0c-1.97-3.21-3.57-6.63-4.79-10.19v-.14ZM125.09,124.94c-13.3,13.27-32.83,18.15-50.81,12.7l-.94-.28.9-.4c5.79-2.58,11.06-6.2,15.55-10.67l.28-.28c3.15-3.17,5.89-6.73,8.14-10.59l.12-.12c7.18-4.42,13.19-10.5,17.53-17.73l.12-.12c3.57-2.19,6.87-4.78,9.83-7.74,4.69-4.69,8.44-10.22,11.07-16.31l.38-.9.3.94c5.89,18.18,1.07,38.13-12.46,51.63v-.14ZM74.16,3.94c4.71-1.35,9.58-2.02,14.48-1.99,28.07-.02,50.85,22.72,50.87,50.79,0,4.83-.68,9.64-2.03,14.28l-.28.92-.4-.88c-4.45-9.6-11.68-17.64-20.76-23.07l-.14-.12c-2.22-3.75-4.9-7.2-7.98-10.29-2.98-3.06-6.33-5.74-9.97-7.98l-.12-.12c-2.24-3.7-4.92-7.11-7.98-10.17-4.51-4.51-9.81-8.16-15.63-10.77l-.9-.4.84-.2ZM70.83,5.06h.12c6.61,2.53,12.62,6.44,17.61,11.47,1.91,1.91,3.66,3.97,5.24,6.16l.84,1.14-1.28-.6c-14.37-6.85-31.07-6.85-45.44,0l-1.3.62.86-1.16c5.84-8.05,13.91-14.21,23.21-17.73l.14.1ZM1.74,52.56C1.76,24.44,24.57,1.67,52.69,1.7c5.03,0,10.04.76,14.85,2.23l.94.28-.9.4c-9.97,4.37-18.33,11.74-23.93,21.08l-.12.14c-3.59,2.18-6.9,4.79-9.87,7.76-3.19,3.19-5.96,6.78-8.24,10.69l-.12.12c-3.48,2.16-6.7,4.71-9.61,7.6-4.58,4.6-8.27,10.01-10.89,15.95l-.4.88-.28-.92c-1.57-4.96-2.38-10.13-2.39-15.33h0ZM4.07,74.37l.3-.92.4.88c2.62,5.72,6.24,10.93,10.69,15.37,3.04,3.06,6.43,5.73,10.11,7.98l.14.12c2.23,3.7,4.91,7.11,7.98,10.15,3.09,3.07,6.55,5.75,10.29,7.98l.14.12c5.54,9.3,13.81,16.66,23.69,21.08l.9.4-.94.28c-4.82,1.46-9.84,2.2-14.88,2.19-28.07.02-50.85-22.72-50.87-50.79,0-.01,0-.03,0-.04-.04-5.01.65-9.99,2.05-14.8h0Z"/>
  <polygon class="cls-1" points="70.39 59.5 85.17 59.5 85.17 61.87 73.06 61.87 73.06 69.85 83.03 69.85 83.03 72.18 73.06 72.18 73.06 83.05 70.39 83.05 70.39 59.5"/>
  <rect class="cls-1" x="90.35" y="59.5" width="2.67" height="23.49"/>
  <polygon class="cls-1" points="97.57 59.5 100.3 59.5 106.74 79.44 106.74 79.44 113.28 59.5 116.03 59.5 108.06 83.11 105.43 83.11 97.57 59.5"/>
  <polygon class="cls-1" points="120.58 59.5 135.66 59.5 135.66 61.87 123.25 61.87 123.25 69.71 133.68 69.71 133.68 72.04 123.25 72.04 123.25 80.63 135.72 80.63 135.72 83.01 120.58 83.01 120.58 59.5"/>
  <path class="cls-1" d="M151.21,59.5h8.34c4.47,0,7.66,2.57,7.66,7,.13,3.4-2.35,6.35-5.72,6.8l6.82,9.71h-2.97l-6.62-9.55h-4.79v9.49h-2.67l-.04-23.45ZM158.95,71.3c3.55,0,5.62-1.54,5.62-4.83s-2.23-4.75-5.68-4.75h-4.97v9.57h5.02Z"/>
  <path class="cls-1" d="M173.34,59.5h2.65v23.49h-2.65v-23.49Z"/>
  <path class="cls-1" d="M182.75,59.5h2.67l12.1,18.88h0v-18.88h2.53v23.51h-2.61l-12.2-19.16h0v19.16h-2.49v-23.51Z"/>
  <path class="cls-1" d="M206.36,75.45v-8.16c-.05-4.57,3.62-8.31,8.19-8.36.23,0,.47,0,.7.02,4.67,0,8.39,2.57,8.39,6.92v1.12h-2.53v-.78c0-3.17-2.47-4.89-5.98-4.89-3.19-.23-5.96,2.16-6.19,5.34-.02.21-.02.43-.01.64v7.98c-.02,3.19,2.56,5.8,5.75,5.81.2,0,.41,0,.61-.03,3.43,0,5.86-1.83,5.86-5.01v-2.61h-6.46v-2.37h9.01v5.34c0,4.45-3.55,7.04-8.39,7.04s-8.95-2.83-8.95-8.02Z"/>
  <path class="cls-1" d="M228.6,77.7l2.43-.9c.98,2.69,3.63,4.4,6.48,4.19,3.11,0,5.6-1.52,5.6-4.21s-1.54-3.53-3.61-4.19l-4.45-1.26c-3.29-.92-5.2-2.63-5.2-5.98,0-3.89,3.29-6.32,7.54-6.32,3.61,0,6.64,1.36,7.86,4.45l-2.29.92c-1.07-2.07-3.28-3.3-5.6-3.13-2.39,0-4.87,1.22-4.87,3.85,0,1.85,1.12,3.13,3.89,3.99l4.47,1.24c2.95.55,5.05,3.2,4.89,6.2,0,3.99-3.33,6.8-8.34,6.8-4.29.08-7.7-1.91-8.79-5.64Z"/>
</svg>