<?xml version="1.0" encoding="UTF-8"?>
<svg id="Layer_1" xmlns="http://www.w3.org/2000/svg" viewBox="0 0 425.2 115.12">
  <defs>
    <style>
      .cls-1 {
        fill: #f2f2f2;
      }
    </style>
  </defs>
  <path class="cls-1" d="M90.8,85.23c-.11.16-.26.43-.47.65-1,1.09-2.04,1.14-3.48.6-16.48-6.21-32.99-12.34-49.49-18.48-.37-.14-.74-.34-1.12-.39-1.66-.2-2.11-1.39-2.23-2.76-.03-.34.34-.82.66-1.07,5.28-4.2,10.59-8.38,15.89-12.56,9.59-7.56,19.18-15.11,28.78-22.66,1.31-1.04,3.16-.31,3.4,1.34,1.78,12.17,3.54,24.34,5.31,36.52.88,6.02,1.76,12.04,2.64,18.06.03.2.06.39.12.75Z"/>
  <path class="cls-1" d="M25.46,12.06c1.95.46,3.62.86,5.3,1.25,15.5,3.62,31,7.24,46.51,10.85.7.16,1.28.31,1.46,1.21.15.76.01,1.2-.6,1.68-10.23,8.03-20.44,16.08-30.65,24.13-4.6,3.62-9.2,7.25-13.8,10.88-1.01.79-2,.83-2.98.03-.19-.16-.29-.51-.32-.78-.67-6.01-1.32-12.02-1.98-18.04-.75-6.87-1.51-13.73-2.26-20.6-.36-3.25-.72-6.5-1.04-9.76-.03-.28.25-.6.36-.85Z"/>
  <path class="cls-1" d="M41.8,115.12c-.29-1.28-.56-2.4-.81-3.51-2.99-13.39-5.98-26.79-8.97-40.18-.11-.5-.25-.96.32-1.31.73-.44,1.07-1.51,2.32-1.03,5.41,2.07,10.85,4.05,16.28,6.07,8.53,3.17,17.07,6.33,25.6,9.5,3.44,1.28,6.88,2.58,10.32,3.87.59.22,1.16.39,1.17,1.25.01.79-.33,1.17-.99,1.52-5.89,3.09-11.77,6.2-17.65,9.31-8.8,4.66-17.6,9.32-26.41,13.97-.32.17-.65.3-1.19.55Z"/>
  <path class="cls-1" d="M398.57,43.57c0,8.52,0,16.72,0,24.92,0,1.96-.38,2.34-2.36,2.34-1.75,0-3.51,0-5.26,0-1.12,0-1.71-.58-1.71-1.68,0-13.23,0-26.47,0-39.7,0-1.07.51-1.83,1.57-1.84,2.66-.05,5.33.04,7.99.18.41.02.91.47,1.16.85,2.48,3.82,4.91,7.67,7.38,11.5,2.62,4.05,5.27,8.09,7.91,12.13.21.32.4.66.81.99v-.98c0-7.48.02-14.95-.02-22.43,0-1.43.53-2.19,2.16-2.26,1.75-.08,3.51-.05,5.26,0,1.36.03,1.74.46,1.74,1.78,0,13.3,0,26.6,0,39.9,0,1.28-.3,1.59-1.54,1.59-2.12,0-4.24-.02-6.36.01-.86.01-1.36-.35-1.81-1.07-1.88-2.99-3.83-5.93-5.73-8.91-2.29-3.57-4.54-7.17-6.84-10.73-1.37-2.13-2.8-4.23-4.36-6.57Z"/>
  <path class="cls-1" d="M84.57,28.76c.12-.14.34-.45.61-.71.5-.46,1.02-.48,1.62-.11,2.37,1.45,4.76,2.86,7.14,4.3,5.89,3.56,11.78,7.12,17.67,10.67,3.4,2.05,6.8,4.1,10.19,6.16,1.07.65,1.05.72.26,1.71-5.59,7-11.17,14.01-16.75,21.01-3.44,4.32-6.88,8.64-10.32,12.95-.4.5-.79.97-1.57.75-.83-.24-.74-.94-.82-1.53-1.04-7.09-2.07-14.19-3.1-21.28-1.62-11.12-3.24-22.23-4.87-33.35-.01-.1-.02-.2-.07-.59Z"/>
  <path class="cls-1" d="M243.19,49.19c0-6.55.04-13.1-.04-19.64-.01-1.22.98-1.98,1.93-1.99,4.44-.02,8.87-.09,13.3.03,2.14.06,4.31.3,6.38.8,3.42.82,6.63,2.1,9.28,4.62,2.43,2.32,3.95,5.09,4.9,8.23.95,3.17,1.12,6.42.94,9.71-.18,3.3-.81,6.5-2.19,9.47-2.23,4.78-6.06,7.74-11.1,9.23-2.49.73-5.02,1.13-7.59,1.16-4.63.05-9.27.02-13.9.01-1.37,0-1.9-.53-1.9-1.89,0-6.58,0-13.16,0-19.74ZM252.73,49.19c0,4.17,0,8.34,0,12.5,0,.45-.11.99.62.99,3.56,0,7.14.19,10.55-1.19,2.27-.92,3.99-2.42,4.91-4.68,1.68-4.11,1.56-8.38.77-12.62-.69-3.72-2.95-6.24-6.6-7.45-3.06-1.02-6.23-1.06-9.4-1.04-.66,0-.87.33-.87.99.03,4.17.01,8.34.01,12.5Z"/>
  <path class="cls-1" d="M166.89,44.63c0-5.05,0-9.95,0-14.84,0-1.55.64-2.22,2.18-2.23,1.72,0,3.44,0,5.17,0,1.53,0,2.19.68,2.19,2.19,0,13.07,0,26.14,0,39.21,0,1.35-.52,1.87-1.89,1.87-1.95,0-3.91,0-5.86,0-1.23,0-1.78-.57-1.78-1.81,0-4.96,0-9.93,0-14.89,0-1.26-.1-1.36-1.36-1.36-4.6,0-9.21,0-13.81,0-1.3,0-1.52.24-1.52,1.56,0,4.9,0,9.79,0,14.69,0,1.47-.34,1.81-1.77,1.82-1.99,0-3.97,0-5.96,0-1.14,0-1.61-.46-1.61-1.59,0-13.3,0-26.6,0-39.9,0-1.1.35-1.67,1.55-1.72,2.16-.09,4.34.06,6.51.11,1.07.02,1.28.74,1.28,1.6,0,4.63,0,9.26,0,13.9q0,1.4,1.41,1.4c4.7,0,9.4,0,14.11,0,.36,0,.71,0,1.18,0Z"/>
  <path class="cls-1" d="M217.07,61.9c-4.85,0-9.68,0-14.51.03-.23,0-.6.34-.68.59-.83,2.51-1.59,5.05-2.47,7.55-.13.36-.81.72-1.25.73-2.15.08-4.3.06-6.45.03-1.26-.02-1.73-1.02-1.28-2.22.78-2.09,1.38-4.24,2.09-6.35,1.04-3.12,2.11-6.23,3.18-9.34,1.59-4.64,3.2-9.27,4.79-13.91,1.13-3.3,2.23-6.61,3.39-9.9.3-.86.85-1.42,1.96-1.38,2.61.08,5.23.03,7.84.03,1.19,0,1.71.37,2.08,1.49.6,1.81,1.17,3.63,1.8,5.43,1.09,3.1,2.25,6.18,3.32,9.29.73,2.1,1.33,4.25,2.04,6.36,1.06,3.16,2.14,6.31,3.25,9.46,1.01,2.88,2.08,5.75,3.1,8.63.54,1.54-.09,2.42-1.72,2.42-2.02,0-4.04-.04-6.06.02-1.09.03-1.65-.41-1.97-1.46-.77-2.5-1.63-4.97-2.46-7.49ZM209.59,37.25c-.23.43-.33.56-.37.7-1.55,4.92-3.1,9.85-4.66,14.77-.24.74-.06,1.04.74,1.04,2.78-.02,5.56,0,8.34,0,1.04,0,1.23-.3.89-1.31-.84-2.48-1.7-4.95-2.51-7.43-.81-2.49-1.56-5-2.42-7.76Z"/>
  <path class="cls-1" d="M363.04,61.9c-4.78,0-9.55.01-14.32-.01-.72,0-.86.42-1.03.94-.71,2.21-1.47,4.41-2.16,6.63-.3.98-.82,1.44-1.91,1.4-1.78-.08-3.58-.1-5.36,0-1.67.1-2.25-.89-1.73-2.47.64-1.93,1.37-3.84,2.02-5.77.75-2.23,1.44-4.49,2.19-6.72.97-2.87,1.97-5.73,2.95-8.6.87-2.53,1.73-5.07,2.6-7.59,1.26-3.66,2.53-7.31,3.8-10.97.23-.66.68-.99,1.4-.98,2.88.01,5.76.01,8.64,0,.75,0,1.23.36,1.46,1.04,1.24,3.64,2.46,7.28,3.71,10.91,1.07,3.12,2.16,6.23,3.25,9.34,1.39,3.99,2.79,7.97,4.17,11.97.88,2.56,1.74,5.13,2.6,7.69.42,1.25-.21,2.12-1.54,2.13-2.19.01-4.37-.04-6.56.02-.9.02-1.37-.43-1.61-1.15-.59-1.78-1.08-3.59-1.65-5.37-.26-.8-.6-1.57-.94-2.43ZM355.58,37.28c-.42,1.17-.79,2.16-1.13,3.17-1.31,3.99-2.6,7.98-3.91,11.97-.35,1.06-.17,1.33.97,1.33,2.58,0,5.17,0,7.75,0,1.6,0,1.64-.07,1.16-1.55-1.6-4.91-3.19-9.83-4.84-14.92Z"/>
  <path class="cls-1" d="M304.59,44.43c4.42,0,8.69.02,12.96-.01,2.15-.02,2.7.66,2.56,2.58-.09,1.35-.02,2.71-.02,4.07,0,1.19-.52,1.7-1.74,1.7-4.24,0-8.47.02-12.71-.02-.84,0-1.08.27-1.06,1.08.04,2.58.06,5.16,0,7.74-.03.97.33,1.15,1.21,1.14,5.03-.04,10.06-.02,15.09-.02,1.4,0,1.8.4,1.8,1.79,0,1.55,0,3.11,0,4.66,0,1.09-.57,1.67-1.68,1.68-2.42.01-4.83,0-7.25,0-5.63,0-11.25,0-16.88,0-1.4,0-1.8-.4-1.8-1.79,0-13.13,0-26.26,0-39.39,0-1.61.5-2.09,2.23-2.1,5.69,0,11.39,0,17.08,0,1.95,0,3.91,0,5.86,0,1.61,0,2.25.65,2.25,2.26,0,1.39,0,2.78,0,4.17,0,1.37-.53,1.91-1.88,1.91-4.97,0-9.93.02-14.9-.02-.88,0-1.14.25-1.12,1.13.05,2.44.02,4.88.02,7.43Z"/>
  <path class="cls-1" d="M23.33,14.96c.29,2.66.59,5.31.88,7.97,1.11,10.16,2.22,20.31,3.33,30.47.29,2.63.56,5.26.85,7.89.07.61-.09.99-.61,1.42-.75.61-1.29,1.45-1.97,2.15-.31.32-.71.74-1.09.77-7.75.57-15.51,1.1-23.27,1.63-.39.03-.78,0-1.44,0C7.74,49.69,15.41,32.29,23.08,14.89c.08.02.17.05.25.07Z"/>
  <path class="cls-1" d="M.53,69.35c.99-.11,1.73-.22,2.47-.27,6.21-.42,12.41-.83,18.62-1.24.99-.07,1.98-.11,2.97-.2.68-.06,1.09.15,1.4.8.6,1.21,1.59,2.07,2.94,2.3.86.15,1.12.61,1.28,1.36,1.13,5.2,2.3,10.4,3.45,15.6,1.78,8.04,3.57,16.08,5.35,24.12.06.28.1.57-.04.99-12.76-14.43-25.52-28.85-38.44-43.46Z"/>
  <path class="cls-1" d="M29.12,10.64c2.32-.49,4.64-.99,6.97-1.46,12.9-2.64,25.8-5.27,38.7-7.9,2.01-.41,4.03-.78,6.03-1.22.82-.18,1.07.1,1.07.89-.01,6.05,0,12.1-.04,18.15,0,.38-.38.83-.69,1.13-.58.57-1.36.97-1.84,1.6-.43.57-.81.62-1.42.48-5.02-1.19-10.05-2.36-15.08-3.53-10.7-2.49-21.39-4.99-32.09-7.48-.54-.13-1.08-.26-1.62-.39,0-.09,0-.18,0-.27Z"/>
  <path class="cls-1" d="M47.39,114.48c1.98-1.05,3.96-2.09,5.93-3.14,8.83-4.66,17.67-9.32,26.5-13.99,2.72-1.44,5.43-2.89,8.13-4.36.61-.33,1.09-.44,1.67.12.74.71,1.67,1.07,2.72.96.76-.08,1.12.31,1.4.98,1.5,3.56,3.04,7.11,4.56,10.67.44,1.03.41,1.13-.74,1.3-10.2,1.57-20.39,3.14-30.59,4.71-6.37.98-12.75,1.95-19.12,2.93-.13.02-.26,0-.38,0-.03-.06-.06-.12-.08-.18Z"/>
  <path class="cls-1" d="M84.38,1.94c11.74,14.41,23.47,28.83,35.21,43.24-.04.06-.08.11-.12.17-1.06-.63-2.12-1.25-3.17-1.89-9.46-5.71-18.91-11.43-28.37-17.12-.55-.33-.81-.65-.67-1.34.38-1.91-.52-3.71-2.28-4.61-.63-.32-.95-.69-.95-1.44.02-5.39.01-10.78.02-16.17,0-.25.06-.5.08-.75.09-.03.18-.06.27-.09Z"/>
  <path class="cls-1" d="M100.18,105.06c-.65-1.45-1.18-2.61-1.68-3.77-1-2.31-1.97-4.62-2.98-6.92-.31-.7-.32-1.23.26-1.87,1.22-1.32,1.36-3.33.43-4.89-.28-.47-.39-.8.01-1.31,7.9-9.89,15.78-19.8,23.67-29.7.08-.09.19-.16.48-.13-6.69,16.1-13.38,32.2-20.19,48.59Z"/>
</svg>