<?xml version="1.0" encoding="UTF-8"?>
<svg id="Layer_1" xmlns="http://www.w3.org/2000/svg" viewBox="0 0 420.33 141.73">
  <defs>
    <style>
      .cls-1 {
        fill: #f2f2f2;
      }
    </style>
  </defs>
  <path class="cls-1" d="M98.8,42.08c-13.21-13.07-33.8-15.04-49.23-4.73-7.47,5.01-13.02,12.44-15.62,21.02-2.6,8.58-2.12,17.84,1.3,26.13,3.47,8.29,9.69,15.14,17.65,19.38,7.96,4.24,17.17,5.59,25.99,3.81,8.82-1.74,16.78-6.51,22.52-13.45,5.74-6.94,8.82-15.67,8.82-24.64,0-10.32-4.1-20.2-11.43-27.53h0ZM95.19,93.58c-6.41,6.36-15.09,9.93-24.11,9.93s-17.7-3.57-24.11-9.93c-4.77-4.73-8-10.8-9.35-17.41-1.3-6.61-.63-13.4,1.93-19.62,2.6-6.22,6.94-11.52,12.58-15.24,11.48-7.62,26.42-7.62,37.9,0,5.59,3.71,9.98,9.02,12.58,15.24,2.6,6.22,3.28,13.02,1.93,19.62-1.35,6.61-4.58,12.63-9.35,17.41Z"/>
  <path class="cls-1" d="M66.79,96.76c-4.19-.63-8.15-2.31-11.52-4.92-4.44-3.62-7.81-8.34-9.74-13.74-.68-1.83-1.25-3.71-1.69-5.64-.14-.72-.24-1.25-.34-1.64,0-.19-.05-.34-.05-.43v-.14l-3.04.34c.72,4.77,2.27,9.4,4.58,13.69,2.07,3.86,4.92,7.28,8.34,10.03,4.29,3.28,9.45,5.26,14.8,5.79l1.69.19v-59.55h-3.09l.05,56.03ZM100.06,71.16v-3.09h-24.49v-27.29h-3.09v59.5l1.69-.14c3.95-.53,7.81-1.88,11.28-3.86,3.47-1.93,6.51-4.48,9.06-7.52,3.28-3.95,5.64-8.58,6.99-13.55l-2.94-.82c-1.25,4.53-3.42,8.78-6.41,12.39-4.29,5.06-10.13,8.58-16.59,9.98v-25.56l24.49-.05h0Z"/>
  <path class="cls-1" d="M171.08,97.48h-3.95v-36.31h3.95v36.31h0ZM171.08,50.42c.53.53.87,1.21.87,1.98s-.29,1.49-.87,1.98c-.82.82-2.03,1.06-3.04.63-.34-.14-.63-.34-.92-.63-.53-.53-.87-1.25-.82-1.98,0-1.11.68-2.12,1.74-2.56.96-.43,2.17-.19,3.04.58M182.99,74.1c0,.96.05,1.98.19,2.94.1.77.34,1.54.68,2.22s.92,1.21,1.59,1.54c1.78.77,3.81.77,5.59,0,.68-.34,1.25-.87,1.59-1.54.34-.68.58-1.45.68-2.22.14-.96.19-1.93.19-2.94v-12.97h3.95v13.45c.14,2.75-.58,5.45-2.17,7.71-1.45,1.83-3.81,2.75-7.09,2.75s-5.64-.92-7.09-2.75c-1.54-2.27-2.31-4.97-2.17-7.71v-13.4h3.95v12.92h.1ZM208.21,63.68h.1c.58-.96,1.4-1.78,2.41-2.36.96-.58,2.07-.87,3.23-.82,2.7,0,5.21,1.49,6.46,3.86.63-1.25,1.64-2.27,2.89-2.84,1.25-.68,2.65-1.01,4.1-1.01,1.25-.05,2.46.24,3.57.82.96.48,1.74,1.25,2.31,2.17.58.96.96,1.98,1.21,3.09.24,1.21.34,2.46.34,3.71v14.13h-3.91v-13.45c0-.87-.05-1.69-.1-2.56-.1-.72-.24-1.4-.53-2.03-.24-.63-.72-1.21-1.3-1.54-.72-.43-1.49-.63-2.31-.58-.92-.05-1.88.19-2.65.68-.68.48-1.21,1.11-1.54,1.83-.34.77-.58,1.64-.68,2.46-.14.96-.19,1.93-.19,2.89v12.3h-3.91v-13.21c0-.82-.05-1.69-.1-2.51-.1-.77-.24-1.49-.53-2.22-.24-.68-.72-1.25-1.3-1.69-.63-.43-1.4-.68-2.22-.63-.96-.05-1.93.24-2.7.77-.72.48-1.25,1.16-1.59,1.93-.34.82-.58,1.69-.68,2.56-.14.96-.19,1.98-.19,2.94v12.01h-4.05v-23.24h3.95l-.1,2.56h0ZM250.4,64.84c-.92.43-1.74,1.06-2.36,1.83-1.4,1.64-2.12,3.71-2.07,5.83-.05,2.27.68,4.48,2.07,6.27,1.35,1.74,3.42,2.7,5.59,2.6,2.22.1,4.34-.82,5.74-2.56,1.4-1.78,2.12-4,2.07-6.27.1-2.22-.68-4.34-2.12-5.98-2.36-2.36-5.88-3.04-8.92-1.74.05,0,0,0,0,0ZM246.16,64.5h.05c.92-1.25,2.17-2.27,3.57-2.94s2.94-1.01,4.53-1.01c3.13-.05,6.08,1.35,8.1,3.71.96,1.16,1.74,2.51,2.27,3.95.53,1.49.82,3.09.82,4.63s-.24,3.18-.77,4.68c-.48,1.45-1.25,2.8-2.22,3.95-.96,1.16-2.22,2.03-3.57,2.65-1.45.63-3.04.96-4.68.92-1.54,0-3.09-.34-4.48-1.01s-2.6-1.64-3.52-2.89h-.14v16.3h-3.95v-36.31h3.95l.05,3.38s0,0,0,0Z"/>
  <path class="cls-1" d="M277.65,84.42h-3.95v-19.58h-2.41v-3.66h2.41v-8.39h3.95v8.39h4.15v3.66h-4.15v19.58h0ZM291.63,63.68h.1c.63-.92,1.45-1.69,2.31-2.36.87-.58,1.83-.82,2.84-.77,1.25.05,2.51.43,3.57,1.11l-1.88,3.57-.29-.19c-.34-.24-.68-.48-1.06-.63-.34-.14-.68-.19-1.06-.19-.92-.05-1.78.24-2.51.82-.63.58-1.11,1.35-1.4,2.17-.29.87-.48,1.74-.58,2.65-.1.96-.14,1.93-.1,2.94v11.62h-3.95v-23.24h3.95l.05,2.51h0ZM311.06,64.84c-.92.43-1.74,1.06-2.41,1.83-1.4,1.64-2.12,3.71-2.07,5.83-.05,2.27.68,4.48,2.03,6.27,1.35,1.69,3.42,2.65,5.59,2.6,2.22.1,4.34-.82,5.74-2.56,1.4-1.78,2.12-4,2.07-6.27.1-2.22-.68-4.34-2.12-5.98-2.27-2.36-5.79-3.04-8.82-1.74h0ZM325.82,84.42h-4v-3.28h-.1c-1.88,2.51-4.87,3.95-8.05,3.86-1.59,0-3.13-.29-4.58-.96-1.4-.63-2.6-1.54-3.57-2.7s-1.74-2.51-2.27-3.95c-.53-1.49-.77-3.04-.77-4.63s.24-3.23.77-4.77c.48-1.45,1.25-2.75,2.22-3.95.96-1.16,2.22-2.07,3.57-2.65,1.45-.68,3.04-1.01,4.68-.96,1.54,0,3.09.34,4.48,1.06,1.4.68,2.65,1.69,3.57,2.89h.1v-3.33h3.95v23.39h0ZM339.7,64.84c-.92.43-1.74,1.06-2.36,1.83-1.4,1.64-2.12,3.71-2.07,5.83-.05,2.27.68,4.48,2.07,6.27,1.35,1.69,3.38,2.65,5.55,2.6,2.22.1,4.34-.82,5.74-2.56,1.4-1.78,2.12-4,2.07-6.27.1-2.22-.68-4.34-2.12-5.98-2.36-2.36-5.88-3.04-8.87-1.74ZM350.45,81.19h-.1c-.92,1.21-2.12,2.22-3.52,2.84-1.4.68-2.94,1.01-4.53,1.01s-3.13-.29-4.58-.96c-1.4-.63-2.6-1.54-3.57-2.7-.96-1.16-1.74-2.51-2.27-3.95-.53-1.49-.82-3.04-.82-4.63s.24-3.23.77-4.77c.48-1.45,1.25-2.8,2.22-3.95.96-1.16,2.22-2.07,3.57-2.65,1.45-.68,3.04-1.01,4.68-.96,1.54,0,3.09.34,4.48,1.06,1.4.68,2.6,1.69,3.47,2.89h.1v-20.83h3.95v40.79h-3.95v-3.18c.1-.05.1,0,.1,0ZM365.21,84.42h-3.95v-23.24h3.95v23.24ZM365.21,50.42c.53.53.87,1.21.87,1.98s-.29,1.49-.87,1.98c-1.11,1.11-2.89,1.11-3.95,0h0c-.53-.53-.87-1.25-.82-1.98,0-1.11.68-2.12,1.74-2.56,1.01-.43,2.22-.19,3.04.58M376.97,63.97h.1c1.49-2.22,4-3.52,6.65-3.47,1.35-.05,2.7.24,3.91.82,1.01.48,1.83,1.21,2.46,2.17s1.01,2.03,1.21,3.18c.24,1.3.34,2.65.34,4v13.79h-3.95v-13.07c0-.96-.05-1.93-.14-2.84-.1-.77-.29-1.49-.63-2.17s-.82-1.21-1.49-1.54c-.82-.39-1.74-.58-2.65-.53-1.11-.05-2.17.24-3.13.82-.77.53-1.4,1.25-1.78,2.12s-.63,1.83-.72,2.8c-.14,1.16-.19,2.31-.19,3.47v11.04h-3.95v-23.29h3.95v2.84l.05-.14h0ZM405.57,64.84c-.92.43-1.74,1.06-2.36,1.83-1.4,1.64-2.12,3.71-2.07,5.83-.05,2.27.68,4.48,2.07,6.27,1.35,1.69,3.42,2.65,5.59,2.6,2.22.1,4.34-.82,5.74-2.56,1.4-1.78,2.12-4,2.07-6.27.05-2.22-.68-4.34-2.12-5.98-1.45-1.59-3.57-2.46-5.74-2.36-1.16,0-2.17.19-3.18.63h0ZM420.32,83.31c.05,1.93-.1,3.86-.39,5.79-.72,3.23-2.94,5.93-5.98,7.28-1.59.72-3.33,1.06-5.06,1.06-2.99.1-5.93-.92-8.15-2.94-2.17-1.98-3.38-4.82-3.33-7.76h3.95c-.05,1.93.72,3.76,2.12,5.11,1.45,1.3,3.38,1.98,5.3,1.93,1.3.05,2.56-.19,3.71-.77.96-.43,1.74-1.16,2.31-2.07.58-.96.96-1.98,1.16-3.09.24-1.25.34-2.56.34-3.86v-2.84h-.1c-.96,1.21-2.17,2.17-3.57,2.8-1.4.68-2.94,1.06-4.53,1.06-3.09.05-6.08-1.3-8.1-3.62-1.01-1.16-1.78-2.46-2.27-3.91-1.01-3.04-1.01-6.32,0-9.31.53-1.45,1.3-2.8,2.31-3.95,2.03-2.41,5.06-3.76,8.2-3.71,1.54,0,3.09.34,4.48,1.06,1.35.68,2.56,1.69,3.47,2.89h.1v-3.33h3.95v22.13l.05.05h0Z"/>
  <path class="cls-1" d="M137.67,71.01h-4.68c.05,14.27-4.92,28.06-13.98,39.1-9.06,11.04-21.7,18.61-35.68,21.41-14.03,2.8-28.59.68-41.23-6.03-12.63-6.7-22.52-17.55-28.01-30.71-5.5-13.16-6.22-27.82-2.07-41.47,4.15-13.65,12.92-25.46,24.78-33.37,24.54-16.35,57.14-13.16,78.06,7.62,5.74,5.69,10.32,12.44,13.45,19.91,3.13,7.47,4.73,15.48,4.68,23.53h9.31c.05-16.39-5.64-32.31-16.06-44.99-10.42-12.73-24.93-21.41-41.08-24.64-16.15-3.23-32.88-.77-47.45,6.94C23.2,16.04,11.82,28.53,5.46,43.67-.86,58.81-1.73,75.69,3.04,91.36c4.77,15.72,14.85,29.27,28.5,38.38,28.21,18.81,65.77,15.19,89.83-8.73,6.61-6.56,11.86-14.32,15.48-22.9,3.57-8.58,5.4-17.79,5.4-27.1h-4.58Z"/>
</svg>