<?xml version="1.0" encoding="UTF-8"?>
<svg id="Layer_1" xmlns="http://www.w3.org/2000/svg" viewBox="0 0 353.04 127.56">
  <defs>
    <style>
      .cls-1 {
        fill: #f2f2f2;
      }

      .cls-2 {
        fill: rgba(242, 242, 242, 0);
      }
    </style>
  </defs>
  <path class="cls-1" d="M25.16.43c2.49,2.43,5.12,4.38,7.88,5.86,4.51,2.63,9.5,4.38,14.96,5.26,4.31.67,9.1,1.01,14.49.81,7.28.07,13.95-1.15,20.15-3.57,4.99-1.95,9.37-4.78,13.21-8.49.54-.47.81-.4.88.34.13,2.7.61,5.32,1.42,8.02.07.2.13.4.13.67,1.68,9.84,5.8,18.26,12.26,25.4,2.22,2.49,4.78,4.92,7.55,7.28,1.21,1.08,2.22,2.29,3.03,3.5.67,1.15.54,2.22-.4,3.23-1.28,1.28-2.49,1.62-3.77,1.01-1.15-.61-1.68-1.48-1.75-2.76,0-.94-.27-1.68-.67-2.29-.13-.2-.34-.27-.54-.27-.88,0-1.89.47-2.97,1.35-3.3,2.76-5.12,6.33-5.53,10.65-.2,2.36.07,4.45.94,6.33,1.75,3.91,4.78,6.87,9.03,8.96.34.2.54.07.54-.27.13-1.42.2-2.7.34-3.98,0-.2.07-.47.13-.61.47-1.01,1.55-1.35,3.17-.88.88.27,1.55.81,1.89,1.62.27.61.2,1.48-.4,2.7-1.21,2.43-1.62,5.19-1.28,8.29.67,4.99.4,9.5-.81,13.48-.74,2.43-2.09,4.45-3.98,6.13-2.56,2.49-5.86,4.04-9.84,4.65-2.97.47-5.86.67-8.69.67-.54,0-.81.27-1.01.74-1.28,4.31-3.5,7.68-6.67,10.18-2.9,2.29-6.27,3.84-10.04,4.78-2.83.67-5.73,1.15-8.63,1.48-4.18.61-7.28,2.76-9.23,6.54-.2.4-.4.4-.61,0-.94-2.29-2.43-3.98-4.38-5.12-1.62-.94-3.5-1.48-5.66-1.55-2.36-.27-4.65-.67-6.87-1.21-5.66-1.21-10.24-3.77-13.68-7.68-.13-.13-.27-.34-.4-.54-1.48-2.22-2.56-4.58-3.37-7.01-.13-.4-.4-.61-.81-.61-3.1.13-6-.07-8.83-.54-3.5-.54-6.54-1.82-9.03-3.91-3.03-2.63-4.92-6.13-5.66-10.51-.47-2.7-.54-5.8-.27-9.3.34-3.1,0-6.13-1.01-9.16-.34-.94-.34-1.89.07-2.76.27-.67,1.15-1.08,2.63-1.21,1.35-.07,2.09.54,2.29,1.82.07.74.13,1.82.13,3.37,0,.88.34,1.08,1.08.61,2.43-1.48,4.58-3.37,6.4-5.66,1.75-2.22,2.83-4.58,3.23-7.01.27-1.48.13-3.1-.54-4.72-1.35-4.18-3.44-7.21-6.47-9.23-.74-.47-1.35-.67-1.95-.54-.47.07-.81.34-.81.81-.07,1.55-.54,2.76-1.28,3.77-1.08,1.35-2.29,1.48-3.71.4-1.48-1.08-1.82-2.49-1.01-4.11.67-1.35,1.68-2.56,3.03-3.71,3.1-2.56,5.73-5.12,7.95-7.55,4.18-4.72,7.21-9.77,9.1-15.16.47-1.35.88-2.7,1.15-4.04,1.42-4.99,2.29-9.77,2.63-14.35,0-.81.27-.94.88-.4ZM106.36,36.49c-5.32-6.33-8.83-13.54-10.65-21.7-.54-2.22-1.01-4.25-1.42-6-.2-.67-.54-.81-1.15-.47-6.54,4.04-12.74,6.54-18.53,7.48-.54.07-.81.4-.81.94-.07,2.9-.07,6.2,0,9.77.2,6.87.27,13.88.2,21.09,0,.4.2.61.67.61,10.04,0,19.88,0,29.58-.07.2,0,.4-.07.54-.27,1.28-2.09,3.17-3.91,5.73-5.53.54-.34.61-.74.2-1.21-1.55-1.42-2.97-2.97-4.38-4.65ZM46.18,15.6c-2.09-.2-3.91-.54-5.46-1.08-4.92-1.75-9.23-3.77-13.07-6.13-.54-.34-.88-.2-.94.47-.61,4.72-1.89,9.5-3.84,14.35-2.63,6.54-6.67,12.53-12.13,17.79-.54.54-.54,1.01.13,1.48,2.29,1.48,4.04,3.1,5.32,4.92.4.54.88.81,1.55.81h28.98c.4,0,.61-.2.61-.61v-30.73c0-.81-.4-1.21-1.15-1.28ZM15.99,68.43c-.4.13-.67.61-.81,1.35-.07.4.07.61.47.61,11.93,0,23.59,0,35.04.07.4,0,.67.2.67.67v43.87c0,.34.13.54.47.61,1.75.27,3.57.67,5.53,1.21,1.01.27,2.02,1.01,2.97,2.16.27.27.47.2.67-.07.74-1.08,1.95-1.82,3.64-2.16,1.48-.34,3.3-.74,5.46-1.28.13-.07.27-.13.27-.34.2-14.42.27-29.18.13-44.21,0-.34.2-.54.54-.54,10.92-.07,22.31-.07,34.23-.07.67,0,.88-.34.61-.94-.47-.81-1.01-1.82-1.82-2.97-2.36-3.64-3.03-7.48-2.16-11.59.07-.2.13-.4.2-.61.47-1.01.67-1.89.61-2.63,0-.2-.13-.34-.4-.34-2.36-.2-4.85-.27-7.48-.27-8.15,0-16.04,0-23.65-.07-.74,0-1.08-.34-1.08-1.08V17.75c0-.61-.27-.88-.88-.88-5.93.34-11.73.4-17.32.2-.67,0-1.01.27-1.01.94v32.62c0,.34-.13.47-.47.47-10.98-.27-21.56-.27-31.74,0-.4,0-.54.2-.4.61.74,1.75,1.21,3.64,1.48,5.66.47,3.91-.61,7.48-3.37,10.65-.07.2-.2.34-.4.4ZM46.79,73.68c-.74-.2-1.48-.27-2.36-.27H11.95c-.67,0-1.21.27-1.68.74-2.97,3.1-4.65,6.54-5.05,10.38-.4,3.3.4,6.27,2.49,8.83,3.77,4.65,8.83,6.87,15.23,6.54,1.01.07,1.89,0,2.63-.2,1.21-.34,2.16-.54,2.76-.61.74,0,1.15.34,1.28,1.08.67,3.23,1.89,5.86,3.57,7.95,2.02,2.56,4.65,4.45,7.82,5.8,1.68.74,3.5,1.15,5.59,1.15.47,0,.67-.2.67-.67,0-13.34,0-26.69-.07-40.03.07-.4-.07-.61-.4-.67ZM110.54,73.55c-11.46-.13-23.25-.2-35.38-.13-.81,0-1.21.4-1.21,1.21-.07,13.14-.07,26.42-.07,39.76,0,.47.2.67.74.67,4.72-.34,8.69-2.02,11.99-5.05,2.56-2.36,4.18-5.05,4.85-8.15.13-.61.4-1.42.81-2.29.2-.67.67-.88,1.35-.74,1.08.4,2.22.67,3.37.81,5.39.81,10.24-.54,14.56-4.18,2.83-2.29,4.38-5.12,4.85-8.63.34-2.49,0-4.58-.94-6.33-.13-.2-.2-.4-.27-.61-.88-2.56-2.22-4.65-4.04-6.2-.2-.07-.4-.13-.61-.13Z"/>
  <path class="cls-2" d="M94.3,8.72c.4,1.82.88,3.77,1.42,6,1.75,8.15,5.32,15.43,10.65,21.7,1.42,1.68,2.9,3.23,4.31,4.58.4.47.34.88-.2,1.21-2.56,1.62-4.45,3.44-5.73,5.53-.13.2-.27.27-.54.27-9.7.07-19.54.07-29.58.07-.4,0-.67-.2-.67-.61.07-7.21-.07-14.22-.2-21.09-.07-3.57-.07-6.81,0-9.77,0-.54.27-.88.81-.94,5.8-.88,11.99-3.37,18.53-7.48.61-.27,1.01-.13,1.21.54Z"/>
  <path class="cls-2" d="M27.65,8.32c3.77,2.36,8.15,4.45,13.07,6.13,1.55.54,3.37.94,5.46,1.08.74.07,1.15.47,1.15,1.21v30.73c0,.4-.2.61-.61.61h-28.98c-.67,0-1.15-.27-1.55-.81-1.28-1.75-3.03-3.44-5.32-4.92-.67-.4-.67-.94-.13-1.48,5.46-5.32,9.5-11.25,12.13-17.79,1.95-4.92,3.23-9.7,3.84-14.35.07-.61.4-.74.94-.4ZM35.4,38.44c1.15.13,2.43.61,3.91,1.55.47.27.81.27,1.01-.13.07-.2.13-.4.07-.61-.47-1.62-.47-3.5.13-5.53.13-.54-.07-.74-.61-.61-1.01.27-2.22,1.01-3.57,2.09-.67.54-1.28.47-1.95-.07-.2-.2-.27-.74-.27-1.62v-13.81c0-1.62-.4-2.83-1.28-3.64-.4-.34-.74-.27-1.01.2-.61,1.01-.88,2.09-.88,3.17-.07,4.51-.07,8.96,0,13.48,0,.81-.13,1.62-.34,2.36-.2.47-.47.61-.94.4-1.35-.67-2.76-1.48-4.31-2.36-.54-.34-.74-.13-.74.47.13,1.82.13,3.84.07,6.06,0,.54.2.67.67.4,1.42-.81,2.7-1.42,3.77-1.68.61-.13.88.07.94.67.13,1.75.74,2.83,1.89,3.17,1.42.34,2.29,0,2.7-1.01.07-.2.13-.4.07-.67-.07-.74,0-1.35.27-1.82,0-.4.2-.47.4-.47Z"/>
  <path class="cls-1" d="M32.71,16c.88.81,1.35,2.02,1.28,3.64v13.81c0,.88.07,1.35.27,1.62.61.54,1.28.54,1.95.07,1.42-1.08,2.56-1.75,3.57-2.09.54-.13.74.07.61.61-.54,2.09-.61,3.91-.13,5.53.07.2.07.4-.07.61-.2.4-.54.47-1.01.13-1.42-.94-2.76-1.48-3.91-1.55-.2,0-.4.07-.47.27-.27.54-.34,1.15-.27,1.82,0,.2,0,.47-.07.67-.4,1.01-1.28,1.35-2.7,1.01-1.15-.34-1.82-1.35-1.89-3.17-.07-.61-.34-.81-.94-.67-1.08.27-2.36.88-3.77,1.68-.47.27-.67.13-.67-.4.07-2.22,0-4.25-.07-6.06-.07-.61.2-.74.74-.47,1.55.88,2.97,1.68,4.31,2.36.47.27.81.13.94-.4.2-.74.34-1.55.34-2.36-.07-4.51-.07-8.96,0-13.48,0-1.08.27-2.16.88-3.17.34-.27.67-.34,1.08,0Z"/>
  <path class="cls-2" d="M69.36,16.94c.61,0,.88.27.88.88v32.08c0,.74.34,1.08,1.08,1.08,7.68,0,15.57.07,23.65.07,2.63,0,5.12.07,7.48.27.2,0,.34.13.4.34.07.74-.13,1.62-.61,2.63-.07.2-.2.4-.2.61-.94,4.11-.2,7.95,2.16,11.59.74,1.15,1.35,2.16,1.82,2.97.27.61.07.94-.61.94-11.86,0-23.25,0-34.23.07-.34,0-.54.2-.54.54.07,15.03,0,29.78-.13,44.21,0,.2-.07.27-.27.34-2.16.54-4.04.94-5.46,1.28-1.68.34-2.83,1.08-3.64,2.16-.2.27-.4.27-.67.07-1.01-1.21-1.95-1.89-2.97-2.16-1.95-.47-3.84-.88-5.53-1.21-.34-.07-.47-.27-.47-.61v-43.87c0-.4-.2-.67-.67-.67-11.59-.13-23.25-.13-35.18-.13-.4,0-.61-.2-.47-.61.13-.74.4-1.15.81-1.35.2-.07.4-.2.54-.4,2.76-3.17,3.84-6.74,3.37-10.65-.27-2.02-.74-3.91-1.48-5.66-.13-.4,0-.54.4-.61,10.24-.27,20.82-.27,31.74,0,.34,0,.47-.13.47-.47V18.02c0-.67.34-1.01,1.01-.94,5.59.27,11.39.2,17.32-.13Z"/>
  <path class="cls-1" d="M162.49,30.56c.13.81.13,2.09.07,3.71,0,.2-.13.27-.34.2-4.11-2.16-7.68-2.49-10.71-.94-2.49,1.28-3.5,3.37-3.1,6.33.2,1.55,1.01,2.76,2.43,3.64,1.35,1.01,2.9,1.48,4.65,1.42,2.36-.07,4.65-.88,6.81-2.29.34-.2.47-.13.47.27v3.71c0,.34-.13.54-.4.67-2.02,1.01-4.18,1.55-6.33,1.68-3.3.27-6.2-.4-8.69-2.09-2.02-1.35-3.37-3.23-3.91-5.53-.81-3.17-.27-6,1.62-8.42,2.09-2.56,4.85-3.98,8.29-4.31,3.57-.34,6.54.13,8.83,1.48.2.07.27.27.34.47Z"/>
  <circle class="cls-1" cx="168.42" cy="30.69" r="2.29"/>
  <path class="cls-1" d="M286.89,29.68c.67.27,1.01.74,1.01,1.48v2.83c0,.34-.13.47-.47.27-2.7-1.42-5.66-1.95-8.9-1.62-2.83.34-4.58,1.75-5.26,4.31-.94,3.23,0,5.59,2.9,7.01,2.36,1.15,4.65,1.21,6.87.13.2-.07.27-.27.27-.47-.07-.54-.07-1.01-.2-1.55-.07-.2-.13-.34-.4-.4-.54-.13-1.08-.13-1.68,0-.47.13-.74-.07-.74-.54v-2.83c0-.2.13-.34.34-.34,2.43-.13,4.85-.07,7.28.07.2,0,.34.13.34.34.2,2.7.2,5.19-.07,7.48,0,.2-.13.4-.27.54-2.02,1.62-4.72,2.43-8.15,2.49-4.31.13-7.61-1.28-10.04-4.25-1.62-1.95-2.22-4.31-1.89-7.01.2-2.22,1.01-4.04,2.49-5.59,1.75-1.89,4.11-3.03,7.14-3.5,3.23-.4,6.33-.07,9.43,1.15Z"/>
  <circle class="cls-1" cx="311.76" cy="30.69" r="2.29"/>
  <path class="cls-1" d="M252.99,28.6h2.43c.88,0,1.35.47,1.35,1.35v18.33c0,.27-.13.47-.47.47-1.21.2-2.43.2-3.71,0-.2-.07-.27-.2-.27-.61,0-.2-.07-.27-.27-.13-1.35.94-2.83,1.21-4.51.94-2.36-.4-3.91-1.75-4.72-4.04-1.01-2.76-.67-5.32,1.01-7.68.88-1.21,2.02-1.95,3.5-2.16,1.82-.34,3.44-.13,4.78.61.2.07.27,0,.27-.2-.07-1.95-.07-4.04-.07-6.27.07-.4.27-.61.67-.61ZM247.4,39.18c-.88,1.08-1.01,2.63-.47,4.58.47,1.68,1.75,2.43,3.84,2.16,1.01-.13,1.48-.67,1.55-1.68.07-2.56.07-4.31-.07-5.39,0-.2-.13-.4-.34-.54-1.82-1.01-3.3-.74-4.51.88Z"/>
  <path class="cls-1" d="M317.82,28.6h3.84c.13,0,.27.13.27.27v19.68c0,.13-.13.27-.27.27h-3.84c-.13,0-.27-.13-.27-.27v-19.68c0-.13.13-.27.27-.27Z"/>
  <path class="cls-1" d="M339.32,29.07c.2,6.4.2,12.87,0,19.27,0,.2-.13.34-.34.4-.61.13-1.75.13-3.37.07-.2,0-.34-.13-.4-.34s-.13-.27-.13-.34c-.2-.13-.4-.07-.54.07-1.01.74-2.29,1.01-3.91.81-1.62-.34-2.83-1.08-3.77-2.16-.74-.94-1.28-2.16-1.62-3.77-.54-2.97.27-5.26,2.43-6.87,2.22-1.68,4.58-1.89,7.14-.61.34.13.47.07.47-.27-.13-2.29-.13-4.38.07-6.2,0-.2.13-.34.34-.4,1.15-.2,2.29-.2,3.44,0,.07,0,.2.13.2.34ZM330.29,38.98c-.88,1.08-1.08,2.63-.61,4.58.4,1.62,1.62,2.43,3.64,2.36,1.21-.07,1.82-.67,1.75-1.89,0-1.48-.07-3.03-.07-4.78,0-.81-.4-1.21-1.21-1.35-1.55-.2-2.76.2-3.5,1.08Z"/>
  <path class="cls-1" d="M177.79,31.36c.74-.74,1.01-.61.94.47-.13,1.35-.07,2.36.07,2.97.07.2.2.34.4.34,1.42,0,2.76.07,4.04.13.2,0,.34.13.34.34.07.54.07,1.21.07,1.95,0,.27-.13.4-.4.4-1.75,0-3.1.07-4.11.13-.2,0-.34.13-.34.34-.13,1.55-.13,3.44.07,5.73.07.94.54,1.48,1.55,1.55,1.01.07,1.89-.07,2.63-.4.47-.2.67-.07.74.47v1.89c0,.2-.13.4-.34.54-.81.4-1.89.67-3.23.74-1.68.13-3.1-.27-4.18-1.21s-1.62-2.22-1.55-3.84c.07-2.02.07-3.71,0-5.19,0-.2-.07-.4-.27-.61-.2-.27-.47-.34-.81-.2-1.28.47-1.48.13-.61-.88,1.89-2.22,3.5-4.11,4.99-5.66Z"/>
  <path class="cls-1" d="M219.3,35.74c1.15.47,1.82,1.35,1.95,2.63.13,1.55.2,3.84.13,6.87,0,.74.34.94,1.01.67.47-.2.81-.27.94-.2.2.07.34.13.34.4,0,.47,0,.94-.07,1.48,0,.2-.13.4-.34.47-1.42.88-2.97,1.21-4.65.88-.61-.13-1.01-.47-1.28-1.01-.13-.2-.27-.2-.47-.13-1.01.61-2.16,1.01-3.37,1.15-1.68.2-3.03-.34-3.98-1.55-.61-.74-.81-1.62-.54-2.56.4-1.35,1.35-2.36,2.76-2.97,1.35-.54,2.76-1.08,4.38-1.48,1.21-.34,1.28-1.01.27-2.02-.13-.13-.34-.27-.54-.34-1.48-.54-3.23-.07-5.19,1.21-.54.4-.88.2-1.01-.54-.27-1.28-.07-2.16.54-2.49,3.03-1.68,6.06-1.82,9.1-.47ZM213.51,44.3c-.54.81-.34,1.48.54,2.02.54.27,1.15.2,1.95-.2.61-.34.94-.88,1.01-1.55.07-.94.07-1.55,0-1.89-.07-.2-.2-.34-.4-.27-1.42.2-2.43.88-3.1,1.89Z"/>
  <path class="cls-1" d="M237.16,35.74c1.55,1.15,2.22,2.97,2.09,5.32-.2,2.56-.13,4.92.07,7.21,0,.2-.07.34-.27.4-.61.2-1.68.2-3.23.13-.54-.07-.74-.34-.74-.81v-7.75c0-1.75-.88-2.49-2.63-2.22-1.08.2-1.82.67-2.29,1.62-.13.2-.13.4-.2.61-.2,2.49-.27,5.12,0,7.95,0,.4-.13.61-.61.61-1.42,0-2.56,0-3.37-.07-.2,0-.34-.13-.34-.34-.07-4.11-.07-8.29-.07-12.6,0-.47.2-.67.67-.67,1.35-.2,2.56-.2,3.5.07.13.07.2.47.07,1.28,0,.2.07.27.34.2.2-.27.74-.67,1.55-1.15,1.82-1.15,3.64-1.08,5.46.2Z"/>
  <path class="cls-1" d="M346.66,35c1.82-.2,3.37,0,4.85.54.4.13.61.4.67.88.13,1.35.13,2.09.07,2.16-.13.2-.27.2-.47.13-1.01-.54-2.22-.88-3.57-1.01-2.22-.2-2.56.47-1.08,2.09,0,0,.61.13,1.75.54,1.95.54,3.23,1.55,3.84,3.1.54,1.42.4,2.7-.54,3.71-.74.94-1.68,1.48-2.83,1.68-1.95.34-3.98.2-6-.4-.81-.2-1.08-1.15-.81-2.76.07-.4.34-.54.67-.34,1.75.94,3.3,1.28,4.72.88.2-.07.4-.13.61-.34.67-.54.54-1.08-.4-1.55-1.28-.54-2.56-1.08-3.77-1.75-1.42-.74-2.09-1.89-2.09-3.3,0-.74.2-1.35.54-1.95.88-1.35,2.16-2.09,3.84-2.29Z"/>
  <path class="cls-1" d="M166.47,35.21h3.64c.13,0,.2.07.2.2v13.21c0,.13-.07.2-.2.2h-3.64c-.13,0-.2-.07-.2-.2v-13.21c0-.13.07-.2.2-.2Z"/>
  <path class="cls-1" d="M189.38,35.61c.88,1.89,1.75,3.84,2.56,5.8.07.2.2.2.27,0,1.01-1.89,1.95-3.84,2.9-5.86.07-.2.27-.34.47-.34.88-.07,2.09-.07,3.64,0,.27,0,.34.13.27.4-2.97,6.6-5.86,13.07-8.76,19.41-.07.2-.27.34-.47.34-.67.13-1.82.13-3.5.07-.47,0-.67-.27-.4-.67,1.21-2.7,2.43-5.26,3.64-7.75.07-.2.07-.4,0-.61-1.68-3.57-3.37-7.08-4.92-10.65-.07-.2,0-.34.2-.34,1.15-.2,2.43-.2,3.77,0,.07-.13.2,0,.34.2Z"/>
  <path class="cls-1" d="M292.95,35.21h2.83c.47,0,.67.2.67.67-.27,3.3-.2,6.13.2,8.56.27,1.55,1.15,2.02,2.63,1.55,1.55-.61,2.29-1.68,2.16-3.37-.13-2.16-.13-4.51,0-6.87,0-.34.13-.54.54-.54h3.23c.4,0,.67.2.67.61v12.33c0,.47-.2.67-.67.67-.74-.13-1.48-.13-2.16,0-1.28.2-1.82-.27-1.62-1.28.07-.2,0-.27-.2-.13-1.68,1.55-3.57,2.02-5.59,1.42-2.09-.61-3.17-1.89-3.3-3.77-.2-2.83-.27-5.93-.07-9.23,0-.4.2-.61.67-.61Z"/>
  <path class="cls-1" d="M309.8,35.21h3.64c.13,0,.2.07.2.2v13.21c0,.13-.07.2-.2.2h-3.64c-.13,0-.2-.07-.2-.2v-13.21c0-.13.13-.2.2-.2Z"/>
  <path class="cls-2" d="M252.25,38.84c.13,1.01.13,2.83.07,5.39,0,1.01-.54,1.55-1.55,1.68-2.09.27-3.37-.4-3.84-2.16-.54-1.95-.4-3.5.47-4.58,1.15-1.62,2.7-1.89,4.51-.81.2.07.34.27.34.47Z"/>
  <path class="cls-2" d="M333.86,37.9c.74.13,1.15.54,1.21,1.35,0,1.75.07,3.37.07,4.78,0,1.21-.61,1.82-1.75,1.89-2.02.07-3.23-.67-3.64-2.36-.47-1.95-.2-3.5.61-4.58.67-.88,1.89-1.28,3.5-1.08Z"/>
  <path class="cls-2" d="M216.94,42.69c.07.34.07.94,0,1.89-.07.67-.4,1.21-1.01,1.55-.81.4-1.42.47-1.95.2-.88-.47-1.01-1.15-.54-2.02.67-1.08,1.68-1.68,3.03-1.89.27,0,.4.07.47.27Z"/>
  <path class="cls-1" d="M162.49,70.99c.13.81.13,2.09.07,3.71,0,.27-.13.34-.34.2-2.09-1.08-4.11-1.68-6.06-1.82-2.49-.2-4.51.47-6.13,1.95-.94.88-1.55,1.95-1.62,3.23-.4,3.1.81,5.19,3.57,6.33,3.3,1.35,6.74.81,10.24-1.55.34-.2.47-.13.47.27v3.57c0,.4-.13.67-.54.81-2.43,1.15-5.05,1.68-7.75,1.68s-5.19-.67-7.21-2.09c-2.36-1.62-3.71-3.91-4.11-6.67-.4-2.83.2-5.26,1.82-7.28,2.09-2.56,4.85-4.04,8.29-4.31,3.57-.34,6.54.13,8.83,1.48.34.07.4.27.47.47Z"/>
  <circle class="cls-1" cx="301.65" cy="71.12" r="2.29"/>
  <path class="cls-1" d="M184.06,69.03h3.77c.13,0,.27.13.27.27v19.61c0,.13-.13.27-.27.27h-3.77c-.13,0-.27-.13-.27-.27v-19.61c0-.13.13-.27.27-.27Z"/>
  <path class="cls-1" d="M192.14,69.03h3.84c.13,0,.27.13.27.27v19.68c0,.13-.13.27-.27.27h-3.84c-.13,0-.27-.13-.27-.27v-19.68c0-.13.13-.27.27-.27Z"/>
  <path class="cls-1" d="M262.43,69.1c.34,0,.54.2.54.54.13,3.1.13,6.2,0,9.37-.07,1.75.2,3.3.88,4.51.81,1.21,1.95,1.82,3.5,1.89,1.62.13,2.97-.27,4.11-1.28.94-.88,1.42-2.02,1.48-3.44.13-3.1.13-6.81.13-11.05,0-.4.2-.54.54-.54h3.91c.4,0,.61.2.61.61.27,4.92.2,9.1-.13,12.53-.13,1.55-.67,2.7-1.48,3.57-.27.34-.47.74-.74,1.08-2.43,1.82-5.39,2.7-8.9,2.56-3.3-.13-5.8-1.35-7.55-3.57-1.01-1.35-1.48-2.97-1.42-4.65-.13-4.04-.2-7.95,0-11.59,0-.2.13-.34.34-.4.94-.27,2.36-.27,4.18-.13Z"/>
  <path class="cls-2" d="M11.95,73.41h32.48c.81,0,1.62.07,2.36.27.34.07.47.27.47.61.07,13.34.07,26.69.07,40.03,0,.47-.2.67-.67.67-2.09,0-3.91-.4-5.59-1.15-3.23-1.35-5.86-3.3-7.82-5.8-1.68-2.09-2.83-4.78-3.57-7.95-.13-.67-.61-1.01-1.28-1.08-.61.07-1.55.27-2.76.61-.74.2-1.62.27-2.63.2-6.33.34-11.46-1.89-15.23-6.54-2.09-2.56-2.9-5.46-2.49-8.83.4-3.84,2.02-7.28,5.05-10.38.4-.4.94-.67,1.62-.67Z"/>
  <path class="cls-2" d="M75.16,73.41c12.06-.07,23.85,0,35.38.13.2,0,.4.07.61.2,1.82,1.55,3.17,3.64,4.04,6.2.07.2.13.4.27.61.94,1.75,1.28,3.84.94,6.33-.4,3.5-2.02,6.33-4.85,8.63-4.31,3.57-9.16,4.99-14.56,4.18-1.15-.2-2.29-.47-3.37-.81-.67-.13-1.15.07-1.35.74-.4.94-.67,1.68-.81,2.29-.67,3.1-2.29,5.8-4.85,8.15-3.3,3.03-7.28,4.72-11.99,5.05-.47.07-.74-.2-.74-.67,0-13.41,0-26.62.07-39.76.07-.88.47-1.28,1.21-1.28Z"/>
  <path class="cls-1" d="M180.96,82.17c.13,3.91-3.23,7.21-7.48,7.35-4.25.13-7.82-2.9-7.95-6.87h0c-.13-3.91,3.23-7.21,7.48-7.35,4.25-.13,7.82,2.97,7.95,6.87h0ZM173.14,86.89c1.75,0,3.17-1.95,3.17-4.45s-1.35-4.51-3.1-4.51h0c-1.75,0-3.17,1.95-3.17,4.45s1.35,4.51,3.1,4.51h0Z"/>
  <path class="cls-1" d="M207.58,75.44c2.36.34,3.98,1.55,4.92,3.64.74,1.62.94,2.83.74,3.57-.07.2-.2.34-.4.34-2.9.13-5.86.2-8.9.2-.2,0-.34.13-.34.34-.07.81.27,1.48,1.01,2.09,1.82,1.55,4.04,1.75,6.54.47.2-.07.4-.2.54-.4.54-.54.94-.74,1.28-.54.47.34.54,1.01.2,2.02-.07.2-.2.4-.4.54-1.68,1.21-3.84,1.75-6.54,1.62-2.7-.13-4.65-1.15-6-3.1-.94-1.42-1.28-2.97-1.08-4.65.34-2.56,1.55-4.38,3.77-5.53,1.35-.61,2.9-.88,4.65-.61ZM204,79.55c-.67.88-.4,1.28.67,1.28,1.28,0,2.7,0,4.38-.07.2,0,.34-.13.34-.34-.07-1.35-.88-2.16-2.36-2.43-1.21-.2-2.16.27-3.03,1.55Z"/>
  <path class="cls-1" d="M240.66,75.5c1.48.27,2.7.94,3.64,2.09,1.35,1.55,1.95,3.3,1.75,5.12,0,.2-.13.34-.4.34-2.97.13-5.59.2-7.88.13-1.55,0-1.82.61-.81,1.75,1.15,1.21,2.56,1.82,4.31,1.75,1.42-.07,2.76-.54,3.98-1.35.34-.27.61-.2.67.27.27,1.28.07,2.09-.47,2.43-2.56,1.48-5.53,1.89-8.69,1.08-1.35-.34-2.49-1.08-3.3-2.22-2.02-2.63-2.16-5.46-.34-8.36,1.55-2.7,4.11-3.71,7.55-3.03ZM236.82,79.55c-.67.88-.4,1.35.67,1.28,1.21,0,2.7-.07,4.38-.07.2,0,.34-.13.34-.34,0-1.15-.67-1.89-1.95-2.29-1.35-.4-2.49.07-3.44,1.42Z"/>
  <path class="cls-1" d="M291.81,75.44c1.42.2,2.49.94,3.23,2.16.67,1.15.94,2.43.74,3.91-.07.2-.07.47,0,.67.2,1.95.2,4.18,0,6.6,0,.27-.2.47-.47.47-1.01,0-2.02,0-3.1-.07-.47,0-.67-.27-.67-.74.13-3.5.07-6.27-.2-8.22-.27-1.82-1.28-2.43-2.97-1.68-1.42.61-2.09,1.75-2.02,3.37.07,2.36.07,4.58.07,6.67,0,.4-.2.54-.54.54h-3.1c-.4,0-.61-.2-.61-.61v-12.53c0-.34.13-.47.47-.47,1.48-.2,2.7-.2,3.71.07.13.07.2.47.07,1.28,0,.47.13.54.47.2,1.15-1.35,2.83-1.89,4.92-1.62Z"/>
  <path class="cls-1" d="M322.07,82.17c.13,3.91-3.23,7.21-7.48,7.35-4.25.13-7.82-2.97-7.95-6.87h0c-.13-3.91,3.23-7.21,7.48-7.35,4.31-.07,7.88,2.97,7.95,6.87h0ZM314.32,86.89c1.75,0,3.17-1.95,3.23-4.45h0c.07-2.49-1.35-4.51-3.1-4.58-1.75,0-3.17,1.95-3.23,4.45h0c0,2.49,1.35,4.58,3.1,4.58Z"/>
  <path class="cls-1" d="M334.19,75.44c1.08.07,2.02.47,2.9,1.15,1.01.81,1.55,1.95,1.55,3.37.07,2.7.07,5.66,0,8.83,0,.27-.13.4-.4.4-.88.07-2.02.07-3.5,0-.2,0-.34-.13-.34-.34.13-2.97.13-5.8-.07-8.36-.13-1.68-1.01-2.36-2.63-2.09-1.35.27-2.16.94-2.43,2.02-.07.2-.13.4-.13.67v7.55c0,.2-.13.34-.34.4-.74.13-1.82.2-3.1.07-.54-.07-.74-.34-.74-.81v-12.26c0-.34.13-.54.54-.54h3.3c.2,0,.34.13.34.34,0,.34,0,.54.07.74.07.67.27.74.67.27,1.01-1.01,2.49-1.48,4.31-1.42Z"/>
  <path class="cls-1" d="M222.2,75.64c3.03-.07,5.66,0,7.88.07.2,0,.34.13.34.34.07.67.07,1.28,0,1.82-.07.61-.34.81-.94.67-.67-.27-.88,0-.61.81.81,2.16.27,3.84-1.75,4.99-1.21.74-2.56,1.08-3.98,1.08-.88,0-1.35.2-1.42.54-.2.81.13,1.21,1.01,1.28,1.89,0,3.57.27,4.92.94,1.48.67,2.22,1.68,2.22,3.17.13,1.68-.47,2.9-1.89,3.64-2.49,1.35-5.59,1.55-9.3.61-1.42-.4-2.43-1.21-2.97-2.56-.47-1.21-.13-2.22,1.08-3.17.61-.47,1.21-.81,1.89-1.01.27-.13.27-.27,0-.4-1.48-1.01-1.62-1.95-.34-2.9.61-.4.94-.54,1.08-.4.07-.2,0-.4-.2-.47-1.15-.34-2.02-1.08-2.63-2.29-.88-1.75-.54-3.37.94-4.85,1.21-1.35,2.76-1.95,4.65-1.89ZM225.23,80.62c0-1.35-1.08-2.43-2.43-2.43s-2.43,1.08-2.43,2.43h0c0,1.35,1.08,2.43,2.43,2.43h0c1.35,0,2.43-1.15,2.43-2.43ZM226.17,91.88c0-.88-1.48-1.62-3.3-1.62h0c-1.82,0-3.3.74-3.3,1.68,0,.88,1.48,1.62,3.3,1.62,1.82-.07,3.3-.81,3.3-1.68Z"/>
  <path class="cls-1" d="M300.03,75.64h3.17c.2,0,.34.13.34.34,0,4.25.07,8.63.07,12.94,0,.2-.07.27-.27.27h-3.23c-.4,0-.61-.2-.61-.61v-12.53c0-.27.2-.4.54-.4Z"/>
  <ellipse class="cls-2" cx="173.18" cy="82.4" rx="4.51" ry="3.17" transform="translate(88.97 254.7) rotate(-89.4)"/>
  <path class="cls-2" d="M206.97,78c1.48.27,2.22,1.08,2.36,2.43,0,.2-.07.34-.34.34-1.68.07-3.17.07-4.38.07-1.08,0-1.28-.47-.67-1.28.94-1.28,1.89-1.75,3.03-1.55Z"/>
  <path class="cls-2" d="M240.19,78.13c1.28.4,1.95,1.15,1.95,2.29,0,.2-.13.34-.34.34-1.68,0-3.17.07-4.38.07-1.08,0-1.35-.4-.67-1.28,1.01-1.35,2.16-1.82,3.44-1.42Z"/>
  <ellipse class="cls-2" cx="314.37" cy="82.37" rx="4.52" ry="3.17" transform="translate(227.06 395.41) rotate(-89.1)"/>
  <circle class="cls-2" cx="222.8" cy="80.62" r="2.43"/>
  <ellipse class="cls-2" cx="222.87" cy="91.87" rx="3.3" ry="1.62" transform="translate(-1.11 2.73) rotate(-.7)"/>
</svg>