<?xml version="1.0" encoding="UTF-8"?>
<svg id="Layer_1" xmlns="http://www.w3.org/2000/svg" viewBox="0 0 363.16 78.44">
  <defs>
    <style>
      .cls-1 {
        fill: #f2f2f2;
      }
    </style>
  </defs>
  <path class="cls-1" d="M257.85,28.28c.64-1.58,1.53-2.87,2.27-4.24,2.28-4.21,4.46-8.46,6.36-12.84.54-1.24.8-1.39,2.21-1.17,1.12.18,2.17,0,3.27-.21,1.8-.36,3.63-.56,5.44-.81.66-.09,1.18.2,1.29.87.3,1.8,1.58,2.09,3.1,2.25,4.65.5,9.24,1.44,13.8,2.41.36.07.71.18,1.08.25,1.25.24,1.48.06,1.59-1.21.13-1.57.22-3.14.37-4.71.15-1.6.43-1.81,1.98-1.52,2.33.43,4.66.79,7.01.98.86.06,1.43.31,1.4,1.28-.03.82.48,1.23,1.14,1.52,4.9,2.19,8.06,6.07,10.49,10.69.93,1.77,1.81,3.55,2.41,5.47.08.28.07.65.57.76.42-1.39.59-2.84.78-4.27.51-3.96,1.25-7.88,2.05-11.79.27-1.32.42-1.42,1.7-1.05,2.07.61,4.12,1.25,6.16,1.93,1.07.35,1.13.49.96,1.61-.93,6.61-1.91,13.19-2.8,19.81-.66,4.95-1.28,9.89-1.77,14.86-.36,3.64-.51,7.31-.55,11.03.43-1.37.9-2.72,1.31-4.1,3.1-10.49,6.88-20.72,11.5-30.66,2.66-5.72,5.41-11.39,8.24-17.02.96-1.9,1.04-1.89,2.62-.45,1.08,1,2.2,1.96,3.35,2.87.59.47.84.94.8,1.73-.24,4.41-.14,8.82-.04,13.23.09,3.99.39,7.96.6,11.95.08,1.57.3,1.77,1.89,1.82,1.71.06,1.76.06,2.02,1.72.27,1.76.45,3.54.68,5.31.09.72-.2,1.11-.92,1.15-.42.03-.84.02-1.26.05-1.35.07-1.55.24-1.49,1.62.07,1.78.21,3.56.42,5.33.66,5.58,1.39,11.15,2.4,16.68.06.31.08.63.14.93.11.63-.17,1.01-.74,1.21-2.37.86-4.73,1.73-7.11,2.57-.98.34-1.28.12-1.45-1-.54-3.58-1.1-7.16-1.54-10.76-.59-4.79-1.08-9.6-1.62-14.39-.12-1.07-.31-1.22-1.43-1.1-1.57.18-3.13.4-4.7.51-.87.06-1.3.47-1.59,1.25-2.55,7.12-5.43,14.13-7.47,21.42-.06.2-.12.41-.19.6-.43,1.18-.64,1.31-1.85,1.15-1.36-.17-2.71-.3-4.06-.51-2.51-.38-5.03-.28-7.55-.3-1.54,0-1.61-.13-1.5-1.61.27-3.76.46-7.54.75-11.31.32-4.29.59-8.58,1.12-12.85.16-1.29.25-2.59.28-3.92-.97,1.68-1.82,3.4-2.77,5.07-2.13,3.76-4.41,7.39-7.29,10.64-1.37,1.54-2.92,2.87-4.62,4.02-.74.5-1.29,1.07-1.42,1.97-.2,1.45-1.2,2.01-2.48,2.25-.41.07-.84.08-1.25.08-3.78,0-7.57,0-11.35,0-.26,0-.53,0-.78.02-.63.03-.81.38-.68.96.18.77.39,1.53.54,2.31.22,1.21.04,1.49-1.14,1.77-1.84.43-3.68.86-5.53,1.26-1.3.29-1.44.22-1.85-1.01-.54-1.6-1.02-3.2-1.53-4.81-.19-.6-.38-1.21-.87-1.65-1.03-.94-1.29-2.14-1.08-3.45.13-.8.05-1.56-.13-2.33-1.95-8.29-3.4-16.67-4.45-25.12-.18-1.49-.46-2.99-.71-4.55-.32.32-.21.65-.21.93,0,3.84-.1,7.68.07,11.51.23,4.98.3,9.96.63,14.95.27,4.08.6,8.17,1.11,12.23.15,1.19.09,2.41.13,3.62.03.79-.32,1.3-1.13,1.47-1.64.35-3.28.73-4.94,1.04-1.01.19-1.25.06-1.43-.93-.51-2.73-1.11-5.45-1.39-8.23-.35-3.4-.76-6.78-1.12-10.18-.18-1.73-.36-3.45-.45-5.18-.25-4.61-.45-9.22-.75-13.84-.48,1.28-.58,2.64-.8,3.96-.32,1.86-.58,3.74-.96,5.59-.3,1.42-.57,1.6-2.05,1.63-1.05.03-2.1.04-3.16.04-1.38,0-1.55-.13-1.97-1.51-.29-.96-.54-1.92-.81-2.88-.06-.24-.18-.46-.28-.69-.31.17-.28.4-.27.58.15,4.09-.37,8.17-.1,12.27.33,5.29.14,10.6-.2,15.9-.08,1.23-.38,1.58-1.51,1.51-1.94-.1-3.88-.23-5.8-.48-1.49-.19-1.72-.57-1.85-2.06-.58-6.39-.35-12.82-.2-19.21.07-3.15.11-6.3.2-9.45.18-5.98.25-11.97.41-17.95.1-3.92.24-7.87.88-11.76.08-.52.19-1.03.32-1.54.14-.54.47-.95,1.02-1.1.91-.24,1.83-.52,2.75-.67,1.13-.19,1.49-.02,1.97,1.08,2.27,5.3,5.52,10.19,6.74,15.93.06.3.15.61.68.98h0ZM287.25,34.58v-.12h4.41c.83,0,1.2.39,1.3,1.23.2,1.83.32,3.65.29,5.5-.03,1.33-.08,1.46-1.39,1.6-2.29.25-4.59.4-6.89.59-1.2.1-1.36.22-1.17,1.32.7,3.98,1.33,7.97,2.33,11.88.21.82.62,1.17,1.49,1.32,2.4.41,4.83.08,7.22.47.76.12,1.19-.24,1.24-1.04.06-1.2.26-2.41.24-3.61-.05-3.73.08-7.45.42-11.16.19-2.09.2-4.19.36-6.28.3-3.82.62-7.63.55-11.46-.03-1.42-.15-1.51-1.49-1.64-2.81-.28-5.63-.57-8.44-.89-1.67-.18-3.33-.42-4.99-.62-1.48-.18-1.79.07-1.73,1.6.05,1.25.18,2.51.32,3.76.25,2.19.51,4.37.84,6.55.17,1.09.27,1.06,1.35,1.02,1.25-.04,2.52,0,3.77,0v-.02ZM308.67,19.38c-.95,2.69-2.27,30.39-1.57,32.36.3,0,.47-.21.64-.41,3.98-4.51,6.63-9.59,7.32-15.69.6-5.31-.79-9.95-3.93-14.15-.65-.87-1.4-1.66-2.45-2.12h0ZM348.61,33.13c-.82,1.97-1.64,3.95-2.45,5.92-.17.4-.35.85.12,1.14.91.56,3.08-.51,3.16-1.58.14-1.86-.33-3.67-.83-5.49Z"/>
  <path class="cls-1" d="M141.6,65.45c-.51.23-.66.65-.89.99-1.27,1.98-2.99,3.47-5,4.7-3.26,1.99-6.78,3.01-10.55,3.42-2.69.3-5.09-.47-7.44-1.6-2.36-1.14-4.62-2.46-6.67-4.14-3.16-2.59-5.5-5.77-7.05-9.52-1.92-4.66-2.86-9.53-3.16-14.56-.24-4,.77-7.73,2.23-11.35,2.05-5.07,5.02-9.57,8.97-13.39,1.99-1.93,3.78-4.09,6.18-5.58,3.06-1.9,6.34-3.28,9.89-3.94,2.98-.56,5.74.05,8.31,1.59.36.21.72.43,1.05.69.53.4.99.6,1.4-.15.22-.41.66-.52,1.09-.5,2.06.07,4.09-.27,6.14-.29,1.52-.02,1.71.2,1.34,1.64-.85,3.31-1.51,6.66-1.94,10.05-.23,1.82-.51,3.64-.47,5.49.03,1.16.16,1.32,1.3,1.08,2.66-.55,2.75.21,3.15-3.22.59-5.12,1.54-10.18,2.98-15.13.54-1.85.71-2,2.63-2.08,2.21-.08,4.41-.07,6.62-.05,1.13.02,1.47.43,1.14,1.49-1.42,4.59-1.97,9.35-2.8,14.05-.16.88-.25,1.77-.33,2.66-.09.99.08,1.18,1.12,1.27.63.06,1.26.06,1.89.06,1.12.02,1.25-.06,1.39-1.2.18-1.51.27-3.04.41-4.55.42-4.55,1.13-9.06,1.92-13.56.23-1.31.41-1.39,1.66-1.26,2.2.21,4.36.68,6.57.77.99.04,1.19.35.95,1.35-.47,1.94-.99,3.87-1.54,5.79-.66,2.28-1.02,4.61-1.52,6.92-.05.2-.07.42.13.64.58,0,.85-.52,1.19-.87,2.48-2.57,4.89-5.2,7.45-7.7,2.09-2.06,4.33-3.98,6.55-5.9,1.28-1.12,1.53-1.06,2.76.12.95.9,1.88,1.84,2.8,2.77,1.08,1.11,1.13,1.19.23,2.37-1.92,2.57-3.87,5.11-5.86,7.62-3.53,4.44-7.47,8.53-11.18,12.81-1.45,1.66-2.77,3.43-4.19,5.12-.54.64-.41,1.08.1,1.61,1.37,1.45,2.69,2.94,4.08,4.38,3.34,3.49,6.71,6.95,10.06,10.44.83.87,1.61,1.8,2.42,2.69.2.22.41.54.77.48.46-.09.45-.54.49-.89.22-1.98.51-3.96.62-5.95.38-6.35,1.44-12.61,2.16-18.92.72-6.31,1.73-12.59,2.68-18.87.03-.16.05-.31.07-.47.31-1.73.31-1.68,2.12-1.58,1.68.09,3.36.06,5.04.07,1.85.02,1.98.08,2.22,1.87,1.1,8.23,2.89,16.34,4.41,24.5.25,1.33.62,2.64.98,4.12.5-.5.48-.97.54-1.41,1.13-9.19,3.04-18.23,5.47-27.16.22-.81.51-1.61.76-2.41.21-.69.64-1.06,1.39-.98,2.46.25,4.93.18,7.39-.08,1.48-.16,1.67.08,1.42,1.58-.67,4.04-1.61,8.04-2.55,12.02-2.47,10.54-5,21.06-7.5,31.58-.7,2.96-1.28,5.95-1.67,8.98-.25,1.97-.5,2.18-2.51,2.21-1.22.02-2.41.21-3.61.31-1.33.11-1.47-.03-1.93-1.3-2.4-6.62-4.36-13.38-6.13-20.2-.11-.44-.13-.93-.59-1.37-.44,1.26-.43,2.52-.59,3.74-.9,6.71-1.75,13.43-2.85,20.11-.11.67-.26,1.35-.48,1.98-.34,1.01-.74,1.25-1.78,1.1-1.76-.28-3.52-.61-5.28-.92-.5-.08-.9-.3-1.07-.81-.16-.46-.48-.8-.84-1.13-5.32-4.71-10.14-9.91-15.18-14.89-.39-.39-.7-.91-1.29-1.05-.42.46-.25.95-.19,1.39.6,4.48,1.28,8.94,2.34,13.33.04.16.08.3.1.46.14.94.03,1.13-.94,1.16-2.25.1-4.5.39-6.76.32-1.42-.05-1.65-.15-1.9-1.55-.31-1.75-.64-3.52-.75-5.3-.39-5.97-.94-11.94-.72-17.93.06-1.75-.42-3.17-1.56-4.47-.76-.86-1.28-1.82-.7-3.01.23-.46.17-.83-.41-.93-.58-.1-.76.28-.76.75,0,1.84-.03,3.68.1,5.51.22,3.14.55,6.27.84,9.4.19,2.14.38,4.28.56,6.43.04.42.03.84.06,1.25.06.9-.28,1.49-1.18,1.79-1.73.6-3.43,1.31-5.08,2.14-.88.43-1.08.33-1.34-.61-1.39-5.12-2.56-10.3-3.13-15.58-.25-2.3-.42-4.59-.63-6.9-.1-1.15-.29-1.27-1.37-.98-.35.1-.7.22-1.05.34-2.03.68-2.18.76-1.94,2.92.51,4.54.98,9.09,2.34,13.48.7,2.25,1.19,4.57,1.97,6.81.52,1.49,1.15,2.93,1.74,4.39.58,1.43.61,1.49-.54,2.39-1.43,1.11-2.47,2.57-3.61,3.94-.23.29-.44.59-.69.86-.84.9-1.15.83-1.6-.35-1.08-2.84-2.25-5.67-2.84-8.67-.07-.4-.13-.84-.58-1.16l.02.04ZM137.94,16.65c-.54.06-.66.38-.83.63-1.04,1.46-1.95,3-2.54,4.7-.38,1.09-1.01,1.69-2.21,1.5-.26-.04-.53-.02-.78,0-5.46.24-10.19,2.31-14.26,5.87-2.65,2.32-4.06,5.44-5.19,8.69-2.08,5.98-1.97,11.85,1.04,17.53.91,1.73,2.02,3.28,3.59,4.52,3.81,3.02,9.61,2.85,13.14-.49,2.19-2.07,3.63-4.59,4.64-7.4.52-1.44.51-1.48,2.06-1.49.56,0,.78-.21.7-.74-.22-1.51-.1-3.04-.14-4.56-.02-.66-.11-1.25-.82-1.55-.77-.33-1.03-1-1.06-1.78-.08-2.2,0-4.4-.29-6.6-.12-.9.22-1.7,1.11-2.07.83-.34,1.02-.95,1.01-1.75-.05-4.98.42-9.94.83-14.99v-.02Z"/>
  <path class="cls-1" d="M23.58,27.53c4.99-.32,11.77,3.93,11.72,11.62-.05,6.98-5.07,12.06-11.75,12.02-6.71-.04-11.69-5.09-11.79-11.82-.09-6.14,5.19-12.06,11.83-11.82ZM32.65,38.67c.02-1.71-1.49-3.22-3.2-3.2-1.73,0-3.04,1.37-3.06,3.14-.02,1.83,1.35,3.25,3.11,3.24,1.57,0,3.14-1.59,3.16-3.16h0Z"/>
  <path class="cls-1" d="M82.01,39.08c.05,1.34-.38,1.91-1.68,2.26-1.05.28-2.14.42-3.2.61-1.09.2-1.19.3-1.09,1.43.08.99.18,1.98.34,2.97.53,3.31.32,6.6-.4,9.85-1.21,5.49-3.9,10.14-8.29,13.7-3.15,2.56-6.86,3.75-10.88,4.21-3.98.46-7.88.05-11.75-.68-1.12-.21-1.9.03-2.67.84-.8.86-1.73,1.6-2.62,2.37-1.17,1.02-2.42,1.26-3.88.55-2.12-1.03-4.37-1.75-6.61-2.51-.82-.28-1.45-.27-2.06.43-1.05,1.22-2.47,1.97-3.79,2.85-.98.65-1.97.65-2.93,0-2.07-1.39-4.25-2.6-6.22-4.15-1.32-1.04-1.4-1.05-2.84-.06-2.55,1.76-5.29,3.16-8.17,4.31-.9.36-1.85.67-2.68-.1-.9-.83-.63-1.84-.24-2.78.88-2.14,1.73-4.28,2.49-6.47,1.54-4.4,1.53-8.89.95-13.43-.07-.54-.25-1.06-.53-1.53-1.72-2.92-2.28-6.16-2.75-9.47-.73-5.22.37-10.09,2.58-14.78.32-.69.42-1.35.23-2.09-.59-2.38-.92-4.81-1.3-7.22-.19-1.22-.21-2.45.11-3.64.39-1.41,1.34-1.97,2.79-1.63.99.22,1.85.7,2.71,1.23.38.23.66.64,1.25.66.12-1.12.25-2.22.36-3.34.19-1.83.74-3.54,1.63-5.15.29-.51.62-1.01,1-1.46,1.4-1.65,2.84-1.86,4.69-.75,1.43.88,1.42.88,1.84-.69.31-1.23.55-2.48,1.14-3.63.92-1.81,2.39-2.25,4.18-1.28,1.17.64,1.91,1.65,2.47,2.8,1.19,2.47,1.97,5.07,2.16,7.82.02.22.05.44.08.78.56-.24.79-.69,1.1-1.05,1.07-1.29,2.06-2.66,3.19-3.88,1.92-2.09,3.41-1.75,4.64.79,2.26,4.71,3.02,9.73,3.33,14.89.26,4.34-.22,8.59-.94,12.84-.19,1.14-.18,1.15.94,1.54,1.67.58,3.41.93,5.12,1.37,2.8.73,3.18,1.58,1.96,4.17-.94,1.99-2.29,3.7-3.62,5.43-.78,1.02-1.23,2.05-1.08,3.37.25,2.21.31,4.42.07,6.64-.15,1.37.25,1.66,1.66,1.64,1.77-.02,3.36-.71,4.9-1.49,2.4-1.2,4.14-3.04,5.19-5.53,1.01-2.38,2.08-4.73,3.3-7.01.41-.74.57-1.51.57-2.34,0-3.72.1-7.44-.05-11.16-.08-1.95-.2-3.89-.34-5.84-.1-1.54.35-2.27,1.81-2.74q1.25-.41,1.25-1.65c0-.45-.05-.9-.05-1.37,0-1.14.42-1.76,1.52-1.88,1.89-.2,3.79-.33,5.69-.4,1.17-.04,1.59.46,1.65,1.68,0,.23,0,.45,0,.68,0,.88.44,1.37,1.32,1.49,1.01.13,1.53.58,1.72,1.62.19,1.07.35,2.15.52,3.22.18,1.26.4,1.46,1.69,1.3,1.04-.12,2.08-.25,3.12-.21,1.3.06,1.99.6,2.31,1.88.41,1.68.54,3.4.74,5.11.16,1.35.27,2.7.31,4.07v-.02ZM77.5,39.09c1.74-.27,1.88-.47,1.58-2.2-.24-1.37-.45-2.76-.67-4.13-.05-.31-.06-.63-.29-.88-.45-.47-2.03-.54-2.85-.17-.78.36-.63,1.03-.56,1.64.16,1.52.35,3.04.56,4.56.14,1.01.48,1.25,1.68,1.25.11,0,.33-.03.56-.06h0ZM72.27,46.64c.67.18.79-.18.73-.73-.1-.94-.21-1.89-.29-2.84-.38-5.24-1.06-10.45-1.58-15.69-.18-1.87-.23-1.89-2.13-1.76-2.17.15-4.34.31-6.5.53-1.14.11-1.17.2-1.2,1.37v.81c.14,3.71.36,7.42.34,11.14,0,.13.06.26.1.5.58-.17.82-.58,1.13-.89.62-.6,1.25-1.19,1.98-1.64,1.7-1.02,3.38-.45,4.03,1.42.17.46.25.97.3,1.46.09,1.31.08,2.63-.11,3.94-.08.58-.15,1.17-.15,1.76,0,.92.17,1.05,1.04.83.76-.18,1.49-.39,2.28-.18v-.02ZM72.69,51.06c0-.59-.16-1.07-.76-1.31-.6-.23-1.15-.2-1.64.25-.47.43-.91.89-1.22,1.45-.32.59-.6,1.22-.94,1.8-.42.71-1.05,1.01-1.69.87-.75-.17-1.15-.69-1.3-1.41-.13-.63-.07-1.26,0-1.9.23-1.85.46-3.68.67-5.53.12-1.03.18-2.08.27-3.12.03-.33-.06-.64-.4-.8-.33-.18-.64-.06-.87.18-.44.45-.9.9-1.27,1.4-2.25,2.94-3.8,6.27-5.13,9.71-1.67,4.34-3.58,8.53-6.81,11.97-.33.36-.6.79-.86,1.23-.44.75-.79,1.53-.85,2.41-.07,1.23.38,1.86,1.54,2.21.57.17,1.15.25,1.74.23,2.12-.18,4.25-.3,6.32-.86,2.08-.57,4.02-1.45,5.67-2.86,2.41-2.06,4.34-4.49,5.42-7.53.31-.9.71-1.77,1-2.68.56-1.86,1.1-3.75,1.11-5.72v.02ZM66.93,22.59c.39-.05.74-.15.71-.63-.02-.43-.21-.8-.68-.89-.35-.06-.71-.04-1.07-.06v.05h-.94c-.63,0-.87.34-.85.94.02.66.4.87.97.81.63-.06,1.25-.17,1.87-.24h0ZM47.94,62.88c-1.54.41-3.07.44-4.6.28-1.2-.13-1.2-.15-1.64.97-.78,1.95-2.2,3.31-4,4.29-1.61.88-3.05.55-4.26-.83-1.12-1.27-1.61-2.81-1.85-4.46-.07-.54-.15-1.08-.22-1.61-.08-.54-.36-.68-.86-.46-.54.23-1.08.47-1.63.66-3.13,1.11-6.37,1.28-9.64,1.25-3.25-.04-6.27-.79-9.03-2.54-.57-.36-1.13-.75-1.71-1.11-.69-.43-.9-.35-1.08.5-.11.53-.21,1.07-.2,1.61.05,3.58-.67,7.02-1.81,10.39-.09.28-.31.56-.06.9.13-.05.26-.07.37-.15,2.73-1.86,5.56-3.57,8.41-5.27.51-.3,1.04-.56,1.6-.76.73-.25,1.4.02,1.8.59.38.56.34,1.3-.16,1.89-.19.24-.47.42-.71.62-.79.65-.82.77.04,1.38,1.51,1.08,3.06,2.1,4.59,3.16.48.33.93.3,1.37-.06.38-.32.76-.66,1.11-1.01,1.32-1.31,2.62-2.64,3.93-3.96.31-.31.63-.66,1.04-.86.59-.3,1.13-.26,1.62.21.48.46.54,1,.3,1.61-.14.36-.6.58-.48,1.12.31.12.64.28.99.37,1.66.46,3.3,1.02,4.82,1.83,1.13.6,1.95.43,2.7-.53.25-.31.63-.53.9-.82,1.14-1.25,2.76-1.92,3.87-3.18,1.63-1.87,3.09-3.88,4.53-6.02l-.03-.03ZM43.39,43.53c-.6,0-.96.05-1.31,0-.47-.07-.86-.3-.94-.83-.06-.46.18-.76.54-1.01.31-.22.78-.2,1.03-.69-1.06-.35-2.07-.71-3.1-1.01-.63-.18-.92.06-1.02.69-.06.46.09.9.22,1.33.4,1.38.96,2.72,1.52,4.05.11.27.09.65.52.7.35-.17.51-.52.72-.79.58-.74,1.13-1.5,1.83-2.43ZM39.79,59.14c.14-3.84-.57-7.57-1.51-11.25-.18-.68-.29-1.4-.73-2-.38.23-.37.57-.44.87-.4,1.58-.81,3.16-1.16,4.74-.66,3.04-1.4,6.08-1.72,9.19-.17,1.62.14,3.16.94,4.57.46.83.85.93,1.67.44,1.15-.68,2.09-1.59,2.42-2.95.3-1.19.48-2.39.53-3.62h0ZM36.84,33.74c1.78-5.33.89-19.15-2.27-24.02-1,.92-1.54,2.04-2.3,2.99-1.33,1.67-2.62,3.38-4.35,4.66-1.41,1.05-2.74.41-2.83-1.33-.06-1.04,0-2.08.09-3.12.24-3.1-.45-6.03-1.8-8.82-.08-.17-.18-.31-.3-.45-.52-.62-.86-.57-1.17.17-.13.3-.21.6-.29.9-.46,1.8-.83,3.63-.92,5.49-.04.83-.2,1.68-1.17,1.96-1.01.3-1.48-.45-1.93-1.14-.5-.77-1.02-1.49-1.73-2.09-1.01-.84-1.37-.79-2.01.3-.7,1.17-1.22,2.43-1.5,3.77-.44,2.11-.42,4.24-.12,6.36.15,1.05-.08,1.69-.73,2.01-.79.4-1.37,0-1.96-.5-.94-.78-1.91-1.53-2.9-2.26-.35-.26-.75-.77-1.17-.51-.51.3-.21.92-.13,1.37.42,2.32.82,4.64,1.34,6.94.33,1.49.2,2.85-.44,4.23-2.63,5.62-2.93,11.44-1.43,17.39.48,1.9,1.12,3.75,2.49,5.23.92,1,1.83,2.03,2.84,2.92,2.16,1.91,4.7,3.14,7.58,3.36,2.89.22,5.8.16,8.68-.32,1.53-.26,2.97-.78,4.34-1.53.78-.42,1.22-1,1.37-1.88.29-1.65.66-3.29.99-4.94.05-.23.22-.54-.14-.7-9.07,6.79-18.18,2.34-21.79-3.56-4.2-6.84-1.97-15.23,4.41-19.39,3.16-2.06,6.63-2.87,10.39-2.16,5.09.96,8.66,3.88,10.87,8.65h0ZM35.31,39.14c.05-7.69-6.73-11.95-11.72-11.62-6.63-.24-11.92,5.68-11.83,11.82.1,6.73,5.08,11.78,11.79,11.82,6.69.04,11.72-5.05,11.75-12.02Z"/>
  <path class="cls-1" d="M29.43,35.46c1.72,0,3.23,1.49,3.2,3.2-.02,1.59-1.59,3.16-3.16,3.16-1.76,0-3.13-1.41-3.11-3.24.02-1.78,1.33-3.13,3.06-3.14h0Z"/>
  <g>
    <path class="cls-1" d="M87.35,35.39c1.19-.03,2.33.24,3.44.64.39.14.77.3,1.05.59.64.65.46,1.5-.39,1.85-.2.08-.44.16-.66.14-1.62-.15-3.21-.48-4.7-1.19-.19-.09-.38-.25-.53-.42-.59-.68-.34-1.44.55-1.6.4-.06.81,0,1.22,0Z"/>
    <path class="cls-1" d="M85.98,33.5c-.54-.02-.9-.18-1.1-.58-.22-.42-.08-.82.24-1.11,1.43-1.26,3.03-2.27,4.76-3.05.41-.18.81-.08,1.11.25.3.34.3.76.12,1.14-.14.28-.31.56-.54.76-1.17,1-2.49,1.78-3.9,2.41-.24.11-.52.14-.68.18h0Z"/>
  </g>
</svg>