<?xml version="1.0" encoding="UTF-8"?>
<svg id="Layer_1" xmlns="http://www.w3.org/2000/svg" viewBox="0 0 248.84 127.56">
  <defs>
    <style>
      .cls-1 {
        fill: #f2f2f2;
      }

      .cls-2 {
        fill: rgba(242, 242, 242, 0);
      }
    </style>
  </defs>
  <g>
    <path class="cls-1" d="M248.84,48.76l-1.5,3.51c-.02.07-.1.1-.17.07-1.08-.44-2.18-.61-3.33-.59-.27,0-.51.05-.71.15-.22.1-.44.25-.61.39-.22.22-.37.51-.47.91-.17.71-.22,1.5-.17,2.33,0,.12.1.2.22.22l4.24.05s.1.05.1.12v.02l-.54,3.63c-.02.17-.17.29-.34.29l-3.55.02c-.07,0-.12.05-.12.12l-.02,15.17c0,.07-.05.12-.12.12l-5.52-.02c-.07,0-.12-.05-.12-.12l.02-15.12c0-.1-.07-.17-.17-.17h-2.57c-.12,0-.22-.1-.22-.22h0l.02-3.73c0-.07.05-.12.12-.12l2.45-.02c.17,0,.32-.15.32-.29,0-.61.02-1.23.05-1.89.05-.71.17-1.32.34-1.84.81-2.28,2.48-3.65,5-4.12,2.52-.47,4.95-.15,7.23.98.15.02.17.1.15.15Z"/>
    <path class="cls-1" d="M3.78,49.84c2.06-.02,4.19-.02,6.35-.02,1.67,0,3.33.17,4.95.49,1.86.37,3.55,1.1,5.1,2.18,1.18.83,2.03,1.94,2.55,3.28.86,2.26,1.25,4.56,1.18,6.91-.05,1.74-.2,3.16-.47,4.29-.32,1.42-.93,2.75-1.84,3.97-1.01,1.35-2.28,2.35-3.82,3.04-.96.42-1.94.74-2.97.96-.76.17-1.79.27-3.06.32-2.67.1-5.34.1-8.04.02-.07,0-.12-.05-.12-.12v-25.13c0-.12.07-.2.2-.2ZM14.3,54.77c-.86-.34-1.79-.54-2.77-.54-.61,0-1.23.02-1.84.07-.07,0-.12.07-.12.12l-.02,16.35c-.07.02-.1.07-.07.12.02.07.1.1.15.07.02-.02.05-.05.05-.07.78,0,1.59,0,2.4-.02,1.18-.02,2.18-.37,3.06-.98.66-.47,1.2-1.13,1.57-1.96.25-.51.42-1.08.54-1.64.07-.37.17-.93.27-1.69.29-2.21.15-4.41-.44-6.57-.2-.76-.54-1.42-1.03-2.01-.39-.54-1.01-.96-1.74-1.25Z"/>
    <path class="cls-1" d="M110.36,50.89c.07,0,.12.05.15.12v.02l.02,4.58c0,.07.05.12.12.12l4.04.02c.12,0,.25.1.25.22v.05l-.59,3.68c0,.07-.07.12-.15.12l-3.58.02c-.07,0-.12.05-.12.12,0,2.87-.02,5.74-.05,8.58,0,.59.1,1.15.32,1.69.34.83.96,1.18,1.89,1.03.51-.07,1.03-.25,1.57-.51.1-.05.22-.02.27.07l1.76,3.36c.05.07,0,.17-.07.22-2.03,1.15-4.12,1.62-6.28,1.35-1.23-.15-2.23-.51-2.99-1.1-.88-.69-1.5-1.64-1.84-2.84-.29-1.08-.44-2.18-.44-3.31v-8.58c0-.07-.05-.12-.12-.12h-2.35c-.15,0-.27-.12-.27-.27l-.02-3.16q0-.12-.02,0l-.71,4.36c-.02.17-.2.29-.37.27h-.05c-1.47-.47-2.72-.25-3.73.69-.34.32-.64.74-.88,1.25-.22.47-.42.96-.56,1.45-.17.59-.25,1.32-.25,2.26,0,2.79-.02,5.61-.07,8.41,0,.07-.05.12-.12.12l-5.56.05c-.07,0-.12-.05-.12-.12v-19.12c0-.12.1-.25.25-.25h4.63c.15,0,.27.12.27.27l.42,3.16c0,.1.02.1.07,0,.27-.59.59-1.15.98-1.69.44-.64.93-1.13,1.42-1.47,1.25-.86,2.67-1.05,4.27-.59.1.02.17.1.22.17.05.07.1.12.17.12h2.35c.12,0,.22-.1.22-.22l.05-3.82c0-.07.05-.12.12-.15l5.49-.64Z"/>
    <path class="cls-1" d="M197.29,51.04l.02,4.58v.12h.12l3.95.02c.2,0,.37.17.37.37v.05l-.54,3.43c-.02.12-.12.22-.25.22h-3.51c-.07,0-.12.05-.12.12,0,2.89,0,5.76-.02,8.63,0,.56.1,1.13.29,1.64.2.54.59.86,1.15.96.81.12,1.54,0,2.18-.39.17-.1.37-.05.47.12v.02l1.72,3.26c.05.1.02.22-.07.27-1.69.98-3.48,1.45-5.34,1.4-1.45-.05-2.65-.34-3.58-.93-1.13-.71-1.86-1.81-2.23-3.26-.27-1.08-.39-2.18-.39-3.31v-8.38c0-.07-.05-.12-.12-.12h-2.38c-.15,0-.25-.1-.25-.25h0v-3.65c0-.07.05-.15.12-.15l2.33-.05c.15,0,.29-.12.29-.27v-3.82c0-.07.05-.12.12-.15l5.54-.64s.12.05.12.15h0Z"/>
    <path class="cls-1" d="M36.44,55.21c1.47.1,2.79.51,3.97,1.25,1.15.71,2.06,1.69,2.75,2.94.54.98.91,2.06,1.08,3.21.1.64.17,1.4.2,2.23.02.76,0,1.5-.07,2.23,0,.07-.07.15-.15.15l-11.72.02c-.07,0-.12.05-.12.12h0c.02.47.1.93.22,1.4.32,1.08.88,1.86,1.74,2.38.71.42,1.59.59,2.67.51,1.45-.1,2.79-.59,4.04-1.5.2-.12.44-.1.59.1l2.06,2.79c.05.07.05.15-.02.2h0c-2.72,2.08-5.76,2.94-9.12,2.57-2.52-.27-4.51-1.32-5.98-3.16-.61-.78-1.1-1.67-1.47-2.7-.34-.98-.54-1.99-.64-3.04-.12-1.47-.02-2.92.27-4.31.32-1.5.88-2.82,1.67-3.92,1.79-2.57,4.49-3.73,8.04-3.48ZM36.21,59.15c-1.3-.29-2.3.1-3.04,1.2-.29.44-.51.96-.66,1.59-.12.54-.2,1.13-.22,1.72,0,.07.05.12.12.12h5.34s.17.02.49.05c.37.02.54-.12.49-.44-.02-.32-.05-.49-.05-.54,0-1.01-.27-1.86-.83-2.62-.39-.56-.96-.93-1.64-1.08Z"/>
    <path class="cls-1" d="M61.85,55.85c1.54.74,2.62,2.01,3.26,3.82.49,1.45.78,2.89.88,4.39.1,1.67.02,3.14-.2,4.44-.29,1.59-.91,3.09-1.86,4.46-1.52,2.18-3.68,3.16-6.42,2.92-1.5-.15-2.75-.71-3.7-1.72-.2-.2-.29-.17-.29.12l-.02,8.31c0,.15-.1.25-.22.27l-5.34.56c-.07,0-.12-.05-.12-.1v-.02l-.05-27.33c0-.1.1-.2.2-.2h4.63c.12,0,.25.1.27.25l.22,1.76c.02.12.07.15.17.05,1.13-1.35,2.5-2.18,4.09-2.5,1.62-.32,3.11-.15,4.51.51ZM58.62,60.09c-.34-.29-.74-.51-1.15-.59-.37-.07-.78-.05-1.25.05-1.05.27-1.84.88-2.4,1.79-.2.29-.27.69-.27,1.13v7.11c0,.17.05.34.15.47.29.42.66.76,1.05,1.03s.83.44,1.35.51c1.27.2,2.28-.29,3.02-1.47.27-.44.47-.93.59-1.45.49-2.33.47-4.66-.07-6.99-.2-.61-.51-1.15-1.01-1.59Z"/>
    <path class="cls-1" d="M77.71,55.18c1.23.02,2.35.29,3.43.74,1.15.49,2.03,1.23,2.62,2.16.64,1.03.98,2.18.98,3.51.02,2.75.02,5.47,0,8.21,0,.88.39,1.62,1.2,2.21.07.07.12.17.1.27l-1.08,3.41c-.02.07-.1.15-.2.12-.69-.07-1.37-.22-2.01-.47-.56-.2-1.03-.49-1.4-.81-.42-.39-.76-.81-1.03-1.32-.05-.1-.15-.12-.25-.07-.02.02-.05.02-.07.05-1.08,1.5-2.52,2.38-4.36,2.65-.86.12-1.72.12-2.55,0-.88-.12-1.67-.39-2.38-.81-1.76-1.05-2.7-2.7-2.75-4.95-.05-2.18.71-3.87,2.26-5.03.88-.66,2.03-1.13,3.51-1.45,1.25-.27,2.55-.34,3.85-.27.47.02.91,0,1.37-.1.07-.02.12-.07.12-.15.07-.71,0-1.42-.2-2.11-.2-.64-.59-1.08-1.18-1.27-.76-.27-1.54-.37-2.33-.32-.37.02-1.1.15-2.18.37-.71.15-1.42.34-2.16.59-.2.07-.42-.05-.49-.25l-1.18-3.33c-.02-.07.02-.17.1-.2,2.7-1.01,5.44-1.45,8.24-1.37ZM74.31,67.59c-.51.69-.69,1.47-.51,2.33.1.51.32.93.66,1.25.29.27.71.47,1.2.51,1.45.17,2.57-.39,3.36-1.72.07-.12.12-.29.12-.44v-2.77c0-.12-.1-.22-.22-.25-1.3-.12-2.48,0-3.55.32-.44.15-.78.39-1.05.76Z"/>
    <path class="cls-1" d="M131.79,55.65c1.01.49,1.74,1.27,2.21,2.38.02.07.12.12.2.07.02,0,.05-.02.05-.05,1.35-1.72,3.04-2.7,5.12-2.87.93-.1,1.81.05,2.6.37.78.32,1.45.86,1.96,1.59.74,1.03,1.1,2.23,1.1,3.63,0,4.76.02,9.56.02,14.41,0,.07-.05.12-.12.12h-5.59c-.07,0-.15-.07-.15-.15h0c.05-2.72.02-5.42-.02-8.09,0-.49,0-1.42.02-2.77.02-.93,0-1.84-.05-2.77-.02-.59-.15-1.03-.32-1.32-.29-.49-.71-.74-1.27-.74s-1.1.25-1.62.69c-.44.37-.78.81-1.05,1.32-.2.37-.29.83-.29,1.4-.02,4.02-.02,8.11,0,12.23,0,.1-.07.2-.17.2h0l-5.47-.05c-.07,0-.12-.05-.12-.12-.02-3.63-.02-7.28,0-10.91,0-.88-.02-1.79-.1-2.67-.05-.69-.17-1.18-.37-1.47-.34-.51-.88-.71-1.59-.59-.54.1-.98.34-1.35.71-.34.34-.61.71-.86,1.13-.25.42-.37.88-.37,1.42,0,4.14,0,8.31.02,12.45,0,.05-.05.1-.1.1h-5.56c-.1,0-.17-.07-.17-.17h0v-19.14c0-.12.1-.25.25-.25h4.66c.12,0,.2.07.22.2l.32,1.81c.05.2.12.22.27.07,1.3-1.52,2.87-2.4,4.71-2.6,1.1-.12,2.11,0,2.99.42Z"/>
    <path class="cls-1" d="M161.96,56.24c1.27.69,2.28,1.64,3.04,2.89.56.93.98,2.08,1.2,3.46.22,1.23.29,2.45.22,3.7,0,.02,0,.17.02.51.02.39-.22.54-.71.42-3.75-.02-7.48,0-11.23.05-.07,0-.12.05-.12.12h0c.02.49.1.96.25,1.45.34,1.08.93,1.86,1.76,2.33.71.39,1.59.56,2.7.47,1.52-.12,2.89-.64,4.14-1.59.05-.05.12-.02.17.02l2.21,2.94c.07.1.05.25-.05.32-2.75,2.06-5.76,2.84-9.09,2.4-4.31-.56-6.91-2.99-7.82-7.26-.51-2.45-.39-4.88.39-7.28.47-1.4,1.2-2.62,2.21-3.65.91-.93,2.01-1.59,3.24-1.96,1.27-.37,2.55-.51,3.82-.39,1.35.12,2.57.47,3.65,1.05ZM154.93,60.8c-.39.86-.59,1.81-.61,2.84,0,.07.05.15.15.15h6.05c.15,0,.25-.12.25-.25h0c0-.61-.07-1.23-.22-1.86-.17-.74-.42-1.3-.76-1.69-.56-.69-1.37-1.01-2.4-.93-.59.02-1.1.2-1.52.51-.37.27-.69.66-.93,1.23Z"/>
    <path class="cls-1" d="M184.05,55.89c.81.47,1.42,1.1,1.86,1.96.25.49.42,1.13.54,1.89.1.66.15,1.3.15,1.96v13.43c0,.1-.07.15-.15.17h0l-5.52-.02c-.07,0-.15-.07-.15-.15.02-4.51.02-8.97-.05-13.38,0-.66-.1-1.13-.25-1.42-.27-.51-.71-.81-1.32-.86-.39-.02-.83.05-1.27.25-.42.17-.78.42-1.13.71-.17.15-.37.37-.56.66-.15.22-.32.47-.51.74-.07.1-.12.25-.12.37v12.97c0,.07-.05.12-.12.12h-5.54c-.1,0-.17-.07-.17-.17v-19.12c0-.12.1-.22.22-.22h4.63c.15,0,.27.1.29.25l.32,1.74c.05.22.15.25.29.07,1.72-1.84,3.75-2.72,6.05-2.6.96.05,1.79.27,2.5.66Z"/>
    <path class="cls-1" d="M224.74,55.45c1.1.22,2.13.64,3.02,1.23.71.49,1.35,1.03,1.86,1.64.54.64.98,1.35,1.3,2.16,1.05,2.77,1.23,5.56.49,8.46-.83,3.24-2.72,5.39-5.71,6.45-.76.27-1.57.44-2.43.49-.83.05-1.67.02-2.5-.07-3.04-.37-5.27-1.84-6.67-4.36-.34-.64-.61-1.35-.83-2.13-.2-.74-.34-1.5-.42-2.26-.25-2.16,0-4.19.76-6.13.51-1.35,1.23-2.45,2.11-3.28.98-.93,2.16-1.57,3.51-1.96,1.81-.51,3.65-.59,5.52-.22ZM219.4,61.58c-.29.66-.47,1.35-.51,2.08-.05.44-.07,1.15-.07,2.13,0,1.23.15,2.4.49,3.6.27.88.76,1.52,1.47,1.91.51.27,1.08.42,1.69.39.66-.02,1.23-.22,1.72-.64.51-.44.93-1.13,1.23-2.08.25-.78.37-1.62.37-2.45,0-.93,0-1.89-.05-2.82-.05-1.05-.34-2.03-.88-2.92-.27-.44-.64-.76-1.1-.96-.98-.44-1.89-.44-2.72-.05-.69.27-1.23.88-1.62,1.79Z"/>
    <ellipse class="cls-1" cx="136.46" cy="92.93" rx="3.33" ry="3.46" transform="translate(36.75 224.51) rotate(-87.1)"/>
    <path class="cls-1" d="M14.79,93.4c2.55.12,4.83,1.01,6.81,2.67.05.05.05.12.02.17h0l-2.72,3.19s-.12.05-.17.02c-1.1-.88-2.3-1.4-3.65-1.54-1.08-.12-2.06,0-2.89.37-.93.42-1.67,1.13-2.23,2.11-.47.86-.78,1.79-.96,2.77-.25,1.52-.37,3.06-.32,4.61.02,1.1.2,2.16.49,3.19.34,1.18.83,2.11,1.47,2.82,1.23,1.37,2.82,1.86,4.78,1.5.64-.12,1.3-.37,2.01-.74.61-.32,1.18-.69,1.74-1.08.05-.05.15-.02.17.02l2.55,3.24s.02.15-.02.2c-3.28,2.94-7.11,3.82-11.5,2.65-2.18-.59-3.95-1.76-5.29-3.58-1.23-1.64-2.03-3.46-2.38-5.47-.15-.83-.27-1.69-.34-2.55v-2.57c.07-1.23.29-2.43.64-3.58.34-1.23.83-2.33,1.45-3.31,2.28-3.63,5.71-5.32,10.34-5.1Z"/>
    <path class="cls-1" d="M125.71,95.19l.1,4.56c0,.07.05.12.12.12l4.17.02c.07,0,.12.05.12.12v.02l-.61,3.77c0,.07-.07.12-.15.12l-3.46.02c-.12,0-.25.1-.25.22v8.29c0,.59.07,1.18.2,1.76.12.56.47.93.98,1.05.91.22,1.79.1,2.65-.42.05-.02.12-.02.17.05h0l1.84,3.41c.05.1.02.2-.07.25-2.06,1.18-4.24,1.59-6.52,1.25-2.72-.39-4.31-1.96-4.78-4.68-.17-1.03-.27-2.08-.27-3.11v-7.97c0-.07-.05-.12-.12-.12h-2.48c-.1,0-.17-.07-.17-.17v-3.73c0-.12.1-.22.22-.22h2.38c.1,0,.17-.07.17-.17h0v-3.87c0-.07.05-.12.12-.15l5.49-.64c.07.07.12.12.15.2,0-.02,0,0,0,0Z"/>
    <path class="cls-1" d="M181.84,97l1.23,3.9c.02.07-.02.15-.07.17-1.5.51-3.09.76-4.76.71-.64-.02-.66.1-.07.34,1.05.47,1.86,1.15,2.38,2.11.49.86.69,1.84.64,2.94-.07,1.3-.49,2.45-1.27,3.43-.69.86-1.62,1.52-2.84,2.03-1.84.76-3.82.98-5.93.61-.34-.05-.59.07-.74.37-.34.59-.29,1.08.07,1.42.22.2.59.32,1.13.39,1.2.12,2.4.17,3.63.12,2.06-.07,3.87.49,5.49,1.74,1.37,1.05,2.01,2.45,1.96,4.19-.05,1.23-.47,2.3-1.25,3.19-.66.76-1.42,1.32-2.28,1.74-.66.29-1.54.56-2.7.81-.93.2-1.91.29-2.87.32-1.57.05-3.16-.02-4.71-.22-1.1-.12-2.11-.47-3.04-.98-.93-.51-1.59-1.15-2.03-1.96-.47-.86-.66-1.84-.61-2.89,0-.07.07-.12.12-.12h4.88c.07,0,.12.05.15.12.2,1.27.98,1.96,2.35,2.11,1.25.12,2.5.15,3.75.05.91-.05,1.59-.42,2.06-1.08.22-.29.32-.64.32-.96,0-.39-.1-.74-.32-1.03-.25-.32-.61-.56-1.1-.71-.42-.12-.86-.2-1.35-.17-.71.02-1.45.02-2.16,0-1.1-.05-1.84-.07-2.16-.12-.74-.1-1.42-.27-2.11-.56-.76-.32-1.35-.74-1.72-1.25-.74-.96-.83-2.11-.29-3.41.34-.86.93-1.57,1.72-2.13.1-.07.12-.2.05-.27-.02-.02-.05-.05-.07-.05-2.57-1.37-3.63-3.6-3.14-6.69.27-1.69,1.05-3.02,2.38-4.02,1.74-1.32,3.75-1.91,5.98-1.79,3.19.05,6.18-.76,8.97-2.45.12-.07.27-.05.34.07t0-.02ZM175.69,105.88c.02-1.47-1.15-2.7-2.62-2.72h-.49c-1.47-.02-2.7,1.15-2.72,2.62h0l-.02,1.13c-.02,1.47,1.15,2.7,2.62,2.72h.49c1.47.02,2.7-1.15,2.72-2.62l.02-1.13Z"/>
    <path class="cls-1" d="M37.98,100.87c1.47,1.01,2.52,2.4,3.16,4.22.69,1.99.91,3.97.71,5.98-.17,1.72-.66,3.26-1.47,4.63-1.57,2.65-3.92,4.07-7.06,4.27-1.74.12-3.36-.1-4.83-.64-2.77-1.01-4.51-3.09-5.29-6.28-.59-2.33-.56-4.66.05-6.99.39-1.5,1.1-2.79,2.13-3.95,1.27-1.4,2.82-2.26,4.68-2.62,1.4-.27,2.77-.29,4.14-.07,1.45.25,2.72.74,3.77,1.45ZM33.37,103.77c-1.18-.42-2.16-.25-2.99.51-.54.49-.96,1.25-1.2,2.26-.22.86-.34,1.72-.34,2.6,0,.96.02,1.74.07,2.38.07.81.27,1.57.59,2.33.66,1.57,1.86,2.18,3.6,1.81.81-.17,1.42-.61,1.84-1.3.37-.61.59-1.3.71-2.01.34-2.08.27-4.14-.2-6.2-.12-.56-.37-1.05-.74-1.5-.34-.39-.78-.69-1.35-.88Z"/>
    <path class="cls-1" d="M58.72,99.8c.96.47,1.69,1.25,2.21,2.35.05.1.15.12.25.07.02,0,.05-.02.05-.05,1.27-1.59,2.82-2.52,4.63-2.79,1.35-.2,2.52-.02,3.55.54,1.15.64,1.94,1.67,2.3,3.14.2.76.29,1.54.29,2.33v13.92c0,.07-.05.12-.12.12h-5.56c-.07,0-.15-.07-.15-.15.02-4.66,0-9.27-.07-13.83,0-.76-.27-1.3-.81-1.62-.44-.27-.91-.29-1.47-.12-.49.17-.93.47-1.3.88-.29.34-.54.71-.74,1.1-.17.34-.27.74-.27,1.23v12.4c0,.07-.05.12-.15.12h-5.44c-.12,0-.22-.1-.22-.22h0c.1-4.51.07-9.05-.02-13.6-.02-.76-.27-1.32-.78-1.69-.44-.32-.96-.39-1.54-.17-.54.2-.98.54-1.35,1.03-.22.27-.42.56-.59.86-.17.27-.27.61-.27.96-.07,4.22-.07,8.43-.05,12.65,0,.07-.05.12-.12.12l-5.54.05c-.1,0-.15-.07-.15-.17h0v-19.14c0-.12.1-.25.25-.25h4.63c.12,0,.22.1.25.22l.29,1.76c.05.22.12.25.27.07,1.32-1.52,2.89-2.38,4.71-2.6,1.2-.1,2.21.05,3.04.47Z"/>
    <path class="cls-1" d="M86.93,99.36c2.11-.17,3.8.39,5.12,1.72.66.66,1.23,1.52,1.67,2.62.39.98.66,1.99.78,3.04.07.69.12,1.57.15,2.6.02.88-.02,1.74-.12,2.62-.25,2.03-.96,3.82-2.18,5.42-1.5,1.96-3.51,2.84-6.03,2.65-1.47-.12-2.75-.71-3.82-1.76-.17-.17-.27-.15-.27.12l.02,8.31c0,.15-.12.29-.27.32l-5.27.54c-.12,0-.22-.07-.22-.2v-27.31c0-.1.07-.17.17-.17h4.66c.17,0,.29.12.32.32l.22,1.67c.02.17.1.17.2.05,1.25-1.54,2.89-2.38,4.88-2.55ZM87.1,104.06c-.81-.61-1.74-.69-2.79-.22-.78.34-1.37.86-1.84,1.54-.2.29-.29.64-.29,1.08-.02,2.3-.02,4.61,0,6.89,0,.39.1.71.27.98.59.83,1.35,1.3,2.3,1.4.88.1,1.64-.15,2.33-.74.56-.49.96-1.13,1.18-1.86.1-.39.22-1.08.34-2.11.1-.86.1-1.72.02-2.6-.1-.98-.17-1.67-.25-2.01-.1-.44-.25-.88-.44-1.3-.22-.44-.49-.81-.83-1.05Z"/>
    <path class="cls-1" d="M156.74,99.45c1.79.34,3.02,1.37,3.63,3.14.25.71.39,1.79.39,3.26.05,4.46.07,8.95.02,13.41,0,.07-.05.12-.12.12-1.84.1-3.68.12-5.52.02-.07,0-.12-.05-.12-.12-.05-4.41-.07-8.82-.02-13.26,0-.44-.07-.88-.2-1.3-.15-.44-.42-.76-.78-.93-.66-.32-1.37-.27-2.11.17-.76.44-1.37,1.03-1.84,1.74-.2.29-.27.66-.27,1.08v12.45c0,.12-.1.22-.22.22h-5.49c-.07,0-.12-.05-.12-.12v-19.17c0-.15.12-.25.25-.27l4.41.02c.29,0,.49.17.56.51l.29,1.57c.02.1.07.1.15.02.93-1.05,2.03-1.79,3.28-2.23,1.3-.49,2.57-.59,3.82-.34Z"/>
    <path class="cls-1" d="M98.5,99.87l5.34.02c.1,0,.17.07.17.17v12.13c0,.71.05,1.4.15,2.08.05.39.2.69.37.91.25.27.54.44.88.51.39.1.86.05,1.37-.17.83-.32,1.47-.86,1.94-1.64.2-.32.27-.69.27-1.15,0-4.22,0-8.46.02-12.67,0-.07.05-.12.12-.12h0l5.42-.07c.17,0,.29.12.29.29h0v19.07c0,.1-.07.17-.17.17h-4.66c-.12,0-.22-.1-.22-.2l-.22-2.06c0-.07-.05-.1-.1-.02-.51.61-1.08,1.15-1.72,1.62-1.1.81-2.28,1.23-3.58,1.27-1.23.05-2.3-.15-3.21-.59-1.05-.51-1.84-1.37-2.3-2.62-.27-.69-.39-1.42-.39-2.16v-14.58c-.02-.07.07-.2.22-.2Z"/>
    <path class="cls-1" d="M133.68,99.89h5.59c.07,0,.12.05.12.12v19.32c0,.07-.05.12-.12.12h-5.59c-.07,0-.12-.05-.12-.12v-19.32c0-.07.05-.12.12-.12Z"/>
    <path class="cls-2" d="M172.6,103.15h.49c1.47.02,2.65,1.25,2.62,2.72l-.02,1.13c-.02,1.47-1.25,2.65-2.72,2.62h-.49c-1.47-.02-2.65-1.25-2.62-2.72l.02-1.13c.02-1.5,1.25-2.67,2.72-2.62Z"/>
  </g>
  <g>
    <path class="cls-1" d="M31.44,27.27s.04-.07.04-.1c0-.13,0-.26,0-.38,0-8.78,0-17.55,0-26.33,0-.15-.02-.3-.04-.45,2.46,0,4.92,0,7.38,0,.02.05.05.09.07.14,1.77,4.32,3.53,8.64,5.29,12.96.34.84.68,1.68,1.03,2.52.04.1.03.24.19.28.06-.13.11-.25.17-.38,1.85-4.52,3.69-9.04,5.54-13.57C51.37,1.31,51.63.65,51.89,0c2.46,0,4.92,0,7.38,0,0,.15,0,.31,0,.46,0,8.76,0,17.52,0,26.28,0,.18,0,.36,0,.54h-4.92c0-.83,0-1.66,0-2.5,0-5.75,0-11.5,0-17.24,0-.1,0-.21,0-.31,0-.05.04-.13-.07-.15-2.06,4.72-4.12,9.44-6.17,14.15-.41.05-5.15.04-5.46,0-.05-.1-.1-.22-.15-.33-1.58-3.62-3.16-7.24-4.74-10.86-.39-.89-.77-1.78-1.17-2.67-.03-.07-.03-.18-.16-.19-.06.14-.03.3-.03.45,0,6.43,0,12.85,0,19.28,0,.1,0,.21,0,.31,0,.03.04.06.05.09h-5Z"/>
    <path class="cls-1" d="M144.67,0c.12.11.27.06.4.07,1.14.08,2.26.26,3.35.63.41.14.82.3,1.2.49,1.9.94,3.11,2.45,3.66,4.49.3,1.11.36,2.24.31,3.39-.03.81-.17,1.6-.42,2.37-.52,1.6-1.48,2.88-2.87,3.82-.35.24-.73.43-1.09.64-.1.06-.2.1-.33.17.06.12.11.24.17.35,1.82,3.48,3.64,6.95,5.46,10.43.07.13.18.25.16.42h-5.69s-.04-.09-.06-.14c-1.7-3.26-3.41-6.53-5.12-9.79-.03-.07-.08-.13-.11-.18-1.16-.05-4.7-.03-5.03.03,0,.09-.02.19-.02.29,0,3.2,0,6.4,0,9.6,0,.06.02.12.04.18h-5.23c0-.18,0-.36,0-.54,0-8.76,0-17.52,0-26.28,0-.15,0-.31,0-.46,3.74,0,7.48,0,11.22,0ZM138.64,12.74c.16,0,.29.01.42.01,1.31,0,2.61,0,3.92,0,.51,0,1.02-.01,1.53-.09.56-.08,1.11-.21,1.62-.44.89-.41,1.49-1.07,1.78-2,.31-.99.33-1.99.11-3-.23-1.04-.85-1.79-1.82-2.24-.27-.12-.55-.22-.83-.3-.74-.21-1.51-.27-2.28-.27-1.37,0-2.74,0-4.11,0-.1,0-.2.01-.3.02-.02.05-.04.09-.04.12,0,2.71,0,5.43,0,8.19Z"/>
    <path class="cls-1" d="M209.62,0c.03.12.04.25.08.37.85,2.6,1.71,5.19,2.57,7.79,2.06,6.25,4.13,12.5,6.19,18.74.04.12.06.25.08.37h-5.46c-.01-.09,0-.18-.03-.26-.57-1.83-1.14-3.66-1.7-5.49-.03-.08-.06-.16-.08-.24-.32-.05-9.82-.05-10.17,0-.03.09-.07.18-.1.28-.51,1.63-1.02,3.27-1.52,4.9-.08.27-.15.54-.23.81h-5.46c.08-.26.15-.51.24-.77,2.69-8.16,5.38-16.31,8.08-24.47.22-.68.45-1.36.68-2.04,2.28,0,4.56,0,6.84,0ZM209.88,16.82c-.3-1.01-.61-1.99-.92-2.98-.31-.99-.61-1.98-.92-2.96-.31-.99-.61-1.98-.92-2.96-.31-.98-.6-1.96-.92-2.94-.04.02-.05.02-.06.03-.02.02-.03.04-.04.06-1.21,3.89-2.41,7.78-3.62,11.67,0,.01,0,.03,0,.04,0,.01.01.02.02.04h7.36Z"/>
    <path class="cls-1" d="M102.93,27.27c0-.14-.03-.28-.03-.42,0-8.82,0-17.65,0-26.47,0-.13.02-.25.03-.38,5.89,0,11.79,0,17.68,0,0,.33,0,.67,0,1,0,1.11,0,2.23,0,3.34,0,.13,0,.25,0,.4-.09.01-.16.03-.23.03-.1,0-.2,0-.31,0-3.84,0-7.69,0-11.53,0-.14,0-.28,0-.39,0-.04.03-.05.04-.05.05,0,.01,0,.02,0,.04,0,1.98,0,3.97,0,5.95,0,.05.01.1.02.15,0,.01.01.02.05.06.29.02.61,0,.93,0,.31,0,.61,0,.92,0h7.61c.31,0,.61,0,.92,0,.32,0,.64,0,.93,0,.03.06.05.08.05.1,0,1.46,0,2.92,0,4.38,0,.04-.02.07-.03.13-.47.04-.94.01-1.41.02-.47,0-.95,0-1.42,0h-8.5s-.04.04-.05.05c0,.01-.01.02-.01.04,0,2.11,0,4.22,0,6.34,0,.1,0,.2,0,.33.09.01.16.03.23.03.12,0,.23,0,.35,0,3.83,0,7.66,0,11.49,0,.14,0,.28,0,.44.01,0,.13.02.24.02.35,0,1.42,0,2.84,0,4.26,0,.06,0,.13,0,.19h-17.68Z"/>
    <path class="cls-1" d="M72.41,27.27c0-.2,0-.41,0-.61,0-8.73,0-17.47,0-26.2,0-.15,0-.31,0-.46,3.56,0,7.12,0,10.68,0,0,.1.08.08.14.08.77.07,1.52.19,2.27.38.86.22,1.68.53,2.46.96,1.96,1.1,3.21,2.74,3.75,4.92.31,1.24.37,2.5.25,3.77-.09.95-.29,1.87-.67,2.74-.77,1.81-2.09,3.09-3.85,3.95-.95.46-1.95.76-2.99.94-.96.17-1.93.24-2.9.23-1.18,0-2.36,0-3.53,0-.13,0-.25,0-.37,0-.1.15-.06.29-.06.43,0,1.94,0,3.89,0,5.83,0,.87,0,1.74,0,2.61,0,.14-.01.28-.02.42h-5.15ZM77.62,13.58c.15,0,.27,0,.4,0,1.01,0,2.02,0,3.03,0,.45,0,.9-.02,1.34-.06.67-.07,1.31-.24,1.91-.54,1.1-.56,1.81-1.44,2.1-2.64.21-.88.21-1.77.01-2.66-.31-1.38-1.14-2.31-2.45-2.83-.58-.23-1.17-.36-1.79-.39-1.47-.08-2.94-.02-4.41-.03-.06,0-.11.03-.16.05-.04.7-.03,8.77.02,9.12Z"/>
    <path class="cls-1" d="M18.06,0v4.72c-.14.09-.29.05-.42.05-1.83,0-3.66,0-5.5,0-.14,0-.28,0-.44,0-.01.09-.03.16-.03.24,0,.09,0,.18,0,.27,0,5.56,0,11.11,0,16.67v.47c.15.06.3.04.43.04,1.83,0,3.66,0,5.5,0,.14,0,.28,0,.39.01.03.03.05.04.05.05,0,.01,0,.02,0,.04,0,1.46,0,2.92.01,4.38,0,.12,0,.23,0,.35H0C0,25.66,0,24.04,0,22.43c.08,0,.15.02.23.02,1.95,0,3.89,0,5.84,0,.13,0,.28.05.42-.06v-.41c0-5.57,0-11.13,0-16.7,0-.08,0-.15,0-.23,0-.08-.02-.17-.04-.27h-.44c-1.84,0-3.69,0-5.53,0-.13,0-.26,0-.38,0-.03,0-.06.04-.09.06C0,3.23,0,1.62,0,0h18.06Z"/>
    <path class="cls-1" d="M165.5,27.27c0-1.45,0-2.89,0-4.34,0-.14,0-.28,0-.41.14-.12.29-.07.42-.07,1.66,0,3.33,0,4.99,0,.26,0,.51,0,.77,0,.06,0,.12,0,.18-.01.04-.31.07-11.52.04-17.29,0-.11,0-.23-.01-.34-.15-.07-.29-.04-.43-.04-1.83,0-3.66,0-5.49,0-.14,0-.28,0-.44,0,0-.13-.02-.24-.02-.35,0-1.33,0-2.66,0-3.99,0-.14,0-.28,0-.42,6,0,11.99,0,17.99,0v4.72c-.14.1-.29.06-.42.06-1.83,0-3.66,0-5.49,0h-.44c-.02.08-.03.15-.04.23,0,.08,0,.15,0,.23,0,5.59,0,11.18,0,16.77,0,.14,0,.28,0,.44.25.03.48.01.7.01.24,0,.49,0,.73,0h3.49c.24,0,.49,0,.73,0,.23,0,.46-.01.66.01.03.03.04.04.05.05,0,.01,0,.02,0,.04,0,.06,0,.13,0,.19,0,1.51,0,3.02,0,4.53h-17.99Z"/>
    <path class="cls-1" d="M235.45,0c0,.13-.03.25-.03.38,0,7.22,0,14.44,0,21.65v.4c.1.01.17.03.24.03.42,0,.85,0,1.27,0,3.53,0,7.07,0,10.6,0,.15,0,.3.03.45-.03v4.84h-17.76c0-.18,0-.36,0-.54,0-8.76,0-17.52,0-26.28,0-.15,0-.31,0-.46,1.74,0,3.48,0,5.23,0Z"/>
  </g>
</svg>