<?xml version="1.0" encoding="UTF-8"?>
<svg id="Layer_1" xmlns="http://www.w3.org/2000/svg" viewBox="0 0 251.54 127.56">
  <defs>
    <style>
      .cls-1 {
        fill: #f2f2f2;
      }
    </style>
  </defs>
  <path class="cls-1" d="M150.02,60.58c5.49.28,8.73,1.11,10.48,2.51,1.5,1.39,2.25,4.18,2.25,8.64,0,5.29-1,8.92-2.74,10.31-1.75,1.67-5.99,2.23-12.23,2.23-5.74,0-9.48-.84-11.23-2.23-1.75-1.67-2.74-4.74-2.74-9.47v-1.39h6.74v.84c0,2.79.5,4.46,1.25,5.29,1,.56,3.24.84,7.24.84,2.99,0,4.99-.28,5.99-1.11.75-.84,1.25-2.51,1.25-5.02,0-1.95-.25-3.34-1-3.9-.75-.56-2-1.11-4.24-1.11l-3.74-.28c-5.74-.28-9.23-1.39-10.98-2.79-1.5-1.39-2.5-4.46-2.5-8.92,0-4.74,1-7.8,2.74-9.47,2-1.67,5.74-2.23,11.48-2.23s8.98.84,10.98,2.23c2,1.39,2.74,4.18,2.74,8.36v1.67h-6.74v-.84c-.25-2.23-.5-3.62-1.25-4.18s-2.5-.84-5.24-.84c-3.24,0-5.24.28-6.24,1.11-1,.56-1.5,1.95-1.5,4.18,0,2.51.5,4.18,1.25,4.46.75.28,3.24.84,7.98,1.11Z"/>
  <g>
    <path class="cls-1" d="M16.88,78.08c2.24,0,3.23-.88,3.23-3.5v-21.6c0-1.75-1.99-3.5-3.48-3.5H0v28.6h16.88Z"/>
    <path class="cls-1" d="M94.99,49.48c-2.24,0-3.23.88-3.23,3.5v21.6c0,1.75,1.99,3.5,3.48,3.5h16.63v-28.6h-16.88Z"/>
    <path class="cls-1" d="M98.47,84.21h-7.46c-3.23,0-4.98-2.33-4.98-7v-7.59c0-2.33-.75-3.79-2.24-3.5v-4.09c1.49-.58,2.24-1.75,2.24-4.09v-7.59c0-4.67,1.74-7,4.98-7h20.86v-8.85c0-1.87-1-3.59-2.61-4.53L58.55.7c-1.62-.93-3.61-.93-5.22,0L2.61,29.98c-1.62.93-2.61,2.66-2.61,4.53v8.85h20.86c3.23,0,4.98,2.33,4.98,7v7.59c0,2.33.75,3.79,2.24,3.5v4.09c-1.49.58-2.24,1.75-2.24,4.09v7.59c0,4.67-1.74,7-4.98,7H0v8.85c0,1.87,1,3.59,2.61,4.53l50.71,29.28c1.62.93,3.61.93,5.22,0l50.71-29.28c1.62-.93,2.61-2.66,2.61-4.53v-8.85h-13.4ZM54.71,49.33h-4c-2.57,0-3.71.88-3.71,3.54v21.82c0,1.77,2.28,3.54,4,3.54h3.71v6.19h-8.56c-3.71,0-5.71-2.36-5.71-7.08v-7.66c0-2.36-.86-3.83-2.57-3.54v-4.13c1.71-.59,2.57-1.77,2.57-4.13v-7.66c0-4.72,2-7.08,5.71-7.08h8.56v6.19ZM74,66.14c-1.71-.29-2.57,1.18-2.57,3.54v7.66c0,4.72-2,7.08-5.71,7.08h-8.56v-6.19h3.71c1.71,0,4-1.77,4-3.54v-21.82c0-2.65-1.14-3.54-3.71-3.54h-4v-6.19h8.56c3.71,0,5.71,2.36,5.71,7.08v7.66c0,2.36.86,3.54,2.57,4.13v4.13Z"/>
  </g>
  <g>
    <path class="cls-1" d="M175.04,66.14v-4.13c1.71-.59,2.57-1.77,2.57-4.13v-7.66c0-4.72,2-7.08,5.71-7.08h8.56v6.19h-4c-2.57,0-3.71.88-3.71,3.54v21.82c0,1.77,2.28,3.54,4,3.54h3.71v6.19h-8.56c-3.71,0-5.71-2.36-5.71-7.08v-7.66c0-2.36-.86-3.83-2.57-3.54Z"/>
    <path class="cls-1" d="M208.6,69.68v7.66c0,4.72-2,7.08-5.71,7.08h-8.56v-6.19h3.71c1.71,0,4-1.77,4-3.54v-21.82c0-2.65-1.14-3.54-3.71-3.54h-4v-6.19h8.56c3.71,0,5.71,2.36,5.71,7.08v7.66c0,2.36.86,3.54,2.57,4.13v4.13c-1.71-.29-2.57,1.18-2.57,3.54Z"/>
  </g>
  <path class="cls-1" d="M231.43,63.78v-10.8c0-2.63,1-3.5,3.23-3.5h16.88v-6.13h-20.86c-3.23,0-4.98,2.33-4.98,7v7.59c0,2.33-.75,3.5-2.24,4.09v4.09c1.49-.29,2.24,1.17,2.24,3.5v7.59c0,4.67,1.74,7,4.98,7h20.86v-6.13h-16.63c-1.49,0-3.48-1.75-3.48-3.5v-10.8Z"/>
</svg>