<?xml version="1.0" encoding="UTF-8"?>
<svg id="Layer_1" xmlns="http://www.w3.org/2000/svg" viewBox="0 0 103.83 106.94">
  <defs>
    <style>
      .cls-1 {
        fill: #f2f2f2;
      }
    </style>
  </defs>
  <path class="cls-1" d="M66.31,89.62s-.03,0-.04-.01h-28.59s-.02.01-.05.01c-.49,0-.98.18-1.35.55-.73.73-.73,1.91,0,2.65l13.45,13.45c1.47,1.01,3.49.87,4.8-.44.06-.06.13-.09.21-.11l12.95-12.95c.69-.74.67-1.89-.04-2.61-.37-.37-.85-.55-1.33-.55ZM64.21,35.92c0-.79-.64-1.42-1.42-1.42s-1.42.64-1.42,1.42.64,1.42,1.42,1.42,1.42-.64,1.42-1.42ZM103.27,49.71s-.03-.04-.04-.06L54.81,1.23c-.09.01-.18-.03-.29-.13-.09-.09-.18-.17-.28-.25-.03-.03-.07-.05-.1-.07-.06-.05-.13-.1-.19-.14-.04-.03-.08-.05-.13-.08-.06-.04-.12-.07-.18-.11-.05-.03-.09-.05-.14-.07-.06-.03-.12-.06-.18-.08-.05-.02-.1-.04-.16-.06-.06-.02-.12-.04-.17-.06-.06-.02-.11-.03-.17-.05-.06-.01-.11-.03-.17-.04-.06-.01-.12-.02-.18-.03-.06,0-.11-.02-.16-.02-.06,0-.12-.01-.19-.02-.05,0-.1,0-.16,0-.07,0-.13,0-.2,0-.05,0-.1,0-.15,0-.07,0-.14,0-.2.02-.04,0-.09.01-.13.02-.07.01-.14.02-.22.04-.04,0-.07.02-.11.03-.08.02-.15.04-.23.06-.03,0-.05.02-.08.03-.54.18-1.04.48-1.47.9h.04L.28,50.05c-.45.73-.36,1.69.27,2.32.37.38.87.56,1.36.55.01,0,.02,0,.02.01h33.06c.16-1.59,1.49-2.83,3.12-2.83h9.51v-4.75h-9.36c-1.73,0-3.14-1.41-3.14-3.14v-.4h-1.49c-2.08,0-3.77-1.69-3.77-3.77v-7.77c0-2.08,1.69-3.77,3.77-3.77h1.49v-.97c0-1.73,1.41-3.14,3.14-3.14h27.1c1.73,0,3.14,1.41,3.14,3.14v.97h2.88c2.08,0,3.77,1.69,3.77,3.77v7.77c0,2.08-1.69,3.77-3.77,3.77h-2.88v.4c0,1.73-1.41,3.14-3.14,3.14h-9.72v4.75h9.57c1.63,0,2.97,1.24,3.12,2.83h33.67s.02-.01.04-.01c.44-.03.88-.21,1.22-.55.74-.74.74-1.93,0-2.66ZM73.63,37.27v-6.25c0-1.67-1.36-3.03-3.03-3.03h-2.1v12.31h2.1c1.67,0,3.03-1.36,3.03-3.03ZM31.38,31.03v6.25c0,1.67,1.36,3.03,3.03,3.03h.71v-12.31h-.71c-1.67,0-3.03,1.36-3.03,3.03ZM40.23,35.92c0,.83.67,1.51,1.51,1.51s1.51-.67,1.51-1.51-.67-1.51-1.51-1.51-1.51.68-1.51,1.51ZM75.71,65.27c0-1.78-.36-3.34-1.07-4.68-.71-1.34-1.76-2.41-3.12-3.21-1.79-.99-4.59-1.49-8.41-1.49h-7.23v29.24h2.92v-26.59h4.12c2.99,0,5.23.35,6.73,1.06.99.48,1.76,1.2,2.29,2.16.53.97.8,2.12.8,3.46,0,3.22-1.41,5.25-4.23,6.09-1.34.37-3.58.56-6.73.56l9.86,13.26h3.63l-8.2-10.92c2.81-.3,4.95-1.21,6.43-2.73,1.48-1.53,2.21-3.6,2.21-6.21ZM92.83,70.74c-.63-.45-1.33-.84-2.1-1.18-.77-.33-1.88-.72-3.35-1.16-1.34-.4-2.3-.72-2.87-.97-.57-.24-1.06-.53-1.46-.87-.43-.39-.76-.88-1.01-1.49-.24-.61-.37-1.24-.37-1.91,0-1.48.48-2.7,1.43-3.66.95-.96,2.16-1.44,3.63-1.44s2.7.48,3.64,1.43c.95.95,1.47,2.22,1.58,3.81h3.05c-.05-2.37-.83-4.28-2.34-5.74-1.51-1.46-3.46-2.18-5.86-2.18s-4.3.74-5.83,2.21c-1.53,1.48-2.29,3.36-2.29,5.65,0,1.02.18,1.99.54,2.91.36.92.87,1.68,1.53,2.29.58.55,1.21,1,1.88,1.32.68.33,1.87.76,3.57,1.28,2.1.62,3.62,1.25,4.56,1.89,1.31.94,1.97,2.34,1.97,4.19,0,1.69-.54,3.08-1.63,4.17-1.09,1.1-2.47,1.64-4.15,1.64-.92,0-1.78-.18-2.6-.54-.82-.36-1.49-.86-2.02-1.51-.44-.52-.77-1.07-1-1.67-.23-.6-.38-1.36-.47-2.29h-3.13c.14,2.63,1.04,4.74,2.71,6.33,1.66,1.59,3.81,2.39,6.44,2.39s4.65-.82,6.32-2.47c1.67-1.65,2.51-3.72,2.51-6.2,0-1.28-.25-2.46-.76-3.56-.51-1.09-1.22-1.99-2.14-2.69Z"/>
  <g>
    <rect class="cls-1" x="12.89" y="55.9" width="5.43" height="29.24"/>
    <path class="cls-1" d="M41.6,79.63c-1.11.53-2.37.79-3.78.79-1.78,0-3.42-.45-4.93-1.34-1.51-.9-2.7-2.11-3.58-3.64-.88-1.53-1.31-3.19-1.31-4.99,0-1.2.22-2.39.65-3.58.43-1.19,1.02-2.21,1.77-3.07,1.8-2.14,4.23-3.21,7.29-3.21,1.7,0,3.16.29,4.37.88,1.21.59,2.31,1.52,3.31,2.81h6.07c-.55-1.22-1.11-2.22-1.68-3-.57-.77-1.31-1.56-2.24-2.36-1.37-1.15-2.9-2.03-4.61-2.64-1.71-.61-3.48-.92-5.32-.92-2.04,0-3.98.4-5.84,1.2-1.86.8-3.45,1.87-4.79,3.21-1.34,1.34-2.41,2.94-3.21,4.79-.8,1.86-1.2,3.8-1.2,5.84,0,1.39.18,2.75.55,4.07.37,1.32.88,2.54,1.54,3.65.66,1.11,1.46,2.14,2.41,3.07.95.93,1.98,1.73,3.1,2.39,1.12.66,2.35,1.17,3.68,1.53,1.33.36,2.7.54,4.11.54,3,0,5.72-.78,8.15-2.34,2.43-1.56,4.22-3.67,5.36-6.34h-6.38c-1.2,1.24-2.36,2.12-3.47,2.65Z"/>
  </g>
</svg>