<?xml version="1.0" encoding="UTF-8"?>
<svg id="Layer_1" xmlns="http://www.w3.org/2000/svg" viewBox="0 0 248.3 113.39">
  <defs>
    <style>
      .cls-1 {
        fill: #f2f2f2;
      }
    </style>
  </defs>
  <path class="cls-1" d="M132.17,113.39c-1.02-.28-2.07-.46-3.04-.86-4.35-1.8-6.78-5.16-7.5-9.73-.64-4.06.35-7.74,3.08-10.85,5.23-5.95,14.43-5.43,19.03,1.01,3.63,5.09,3.17,12.3-1.11,16.82-1.86,1.96-4.17,3.08-6.83,3.48-.16.03-.32.08-.49.13h-3.13ZM139.24,101.43c0-2.38-.39-3.86-1.13-5.07-1.94-3.16-6.28-3.3-8.41-.27-1.76,2.52-1.75,6.61.03,9.11,1.95,2.74,5.94,2.85,8.01.2,1.09-1.39,1.49-3.01,1.5-3.97Z"/>
  <path class="cls-1" d="M66.94,113.39c-.51-.13-1.03-.27-1.54-.38-4.07-.89-6.68-3.45-7.39-7.3-.1-.55-.17-1.12-.17-1.68-.01-4.09-.02-8.18,0-12.26,0-2.16,1.4-3.64,3.41-3.68,2.02-.04,3.49,1.44,3.5,3.56.01,3.89,0,7.78,0,11.68,0,1.82.66,3.29,2.39,4.07,1.79.8,3.53.65,5.08-.6,1.02-.82,1.41-1.94,1.41-3.23,0-3.83,0-7.65,0-11.48,0-.5.04-1.01.17-1.48.42-1.64,1.87-2.63,3.58-2.49,1.71.14,2.96,1.33,3.14,3.03.02.22.05.43.05.65-.02,4.39.08,8.79-.09,13.17-.15,4.01-3.11,7.09-7.35,8.04-.58.13-1.16.27-1.74.4h-4.44Z"/>
  <path class="cls-1" d="M248.3,68.11c-.39,1.19-1.35,1.43-2.43,1.43-2.11,0-4.22,0-6.33,0-3.2,0-6.39,0-9.59,0h-.77c.04,2.46.86,4.48,2.78,5.97,1.8,1.39,3.9,1.7,6.11,1.55,2.26-.15,4.27-.94,6.06-2.31.36-.28.74-.54,1.13-.76.74-.42,1.45-.33,1.98.19.53.53.71,1.47.29,2.1-.34.52-.77,1.02-1.26,1.39-2.37,1.79-5.09,2.69-8.02,2.95-2.55.23-5.04-.09-7.35-1.27-3.13-1.6-4.94-4.24-5.73-7.6-.97-4.12-.58-8.07,1.87-11.61,2.87-4.15,7.01-5.61,11.86-4.79,4.66.79,7.45,3.82,8.87,8.22.22.67.36,1.36.53,2.05v2.48ZM243.86,66.38c-.16-2.81-1.03-5.26-3.55-6.67-2.66-1.49-5.47-1.44-8.04.23-2.26,1.47-2.93,3.84-3.08,6.44h14.67Z"/>
  <path class="cls-1" d="M0,54.02c.12-.44.23-.88.37-1.31,1.23-3.83,5.05-6.12,9.06-5.46,3.82.63,6.69,4.08,6.64,7.97-.05,4-2.95,7.32-6.87,7.9-4.07.6-7.95-1.99-8.96-5.97-.06-.22-.15-.44-.23-.66,0-.83,0-1.65,0-2.48Z"/>
  <path class="cls-1" d="M31.18,0c.34.12.7.23,1.03.38,2.11.94,3.22,3.2,2.67,5.42-.55,2.2-2.6,3.71-4.83,3.57-2.26-.15-4.1-1.85-4.37-4.03-.3-2.36,1.02-4.44,3.25-5.15.18-.06.37-.12.55-.19.57,0,1.13,0,1.7,0Z"/>
  <path class="cls-1" d="M62.28,53.43c6.84,0,12.22,5.44,12.22,12.35,0,6.65-5.5,12.09-12.22,12.11-6.75.01-12.25-5.45-12.29-12.21-.04-6.75,5.47-12.26,12.29-12.26Z"/>
  <path class="cls-1" d="M74.36,20.96c1.96-2.45,4.5-3.18,7.38-3.02,2.94.17,5.09,1.67,6.71,4.11.53-.56,1.01-1.11,1.53-1.62,3.68-3.59,10.57-3.33,13.92.55,1.46,1.69,2.08,3.7,2.1,5.89.03,4.78.02,9.57,0,14.35,0,1.86-1.88,2.91-3.46,1.9-.41-.26-.69-.8-.9-1.28-.15-.36-.12-.81-.12-1.22,0-4.52,0-9.04,0-13.57,0-2.44-1.16-4.3-3.15-5.09-2.35-.94-5.25-.44-6.8,1.2-1.08,1.14-1.42,2.56-1.42,4.08,0,4.63,0,9.26,0,13.89,0,1.63-1.06,2.53-2.67,2.3-1.03-.15-1.71-.88-1.77-1.94-.01-.22,0-.43,0-.65,0-4.48,0-8.96,0-13.43,0-.58-.05-1.18-.17-1.75-.54-2.47-2.41-4.03-4.95-4.12-.77-.02-1.58,0-2.33.18-2.5.58-3.93,2.58-3.93,5.43,0,4.48,0,8.96,0,13.43,0,.22,0,.44,0,.65-.09,1.51-.9,2.26-2.4,2.21-1.31-.05-2.07-.89-2.07-2.33,0-6.98,0-13.96,0-20.93,0-1.87,1.81-2.9,3.45-1.98.57.32.89.81.97,1.46.05.38.07.76.11,1.29Z"/>
  <path class="cls-1" d="M214.5,77.19c-1.28,1.81-2.9,2.92-4.95,3.32-4.45.87-9-1.07-11.47-4.88-3.37-5.17-2.83-12.53,1.27-17.03,3.22-3.52,9.32-4.76,13.55-1.76.55.39,1.04.84,1.67,1.36,0-.38-.01-.69,0-.99.06-1.36.89-2.06,2.41-2.03,1.27.02,2.06.81,2.06,2.1,0,7.28.09,14.57-.03,21.85-.07,4.71-2.06,8.4-6.56,10.37-2.47,1.08-5.08,1.27-7.73.88-1.95-.28-3.83-.8-5.56-1.77-.71-.4-1.38-.9-1.98-1.46-.69-.65-.74-1.49-.28-2.27.39-.65,1.23-1.04,2.04-.79.72.22,1.41.56,2.07.93,1.48.84,2.99,1.66,4.71,1.79,1.24.09,2.54.11,3.75-.15,2.89-.61,4.74-2.94,5.01-6.08.09-1.07.01-2.16.01-3.39ZM200.36,67.99c.02,1.6.27,3.27.97,4.84,1.15,2.59,3.09,4.11,5.96,4.24,3.02.14,5.3-1.13,6.58-3.87,1.62-3.45,1.62-6.99.06-10.47-1.19-2.65-3.34-4.01-6.25-4-2.88,0-4.96,1.37-6.22,3.96-.79,1.63-1.08,3.38-1.11,5.28Z"/>
  <path class="cls-1" d="M91.34,90.38c2.81-3.63,10.5-3.21,13.56-.07,1.69,1.73,2.5,3.79,2.51,6.17.01,4.31,0,8.61,0,12.92,0,2.27-1.37,3.74-3.45,3.73-2.07,0-3.46-1.49-3.46-3.75,0-3.83,0-7.65,0-11.48,0-1.34-.31-2.57-1.38-3.45-1.54-1.27-3.3-1.41-5.08-.66-1.75.74-2.39,2.28-2.4,4.07-.03,3.76,0,7.52-.01,11.29,0,.41,0,.83-.09,1.23-.38,1.83-1.84,2.89-3.71,2.74-1.77-.14-3.09-1.53-3.1-3.43-.03-6.04-.04-12.09,0-18.13.02-2.58,2.36-4.11,4.8-3.25.99.35,1.54,1.07,1.82,2.08Z"/>
  <path class="cls-1" d="M156.08,90.26c2.49-2.7,5.78-2.82,9.17-2.14,4.22.85,6.74,4.11,6.78,8.59.04,4.19.02,8.39,0,12.58-.01,2.72-1.95,4.34-4.4,3.71-1.39-.36-2.16-1.31-2.43-2.69-.09-.44-.11-.91-.11-1.36,0-3.74,0-7.48,0-11.22,0-1.77-.66-3.22-2.36-3.94-1.75-.74-3.5-.67-5.03.59-1.08.89-1.44,2.13-1.44,3.5,0,3.7,0,7.39,0,11.09,0,.48-.02.96-.11,1.43-.36,1.75-1.73,2.79-3.53,2.72-1.71-.06-2.98-1.23-3.22-3-.05-.36-.08-.74-.08-1.1,0-5.63,0-11.26,0-16.89,0-.43.03-.87.12-1.3.47-2.44,3.41-3.64,5.41-2.16.53.39.85,1.05,1.26,1.58Z"/>
  <path class="cls-1" d="M117.76,40.23c0,.23,0,.46,0,.69,0,2.72,0,5.44,0,8.15,0,1.81-1.49,2.8-3.18,2.13-.63-.25-1.04-.71-1.19-1.37-.07-.32-.11-.65-.11-.97,0-9.48,0-18.96,0-28.44,0-1.88,1.13-2.83,2.88-2.44.97.22,1.54.9,1.59,1.96.02.41,0,.81,0,1.3.14-.1.19-.12.22-.17,1.33-2.06,3.34-2.88,5.67-3.1,3.6-.34,6.76.6,9.3,3.26,1.91,2,2.95,4.44,3.33,7.15.54,3.78-.11,7.32-2.32,10.49-3.06,4.4-9.13,5.89-13.59,3.36-.47-.27-.92-.58-1.33-.93-.4-.35-.74-.78-1.1-1.18-.06.03-.12.06-.18.09ZM131.99,30.95c-.01-2.34-.41-4.31-1.45-6.14-2.5-4.41-9.04-4.27-11.51-.41-1.03,1.62-1.54,3.39-1.67,5.28-.17,2.59.2,5.08,1.68,7.29,2.45,3.66,8.01,3.94,10.81.54,1.63-1.98,2.09-4.34,2.13-6.56Z"/>
  <path class="cls-1" d="M216.49,21.24c0-.55-.02-.96,0-1.36.09-1.21.99-2.03,2.15-1.98,1.21.06,2.01.87,2.01,2.11,0,7.11,0,14.21,0,21.32,0,1.29-.8,2.1-2.05,2.11-1.25.01-2.07-.78-2.12-2.06-.02-.5,0-.99,0-1.6-.16.13-.24.18-.3.25-2.65,3.21-6.09,4.03-9.98,3.08-4.57-1.11-7.25-4.21-8.39-8.64-1.16-4.54-.47-8.8,2.48-12.56,3.43-4.37,11.2-5.81,15.71-1.08.1.11.23.2.48.41ZM216.46,30.75c-.04-1.84-.31-3.59-1.09-5.22-1.18-2.45-3.09-3.87-5.86-4-3-.14-5.27,1.11-6.55,3.81-1.65,3.49-1.65,7.07-.05,10.58,1.19,2.62,3.33,3.94,6.22,3.93,2.86-.01,4.91-1.35,6.18-3.91.82-1.65,1.09-3.42,1.15-5.2Z"/>
  <path class="cls-1" d="M172.53,69.54c-.34,2.94,1.75,6.08,4.73,7.04,3.17,1.01,6.22.6,9.08-1.12.67-.4,1.28-.9,1.94-1.33.91-.59,1.71-.54,2.3.11.6.67.67,1.72-.02,2.43-.67.7-1.42,1.36-2.26,1.83-3.47,1.96-7.18,2.66-11.12,1.87-3.76-.76-6.51-2.87-7.98-6.42-1.82-4.39-1.74-8.8.6-13,2.45-4.38,7.18-6.48,12.39-5.63,4.42.72,8.12,4.42,9.06,9.15.21,1.06.26,2.15.28,3.23.02.99-.48,1.53-1.45,1.71-.45.08-.91.11-1.36.11-5.13,0-10.26,0-15.39,0-.26,0-.52,0-.81,0ZM187.09,66.38c.15-4.57-3.22-7.85-7.79-7.64-4.06.19-7.23,3.74-6.76,7.64h14.55Z"/>
  <path class="cls-1" d="M145.28,32.29c-.12,3.1,1.73,6.59,5.87,7.36,3.1.58,6,0,8.61-1.84.51-.36,1.02-.75,1.56-1.06.73-.42,1.46-.32,1.98.2.52.52.7,1.48.29,2.11-.31.48-.69.98-1.16,1.3-4.75,3.26-9.86,4.18-15.24,1.85-3.47-1.5-5.3-4.46-6.06-8.07-.82-3.87-.39-7.58,1.77-10.96,2.72-4.25,7.4-5.84,11.86-5.09,4.7.78,8.18,4.22,9.23,9.04.22,1.03.3,2.11.32,3.17.03,1.26-.53,1.82-1.78,1.96-.3.03-.61.04-.91.04-5.17,0-10.35,0-15.52,0-.28,0-.56,0-.83,0ZM145.27,29.12h14.54c.49-3.59-2.71-7.38-6.36-7.59-4.98-.28-8.27,2.74-8.19,7.59Z"/>
  <path class="cls-1" d="M42.04,73.51c-.01,5.2-4.22,9.37-9.45,9.36-5.24-.01-9.4-4.22-9.38-9.5.02-5.16,4.23-9.33,9.42-9.33,5.24,0,9.42,4.21,9.41,9.47Z"/>
  <path class="cls-1" d="M140.61,67.01c.09,5.99-2.52,11.15-7.58,12.94-6.43,2.29-13.95-.53-15.72-8.97-.7-3.33-.37-6.6,1.23-9.63,2.33-4.41,6.08-6.37,11.02-6.18,5.07.2,9.22,3.68,10.54,8.93.28,1.13.4,2.3.5,2.91ZM136.15,68.04c-.03-2.03-.35-3.92-1.28-5.66-1.29-2.4-3.33-3.62-6.03-3.63-2.7,0-4.75,1.18-6.06,3.58-.73,1.34-1.11,2.78-1.23,4.29-.23,2.75.13,5.39,1.75,7.71,2.51,3.61,8.11,3.76,10.82.3,1.53-1.95,1.98-4.25,2.05-6.59Z"/>
  <path class="cls-1" d="M105.55,80.78c-6.57-.07-11.22-4.16-12.02-10.66-.39-3.13-.06-6.16,1.44-8.99,1.96-3.69,5.12-5.57,9.22-5.92,2.02-.17,4.06-.09,5.98.65.68.26,1.33.65,1.89,1.11.66.54.81,1.33.48,2-.35.73-.95,1.18-1.77,1.05-.7-.11-1.39-.32-2.04-.6-2.92-1.24-6.13-.79-8.2,1.24-1.39,1.35-2.11,3.06-2.47,4.93-.45,2.39-.26,4.72.71,6.96,1.74,4.05,6.02,5.66,10.04,3.82.49-.23.99-.46,1.5-.61.81-.24,1.59.04,1.97.63.41.64.38,1.49-.13,2.14-.86,1.08-2.09,1.54-3.38,1.81-1.06.22-2.15.29-3.22.43Z"/>
  <path class="cls-1" d="M111.5,100.58c0-2.98-.01-5.95,0-8.93.02-2.46,1.95-4,4.32-3.45,1.34.31,2.33,1.41,2.52,2.83.05.34.06.69.06,1.04,0,5.67,0,11.34,0,17.01,0,.41-.01.83-.08,1.23-.3,1.76-1.69,2.86-3.52,2.82-1.72-.04-3.02-1.23-3.25-2.97-.04-.28-.05-.56-.05-.84,0-2.91,0-5.82,0-8.73Z"/>
  <path class="cls-1" d="M227.75,25.18c0-5.28,0-10.57,0-15.85,0-1.78,1.21-2.73,2.92-2.29.82.21,1.32.72,1.47,1.56.06.32.09.65.09.97,0,10.44,0,20.87,0,31.31,0,1.72-.75,2.57-2.24,2.57-1.42,0-2.22-.79-2.23-2.22-.01-2.15,0-4.31,0-6.46,0-3.2,0-6.39,0-9.59Z"/>
  <path class="cls-1" d="M174.3,22.06c.67-.78,1.25-1.53,1.92-2.19,1.09-1.07,2.38-1.81,3.95-1.95,1.33-.12,2.42.56,2.67,1.67.19.85-.09,1.66-.87,2.06-.59.3-1.24.54-1.89.66-3.6.66-5.77,3.2-5.78,6.86-.01,3.96,0,7.91,0,11.87,0,1.77-1.18,2.74-2.84,2.37-.92-.21-1.47-.8-1.6-1.74-.03-.19-.03-.39-.03-.58,0-6.93,0-13.86,0-20.8,0-1.76,1.16-2.67,2.88-2.28.99.23,1.56.99,1.6,2.17.02.62,0,1.24,0,1.89Z"/>
  <path class="cls-1" d="M150.98,64.43c0,4.65,0,9.3,0,13.96,0,1.53-.89,2.38-2.35,2.31-1.31-.06-2.1-.86-2.1-2.17,0-9.43,0-18.87,0-28.3,0-1.35.87-2.18,2.22-2.18,1.36,0,2.22.81,2.22,2.18.02,4.74,0,9.48,0,14.22Z"/>
  <path class="cls-1" d="M158.08,64.32c0-4.65,0-9.3,0-13.95,0-1.75,1.27-2.7,2.97-2.22.79.22,1.27.74,1.41,1.54.07.38.09.78.09,1.17,0,9.02,0,18.04,0,27.06,0,.26-.01.52-.04.78-.15,1.34-1,2.06-2.33,2-1.34-.06-2.1-.85-2.1-2.23,0-4.72,0-9.43,0-14.15Z"/>
  <path class="cls-1" d="M6.99,30.68c-3.42,0-6.13-2.7-6.14-6.11,0-3.42,2.75-6.18,6.17-6.17,3.38,0,6.15,2.77,6.15,6.14,0,3.42-2.74,6.15-6.19,6.15Z"/>
  <path class="cls-1" d="M186.95,30.66c0-3.48,0-6.95,0-10.43,0-1.47.82-2.33,2.21-2.32,1.36,0,2.23.84,2.24,2.25.01,7.02.01,14.04,0,21.06,0,1.25-.67,2.05-1.78,2.22-1.24.19-2.25-.34-2.56-1.38-.09-.3-.1-.64-.11-.96,0-3.48,0-6.95,0-10.43Z"/>
  <path class="cls-1" d="M58.3,30.66c0-3.46,0-6.91,0-10.37,0-1.76,1.15-2.68,2.86-2.3.99.22,1.58.97,1.59,2.1.02,1.39,0,2.78,0,4.17,0,5.63,0,11.26,0,16.89,0,1.64-1.14,2.57-2.75,2.27-1.09-.2-1.7-.97-1.7-2.2,0-3.22,0-6.43,0-9.65,0-.3,0-.61,0-.91Z"/>
  <path class="cls-1" d="M60.43,6.92c1.97,0,3.55,1.57,3.57,3.55.02,1.99-1.61,3.61-3.59,3.59-1.97-.02-3.54-1.62-3.53-3.59,0-1.97,1.59-3.56,3.56-3.56Z"/>
  <path class="cls-1" d="M189.19,9.5c1.55,0,2.73,1.1,2.72,2.54,0,1.4-1.27,2.56-2.76,2.55-1.52-.02-2.72-1.15-2.72-2.58,0-1.43,1.19-2.51,2.75-2.51Z"/>
</svg>