<?xml version="1.0" encoding="UTF-8"?>
<svg id="Layer_1" xmlns="http://www.w3.org/2000/svg" viewBox="0 0 425.2 46.76">
  <defs>
    <style>
      .cls-1 {
        fill: #f2f2f2;
      }
    </style>
  </defs>
  <path class="cls-1" d="M53.91,46.76c.02-.06.06-.12.06-.18,0-.22,0-.44,0-.66,0-15.05,0-30.1,0-45.15,0-.26-.04-.52-.06-.78,4.22,0,8.44,0,12.65,0,.04.08.08.16.11.24,3.03,7.41,6.05,14.82,9.08,22.23.59,1.44,1.17,2.89,1.77,4.32.07.17.06.41.32.49.1-.22.2-.43.29-.65,3.17-7.75,6.34-15.51,9.5-23.26.46-1.12.9-2.24,1.34-3.36,4.22,0,8.44,0,12.65,0,0,.26-.02.53-.02.79,0,15.02,0,30.04,0,45.05,0,.31.01.61.02.92h-8.44c0-1.43,0-2.85,0-4.28,0-9.86,0-19.71,0-29.57,0-.18,0-.35,0-.53,0-.09.06-.22-.13-.26-3.54,8.09-7.06,16.19-10.59,24.26-.7.08-8.83.07-9.37-.01-.08-.18-.17-.37-.26-.57-2.71-6.21-5.42-12.42-8.13-18.63-.67-1.53-1.33-3.06-2-4.58-.05-.12-.05-.32-.28-.33-.1.25-.05.51-.05.76,0,11.02,0,22.04,0,33.06,0,.18,0,.35,0,.53,0,.05.06.1.09.16h-8.57Z"/>
  <path class="cls-1" d="M248.05,0c.2.18.46.11.69.12,1.95.14,3.88.45,5.74,1.08.7.24,1.4.52,2.06.85,3.26,1.61,5.33,4.2,6.27,7.7.51,1.91.62,3.85.54,5.81-.06,1.39-.29,2.75-.72,4.07-.89,2.75-2.54,4.94-4.92,6.55-.6.4-1.25.73-1.87,1.09-.17.1-.35.18-.56.29.1.21.19.4.28.59,3.12,5.96,6.25,11.92,9.36,17.88.12.23.31.43.27.72h-9.75c-.03-.08-.06-.16-.1-.24-2.92-5.6-5.85-11.19-8.77-16.79-.06-.11-.14-.22-.2-.3-1.99-.09-8.07-.05-8.62.06-.01.16-.03.33-.03.5,0,5.49,0,10.97,0,16.46,0,.1.04.21.06.31h-8.96c0-.31.01-.61.01-.92,0-15.02,0-30.04,0-45.05,0-.26,0-.53-.01-.79,6.41,0,12.83,0,19.24,0ZM237.71,21.85c.28,0,.5.02.71.02,2.24,0,4.48,0,6.72,0,.88,0,1.76-.02,2.63-.15.96-.14,1.9-.35,2.78-.76,1.52-.7,2.55-1.84,3.05-3.44.53-1.69.57-3.42.19-5.14-.39-1.78-1.46-3.07-3.12-3.83-.46-.21-.94-.38-1.42-.52-1.28-.37-2.59-.46-3.91-.47-2.35-.01-4.7,0-7.05,0-.17,0-.34.02-.52.03-.03.09-.06.15-.06.21,0,4.65,0,9.31,0,14.04Z"/>
  <path class="cls-1" d="M359.43,0c.04.21.07.43.13.63,1.47,4.45,2.93,8.91,4.4,13.36,3.54,10.71,7.08,21.42,10.61,32.14.07.2.09.42.14.64h-9.36c-.02-.15-.02-.3-.06-.44-.97-3.14-1.95-6.28-2.92-9.41-.04-.14-.1-.28-.14-.41-.55-.08-16.83-.09-17.43,0-.05.15-.11.31-.16.47-.87,2.8-1.74,5.61-2.61,8.41-.14.46-.26.92-.39,1.38h-9.36c.13-.44.26-.88.4-1.32,4.62-13.98,9.23-27.97,13.85-41.95.38-1.17.78-2.33,1.17-3.49,3.91,0,7.82,0,11.73,0ZM359.87,28.84c-.52-1.74-1.05-3.42-1.58-5.11-.53-1.69-1.05-3.39-1.58-5.08-.53-1.69-1.05-3.39-1.58-5.08-.52-1.68-1.03-3.36-1.58-5.04-.06.04-.08.04-.1.06-.03.03-.06.07-.07.11-2.07,6.67-4.13,13.34-6.2,20.02,0,.02,0,.04,0,.06,0,.02.02.03.04.07h12.62Z"/>
  <path class="cls-1" d="M176.48,46.76c-.02-.24-.05-.48-.05-.72,0-15.13,0-30.26,0-45.39,0-.22.03-.43.05-.65,10.1,0,20.21,0,30.31,0,0,.57-.02,1.14-.02,1.71,0,1.91,0,3.82,0,5.73,0,.22,0,.43,0,.69-.15.02-.27.05-.4.06-.18,0-.35,0-.53,0-6.59,0-13.18,0-19.77,0-.24,0-.47,0-.67.01-.06.05-.08.07-.09.08-.01.02-.02.04-.02.06,0,3.4-.01,6.8-.01,10.2,0,.09.02.17.03.26,0,.02.03.03.08.1.5.03,1.04,0,1.59.01.53,0,1.05,0,1.58,0h13.05c.53,0,1.05,0,1.58,0,.54,0,1.09,0,1.6,0,.05.1.09.14.09.18,0,2.5,0,5,0,7.51,0,.06-.03.12-.06.22-.81.07-1.61.02-2.42.03-.81,0-1.63,0-2.44,0h-14.58c-.05.06-.07.07-.08.09-.01.02-.02.04-.02.06,0,3.62,0,7.24-.01,10.86,0,.17,0,.35,0,.56.15.02.27.05.39.05.2,0,.4,0,.59,0,6.57,0,13.13,0,19.7,0,.24,0,.47.01.76.02.01.22.04.41.04.6,0,2.44,0,4.87,0,7.31,0,.11.01.22.02.33h-30.31Z"/>
  <path class="cls-1" d="M124.16,46.76c0-.35,0-.7,0-1.05,0-14.97,0-29.95,0-44.92,0-.26,0-.53,0-.79,6.11,0,12.21,0,18.32,0,0,.17.14.13.23.14,1.31.13,2.61.33,3.89.66,1.47.38,2.89.9,4.21,1.65,3.36,1.88,5.5,4.7,6.42,8.43.53,2.13.64,4.28.44,6.47-.15,1.63-.5,3.2-1.15,4.71-1.33,3.1-3.59,5.31-6.6,6.77-1.63.79-3.35,1.3-5.13,1.61-1.65.29-3.31.41-4.98.4-2.02-.01-4.04,0-6.06,0-.22,0-.43,0-.64,0-.16.26-.09.51-.1.74,0,3.33,0,6.67,0,10,0,1.49,0,2.98,0,4.47,0,.24-.02.48-.03.72h-8.83ZM133.09,23.29c.25,0,.47,0,.69,0,1.73,0,3.47.01,5.2,0,.77,0,1.54-.04,2.3-.11,1.14-.11,2.24-.41,3.27-.93,1.89-.95,3.11-2.46,3.61-4.52.37-1.52.36-3.04.02-4.56-.53-2.37-1.96-3.97-4.2-4.85-.99-.39-2.01-.61-3.07-.67-2.52-.14-5.05-.04-7.57-.06-.1,0-.2.05-.28.08-.07,1.2-.04,15.04.04,15.63Z"/>
  <path class="cls-1" d="M30.97,0v8.1c-.25.15-.49.09-.72.09-3.14,0-6.28,0-9.42,0-.24,0-.48,0-.76,0-.02.16-.04.28-.05.41,0,.15,0,.31,0,.46,0,9.53,0,19.06,0,28.58v.8c.26.1.51.06.74.06,3.14,0,6.28,0,9.42,0,.24,0,.48.01.67.02.06.05.08.06.09.08.01.02.02.04.02.06,0,2.5.01,5,.02,7.51,0,.2,0,.39,0,.59H0C0,43.99,0,41.23,0,38.46c.13.01.26.04.39.04,3.34,0,6.68,0,10.01,0,.23,0,.48.08.72-.1v-.71c0-9.55,0-19.09,0-28.64,0-.13,0-.26,0-.39-.01-.15-.04-.29-.07-.46h-.75c-3.16,0-6.32,0-9.49,0-.22,0-.44,0-.66,0-.05,0-.1.07-.15.1C0,5.54,0,2.78,0,0h30.97Z"/>
  <path class="cls-1" d="M283.77,46.76c0-2.48,0-4.96.01-7.43,0-.24,0-.48,0-.71.24-.2.49-.12.72-.12,2.85,0,5.71,0,8.56,0,.44,0,.88,0,1.32,0,.1,0,.21-.01.3-.02.08-.53.12-19.75.07-29.64,0-.19-.02-.39-.02-.58-.26-.12-.5-.06-.74-.06-3.14,0-6.28,0-9.42,0-.24,0-.48,0-.75-.02-.01-.22-.03-.41-.03-.6,0-2.28,0-4.56,0-6.84,0-.24,0-.48-.01-.72,10.28,0,20.56,0,30.84,0v8.09c-.24.17-.49.1-.72.1-3.14,0-6.28,0-9.41,0h-.76c-.03.14-.06.26-.07.39-.01.13,0,.26,0,.39,0,9.58,0,19.17,0,28.75,0,.24,0,.47.01.75.43.05.82.02,1.2.03.42,0,.83,0,1.25,0h5.99c.42,0,.83,0,1.25,0,.39,0,.78-.02,1.13.02.05.06.07.07.08.09.01.02.02.04.02.06,0,.11.02.22.02.33,0,2.59,0,5.18,0,7.76h-30.84Z"/>
  <path class="cls-1" d="M403.71,0c-.02.22-.05.43-.05.65,0,12.38,0,24.75,0,37.13v.68c.17.02.29.05.42.05.72,0,1.45,0,2.17,0,6.06,0,12.12,0,18.18,0,.25,0,.51.06.76-.05v8.3h-30.45c0-.31.02-.61.02-.92,0-15.02,0-30.04,0-45.05,0-.26-.01-.53-.02-.79,2.99,0,5.98,0,8.96,0Z"/>
</svg>