<?xml version="1.0" encoding="UTF-8"?>
<svg id="Layer_1" xmlns="http://www.w3.org/2000/svg" viewBox="0 0 425.2 90.36">
  <defs>
    <style>
      .cls-1 {
        fill: #f2f2f2;
      }
    </style>
  </defs>
  <path class="cls-1" d="M37.57,0c-4.98-.08-9.93.83-14.56,2.67-4.58,1.82-8.74,4.55-12.23,8.03C3.87,17.51,0,26.64,0,36.13s3.87,18.62,10.77,25.42c3.51,3.37,7.65,6.03,12.18,7.84,4.57,1.82,9.45,2.76,14.38,2.77,4.93,0,9.82-.91,14.39-2.72,4.53-1.78,8.68-4.43,12.21-7.79,3.48-3.31,6.25-7.28,8.17-11.67,1.89-4.35,2.88-9.04,2.89-13.78,0-4.74-.96-9.44-2.83-13.79-1.9-4.4-4.66-8.38-8.12-11.7-3.44-3.46-7.54-6.18-12.07-8C47.4.87,42.5-.05,37.57,0ZM37.57,62.63c-5.46-.02-10.79-1.6-15.39-4.54-4.51-2.88-8.06-7.03-10.21-11.93-2.1-4.83-2.68-10.19-1.64-15.35,1.06-5.2,3.67-9.97,7.47-13.67,2.56-2.59,5.63-4.63,9.01-6,3.42-1.38,7.07-2.08,10.76-2.03,3.68.02,7.33.74,10.72,2.12,3.37,1.36,6.44,3.37,9.04,5.91,3.81,3.7,6.41,8.46,7.48,13.67,1.04,5.17.46,10.52-1.64,15.35-2.15,4.9-5.7,9.05-10.21,11.93-4.59,2.94-9.93,4.52-15.39,4.54ZM110.93,19.59c-3.76-.06-7.47.79-10.83,2.48-3.31,1.66-6.15,4.12-8.26,7.16v-8.46h-9.26v69.58h9.38v-27.73c2.14,2.99,5,5.39,8.31,6.99,3.36,1.63,7.06,2.43,10.79,2.32,3.47.02,6.92-.62,10.15-1.89,3.2-1.25,6.12-3.12,8.61-5.49,4.88-5.13,7.62-11.79,7.7-18.73-.02-6.95-2.77-13.64-7.7-18.73-2.48-2.38-5.42-4.26-8.66-5.54-3.25-1.29-6.72-1.95-10.21-1.95h0ZM109.93,28.27c2.41-.03,4.79.41,7.03,1.3,2.21.87,4.23,2.18,5.94,3.84,1.68,1.63,3,3.6,3.89,5.76.88,2.15,1.29,4.45,1.22,6.76,0,4.61-1.91,9.04-5.31,12.3-3.4,3.26-8.02,5.1-12.83,5.1s-9.43-1.83-12.83-5.09c-3.4-3.26-5.31-7.69-5.31-12.3-.07-2.32.35-4.63,1.23-6.79.9-2.17,2.23-4.14,3.92-5.78,1.72-1.66,3.75-2.96,5.98-3.83,2.25-.88,4.65-1.31,7.07-1.26h0ZM159.17,7.07l-9.38,2.68v11.02h-10.05v8.67h10.05v26.76c0,5.35,1.34,9.31,4.35,11.88,3.46,2.3,7.57,3.43,11.72,3.21,2.24-.07,4.48-.28,6.7-.64h.33v-8.03h-1.34c-5.36.32-9.05.64-10.72-1.28-1.34-.96-1.68-2.68-1.68-5.14v-26.76h13.74v-8.67h-13.74V7.07ZM192.67,20.88h-9.72v50.1h9.72V20.88ZM187.98.32c-1.69,0-3.31.64-4.5,1.79-1.18,1.12-1.86,2.68-1.86,4.31,0,.78.18,1.56.51,2.28.32.72.8,1.37,1.39,1.91.6.54,1.3.96,2.06,1.23.77.27,1.58.4,2.4.36.79,0,1.58-.14,2.31-.43.73-.29,1.39-.71,1.96-1.25.56-.54,1-1.18,1.31-1.88.3-.7.46-1.46.45-2.22.01-1.58-.61-3.1-1.73-4.22-1.14-1.15-2.68-1.82-4.3-1.88ZM225.83,61.02l-16.08-40.15h-10.05l20.77,49.78h10.72l20.77-49.46v-.32h-10.05s-16.08,40.15-16.08,40.15ZM280.09,19.59c-3.62-.1-7.22.51-10.6,1.8-3.35,1.28-6.4,3.21-8.98,5.7-2.54,2.45-4.54,5.39-5.87,8.65-1.31,3.23-1.93,6.7-1.79,10.18-.07,3.46.58,6.9,1.9,10.1,1.34,3.24,3.31,6.17,5.81,8.63,2.7,2.46,5.85,4.37,9.28,5.63,3.45,1.26,7.13,1.86,10.82,1.76,4.49.17,8.94-.77,12.93-2.74,3.96-1.94,7.35-4.87,9.84-8.5l-7.7-4.18v-.32l-.33.32c-1.63,2.29-3.81,4.13-6.36,5.33-2.58,1.22-5.42,1.78-8.27,1.63-4.2.23-8.36-.99-11.77-3.45-3.34-2.4-5.7-5.93-6.65-9.93h43.21v-.32c.28-1.26.39-2.56.33-3.85.19-6.74-2.33-13.29-7.03-18.31-2.35-2.59-5.24-4.65-8.45-6.04-3.25-1.41-6.76-2.12-10.31-2.1h0ZM280.09,28.26c4.03-.14,7.96,1.21,11.05,3.79,3.02,2.51,4.94,6.11,5.36,10.02h-34.17c.61-4.02,2.78-7.66,6.07-10.22,3.33-2.57,7.48-3.84,11.68-3.59ZM339.72,20.23c-3.22-.23-6.43.48-9.25,2.03-2.78,1.52-5.04,3.83-6.49,6.65v-8.03h-9.38v49.78h9.38v-26.33c-.14-2.04.14-4.08.83-6.01.7-1.94,1.78-3.72,3.19-5.23,1.61-1.33,3.48-2.32,5.48-2.93,2.02-.61,4.14-.81,6.24-.61h.33v-9.31h-.33Z"/>
  <path class="cls-1" d="M424.8,76.6l-32.38-66.48c-.12-.41-.39-.77-.76-1-.37-.24-.82-.34-1.25-.28h-6.03c-.44-.05-.88.05-1.25.28-.37.23-.63.59-.76,1l-28.14,66.48c-.31.64-.25,1.4.16,1.98.2.29.48.53.8.69.33.16.69.23,1.05.22h66.66c1.56,0,3.01-1.71,1.9-2.89h0ZM384.94,38.07l13.96,28.26c.31.68.26,1.47-.14,2.1-.2.32-.47.58-.79.77-.33.19-.69.31-1.07.34h-25.68c-.39-.02-.77-.13-1.11-.32-.34-.18-.63-.44-.86-.75-.45-.62-.59-1.41-.37-2.14l12.06-28.26c.19-.36.47-.67.82-.88.73-.44,1.64-.44,2.37,0,.35.21.64.52.82.88Z"/>
</svg>