<svg width="48" height="42" viewBox="0 0 48 42" fill="none" xmlns="http://www.w3.org/2000/svg">
<g id="Group">
<rect x="3" y="0" width="42" height="22" fill="#F2F2F2"/>
<path id="Vector" d="M41.2147 24.7277L35.2598 22.0374L38.4721 16.5166L38.1534 16.3688L28.3404 33.2344L28.6591 33.3822L31.8714 27.8613L37.8263 30.5516L33.1714 38.5484L30.0262 37.1294L28.4158 39.9009L22.4693 37.2106L24.0796 34.4391L23.7609 34.2913L22.1506 37.0628L13.0672 32.9536L14.6776 30.182L11.5324 28.763L13.1427 25.9989L12.824 25.8511L11.2137 28.6152L2.13031 24.5059L5.18325 19.2659L11.4569 22.1039L18.0576 10.7592L11.784 7.92115L14.8369 2.68114L23.9203 6.79034L22.3099 9.55447L22.6287 9.70234L24.239 6.93821L27.3842 8.35717L28.9946 5.58565L38.0779 9.69494L36.4676 12.4665L36.7863 12.6142L38.3966 9.84272L44.3432 12.533L42.7328 15.3045L45.878 16.7235L41.2231 24.7203L41.2147 24.7277ZM27.4597 15.0236L27.141 14.8759L25.3629 17.9282L25.6816 18.076L27.4597 15.0236ZM22.637 23.316L22.3183 23.1682L20.5402 26.2206L20.859 26.3684L22.637 23.316Z" fill="black"/>
<path id="Vector_2" d="M4.25231 23.9144L5.86265 21.1503L12.1363 23.9883L10.5259 26.7525L4.25231 23.9144ZM12.1363 23.9883L20.1796 10.1677L23.3164 11.5866L24.9268 8.82252L28.072 10.2416L29.6823 7.47005L35.956 10.3081L34.3456 13.0796L37.4824 14.4986L26.2268 33.8402L23.09 32.4212L21.4796 35.1927L15.206 32.3546L16.8164 29.5831L13.6711 28.1641L15.2815 25.4L12.1447 23.9809M24.759 22.7097L21.6222 21.2907L18.4015 26.819L21.5384 28.238L24.759 22.7097ZM29.5901 14.4174L26.4533 12.9983L23.2326 18.5266L26.3694 19.9456L29.5901 14.4174ZM13.906 7.32957L15.5163 4.56545L21.79 7.40356L20.1796 10.1677L13.906 7.32957ZM24.5997 36.6043L26.21 33.8328L29.3469 35.2518L27.7365 38.0233L24.5997 36.6043ZM29.3469 35.2518L32.5592 29.7309L35.7044 31.1499L32.4921 36.6709L29.3469 35.2518ZM37.3902 21.4312L40.6025 15.9102L43.7477 17.3293L40.5354 22.8501L37.3902 21.4312ZM37.4657 14.4912L39.076 11.7197L42.2128 13.1387L40.6025 15.9102L37.4657 14.4912ZM-1.0969e-05 25.1191L2.80971 26.3903L9.08334 29.2284L11.8931 30.4996L12.2118 30.6474L12.5389 30.7952L12.3711 31.0834L10.9285 33.5593L13.7382 34.8305L20.0119 37.6686L20.3306 37.8164L21.3203 38.2672L22.8132 38.9398L23.1319 39.0876L26.2687 40.5066L29.0785 41.7778L30.5211 39.302L30.6888 39.0137L31.0159 39.1615L33.8256 40.4327L35.2682 37.9568L38.4805 32.4359L39.9231 29.96L37.1134 28.6888L33.9682 27.2698L33.6495 27.122L35.5953 23.7814L35.914 23.9292L39.0592 25.3482L41.869 26.6194L43.3116 24.1435L46.5239 18.6226L47.9665 16.1468L45.1567 14.8756L44.8296 14.7277L44.9974 14.4395L46.44 11.9636L43.6303 10.6924L40.4935 9.27334L40.1747 9.12556L37.365 7.85438L31.0914 5.01627L28.2817 3.74509L26.8391 6.22097L26.6713 6.50922L26.3442 6.36143L23.5345 5.09025L23.2158 4.94238L16.9422 2.10437L14.1324 0.833179L12.6898 3.30906L11.0795 6.07318L9.6369 8.54906L12.4466 9.82025L15.9105 11.3871L10.7524 20.2487L7.28848 18.6817L4.47876 17.4106L3.03616 19.8864L1.42582 22.6506L-0.0167854 25.1265L-1.0969e-05 25.1191Z" fill="#F2F2F2"/>
</g>
</svg>
