<svg width="38" height="44" viewBox="0 0 38 44" fill="none" xmlns="http://www.w3.org/2000/svg">
<g id="cake">
<rect id="Rectangle 790" x="2.71436" y="18.2302" width="32.5714" height="2.4127" fill="black"/>
<rect id="Rectangle 797" x="2.71436" y="40.8492" width="32.873" height="2.4127" fill="black"/>
<rect id="Rectangle 791" x="25.3335" y="5.56349" width="2.71429" height="12.6667" fill="black"/>
<rect id="Rectangle 792" x="17.7935" y="5.56349" width="2.71429" height="12.6667" fill="black"/>
<rect id="Rectangle 793" x="10.2539" y="5.56349" width="2.71429" height="12.6667" fill="black"/>
<rect id="Rectangle 798" x="2.71436" y="25.7699" width="2.71429" height="15.0794" fill="black"/>
<rect id="Rectangle 799" y="20.6429" width="2.71429" height="7.53968" fill="black"/>
<rect id="Rectangle 800" width="2.71429" height="15.0794" transform="matrix(-1 0 0 1 35.2856 25.7699)" fill="black"/>
<rect id="Rectangle 801" width="2.71429" height="7.53968" transform="matrix(-1 0 0 1 38 20.6429)" fill="black"/>
<rect id="Rectangle 794" x="10.2539" y="0.738098" width="2.71429" height="2.71429" fill="black"/>
<rect id="Rectangle 804" x="7.84131" y="23.3571" width="2.4127" height="2.4127" transform="rotate(90 7.84131 23.3571)" fill="black"/>
<rect id="Rectangle 805" x="10.2539" y="23.3571" width="2.4127" height="2.4127" transform="rotate(90 10.2539 23.3571)" fill="black"/>
<rect id="Rectangle 806" x="12.6665" y="25.7699" width="2.4127" height="2.4127" transform="rotate(90 12.6665 25.7699)" fill="black"/>
<rect id="Rectangle 808" x="15.0796" y="25.7699" width="2.4127" height="2.4127" transform="rotate(90 15.0796 25.7699)" fill="black"/>
<rect id="Rectangle 809" x="17.7935" y="23.3571" width="2.4127" height="2.71429" transform="rotate(90 17.7935 23.3571)" fill="black"/>
<rect id="Rectangle 810" x="20.5078" y="25.7699" width="2.4127" height="2.71429" transform="rotate(90 20.5078 25.7699)" fill="black"/>
<rect id="Rectangle 811" x="23.2222" y="23.3571" width="2.4127" height="2.71429" transform="rotate(90 23.2222 23.3571)" fill="black"/>
<rect id="Rectangle 812" x="25.6348" y="25.7699" width="2.4127" height="2.4127" transform="rotate(90 25.6348 25.7699)" fill="black"/>
<rect id="Rectangle 813" x="28.0479" y="23.3571" width="2.4127" height="2.4127" transform="rotate(90 28.0479 23.3571)" fill="black"/>
<rect id="Rectangle 814" x="30.4604" y="25.7699" width="2.4127" height="2.4127" transform="rotate(90 30.4604 25.7699)" fill="black"/>
<rect id="Rectangle 815" x="32.5713" y="28.1825" width="2.4127" height="2.11111" transform="rotate(90 32.5713 28.1825)" fill="black"/>
<rect id="Rectangle 807" x="12.6665" y="28.1825" width="2.4127" height="2.4127" transform="rotate(90 12.6665 28.1825)" fill="black"/>
<rect id="Rectangle 795" x="17.7935" y="0.738098" width="2.71429" height="2.71429" fill="black"/>
<rect id="Rectangle 796" x="25.3335" y="0.738098" width="2.71429" height="2.71429" fill="black"/>
</g>
</svg>
