<svg width="95" height="26" viewBox="0 0 95 26" fill="none" xmlns="http://www.w3.org/2000/svg">
<rect y="0.0566406" width="8.59091" height="8.59091" fill="black"/>
<rect x="8.59094" y="8.64746" width="8.59091" height="8.59091" fill="black"/>
<rect y="17.2383" width="8.59091" height="8.59091" fill="black"/>
<rect x="17.1818" y="17.2383" width="8.59091" height="8.59091" fill="black"/>
<rect x="17.1818" y="0.0566406" width="8.59091" height="8.59091" fill="black"/>
<rect x="25.7727" y="8.64746" width="8.59091" height="8.59091" fill="black"/>
<rect y="0.0566406" width="8.59091" height="8.59091" fill="black"/>
<rect x="8.59094" y="8.64746" width="8.59091" height="8.59091" fill="black"/>
<rect y="17.2383" width="8.59091" height="8.59091" fill="black"/>
<rect x="17.1818" y="17.2383" width="8.59091" height="8.59091" fill="black"/>
<rect x="17.1818" y="0.0566406" width="8.59091" height="8.59091" fill="black"/>
<rect x="25.7727" y="8.64746" width="8.59091" height="8.59091" fill="black"/>
<rect x="68.7273" y="0.0566406" width="8.59091" height="8.59091" fill="black"/>
<rect x="77.3182" y="8.64746" width="8.59091" height="8.59091" fill="black"/>
<rect x="68.7273" y="17.2383" width="8.59091" height="8.59091" fill="black"/>
<rect x="85.9091" y="17.2383" width="8.59091" height="8.59091" fill="black"/>
<rect x="85.9091" y="0.0566406" width="8.59091" height="8.59091" fill="black"/>
<rect x="68.7273" y="0.0566406" width="8.59091" height="8.59091" fill="black"/>
<rect x="77.3182" y="8.64746" width="8.59091" height="8.59091" fill="black"/>
<rect x="68.7273" y="17.2383" width="8.59091" height="8.59091" fill="black"/>
<rect x="85.9091" y="17.2383" width="8.59091" height="8.59091" fill="black"/>
<rect x="85.9091" y="0.0566406" width="8.59091" height="8.59091" fill="black"/>
<rect x="34.3636" y="0.0566406" width="8.59091" height="8.59091" fill="black"/>
<rect x="42.9546" y="8.64746" width="8.59091" height="8.59091" fill="black"/>
<rect x="34.3636" y="17.2383" width="8.59091" height="8.59091" fill="black"/>
<rect x="51.5454" y="17.2383" width="8.59091" height="8.59091" fill="black"/>
<rect x="51.5454" y="0.0566406" width="8.59091" height="8.59091" fill="black"/>
<rect x="60.1364" y="8.64746" width="8.59091" height="8.59091" fill="black"/>
<rect x="34.3636" y="0.0566406" width="8.59091" height="8.59091" fill="black"/>
<rect x="42.9546" y="8.64746" width="8.59091" height="8.59091" fill="black"/>
<rect x="34.3636" y="17.2383" width="8.59091" height="8.59091" fill="black"/>
<rect x="51.5454" y="17.2383" width="8.59091" height="8.59091" fill="black"/>
<rect x="51.5454" y="0.0566406" width="8.59091" height="8.59091" fill="black"/>
<rect x="60.1364" y="8.64746" width="8.59091" height="8.59091" fill="black"/>
</svg>
