<svg width="22" height="23" viewBox="0 0 22 23" fill="none" xmlns="http://www.w3.org/2000/svg">
<rect x="6.7168" y="0.121094" width="8.52664" height="1.72946" fill="white"/>
<rect x="6.7168" y="20.5127" width="8.52664" height="1.72946" fill="white"/>
<rect x="13.5137" y="1.85059" width="5.06772" height="1.72946" fill="white"/>
<rect x="16.8926" y="3.58008" width="3.4187" height="1.72946" fill="white"/>
<rect x="11.8242" y="10.3772" width="3.4187" height="1.72946" fill="white"/>
<rect x="13.5137" y="18.8635" width="3.4187" height="1.72946" fill="white"/>
<rect x="18.6211" y="5.30933" width="1.68924" height="3.33826" fill="white"/>
<rect x="10.1348" y="5.30933" width="1.68924" height="6.79718" fill="white"/>
<rect x="16.9316" y="17.1743" width="1.68924" height="3.33826" fill="white"/>
<rect x="18.6211" y="13.7156" width="1.68924" height="5.14816" fill="white"/>
<rect x="20.3105" y="6.99878" width="1.68924" height="8.40598" fill="white"/>
<rect width="5.06772" height="1.72946" transform="matrix(-1 0 0 1 8.48633 1.85059)" fill="white"/>
<rect width="3.4187" height="1.72946" transform="matrix(-1 0 0 1 5.10742 3.58008)" fill="white"/>
<rect width="3.4187" height="1.72946" transform="matrix(-1 0 0 1 8.48633 18.8635)" fill="white"/>
<rect width="1.68924" height="3.33826" transform="matrix(-1 0 0 1 3.37891 5.30933)" fill="white"/>
<rect width="1.68924" height="3.33826" transform="matrix(-1 0 0 1 5.06641 17.1743)" fill="white"/>
<rect width="1.68924" height="5.14816" transform="matrix(-1 0 0 1 3.37891 13.7156)" fill="white"/>
<rect width="1.68924" height="8.40598" transform="matrix(-1 0 0 1 1.68945 6.99878)" fill="white"/>
</svg>
