<svg width="227" height="259" viewBox="0 0 227 259" fill="none" xmlns="http://www.w3.org/2000/svg">
<g clip-path="url(#clip0_1_513)">
<path d="M119.03 257.557L221.361 198.001C224.64 196.094 226.659 192.582 226.668 188.786L227 70.2714C227.009 66.4371 224.972 62.8969 221.665 60.9798L118.679 1.4332C115.372 -0.483987 111.287 -0.474496 107.98 1.45218L5.64823 61.0082C2.36923 62.9159 0.350647 66.4276 0.341171 70.224L2.39794e-06 188.738C-0.00947449 192.573 2.02806 196.113 5.33549 198.03L108.321 257.576C111.628 259.494 115.713 259.484 119.02 257.557H119.03Z" fill="#F2F2F2"/>
<path d="M122.697 244.972L146.39 231.182L146.513 189.972L193.907 162.382L193.793 203.601L217.485 189.811L217.798 79.9048L194.106 93.6952L193.983 134.905L146.589 162.495L146.702 121.276L123.01 135.066L122.697 244.972Z" fill="#FAA701"/>
<path d="M104.928 135.076L9.51479 79.9048L9.43898 107.381L45.2142 128.072L45.0626 183.015L9.27787 162.334L9.20206 189.811L104.615 244.972L104.691 217.496L68.916 196.815L69.0676 141.862L104.852 162.552L104.928 135.076Z" fill="#ED4250"/>
<path d="M123.37 65.0608L127.862 62.4603L141.234 70.2429L145.688 72.834L134.468 79.3258L121.086 71.5432L118.85 72.834L132.222 80.6261L127.73 83.2171L109.904 72.8435L121.124 66.3516L134.506 74.1342L136.742 72.8435L123.37 65.0608Z" fill="black"/>
<path d="M140.419 82.79L151.64 76.2982L169.466 86.6813L164.974 89.2724L151.602 81.4897L149.356 82.79L162.737 90.5726L151.517 97.0645L133.681 86.6813L138.173 84.0903L151.554 91.8729L153.791 90.5726L140.419 82.79Z" fill="black"/>
<path d="M17.9113 64.2731L41.7836 50.4731L89.5187 22.8733L113.372 9.07339L137.093 22.8828L208.217 64.2731L184.354 78.073L113.23 36.6732L65.5043 64.2731L136.628 105.663L112.756 119.473L41.632 78.073L17.9113 64.2731Z" fill="#0060E6"/>
</g>
<defs>
<clipPath id="clip0_1_513">
<rect width="227" height="259" fill="white"/>
</clipPath>
</defs>
</svg>
