<svg width="81" height="61" viewBox="0 0 81 61" fill="none" xmlns="http://www.w3.org/2000/svg">
  <path d="M71.8104 32.7616L71.7652 48.7192L53.386 59.3999L53.4312 43.4423L44.2416 48.7828L44.1211 91.336L53.3105 85.9957L53.3558 70.0381L71.735 59.3573L71.6897 75.3148L80.8793 69.9745L80.9999 27.4213L71.8104 32.7616Z" fill="white"/>
  <path d="M3.72504 21.3809L40.7241 42.7423L49.9218 37.3972L22.1728 21.3762L40.5687 10.6856L68.3178 26.7067L77.5154 21.3614L40.5165 1.70947e-05L3.72504 21.3809Z" fill="white"/>
  <path d="M0.0905953 38.06L13.9649 46.0703L13.9046 67.3474L0.0301984 59.3369L0 69.9754L36.9987 91.3366L37.0289 80.6982L23.1542 72.6877L23.2146 51.4107L37.0892 59.4211L37.1194 48.7829L0.120794 27.4216L0.0905953 38.06Z" fill="white"/>
</svg>