<svg width="49" height="28" viewBox="0 0 49 28" fill="none" xmlns="http://www.w3.org/2000/svg">
<path d="M43.4409 19.8188L43.4136 29.4722L32.2953 35.9334L32.3226 26.28L26.7635 29.5107L26.6906 55.2527L32.2496 52.0222L32.277 42.3688L43.3953 35.9076L43.3679 45.5609L48.927 42.3303L49 16.5882L43.4409 19.8188Z" fill="white"/>
<path d="M2.25342 12.9341L24.6356 25.8565L30.1997 22.623L13.4132 12.9313L24.5416 6.46412L41.3281 16.1559L46.8921 12.9223L24.51 7.62939e-06L2.25342 12.9341Z" fill="white"/>
<path d="M0.0548046 23.024L8.44791 27.8697L8.41146 40.7411L0.0182682 35.8952L0 42.3308L22.3819 55.2531L22.4002 48.8175L14.0069 43.9716L14.0434 31.1003L22.4367 35.9461L22.4549 29.5106L0.0730728 16.5884L0.0548046 23.024Z" fill="white"/>
</svg>
