<svg width="36" height="27" viewBox="0 0 36 27" fill="none" xmlns="http://www.w3.org/2000/svg">
<rect y="15.1335" width="36" height="7.56688" fill="white"/>
<rect y="24.5349" width="36" height="1.94904" fill="white"/>
<rect x="2.83398" y="22.7002" width="30" height="1.94904" fill="white"/>
<rect x="17.082" width="1.83439" height="15.1338" fill="white"/>
<rect x="18.918" y="3.78345" width="1.83439" height="11.3503" fill="white"/>
<rect y="3.78345" width="1.83439" height="11.3503" fill="white"/>
<rect x="20.752" y="7.56677" width="1.83439" height="7.56688" fill="white"/>
<rect x="1.83398" y="7.56677" width="1.83439" height="7.56688" fill="white"/>
<rect x="22.5859" y="11.3502" width="1.83439" height="3.78344" fill="white"/>
<rect x="3.66797" y="11.3502" width="1.83439" height="3.78344" fill="white"/>
<rect width="1.83439" height="11.3503" transform="matrix(-1 0 0 1 17.082 3.78345)" fill="white"/>
<rect width="1.83439" height="11.3503" transform="matrix(-1 0 0 1 36 3.78345)" fill="white"/>
<rect width="1.83439" height="7.56688" transform="matrix(-1 0 0 1 15.248 7.56677)" fill="white"/>
<rect width="1.83439" height="7.56688" transform="matrix(-1 0 0 1 34.166 7.56677)" fill="white"/>
<rect width="1.83439" height="3.78344" transform="matrix(-1 0 0 1 13.4141 11.3502)" fill="white"/>
<rect width="1.83439" height="3.78344" transform="matrix(-1 0 0 1 32.332 11.3502)" fill="white"/>
</svg>
