<svg width="55" height="56" viewBox="0 0 55 56" fill="none" xmlns="http://www.w3.org/2000/svg">
<path d="M17.343 28.7052C17.343 28.3249 17.0318 28.0138 16.6515 28.0138H10.6914C10.3111 28.0138 10 28.3249 10 28.7052V41.6141C10 43.6331 11.6456 45.2856 13.6715 45.2856C15.6974 45.2856 17.343 43.6331 17.343 41.6141V28.7052Z" fill="white"/>
<path d="M44.3087 10.7144H19.4174C19.0371 10.7144 18.726 11.0186 18.726 11.4058V41.6141C18.726 43.0592 18.1175 44.3591 17.1426 45.2856H41.3286C43.3545 45.2856 45.0001 43.6331 45.0001 41.6141V11.4058C45.0001 11.0186 44.689 10.7144 44.3087 10.7144ZM22.3628 15.0358C22.3628 14.6486 22.6671 14.3443 23.0543 14.3443H30.0515C30.4318 14.3443 30.7429 14.6486 30.7429 15.0358V23.6786C30.7429 24.0589 30.4318 24.37 30.0515 24.37H23.0543C22.6671 24.37 22.3628 24.0589 22.3628 23.6786V15.0358ZM41.2042 39.6643H23.0543C22.6671 39.6643 22.3628 39.3532 22.3628 38.9729C22.3628 38.5926 22.6671 38.2815 23.0543 38.2815H41.2042C41.5845 38.2815 41.8956 38.5926 41.8956 38.9729C41.8956 39.3532 41.5845 39.6643 41.2042 39.6643ZM41.2042 34.1744H23.0543C22.6671 34.1744 22.3628 33.8702 22.3628 33.483C22.3628 33.1027 22.6671 32.7915 23.0543 32.7915H41.2042C41.5845 32.7915 41.8956 33.1027 41.8956 33.483C41.8956 33.8702 41.5845 34.1744 41.2042 34.1744ZM41.2042 28.6914H23.0543C22.6671 28.6914 22.3628 28.3803 22.3628 28C22.3628 27.6128 22.6671 27.3085 23.0543 27.3085H41.2042C41.5845 27.3085 41.8956 27.6128 41.8956 28C41.8956 28.3803 41.5845 28.6914 41.2042 28.6914Z" fill="white"/>
</svg>
