<svg width="32" height="24" viewBox="0 0 32 24" fill="none" xmlns="http://www.w3.org/2000/svg">
<g id="discord">
<rect id="Rectangle 523" x="6" width="6" height="2" fill="white"/>
<rect id="Rectangle 537" y="18" width="6" height="2" fill="white"/>
<rect id="Rectangle 538" x="2" y="20" width="6" height="2" fill="white"/>
<rect id="Rectangle 539" x="4" y="22" width="6" height="2" fill="white"/>
<rect id="Rectangle 540" x="26" y="18" width="6" height="2" fill="white"/>
<rect id="Rectangle 541" x="24" y="20" width="6" height="2" fill="white"/>
<rect id="Rectangle 542" x="22" y="22" width="6" height="2" fill="white"/>
<rect id="Rectangle 524" x="20" width="6" height="2" fill="white"/>
<rect id="Rectangle 529" x="12" y="14" width="8" height="2" fill="white"/>
<rect id="Rectangle 536" x="8" y="16" width="16" height="4" fill="white"/>
<rect id="Rectangle 530" x="24" y="8" width="8" height="2" fill="white"/>
<rect id="Rectangle 531" y="8" width="8" height="2" fill="white"/>
<rect id="Rectangle 528" x="14" y="10" width="4" height="4" fill="white"/>
<rect id="Rectangle 532" y="10" width="6" height="4" fill="white"/>
<rect id="Rectangle 533" x="26" y="10" width="6" height="4" fill="white"/>
<rect id="Rectangle 534" x="24" y="14" width="8" height="4" fill="white"/>
<rect id="Rectangle 535" y="14" width="8" height="4" fill="white"/>
<rect id="Rectangle 527" x="12" y="8" width="8" height="2" fill="white"/>
<rect id="Rectangle 525" x="4" y="2" width="24" height="2" fill="white"/>
<rect id="Rectangle 526" x="2" y="4" width="28" height="4" fill="white"/>
</g>
</svg>
