<svg width="67" height="92" viewBox="0 0 67 92" fill="none" xmlns="http://www.w3.org/2000/svg">
<g clip-path="url(#clip0_763_497)">
<path d="M7.60669 21.8341L4.6181 22.0956L4.87957 25.0842L7.86815 24.8227L7.60669 21.8341Z" fill="white"/>
<path d="M4.87958 25.0842L1.89099 25.3456L2.0653 27.338L5.05389 27.0766L4.87958 25.0842Z" fill="white"/>
<path d="M60.0277 45.2537L59.783 42.4567L54.1881 42.9462L54.4328 45.7432L46.0383 46.4776L45.7936 43.6806L40.1988 44.1701L39.9541 41.3732L34.3592 41.8626L34.1145 39.0657L28.5197 39.5552L27.297 25.5796L30.0967 25.3346L28.6293 8.56205L25.8296 8.807L25.5849 6.01004L22.7852 6.25498L22.5409 3.46261L11.3467 4.44198L11.5914 7.23894L8.79165 7.48388L9.03635 10.2808L6.23665 10.5258L7.21505 21.709L10.0148 21.4641L9.77006 18.6671L15.3649 18.1776L15.6096 20.9746L18.4093 20.7296L18.8983 26.319L4.90435 27.5433L5.14905 30.3402L10.7439 29.8508L10.9886 32.6477L13.7883 32.4028L14.522 40.789L11.7223 41.034L11.967 43.8309L9.16727 44.0759L9.41198 46.8728L6.61227 47.1178L7.10127 52.7071L4.30615 52.9517L5.52886 66.9273L8.32857 66.6823L8.81757 72.2716L11.6173 72.0267L11.862 74.8237L14.6617 74.5787L14.9064 77.3757L20.7399 76.8653L20.9846 79.6623L22.4992 79.5298L23.2329 87.916L20.9839 88.1128L21.2286 90.9097L27.7919 90.3355L26.8135 79.1523L36.0204 78.3468L36.7541 86.7331L34.5051 86.9298L34.7498 89.7268L41.3131 89.1526L40.0904 75.177L42.8901 74.932L42.6454 72.1351L51.0399 71.4007L50.7952 68.6037L53.5949 68.3588L53.3502 65.5618L56.1499 65.3169L55.9052 62.5199L58.7049 62.275L58.4602 59.478L61.2599 59.2331L60.7709 53.6437L57.9712 53.8887L57.7265 51.0917L60.5262 50.8468L60.2815 48.0498L63.0812 47.8049L62.8365 45.0079L60.0368 45.2529L60.0277 45.2537ZM21.204 20.4805L20.715 14.8912L23.5147 14.6463L24.0037 20.2356L21.204 20.4805Z" fill="white"/>
</g>
<defs>
<clipPath id="clip0_763_497">
<rect width="58.6506" height="86.0001" fill="white" transform="translate(0.363892 5.71948) rotate(-5)"/>
</clipPath>
</defs>
</svg>
