<svg width="32" height="32" viewBox="0 0 32 32" fill="none" xmlns="http://www.w3.org/2000/svg">
<g id="edit">
<rect id="Rectangle 466" x="18.6455" width="8" height="2.64567" fill="black"/>
<rect id="Rectangle 467" x="24" y="2.64575" width="5.35433" height="2.64567" fill="black"/>
<rect id="Rectangle 468" x="26.6455" y="5.29126" width="5.35433" height="2.64567" fill="black"/>
<rect id="Rectangle 484" x="29.3545" y="7.93701" width="2.64567" height="2.64567" fill="black"/>
<rect id="Rectangle 486" x="26.5825" y="26.583" width="5.41732" height="5.41732" fill="black"/>
<rect id="Rectangle 485" y="21.165" width="2.64567" height="7.93701" fill="black"/>
<rect id="Rectangle 476" x="26.6455" y="10.583" width="5.35433" height="2.64567" fill="black"/>
<rect id="Rectangle 478" x="21.2285" y="15.874" width="5.35433" height="2.64567" fill="black"/>
<rect id="Rectangle 480" x="16" y="21.165" width="5.35433" height="2.64567" fill="black"/>
<rect id="Rectangle 477" x="23.937" y="13.2283" width="5.35433" height="2.64567" fill="black"/>
<rect id="Rectangle 479" x="18.5195" y="18.52" width="5.35433" height="2.64567" fill="black"/>
<rect id="Rectangle 481" x="13.2915" y="23.8108" width="5.35433" height="2.64567" fill="black"/>
<rect id="Rectangle 482" x="10.6455" y="26.4565" width="5.35433" height="2.64567" fill="black"/>
<rect id="Rectangle 483" y="29.1025" width="13.2913" height="2.64567" fill="black"/>
<rect id="Rectangle 487" x="18.7085" y="29.3542" width="7.87402" height="2.64567" fill="black"/>
<rect id="Rectangle 469" x="16" y="2.64575" width="5.35433" height="2.64567" fill="black"/>
<rect id="Rectangle 471" x="10.6455" y="7.93701" width="5.35433" height="2.64567" fill="black"/>
<rect id="Rectangle 473" x="5.2915" y="13.2283" width="5.35433" height="2.77165" fill="black"/>
<rect id="Rectangle 470" x="13.3545" y="5.29126" width="5.35433" height="2.64567" fill="black"/>
<rect id="Rectangle 472" x="8" y="10.583" width="5.35433" height="2.64567" fill="black"/>
<rect id="Rectangle 474" x="2.64551" y="16" width="5.35433" height="2.64567" fill="black"/>
<rect id="Rectangle 475" y="18.6458" width="5.35433" height="2.64567" fill="black"/>
</g>
</svg>
