<svg width="36" height="28" viewBox="0 0 36 28" fill="none" xmlns="http://www.w3.org/2000/svg">
<g id="gradhat">
<rect id="Rectangle 269" x="14.8184" y="16.3864" width="4.77273" height="1.59091" fill="black"/>
<rect id="Rectangle 270" x="19.5908" y="14.7953" width="3.18182" height="1.59091" fill="black"/>
<rect id="Rectangle 272" x="11.6362" y="14.7953" width="3.18182" height="1.59091" fill="black"/>
<rect id="Rectangle 297" x="10.0454" y="24.3409" width="3.18182" height="1.59091" fill="black"/>
<rect id="Rectangle 298" x="21.1816" y="24.3409" width="3.18182" height="1.59091" fill="black"/>
<rect id="Rectangle 274" x="5.27295" y="11.6137" width="3.18182" height="1.59091" fill="black"/>
<rect id="Rectangle 275" x="2.09082" y="10.0228" width="3.18182" height="1.59091" fill="black"/>
<rect id="Rectangle 276" x="2.09082" y="6.84089" width="3.18182" height="1.59091" fill="black"/>
<rect id="Rectangle 278" x="5.27295" y="5.25004" width="3.18182" height="1.59091" fill="black"/>
<rect id="Rectangle 279" x="8.45459" y="3.65919" width="3.18182" height="1.59091" fill="black"/>
<rect id="Rectangle 280" x="11.6362" y="2.06812" width="3.18182" height="1.59091" fill="black"/>
<rect id="Rectangle 282" x="19.5908" y="2.06812" width="3.18182" height="1.59091" fill="black"/>
<rect id="Rectangle 283" x="22.7729" y="3.65919" width="3.18182" height="1.59091" fill="black"/>
<rect id="Rectangle 284" x="25.9546" y="5.25004" width="3.18182" height="1.59091" fill="black"/>
<rect id="Rectangle 290" x="16.4092" y="8.43174" width="3.18182" height="1.59091" fill="black"/>
<rect id="Rectangle 285" x="29.1362" y="6.84089" width="3.18182" height="1.59091" fill="black"/>
<rect id="Rectangle 291" x="29.1362" y="13.2045" width="3.18182" height="1.59091" fill="black"/>
<rect id="Rectangle 287" x="29.1362" y="10.0228" width="3.18182" height="1.59091" fill="black"/>
<rect id="Rectangle 281" x="14.8184" y="0.477272" width="4.77273" height="1.59091" fill="black"/>
<rect id="Rectangle 299" x="13.2271" y="25.9317" width="7.95455" height="1.59091" fill="black"/>
<rect id="Rectangle 277" x="0.5" y="8.43174" width="1.59091" height="1.59091" fill="black"/>
<rect id="Rectangle 293" x="6.86377" y="14.7953" width="1.59091" height="9.54545" fill="black"/>
<rect id="Rectangle 294" x="25.9546" y="14.7953" width="1.59091" height="9.54545" fill="black"/>
<rect id="Rectangle 301" x="30.7271" y="19.5681" width="1.59091" height="4.77273" fill="black"/>
<rect id="Rectangle 302" x="33.9092" y="19.5681" width="1.59091" height="4.77273" fill="black"/>
<rect id="Rectangle 300" x="32.3184" y="16.3864" width="1.59091" height="7.95455" fill="black"/>
<rect id="Rectangle 286" x="32.3184" y="8.43174" width="1.59091" height="1.59091" fill="black"/>
<rect id="Rectangle 295" x="24.3638" y="22.75" width="1.59091" height="1.59091" fill="black"/>
<rect id="Rectangle 296" x="8.45459" y="22.75" width="1.59091" height="1.59091" fill="black"/>
<rect id="Rectangle 292" x="32.3184" y="14.7953" width="1.59091" height="1.59091" fill="black"/>
<rect id="Rectangle 271" x="22.7729" y="13.2045" width="4.77273" height="1.59091" fill="black"/>
<rect id="Rectangle 288" x="24.3638" y="11.6137" width="4.77273" height="1.59091" fill="black"/>
<rect id="Rectangle 289" x="19.5908" y="10.0228" width="4.77273" height="1.59091" fill="black"/>
<rect id="Rectangle 273" x="6.86377" y="13.2045" width="4.77273" height="1.59091" fill="black"/>
</g>
</svg>
