<svg width="400" height="267" viewBox="0 0 400 267" fill="none" xmlns="http://www.w3.org/2000/svg">
<rect x="89.2194" width="11.1524" height="11.1524" fill="#2B2B2B"/>
<rect x="211.152" y="88.4756" width="11.1524" height="11.1524" fill="#2B2B2B"/>
<rect x="100.372" y="132.342" width="11.1524" height="11.1524" fill="#2B2B2B"/>
<rect x="66.9145" y="166.543" width="11.1524" height="11.1524" fill="#2B2B2B"/>
<rect x="255.762" y="133.086" width="11.1524" height="11.1524" fill="#2B2B2B"/>
<rect x="144.981" y="176.951" width="11.1524" height="11.1524" fill="#2B2B2B"/>
<rect x="166.543" y="199.257" width="11.1524" height="11.1524" fill="#2B2B2B"/>
<rect x="200" y="221.562" width="11.1524" height="11.1524" fill="#2B2B2B"/>
<rect x="233.457" y="199.257" width="11.1524" height="11.1524" fill="#2B2B2B"/>
<rect x="255.762" y="176.951" width="11.1524" height="11.1524" fill="#2B2B2B"/>
<rect x="211.152" y="243.866" width="11.1524" height="11.1524" fill="#2B2B2B"/>
<rect x="177.695" y="243.866" width="11.1524" height="11.1524" fill="#2B2B2B"/>
<rect x="133.086" y="232.714" width="11.1524" height="11.1524" fill="#2B2B2B"/>
<rect x="111.524" y="211.152" width="11.1524" height="11.1524" fill="#2B2B2B"/>
<rect x="266.914" y="33.457" width="11.1524" height="11.1524" fill="#2B2B2B"/>
<rect x="311.524" y="78.0674" width="11.1524" height="11.1524" fill="#2B2B2B"/>
<rect x="355.39" y="55.0186" width="11.1524" height="11.1524" fill="#2B2B2B"/>
<rect x="311.524" y="11.1523" width="11.1524" height="11.1524" fill="#2B2B2B"/>
<rect x="66.9145" y="22.3047" width="11.1524" height="11.1524" fill="#2B2B2B"/>
<rect x="100.372" y="55.7617" width="11.1524" height="11.1524" fill="#2B2B2B"/>
<rect x="355.39" y="122.677" width="11.1524" height="11.1524" fill="#2B2B2B"/>
<rect x="300.372" y="156.134" width="11.1524" height="11.1524" fill="#2B2B2B"/>
<rect x="266.171" y="200" width="11.1524" height="11.1524" fill="#2B2B2B"/>
<rect x="299.628" y="188.848" width="11.1524" height="11.1524" fill="#2B2B2B"/>
<rect x="266.171" y="188.848" width="11.1524" height="11.1524" fill="#2B2B2B"/>
<rect x="299.628" y="177.695" width="11.1524" height="11.1524" fill="#2B2B2B"/>
<rect x="243.866" y="210.409" width="11.1524" height="11.1524" fill="#2B2B2B"/>
<rect x="277.323" y="200" width="11.1524" height="11.1524" fill="#2B2B2B"/>
<rect x="278.067" y="22.3047" width="11.1524" height="11.1524" fill="#2B2B2B"/>
<rect x="44.6097" y="44.6094" width="11.1524" height="11.1524" fill="#2B2B2B"/>
<rect x="78.0669" y="78.0674" width="11.1524" height="11.1524" fill="#2B2B2B"/>
<rect x="22.3048" y="66.9141" width="11.1524" height="11.1524" fill="#2B2B2B"/>
<rect x="55.7621" y="100.372" width="11.1524" height="11.1524" fill="#2B2B2B"/>
<rect width="11.1524" height="11.1524" transform="matrix(-1 0 0 1 22.3048 100.372)" fill="#2B2B2B"/>
<rect width="11.1524" height="11.1524" transform="matrix(-1 0 0 1 111.524 11.1523)" fill="#2B2B2B"/>
<rect width="11.1524" height="11.1524" transform="matrix(-1 0 0 1 233.457 99.6279)" fill="#2B2B2B"/>
<rect width="11.1524" height="11.1524" transform="matrix(-1 0 0 1 122.677 143.494)" fill="#2B2B2B"/>
<rect width="11.1524" height="11.1524" transform="matrix(-1 0 0 1 89.2194 177.695)" fill="#2B2B2B"/>
<rect width="11.1524" height="11.1524" transform="matrix(-1 0 0 1 278.067 144.238)" fill="#2B2B2B"/>
<rect width="11.1524" height="11.1524" transform="matrix(-1 0 0 1 289.219 44.6094)" fill="#2B2B2B"/>
<rect width="11.1524" height="11.1524" transform="matrix(-1 0 0 1 333.829 89.2197)" fill="#2B2B2B"/>
<rect width="11.1524" height="11.1524" transform="matrix(-1 0 0 1 377.695 66.1709)" fill="#2B2B2B"/>
<rect width="11.1524" height="11.1524" transform="matrix(-1 0 0 1 333.829 22.3047)" fill="#2B2B2B"/>
<rect x="78.0669" y="11.1523" width="11.1524" height="11.1524" fill="#2B2B2B"/>
<rect x="111.524" y="44.6094" width="11.1524" height="11.1524" fill="#2B2B2B"/>
<rect x="366.543" y="111.524" width="11.1524" height="11.1524" fill="#2B2B2B"/>
<rect x="311.524" y="144.981" width="11.1524" height="11.1524" fill="#2B2B2B"/>
<rect x="289.219" y="11.1523" width="11.1524" height="11.1524" fill="#2B2B2B"/>
<rect x="55.7621" y="33.457" width="11.1524" height="11.1524" fill="#2B2B2B"/>
<rect x="89.2194" y="66.9141" width="11.1524" height="11.1524" fill="#2B2B2B"/>
<rect x="33.4573" y="55.7617" width="11.1524" height="11.1524" fill="#2B2B2B"/>
<rect x="66.9145" y="89.2197" width="11.1524" height="11.1524" fill="#2B2B2B"/>
<rect x="11.1524" y="78.0674" width="11.1524" height="11.1524" fill="#2B2B2B"/>
<rect x="44.6097" y="111.524" width="11.1524" height="11.1524" fill="#2B2B2B"/>
<rect width="11.1524" height="11.1524" transform="matrix(-1 0 0 1 33.4573 111.524)" fill="#2B2B2B"/>
<rect width="11.1524" height="11.1524" transform="matrix(-1 0 0 1 122.677 22.3047)" fill="#2B2B2B"/>
<rect width="11.1524" height="11.1524" transform="matrix(-1 0 0 1 244.61 110.78)" fill="#2B2B2B"/>
<rect width="11.1524" height="11.1524" transform="matrix(-1 0 0 1 133.829 154.646)" fill="#2B2B2B"/>
<rect width="11.1524" height="11.1524" transform="matrix(-1 0 0 1 100.372 188.848)" fill="#2B2B2B"/>
<rect width="11.1524" height="11.1524" transform="matrix(-1 0 0 1 289.219 155.391)" fill="#2B2B2B"/>
<rect width="11.1524" height="11.1524" transform="matrix(-1 0 0 1 300.372 55.7617)" fill="#2B2B2B"/>
<rect width="11.1524" height="11.1524" transform="matrix(-1 0 0 1 344.981 100.372)" fill="#2B2B2B"/>
<rect width="11.1524" height="11.1524" transform="matrix(-1 0 0 1 388.848 77.3232)" fill="#2B2B2B"/>
<rect width="11.1524" height="11.1524" transform="matrix(-1 0 0 1 344.981 33.457)" fill="#2B2B2B"/>
<rect y="89.2197" width="11.1524" height="11.1524" fill="#2B2B2B"/>
<rect width="11.1524" height="11.1524" transform="matrix(-1 0 0 1 44.6097 122.677)" fill="#2B2B2B"/>
<rect width="11.1524" height="11.1524" transform="matrix(-1 0 0 1 66.9145 121.933)" fill="#2B2B2B"/>
<rect width="11.1524" height="11.1524" transform="matrix(-1 0 0 1 133.829 55.7617)" fill="#2B2B2B"/>
<rect width="11.1524" height="11.1524" transform="matrix(-1 0 0 1 156.134 78.0674)" fill="#2B2B2B"/>
<rect width="11.1524" height="11.1524" transform="matrix(-1 0 0 1 178.439 55.7617)" fill="#2B2B2B"/>
<rect width="11.1524" height="11.1524" transform="matrix(-1 0 0 1 200 89.2197)" fill="#2B2B2B"/>
<rect width="11.1524" height="11.1524" transform="matrix(-1 0 0 1 211.152 78.0674)" fill="#2B2B2B"/>
<rect width="11.1524" height="11.1524" transform="matrix(-1 0 0 1 100.372 121.933)" fill="#2B2B2B"/>
<rect width="11.1524" height="11.1524" transform="matrix(-1 0 0 1 66.9145 156.134)" fill="#2B2B2B"/>
<rect width="11.1524" height="11.1524" transform="matrix(-1 0 0 1 255.762 55.7617)" fill="#2B2B2B"/>
<rect width="11.1524" height="11.1524" transform="matrix(-1 0 0 1 266.914 66.9141)" fill="#2B2B2B"/>
<rect width="11.1524" height="11.1524" transform="matrix(-1 0 0 1 278.067 55.7617)" fill="#2B2B2B"/>
<rect width="11.1524" height="11.1524" transform="matrix(-1 0 0 1 144.981 89.2197)" fill="#2B2B2B"/>
<rect width="11.1524" height="11.1524" transform="matrix(-1 0 0 1 78.0669 133.086)" fill="#2B2B2B"/>
<rect width="11.1524" height="11.1524" transform="matrix(-1 0 0 1 89.2194 121.933)" fill="#2B2B2B"/>
<rect width="11.1524" height="11.1524" transform="matrix(-1 0 0 1 66.9145 144.981)" fill="#2B2B2B"/>
<rect width="11.1524" height="11.1524" transform="matrix(-1 0 0 1 111.524 143.494)" fill="#2B2B2B"/>
<rect width="11.1524" height="11.1524" transform="matrix(-1 0 0 1 100.372 154.646)" fill="#2B2B2B"/>
<rect width="11.1524" height="11.1524" transform="matrix(-1 0 0 1 133.829 165.799)" fill="#2B2B2B"/>
<rect width="11.1524" height="11.1524" transform="matrix(-1 0 0 1 155.39 188.104)" fill="#2B2B2B"/>
<rect width="11.1524" height="11.1524" transform="matrix(-1 0 0 1 222.305 232.714)" fill="#2B2B2B"/>
<rect width="11.1524" height="11.1524" transform="matrix(-1 0 0 1 200 255.019)" fill="#2B2B2B"/>
<rect width="11.1524" height="11.1524" transform="matrix(-1 0 0 1 178.439 210.409)" fill="#2B2B2B"/>
<rect width="11.1524" height="11.1524" transform="matrix(-1 0 0 1 122.677 176.951)" fill="#2B2B2B"/>
<rect width="11.1524" height="11.1524" transform="matrix(-1 0 0 1 144.238 199.257)" fill="#2B2B2B"/>
<rect width="11.1524" height="11.1524" transform="matrix(-1 0 0 1 167.286 221.562)" fill="#2B2B2B"/>
<rect width="11.1524" height="11.1524" transform="matrix(-1 0 0 1 111.524 188.848)" fill="#2B2B2B"/>
<rect width="11.1524" height="11.1524" transform="matrix(-1 0 0 1 133.086 211.152)" fill="#2B2B2B"/>
<rect width="11.1524" height="11.1524" transform="matrix(-1 0 0 1 155.39 232.714)" fill="#2B2B2B"/>
<rect width="11.1524" height="11.1524" transform="matrix(-1 0 0 1 89.2194 166.543)" fill="#2B2B2B"/>
<rect width="33.4572" height="11.1524" transform="matrix(-1 0 0 1 167.286 66.9141)" fill="#2B2B2B"/>
<rect width="44.6097" height="11.1524" transform="matrix(-1 0 0 1 189.591 100.372)" fill="#2B2B2B"/>
<rect width="66.171" height="11.1524" transform="matrix(-1 0 0 1 244.61 44.6094)" fill="#2B2B2B"/>
<rect width="11.1524" height="11.1524" transform="matrix(-1 0 0 1 133.829 33.457)" fill="#2B2B2B"/>
<rect width="11.1524" height="11.1524" transform="matrix(-1 0 0 1 388.848 100.372)" fill="#2B2B2B"/>
<rect width="11.1524" height="11.1524" transform="matrix(-1 0 0 1 333.829 133.829)" fill="#2B2B2B"/>
<rect width="11.1524" height="11.1524" transform="matrix(-1 0 0 1 311.524 0)" fill="#2B2B2B"/>
<rect width="11.1524" height="11.1524" transform="matrix(-1 0 0 1 255.762 121.933)" fill="#2B2B2B"/>
<rect width="11.1524" height="11.1524" transform="matrix(-1 0 0 1 144.981 165.799)" fill="#2B2B2B"/>
<rect width="11.1524" height="11.1524" transform="matrix(-1 0 0 1 166.543 188.104)" fill="#2B2B2B"/>
<rect width="11.1524" height="11.1524" transform="matrix(-1 0 0 1 233.457 232.714)" fill="#2B2B2B"/>
<rect width="11.1524" height="11.1524" transform="matrix(-1 0 0 1 211.152 255.019)" fill="#2B2B2B"/>
<rect width="11.1524" height="11.1524" transform="matrix(-1 0 0 1 200 210.409)" fill="#2B2B2B"/>
<rect width="11.1524" height="11.1524" transform="matrix(-1 0 0 1 233.457 188.104)" fill="#2B2B2B"/>
<rect width="11.1524" height="11.1524" transform="matrix(-1 0 0 1 255.762 165.799)" fill="#2B2B2B"/>
<rect width="11.1524" height="11.1524" transform="matrix(-1 0 0 1 177.695 232.714)" fill="#2B2B2B"/>
<rect width="11.1524" height="11.1524" transform="matrix(-1 0 0 1 133.086 222.305)" fill="#2B2B2B"/>
<rect width="11.1524" height="11.1524" transform="matrix(-1 0 0 1 111.524 200)" fill="#2B2B2B"/>
<rect width="11.1524" height="11.1524" transform="matrix(-1 0 0 1 300.372 166.543)" fill="#2B2B2B"/>
<rect width="11.1524" height="11.1524" transform="matrix(-1 0 0 1 266.171 210.409)" fill="#2B2B2B"/>
<rect width="11.1524" height="11.1524" transform="matrix(-1 0 0 1 299.628 200)" fill="#2B2B2B"/>
<rect width="11.1524" height="11.1524" transform="matrix(-1 0 0 1 243.866 220.817)" fill="#2B2B2B"/>
<rect width="11.1524" height="11.1524" transform="matrix(-1 0 0 1 311.524 66.9141)" fill="#2B2B2B"/>
<rect width="11.1524" height="11.1524" transform="matrix(-1 0 0 1 356.134 111.524)" fill="#2B2B2B"/>
<rect width="11.1524" height="11.1524" transform="matrix(-1 0 0 1 400 88.4756)" fill="#2B2B2B"/>
<rect width="11.1524" height="11.1524" transform="matrix(-1 0 0 1 344.981 121.933)" fill="#2B2B2B"/>
<rect width="11.1524" height="11.1524" transform="matrix(-1 0 0 1 356.134 44.6094)" fill="#2B2B2B"/>
</svg>
