<svg width="38" height="38" viewBox="0 0 38 38" fill="none" xmlns="http://www.w3.org/2000/svg">
<g id="info">
<rect id="Rectangle 620" x="10.3638" width="17.2727" height="3.45455" fill="black"/>
<rect id="Rectangle 624" width="17.2727" height="3.45455" transform="matrix(1 0 0 -1 10.3638 38)" fill="black"/>
<rect id="Rectangle 621" x="27.6362" y="3.45454" width="3.45455" height="3.45455" fill="black"/>
<rect id="Rectangle 632" x="17.2729" y="6.90909" width="3.45455" height="3.45455" fill="black"/>
<rect id="Rectangle 625" width="3.45455" height="3.45455" transform="matrix(1 0 0 -1 27.6362 34.5455)" fill="black"/>
<rect id="Rectangle 622" x="31.0908" y="6.90909" width="3.45455" height="3.45455" fill="black"/>
<rect id="Rectangle 626" width="3.45455" height="3.45455" transform="matrix(1 0 0 -1 31.0908 31.0909)" fill="black"/>
<rect id="Rectangle 623" x="34.5454" y="10.3636" width="3.45455" height="17.2727" fill="black"/>
<rect id="Rectangle 633" x="17.2729" y="12.9545" width="3.45455" height="17.2727" fill="black"/>
<rect id="Rectangle 627" width="3.45455" height="3.45455" transform="matrix(-1 0 0 1 10.3638 3.45454)" fill="black"/>
<rect id="Rectangle 628" x="10.3638" y="34.5455" width="3.45455" height="3.45455" transform="rotate(180 10.3638 34.5455)" fill="black"/>
<rect id="Rectangle 629" width="3.45455" height="3.45455" transform="matrix(-1 0 0 1 6.90918 6.90909)" fill="black"/>
<rect id="Rectangle 630" x="6.90918" y="31.0909" width="3.45455" height="3.45455" transform="rotate(180 6.90918 31.0909)" fill="black"/>
<rect id="Rectangle 631" width="3.45455" height="17.2727" transform="matrix(-1 0 0 1 3.45459 10.3636)" fill="black"/>
</g>
</svg>
