<svg width="53" height="60" viewBox="0 0 53 60" fill="none" xmlns="http://www.w3.org/2000/svg">
<path d="M27.6374 59.665L51.3977 45.8679C52.159 45.4261 52.6284 44.6132 52.6306 43.734L52.709 16.278C52.7111 15.3911 52.2385 14.5696 51.4696 14.1267L27.5557 0.331763C26.7868 -0.112216 25.8394 -0.110039 25.0716 0.335028L1.31125 14.1321C0.549989 14.5739 0.0805989 15.3868 0.0784208 16.266L7.49578e-06 43.722C-0.00217065 44.6089 0.470487 45.4304 1.23937 45.8733L25.1521 59.6682C25.921 60.1122 26.8685 60.11 27.6363 59.665H27.6374Z" fill="#F2F2F2"/>
<path d="M33.8207 37.986L33.8294 34.8923L44.5263 28.681L44.5176 31.7747L33.8207 37.986ZM49.8922 19.389L44.5437 22.4947L28.4984 31.8117L28.4287 56.5581L33.7771 53.4524L33.8033 44.1724L44.5002 37.961L44.474 47.241L49.8225 44.1354L49.8486 34.8553L47.1466 36.4245L47.164 30.2382L49.866 28.669L49.8922 19.389Z" fill="#FBA114"/>
<path d="M47.8636 15.8644L26.3294 3.44165L4.91602 15.8763L26.4503 28.299L31.803 25.1901L15.6521 15.8731L26.3599 9.65627L42.5097 18.9733L47.8636 15.8644Z" fill="#FBA114"/>
<path d="M24.4194 31.8117L2.88622 19.389L2.86879 25.5764L10.9432 30.2349L10.9083 42.6075L2.83285 37.949L2.81543 44.1364L16.2742 51.8995L16.3265 33.3395L24.4019 37.998L24.4194 31.8117Z" fill="#FBA114"/>
</svg>
