<svg width="46" height="50" viewBox="0 0 46 50" fill="none" xmlns="http://www.w3.org/2000/svg">
<path d="M30.026 32.5174L30.0345 29.6057L40.0979 23.759L40.0894 26.6707L30.026 32.5174ZM45.146 15.0117L40.1142 17.935L25.0191 26.7051L24.9531 50L29.9848 47.0766L30.0097 38.3409L40.0731 32.4942L40.0482 41.2299L45.08 38.3066L45.1048 29.5709L42.5625 31.0481L42.5789 25.2246L45.1211 23.7474L45.146 15.0117Z" fill="#F2F2F2"/>
<path d="M43.2372 11.6939L22.9779 0L2.83203 11.7045L23.0914 23.3984L28.1279 20.4724L12.9335 11.7018L23.0064 5.84987L38.2008 14.6199L43.2372 11.6939Z" fill="#F2F2F2"/>
<path d="M21.1803 26.7056L0.921481 15.0117L0.905107 20.8357L8.5023 25.2209L8.46903 36.8679L0.871843 32.4826L0.855469 38.3066L13.5171 45.6147L13.5668 28.1438L21.164 32.5291L21.1803 26.7056Z" fill="#F2F2F2"/>
</svg>
