<svg width="40" height="43" viewBox="0 0 40 43" fill="none" xmlns="http://www.w3.org/2000/svg">
<path d="M26.0414 27.965L26.0487 25.4609L34.7032 20.4328L34.6959 22.9368L26.0414 27.965ZM39.0446 12.91L34.7173 15.4241L21.7355 22.9664L21.6787 43L26.006 40.4859L26.0273 32.9732L34.6819 27.945L34.6605 35.4578L38.9878 32.9437L39.0091 25.4309L36.8228 26.7014L36.8368 21.6932L39.0232 20.4228L39.0446 12.91Z" fill="#FBA114"/>
<path d="M37.4028 10.0568L19.9797 0L2.6543 10.0659L20.0774 20.1226L24.4087 17.6063L11.3415 10.0636L20.0042 5.03089L33.0714 12.5731L37.4028 10.0568Z" fill="#FBA114"/>
<path d="M18.4345 22.9668L1.01185 12.91L0.997767 17.9187L7.53135 21.69L7.50274 31.7064L0.96916 27.935L0.955078 32.9437L11.8441 39.2287L11.8868 24.2036L18.4204 27.975L18.4345 22.9668Z" fill="#FBA114"/>
</svg>
