<svg width="30" height="30" viewBox="0 0 30 30" fill="none" xmlns="http://www.w3.org/2000/svg">
<g id="location-sign-svgrepo-com 1" clip-path="url(#clip0_481_192)">
<g id="Group">
<path id="Vector" d="M14.9995 0C9.25908 0 4.58899 4.67077 4.58899 10.4113C4.58899 15.9371 14.0346 28.8473 14.4368 29.394L14.8122 29.9049C14.8561 29.9649 14.926 30 14.9995 30C15.0742 30 15.1436 29.9649 15.188 29.9049L15.5631 29.394C15.9655 28.8473 25.4109 15.9371 25.4109 10.4113C25.4109 4.67077 20.7401 0 14.9995 0ZM14.9995 6.68201C17.0563 6.68201 18.7288 8.3546 18.7288 10.4113C18.7288 12.467 17.0562 14.1407 14.9995 14.1407C12.9439 14.1407 11.2702 12.467 11.2702 10.4113C11.2702 8.3546 12.9438 6.68201 14.9995 6.68201Z" fill="black"/>
</g>
</g>
<defs>
<clipPath id="clip0_481_192">
<rect width="30" height="30" fill="white"/>
</clipPath>
</defs>
</svg>
