<svg width="26" height="33" viewBox="0 0 26 33" fill="none" xmlns="http://www.w3.org/2000/svg">
<g id="lock">
<rect id="Rectangle 303" x="0.5" y="13.7222" width="25" height="1.38889" fill="black"/>
<rect id="Rectangle 304" x="0.5" y="31.2222" width="25" height="1.38889" fill="black"/>
<rect id="Rectangle 305" x="24.1113" y="15.1112" width="1.38889" height="16.1111" fill="black"/>
<rect id="Rectangle 306" x="0.5" y="15.1112" width="1.38889" height="16.1111" fill="black"/>
<rect id="Rectangle 307" x="12.1665" y="23.7222" width="1.38889" height="4.44444" fill="black"/>
<rect id="Rectangle 309" x="3.55566" y="6.22221" width="1.38889" height="7.5" fill="black"/>
<rect id="Rectangle 313" x="8" y="4.83327" width="1.38889" height="3.05556" fill="black"/>
<rect id="Rectangle 314" x="16.6113" y="4.83327" width="1.38889" height="3.05556" fill="black"/>
<rect id="Rectangle 315" x="19.6665" y="3.4445" width="1.38889" height="3.05556" fill="black"/>
<rect id="Rectangle 316" x="4.94434" y="3.4445" width="1.38889" height="3.05556" fill="black"/>
<rect id="Rectangle 317" x="6.3335" y="1.77785" width="3.05556" height="1.38889" fill="black"/>
<rect id="Rectangle 318" x="16.6113" y="1.77785" width="3.05556" height="1.38889" fill="black"/>
<rect id="Rectangle 319" x="9.38867" y="0.388885" width="7.22222" height="1.38889" fill="black"/>
<rect id="Rectangle 320" x="9.38867" y="3.1666" width="7.22222" height="1.38889" fill="black"/>
<rect id="Rectangle 312" x="21.0557" y="6.22221" width="1.38889" height="7.5" fill="black"/>
<rect id="Rectangle 310" x="6.61133" y="7.61118" width="1.38889" height="6.11111" fill="black"/>
<rect id="Rectangle 311" x="18" y="7.61118" width="1.38889" height="6.11111" fill="black"/>
<rect id="Rectangle 308" x="10.7778" y="19.2778" width="4.44444" height="4.44444" fill="black"/>
</g>
</svg>
