<svg width="40" height="46" viewBox="0 0 40 46" fill="none" xmlns="http://www.w3.org/2000/svg">
<path d="M35.462 16.1788L35.4397 24.0591L26.3635 29.3336L26.3858 21.4533L21.8477 24.0905L21.7882 45.1045L26.3262 42.4673L26.3486 34.587L35.4247 29.3125L35.4024 37.1928L39.9404 34.5556L40 13.5416L35.462 16.1788Z" fill="white"/>
<path d="M1.83936 10.5586L20.1105 21.1074L24.6526 18.4678L10.9494 10.5563L20.0338 5.27692L33.737 13.1886L38.2791 10.5489L20.008 8.00682e-05L1.83936 10.5586Z" fill="white"/>
<path d="M0.0447385 18.795L6.89626 22.7507L6.8665 33.258L0.0149128 29.3022L0 34.5557L18.271 45.1045L18.2859 39.8509L11.4342 35.8952L11.464 25.3879L18.3157 29.3437L18.3306 24.0903L0.0596513 13.5415L0.0447385 18.795Z" fill="white"/>
</svg>
