<svg width="35" height="24" viewBox="0 0 35 24" fill="none" xmlns="http://www.w3.org/2000/svg">
<g id="mail">
<rect id="Rectangle 222" x="1.90479" width="30.3492" height="1.52381" fill="white"/>
<rect id="Rectangle 248" x="1.90479" y="22.4763" width="30.3492" height="1.52381" fill="white"/>
<rect id="Rectangle 223" x="1.90479" y="1.52393" width="1.90476" height="1.90476" fill="white"/>
<rect id="Rectangle 224" x="3.80957" y="3.42871" width="1.90476" height="1.90476" fill="white"/>
<rect id="Rectangle 225" x="5.71436" y="5.33325" width="1.90476" height="1.90476" fill="white"/>
<rect id="Rectangle 226" x="7.61914" y="7.23804" width="1.90476" height="1.90476" fill="white"/>
<rect id="Rectangle 227" x="9.52393" y="9.14282" width="1.90476" height="1.90476" fill="white"/>
<rect id="Rectangle 228" x="11.4287" y="11.0476" width="1.90476" height="1.90476" fill="white"/>
<rect id="Rectangle 229" x="13.333" y="12.9524" width="1.90476" height="1.90476" fill="white"/>
<rect id="Rectangle 250" x="15.2378" y="14.8572" width="3.68254" height="1.90476" fill="white"/>
<rect id="Rectangle 230" x="9.52393" y="12.9524" width="1.90476" height="1.90476" fill="white"/>
<rect id="Rectangle 231" x="7.61914" y="14.8572" width="1.90476" height="1.90476" fill="white"/>
<rect id="Rectangle 232" x="5.71436" y="16.7617" width="1.90476" height="1.90476" fill="white"/>
<rect id="Rectangle 233" x="3.80957" y="18.6665" width="1.90476" height="1.90476" fill="white"/>
<rect id="Rectangle 234" x="1.90479" y="20.5715" width="1.90476" height="1.90476" fill="white"/>
<rect id="Rectangle 235" x="18.9209" y="12.9524" width="1.90476" height="1.90476" fill="white"/>
<rect id="Rectangle 236" x="20.8257" y="11.0476" width="1.90476" height="1.90476" fill="white"/>
<rect id="Rectangle 237" x="30.3491" y="1.52393" width="1.90476" height="1.90476" fill="white"/>
<rect id="Rectangle 238" x="28.4443" y="3.42871" width="1.90476" height="1.90476" fill="white"/>
<rect id="Rectangle 239" x="26.5396" y="5.33325" width="1.90476" height="1.90476" fill="white"/>
<rect id="Rectangle 240" x="24.6348" y="7.23804" width="1.90476" height="1.90476" fill="white"/>
<rect id="Rectangle 241" x="22.7305" y="9.14282" width="1.90476" height="1.90476" fill="white"/>
<rect id="Rectangle 242" x="22.7305" y="12.9524" width="1.90476" height="1.90476" fill="white"/>
<rect id="Rectangle 243" x="24.6348" y="14.8572" width="1.90476" height="1.90476" fill="white"/>
<rect id="Rectangle 244" x="26.5396" y="16.7617" width="1.90476" height="1.90476" fill="white"/>
<rect id="Rectangle 245" x="28.4443" y="18.6665" width="1.90476" height="1.90476" fill="white"/>
<rect id="Rectangle 246" x="30.3491" y="20.5715" width="1.90476" height="1.90476" fill="white"/>
<rect id="Rectangle 247" x="32.2539" y="1.52393" width="1.90476" height="20.9524" fill="white"/>
<rect id="Rectangle 249" y="1.52393" width="1.90476" height="20.9524" fill="white"/>
</g>
</svg>
