<svg width="30" height="22" viewBox="0 0 30 22" fill="none" xmlns="http://www.w3.org/2000/svg">
<g id="mail">
<rect id="Rectangle 222" x="1.67285" y="0.460968" width="26.6543" height="1.33829" fill="black"/>
<rect id="Rectangle 248" x="1.67285" y="20.2007" width="26.6543" height="1.33829" fill="black"/>
<rect id="Rectangle 223" x="1.67285" y="1.79929" width="1.67286" height="1.67286" fill="black"/>
<rect id="Rectangle 224" x="3.3457" y="3.47214" width="1.67286" height="1.67286" fill="black"/>
<rect id="Rectangle 225" x="5.01855" y="5.14499" width="1.67286" height="1.67286" fill="black"/>
<rect id="Rectangle 226" x="6.69141" y="6.81784" width="1.67286" height="1.67286" fill="black"/>
<rect id="Rectangle 227" x="8.36426" y="8.49069" width="1.67286" height="1.67286" fill="black"/>
<rect id="Rectangle 228" x="10.0371" y="10.1635" width="1.67286" height="1.67286" fill="black"/>
<rect id="Rectangle 229" x="11.71" y="11.8364" width="1.67286" height="1.67286" fill="black"/>
<rect id="Rectangle 250" x="13.3828" y="13.5092" width="3.2342" height="1.67286" fill="black"/>
<rect id="Rectangle 230" x="8.36426" y="11.8364" width="1.67286" height="1.67286" fill="black"/>
<rect id="Rectangle 231" x="6.69141" y="13.5092" width="1.67286" height="1.67286" fill="black"/>
<rect id="Rectangle 232" x="5.01855" y="15.1821" width="1.67286" height="1.67286" fill="black"/>
<rect id="Rectangle 233" x="3.3457" y="16.8549" width="1.67286" height="1.67286" fill="black"/>
<rect id="Rectangle 234" x="1.67285" y="18.5279" width="1.67286" height="1.67286" fill="black"/>
<rect id="Rectangle 235" x="16.6172" y="11.8364" width="1.67286" height="1.67286" fill="black"/>
<rect id="Rectangle 236" x="18.29" y="10.1635" width="1.67286" height="1.67286" fill="black"/>
<rect id="Rectangle 237" x="26.6543" y="1.79929" width="1.67286" height="1.67286" fill="black"/>
<rect id="Rectangle 238" x="24.9814" y="3.47214" width="1.67286" height="1.67286" fill="black"/>
<rect id="Rectangle 239" x="23.3086" y="5.14499" width="1.67286" height="1.67286" fill="black"/>
<rect id="Rectangle 240" x="21.6357" y="6.81784" width="1.67286" height="1.67286" fill="black"/>
<rect id="Rectangle 241" x="19.9629" y="8.49069" width="1.67286" height="1.67286" fill="black"/>
<rect id="Rectangle 242" x="19.9629" y="11.8364" width="1.67286" height="1.67286" fill="black"/>
<rect id="Rectangle 243" x="21.6357" y="13.5092" width="1.67286" height="1.67286" fill="black"/>
<rect id="Rectangle 244" x="23.3086" y="15.1821" width="1.67286" height="1.67286" fill="black"/>
<rect id="Rectangle 245" x="24.9814" y="16.8549" width="1.67286" height="1.67286" fill="black"/>
<rect id="Rectangle 246" x="26.6543" y="18.5279" width="1.67286" height="1.67286" fill="black"/>
<rect id="Rectangle 247" x="28.3271" y="1.79929" width="1.67286" height="18.4015" fill="black"/>
<rect id="Rectangle 249" y="1.79929" width="1.67286" height="18.4015" fill="black"/>
</g>
</svg>
