<svg width="25" height="30" viewBox="0 0 25 30" fill="none" xmlns="http://www.w3.org/2000/svg">
<g id="mugshot">
<rect id="Rectangle 251" x="8.99463" y="0.0483398" width="7.01058" height="2.24868" fill="white"/>
<rect id="Rectangle 252" x="8.99463" y="13.937" width="7.01058" height="2.24868" fill="white"/>
<rect id="Rectangle 263" x="2.38086" y="18.4346" width="20.3704" height="2.24868" fill="white"/>
<rect id="Rectangle 264" x="0.132324" y="27.4292" width="24.8677" height="2.24868" fill="white"/>
<rect id="Rectangle 253" x="13.7568" y="11.6885" width="4.49735" height="2.24868" fill="white"/>
<rect id="Rectangle 254" x="6.74609" y="11.6885" width="4.49735" height="2.24868" fill="white"/>
<rect id="Rectangle 255" x="6.74609" y="2.29688" width="4.49735" height="2.24868" fill="white"/>
<rect id="Rectangle 261" x="4.49707" y="6.79443" width="2.24868" height="2.6455" fill="white"/>
<rect id="Rectangle 262" x="18.2539" y="6.79443" width="2.24868" height="2.6455" fill="white"/>
<rect id="Rectangle 267" x="22.7515" y="22.9321" width="2.24868" height="4.49735" fill="white"/>
<rect id="Rectangle 268" y="22.9321" width="2.24868" height="4.49735" fill="white"/>
<rect id="Rectangle 256" x="13.7568" y="2.29688" width="4.49735" height="2.24868" fill="white"/>
<rect id="Rectangle 265" x="20.5029" y="20.6831" width="4.49735" height="2.24868" fill="white"/>
<rect id="Rectangle 266" y="20.6831" width="4.49735" height="2.24868" fill="white"/>
<rect id="Rectangle 257" x="16.0054" y="9.43994" width="4.49735" height="2.24868" fill="white"/>
<rect id="Rectangle 258" x="16.0054" y="4.5459" width="4.49735" height="2.24868" fill="white"/>
<rect id="Rectangle 259" x="4.49707" y="4.5459" width="4.49735" height="2.24868" fill="white"/>
<rect id="Rectangle 260" x="4.49707" y="9.43994" width="4.49735" height="2.24868" fill="white"/>
</g>
</svg>
