<svg width="30" height="36" viewBox="0 0 30 36" fill="none" xmlns="http://www.w3.org/2000/svg">
<g id="mugshot">
<rect id="Rectangle 251" x="10.7935" y="0.222221" width="8.4127" height="2.69841" fill="black"/>
<rect id="Rectangle 252" x="10.7935" y="16.8888" width="8.4127" height="2.69841" fill="black"/>
<rect id="Rectangle 263" x="2.85693" y="22.2857" width="24.4444" height="2.69841" fill="black"/>
<rect id="Rectangle 264" x="0.158691" y="33.0794" width="29.8413" height="2.69841" fill="black"/>
<rect id="Rectangle 253" x="16.5078" y="14.1906" width="5.39683" height="2.69841" fill="black"/>
<rect id="Rectangle 254" x="8.09521" y="14.1906" width="5.39683" height="2.69841" fill="black"/>
<rect id="Rectangle 255" x="8.09521" y="2.92067" width="5.39683" height="2.69841" fill="black"/>
<rect id="Rectangle 261" x="5.39697" y="8.31747" width="2.69841" height="3.1746" fill="black"/>
<rect id="Rectangle 262" x="21.9048" y="8.31747" width="2.69841" height="3.1746" fill="black"/>
<rect id="Rectangle 267" x="27.3018" y="27.6826" width="2.69841" height="5.39683" fill="black"/>
<rect id="Rectangle 268" y="27.6826" width="2.69841" height="5.39683" fill="black"/>
<rect id="Rectangle 256" x="16.5078" y="2.92067" width="5.39683" height="2.69841" fill="black"/>
<rect id="Rectangle 265" x="24.603" y="24.9841" width="5.39683" height="2.69841" fill="black"/>
<rect id="Rectangle 266" y="24.9841" width="5.39683" height="2.69841" fill="black"/>
<rect id="Rectangle 257" x="19.2065" y="11.4921" width="5.39683" height="2.69841" fill="black"/>
<rect id="Rectangle 258" x="19.2065" y="5.61912" width="5.39683" height="2.69841" fill="black"/>
<rect id="Rectangle 259" x="5.39697" y="5.61912" width="5.39683" height="2.69841" fill="black"/>
<rect id="Rectangle 260" x="5.39697" y="11.4921" width="5.39683" height="2.69841" fill="black"/>
</g>
</svg>
