<svg width="28" height="29" viewBox="0 0 28 29" fill="none" xmlns="http://www.w3.org/2000/svg">
<g id="NO">
<rect id="Rectangle 488" x="5.07227" y="2.30127" width="5.47826" height="3.44928" fill="white"/>
<rect id="Rectangle 493" x="3.44922" y="5.75049" width="5.27536" height="3.44928" fill="white"/>
<rect id="Rectangle 516" x="8.72461" y="25.2288" width="8.92754" height="3.44928" fill="white"/>
<rect id="Rectangle 509" x="22.9277" y="5.75049" width="3.44928" height="3.65217" fill="white"/>
<rect id="Rectangle 496" y="9.19971" width="3.44928" height="10.5507" fill="white"/>
<rect id="Rectangle 508" x="24.5508" y="9.40259" width="3.44928" height="10.5507" fill="white"/>
<rect id="Rectangle 489" x="17.4492" y="2.30127" width="5.47826" height="3.44928" fill="white"/>
<rect id="Rectangle 490" x="10.5508" y="0.677979" width="6.89855" height="3.44928" fill="white"/>
<rect id="Rectangle 491" x="17.4492" y="0.677979" width="1.82609" height="1.62319" fill="white"/>
<rect id="Rectangle 492" x="8.72461" y="0.677979" width="1.82609" height="1.62319" fill="white"/>
<rect id="Rectangle 494" x="3.44922" y="4.1272" width="1.62319" height="1.62319" fill="white"/>
<rect id="Rectangle 497" x="3.44922" y="9.19971" width="1.62319" height="1.62319" fill="white"/>
<rect id="Rectangle 520" x="3.44922" y="18.1272" width="1.82609" height="1.62319" fill="white"/>
<rect id="Rectangle 521" x="3.85498" y="23.6055" width="1.62319" height="1.62319" fill="white"/>
<rect id="Rectangle 522" x="5.47852" y="25.2288" width="3.24638" height="1.62319" fill="white"/>
<rect id="Rectangle 498" x="1.82617" y="7.57666" width="1.62319" height="1.62319" fill="white"/>
<rect id="Rectangle 499" x="1.82617" y="5.95337" width="1.62319" height="1.62319" fill="white"/>
<rect id="Rectangle 500" x="8.72461" y="7.57666" width="1.62319" height="1.62319" fill="white"/>
<rect id="Rectangle 502" x="8.72461" y="11.2288" width="5.07246" height="1.62319" fill="white"/>
<rect id="Rectangle 504" x="12.377" y="14.4751" width="5.07246" height="1.82609" fill="white"/>
<rect id="Rectangle 506" x="15.8262" y="18.1272" width="5.07246" height="1.82609" fill="white"/>
<rect id="Rectangle 503" x="10.5508" y="12.8518" width="5.07246" height="1.62319" fill="white"/>
<rect id="Rectangle 505" x="14.2031" y="16.3013" width="5.07246" height="1.82609" fill="white"/>
<rect id="Rectangle 517" x="5.47852" y="23.6055" width="5.07246" height="1.62319" fill="white"/>
<rect id="Rectangle 519" x="1.82617" y="19.7505" width="3.44928" height="2.02899" fill="white"/>
<rect id="Rectangle 518" x="1.82617" y="21.7793" width="5.07246" height="1.82609" fill="white"/>
<rect id="Rectangle 507" x="17.6523" y="19.9534" width="5.07246" height="1.82609" fill="white"/>
<rect id="Rectangle 501" x="7.10156" y="9.19971" width="5.07246" height="2.02899" fill="white"/>
<rect id="Rectangle 495" x="22.9277" y="4.1272" width="1.62319" height="1.62319" fill="white"/>
<rect id="Rectangle 510" x="21.3042" y="5.75049" width="1.62319" height="1.62319" fill="white"/>
<rect id="Rectangle 511" x="22.9277" y="9.40259" width="1.62319" height="1.62319" fill="white"/>
<rect id="Rectangle 512" x="22.7246" y="18.3301" width="1.82609" height="6.89855" fill="white"/>
<rect id="Rectangle 513" x="24.5508" y="19.9534" width="1.62319" height="3.24638" fill="white"/>
<rect id="Rectangle 515" x="17.6523" y="23.6055" width="1.62319" height="5.07246" fill="white"/>
<rect id="Rectangle 514" x="19.2754" y="21.7793" width="3.44928" height="5.07246" fill="white"/>
</g>
</svg>
