<svg width="35" height="36" viewBox="0 0 35 36" fill="none" xmlns="http://www.w3.org/2000/svg">
<path d="M22.9405 18.8882C24.7586 17.7177 26.1479 15.9923 26.9008 13.9698C27.6537 11.9472 27.7297 9.73615 27.1175 7.66699C26.5053 5.59782 25.2378 3.78164 23.5043 2.48985C21.7708 1.19805 19.6644 0.5 17.5 0.5C15.3355 0.5 13.2292 1.19805 11.4957 2.48985C9.76221 3.78164 8.49466 5.59782 7.88246 7.66699C7.27026 9.73615 7.34628 11.9472 8.09915 13.9698C8.85203 15.9923 10.2413 17.7177 12.0595 18.8882C8.75692 19.9655 5.84882 21.9942 3.70263 24.718C1.55643 27.4418 0.268464 30.7386 0.00145463 34.1917C-0.00676095 34.3615 0.0198882 34.5311 0.0797691 34.6902C0.13965 34.8493 0.231501 34.9946 0.349693 35.1171C0.467885 35.2395 0.609927 35.3367 0.767116 35.4025C0.924304 35.4684 1.09333 35.5015 1.26382 35.4999H3.77488C4.0944 35.4944 4.40011 35.3691 4.63126 35.1492C4.8624 34.9292 5.00204 34.6307 5.02243 34.3128C5.31887 31.2192 6.76153 28.3469 9.06872 26.2565C11.3759 24.1661 14.382 23.0079 17.5 23.0079C20.618 23.0079 23.6241 24.1661 25.9313 26.2565C28.2384 28.3469 29.6811 31.2192 29.9775 34.3128C29.9979 34.6307 30.1376 34.9292 30.3687 35.1492C30.5999 35.3691 30.9056 35.4944 31.2251 35.4999H33.7362C33.9067 35.5015 34.0757 35.4684 34.2329 35.4025C34.3901 35.3367 34.5321 35.2396 34.6503 35.1171C34.7685 34.9946 34.8603 34.8493 34.9202 34.6902C34.9801 34.5311 35.0068 34.3615 34.9985 34.1917C34.7315 30.7386 33.4436 27.4418 31.2974 24.718C29.1512 21.9941 26.2431 19.9655 22.9405 18.8882ZM17.5 5.51911C18.4916 5.51911 19.4609 5.81217 20.2853 6.36122C21.1098 6.91028 21.7524 7.69067 22.1318 8.60372C22.5113 9.51677 22.6106 10.5215 22.4171 11.4907C22.2237 12.46 21.7462 13.3504 21.0451 14.0492C20.3439 14.748 19.4506 15.2239 18.4781 15.4167C17.5055 15.6095 16.4975 15.5106 15.5814 15.1324C14.6653 14.7542 13.8823 14.1137 13.3314 13.292C12.7805 12.4703 12.4865 11.5042 12.4865 10.5159C12.488 9.19115 13.0167 7.92107 13.9566 6.98431C14.8965 6.04756 16.1708 5.52062 17.5 5.51911Z" fill="white"/>
</svg>
