<svg width="28" height="29" viewBox="0 0 28 29" fill="none" xmlns="http://www.w3.org/2000/svg">
<g id="phone">
<rect id="Rectangle 543" x="3.7168" width="7.48276" height="1.88276" fill="white"/>
<rect id="Rectangle 544" x="9.31738" y="1.88257" width="3.71724" height="1.88276" fill="white"/>
<rect id="Rectangle 549" x="11.1997" y="3.76562" width="1.83448" height="1.88276" fill="white"/>
<rect id="Rectangle 552" x="1.88281" y="13.0344" width="1.83448" height="1.88276" fill="white"/>
<rect id="Rectangle 570" x="5.6001" y="18.6345" width="1.83448" height="1.88276" fill="white"/>
<rect id="Rectangle 554" x="7.48291" y="9.31714" width="1.83448" height="1.88276" fill="white"/>
<rect id="Rectangle 550" y="5.64819" width="1.88276" height="9.26897" fill="white"/>
<rect id="Rectangle 562" x="26.1172" y="18.6829" width="1.88276" height="5.55172" fill="white"/>
<rect id="Rectangle 563" x="24.2349" y="22.4001" width="1.88276" height="3.76552" fill="white"/>
<rect id="Rectangle 564" x="22.3516" y="24.2827" width="1.88276" height="3.76552" fill="white"/>
<rect id="Rectangle 565" x="13.0342" y="24.2827" width="1.88276" height="3.76552" fill="white"/>
<rect id="Rectangle 566" x="11.1514" y="22.4001" width="1.88276" height="3.76552" fill="white"/>
<rect id="Rectangle 569" x="3.7168" y="16.8" width="1.88276" height="3.71724" fill="white"/>
<rect id="Rectangle 545" x="1.83447" y="1.88257" width="3.71724" height="1.88276" fill="white"/>
<rect id="Rectangle 546" y="3.76562" width="3.71724" height="1.88276" fill="white"/>
<rect id="Rectangle 547" x="9.31738" y="5.55176" width="3.71724" height="1.88276" fill="white"/>
<rect id="Rectangle 551" x="1.88281" y="14.9172" width="3.71724" height="1.88276" fill="white"/>
<rect id="Rectangle 567" x="5.6001" y="20.5171" width="3.71724" height="1.88276" fill="white"/>
<rect id="Rectangle 568" x="7.43457" y="22.4001" width="3.71724" height="1.88276" fill="white"/>
<rect id="Rectangle 553" x="7.48291" y="11.2" width="3.71724" height="1.88276" fill="white"/>
<rect id="Rectangle 555" x="9.36572" y="13.0828" width="3.71724" height="1.88276" fill="white"/>
<rect id="Rectangle 556" x="11.248" y="14.9656" width="3.71724" height="1.88276" fill="white"/>
<rect id="Rectangle 557" x="13.0342" y="16.8481" width="3.71724" height="1.88276" fill="white"/>
<rect id="Rectangle 559" x="18.5859" y="16.8" width="3.71724" height="2.02759" fill="white"/>
<rect id="Rectangle 561" x="24.2349" y="16.8" width="3.71724" height="1.88276" fill="white"/>
<rect id="Rectangle 560" x="20.4688" y="14.9172" width="5.64828" height="1.88276" fill="white"/>
<rect id="Rectangle 558" x="14.9658" y="18.7312" width="5.50345" height="1.88276" fill="white"/>
<rect id="Rectangle 571" x="14.9175" y="26.1655" width="7.43448" height="1.88276" fill="white"/>
<rect id="Rectangle 548" x="7.48291" y="7.43457" width="3.71724" height="1.88276" fill="white"/>
</g>
</svg>
