<svg width="53" height="60" viewBox="0 0 53 60" fill="none" xmlns="http://www.w3.org/2000/svg">
<path d="M27.6379 59.6661L51.3987 45.8687C52.1599 45.4269 52.6293 44.614 52.6315 43.7348L52.7099 16.2783C52.7121 15.3914 52.2394 14.5698 51.4705 14.1269L27.5573 0.331768C26.7884 -0.112219 25.8409 -0.11004 25.0731 0.335035L1.31236 14.1324C0.551089 14.5742 0.0816895 15.3871 0.0795113 16.2663L7.49591e-06 43.7217C-0.00217069 44.6086 0.470496 45.4302 1.2394 45.8731L25.1526 59.6682C25.9215 60.1122 26.869 60.11 27.6368 59.665L27.6379 59.6661Z" fill="#F2F2F2"/>
<path d="M33.8217 37.9858L33.8304 34.892L44.5275 28.6805L44.5187 31.7743L33.8217 37.9858ZM49.8945 19.3884L44.546 22.4941L28.5004 31.8113L28.4307 56.5581L33.7792 53.4524L33.8053 44.1722L44.5024 37.9607L44.4763 47.2409L49.8248 44.1352L49.851 34.855L47.1489 36.4242L47.1663 30.2378L49.8684 28.6686L49.8945 19.3884Z" fill="#0060E6"/>
<path d="M26.3102 3.44177L4.91602 15.8636L10.3048 18.9726L18.3271 14.314L34.4925 23.6399L39.841 20.5342L23.6756 11.2083L31.699 6.54969L26.3102 3.44177Z" fill="#0060E6"/>
<path d="M8.21722 41.0545L8.25207 28.6816L19.0188 34.8931L18.9927 44.1733L16.3005 42.6204L16.2918 45.7142L8.21613 41.0556M24.4197 31.8113L19.0363 28.7056L2.88611 19.3884L2.81641 44.1352L16.2754 51.8995L16.2841 48.8058L18.9764 50.3586L18.9677 53.4524L24.351 56.5581L24.3685 50.3717L21.6762 48.8188L21.6849 45.7251L24.3772 47.2779L24.4207 31.8113" fill="#0060E6"/>
</svg>
