<svg width="40" height="43" viewBox="0 0 40 43" fill="none" xmlns="http://www.w3.org/2000/svg">
<path d="M26.0414 27.965L26.0487 25.4609L34.7032 20.4327L34.6959 22.9368L26.0414 27.965ZM39.0445 12.9095L34.7173 15.4236L21.7355 22.9659L21.6787 42.9995L26.006 40.4854L26.0273 32.9727L34.6819 27.9445L34.6605 35.4573L38.9878 32.9432L39.0091 25.4305L36.8228 26.7009L36.8369 21.6927L39.0232 20.4223L39.0445 12.9095Z" fill="#0060E6"/>
<path d="M19.9638 0L2.6543 10.0568L7.01426 12.5731L13.5052 8.80178L26.5846 16.3513L30.9119 13.8372L17.8324 6.2877L24.3238 2.51635L19.9638 0Z" fill="#0060E6"/>
<path d="M5.32504 30.4491L5.35365 20.4328L14.0649 25.4609L14.0436 32.9732L11.8659 31.7164L11.8586 34.2205L5.32549 30.4496M18.4345 22.9664L14.0786 20.4523L1.01185 12.91L0.955078 32.9437L11.8441 39.2291L11.8514 36.7246L14.0291 37.9814L14.0218 40.4859L18.3777 43L18.3918 37.9914L16.2136 36.7341L16.2209 34.23L18.399 35.4873L18.4345 22.9664Z" fill="#0060E6"/>
</svg>
