<?xml version="1.0" encoding="UTF-8"?>
<svg id="Layer_2" xmlns="http://www.w3.org/2000/svg" viewBox="0 0 459.25 518.58">
  <g id="Layer_1-2" data-name="Layer_1">
    <g>
      <path fill="white" d="M302.47,337.26l.09-30.2,104.35-60.64-.09,30.2-104.35,60.64ZM459.25,155.69l-52.18,30.32-156.52,90.96-.68,241.61,52.17-30.32.26-90.6,104.35-60.64-.26,90.6,52.17-30.32.26-90.6-26.36,15.32.17-60.4,26.36-15.32.26-90.6"/>
      <path fill="white" d="M52.69,367.22l.34-120.8,105.03,60.64-.26,90.6-26.26-15.16-.08,30.2-78.77-45.48ZM210.75,276.98l-52.52-30.32L.69,155.7l-.69,241.61,131.29,75.8.09-30.2,26.26,15.16-.08,30.2,52.52,30.32.17-60.4-26.26-15.16.09-30.2,26.26,15.16.43-151"/>
      <polygon fill="white" points="229.15 0 437.86 121.28 385.29 151.63 307.03 106.15 149.33 197.2 97.15 166.88 254.85 75.83 176.59 30.35 229.15 0"/>
    </g>
  </g>
</svg>