<svg width="53" height="60" viewBox="0 0 53 60" fill="none" xmlns="http://www.w3.org/2000/svg">
<path d="M27.6379 59.6661L51.3987 45.8687C52.1599 45.4269 52.6293 44.614 52.6315 43.7348L52.7099 16.2783C52.7121 15.3914 52.2394 14.5698 51.4705 14.1269L27.5573 0.331768C26.7884 -0.112219 25.8409 -0.11004 25.0731 0.335035L1.31128 14.1313C0.549999 14.5731 0.0806004 15.386 0.0784222 16.2652L7.49591e-06 43.7217C-0.00217069 44.6086 0.470496 45.4302 1.2394 45.8731L25.1526 59.6682C25.9215 60.1122 26.869 60.11 27.6368 59.665L27.6379 59.6661Z" fill="#F2F2F2"/>
<path d="M33.8218 37.9859L33.8305 34.8922L44.5276 28.6807L44.5189 31.7745L33.8218 37.9859ZM49.8935 19.3885L44.545 22.4943L28.4994 31.8115L28.4297 56.5583L33.7782 53.4526L33.8044 44.1724L44.5014 37.9609L44.4753 47.2411L49.8238 44.1354L49.85 34.8552L47.1479 36.4244L47.1654 30.2379L49.8674 28.6688L49.8935 19.3885Z" fill="#D62D3B"/>
<path d="M24.4197 31.8113L2.88611 19.3895L2.84254 34.8561L18.9927 44.1733L18.984 47.266L2.83383 37.9499L2.81641 44.1363L24.35 56.5581L24.3935 41.0915L8.24336 31.7754L8.25207 28.6816L24.4022 37.9988L24.4197 31.8113Z" fill="#D62D3B"/>
<path d="M47.8654 15.8637L26.3307 3.4408L4.91699 15.8757L26.4516 28.2986L31.8045 25.1896L15.6533 15.8724L26.3612 9.65552L42.5114 18.9727L47.8654 15.8637Z" fill="#D62D3B"/>
</svg>
