<svg width="39" height="43" viewBox="0 0 39 43" fill="none" xmlns="http://www.w3.org/2000/svg">
<path d="M25.5414 27.965L25.5487 25.4609L34.2032 20.4328L34.1959 22.9368L25.5414 27.965ZM38.5445 12.91L34.2173 15.4241L21.2355 22.9664L21.1787 43L25.506 40.4859L25.5273 32.9732L34.1818 27.945L34.1605 35.4578L38.4878 32.9437L38.5091 25.4309L36.3228 26.7009L36.3369 21.6927L38.5232 20.4228L38.5445 12.91Z" fill="#D62D3B"/>
<path d="M17.935 22.9668L0.512825 12.9105L0.476944 25.431L13.5437 32.9732L13.5369 35.4773L0.470136 27.9351L0.456055 32.9437L17.8782 43L17.9136 30.4791L4.8469 22.9373L4.85417 20.4328L17.9209 27.975L17.935 22.9668Z" fill="#D62D3B"/>
<path d="M36.9028 10.0568L19.4797 0L2.1543 10.0659L19.5774 20.1226L23.9087 17.6058L10.8415 10.0636L19.5042 5.03043L32.5714 12.5731L36.9028 10.0568Z" fill="#D62D3B"/>
</svg>
