<svg width="46" height="50" viewBox="0 0 46 50" fill="none" xmlns="http://www.w3.org/2000/svg">
<path d="M30.0241 32.5174L30.0325 29.6057L40.0959 23.759L40.0875 26.6707L30.0241 32.5174ZM45.144 15.0117L40.1123 17.935L25.0172 26.7051L24.9512 50L29.9829 47.0766L30.0077 38.3409L40.0711 32.4942L40.0463 41.2299L45.078 38.3066L45.1028 29.5709L42.5606 31.0476L42.5769 25.2241L45.1192 23.7474L45.144 15.0117Z" fill="#F2F2F2"/>
<path d="M21.1798 26.7056L0.921481 15.0122L0.879759 29.5709L16.0736 38.3409L16.0657 41.2527L0.871843 32.4826L0.855469 38.3066L21.1138 50L21.155 35.4408L5.9611 26.6713L5.96956 23.759L21.1634 32.5291L21.1798 26.7056Z" fill="#F2F2F2"/>
<path d="M43.2353 11.6939L22.9759 0L2.83008 11.7045L23.0895 23.3984L28.1259 20.4719L12.9315 11.7018L23.0044 5.84934L38.1988 14.6199L43.2353 11.6939Z" fill="#F2F2F2"/>
</svg>
