<svg width="30" height="32" viewBox="0 0 30 32" fill="none" xmlns="http://www.w3.org/2000/svg">
<path d="M29.6852 29.2241L18.4568 17.9463C19.9598 16.0847 20.7786 13.7869 20.7786 11.3686C20.7786 5.61436 16.1175 0.933105 10.3893 0.933105C7.62225 0.933105 5.01259 2.0166 3.03673 3.9886C1.0787 5.96956 0 8.59028 0 11.3686C0 17.1228 4.66107 21.804 10.3893 21.804C12.7941 21.804 15.0804 20.983 16.9368 19.4719L28.1658 30.7502C28.3757 30.961 28.6506 31.0664 28.9255 31.0664C29.2004 31.0664 29.4753 30.961 29.6852 30.7502C30.1049 30.3287 30.1049 29.6457 29.6852 29.2241ZM2.149 11.3686C2.149 9.16418 3.0063 7.08309 4.55719 5.51476C6.12277 3.95224 8.19307 3.09166 10.3893 3.09166C14.9328 3.09166 18.6296 6.80484 18.6296 11.3686C18.6296 13.573 17.7723 15.6541 16.2225 17.2224C16.2217 17.2231 16.2209 17.2237 16.2202 17.2244C16.22 17.2247 16.2196 17.2248 16.2193 17.225C16.2192 17.2252 16.2194 17.2249 16.2193 17.225C14.652 18.7854 12.5818 19.6455 10.3893 19.6455C5.84575 19.6455 2.149 15.9323 2.149 11.3686Z" fill="white"/>
</svg>
