<svg width="38" height="40" viewBox="0 0 38 40" fill="none" xmlns="http://www.w3.org/2000/svg">
<g id="shirt">
<rect id="Rectangle 652" x="12.6665" y="3.85001" width="12.6667" height="3.16667" fill="black"/>
<rect id="Rectangle 665" x="12.6665" y="13.35" width="12.6667" height="3.16667" fill="black"/>
<rect id="Rectangle 666" x="12.6665" y="19.6833" width="12.6667" height="3.16667" fill="black"/>
<rect id="Rectangle 653" x="25.3335" y="0.683334" width="6.33333" height="3.16667" fill="black"/>
<rect id="Rectangle 654" x="31.6665" y="3.85001" width="3.16667" height="3.16667" fill="black"/>
<rect id="Rectangle 656" x="31.6665" y="13.9833" width="3.16667" height="3.16667" fill="black"/>
<rect id="Rectangle 658" x="9.5" y="36.15" width="19" height="3.16667" fill="black"/>
<rect id="Rectangle 655" x="34.8335" y="7.01666" width="3.16667" height="10.1333" fill="black"/>
<rect id="Rectangle 657" x="28.5" y="17.15" width="3.16667" height="19" fill="black"/>
<rect id="Rectangle 660" width="6.33333" height="3.16667" transform="matrix(-1 0 0 1 12.6665 0.683334)" fill="black"/>
<rect id="Rectangle 661" width="3.16667" height="3.16667" transform="matrix(-1 0 0 1 6.3335 3.85001)" fill="black"/>
<rect id="Rectangle 662" width="3.16667" height="3.16667" transform="matrix(-1 0 0 1 6.3335 13.9833)" fill="black"/>
<rect id="Rectangle 663" width="3.16667" height="10.1333" transform="matrix(-1 0 0 1 3.1665 7.01666)" fill="black"/>
<rect id="Rectangle 664" width="3.16667" height="19" transform="matrix(-1 0 0 1 9.5 17.15)" fill="black"/>
</g>
</svg>
