<svg width="24" height="25" viewBox="0 0 24 25" fill="none" xmlns="http://www.w3.org/2000/svg">
<g id="spiralface">
<rect id="Rectangle 390" x="5.05268" y="6.80496" width="4.03239" height="0.97166" fill="#ADADAD"/>
<rect id="Rectangle 397" x="15.0122" y="6.80496" width="4.03239" height="0.97166" fill="#ADADAD"/>
<rect id="Rectangle 395" x="7.04458" y="8.74837" width="1.02024" height="1.02024" fill="#ADADAD"/>
<rect id="Rectangle 402" width="1.02024" height="1.02024" transform="matrix(-1 0 0 1 17.0527 9.72)" fill="#ADADAD"/>
<rect id="Rectangle 396" x="6.07295" y="9.72" width="1.02024" height="1.02024" fill="#ADADAD"/>
<rect id="Rectangle 403" width="1.02024" height="1.02024" transform="matrix(-1 0 0 1 18.0243 10.6916)" fill="#ADADAD"/>
<rect id="Rectangle 410" width="1.02024" height="1.02024" transform="matrix(-1 0 0 1 15.0122 16.7646)" fill="#ADADAD"/>
<rect id="Rectangle 411" width="1.02024" height="1.02024" transform="matrix(-1 0 0 1 6.21856 15.7443)" fill="#ADADAD"/>
<rect id="Rectangle 415" width="1.02024" height="1.02024" transform="matrix(-1 0 0 1 4.08105 19.631)" fill="#ADADAD"/>
<rect id="Rectangle 427" x="4.08105" y="5.25032" width="1.02024" height="1.02024" transform="rotate(180 4.08105 5.25032)" fill="#ADADAD"/>
<rect id="Rectangle 420" x="19.9189" y="19.631" width="1.02024" height="1.02024" fill="#ADADAD"/>
<rect id="Rectangle 428" width="1.02024" height="1.02024" transform="matrix(1 0 0 -1 19.9189 5.25032)" fill="#ADADAD"/>
<rect id="Rectangle 416" width="1.02024" height="1.02024" transform="matrix(-1 0 0 1 5.10117 20.6512)" fill="#ADADAD"/>
<rect id="Rectangle 429" x="5.10117" y="4.23006" width="1.02024" height="1.02024" transform="rotate(180 5.10117 4.23006)" fill="#ADADAD"/>
<rect id="Rectangle 421" x="18.8988" y="20.6512" width="1.02024" height="1.02024" fill="#ADADAD"/>
<rect id="Rectangle 430" width="1.02024" height="1.02024" transform="matrix(1 0 0 -1 18.8988 4.23006)" fill="#ADADAD"/>
<rect id="Rectangle 409" width="1.02024" height="1.02024" transform="matrix(-1 0 0 1 17.8299 16.7646)" fill="#ADADAD"/>
<rect id="Rectangle 393" x="6.07295" y="10.7403" width="3.01215" height="0.97166" fill="#ADADAD"/>
<rect id="Rectangle 401" x="16.0324" y="8.74837" width="3.01215" height="0.97166" fill="#ADADAD"/>
<rect id="Rectangle 394" x="5.05268" y="12.7322" width="4.03239" height="0.97166" fill="#ADADAD"/>
<rect id="Rectangle 404" x="6.07295" y="16.8131" width="1.94332" height="0.97166" fill="#ADADAD"/>
<rect id="Rectangle 417" x="5.05268" y="21.6714" width="1.94332" height="0.97166" fill="#ADADAD"/>
<rect id="Rectangle 431" width="1.94332" height="0.97166" transform="matrix(1 0 0 -1 5.05268 3.20995)" fill="#ADADAD"/>
<rect id="Rectangle 422" width="1.94332" height="0.97166" transform="matrix(-1 0 0 1 18.9473 21.6714)" fill="#ADADAD"/>
<rect id="Rectangle 432" x="18.9473" y="3.20995" width="1.94332" height="0.97166" transform="rotate(180 18.9473 3.20995)" fill="#ADADAD"/>
<rect id="Rectangle 418" x="7.04458" y="22.6432" width="1.94332" height="0.97166" fill="#ADADAD"/>
<rect id="Rectangle 433" width="1.94332" height="0.97166" transform="matrix(1 0 0 -1 7.04458 2.23817)" fill="#ADADAD"/>
<rect id="Rectangle 423" width="1.94332" height="0.97166" transform="matrix(-1 0 0 1 16.9554 22.6432)" fill="#ADADAD"/>
<rect id="Rectangle 434" x="16.9554" y="2.23817" width="1.94332" height="0.97166" transform="rotate(180 16.9554 2.23817)" fill="#ADADAD"/>
<rect id="Rectangle 419" x="9.13359" y="23.6148" width="5.87854" height="0.97166" fill="#ADADAD"/>
<rect id="Rectangle 435" width="5.87854" height="0.97166" transform="matrix(1 0 0 -1 9.13359 1.26654)" fill="#ADADAD"/>
<rect id="Rectangle 405" x="8.01621" y="15.8414" width="1.94332" height="0.97166" fill="#ADADAD"/>
<rect id="Rectangle 406" x="9.95947" y="16.8131" width="1.94332" height="0.97166" fill="#ADADAD"/>
<rect id="Rectangle 407" x="12.0486" y="17.5905" width="1.94332" height="0.97166" fill="#ADADAD"/>
<rect id="Rectangle 408" x="14.8664" y="15.8414" width="1.94332" height="0.97166" fill="#ADADAD"/>
<rect id="Rectangle 399" x="15.0122" y="12.7322" width="4.03239" height="0.97166" fill="#ADADAD"/>
<rect id="Rectangle 391" x="9.08496" y="7.77675" width="1.02024" height="2.96356" fill="#ADADAD"/>
<rect id="Rectangle 412" y="9.76863" width="1.02024" height="5.92712" fill="#ADADAD"/>
<rect id="Rectangle 424" width="1.02024" height="5.92712" transform="matrix(-1 0 0 1 24 9.76863)" fill="#ADADAD"/>
<rect id="Rectangle 413" x="1.02026" y="14.9669" width="1.02024" height="2.81781" fill="#ADADAD"/>
<rect id="Rectangle 436" width="1.02024" height="2.81781" transform="matrix(1 0 0 -1 1.02026 9.91438)" fill="#ADADAD"/>
<rect id="Rectangle 425" width="1.02024" height="2.81781" transform="matrix(-1 0 0 1 22.9797 14.9669)" fill="#ADADAD"/>
<rect id="Rectangle 437" x="22.9797" y="9.91438" width="1.02024" height="2.81781" transform="rotate(180 22.9797 9.91438)" fill="#ADADAD"/>
<rect id="Rectangle 414" x="2.04053" y="17.6391" width="1.02024" height="1.9919" fill="#ADADAD"/>
<rect id="Rectangle 438" width="1.02024" height="1.9919" transform="matrix(1 0 0 -1 2.04053 7.24222)" fill="#ADADAD"/>
<rect id="Rectangle 426" width="1.02024" height="1.9919" transform="matrix(-1 0 0 1 21.9595 17.6391)" fill="#ADADAD"/>
<rect id="Rectangle 439" x="21.9595" y="7.24222" width="1.02024" height="1.9919" transform="rotate(180 21.9595 7.24222)" fill="#ADADAD"/>
<rect id="Rectangle 400" x="19.0446" y="9.76863" width="1.02024" height="2.96356" fill="#ADADAD"/>
<rect id="Rectangle 392" x="4.03242" y="7.77675" width="1.02024" height="4.95547" fill="#ADADAD"/>
<rect id="Rectangle 398" x="13.9919" y="7.77675" width="1.02024" height="4.95547" fill="#ADADAD"/>
</g>
</svg>
