<svg width="225" height="226" viewBox="0 0 225 226" fill="none" xmlns="http://www.w3.org/2000/svg">
<rect x="81" width="62" height="10" fill="#2B2B2B"/>
<rect x="60" y="40" width="42" height="10" fill="#2B2B2B"/>
<rect x="81" y="10" width="62" height="10" fill="#2B2B2B"/>
<rect x="143" y="10" width="21" height="10" fill="#2B2B2B"/>
<rect x="60" y="10" width="21" height="10" fill="#2B2B2B"/>
<rect x="143" y="20" width="21" height="10" fill="#2B2B2B"/>
<rect x="60" y="20" width="21" height="10" fill="#2B2B2B"/>
<rect x="164" y="20" width="21" height="10" fill="#2B2B2B"/>
<rect x="39" y="20" width="21" height="10" fill="#2B2B2B"/>
<rect x="71" y="113" width="31" height="10" fill="#2B2B2B"/>
<rect x="91" y="154" width="22" height="10" fill="#2B2B2B"/>
<rect x="71" y="164" width="51" height="10" fill="#2B2B2B"/>
<rect x="92" y="123" width="31" height="10" fill="#2B2B2B"/>
<rect x="40" y="216" width="42" height="10" fill="#2B2B2B"/>
<rect x="50" y="50" width="21" height="10" fill="#2B2B2B"/>
<rect x="91" y="50" width="21" height="10" fill="#2B2B2B"/>
<rect x="102" y="60" width="21" height="10" fill="#2B2B2B"/>
<rect x="143" y="62" width="31" height="10" fill="#2B2B2B"/>
<rect x="164" y="30" width="30" height="10" fill="#2B2B2B"/>
<rect x="30" y="30" width="30" height="10" fill="#2B2B2B"/>
<rect x="174" y="40" width="30" height="10" fill="#2B2B2B"/>
<rect x="20" y="40" width="30" height="10" fill="#2B2B2B"/>
<rect x="184" y="50" width="21" height="10" fill="#2B2B2B"/>
<rect x="163" y="72" width="21" height="10" fill="#2B2B2B"/>
<rect x="18" y="50" width="21" height="10" fill="#2B2B2B"/>
<rect x="174" y="82" width="10" height="10" fill="#2B2B2B"/>
<rect x="174" y="175" width="10" height="10" fill="#2B2B2B"/>
<rect x="184" y="184" width="10" height="10" fill="#2B2B2B"/>
<rect x="10" y="144" width="10" height="10" fill="#2B2B2B"/>
<rect x="20" y="134" width="10" height="10" fill="#2B2B2B"/>
<rect x="40" y="144" width="10" height="10" fill="#2B2B2B"/>
<rect x="133" y="82" width="20" height="20" fill="#2B2B2B"/>
<rect x="184" y="164" width="20" height="20" fill="#2B2B2B"/>
<rect x="164" y="185" width="20" height="20" fill="#2B2B2B"/>
<rect x="144" y="195" width="20" height="20" fill="#2B2B2B"/>
<rect x="102" y="206" width="42" height="20" fill="#2B2B2B"/>
<rect x="50" y="194" width="42" height="22" fill="#2B2B2B"/>
<rect x="50" y="174" width="52" height="20" fill="#2B2B2B"/>
<rect x="113" y="144" width="20" height="20" fill="#2B2B2B"/>
<rect x="194" y="60" width="20" height="20" fill="#2B2B2B"/>
<rect x="205" y="80" width="20" height="64" fill="#2B2B2B"/>
<rect y="80" width="20" height="64" fill="#2B2B2B"/>
<rect x="30" y="154" width="20" height="62" fill="#2B2B2B"/>
<rect x="72" y="72" width="20" height="20" fill="#2B2B2B"/>
<rect x="10" y="60" width="20" height="20" fill="#2B2B2B"/>
<rect x="194" y="144" width="20" height="20" fill="#2B2B2B"/>
</svg>
