<svg width="926" height="387" viewBox="0 0 926 387" fill="none" xmlns="http://www.w3.org/2000/svg">
<mask id="mask0_624_1626" style="mask-type:luminance" maskUnits="userSpaceOnUse" x="2" y="5" width="917" height="377">
<path d="M17.0847 5.5791V19.5436H2.8009V368.035H17.0847V381.999H453.329V368.035H467.613V381.999H903.857V368.035H918.141V19.5436H903.857V5.5791H467.613V19.5436H462.151V23.6439H458.79V19.5436H453.329V5.5791H17.0847ZM462.168 363.935V368.035H458.807V363.935H462.168ZM462.168 347.332V355.633H458.807V347.332H462.168ZM462.168 330.729V339.03H458.807V330.729H462.168ZM462.168 314.143V322.444H458.807V314.143H462.168ZM462.168 297.54V305.841H458.807V297.54H462.168ZM462.168 280.937V289.239H458.807V280.937H462.168ZM462.168 264.334V272.636H458.807V264.334H462.168ZM462.168 247.748V256.05H458.807V247.748H462.168ZM462.168 231.146V239.447H458.807V231.146H462.168ZM462.168 214.543V222.844H458.807V214.543H462.168ZM462.168 197.94V206.241H458.807V197.94H462.168ZM462.168 181.354V189.655H458.807V181.354H462.168ZM462.168 164.751V173.053H458.807V164.751H462.168ZM462.168 148.148V156.45H458.807V148.148H462.168ZM462.168 131.545V139.847H458.807V131.545H462.168ZM462.168 114.943V123.244H458.807V114.943H462.168ZM462.168 98.3566V106.658H458.807V98.3566H462.168ZM462.168 81.7538V90.0552H458.807V81.7538H462.168ZM462.168 65.151V73.4524H458.807V65.151H462.168ZM462.168 48.5481V56.8496H458.807V48.5481H462.168ZM462.168 31.9621V40.2635H458.807V31.9621H462.168Z" fill="white"/>
</mask>
<g mask="url(#mask0_624_1626)">
<path d="M2.80103 11.3766V367.984H17.0848V382.268H453.329V367.984H467.63V382.268H903.874V367.984H918.174V11.3766H903.874V-2.90723H467.63V11.3766H453.329V-2.90723H17.0848V11.3766H2.80103Z" fill="#F2F2F2"/>
<path d="M588.723 367.01V368.942L588.74 370.841V370.875V372.774V374.706H586.824V376.639H588.773H590.706V374.689V372.757V370.858H592.638V368.925H594.571V370.858H596.503V372.757L596.52 374.689H594.587V376.639H596.52L598.452 376.622V374.689L598.436 372.757V370.824H600.368V368.909V368.875H602.301V366.976H604.2V365.044H606.132V363.111H608.065V361.178H609.997V359.246L609.98 357.313V355.381L609.964 353.448H608.031V355.398V357.33H606.099V359.263H604.166V361.195H602.267H602.234H600.335H598.402V361.162V359.263H596.453V357.33H594.503V355.398H592.554V353.465H590.605V351.533L590.588 349.6V347.668L590.571 345.735V343.803H588.622V341.87H586.673H584.74L582.808 341.887H580.875L578.943 341.904H577.01L575.077 341.921V343.853H573.145V345.786L573.162 347.718V349.651L573.179 351.583H575.111L577.044 351.566H578.976L580.909 351.549V353.482H578.976H577.044V355.431H578.976L580.909 355.415H582.841V357.347V359.28H580.909H578.976V361.229H580.909V363.161H582.841V361.212H584.774V363.145H586.706V365.077H588.639V367.01M584.757 349.6V347.668H586.689V349.6H584.757Z" fill="black"/>
<path d="M669.065 365.834H667.519V362.742H669.065V365.834ZM678.358 362.742H676.812V365.834H678.358V362.742ZM670.611 376.673V375.127H667.519V376.673H670.611ZM665.973 375.127H667.519V373.581H665.973V375.127ZM675.266 375.127V376.673H678.358V375.127H675.266ZM679.904 375.127V373.581H678.358V375.127H679.904ZM679.904 368.943V372.035H678.358V373.581H667.519V372.035H665.973V368.943H667.519V367.397H669.065V365.851H676.812V367.397H678.358V368.943H679.904ZM676.812 368.943H673.72V370.489H676.812V368.943ZM669.065 368.943V370.489H672.157V368.943H669.065Z" fill="black"/>
<path d="M678.543 348.223L678.341 347.534L677.669 347.735L677.467 347.063L676.778 347.265L676.577 346.593L675.904 346.794L675.703 346.122L675.031 346.307L674.829 345.635L674.157 345.837L673.955 345.164L673.266 345.366L673.081 344.677L672.392 344.879L672.207 344.207L671.518 344.408L671.317 343.736L670.645 343.938L670.443 343.249L669.771 343.45L669.569 342.778L668.88 342.98L668.678 342.308L668.006 342.509L667.805 341.82L667.132 342.022L666.46 342.224L666.662 342.896L666.863 343.585L667.065 344.257L667.25 344.929L667.452 345.618L667.653 346.29L667.855 346.962L668.057 347.635L668.258 348.324L668.46 348.996L668.662 349.668L668.863 350.34L669.065 351.029L669.267 351.701L669.468 352.374L669.67 353.063L669.855 353.735L670.056 354.407L670.258 355.079L670.46 355.768L671.132 355.566L671.821 355.365L671.619 354.693L672.291 354.491L672.09 353.819L672.779 353.617L672.577 352.928L673.249 352.726L673.921 352.525L674.123 353.214L674.325 353.886L674.997 353.684L675.199 354.356L675.871 354.172L676.072 354.844L676.761 354.642L677.434 354.44L678.106 354.239L677.904 353.567L677.719 352.878L677.518 352.205L677.316 351.533L676.627 351.735L676.425 351.063L676.224 350.374L675.551 350.575L675.35 349.903L676.039 349.702L676.711 349.5L677.383 349.298L678.072 349.097L678.744 348.895L679.416 348.693L679.215 348.021L678.543 348.223Z" fill="black"/>
<path d="M628.264 348.677H627.121V349.819H628.264V348.677Z" fill="black"/>
<path d="M627.121 349.819H625.978V350.962H627.121V349.819Z" fill="black"/>
<path d="M648.832 359.532V358.39H646.547V359.532H643.119V358.39H640.833V357.247H638.548V356.104H637.405V344.106H636.263V342.963H635.12V341.82H630.549V342.963H629.406V344.106H628.264V348.677H629.406V347.534H631.692V348.677H632.835V350.962H627.121V352.105H628.264V358.39H627.121V360.675H625.978V366.388H627.121V368.674H628.264V369.817H629.406V370.959H631.692V375.53H632.835V372.102H633.977V376.673H635.12V372.102H637.405V375.53H638.548V370.959H639.691V376.673H640.833V369.817H644.262V368.674H645.404V367.531H646.547V366.388H647.69V365.246H648.832V362.96H647.69V361.818H648.832V360.675H649.975V359.532H648.832ZM633.977 347.534V346.391H635.12V348.677H633.977V347.534Z" fill="black"/>
<path d="M631.692 375.53H630.549V376.673H631.692V375.53Z" fill="black"/>
<path d="M637.405 375.53H636.263V376.673H637.405V375.53Z" fill="black"/>
<path d="M537.301 376.672V341.819H530.243V376.672H537.301Z" fill="#1C4EFF"/>
<path d="M523.387 376.672V341.819H516.329V376.672H523.387Z" fill="#D62D3B"/>
<path d="M551.198 376.672V341.819H544.14V376.672H551.198Z" fill="#FAA701"/>
<path d="M498.567 348.055H491.106V355.516H498.567V348.055Z" fill="black"/>
<path d="M506.028 355.516H498.567V362.977H506.028V355.516Z" fill="black"/>
<path d="M498.567 362.978H491.106V370.439H498.567V362.978Z" fill="black"/>
<path d="M2.80103 318.445H264.497C265.237 318.445 265.589 318.445 266.026 318.412L267.303 318.378C270.715 318.243 274.109 317.723 277.403 316.866C284.007 315.135 290.242 311.992 295.552 307.724C296.224 307.203 296.846 306.615 297.501 306.077L299.366 304.313L304.878 298.801L315.919 287.76L338.017 265.662L426.391 177.288L470.587 133.092L476.318 127.395C478.821 124.958 481.443 122.623 484.199 120.455C489.694 116.119 495.643 112.355 501.928 109.263C514.481 103.045 528.378 99.5668 542.376 99.1299L668.225 99.0459H918.191V112.053H668.225L542.813 112.12C530.646 112.506 518.581 115.531 507.675 120.925C502.213 123.614 497.037 126.874 492.265 130.655C489.862 132.537 487.593 134.554 485.426 136.688L479.796 142.284L435.6 186.48L347.226 274.854L325.128 296.952L314.087 307.993L308.575 313.505L306.206 315.74C305.382 316.429 304.576 317.168 303.736 317.84C296.997 323.268 289.082 327.251 280.697 329.452C276.512 330.561 272.21 331.2 267.875 331.385L266.245 331.418C265.707 331.418 265.203 331.452 264.497 331.452H2.80103V318.445Z" fill="#ED4250"/>
<path d="M2.80103 337.368H252.768H260.582H264.48C265.791 337.368 266.883 337.317 268.11 337.3C272.849 337.116 277.571 336.393 282.175 335.183C291.368 332.78 300.022 328.411 307.433 322.462C308.357 321.723 309.231 320.916 310.155 320.16L312.743 317.723L318.272 312.211L329.312 301.171L351.41 279.073L439.785 190.698L483.98 146.502L489.56 140.94C491.593 138.974 493.71 137.075 495.945 135.327C500.398 131.815 505.204 128.774 510.296 126.27C520.446 121.245 531.705 118.422 543.031 118.069L668.242 118.002H918.208V131.009H668.242L543.468 131.059C533.974 131.362 524.547 133.714 516.043 137.932C511.792 140.033 507.742 142.587 504.028 145.528C502.163 146.99 500.382 148.569 498.684 150.233L493.189 155.694L448.993 199.89L360.619 288.265L338.521 310.363L327.48 321.403L321.952 326.932C320.927 327.907 319.918 328.898 318.86 329.856C317.784 330.78 316.725 331.721 315.616 332.612C306.794 339.72 296.442 344.93 285.486 347.803C280.008 349.248 274.361 350.089 268.698 350.324C267.304 350.357 265.808 350.408 264.514 350.408H2.80103V337.401V337.368Z" fill="#FBB03B"/>
<path d="M2.80103 356.289H264.497L266.665 356.255L268.95 356.204C275.034 355.952 281.083 355.045 286.965 353.499C298.745 350.424 309.836 344.828 319.313 337.199C320.506 336.258 321.632 335.233 322.792 334.241C323.918 333.216 325.01 332.157 326.102 331.115L331.631 325.587L342.672 314.546L364.769 292.448L453.144 204.074L497.34 159.878L502.785 154.45C504.347 152.938 505.961 151.492 507.658 150.165C511.052 147.476 514.733 145.157 518.614 143.241C526.378 139.393 534.965 137.242 543.636 136.973L668.208 136.923H918.174V149.93H668.208L544.073 149.98C537.251 150.182 530.478 151.879 524.362 154.92C521.303 156.433 518.396 158.265 515.724 160.382C514.38 161.424 513.103 162.566 511.876 163.76L506.532 169.087L462.336 213.282L373.961 301.657L351.864 323.755L340.823 334.796L335.278 340.324C334.017 341.534 332.757 342.761 331.463 343.937C330.135 345.08 328.825 346.256 327.464 347.332C316.557 356.12 303.769 362.557 290.225 366.102C283.453 367.884 276.479 368.925 269.488 369.228L266.867 369.295L264.48 369.329H2.80103V356.322V356.289Z" fill="#0060E6"/>
<path d="M716.487 338.308H714.319V379.798H716.487V338.308Z" fill="black"/>
<path d="M718.672 338.308H717.579V379.798H718.672V338.308Z" fill="black"/>
<path d="M721.932 338.308H720.839V379.798H721.932V338.308Z" fill="black"/>
<path d="M727.376 338.308H726.284V379.798H727.376V338.308Z" fill="black"/>
<path d="M733.88 346.391H731.712V379.798H733.88V346.391Z" fill="black"/>
<path d="M736.081 346.391H734.989V379.798H736.081V346.391Z" fill="black"/>
<path d="M739.341 346.391H738.249V379.798H739.341V346.391Z" fill="black"/>
<path d="M744.769 346.391H743.677V379.798H744.769V346.391Z" fill="black"/>
<path d="M748.029 346.391H745.861V379.798H748.029V346.391Z" fill="black"/>
<path d="M751.306 346.391H750.214V379.798H751.306V346.391Z" fill="black"/>
<path d="M755.642 346.391H753.474V379.798H755.642V346.391Z" fill="black"/>
<path d="M759.994 346.391H756.734V379.798H759.994V346.391Z" fill="black"/>
<path d="M763.271 346.391H762.179V379.798H763.271V346.391Z" fill="black"/>
<path d="M767.606 346.391H765.439V379.798H767.606V346.391Z" fill="black"/>
<path d="M773.051 346.391H771.959V379.798H773.051V346.391Z" fill="black"/>
<path d="M775.236 346.391H774.143V379.798H775.236V346.391Z" fill="black"/>
<path d="M778.496 346.391H777.403V379.798H778.496V346.391Z" fill="black"/>
<path d="M781.739 346.391H779.571V379.798H781.739V346.391Z" fill="black"/>
<path d="M787.2 346.391H786.108V379.798H787.2V346.391Z" fill="black"/>
<path d="M792.628 346.391H791.536V379.798H792.628V346.391Z" fill="black"/>
<path d="M795.888 346.391H793.721V379.798H795.888V346.391Z" fill="black"/>
<path d="M800.241 346.391H798.073V379.798H800.241V346.391Z" fill="black"/>
<path d="M805.685 346.391H804.593V379.798H805.685V346.391Z" fill="black"/>
<path d="M808.945 346.391H807.853V379.798H808.945V346.391Z" fill="black"/>
<path d="M811.13 346.391H810.038V379.798H811.13V346.391Z" fill="black"/>
<path d="M815.466 346.391H813.298V379.798H815.466V346.391Z" fill="black"/>
<path d="M819.818 346.391H816.558V379.798H819.818V346.391Z" fill="black"/>
<path d="M823.095 346.391H822.002V379.798H823.095V346.391Z" fill="black"/>
<path d="M827.43 346.391H824.17V379.798H827.43V346.391Z" fill="black"/>
<path d="M832.875 346.391H828.523V379.798H832.875V346.391Z" fill="black"/>
<path d="M836.135 346.391H833.967V379.798H836.135V346.391Z" fill="black"/>
<path d="M839.395 346.391H838.303V379.798H839.395V346.391Z" fill="black"/>
<path d="M844.84 346.391H841.58V379.798H844.84V346.391Z" fill="black"/>
<path d="M849.192 346.391H845.932V379.798H849.192V346.391Z" fill="black"/>
<path d="M852.452 346.391H851.36V379.798H852.452V346.391Z" fill="black"/>
<path d="M855.712 346.391H853.544V379.798H855.712V346.391Z" fill="black"/>
<path d="M858.989 346.391H857.897V379.798H858.989V346.391Z" fill="black"/>
<path d="M861.157 346.391H860.065V379.798H861.157V346.391Z" fill="black"/>
<path d="M867.677 346.391H865.509V379.798H867.677V346.391Z" fill="black"/>
<path d="M872.013 338.308H869.845V379.798H872.013V338.308Z" fill="black"/>
<path d="M878.55 338.308H875.289V379.798H878.55V338.308Z" fill="black"/>
<path d="M880.734 338.308H879.642V379.798H880.734V338.308Z" fill="black"/>
<path d="M883.977 338.308H881.81V379.798H883.977V338.308Z" fill="black"/>
<path d="M854.855 45.4395V81.2834H890.699V45.4395H854.855ZM886.229 60.0089V66.7307V76.8134H879.507V66.7307H866.064V76.8134H859.342V66.7307V60.0089V49.9262H866.064V60.0089H879.507V49.9262H886.229V60.0089Z" fill="black"/>
<path d="M758.414 45.4395V81.2834H794.258V45.4395H758.414ZM789.788 56.648H779.706V70.0916H789.788V76.8134H779.706H772.984H762.901V70.0916H772.984V56.648H762.901V49.9262H772.984H779.706H789.788V56.648Z" fill="black"/>
<path d="M842.487 81.3H806.643V45.4561H842.487V81.3ZM838 56.6478V49.926H817.835H811.113V56.6478V70.0914V76.8132H817.835H838V70.0914H817.835V56.6478H838ZM830.001 60.849H826.204V62.1093H830.001V62.7479H826.204V65.9071H831.262V64.6468H827.464V64.0082H831.262V60.849H830.001ZM838 62.1093V60.849H832.942V64.0082H836.74V64.6468H832.942V65.9071H838V62.7479H834.203V62.1093H838Z" fill="black"/>
<path d="M580.489 52.2783H573.095V59.6723H580.489V52.2783Z" fill="black"/>
<path d="M588 59.6719H580.606V67.0658H588V59.6719Z" fill="black"/>
<path d="M580.606 67.0664H573.212V74.4604H580.606V67.0664Z" fill="black"/>
<path d="M595.377 67.0664H587.983V74.4604H595.377V67.0664Z" fill="black"/>
<path d="M595.377 52.2783H587.983V59.6723H595.377V52.2783Z" fill="black"/>
<path d="M602.771 59.8408H595.377V67.2348H602.771V59.8408Z" fill="black"/>
<path d="M610.165 52.2783H602.771V59.6723H610.165V52.2783Z" fill="black"/>
<path d="M617.66 59.6719H610.266V67.0658H617.66V59.6719Z" fill="black"/>
<path d="M610.283 67.0664H602.889V74.4604H610.283V67.0664Z" fill="black"/>
<path d="M625.054 67.0664H617.66V74.4604H625.054V67.0664Z" fill="black"/>
<path d="M625.054 52.2783H617.66V59.6723H625.054V52.2783Z" fill="black"/>
<path d="M632.448 59.8408H625.054V67.2348H632.448V59.8408Z" fill="black"/>
<path d="M639.842 52.2783H632.448V59.6723H639.842V52.2783Z" fill="black"/>
<path d="M647.337 59.6719H639.943V67.0658H647.337V59.6719Z" fill="black"/>
<path d="M639.943 67.0664H632.549V74.4604H639.943V67.0664Z" fill="black"/>
<path d="M654.731 67.0664H647.337V74.4604H654.731V67.0664Z" fill="black"/>
<path d="M654.731 52.2783H647.337V59.6723H654.731V52.2783Z" fill="black"/>
<path d="M518.094 5.5791H491.106V32.5671H518.094V5.5791Z" fill="black"/>
<path d="M570.96 32.5674H926.156" stroke="black" stroke-miterlimit="10"/>
<path d="M570.96 325.57H926.156" stroke="black" stroke-miterlimit="10"/>
<path d="M2.80103 32.5674H427.685" stroke="black" stroke-miterlimit="10"/>
<path d="M131.557 292.784L217.999 242.556C220.772 240.942 222.469 237.985 222.486 234.792L222.772 134.822C222.772 131.596 221.058 128.604 218.268 126.991L131.271 76.7627C128.482 75.1494 125.02 75.1494 122.23 76.7627L35.7882 126.991C33.0155 128.604 31.3183 131.562 31.3014 134.755L31.0157 234.725C31.0157 237.951 32.7298 240.942 35.5194 242.556L122.516 292.784C125.306 294.397 128.767 294.397 131.557 292.784Z" fill="#F2F2F2"/>
<path d="M131.557 292.784L217.999 242.556C220.772 240.942 222.469 237.985 222.486 234.792L222.772 134.822C222.772 131.596 221.058 128.604 218.268 126.991L131.271 76.7627C128.482 75.1494 125.02 75.1494 122.23 76.7627L35.7882 126.991C33.0155 128.604 31.3183 131.562 31.3014 134.755L31.0157 234.725C31.0157 237.951 32.7298 240.942 35.5194 242.556L122.516 292.784C125.306 294.397 128.767 294.397 131.557 292.784Z" stroke="black" stroke-width="1.15" stroke-miterlimit="10"/>
<path d="M134.649 282.18L154.68 270.552L154.764 235.783L194.809 212.509L194.708 247.277L214.722 235.649L214.991 142.938L194.977 154.584L194.876 189.336L154.831 212.61L154.932 177.841L134.918 189.47L134.649 282.18Z" fill="#FAA701"/>
<path d="M119.643 189.487L39.0483 142.938L38.9811 166.129L69.2123 183.572L69.0779 229.918L38.8466 212.475L38.7794 235.649L119.39 282.18L119.441 259.007L89.2264 241.547L89.3609 195.2L119.575 212.66L119.643 189.487Z" fill="#ED4250"/>
<path d="M135.22 130.419L139.018 128.234L150.311 134.805L154.075 136.99L144.597 142.451L133.288 135.897L131.406 136.99L142.698 143.56L138.901 145.745L123.844 136.99L133.321 131.511L144.631 138.082L146.513 136.99L135.22 130.419Z" fill="black"/>
<path d="M149.622 145.375L159.1 139.913L174.156 148.651L170.375 150.853L159.066 144.282L157.184 145.375L168.476 151.945L158.999 157.423L143.942 148.668L147.74 146.467L159.032 153.037L160.931 151.945L149.622 145.375Z" fill="black"/>
<path d="M46.1398 129.763L66.3051 118.118L106.619 94.8437L126.784 83.1982L146.815 94.8437L206.891 129.763L186.743 141.392L126.65 106.489L86.3361 129.763L146.429 164.683L126.264 176.312L66.1707 141.409L46.1398 129.763Z" fill="#0060E6"/>
<path d="M252.818 108.608V92.6436H258.548V108.608H252.818Z" fill="black"/>
<path d="M271.572 108.876C269.27 108.876 267.354 108.557 265.841 107.935C264.329 107.314 263.186 106.389 262.447 105.163C261.691 103.936 261.321 102.424 261.321 100.609C261.321 97.9703 262.195 95.9202 263.943 94.4918C265.69 93.0634 268.244 92.3408 271.622 92.3408C273.487 92.3408 275.118 92.6265 276.512 93.2147C277.924 93.8028 279.016 94.5926 279.823 95.6345C280.613 96.6596 281.016 97.8527 281.016 99.197H275.437C275.437 98.6425 275.269 98.1384 274.95 97.7183C274.63 97.2813 274.16 96.9452 273.588 96.6932C273 96.4411 272.311 96.3235 271.521 96.3235C270.53 96.3235 269.707 96.5083 269.068 96.8612C268.429 97.2141 267.959 97.7014 267.656 98.3064C267.354 98.9114 267.203 99.5836 267.203 100.323V100.911C267.203 101.617 267.354 102.289 267.656 102.894C267.959 103.499 268.413 104.003 269.034 104.373C269.656 104.743 270.446 104.927 271.404 104.927C272.278 104.927 273.034 104.81 273.672 104.574C274.311 104.339 274.781 104.02 275.118 103.6C275.454 103.18 275.622 102.692 275.622 102.138H281.033C281.033 103.432 280.663 104.591 279.907 105.616C279.151 106.641 278.075 107.431 276.664 108.019C275.252 108.608 273.555 108.893 271.572 108.893V108.876Z" fill="black"/>
<path d="M290.51 108.608V92.6436H296.241V98.3067H304.761V92.6436H310.491V108.608H304.761V102.693H296.241V108.608H290.51Z" fill="black"/>
<path d="M312.39 108.608L320.12 92.6436H326.438L334.169 108.608H328.018L327.06 106.49H319.229L318.305 108.608H312.39ZM320.977 102.525H325.313L324.203 99.8359C324.153 99.7182 324.103 99.5502 324.019 99.3317C323.935 99.1301 323.851 98.8948 323.767 98.6259C323.666 98.3571 323.582 98.105 323.498 97.8361C323.414 97.5673 323.33 97.332 323.246 97.1135H323.078C322.977 97.3824 322.876 97.6849 322.758 98.021C322.641 98.3571 322.506 98.6932 322.405 99.0125C322.305 99.3317 322.187 99.6006 322.086 99.8191L320.977 102.508V102.525Z" fill="black"/>
<path d="M344.739 108.876C342.436 108.876 340.521 108.557 339.008 107.935C337.496 107.314 336.353 106.389 335.614 105.163C334.857 103.936 334.488 102.424 334.488 100.609C334.488 97.9703 335.362 95.9202 337.109 94.4918C338.857 93.0634 341.411 92.3408 344.789 92.3408C346.654 92.3408 348.284 92.6265 349.679 93.2147C351.091 93.8028 352.183 94.5926 352.99 95.6345C353.779 96.6596 354.183 97.8527 354.183 99.197H348.604C348.604 98.6425 348.435 98.1384 348.116 97.7183C347.797 97.2813 347.326 96.9452 346.755 96.6932C346.167 96.4411 345.478 96.3235 344.688 96.3235C343.697 96.3235 342.873 96.5083 342.235 96.8612C341.596 97.2141 341.126 97.7014 340.823 98.3064C340.521 98.9114 340.369 99.5836 340.369 100.323V100.911C340.369 101.617 340.521 102.289 340.823 102.894C341.126 103.499 341.579 104.003 342.201 104.373C342.823 104.743 343.613 104.927 344.57 104.927C345.444 104.927 346.201 104.81 346.839 104.574C347.478 104.339 347.948 104.02 348.284 103.6C348.62 103.18 348.788 102.692 348.788 102.138H354.199C354.199 103.432 353.83 104.591 353.074 105.616C352.317 106.641 351.242 107.431 349.83 108.019C348.419 108.608 346.721 108.893 344.739 108.893V108.876Z" fill="black"/>
<path d="M356.939 108.608V92.6436H362.669V99.7014L370.399 92.6436H377.507L370.449 99.1637L377.692 108.608H370.701L366.215 102.592L362.669 105.465V108.591H356.939V108.608Z" fill="black"/>
<path d="M389.926 92.6264V94.6933C389.556 94.7269 389.186 94.8446 388.817 95.0462C388.447 95.2479 388.128 95.5504 387.892 95.9201C387.64 96.3066 387.523 96.7603 387.523 97.298H389.943V101.667H384.632V97.7854C384.632 96.609 384.884 95.6512 385.372 94.9118C385.859 94.1724 386.514 93.6178 387.338 93.2481C388.161 92.8784 389.018 92.66 389.943 92.5928L389.926 92.6264Z" fill="black"/>
<path d="M392.161 108.608V107.465C392.161 106.709 392.362 106.02 392.749 105.398C393.135 104.776 393.673 104.205 394.312 103.684C394.967 103.163 395.673 102.676 396.429 102.205C397.185 101.735 397.941 101.281 398.681 100.81C399.42 100.34 400.126 99.9367 400.781 99.5501C401.437 99.1805 401.975 98.8108 402.378 98.4411C402.781 98.0714 403 97.7017 403 97.2983C403 96.9959 402.899 96.7102 402.714 96.4581C402.529 96.2061 402.227 96.0212 401.84 95.87C401.437 95.7355 400.899 95.6683 400.21 95.6683C399.605 95.6683 399.084 95.7691 398.664 95.954C398.244 96.1388 397.908 96.3909 397.689 96.7102C397.471 97.0295 397.353 97.3824 397.353 97.7857V98.2562H392.228C392.228 98.1554 392.211 98.0714 392.211 97.9873V97.7353C392.211 96.643 392.53 95.6851 393.169 94.8785C393.808 94.0719 394.749 93.4501 396.026 92.9964C397.286 92.5427 398.883 92.3242 400.781 92.3242C401.975 92.3242 403.033 92.425 403.991 92.6267C404.932 92.8284 405.739 93.1308 406.411 93.5341C407.083 93.9375 407.604 94.4416 407.957 95.0465C408.31 95.6515 408.495 96.3405 408.495 97.1303C408.495 97.8697 408.293 98.5587 407.873 99.1804C407.453 99.8022 406.898 100.374 406.226 100.895C405.537 101.415 404.815 101.886 404.025 102.306C403.235 102.726 402.462 103.13 401.706 103.482C401.487 103.583 401.252 103.684 400.983 103.802C400.714 103.919 400.462 104.054 400.21 104.155C399.958 104.272 399.756 104.373 399.588 104.474H408.713V108.574H392.194L392.161 108.608Z" fill="black"/>
<path d="M419.518 108.877C417.586 108.877 415.956 108.641 414.662 108.188C413.351 107.734 412.36 107.095 411.704 106.289C411.032 105.482 410.713 104.524 410.713 103.449H415.771C415.805 103.919 415.956 104.306 416.208 104.625C416.477 104.944 416.847 105.196 417.317 105.365C417.788 105.533 418.342 105.617 418.998 105.617C419.653 105.617 420.258 105.533 420.745 105.348C421.232 105.163 421.602 104.911 421.871 104.558C422.14 104.205 422.258 103.785 422.258 103.264C422.258 102.743 422.123 102.323 421.871 101.97C421.602 101.617 421.232 101.365 420.745 101.18C420.258 100.995 419.67 100.911 418.998 100.911C418.527 100.911 418.107 100.962 417.72 101.046C417.334 101.13 416.998 101.264 416.729 101.432C416.443 101.6 416.225 101.819 416.057 102.088L411.57 101.584L412.41 92.6436H426.223V96.6598H416.41L416.158 99.0293C416.41 98.878 416.762 98.71 417.216 98.5587C417.67 98.3907 418.208 98.2563 418.813 98.1386C419.418 98.021 420.073 97.9706 420.779 97.9706C422.207 97.9706 423.434 98.1722 424.476 98.5923C425.518 99.0125 426.307 99.6174 426.879 100.424C427.45 101.231 427.719 102.222 427.719 103.398C427.719 104.457 427.383 105.398 426.728 106.222C426.055 107.045 425.114 107.7 423.888 108.188C422.661 108.675 421.216 108.91 419.552 108.91L419.518 108.877Z" fill="black"/>
<path fill-rule="evenodd" clip-rule="evenodd" d="M260.363 175.187C260.363 176.178 259.557 176.985 258.565 176.985H254.986C253.994 176.985 253.188 176.178 253.188 175.187C253.188 174.195 253.994 173.389 254.986 173.389H258.565C259.557 173.389 260.363 174.195 260.363 175.187Z" fill="black"/>
<path fill-rule="evenodd" clip-rule="evenodd" d="M260.363 164.432C260.363 165.423 259.557 166.23 258.565 166.23H254.986C253.994 166.23 253.188 165.423 253.188 164.432C253.188 163.44 253.994 162.634 254.986 162.634H258.565C259.557 162.634 260.363 163.44 260.363 164.432Z" fill="black"/>
<path fill-rule="evenodd" clip-rule="evenodd" d="M260.363 153.677C260.363 154.668 259.557 155.475 258.565 155.475H254.986C253.994 155.475 253.188 154.668 253.188 153.677C253.188 152.686 253.994 151.879 254.986 151.879H258.565C259.557 151.879 260.363 152.686 260.363 153.677Z" fill="black"/>
<path fill-rule="evenodd" clip-rule="evenodd" d="M317.734 175.187C317.734 176.178 316.927 176.985 315.936 176.985H312.356C311.365 176.985 310.558 176.178 310.558 175.187C310.558 174.195 311.365 173.389 312.356 173.389H315.936C316.927 173.389 317.734 174.195 317.734 175.187Z" fill="black"/>
<path fill-rule="evenodd" clip-rule="evenodd" d="M317.734 164.432C317.734 165.423 316.927 166.23 315.936 166.23H312.356C311.365 166.23 310.558 165.423 310.558 164.432C310.558 163.44 311.365 162.634 312.356 162.634H315.936C316.927 162.634 317.734 163.44 317.734 164.432Z" fill="black"/>
<path fill-rule="evenodd" clip-rule="evenodd" d="M317.734 153.677C317.734 154.668 316.927 155.475 315.936 155.475H312.356C311.365 155.475 310.558 154.668 310.558 153.677C310.558 152.686 311.365 151.879 312.356 151.879H315.936C316.927 151.879 317.734 152.686 317.734 153.677Z" fill="black"/>
<path fill-rule="evenodd" clip-rule="evenodd" d="M375.121 175.187C375.121 176.178 374.314 176.985 373.323 176.985H369.744C368.752 176.985 367.946 176.178 367.946 175.187C367.946 174.195 368.752 173.389 369.744 173.389H373.323C374.314 173.389 375.121 174.195 375.121 175.187Z" fill="black"/>
<path fill-rule="evenodd" clip-rule="evenodd" d="M375.121 164.432C375.121 165.423 374.314 166.23 373.323 166.23H369.744C368.752 166.23 367.946 165.423 367.946 164.432C367.946 163.44 368.752 162.634 369.744 162.634H373.323C374.314 162.634 375.121 163.44 375.121 164.432Z" fill="black"/>
<path fill-rule="evenodd" clip-rule="evenodd" d="M375.121 153.677C375.121 154.668 374.314 155.475 373.323 155.475H369.744C368.752 155.475 367.946 154.668 367.946 153.677C367.946 152.686 368.752 151.879 369.744 151.879H373.323C374.314 151.879 375.121 152.686 375.121 153.677Z" fill="black"/>
<path fill-rule="evenodd" clip-rule="evenodd" d="M274.697 153.677C274.697 154.668 273.891 155.475 272.899 155.475H269.32C268.329 155.475 267.522 154.668 267.522 153.677C267.522 152.686 268.329 151.879 269.32 151.879H272.899C273.891 151.879 274.697 152.686 274.697 153.677Z" fill="black"/>
<path fill-rule="evenodd" clip-rule="evenodd" d="M303.4 153.677C303.4 154.668 302.593 155.475 301.601 155.475H298.022C297.031 155.475 296.224 154.668 296.224 153.677C296.224 152.686 297.031 151.879 298.022 151.879H301.601C302.593 151.879 303.4 152.686 303.4 153.677Z" fill="black"/>
<path fill-rule="evenodd" clip-rule="evenodd" d="M332.085 175.187C332.085 176.178 331.278 176.985 330.287 176.985H326.707C325.716 176.985 324.909 176.178 324.909 175.187C324.909 174.195 325.716 173.389 326.707 173.389H330.287C331.278 173.389 332.085 174.195 332.085 175.187Z" fill="black"/>
<path fill-rule="evenodd" clip-rule="evenodd" d="M360.77 175.237C360.77 176.228 359.963 177.035 358.972 177.035H355.393C354.401 177.035 353.595 176.228 353.595 175.237C353.595 174.245 354.401 173.438 355.393 173.438H358.972C359.963 173.438 360.77 174.245 360.77 175.237Z" fill="black"/>
<path fill-rule="evenodd" clip-rule="evenodd" d="M287.973 153.677C287.973 155.071 286.847 156.181 285.469 156.181C284.091 156.181 282.965 155.055 282.965 153.677C282.965 152.299 284.091 151.173 285.469 151.173C286.847 151.173 287.973 152.299 287.973 153.677Z" fill="black"/>
<path fill-rule="evenodd" clip-rule="evenodd" d="M287.973 164.432C287.973 165.81 286.847 166.935 285.469 166.935C284.091 166.935 282.965 165.81 282.965 164.432C282.965 163.054 284.091 161.928 285.469 161.928C286.847 161.928 287.973 163.054 287.973 164.432Z" fill="black"/>
<path fill-rule="evenodd" clip-rule="evenodd" d="M345.36 175.186C345.36 176.564 344.234 177.69 342.856 177.69C341.478 177.69 340.353 176.564 340.353 175.186C340.353 173.809 341.478 172.683 342.856 172.683C344.234 172.683 345.36 173.809 345.36 175.186Z" fill="black"/>
<path fill-rule="evenodd" clip-rule="evenodd" d="M345.36 164.432C345.36 165.81 344.234 166.935 342.856 166.935C341.478 166.935 340.353 165.81 340.353 164.432C340.353 163.054 341.478 161.928 342.856 161.928C344.234 161.928 345.36 163.054 345.36 164.432Z" fill="black"/>
<path d="M268.161 193.52L266.951 191.218L265.724 193.52H268.144M266.917 189.991H267.001L269.925 195.352H269.118L268.413 194.024H265.438L264.732 195.352H263.959L266.883 189.991H266.917Z" fill="black"/>
<path d="M276.344 192.714C277.605 192.714 278.243 192.327 278.243 191.655C278.243 190.916 277.554 190.63 276.227 190.63H275.706V192.714H276.344ZM274.966 190.126H276.294C278.092 190.126 278.983 190.681 278.983 191.655C278.983 192.395 278.361 193 277.336 193.134L279.604 195.369H278.663L276.479 193.218H275.689V195.369H274.95V190.143L274.966 190.126Z" fill="black"/>
<path d="M286.309 194.948C287.116 194.948 287.62 194.562 287.62 194.024C287.62 193.486 287.166 193.217 286.377 192.915L285.94 192.747C285.015 192.394 284.545 191.89 284.545 191.268C284.545 190.512 285.267 189.94 286.36 189.94C286.931 189.94 287.452 190.092 287.855 190.293V190.966C287.318 190.629 286.83 190.478 286.326 190.478C285.654 190.478 285.234 190.797 285.234 191.251C285.234 191.705 285.62 191.991 286.41 192.276L286.847 192.444C287.839 192.814 288.326 193.369 288.326 194.024C288.326 194.881 287.519 195.52 286.309 195.52C285.755 195.52 285.15 195.385 284.511 195.116L284.444 194.377C285.133 194.73 285.704 194.931 286.276 194.931" fill="black"/>
<path d="M293.955 190.126H294.695V192.311H298.19V190.126H298.93V195.352H298.19V192.882H294.695V195.352H293.955V190.126Z" fill="black"/>
<path d="M308.122 193.52L306.912 191.218L305.685 193.52H308.105M306.878 189.991H306.962L309.886 195.352H309.079L308.374 194.024H305.399L304.693 195.352H303.92L306.844 189.991H306.878Z" fill="black"/>
<path d="M314.927 190.126H315.667V194.798H318.608V195.352H314.911V190.126H314.927Z" fill="black"/>
<path d="M323.783 190.126H324.523V194.798H327.48V195.352H323.783V190.126Z" fill="black"/>
<path d="M340.84 195.57L338.655 190.125H339.428L340.907 194.007L342.554 189.957H342.638L344.167 194.007L345.629 190.125H346.369L344.167 195.57H344.083L342.571 191.52L340.941 195.57H340.84Z" fill="black"/>
<path d="M354.3 193.52L353.09 191.218L351.864 193.52H354.284H354.3ZM353.057 189.991H353.141L356.065 195.352H355.258L354.552 194.024H351.578L350.872 195.352H350.099L353.023 189.991H353.057Z" fill="black"/>
<path d="M363.61 195.52C362.887 195.52 362.215 195.318 361.678 194.948C360.905 194.427 360.468 193.637 360.468 192.73C360.468 191.117 361.829 189.94 363.627 189.94C364.282 189.94 364.887 190.108 365.459 190.428L365.375 191.083C364.82 190.697 364.265 190.495 363.627 190.495C362.232 190.495 361.207 191.419 361.207 192.73C361.207 194.041 362.215 194.931 363.593 194.931C364.282 194.931 364.887 194.713 365.509 194.259L365.442 194.999C364.887 195.335 364.249 195.503 363.576 195.503" fill="black"/>
<path d="M370.987 190.126H374.432V190.647H371.71V192.361H374.062V192.899H371.71V194.798H374.466V195.352H370.987V190.126Z" fill="black"/>
<path d="M258.347 189.907L260.531 195.352H259.758L258.28 191.47L256.633 195.52H256.549L255.019 191.47L253.541 195.352H252.801L255.003 189.907H255.087L256.599 193.957L258.229 189.907H258.33H258.347Z" fill="black"/>
<path d="M264.648 125.714V133.108H255.776V137.544H252.818V125.714H264.648ZM261.691 128.671H255.776V130.15H261.691V128.671Z" fill="black"/>
<path d="M280.428 125.714V137.544H268.597V125.714H280.428ZM277.47 128.671H271.555V134.587H277.47V128.671Z" fill="black"/>
<path d="M293.25 125.714H296.207V137.544H291.031V134.587H289.553V137.544H284.377V125.714H287.334V134.587H288.813V131.629H291.771V134.587H293.25V125.714Z" fill="black"/>
<path d="M303.114 128.671V130.15H309.029V133.108H303.114V134.587H311.987V137.544H300.156V125.714H311.987V128.671H303.114Z" fill="black"/>
<path d="M327.783 125.714V130.15H326.287V133.108H327.783V137.544H324.825V133.108H318.91V137.544H315.952V125.714H327.783ZM324.825 128.671H318.91V130.15H324.825V128.671Z" fill="black"/>
<path d="M359.342 127.193V136.065H356.384V137.544H347.511V125.714H356.384V127.193H359.342ZM356.384 128.671H350.469V130.15H356.384V128.671ZM356.384 133.108H350.469V134.587H356.384V133.108Z" fill="black"/>
<path d="M375.121 125.714V130.15H373.642V133.108H370.685V137.544H367.727V133.108H364.769V130.15H363.291V125.714H366.248V130.15H372.163V125.714H375.121Z" fill="black"/>
<path d="M427.685 300.179V655.375" stroke="black" stroke-miterlimit="10"/>
<path d="M387.422 52.2783H211.899V57.034H387.422V52.2783Z" fill="#0060E6"/>
<path d="M273.504 52.2783H153.907V57.034H273.504V52.2783Z" fill="#FAA701"/>
<path d="M158.511 52.2783H-196.752V57.034H158.511V52.2783Z" fill="black"/>
<path d="M188.406 52.2783H119.138V57.034H188.406V52.2783Z" fill="#D62D3B"/>
<path d="M427.685 52.2783H404.344V57.034H427.685V52.2783Z" fill="black"/>
</g>
<path d="M576.237 183.942V186.177H586.824V190.664H576.237V197.386H570.944V179.438H592.1V183.925H576.22L576.237 183.942Z" fill="black"/>
<path d="M604.469 183.942V186.177H615.055V190.664H604.469V192.899H620.349V197.386H599.192V179.438H620.349V183.925H604.469V183.942Z" fill="black"/>
<path d="M648.547 181.707V195.15H643.253V197.402H627.373V179.455H643.253V181.707H648.547ZM643.253 183.942H632.667V186.177H643.253V183.942ZM643.253 190.68H632.667V192.915H643.253V190.68Z" fill="black"/>
<path d="M592.117 221.618V226.104H570.96V221.618H578.892V212.644H570.96V208.157H584.186V221.618H592.117Z" fill="black"/>
<path d="M599.175 214.896H620.332V219.382H599.175V214.896Z" fill="black"/>
<path d="M648.547 208.157V219.366H632.667V221.601H648.547V226.088H627.39V214.879H643.27V212.644H627.39V208.157H648.547Z" fill="black"/>
<path d="M673.888 187.79V179.606H675.955V187.79H673.888Z" fill="black"/>
<path d="M678.139 187.79V179.606H681.349L683.03 183.555C683.097 183.69 683.164 183.875 683.248 184.093C683.332 184.312 683.416 184.547 683.517 184.799C683.618 185.051 683.685 185.27 683.769 185.454H683.853C683.92 185.286 683.987 185.085 684.071 184.849C684.155 184.614 684.239 184.396 684.34 184.16C684.424 183.925 684.508 183.74 684.576 183.572L686.273 179.623H689.398V187.807H687.348V183.119C687.348 182.967 687.348 182.799 687.348 182.614C687.348 182.43 687.348 182.262 687.365 182.077C687.365 181.909 687.365 181.741 687.365 181.606H687.264C687.231 181.741 687.163 181.909 687.096 182.077C687.029 182.245 686.962 182.446 686.895 182.631C686.827 182.816 686.777 182.967 686.71 183.102L684.676 187.79H682.727L680.694 183.102C680.61 182.917 680.543 182.732 680.458 182.547C680.391 182.362 680.324 182.178 680.274 182.009C680.223 181.841 680.173 181.707 680.139 181.589H680.038C680.038 181.69 680.038 181.825 680.055 181.993C680.055 182.161 680.055 182.346 680.055 182.53C680.055 182.715 680.055 182.9 680.055 183.085V187.773H678.089L678.139 187.79Z" fill="black"/>
<path d="M691.566 187.79V179.606H697.7C698.238 179.606 698.691 179.724 699.095 179.959C699.498 180.195 699.8 180.514 700.019 180.917C700.237 181.32 700.355 181.791 700.355 182.329C700.355 182.867 700.237 183.337 700.019 183.757C699.8 184.177 699.481 184.497 699.078 184.732C698.675 184.967 698.204 185.085 697.666 185.085H693.633V187.807H691.566V187.79ZM693.616 183.438H697.078C697.481 183.438 697.784 183.337 698.002 183.152C698.221 182.967 698.322 182.698 698.322 182.346C698.322 182.11 698.271 181.925 698.17 181.757C698.069 181.589 697.935 181.472 697.75 181.371C697.565 181.287 697.347 181.236 697.078 181.236H693.616V183.438Z" fill="black"/>
<path d="M701.783 187.79V179.606H710.169V181.22H703.833V182.833H709.429V184.429H703.833V186.16H710.253V187.79H701.767H701.783Z" fill="black"/>
<path d="M712.101 187.79V179.606H718.722C719.31 179.606 719.798 179.724 720.167 179.959C720.537 180.195 720.823 180.514 721.024 180.9C721.209 181.287 721.31 181.724 721.31 182.194C721.31 182.665 721.192 183.152 720.94 183.572C720.688 183.992 720.319 184.329 719.798 184.581L721.495 187.79H719.176L717.731 184.95H714.151V187.79H712.084H712.101ZM714.168 183.337H718.117C718.453 183.337 718.722 183.236 718.907 183.035C719.092 182.833 719.193 182.564 719.193 182.262C719.193 182.043 719.142 181.858 719.058 181.707C718.974 181.556 718.84 181.438 718.689 181.354C718.537 181.27 718.336 181.236 718.1 181.236H714.151V183.354L714.168 183.337Z" fill="black"/>
<path d="M723.125 187.79V179.606H725.192V187.79H723.125Z" fill="black"/>
<path d="M726.536 187.79L730.603 179.606H732.922L736.989 187.79H734.754L734.031 186.311H729.376L728.654 187.79H726.536ZM730.116 184.732H733.275L732.401 182.867C732.401 182.867 732.317 182.665 732.25 182.514C732.183 182.362 732.115 182.194 732.048 182.026C731.981 181.858 731.914 181.707 731.863 181.573C731.813 181.438 731.779 181.354 731.762 181.32H731.662C731.594 181.472 731.527 181.657 731.443 181.858C731.359 182.06 731.275 182.245 731.208 182.43C731.124 182.614 731.074 182.766 731.006 182.883L730.132 184.749L730.116 184.732Z" fill="black"/>
<path d="M738.316 187.79V179.606H740.383V186.059H745.609V187.807H738.333L738.316 187.79Z" fill="black"/>
<path d="M755.474 187.941C754.348 187.941 753.407 187.773 752.667 187.454C751.911 187.135 751.34 186.647 750.97 186.026C750.6 185.404 750.399 184.614 750.399 183.69C750.399 182.345 750.836 181.304 751.693 180.564C752.55 179.825 753.81 179.455 755.457 179.455C756.381 179.455 757.204 179.59 757.91 179.858C758.616 180.127 759.171 180.514 759.574 181.018C759.977 181.522 760.162 182.11 760.162 182.799H758.146C758.146 182.429 758.028 182.127 757.809 181.858C757.591 181.606 757.272 181.404 756.852 181.27C756.431 181.136 755.961 181.068 755.406 181.068C754.801 181.068 754.28 181.169 753.844 181.371C753.407 181.572 753.071 181.858 752.835 182.211C752.6 182.581 752.482 183.018 752.482 183.522V183.824C752.482 184.328 752.6 184.765 752.835 185.135C753.071 185.505 753.407 185.79 753.844 185.992C754.28 186.194 754.801 186.294 755.406 186.294C756.011 186.294 756.482 186.227 756.902 186.11C757.322 185.992 757.641 185.79 757.86 185.538C758.078 185.286 758.196 184.967 758.196 184.614H760.162C760.162 185.286 759.96 185.874 759.574 186.379C759.187 186.883 758.633 187.269 757.927 187.538C757.221 187.807 756.398 187.941 755.44 187.941H755.474Z" fill="black"/>
<path d="M766.968 187.941C765.876 187.941 764.935 187.773 764.145 187.437C763.355 187.101 762.733 186.614 762.296 185.992C761.859 185.353 761.658 184.597 761.658 183.69C761.658 182.782 761.876 182.026 762.296 181.388C762.733 180.749 763.338 180.278 764.145 179.942C764.951 179.606 765.892 179.455 766.968 179.455C768.043 179.455 769.001 179.623 769.808 179.942C770.614 180.262 771.219 180.749 771.64 181.388C772.06 182.026 772.278 182.782 772.278 183.69C772.278 184.597 772.06 185.353 771.64 185.992C771.219 186.631 770.598 187.101 769.808 187.437C769.018 187.773 768.06 187.941 766.968 187.941ZM766.968 186.294C767.438 186.294 767.859 186.244 768.262 186.126C768.665 186.009 768.984 185.858 769.27 185.656C769.556 185.454 769.774 185.185 769.925 184.883C770.077 184.564 770.161 184.211 770.161 183.824V183.555C770.161 183.152 770.077 182.799 769.925 182.497C769.774 182.177 769.556 181.925 769.27 181.724C768.984 181.522 768.648 181.354 768.262 181.253C767.875 181.152 767.438 181.085 766.968 181.085C766.497 181.085 766.077 181.136 765.674 181.253C765.287 181.354 764.951 181.522 764.666 181.724C764.38 181.925 764.162 182.194 764.01 182.497C763.859 182.799 763.775 183.152 763.775 183.555V183.824C763.775 184.228 763.859 184.58 764.01 184.883C764.162 185.202 764.38 185.454 764.666 185.656C764.951 185.858 765.287 186.026 765.674 186.126C766.06 186.227 766.497 186.294 766.968 186.294Z" fill="black"/>
<path d="M774.11 187.79V179.606H776.177V186.059H781.403V187.807H774.127L774.11 187.79Z" fill="black"/>
<path d="M782.814 187.79V179.606H784.882V186.059H790.108V187.807H782.831L782.814 187.79Z" fill="black"/>
<path d="M791.519 187.79V179.606H799.905V181.22H793.569V182.833H799.165V184.429H793.569V186.16H799.989V187.79H791.502H791.519Z" fill="black"/>
<path d="M806.442 187.941C804.795 187.941 803.551 187.588 802.711 186.899C801.888 186.193 801.468 185.135 801.468 183.723C801.468 182.799 801.686 182.009 802.106 181.387C802.526 180.749 803.148 180.278 803.955 179.959C804.761 179.64 805.736 179.488 806.862 179.488C807.584 179.488 808.24 179.556 808.828 179.673C809.433 179.791 809.954 179.992 810.391 180.244C810.844 180.497 811.18 180.816 811.416 181.202C811.651 181.589 811.769 182.026 811.769 182.547H809.769C809.769 182.278 809.685 182.059 809.534 181.875C809.382 181.69 809.164 181.538 808.895 181.438C808.626 181.32 808.324 181.253 807.988 181.186C807.652 181.135 807.299 181.102 806.912 181.102C806.425 181.102 805.971 181.152 805.551 181.253C805.131 181.354 804.778 181.505 804.492 181.706C804.19 181.908 803.971 182.16 803.803 182.479C803.635 182.782 803.551 183.152 803.551 183.572V183.857C803.551 184.446 803.686 184.916 803.938 185.286C804.19 185.656 804.56 185.908 805.013 186.076C805.484 186.244 806.038 186.328 806.694 186.328C807.349 186.328 807.937 186.26 808.374 186.143C808.828 186.025 809.164 185.857 809.399 185.622C809.634 185.387 809.752 185.118 809.752 184.798V184.714H806.61V183.236H811.752V187.806H810.508L810.307 186.765C810.004 187.05 809.651 187.269 809.248 187.437C808.845 187.605 808.408 187.739 807.92 187.823C807.433 187.907 806.929 187.941 806.391 187.941H806.442Z" fill="black"/>
<path d="M813.903 187.79V179.606H822.288V181.22H815.953V182.833H821.549V184.429H815.953V186.16H822.372V187.79H813.886H813.903Z" fill="black"/>
<path d="M827.935 187.79V179.606H830.001V186.059H835.228V187.807H827.951L827.935 187.79Z" fill="black"/>
<path d="M841.008 187.941C839.916 187.941 838.975 187.773 838.185 187.437C837.395 187.101 836.774 186.614 836.337 185.992C835.9 185.353 835.698 184.597 835.698 183.69C835.698 182.782 835.917 182.026 836.337 181.388C836.774 180.749 837.379 180.278 838.185 179.942C838.992 179.606 839.933 179.455 841.008 179.455C842.084 179.455 843.042 179.623 843.848 179.942C844.655 180.262 845.26 180.749 845.68 181.388C846.1 182.026 846.319 182.782 846.319 183.69C846.319 184.597 846.1 185.353 845.68 185.992C845.26 186.631 844.638 187.101 843.848 187.437C843.059 187.773 842.101 187.941 841.008 187.941ZM841.008 186.294C841.479 186.294 841.899 186.244 842.302 186.126C842.706 186.009 843.025 185.858 843.311 185.656C843.596 185.454 843.815 185.185 843.966 184.883C844.117 184.564 844.201 184.211 844.201 183.824V183.555C844.201 183.152 844.117 182.799 843.966 182.497C843.815 182.177 843.596 181.925 843.311 181.724C843.025 181.522 842.689 181.354 842.302 181.253C841.916 181.152 841.479 181.085 841.008 181.085C840.538 181.085 840.118 181.136 839.715 181.253C839.328 181.354 838.992 181.522 838.706 181.724C838.421 181.925 838.202 182.194 838.051 182.497C837.9 182.799 837.816 183.152 837.816 183.555V183.824C837.816 184.228 837.9 184.58 838.051 184.883C838.202 185.202 838.421 185.454 838.706 185.656C838.992 185.858 839.328 186.026 839.715 186.126C840.101 186.227 840.538 186.294 841.008 186.294Z" fill="black"/>
<path d="M848.15 187.79V179.606H850.049L854.435 183.724C854.519 183.791 854.637 183.892 854.771 184.043C854.906 184.177 855.04 184.312 855.175 184.463C855.326 184.614 855.443 184.732 855.544 184.849H855.645C855.645 184.698 855.628 184.497 855.611 184.244C855.611 184.009 855.595 183.808 855.595 183.656V179.623H857.561V187.807H855.695L851.343 183.69C851.142 183.505 850.923 183.287 850.705 183.051C850.486 182.816 850.301 182.631 850.167 182.497H850.066C850.066 182.598 850.066 182.782 850.083 183.018C850.083 183.27 850.083 183.539 850.083 183.858V187.807H848.117L848.15 187.79Z" fill="black"/>
<path d="M859.762 187.79V179.606H864.215C865.224 179.606 866.097 179.758 866.82 180.077C867.543 180.396 868.097 180.85 868.484 181.455C868.87 182.06 869.072 182.816 869.072 183.707C869.072 184.597 868.87 185.337 868.484 185.942C868.097 186.547 867.543 187.017 866.82 187.32C866.097 187.639 865.224 187.79 864.215 187.79H859.762ZM861.829 186.16H864.115C864.535 186.16 864.904 186.11 865.257 186.009C865.61 185.908 865.896 185.757 866.165 185.572C866.434 185.387 866.618 185.135 866.753 184.849C866.887 184.564 866.955 184.228 866.955 183.841V183.572C866.955 183.186 866.887 182.85 866.753 182.564C866.618 182.278 866.417 182.026 866.165 181.841C865.913 181.657 865.61 181.505 865.257 181.388C864.904 181.27 864.535 181.236 864.115 181.236H861.829V186.177V186.16Z" fill="black"/>
<path d="M875.861 187.941C874.769 187.941 873.828 187.773 873.038 187.437C872.248 187.101 871.626 186.614 871.189 185.992C870.752 185.353 870.551 184.597 870.551 183.69C870.551 182.782 870.769 182.026 871.189 181.388C871.626 180.749 872.231 180.278 873.038 179.942C873.844 179.606 874.785 179.455 875.861 179.455C876.936 179.455 877.894 179.623 878.701 179.942C879.507 180.262 880.112 180.749 880.533 181.388C880.953 182.026 881.171 182.782 881.171 183.69C881.171 184.597 880.953 185.353 880.533 185.992C880.112 186.631 879.491 187.101 878.701 187.437C877.911 187.773 876.953 187.941 875.861 187.941ZM875.861 186.294C876.331 186.294 876.752 186.244 877.155 186.126C877.558 186.009 877.877 185.858 878.163 185.656C878.449 185.454 878.667 185.185 878.818 184.883C878.97 184.564 879.054 184.211 879.054 183.824V183.555C879.054 183.152 878.97 182.799 878.818 182.497C878.667 182.177 878.449 181.925 878.163 181.724C877.877 181.522 877.541 181.354 877.155 181.253C876.768 181.152 876.331 181.085 875.861 181.085C875.39 181.085 874.97 181.136 874.567 181.253C874.181 181.354 873.844 181.522 873.559 181.724C873.273 181.925 873.055 182.194 872.903 182.497C872.752 182.799 872.668 183.152 872.668 183.555V183.824C872.668 184.228 872.752 184.58 872.903 184.883C873.055 185.202 873.273 185.454 873.559 185.656C873.844 185.858 874.181 186.026 874.567 186.126C874.954 186.227 875.39 186.294 875.861 186.294Z" fill="black"/>
<path d="M883.003 187.79V179.606H884.902L889.288 183.724C889.372 183.791 889.489 183.892 889.624 184.043C889.758 184.177 889.893 184.312 890.027 184.463C890.178 184.614 890.296 184.732 890.397 184.849H890.498C890.498 184.698 890.481 184.497 890.464 184.244C890.464 184.009 890.447 183.808 890.447 183.656V179.623H892.413V187.807H890.548L886.196 183.69C885.994 183.505 885.776 183.287 885.557 183.051C885.339 182.816 885.154 182.631 885.019 182.497H884.919C884.919 182.598 884.919 182.782 884.935 183.018C884.935 183.27 884.935 183.539 884.935 183.858V187.807H882.969L883.003 187.79Z" fill="black"/>
<path d="M773.438 225.633C772.244 225.633 771.219 225.465 770.362 225.146C769.505 224.827 768.816 224.356 768.262 223.734C767.724 223.113 767.321 222.373 767.069 221.483C766.817 220.609 766.682 219.584 766.682 218.441C766.682 217.298 766.817 216.29 767.069 215.399C767.321 214.525 767.724 213.769 768.262 213.148C768.799 212.526 769.488 212.055 770.345 211.753C771.203 211.433 772.228 211.282 773.421 211.282C774.614 211.282 775.639 211.433 776.496 211.753C777.353 212.072 778.042 212.543 778.596 213.148C779.134 213.769 779.538 214.509 779.79 215.399C780.042 216.273 780.159 217.298 780.159 218.441C780.159 219.584 780.042 220.592 779.79 221.483C779.538 222.356 779.151 223.113 778.613 223.734C778.076 224.356 777.387 224.827 776.53 225.146C775.672 225.465 774.647 225.633 773.454 225.633H773.438ZM773.438 223.331C774.278 223.331 774.967 223.163 775.471 222.844C775.975 222.508 776.345 222.02 776.563 221.365C776.798 220.71 776.899 219.886 776.899 218.878V217.987C776.899 217.013 776.782 216.189 776.563 215.534C776.328 214.878 775.975 214.391 775.471 214.072C774.967 213.752 774.295 213.584 773.438 213.584C772.581 213.584 771.925 213.752 771.421 214.072C770.917 214.391 770.547 214.878 770.312 215.534C770.077 216.189 769.976 216.996 769.976 217.987V218.878C769.976 219.869 770.093 220.693 770.312 221.365C770.547 222.02 770.917 222.524 771.421 222.844C771.925 223.18 772.597 223.331 773.438 223.331Z" fill="black"/>
<path d="M788.746 225.633C787.469 225.633 786.377 225.449 785.453 225.096C784.528 224.743 783.823 224.222 783.335 223.55C782.848 222.878 782.596 222.054 782.596 221.096H785.654C785.654 221.617 785.789 222.054 786.041 222.373C786.31 222.709 786.663 222.945 787.133 223.096C787.604 223.247 788.141 223.331 788.746 223.331C789.704 223.331 790.444 223.163 790.998 222.81C791.536 222.474 791.922 221.97 792.141 221.315C792.359 220.659 792.477 219.853 792.477 218.895C792.107 219.281 791.67 219.601 791.149 219.836C790.629 220.071 790.091 220.239 789.553 220.34C789.015 220.441 788.478 220.474 788.007 220.474C786.831 220.474 785.789 220.306 784.898 219.954C784.007 219.601 783.319 219.097 782.814 218.424C782.31 217.752 782.075 216.962 782.075 216.055C782.075 215.047 782.361 214.19 782.949 213.467C783.537 212.744 784.327 212.207 785.335 211.837C786.343 211.467 787.52 211.266 788.847 211.266C789.956 211.266 790.948 211.4 791.805 211.652C792.662 211.904 793.384 212.308 793.973 212.845C794.561 213.383 794.998 214.089 795.3 214.963C795.603 215.836 795.754 216.862 795.754 218.055C795.754 219.416 795.603 220.575 795.283 221.516C794.981 222.474 794.527 223.247 793.922 223.852C793.317 224.457 792.595 224.894 791.721 225.18C790.847 225.465 789.839 225.6 788.713 225.6L788.746 225.633ZM788.847 218.324C789.603 218.324 790.242 218.223 790.763 218.021C791.284 217.819 791.687 217.534 791.956 217.181C792.225 216.828 792.376 216.408 792.376 215.92C792.376 215.467 792.242 215.063 791.956 214.694C791.67 214.324 791.284 214.055 790.763 213.87C790.242 213.669 789.603 213.585 788.864 213.585C788.125 213.585 787.503 213.685 786.982 213.87C786.444 214.072 786.041 214.341 785.755 214.694C785.469 215.047 785.335 215.484 785.335 215.971C785.335 216.425 785.47 216.828 785.722 217.181C785.974 217.534 786.377 217.803 786.898 218.004C787.419 218.206 788.074 218.307 788.83 218.307L788.847 218.324Z" fill="black"/>
<path d="M798.191 218.122V214.761H801.955V218.122H798.191ZM798.191 225.381V222.02H801.955V225.381H798.191Z" fill="black"/>
<path d="M811.096 225.633C809.903 225.633 808.878 225.465 808.021 225.146C807.164 224.827 806.475 224.356 805.921 223.734C805.383 223.113 804.98 222.373 804.727 221.483C804.475 220.609 804.341 219.584 804.341 218.441C804.341 217.298 804.475 216.29 804.727 215.399C804.98 214.525 805.383 213.769 805.921 213.148C806.458 212.526 807.147 212.055 808.004 211.753C808.861 211.433 809.886 211.282 811.08 211.282C812.273 211.282 813.298 211.433 814.155 211.753C815.012 212.072 815.701 212.543 816.255 213.148C816.793 213.769 817.196 214.509 817.448 215.399C817.701 216.273 817.818 217.298 817.818 218.441C817.818 219.584 817.701 220.592 817.448 221.483C817.196 222.356 816.81 223.113 816.272 223.734C815.734 224.356 815.045 224.827 814.188 225.146C813.331 225.465 812.306 225.633 811.113 225.633H811.096ZM811.096 223.331C811.937 223.331 812.626 223.163 813.13 222.844C813.634 222.508 814.003 222.02 814.222 221.365C814.457 220.71 814.558 219.886 814.558 218.878V217.987C814.558 217.013 814.44 216.189 814.222 215.534C813.987 214.878 813.634 214.391 813.13 214.072C812.626 213.752 811.953 213.584 811.096 213.584C810.239 213.584 809.584 213.752 809.08 214.072C808.576 214.391 808.206 214.878 807.971 215.534C807.735 216.189 807.635 216.996 807.635 217.987V218.878C807.635 219.869 807.752 220.693 807.971 221.365C808.206 222.02 808.576 222.524 809.08 222.844C809.584 223.18 810.256 223.331 811.096 223.331Z" fill="black"/>
<path d="M826.607 225.633C825.414 225.633 824.389 225.465 823.532 225.146C822.675 224.827 821.986 224.356 821.431 223.734C820.893 223.113 820.49 222.373 820.238 221.483C819.986 220.609 819.852 219.584 819.852 218.441C819.852 217.298 819.986 216.29 820.238 215.399C820.49 214.525 820.893 213.769 821.431 213.148C821.969 212.526 822.658 212.055 823.515 211.753C824.372 211.433 825.397 211.282 826.59 211.282C827.783 211.282 828.808 211.433 829.665 211.753C830.522 212.072 831.211 212.543 831.766 213.148C832.304 213.769 832.707 214.509 832.959 215.399C833.211 216.273 833.329 217.298 833.329 218.441C833.329 219.584 833.211 220.592 832.959 221.483C832.707 222.356 832.32 223.113 831.783 223.734C831.245 224.356 830.556 224.827 829.699 225.146C828.842 225.465 827.817 225.633 826.624 225.633H826.607ZM826.607 223.331C827.447 223.331 828.136 223.163 828.64 222.844C829.144 222.508 829.514 222.02 829.733 221.365C829.968 220.71 830.069 219.886 830.069 218.878V217.987C830.069 217.013 829.951 216.189 829.733 215.534C829.497 214.878 829.144 214.391 828.64 214.072C828.136 213.752 827.464 213.584 826.607 213.584C825.75 213.584 825.095 213.752 824.59 214.072C824.086 214.391 823.716 214.878 823.481 215.534C823.246 216.189 823.145 216.996 823.145 217.987V218.878C823.145 219.869 823.263 220.693 823.481 221.365C823.716 222.02 824.086 222.524 824.59 222.844C825.095 223.18 825.767 223.331 826.607 223.331Z" fill="black"/>
<path d="M660.831 239.935V325.57" stroke="black" stroke-miterlimit="10"/>
<path d="M568.003 239.935H923.199" stroke="black" stroke-miterlimit="10"/>
<path d="M680.105 214.073C680.021 213.031 679.366 212.51 678.173 212.51C677.635 212.51 677.232 212.627 676.929 212.846C676.627 213.064 676.476 213.367 676.476 213.753C676.476 214.106 676.593 214.358 676.812 214.493C677.03 214.627 677.518 214.795 678.274 214.98C678.475 215.03 678.627 215.081 678.727 215.098C679.719 215.35 680.391 215.568 680.744 215.77C681.534 216.19 681.92 216.845 681.92 217.753C681.92 218.139 681.853 218.492 681.719 218.811C681.584 219.131 681.399 219.383 681.181 219.601C680.962 219.82 680.694 219.988 680.391 220.122C680.089 220.257 679.769 220.357 679.433 220.425C679.097 220.492 678.761 220.525 678.391 220.525C677.282 220.525 676.375 220.257 675.686 219.736C674.997 219.198 674.661 218.425 674.661 217.4H676.19C676.19 218.038 676.408 218.526 676.829 218.845C677.249 219.164 677.803 219.316 678.492 219.316C679.097 219.316 679.551 219.198 679.887 218.946C680.223 218.694 680.391 218.358 680.391 217.921C680.391 217.635 680.307 217.417 680.122 217.232C679.937 217.047 679.752 216.929 679.551 216.845C679.349 216.778 678.98 216.66 678.475 216.526C678.425 216.526 678.375 216.492 678.341 216.492C677.232 216.207 676.509 215.971 676.156 215.787C675.434 215.417 675.047 214.829 674.997 214.056V213.888C674.997 213.098 675.299 212.476 675.887 212.006C676.476 211.535 677.282 211.3 678.274 211.3C679.265 211.3 680.021 211.535 680.626 211.989C681.231 212.443 681.551 213.148 681.584 214.089H680.105V214.073Z" fill="black"/>
<path d="M689.65 212.812H686.827V220.341H685.264V212.812H682.441V211.468H689.65V212.812Z" fill="black"/>
<path d="M696.994 220.324H695.33L694.49 217.971H690.978L690.104 220.324H688.491L691.919 211.451H693.583L697.011 220.324H696.994ZM692.742 213.064L691.364 216.795H694.07L692.742 213.064Z" fill="black"/>
<path d="M702.019 211.468C702.892 211.468 703.615 211.669 704.169 212.056C704.724 212.442 705.01 213.081 705.01 213.921C705.01 214.459 704.875 214.913 704.623 215.282C704.371 215.669 704.001 215.938 703.548 216.106C703.766 216.156 703.951 216.223 704.102 216.324C704.254 216.425 704.388 216.526 704.472 216.644C704.556 216.761 704.623 216.912 704.69 217.097C704.741 217.282 704.791 217.433 704.808 217.585C704.825 217.719 704.842 217.904 704.859 218.122C704.859 218.173 704.875 218.29 704.892 218.458C704.892 218.626 704.909 218.727 704.926 218.795C704.943 218.862 704.926 218.946 704.959 219.08C704.959 219.215 704.976 219.299 704.993 219.366C705.01 219.433 705.01 219.5 705.043 219.601C705.06 219.702 705.077 219.786 705.094 219.836C705.094 219.887 705.127 219.954 705.161 220.021C705.178 220.088 705.211 220.156 705.245 220.206C705.279 220.257 705.312 220.307 705.363 220.341H703.699C703.699 220.341 703.649 220.273 703.632 220.223C703.615 220.172 703.598 220.122 703.581 220.072C703.565 220.021 703.548 219.971 703.548 219.92C703.548 219.87 703.531 219.82 703.514 219.736C703.514 219.652 703.497 219.584 703.497 219.551L703.464 219.332V219.114C703.464 219.114 703.43 218.979 703.43 218.845C703.43 218.727 703.43 218.626 703.43 218.576C703.396 217.853 703.245 217.366 702.976 217.08C702.707 216.812 702.22 216.677 701.481 216.677H699.414V220.341H697.868V211.468H702.069H702.019ZM699.363 215.518H701.414C701.716 215.518 701.968 215.518 702.17 215.467C702.371 215.434 702.59 215.366 702.791 215.282C703.01 215.198 703.161 215.047 703.279 214.845C703.397 214.644 703.447 214.392 703.447 214.089C703.447 213.804 703.396 213.568 703.296 213.383C703.195 213.199 703.06 213.064 702.859 212.963C702.657 212.863 702.489 212.812 702.287 212.779C702.086 212.745 701.867 212.728 701.598 212.728H699.347V215.501L699.363 215.518Z" fill="black"/>
<path d="M712.74 212.812H709.917V220.341H708.354V212.812H705.531V211.468H712.74V212.812Z" fill="black"/>
<path d="M723.595 212.812H720.772V220.341H719.209V212.812H716.386V211.468H723.595V212.812Z" fill="black"/>
<path d="M726.2 220.324H724.637V211.451H726.2V220.324Z" fill="black"/>
<path d="M737.291 220.324H735.812V213.485L733.342 220.324H732.065L729.544 213.485V220.324H728.082V211.451H730.267L732.737 218.391L735.123 211.451H737.291V220.324Z" fill="black"/>
<path d="M745.525 212.779H740.686V215.131H745.172V216.391H740.686V219.013H745.609V220.341H739.14V211.468H745.525V212.779Z" fill="black"/>
<path d="M679.921 264.788H675.938V266.721H679.635V267.746H675.938V269.897H679.971V270.989H674.661V263.713H679.904V264.788H679.921Z" fill="black"/>
<path d="M687.029 270.989H685.718L682.324 265.629V270.989H681.114V263.713H682.458L685.819 269.074V263.713H687.046V270.989H687.029Z" fill="black"/>
<path d="M693.734 264.822H691.415V270.989H690.138V264.822H687.819V263.713H693.734V264.822Z" fill="black"/>
<path d="M698.019 263.713C698.742 263.713 699.33 263.881 699.784 264.2C700.237 264.519 700.472 265.04 700.472 265.746C700.472 266.183 700.372 266.553 700.153 266.872C699.935 267.175 699.649 267.41 699.263 267.544C699.447 267.578 699.599 267.645 699.716 267.729C699.851 267.813 699.952 267.897 700.019 267.998C700.086 268.099 700.153 268.216 700.204 268.368C700.254 268.519 700.288 268.653 700.304 268.754C700.321 268.872 700.338 269.023 700.355 269.191C700.355 269.242 700.355 269.326 700.372 269.46C700.372 269.594 700.388 269.678 700.388 269.729C700.388 269.779 700.388 269.847 700.405 269.964C700.405 270.065 700.422 270.149 700.422 270.199C700.422 270.25 700.439 270.3 700.456 270.401C700.472 270.485 700.489 270.552 700.506 270.603C700.506 270.653 700.54 270.704 700.556 270.754C700.573 270.804 700.607 270.855 700.624 270.905C700.641 270.956 700.674 270.989 700.708 271.023H699.347C699.347 271.023 699.313 270.956 699.296 270.922C699.296 270.888 699.263 270.838 699.246 270.804C699.229 270.771 699.229 270.72 699.212 270.687C699.195 270.653 699.212 270.603 699.179 270.536C699.179 270.468 699.179 270.418 699.179 270.384V270.199L699.145 270.015C699.145 269.981 699.145 269.897 699.145 269.796C699.145 269.695 699.145 269.628 699.145 269.578C699.111 268.989 698.994 268.586 698.775 268.351C698.557 268.132 698.153 268.015 697.548 268.015H695.851V271.023H694.591V263.746H698.036L698.019 263.713ZM695.834 267.04H697.515C697.767 267.04 697.969 267.04 698.137 267.007C698.305 266.973 698.473 266.923 698.658 266.855C698.826 266.788 698.96 266.67 699.061 266.502C699.145 266.334 699.195 266.133 699.195 265.881C699.195 265.645 699.162 265.461 699.078 265.309C698.994 265.158 698.876 265.04 698.725 264.973C698.574 264.906 698.422 264.839 698.254 264.822C698.086 264.788 697.901 264.788 697.683 264.788H695.834V267.074V267.04Z" fill="black"/>
<path d="M704.59 268.099V270.989H703.329V268.099L700.573 263.713H702.052L703.985 266.939L705.9 263.713H707.329L704.59 268.099Z" fill="black"/>
<path d="M677.971 290.65C678.66 290.65 679.215 290.802 679.652 291.121C680.089 291.423 680.307 291.928 680.307 292.583C680.307 293.003 680.206 293.356 680.005 293.658C679.803 293.961 679.517 294.163 679.164 294.297C679.332 294.331 679.484 294.398 679.601 294.465C679.719 294.549 679.82 294.633 679.887 294.717C679.954 294.801 680.005 294.919 680.055 295.07C680.105 295.221 680.139 295.339 680.139 295.44C680.139 295.54 680.173 295.692 680.189 295.86C680.189 295.91 680.189 295.994 680.206 296.129C680.206 296.263 680.206 296.347 680.223 296.381C680.24 296.414 680.223 296.498 680.24 296.599C680.24 296.7 680.257 296.784 680.257 296.818C680.257 296.851 680.273 296.918 680.29 297.002C680.29 297.087 680.324 297.154 680.341 297.187C680.341 297.238 680.374 297.271 680.391 297.339C680.408 297.389 680.442 297.439 680.458 297.473C680.475 297.507 680.509 297.54 680.542 297.574H679.232C679.232 297.574 679.198 297.523 679.181 297.473C679.181 297.439 679.148 297.406 679.131 297.355C679.114 297.305 679.114 297.271 679.097 297.238C679.08 297.204 679.097 297.154 679.08 297.087C679.08 297.019 679.08 296.969 679.08 296.935V296.767L679.047 296.599C679.047 296.566 679.047 296.498 679.047 296.398C679.047 296.297 679.047 296.229 679.047 296.196C679.013 295.625 678.896 295.238 678.694 295.036C678.492 294.818 678.106 294.717 677.534 294.717H675.921V297.591H674.711V290.65H678.005H677.971ZM675.887 293.826H677.501C677.736 293.826 677.938 293.826 678.089 293.793C678.257 293.759 678.408 293.726 678.576 293.658C678.744 293.591 678.862 293.474 678.963 293.322C679.047 293.171 679.097 292.969 679.097 292.734C679.097 292.516 679.064 292.331 678.98 292.18C678.896 292.028 678.795 291.928 678.643 291.86C678.492 291.793 678.341 291.743 678.19 291.709C678.038 291.675 677.854 291.675 677.652 291.675H675.887V293.843V293.826Z" fill="black"/>
<path d="M686.945 291.491C687.567 292.163 687.869 293.037 687.869 294.112C687.869 295.188 687.567 296.062 686.945 296.734C686.323 297.406 685.516 297.742 684.542 297.742C683.567 297.742 682.744 297.406 682.122 296.734C681.5 296.062 681.198 295.188 681.198 294.096C681.198 293.003 681.5 292.18 682.105 291.491C682.71 290.802 683.517 290.466 684.559 290.466C685.6 290.466 686.34 290.802 686.962 291.474L686.945 291.491ZM682.996 292.213C682.609 292.684 682.424 293.323 682.424 294.096C682.424 294.869 682.609 295.541 682.996 296.011C683.382 296.482 683.903 296.717 684.559 296.717C685.214 296.717 685.701 296.482 686.071 295.994C686.457 295.524 686.642 294.885 686.642 294.096C686.642 293.306 686.457 292.667 686.071 292.197C685.684 291.726 685.18 291.491 684.542 291.491C683.903 291.491 683.399 291.726 683.013 292.197L682.996 292.213Z" fill="black"/>
<path d="M694.372 291.491C694.994 292.163 695.297 293.037 695.297 294.112C695.297 295.188 694.994 296.062 694.372 296.734C693.751 297.406 692.944 297.742 691.969 297.742C690.995 297.742 690.171 297.406 689.55 296.734C688.928 296.062 688.625 295.188 688.625 294.096C688.625 293.003 688.928 292.18 689.533 291.491C690.138 290.802 690.944 290.466 691.986 290.466C693.028 290.466 693.767 290.802 694.389 291.474L694.372 291.491ZM690.423 292.213C690.037 292.684 689.852 293.323 689.852 294.096C689.852 294.869 690.037 295.541 690.423 296.011C690.81 296.482 691.314 296.717 691.986 296.717C692.658 296.717 693.129 296.482 693.499 295.994C693.885 295.524 694.07 294.885 694.07 294.096C694.07 293.306 693.885 292.667 693.499 292.197C693.112 291.726 692.608 291.491 691.969 291.491C691.331 291.491 690.827 291.726 690.44 292.197L690.423 292.213Z" fill="black"/>
<path d="M703.615 297.591H702.455V292.23L700.523 297.591H699.531L697.548 292.23V297.591H696.406V290.65H698.12L700.069 296.078L701.934 290.65H703.632V297.591H703.615Z" fill="black"/>
<path d="M708.908 292.701C708.841 291.894 708.337 291.474 707.396 291.474C706.976 291.474 706.657 291.558 706.421 291.726C706.186 291.894 706.068 292.129 706.068 292.432C706.068 292.718 706.152 292.902 706.32 293.003C706.489 293.104 706.875 293.239 707.463 293.39C707.614 293.44 707.732 293.474 707.833 293.491C708.606 293.692 709.127 293.86 709.412 294.012C710.034 294.348 710.337 294.869 710.337 295.558C710.337 295.86 710.286 296.146 710.185 296.381C710.085 296.616 709.933 296.835 709.765 297.003C709.597 297.171 709.379 297.305 709.144 297.423C708.908 297.541 708.656 297.608 708.387 297.658C708.119 297.709 707.85 297.725 707.581 297.725C706.707 297.725 706.001 297.524 705.463 297.104C704.926 296.683 704.657 296.079 704.657 295.272H705.85C705.85 295.776 706.018 296.163 706.354 296.398C706.69 296.633 707.11 296.767 707.648 296.767C708.119 296.767 708.488 296.667 708.74 296.482C709.009 296.297 709.127 296.028 709.127 295.675C709.127 295.457 709.06 295.272 708.925 295.137C708.791 295.003 708.639 294.902 708.471 294.835C708.303 294.785 708.018 294.701 707.631 294.583C707.581 294.583 707.547 294.566 707.53 294.549C706.673 294.331 706.102 294.146 705.816 293.995C705.245 293.709 704.942 293.255 704.909 292.634V292.499C704.909 291.877 705.144 291.39 705.598 291.02C706.068 290.651 706.69 290.466 707.463 290.466C708.236 290.466 708.824 290.651 709.312 291.004C709.782 291.356 710.034 291.911 710.068 292.65H708.908V292.701Z" fill="black"/>
<path d="M724.1 274.82V263.897H726.856V274.82H724.1Z" fill="black"/>
<path d="M736.064 275.022C734.569 275.022 733.325 274.804 732.317 274.384C731.309 273.947 730.553 273.325 730.048 272.468C729.544 271.628 729.292 270.586 729.292 269.359C729.292 267.561 729.863 266.166 731.023 265.191C732.182 264.217 733.846 263.729 736.048 263.729C737.291 263.729 738.383 263.914 739.324 264.267C740.265 264.62 741.005 265.141 741.526 265.813C742.047 266.485 742.316 267.275 742.316 268.199H739.627C739.627 267.712 739.476 267.292 739.173 266.956C738.871 266.62 738.451 266.351 737.896 266.166C737.342 265.981 736.72 265.897 735.98 265.897C735.174 265.897 734.485 266.032 733.897 266.301C733.308 266.569 732.872 266.939 732.569 267.426C732.267 267.914 732.115 268.502 732.115 269.174V269.577C732.115 270.25 732.267 270.838 732.569 271.325C732.872 271.812 733.325 272.199 733.897 272.468C734.485 272.737 735.174 272.871 735.98 272.871C736.787 272.871 737.409 272.787 737.963 272.619C738.518 272.451 738.938 272.199 739.24 271.863C739.543 271.527 739.694 271.107 739.694 270.619H742.316C742.316 271.527 742.064 272.3 741.543 272.972C741.022 273.644 740.299 274.148 739.358 274.518C738.417 274.871 737.308 275.056 736.048 275.056L736.064 275.022Z" fill="black"/>
<path d="M744.769 274.82V263.897H749.037L751.272 269.157C751.356 269.342 751.457 269.577 751.558 269.88C751.676 270.182 751.793 270.485 751.911 270.821C752.029 271.157 752.146 271.443 752.23 271.695H752.348C752.432 271.459 752.533 271.191 752.65 270.888C752.768 270.586 752.886 270.266 753.003 269.964C753.121 269.661 753.222 269.393 753.306 269.191L755.558 263.914H759.725V274.837H756.986V268.569C756.986 268.367 756.986 268.149 756.986 267.897C756.986 267.662 756.986 267.41 757.003 267.174C757.003 266.939 757.003 266.737 757.003 266.553H756.868C756.818 266.737 756.751 266.939 756.65 267.191C756.566 267.426 756.465 267.678 756.381 267.914C756.297 268.166 756.213 268.367 756.146 268.552L753.44 274.82H750.836L748.13 268.552C748.029 268.3 747.928 268.065 747.827 267.813C747.727 267.561 747.643 267.326 747.575 267.107C747.508 266.889 747.441 266.704 747.391 266.553H747.256C747.256 266.687 747.273 266.872 747.273 267.09C747.273 267.309 747.273 267.544 747.273 267.813C747.273 268.082 747.273 268.317 747.273 268.552V274.82H744.651H744.769Z" fill="black"/>
<path d="M762.666 274.82V263.897H773.858V266.065H765.422V268.216H772.866V270.35H765.422V272.653H773.992V274.837H762.683L762.666 274.82Z" fill="black"/>
<path d="M732.3 301.775L730.536 300.162C730.536 300.162 730.401 300.162 730.334 300.162C730.267 300.162 730.183 300.162 730.116 300.162C728.889 300.162 727.83 299.977 726.94 299.591C726.049 299.204 725.36 298.65 724.856 297.927C724.368 297.204 724.116 296.331 724.116 295.306C724.116 294.28 724.368 293.407 724.856 292.684C725.343 291.961 726.049 291.407 726.956 291.037C727.864 290.667 728.939 290.466 730.2 290.466C731.46 290.466 732.535 290.651 733.443 291.037C734.35 291.424 735.056 291.961 735.543 292.684C736.031 293.407 736.283 294.28 736.283 295.306C736.283 296.415 735.997 297.339 735.426 298.095C734.854 298.851 734.048 299.389 733.023 299.742L735.392 301.775H732.317H732.3ZM730.183 298.314C730.721 298.314 731.208 298.246 731.662 298.129C732.115 298.011 732.485 297.826 732.821 297.591C733.157 297.356 733.392 297.053 733.577 296.7C733.762 296.347 733.846 295.944 733.846 295.474V295.154C733.846 294.684 733.762 294.28 733.577 293.928C733.392 293.575 733.14 293.289 732.821 293.054C732.502 292.818 732.115 292.634 731.662 292.516C731.225 292.398 730.721 292.331 730.183 292.331C729.645 292.331 729.158 292.398 728.704 292.516C728.267 292.634 727.881 292.818 727.545 293.054C727.208 293.289 726.956 293.575 726.788 293.928C726.604 294.28 726.519 294.684 726.519 295.154V295.474C726.519 295.944 726.604 296.347 726.788 296.7C726.956 297.053 727.225 297.356 727.545 297.591C727.864 297.826 728.25 298.011 728.704 298.129C729.141 298.246 729.645 298.314 730.183 298.314Z" fill="black"/>
<path d="M738.35 300.01V290.65H745.912C746.584 290.65 747.139 290.785 747.575 291.054C748.012 291.323 748.332 291.692 748.55 292.129C748.769 292.566 748.869 293.07 748.869 293.608C748.869 294.146 748.718 294.7 748.433 295.188C748.147 295.675 747.71 296.061 747.139 296.347L749.088 300.01H746.45L744.803 296.767H740.719V300.01H738.367H738.35ZM740.719 294.919H745.223C745.609 294.919 745.912 294.801 746.13 294.566C746.349 294.331 746.466 294.045 746.466 293.675C746.466 293.423 746.416 293.205 746.315 293.037C746.214 292.869 746.08 292.734 745.895 292.633C745.71 292.532 745.492 292.499 745.223 292.499H740.719V294.919Z" fill="black"/>
<path d="M754.045 300.01V292.633H749.911V290.65H760.498V292.633H756.381V300.01H754.028H754.045Z" fill="black"/>
<path d="M765.808 297.221V295.322H770.11V297.221H765.808Z" fill="black"/>
<path d="M781.05 300.179C780.311 300.179 779.638 300.128 779 300.044C778.361 299.96 777.807 299.809 777.336 299.574C776.866 299.338 776.479 299.036 776.21 298.633C775.941 298.229 775.824 297.708 775.824 297.087V297.019C775.824 297.019 775.824 296.969 775.824 296.952H778.126C778.126 296.952 778.126 297.036 778.126 297.07V297.221C778.126 297.507 778.244 297.725 778.462 297.893C778.697 298.061 779.017 298.179 779.437 298.263C779.857 298.347 780.361 298.381 780.932 298.381C781.184 298.381 781.42 298.381 781.672 298.347C781.924 298.313 782.159 298.297 782.394 298.263C782.63 298.229 782.831 298.162 783.016 298.095C783.201 298.028 783.335 297.927 783.453 297.809C783.554 297.692 783.621 297.557 783.621 297.406C783.621 297.187 783.52 297.019 783.302 296.885C783.083 296.75 782.798 296.65 782.445 296.566C782.092 296.482 781.689 296.414 781.235 296.347C780.781 296.28 780.311 296.213 779.84 296.146C779.353 296.062 778.899 295.961 778.445 295.826C777.992 295.692 777.588 295.524 777.235 295.305C776.882 295.087 776.597 294.818 776.378 294.482C776.16 294.146 776.059 293.726 776.059 293.238C776.059 292.785 776.177 292.381 776.395 292.045C776.614 291.709 776.95 291.407 777.37 291.171C777.79 290.936 778.311 290.768 778.916 290.65C779.521 290.533 780.193 290.482 780.949 290.482C781.705 290.482 782.394 290.55 782.983 290.667C783.571 290.785 784.075 290.97 784.478 291.205C784.881 291.44 785.184 291.726 785.386 292.062C785.587 292.398 785.688 292.785 785.688 293.222V293.423H783.403V293.272C783.403 293.07 783.302 292.902 783.117 292.751C782.915 292.6 782.646 292.482 782.293 292.381C781.941 292.281 781.537 292.247 781.067 292.247C780.462 292.247 779.958 292.281 779.588 292.365C779.201 292.449 778.933 292.549 778.748 292.684C778.563 292.818 778.479 292.953 778.479 293.121C778.479 293.322 778.58 293.474 778.798 293.591C779.017 293.709 779.302 293.81 779.655 293.877C780.008 293.944 780.411 294.011 780.865 294.079C781.319 294.129 781.773 294.213 782.26 294.297C782.747 294.381 783.201 294.482 783.655 294.6C784.108 294.717 784.512 294.885 784.865 295.104C785.218 295.322 785.503 295.591 785.722 295.91C785.94 296.23 786.041 296.633 786.041 297.12C786.041 297.86 785.822 298.448 785.402 298.901C784.982 299.355 784.394 299.674 783.638 299.876C782.882 300.078 782.025 300.179 781.05 300.179Z" fill="black"/>
<path d="M793.384 300.179C792.107 300.179 791.032 299.994 790.175 299.624C789.318 299.254 788.662 298.717 788.225 297.994C787.789 297.271 787.57 296.381 787.57 295.322C787.57 293.776 788.057 292.583 789.049 291.743C790.04 290.903 791.469 290.482 793.351 290.482C794.41 290.482 795.351 290.634 796.157 290.953C796.964 291.255 797.602 291.709 798.056 292.281C798.51 292.852 798.745 293.541 798.745 294.331H796.443C796.443 293.911 796.308 293.558 796.056 293.255C795.804 292.953 795.435 292.734 794.964 292.583C794.494 292.432 793.956 292.348 793.317 292.348C792.628 292.348 792.04 292.465 791.536 292.684C791.032 292.919 790.662 293.238 790.393 293.658C790.124 294.079 790.007 294.583 790.007 295.154V295.49C790.007 296.078 790.141 296.566 790.393 297.003C790.662 297.423 791.032 297.742 791.536 297.977C792.04 298.212 792.628 298.313 793.317 298.313C794.006 298.313 794.544 298.246 795.014 298.095C795.485 297.944 795.855 297.725 796.107 297.439C796.359 297.154 796.493 296.801 796.493 296.381H798.745C798.745 297.154 798.527 297.826 798.073 298.397C797.619 298.969 796.997 299.406 796.208 299.725C795.401 300.027 794.46 300.195 793.368 300.195L793.384 300.179Z" fill="black"/>
<path d="M800.846 300.01V290.65H808.408C809.08 290.65 809.634 290.785 810.071 291.054C810.508 291.323 810.827 291.692 811.046 292.129C811.264 292.566 811.365 293.07 811.365 293.608C811.365 294.146 811.214 294.7 810.928 295.188C810.643 295.675 810.206 296.061 809.634 296.347L811.584 300.01H808.945L807.299 296.767H803.215V300.01H800.862H800.846ZM803.215 294.919H807.719C808.105 294.919 808.408 294.801 808.626 294.566C808.845 294.331 808.962 294.045 808.962 293.675C808.962 293.423 808.912 293.205 808.811 293.037C808.71 292.869 808.576 292.734 808.391 292.633C808.206 292.532 807.988 292.499 807.719 292.499H803.215V294.919Z" fill="black"/>
<path d="M817.146 297.221V295.322H821.448V297.221H817.146Z" fill="black"/>
<path d="M830.926 300.179C830.069 300.179 829.329 300.061 828.724 299.826C828.119 299.59 827.649 299.204 827.329 298.7C827.01 298.196 826.842 297.54 826.842 296.75V296.566H829.111V296.818C829.111 297.322 829.262 297.691 829.564 297.944C829.867 298.196 830.287 298.313 830.842 298.313C831.447 298.313 831.917 298.162 832.236 297.859C832.556 297.557 832.724 297.07 832.724 296.414V290.65H835.06V296.313C835.06 297.204 834.892 297.927 834.555 298.515C834.219 299.103 833.749 299.506 833.127 299.775C832.505 300.044 831.766 300.179 830.909 300.179H830.926Z" fill="black"/>
<path d="M842.773 300.179C841.496 300.179 840.42 299.994 839.563 299.624C838.706 299.254 838.051 298.717 837.614 297.994C837.177 297.271 836.958 296.381 836.958 295.322C836.958 293.776 837.446 292.583 838.437 291.743C839.429 290.903 840.857 290.482 842.739 290.482C843.798 290.482 844.739 290.634 845.546 290.953C846.352 291.255 846.991 291.709 847.444 292.281C847.898 292.852 848.133 293.541 848.133 294.331H845.831C845.831 293.911 845.697 293.558 845.445 293.255C845.193 292.953 844.823 292.734 844.352 292.583C843.882 292.432 843.344 292.348 842.706 292.348C842.017 292.348 841.428 292.465 840.924 292.684C840.42 292.919 840.051 293.238 839.782 293.658C839.513 294.079 839.395 294.583 839.395 295.154V295.49C839.395 296.078 839.53 296.566 839.782 297.003C840.051 297.423 840.42 297.742 840.924 297.977C841.428 298.212 842.017 298.313 842.706 298.313C843.395 298.313 843.932 298.246 844.403 298.095C844.873 297.944 845.243 297.725 845.495 297.439C845.747 297.154 845.882 296.801 845.882 296.381H848.133C848.133 297.154 847.915 297.826 847.461 298.397C847.008 298.969 846.386 299.406 845.596 299.725C844.789 300.027 843.848 300.195 842.756 300.195L842.773 300.179Z" fill="black"/>
<path d="M850.234 300.01V290.65H857.796C858.468 290.65 859.023 290.785 859.46 291.054C859.897 291.323 860.216 291.692 860.434 292.129C860.653 292.566 860.754 293.07 860.754 293.608C860.754 294.146 860.602 294.7 860.317 295.188C860.031 295.675 859.594 296.061 859.023 296.347L860.972 300.01H858.334L856.687 296.767H852.603V300.01H850.251H850.234ZM852.603 294.919H857.107C857.494 294.919 857.796 294.801 858.014 294.566C858.233 294.331 858.351 294.045 858.351 293.675C858.351 293.423 858.3 293.205 858.199 293.037C858.099 292.869 857.964 292.734 857.779 292.633C857.594 292.532 857.376 292.499 857.107 292.499H852.603V294.919Z" fill="black"/>
<path d="M29.3016 299.893H23.1511V306.043H29.3016V299.893Z" fill="black"/>
<path d="M39.9388 299.893H33.7883V306.043H39.9388V299.893Z" fill="black"/>
<path d="M50.5928 299.893H44.4424V306.043H50.5928V299.893Z" fill="black"/>
<path d="M61.23 299.893H55.0796V306.043H61.23V299.893Z" fill="black"/>
<path d="M410.007 362.792V368.942H416.158V362.792H410.007Z" fill="black"/>
<path d="M409.99 352.138V358.288H416.141V352.138H409.99Z" fill="black"/>
<path d="M409.99 299.893V306.043H416.141V299.893H409.99Z" fill="black"/>
</svg>
