<svg width="1021" height="420" viewBox="0 0 1021 420" fill="none" xmlns="http://www.w3.org/2000/svg">
<mask id="mask0_1050_5231" style="mask-type:luminance" maskUnits="userSpaceOnUse" x="0" y="0" width="1021" height="420">
<path d="M15.9259 0V15.5708H0V404.147H15.9259V419.718H502.321V404.147H518.247V419.718H1004.64V404.147H1020.57V15.5708H1004.64V0H518.247V15.5708H512.158V20.1427H508.411V15.5708H502.321V0H15.9259ZM512.177 399.575V404.147H508.429V399.575H512.177ZM512.177 381.062V390.319H508.429V381.062H512.177ZM512.177 362.55V371.806H508.429V362.55H512.177ZM512.177 344.056V353.312H508.429V344.056H512.177ZM512.177 325.543V334.8H508.429V325.543H512.177ZM512.177 307.031V316.287H508.429V307.031H512.177ZM512.177 288.518V297.775H508.429V288.518H512.177ZM512.177 270.025V279.281H508.429V270.025H512.177ZM512.177 251.512V260.768H508.429V251.512H512.177ZM512.177 232.999V242.256H508.429V232.999H512.177ZM512.177 214.487V223.743H508.429V214.487H512.177ZM512.177 195.993V205.249H508.429V195.993H512.177ZM512.177 177.481V186.737H508.429V177.481H512.177ZM512.177 158.968V168.224H508.429V158.968H512.177ZM512.177 140.456V149.712H508.429V140.456H512.177ZM512.177 121.943V131.199H508.429V121.943H512.177ZM512.177 103.449V112.705H508.429V103.449H512.177ZM512.177 84.9366V94.1929H508.429V84.9366H512.177ZM512.177 66.4241V75.6803H508.429V66.4241H512.177ZM512.177 47.9115V57.1678H508.429V47.9115H512.177ZM512.177 29.4177V38.674H508.429V29.4177H512.177Z" fill="white"/>
</mask>
<g mask="url(#mask0_1050_5231)">
<path d="M0 6.46438V404.091H15.9259V420.017H502.321V404.091H518.266V420.017H1004.66V404.091H1020.61V6.46438H1004.66V-9.4624H518.266V6.46438H502.321V-9.4624H15.9259V6.46438H0Z" fill="#F2F2F2"/>
<path d="M0 348.853H291.781C292.605 348.853 292.999 348.853 293.486 348.815L294.91 348.778C298.714 348.628 302.498 348.047 306.171 347.092C313.534 345.162 320.485 341.658 326.406 336.898C327.155 336.318 327.849 335.662 328.579 335.062L330.659 333.095L336.805 326.949L349.114 314.638L373.753 289.999L472.287 191.459L521.564 142.179L527.953 135.827C530.744 133.11 533.667 130.506 536.74 128.089C542.867 123.255 549.5 119.057 556.507 115.61C570.503 108.677 585.998 104.798 601.605 104.311L741.922 104.217H1020.62V118.72H741.922L602.092 118.795C588.527 119.226 575.075 122.599 562.915 128.614C556.825 131.611 551.055 135.247 545.733 139.462C543.054 141.561 540.525 143.81 538.108 146.189L531.831 152.429L482.555 201.708L384.02 300.248L359.382 324.888L347.072 337.198L340.927 343.344L338.285 345.836C337.367 346.604 336.467 347.429 335.53 348.178C328.017 354.23 319.192 358.671 309.843 361.126C305.178 362.362 300.381 363.074 295.547 363.281L293.73 363.318C293.13 363.318 292.568 363.356 291.781 363.356H0V348.853Z" fill="#EE4250"/>
<path d="M0 369.951H278.703H287.416H291.762C293.224 369.951 294.442 369.895 295.809 369.876C301.093 369.67 306.358 368.864 311.492 367.515C321.741 364.836 331.39 359.964 339.652 353.331C340.683 352.507 341.657 351.607 342.688 350.764L345.573 348.047L351.737 341.901L364.047 329.591L388.686 304.951L487.22 206.411L536.497 157.132L542.717 150.93C544.984 148.737 547.345 146.62 549.837 144.671C554.802 140.755 560.161 137.364 565.838 134.572C577.154 128.969 589.708 125.822 602.336 125.428L741.941 125.353H1020.64V139.856H741.941L602.823 139.912C592.237 140.249 581.726 142.873 572.245 147.576C567.505 149.918 562.99 152.766 558.849 156.045C556.769 157.675 554.783 159.436 552.891 161.291L546.764 167.381L497.487 216.66L398.953 315.2L374.315 339.84L362.005 352.151L355.841 358.315C354.698 359.402 353.574 360.507 352.393 361.576C351.194 362.606 350.014 363.655 348.777 364.648C338.94 372.574 327.399 378.383 315.183 381.587C309.075 383.198 302.779 384.135 296.465 384.398C294.91 384.435 293.243 384.491 291.8 384.491H0V369.989V369.951Z" fill="#FBB03A"/>
<path d="M0 391.049H291.781L294.198 391.012L296.746 390.956C303.529 390.675 310.274 389.663 316.832 387.939C329.966 384.51 342.332 378.271 352.899 369.764C354.229 368.715 355.485 367.572 356.778 366.466C358.033 365.323 359.251 364.143 360.469 362.981L366.633 356.816L378.943 344.506L403.581 319.866L502.115 221.326L551.392 172.047L557.462 165.995C559.205 164.308 561.004 162.697 562.896 161.217C566.681 158.219 570.784 155.633 575.112 153.497C583.768 149.206 593.343 146.808 603.011 146.508L741.903 146.452H1020.61V160.954H741.903L603.498 161.011C595.891 161.235 588.34 163.128 581.52 166.519C578.11 168.206 574.869 170.248 571.89 172.609C570.391 173.771 568.967 175.045 567.599 176.375L561.641 182.315L512.364 231.594L413.83 330.134L389.191 354.774L376.882 367.084L370.699 373.249C369.293 374.598 367.888 375.966 366.445 377.277C364.965 378.552 363.504 379.863 361.986 381.062C349.826 390.862 335.568 398.039 320.466 401.992C312.916 403.978 305.14 405.14 297.346 405.477L294.423 405.552L291.762 405.59H0V391.087V391.049Z" fill="#0060E6"/>
<path d="M795.733 371H793.315V417.263H795.733V371Z" fill="black"/>
<path d="M798.168 371H796.95V417.263H798.168V371Z" fill="black"/>
<path d="M801.803 371H800.585V417.263H801.803V371Z" fill="black"/>
<path d="M807.874 371H806.656V417.263H807.874V371Z" fill="black"/>
<path d="M815.125 380.013H812.708V417.263H815.125V380.013Z" fill="black"/>
<path d="M817.579 380.013H816.361V417.263H817.579V380.013Z" fill="black"/>
<path d="M821.214 380.013H819.996V417.263H821.214V380.013Z" fill="black"/>
<path d="M827.266 380.013H826.048V417.263H827.266V380.013Z" fill="black"/>
<path d="M830.901 380.013H828.484V417.263H830.901V380.013Z" fill="black"/>
<path d="M834.554 380.013H833.336V417.263H834.554V380.013Z" fill="black"/>
<path d="M839.388 380.013H836.971V417.263H839.388V380.013Z" fill="black"/>
<path d="M844.241 380.013H840.606V417.263H844.241V380.013Z" fill="black"/>
<path d="M847.894 380.013H846.677V417.263H847.894V380.013Z" fill="black"/>
<path d="M852.728 380.013H850.312V417.263H852.728V380.013Z" fill="black"/>
<path d="M858.799 380.013H857.581V417.263H858.799V380.013Z" fill="black"/>
<path d="M861.235 380.013H860.017V417.263H861.235V380.013Z" fill="black"/>
<path d="M864.87 380.013H863.652V417.263H864.87V380.013Z" fill="black"/>
<path d="M868.486 380.013H866.069V417.263H868.486V380.013Z" fill="black"/>
<path d="M874.575 380.013H873.357V417.263H874.575V380.013Z" fill="black"/>
<path d="M880.627 380.013H879.409V417.263H880.627V380.013Z" fill="black"/>
<path d="M884.262 380.013H881.845V417.263H884.262V380.013Z" fill="black"/>
<path d="M889.114 380.013H886.697V417.263H889.114V380.013Z" fill="black"/>
<path d="M895.185 380.013H893.967V417.263H895.185V380.013Z" fill="black"/>
<path d="M898.82 380.013H897.602V417.263H898.82V380.013Z" fill="black"/>
<path d="M901.256 380.013H900.038V417.263H901.256V380.013Z" fill="black"/>
<path d="M906.09 380.013H903.673V417.263H906.09V380.013Z" fill="black"/>
<path d="M910.942 380.013H907.307V417.263H910.942V380.013Z" fill="black"/>
<path d="M914.596 380.013H913.378V417.263H914.596V380.013Z" fill="black"/>
<path d="M919.43 380.013H915.795V417.263H919.43V380.013Z" fill="black"/>
<path d="M925.5 380.013H920.648V417.263H925.5V380.013Z" fill="black"/>
<path d="M929.135 380.013H926.718V417.263H929.135V380.013Z" fill="black"/>
<path d="M932.77 380.013H931.552V417.263H932.77V380.013Z" fill="black"/>
<path d="M938.841 380.013H935.206V417.263H938.841V380.013Z" fill="black"/>
<path d="M943.693 380.013H940.059V417.263H943.693V380.013Z" fill="black"/>
<path d="M947.328 380.013H946.11V417.263H947.328V380.013Z" fill="black"/>
<path d="M950.963 380.013H948.546V417.263H950.963V380.013Z" fill="black"/>
<path d="M954.617 380.013H953.399V417.263H954.617V380.013Z" fill="black"/>
<path d="M957.034 380.013H955.816V417.263H957.034V380.013Z" fill="black"/>
<path d="M964.303 380.013H961.886V417.263H964.303V380.013Z" fill="black"/>
<path d="M969.137 371H966.72V417.263H969.137V371Z" fill="black"/>
<path d="M976.426 371H972.791V417.263H976.426V371Z" fill="black"/>
<path d="M978.862 371H977.644V417.263H978.862V371Z" fill="black"/>
<path d="M982.478 371H980.061V417.263H982.478V371Z" fill="black"/>
<path d="M950.008 44.4451V84.4119H989.972V44.4451H950.008ZM984.988 60.6904V68.1853V79.4278H977.494V68.1853H962.505V79.4278H955.01V68.1853V60.6904V49.448H962.505V60.6904H977.494V49.448H984.988V60.6904Z" fill="black"/>
<path d="M842.48 44.4451V84.4119H882.444V44.4451H842.48ZM877.46 56.9429H866.219V71.9328H877.46V79.4278H866.219H858.724H847.482V71.9328H858.724V56.9429H847.482V49.448H858.724H866.219H877.46V56.9429Z" fill="black"/>
<path d="M936.218 84.4307H896.253V44.4639H936.218V84.4307ZM931.215 56.943V49.448H908.731H901.237V56.943V71.9329V79.4278H908.731H931.215V71.9329H908.731V56.943H931.215Z" fill="black"/>
<path d="M644.099 52.0712H635.855V60.3156H644.099V52.0712Z" fill="black"/>
<path d="M652.474 60.3157H644.23V68.5601H652.474V60.3157Z" fill="black"/>
<path d="M644.23 68.5601H635.986V76.8045H644.23V68.5601Z" fill="black"/>
<path d="M660.7 68.5601H652.456V76.8045H660.7V68.5601Z" fill="black"/>
<path d="M660.7 52.0712H652.456V60.3156H660.7V52.0712Z" fill="black"/>
<path d="M668.944 60.5031H660.7V68.7475H668.944V60.5031Z" fill="black"/>
<path d="M677.188 52.0712H668.944V60.3156H677.188V52.0712Z" fill="black"/>
<path d="M685.544 60.3157H677.3V68.5601H685.544V60.3157Z" fill="black"/>
<path d="M677.319 68.5601H669.075V76.8045H677.319V68.5601Z" fill="black"/>
<path d="M693.788 68.5601H685.544V76.8045H693.788V68.5601Z" fill="black"/>
<path d="M693.788 52.0712H685.544V60.3156H693.788V52.0712Z" fill="black"/>
<path d="M702.032 60.5031H693.788V68.7475H702.032V60.5031Z" fill="black"/>
<path d="M710.276 52.0712H702.032V60.3156H710.276V52.0712Z" fill="black"/>
<path d="M718.632 60.3157H710.388V68.5601H718.632V60.3157Z" fill="black"/>
<path d="M710.388 68.5601H702.144V76.8045H710.388V68.5601Z" fill="black"/>
<path d="M726.876 68.5601H718.632V76.8045H726.876V68.5601Z" fill="black"/>
<path d="M726.876 52.0712H718.632V60.3156H726.876V52.0712Z" fill="black"/>
<path d="M574.531 0H544.441V30.0923H574.531V0Z" fill="black"/>
<path d="M633.476 30.0923H1029.51" stroke="black" stroke-miterlimit="10"/>
<path d="M633.476 356.797H1029.51" stroke="black" stroke-miterlimit="10"/>
<path d="M0 30.0923H473.73" stroke="black" stroke-miterlimit="10"/>
<path d="M143.558 320.241L239.938 264.235C243.029 262.436 244.921 259.138 244.94 255.578L245.259 144.109C245.259 140.512 243.348 137.176 240.237 135.378L143.239 79.3716C140.129 77.5728 136.269 77.5728 133.159 79.3716L36.7794 135.378C33.6879 137.176 31.7955 140.474 31.7768 144.034L31.4583 255.503C31.4583 259.101 33.3694 262.436 36.4796 264.235L133.478 320.241C136.588 322.04 140.448 322.04 143.558 320.241Z" fill="#F2F2F2"/>
<path d="M143.558 320.241L239.938 264.235C243.029 262.436 244.921 259.138 244.94 255.578L245.259 144.109C245.259 140.512 243.348 137.176 240.237 135.378L143.239 79.3716C140.129 77.5728 136.269 77.5728 133.159 79.3716L36.7794 135.378C33.6879 137.176 31.7955 140.474 31.7768 144.034L31.4583 255.503C31.4583 259.101 33.3694 262.436 36.4796 264.235L133.478 320.241C136.588 322.04 140.448 322.04 143.558 320.241Z" stroke="black" stroke-width="1.15" stroke-miterlimit="10"/>
<path d="M147.005 308.417L169.339 295.451L169.433 256.684L214.081 230.732L213.969 269.5L236.284 256.534L236.584 153.159L214.269 166.144L214.156 204.893L169.508 230.845L169.62 192.077L147.305 205.043L147.005 308.417Z" fill="#FAA701"/>
<path d="M130.274 205.062L40.4142 153.159L40.3393 179.017L74.046 198.466L73.8961 250.144L40.1894 230.695L40.1144 256.534L129.993 308.417L130.049 282.579L96.3609 263.11L96.5108 211.433L130.199 230.901L130.274 205.062Z" fill="#EE4250"/>
<path d="M147.642 139.2L151.877 136.764L164.468 144.09L168.664 146.526L158.097 152.616L145.488 145.308L143.389 146.526L155.98 153.853L151.746 156.289L134.958 146.526L145.525 140.418L158.135 147.744L160.233 146.526L147.642 139.2Z" fill="black"/>
<path d="M163.699 155.876L174.267 149.787L191.054 159.53L186.839 161.985L174.229 154.658L172.131 155.876L184.722 163.203L174.154 169.311L157.366 159.549L161.601 157.094L174.192 164.421L176.309 163.203L163.699 155.876Z" fill="black"/>
<path d="M48.3209 138.469L70.8045 125.484L115.753 99.533L138.237 86.548L160.57 99.533L227.553 138.469L205.088 151.436L138.087 112.518L93.1383 138.469L160.139 177.406L137.656 190.372L70.6547 151.454L48.3209 138.469Z" fill="#0060E6"/>
<path d="M278.759 114.879V97.0784H285.148V114.879H278.759Z" fill="black"/>
<path d="M299.669 115.179C297.102 115.179 294.966 114.823 293.28 114.13C291.594 113.436 290.32 112.406 289.495 111.038C288.652 109.67 288.24 107.984 288.24 105.96C288.24 103.018 289.214 100.732 291.163 99.1396C293.111 97.5469 295.959 96.7412 299.725 96.7412C301.805 96.7412 303.622 97.0597 305.178 97.7156C306.751 98.3714 307.969 99.252 308.869 100.414C309.749 101.557 310.199 102.887 310.199 104.386H303.978C303.978 103.768 303.791 103.206 303.435 102.737C303.079 102.25 302.554 101.875 301.917 101.594C301.262 101.313 300.493 101.182 299.613 101.182C298.507 101.182 297.589 101.388 296.877 101.782C296.165 102.175 295.641 102.718 295.303 103.393C294.966 104.068 294.798 104.817 294.798 105.641V106.297C294.798 107.084 294.966 107.834 295.303 108.508C295.641 109.183 296.147 109.745 296.84 110.157C297.533 110.569 298.414 110.776 299.482 110.776C300.456 110.776 301.299 110.644 302.011 110.382C302.723 110.12 303.248 109.764 303.622 109.295C303.997 108.827 304.185 108.283 304.185 107.665H310.218C310.218 109.108 309.805 110.401 308.962 111.544C308.119 112.687 306.92 113.567 305.346 114.223C303.772 114.879 301.88 115.198 299.669 115.198V115.179Z" fill="black"/>
<path d="M320.785 114.879V97.0784H327.174V103.393H336.673V97.0784H343.062V114.879H336.673V108.283H327.174V114.879H320.785Z" fill="black"/>
<path d="M345.18 114.879L353.798 97.0784H360.843L369.462 114.879H362.604L361.536 112.518H352.805L351.775 114.879H345.18ZM354.754 108.096H359.588L358.351 105.098C358.295 104.967 358.239 104.779 358.145 104.536C358.051 104.311 357.958 104.049 357.864 103.749C357.752 103.449 357.658 103.168 357.564 102.868C357.471 102.568 357.377 102.306 357.283 102.063H357.096C356.983 102.362 356.871 102.7 356.74 103.074C356.609 103.449 356.459 103.824 356.346 104.18C356.234 104.536 356.103 104.836 355.99 105.079L354.754 108.077V108.096Z" fill="black"/>
<path d="M381.247 115.179C378.68 115.179 376.544 114.823 374.858 114.13C373.172 113.436 371.898 112.406 371.073 111.038C370.23 109.67 369.818 107.984 369.818 105.96C369.818 103.018 370.792 100.732 372.741 99.1396C374.689 97.5469 377.537 96.7412 381.303 96.7412C383.383 96.7412 385.2 97.0597 386.756 97.7156C388.329 98.3714 389.547 99.252 390.447 100.414C391.327 101.557 391.777 102.887 391.777 104.386H385.556C385.556 103.768 385.369 103.206 385.013 102.737C384.657 102.25 384.132 101.875 383.495 101.594C382.84 101.313 382.072 101.182 381.191 101.182C380.085 101.182 379.167 101.388 378.455 101.782C377.743 102.175 377.219 102.718 376.882 103.393C376.544 104.068 376.376 104.817 376.376 105.641V106.297C376.376 107.084 376.544 107.834 376.882 108.508C377.219 109.183 377.725 109.745 378.418 110.157C379.111 110.569 379.992 110.776 381.06 110.776C382.034 110.776 382.877 110.644 383.589 110.382C384.301 110.12 384.826 109.764 385.2 109.295C385.575 108.827 385.763 108.283 385.763 107.665H391.796C391.796 109.108 391.383 110.401 390.54 111.544C389.697 112.687 388.498 113.567 386.924 114.223C385.35 114.879 383.458 115.198 381.247 115.198V115.179Z" fill="black"/>
<path d="M394.85 114.879V97.0784H401.239V104.948L409.858 97.0784H417.783L409.914 104.348L417.989 114.879H410.195L405.192 108.171L401.239 111.375V114.86H394.85V114.879Z" fill="black"/>
<path d="M431.629 97.0597V99.3644C431.217 99.4019 430.805 99.533 430.393 99.7579C429.98 99.9827 429.624 100.32 429.362 100.732C429.081 101.163 428.95 101.669 428.95 102.269H431.648V107.14H425.727V102.812C425.727 101.5 426.008 100.432 426.552 99.608C427.095 98.7835 427.826 98.1652 428.744 97.753C429.662 97.3408 430.617 97.0972 431.648 97.0222L431.629 97.0597Z" fill="black"/>
<path d="M434.121 114.879V113.605C434.121 112.762 434.346 111.993 434.777 111.3C435.208 110.607 435.807 109.97 436.519 109.389C437.25 108.808 438.037 108.265 438.88 107.74C439.723 107.215 440.566 106.709 441.391 106.185C442.215 105.66 443.002 105.21 443.733 104.779C444.464 104.367 445.063 103.955 445.513 103.543C445.962 103.131 446.206 102.718 446.206 102.269C446.206 101.931 446.094 101.613 445.888 101.332C445.681 101.051 445.344 100.845 444.913 100.676C444.464 100.526 443.864 100.451 443.096 100.451C442.421 100.451 441.84 100.564 441.372 100.77C440.904 100.976 440.529 101.257 440.285 101.613C440.042 101.969 439.911 102.362 439.911 102.812V103.337H434.196C434.196 103.224 434.177 103.131 434.177 103.037V102.756C434.177 101.538 434.533 100.47 435.245 99.5705C435.957 98.6711 437.006 97.9778 438.43 97.4719C439.836 96.966 441.616 96.7224 443.733 96.7224C445.063 96.7224 446.243 96.8348 447.311 97.0597C448.361 97.2845 449.26 97.6218 450.009 98.0715C450.759 98.5212 451.34 99.0833 451.733 99.7579C452.127 100.432 452.333 101.201 452.333 102.081C452.333 102.906 452.108 103.674 451.64 104.367C451.171 105.061 450.553 105.698 449.803 106.278C449.035 106.859 448.23 107.384 447.349 107.852C446.468 108.321 445.606 108.771 444.763 109.164C444.52 109.276 444.257 109.389 443.958 109.52C443.658 109.651 443.377 109.801 443.096 109.914C442.815 110.045 442.59 110.157 442.403 110.27H452.576V114.841H434.159L434.121 114.879Z" fill="black"/>
<path d="M464.624 115.179C462.469 115.179 460.652 114.916 459.209 114.41C457.748 113.905 456.642 113.193 455.911 112.293C455.162 111.394 454.806 110.326 454.806 109.127H460.446C460.483 109.651 460.652 110.082 460.933 110.438C461.233 110.794 461.645 111.075 462.169 111.263C462.694 111.45 463.312 111.544 464.043 111.544C464.774 111.544 465.448 111.45 465.992 111.244C466.535 111.038 466.947 110.757 467.247 110.363C467.547 109.97 467.678 109.501 467.678 108.92C467.678 108.34 467.528 107.871 467.247 107.478C466.947 107.084 466.535 106.803 465.992 106.597C465.448 106.391 464.792 106.297 464.043 106.297C463.518 106.297 463.05 106.353 462.619 106.447C462.188 106.541 461.813 106.691 461.514 106.878C461.195 107.065 460.952 107.309 460.764 107.609L455.762 107.047L456.698 97.0784H472.1V101.557H461.158L460.877 104.199C461.158 104.03 461.551 103.843 462.057 103.674C462.563 103.487 463.162 103.337 463.837 103.205C464.511 103.074 465.242 103.018 466.029 103.018C467.622 103.018 468.989 103.243 470.151 103.711C471.313 104.18 472.193 104.854 472.83 105.754C473.467 106.653 473.767 107.759 473.767 109.07C473.767 110.251 473.392 111.3 472.662 112.218C471.912 113.136 470.863 113.867 469.495 114.41C468.128 114.954 466.516 115.216 464.661 115.216L464.624 115.179Z" fill="black"/>
<path fill-rule="evenodd" clip-rule="evenodd" d="M287.172 189.117C287.172 190.222 286.273 191.121 285.167 191.121H281.176C280.071 191.121 279.172 190.222 279.172 189.117C279.172 188.011 280.071 187.112 281.176 187.112H285.167C286.273 187.112 287.172 188.011 287.172 189.117Z" fill="black"/>
<path fill-rule="evenodd" clip-rule="evenodd" d="M287.172 177.125C287.172 178.23 286.273 179.13 285.167 179.13H281.176C280.071 179.13 279.172 178.23 279.172 177.125C279.172 176.019 280.071 175.12 281.176 175.12H285.167C286.273 175.12 287.172 176.019 287.172 177.125Z" fill="black"/>
<path fill-rule="evenodd" clip-rule="evenodd" d="M287.172 165.133C287.172 166.238 286.273 167.138 285.167 167.138H281.176C280.071 167.138 279.172 166.238 279.172 165.133C279.172 164.027 280.071 163.128 281.176 163.128H285.167C286.273 163.128 287.172 164.027 287.172 165.133Z" fill="black"/>
<path fill-rule="evenodd" clip-rule="evenodd" d="M351.138 189.117C351.138 190.222 350.238 191.121 349.133 191.121H345.142C344.037 191.121 343.137 190.222 343.137 189.117C343.137 188.011 344.037 187.112 345.142 187.112H349.133C350.238 187.112 351.138 188.011 351.138 189.117Z" fill="black"/>
<path fill-rule="evenodd" clip-rule="evenodd" d="M351.138 177.125C351.138 178.23 350.238 179.13 349.133 179.13H345.142C344.037 179.13 343.137 178.23 343.137 177.125C343.137 176.019 344.037 175.12 345.142 175.12H349.133C350.238 175.12 351.138 176.019 351.138 177.125Z" fill="black"/>
<path fill-rule="evenodd" clip-rule="evenodd" d="M351.138 165.133C351.138 166.238 350.238 167.138 349.133 167.138H345.142C344.037 167.138 343.137 166.238 343.137 165.133C343.137 164.027 344.037 163.128 345.142 163.128H349.133C350.238 163.128 351.138 164.027 351.138 165.133Z" fill="black"/>
<path fill-rule="evenodd" clip-rule="evenodd" d="M415.122 189.117C415.122 190.222 414.223 191.121 413.118 191.121H409.127C408.021 191.121 407.122 190.222 407.122 189.117C407.122 188.011 408.021 187.112 409.127 187.112H413.118C414.223 187.112 415.122 188.011 415.122 189.117Z" fill="black"/>
<path fill-rule="evenodd" clip-rule="evenodd" d="M415.122 177.125C415.122 178.23 414.223 179.13 413.118 179.13H409.127C408.021 179.13 407.122 178.23 407.122 177.125C407.122 176.019 408.021 175.12 409.127 175.12H413.118C414.223 175.12 415.122 176.019 415.122 177.125Z" fill="black"/>
<path fill-rule="evenodd" clip-rule="evenodd" d="M415.122 165.133C415.122 166.238 414.223 167.138 413.118 167.138H409.127C408.021 167.138 407.122 166.238 407.122 165.133C407.122 164.027 408.021 163.128 409.127 163.128H413.118C414.223 163.128 415.122 164.027 415.122 165.133Z" fill="black"/>
<path fill-rule="evenodd" clip-rule="evenodd" d="M303.154 165.133C303.154 166.238 302.255 167.138 301.149 167.138H297.158C296.053 167.138 295.154 166.238 295.154 165.133C295.154 164.027 296.053 163.128 297.158 163.128H301.149C302.255 163.128 303.154 164.027 303.154 165.133Z" fill="black"/>
<path fill-rule="evenodd" clip-rule="evenodd" d="M335.156 165.133C335.156 166.238 334.256 167.138 333.151 167.138H329.16C328.055 167.138 327.155 166.238 327.155 165.133C327.155 164.027 328.055 163.128 329.16 163.128H333.151C334.256 163.128 335.156 164.027 335.156 165.133Z" fill="black"/>
<path fill-rule="evenodd" clip-rule="evenodd" d="M367.139 189.117C367.139 190.222 366.239 191.121 365.134 191.121H361.143C360.038 191.121 359.138 190.222 359.138 189.117C359.138 188.011 360.038 187.112 361.143 187.112H365.134C366.239 187.112 367.139 188.011 367.139 189.117Z" fill="black"/>
<path fill-rule="evenodd" clip-rule="evenodd" d="M399.122 189.173C399.122 190.278 398.222 191.178 397.117 191.178H393.126C392.021 191.178 391.121 190.278 391.121 189.173C391.121 188.067 392.021 187.168 393.126 187.168H397.117C398.222 187.168 399.122 188.067 399.122 189.173Z" fill="black"/>
<path fill-rule="evenodd" clip-rule="evenodd" d="M317.956 165.133C317.956 166.688 316.7 167.925 315.164 167.925C313.628 167.925 312.372 166.669 312.372 165.133C312.372 163.596 313.628 162.341 315.164 162.341C316.7 162.341 317.956 163.596 317.956 165.133Z" fill="black"/>
<path fill-rule="evenodd" clip-rule="evenodd" d="M317.956 177.125C317.956 178.661 316.7 179.917 315.164 179.917C313.628 179.917 312.372 178.661 312.372 177.125C312.372 175.588 313.628 174.333 315.164 174.333C316.7 174.333 317.956 175.588 317.956 177.125Z" fill="black"/>
<path fill-rule="evenodd" clip-rule="evenodd" d="M381.94 189.117C381.94 190.653 380.685 191.908 379.149 191.908C377.612 191.908 376.357 190.653 376.357 189.117C376.357 187.58 377.612 186.325 379.149 186.325C380.685 186.325 381.94 187.58 381.94 189.117Z" fill="black"/>
<path fill-rule="evenodd" clip-rule="evenodd" d="M381.94 177.125C381.94 178.661 380.685 179.917 379.149 179.917C377.612 179.917 376.357 178.661 376.357 177.125C376.357 175.588 377.612 174.333 379.149 174.333C380.685 174.333 381.94 175.588 381.94 177.125Z" fill="black"/>
<path d="M295.866 209.559L294.517 206.992L293.149 209.559H295.847M294.479 205.624H294.573L297.833 211.601H296.934L296.147 210.121H292.83L292.043 211.601H291.182L294.442 205.624H294.479Z" fill="black"/>
<path d="M304.99 208.66C306.395 208.66 307.107 208.229 307.107 207.479C307.107 206.655 306.339 206.336 304.859 206.336H304.278V208.66H304.99ZM303.454 205.774H304.934C306.939 205.774 307.932 206.392 307.932 207.479C307.932 208.304 307.239 208.978 306.096 209.128L308.625 211.62H307.576L305.14 209.222H304.26V211.62H303.435V205.793L303.454 205.774Z" fill="black"/>
<path d="M316.101 211.152C317 211.152 317.562 210.721 317.562 210.121C317.562 209.522 317.056 209.222 316.176 208.885L315.689 208.697C314.658 208.304 314.134 207.742 314.134 207.048C314.134 206.205 314.939 205.568 316.157 205.568C316.794 205.568 317.375 205.737 317.825 205.961V206.711C317.225 206.336 316.682 206.168 316.12 206.168C315.37 206.168 314.902 206.524 314.902 207.03C314.902 207.535 315.333 207.854 316.213 208.172L316.7 208.36C317.806 208.772 318.349 209.39 318.349 210.121C318.349 211.077 317.45 211.789 316.101 211.789C315.483 211.789 314.808 211.639 314.096 211.339L314.021 210.515C314.789 210.908 315.426 211.133 316.063 211.133" fill="black"/>
<path d="M324.626 205.774H325.45V208.21H329.347V205.774H330.172V211.601H329.347V208.847H325.45V211.601H324.626V205.774Z" fill="black"/>
<path d="M340.421 209.559L339.072 206.992L337.704 209.559H340.402M339.034 205.624H339.128L342.388 211.601H341.489L340.702 210.121H337.385L336.598 211.601H335.737L338.997 205.624H339.034Z" fill="black"/>
<path d="M348.009 205.774H348.833V210.983H352.112V211.601H347.99V205.774H348.009Z" fill="black"/>
<path d="M357.883 205.774H358.707V210.983H362.005V211.601H357.883V205.774Z" fill="black"/>
<path d="M376.9 211.845L374.465 205.774H375.326L376.975 210.102L378.811 205.587H378.905L380.61 210.102L382.24 205.774H383.065L380.61 211.845H380.516L378.83 207.329L377.013 211.845H376.9Z" fill="black"/>
<path d="M391.908 209.559L390.559 206.992L389.191 209.559H391.889H391.908ZM390.522 205.624H390.615L393.875 211.601H392.976L392.189 210.121H388.873L388.086 211.601H387.224L390.484 205.624H390.522Z" fill="black"/>
<path d="M402.288 211.789C401.482 211.789 400.733 211.564 400.133 211.152C399.271 210.571 398.784 209.69 398.784 208.678C398.784 206.88 400.302 205.568 402.307 205.568C403.037 205.568 403.712 205.755 404.349 206.111L404.255 206.842C403.637 206.411 403.019 206.186 402.307 206.186C400.752 206.186 399.609 207.217 399.609 208.678C399.609 210.14 400.733 211.133 402.269 211.133C403.037 211.133 403.712 210.889 404.405 210.384L404.33 211.208C403.712 211.583 403 211.77 402.251 211.77" fill="black"/>
<path d="M410.513 205.774H414.354V206.355H411.319V208.266H413.942V208.866H411.319V210.983H414.392V211.601H410.513V205.774Z" fill="black"/>
<path d="M284.924 205.531L287.359 211.601H286.497L284.849 207.273L283.012 211.789H282.919L281.214 207.273L279.565 211.601H278.741L281.195 205.531H281.289L282.975 210.046L284.792 205.531H284.905H284.924Z" fill="black"/>
<path d="M473.73 328.485V724.538" stroke="black" stroke-miterlimit="10"/>
<path d="M428.837 52.0712H233.136V57.3738H428.837V52.0712Z" fill="#0060E6"/>
<path d="M301.824 52.0712H168.477V57.3738H301.824V52.0712Z" fill="#FAA701"/>
<path d="M173.611 52.0712H-222.494V57.3738H173.611V52.0712Z" fill="black"/>
<path d="M206.943 52.0712H129.712V57.3738H206.943V52.0712Z" fill="#D62D3B"/>
<path d="M473.73 52.0712H447.705V57.3738H473.73V52.0712Z" fill="black"/>
<path d="M653.28 403.004V405.159L653.299 407.276V407.313V409.431V411.586H651.163V413.74H653.336H655.491V411.567V409.412V407.295H657.646V405.14H659.8V407.295H661.955V409.412L661.974 411.567H659.819V413.74H661.974L664.128 413.722V411.567L664.11 409.412V407.257H666.264V405.121V405.084H668.419V402.966H670.536V400.812H672.691V398.657H674.846V396.502H677V394.347L676.982 392.192V390.038L676.963 387.883H674.808V390.056V392.211H672.653V394.366H670.499V396.521H668.382H668.344H666.227H664.072V396.483V394.366H661.899V392.211H659.725V390.056H657.552V387.902H655.379V385.747L655.36 383.592V381.437L655.341 379.282V377.128H653.168V374.973H650.994H648.84L646.685 374.991H644.53L642.376 375.01H640.221L638.066 375.029V377.184H635.911V379.339L635.93 381.493V383.648L635.949 385.803H638.104L640.258 385.784H642.413L644.568 385.765V387.92H642.413H640.258V390.094H642.413L644.568 390.075H646.722V392.23V394.385H644.568H642.413V396.558H644.568V398.713H646.722V396.539H648.877V398.694H651.032V400.849H653.186V403.004M648.858 383.592V381.437H651.013V383.592H648.858Z" fill="black"/>
<path d="M742.859 401.692H741.135V398.245H742.859V401.692ZM753.22 398.245H751.496V401.692H753.22V398.245ZM744.582 413.778V412.054H741.135V413.778H744.582ZM739.392 412.054H741.116V410.33H739.392V412.054ZM749.753 412.054V413.778H753.201V412.054H749.753ZM754.943 412.054V410.33H753.22V412.054H754.943ZM754.943 405.159V408.606H753.22V410.33H741.135V408.606H739.411V405.159H741.135V403.435H742.859V401.711H751.496V403.435H753.22V405.159H754.943ZM751.477 405.159H748.03V406.883H751.477V405.159ZM742.859 405.159V406.883H746.306V405.159H742.859Z" fill="black"/>
<path d="M753.407 382.055L753.182 381.306L752.433 381.512L752.208 380.763L751.459 380.987L751.234 380.238L750.484 380.463L750.259 379.713L749.51 379.938L749.285 379.17L748.517 379.395L748.311 378.645L747.543 378.87L747.318 378.102L746.568 378.327L746.344 377.577L745.594 377.802L745.369 377.053L744.601 377.277L744.376 376.509L743.627 376.734L743.402 375.985L742.652 376.209L742.428 375.46L741.678 375.685L741.453 374.917L740.704 375.141L739.936 375.366L740.16 376.116L740.385 376.884L740.61 377.633L740.835 378.383L741.06 379.151L741.285 379.901L741.51 380.65L741.734 381.4L741.959 382.168L742.184 382.917L742.409 383.667L742.615 384.416L742.84 385.185L743.065 385.934L743.29 386.684L743.514 387.452L743.739 388.201L743.964 388.951L744.189 389.7L744.414 390.469L745.163 390.244L745.913 390.019L745.688 389.269L746.456 389.044L746.231 388.295L746.981 388.07L746.756 387.302L747.505 387.077L748.273 386.852L748.498 387.62L748.723 388.37L749.472 388.145L749.697 388.895L750.447 388.689L750.672 389.438L751.421 389.213L752.189 388.988L752.939 388.763L752.714 388.014L752.489 387.246L752.264 386.496L752.039 385.747L751.29 385.972L751.065 385.222L750.84 384.454L750.091 384.679L749.866 383.929L750.615 383.704L751.384 383.48L752.133 383.255L752.883 383.03L753.632 382.805L754.4 382.58L754.175 381.831L753.407 382.055Z" fill="black"/>
<path d="M595.947 413.778V374.917H588.078V413.778H595.947Z" fill="#0060E6"/>
<path d="M580.433 413.778V374.917H572.564V413.778H580.433Z" fill="#D62D3B"/>
<path d="M611.442 413.778V374.917H603.573V413.778H611.442Z" fill="#FAA701"/>
<path d="M552.76 381.868H544.441V390.187H552.76V381.868Z" fill="black"/>
<path d="M561.079 390.188H552.76V398.507H561.079V390.188Z" fill="black"/>
<path d="M552.76 398.507H544.441V406.826H552.76V398.507Z" fill="black"/>
<path d="M698.791 377.427H697.535V382.449H698.791V377.427Z" fill="black"/>
<path d="M707.559 377.427H706.304V384.941H707.559V377.427Z" fill="black"/>
<path d="M706.304 384.96H705.049V391.237H706.304V384.96Z" fill="black"/>
<path d="M705.049 374.917H700.027V376.172H705.049V374.917Z" fill="black"/>
<path d="M706.304 376.172H705.049V377.427H706.304V376.172Z" fill="black"/>
<path d="M700.046 376.172H698.791V377.427H700.046V376.172Z" fill="black"/>
<path d="M700.046 386.196H698.791V387.452H700.046V386.196Z" fill="black"/>
<path d="M697.535 382.449H696.28V383.704H697.535V382.449Z" fill="black"/>
<path d="M698.791 384.96H696.28V386.215H698.791V384.96Z" fill="black"/>
<path d="M696.28 383.704H695.025V384.96H696.28V383.704Z" fill="black"/>
<path d="M701.283 387.452H700.027V391.218H701.283V387.452Z" fill="black"/>
<path d="M700.046 391.218H698.791V392.473H700.046V391.218Z" fill="black"/>
<path d="M698.791 392.473H697.535V393.729H698.791V392.473Z" fill="black"/>
<path d="M696.28 394.984V396.24H697.535V394.984V393.729H696.28V394.984Z" fill="black"/>
<path d="M696.28 396.24H695.025V402.517H696.28V396.24Z" fill="black"/>
<path d="M697.535 402.498H696.28V405.009H697.535V402.498Z" fill="black"/>
<path d="M698.791 405.009H697.535V406.264H698.791V405.009Z" fill="black"/>
<path d="M708.815 391.218H706.304V392.473H708.815V391.218Z" fill="black"/>
<path d="M711.325 392.473H708.815V393.729H711.325V392.473Z" fill="black"/>
<path d="M713.836 393.729H711.325V394.984H713.836V393.729Z" fill="black"/>
<path d="M717.583 394.984H713.817V396.24H717.583V394.984Z" fill="black"/>
<path d="M701.301 406.264H698.791V407.52H701.301V406.264Z" fill="black"/>
<path d="M720.094 396.24H718.839V397.495H720.094V396.24Z" fill="black"/>
<path d="M720.094 393.729H717.583V394.984H720.094V393.729Z" fill="black"/>
<path d="M721.349 394.984H720.094V396.24H721.349V394.984Z" fill="black"/>
<path d="M717.583 398.75H716.328V399.987H718.839V401.243H720.094V398.75H718.839V397.495H717.583V398.75Z" fill="black"/>
<path d="M717.583 402.498H716.328V403.753H717.583V402.498Z" fill="black"/>
<path d="M718.839 401.243H717.583V402.498H718.839V401.243Z" fill="black"/>
<path d="M715.091 405.009H711.325V406.264H715.091V405.009Z" fill="black"/>
<path d="M716.328 403.753H715.073V405.009H716.328V403.753Z" fill="black"/>
<path d="M716.328 397.495H713.817V398.75H716.328V397.495Z" fill="black"/>
<path d="M701.283 412.522H702.538V408.775H703.793V413.778H705.049V408.775H707.559V412.522H708.815V408.775V407.52H701.283V408.775V412.522Z" fill="black"/>
<path d="M711.325 406.264H710.07V413.778H711.325V406.264Z" fill="black"/>
<path d="M701.283 412.522H700.027V413.778H701.283V412.522Z" fill="black"/>
<path d="M707.559 412.522H706.304V413.778H707.559V412.522Z" fill="black"/>
<path d="M717.583 394.984V396.24H713.817V394.984H711.307V393.729H708.796V392.473H706.285V391.218H705.03V384.941H706.285V377.427H705.03V376.172H700.009V377.427H698.753V381.194H701.264V382.449H702.519V384.96H698.753V386.215H700.009V387.471H701.264V391.237H700.009V392.492H698.753V393.748H697.498V396.258H696.243V402.535H697.498V405.046H698.753V406.302H701.264V407.557H710.033V406.302H711.288V405.046H715.054V403.791H716.309V402.535H717.565V401.28H718.82V400.025H716.309V398.769H713.799V397.514H716.309V398.769H717.565V397.514H718.82V396.258H720.075V395.003H717.565L717.583 394.984ZM703.793 381.194V379.938H705.049V382.449H703.793V381.194Z" fill="black"/>
<path d="M291.95 133.954V142.198H282.057V147.145H278.759V133.954H291.95ZM288.652 137.251H282.057V138.9H288.652V137.251Z" fill="#231F20"/>
<path d="M309.543 133.954V147.145H296.353V133.954H309.543ZM306.246 137.251H299.65V143.847H306.246V137.251Z" fill="#231F20"/>
<path d="M323.839 133.954H327.137V147.145H321.366V143.847H319.717V147.145H313.946V133.954H317.244V143.847H318.893V140.549H322.19V143.847H323.839V133.954Z" fill="#231F20"/>
<path d="M334.837 137.251V138.9H341.432V142.198H334.837V143.847H344.73V147.145H331.54V133.954H344.73V137.251H334.837Z" fill="#231F20"/>
<path d="M362.342 133.954V138.9H360.675V142.198H362.342V147.145H359.045V142.198H352.449V147.145H349.152V133.954H362.342ZM359.045 137.251H352.449V138.9H359.045V137.251Z" fill="#231F20"/>
<path d="M370.043 137.251V138.9H376.638V142.198H370.043V143.847H379.936V147.145H366.745V133.954H379.936V137.251H370.043Z" fill="#231F20"/>
<path d="M397.529 135.602V145.496H394.231V147.145H384.339V133.954H394.231V135.602H397.529ZM394.231 137.251H387.636V143.847H394.231V137.251Z" fill="#231F20"/>
<path d="M432.735 135.602V145.496H429.437V147.145H419.544V133.954H429.437V135.602H432.735ZM429.437 137.251H422.842V138.9H429.437V137.251ZM429.437 142.198H422.842V143.847H429.437V142.198Z" fill="#231F20"/>
<path d="M450.328 133.954V138.9H448.679V142.198H445.382V147.145H442.084V142.198H438.786V138.9H437.138V133.954H440.435V138.9H447.03V133.954H450.328Z" fill="#231F20"/>
</g>
<path d="M639.359 198.879V201.371H651.163V206.374H639.359V213.869H633.457V193.857H657.046V198.86H639.34L639.359 198.879Z" fill="black"/>
<path d="M670.836 198.879V201.371H682.64V206.374H670.836V208.866H688.542V213.869H664.953V193.857H688.542V198.86H670.836V198.879Z" fill="black"/>
<path d="M719.982 196.387V211.376H714.08V213.887H696.374V193.876H714.08V196.387H719.982ZM714.08 198.879H702.276V201.371H714.08V198.879ZM714.08 206.392H702.276V208.884H714.08V206.392Z" fill="black"/>
<path d="M657.065 240.888V245.891H633.476V240.888H642.319V230.882H633.476V225.879H648.221V240.888H657.065Z" fill="black"/>
<path d="M664.934 233.393H688.523V238.396H664.934V233.393Z" fill="black"/>
<path d="M719.982 225.879V238.377H702.276V240.869H719.982V245.872H696.392V233.374H714.098V230.882H696.392V225.879H719.982Z" fill="black"/>
<path d="M748.236 203.17V194.044H750.541V203.17H748.236Z" fill="black"/>
<path d="M752.976 203.17V194.044H756.555L758.429 198.448C758.503 198.598 758.578 198.804 758.672 199.047C758.766 199.291 758.86 199.553 758.972 199.834C759.084 200.115 759.159 200.359 759.253 200.565H759.347C759.422 200.378 759.496 200.153 759.59 199.891C759.684 199.628 759.778 199.385 759.89 199.122C759.984 198.86 760.077 198.654 760.152 198.466L762.045 194.063H765.53V203.188H763.244V197.961C763.244 197.792 763.244 197.605 763.244 197.398C763.244 197.192 763.244 197.005 763.263 196.799C763.263 196.611 763.263 196.424 763.263 196.274H763.15C763.113 196.424 763.038 196.611 762.963 196.799C762.888 196.986 762.813 197.211 762.738 197.417C762.663 197.623 762.607 197.792 762.532 197.942L760.265 203.17H758.091L755.824 197.942C755.731 197.736 755.656 197.53 755.562 197.323C755.487 197.117 755.412 196.911 755.356 196.724C755.3 196.537 755.243 196.387 755.206 196.255H755.093C755.093 196.368 755.094 196.518 755.112 196.705C755.112 196.893 755.112 197.099 755.112 197.305C755.112 197.511 755.112 197.717 755.112 197.923V203.151H752.92L752.976 203.17Z" fill="black"/>
<path d="M767.947 203.17V194.044H774.785C775.385 194.044 775.891 194.176 776.34 194.438C776.79 194.7 777.127 195.056 777.371 195.506C777.615 195.956 777.746 196.48 777.746 197.08C777.746 197.679 777.615 198.204 777.371 198.673C777.127 199.141 776.771 199.497 776.322 199.759C775.872 200.022 775.347 200.153 774.748 200.153H770.251V203.188H767.947V203.17ZM770.232 198.317H774.092C774.542 198.317 774.879 198.204 775.123 197.998C775.366 197.792 775.479 197.492 775.479 197.099C775.479 196.836 775.422 196.63 775.31 196.443C775.198 196.255 775.048 196.124 774.842 196.012C774.635 195.918 774.392 195.862 774.092 195.862H770.232V198.317Z" fill="black"/>
<path d="M779.338 203.17V194.044H788.688V195.843H781.624V197.642H787.863V199.422H781.624V201.352H788.781V203.17H779.32H779.338Z" fill="black"/>
<path d="M790.842 203.17V194.044H798.225C798.88 194.044 799.424 194.176 799.836 194.438C800.248 194.7 800.567 195.056 800.791 195.487C800.998 195.918 801.11 196.405 801.11 196.93C801.11 197.455 800.979 197.998 800.698 198.466C800.417 198.935 800.004 199.31 799.424 199.591L801.316 203.17H798.73L797.119 200.003H793.128V203.17H790.824H790.842ZM793.147 198.204H797.55C797.925 198.204 798.225 198.092 798.431 197.867C798.637 197.642 798.749 197.342 798.749 197.005C798.749 196.761 798.693 196.555 798.599 196.387C798.506 196.218 798.356 196.087 798.187 195.993C798.018 195.899 797.794 195.862 797.531 195.862H793.128V198.223L793.147 198.204Z" fill="black"/>
<path d="M803.133 203.17V194.044H805.438V203.17H803.133Z" fill="black"/>
<path d="M806.937 203.17L811.471 194.044H814.057L818.591 203.17H816.099L815.293 201.521H810.103L809.298 203.17H806.937ZM810.928 199.759H814.45L813.476 197.679C813.476 197.679 813.382 197.455 813.307 197.286C813.232 197.117 813.157 196.93 813.082 196.743C813.008 196.555 812.933 196.387 812.876 196.237C812.82 196.087 812.783 195.993 812.764 195.956H812.651C812.577 196.124 812.502 196.33 812.408 196.555C812.314 196.78 812.221 196.986 812.146 197.192C812.052 197.398 811.996 197.567 811.921 197.698L810.947 199.778L810.928 199.759Z" fill="black"/>
<path d="M820.071 203.17V194.044H822.376V201.24H828.203V203.188H820.09L820.071 203.17Z" fill="black"/>
<path d="M839.201 203.338C837.946 203.338 836.896 203.151 836.072 202.795C835.229 202.439 834.592 201.895 834.18 201.202C833.767 200.509 833.543 199.628 833.543 198.598C833.543 197.099 834.03 195.937 834.985 195.113C835.941 194.288 837.346 193.876 839.182 193.876C840.213 193.876 841.131 194.026 841.918 194.326C842.705 194.625 843.323 195.056 843.773 195.618C844.222 196.181 844.428 196.836 844.428 197.605H842.18C842.18 197.192 842.049 196.855 841.805 196.555C841.562 196.274 841.206 196.049 840.737 195.899C840.269 195.75 839.744 195.675 839.126 195.675C838.451 195.675 837.871 195.787 837.383 196.012C836.896 196.237 836.522 196.555 836.259 196.949C835.997 197.361 835.866 197.848 835.866 198.41V198.748C835.866 199.31 835.997 199.797 836.259 200.209C836.522 200.621 836.896 200.94 837.383 201.165C837.871 201.39 838.451 201.502 839.126 201.502C839.8 201.502 840.325 201.427 840.793 201.296C841.262 201.165 841.618 200.94 841.861 200.659C842.105 200.378 842.236 200.022 842.236 199.628H844.428C844.428 200.378 844.204 201.034 843.773 201.596C843.342 202.158 842.723 202.589 841.936 202.889C841.149 203.188 840.231 203.338 839.163 203.338H839.201Z" fill="black"/>
<path d="M852.017 203.338C850.799 203.338 849.749 203.151 848.869 202.776C847.988 202.401 847.295 201.858 846.808 201.165C846.321 200.453 846.096 199.61 846.096 198.598C846.096 197.586 846.339 196.743 846.808 196.031C847.295 195.319 847.97 194.794 848.869 194.419C849.768 194.044 850.817 193.876 852.017 193.876C853.216 193.876 854.284 194.063 855.183 194.419C856.082 194.775 856.757 195.319 857.225 196.031C857.694 196.743 857.937 197.586 857.937 198.598C857.937 199.61 857.694 200.453 857.225 201.165C856.757 201.877 856.064 202.401 855.183 202.776C854.302 203.151 853.234 203.338 852.017 203.338ZM852.017 201.502C852.541 201.502 853.01 201.446 853.459 201.315C853.909 201.183 854.265 201.015 854.583 200.79C854.902 200.565 855.146 200.265 855.314 199.928C855.483 199.572 855.577 199.179 855.577 198.748V198.448C855.577 197.998 855.483 197.605 855.314 197.267C855.146 196.911 854.902 196.63 854.583 196.405C854.265 196.181 853.89 195.993 853.459 195.881C853.028 195.768 852.541 195.693 852.017 195.693C851.492 195.693 851.023 195.75 850.574 195.881C850.143 195.993 849.768 196.181 849.45 196.405C849.131 196.63 848.888 196.93 848.719 197.267C848.55 197.605 848.457 197.998 848.457 198.448V198.748C848.457 199.197 848.55 199.591 848.719 199.928C848.888 200.284 849.131 200.565 849.45 200.79C849.768 201.015 850.143 201.202 850.574 201.315C851.005 201.427 851.492 201.502 852.017 201.502Z" fill="black"/>
<path d="M859.98 203.17V194.044H862.284V201.24H868.111V203.188H859.998L859.98 203.17Z" fill="black"/>
<path d="M869.685 203.17V194.044H871.99V201.24H877.817V203.188H869.704L869.685 203.17Z" fill="black"/>
<path d="M879.39 203.17V194.044H888.74V195.843H881.676V197.642H887.915V199.422H881.676V201.352H888.834V203.17H879.372H879.39Z" fill="black"/>
<path d="M896.028 203.338C894.192 203.338 892.806 202.945 891.869 202.177C890.951 201.39 890.482 200.209 890.482 198.635C890.482 197.605 890.726 196.724 891.194 196.031C891.663 195.319 892.356 194.794 893.255 194.438C894.155 194.082 895.241 193.913 896.497 193.913C897.302 193.913 898.033 193.988 898.689 194.119C899.363 194.251 899.944 194.475 900.431 194.757C900.937 195.038 901.312 195.394 901.574 195.825C901.837 196.255 901.968 196.743 901.968 197.324H899.738C899.738 197.024 899.644 196.78 899.476 196.574C899.307 196.368 899.064 196.199 898.764 196.087C898.464 195.956 898.127 195.881 897.752 195.806C897.377 195.75 896.984 195.712 896.553 195.712C896.01 195.712 895.504 195.768 895.035 195.881C894.567 195.993 894.173 196.162 893.855 196.387C893.518 196.612 893.274 196.893 893.087 197.249C892.899 197.586 892.806 197.998 892.806 198.467V198.785C892.806 199.441 892.955 199.966 893.237 200.378C893.518 200.79 893.93 201.071 894.436 201.258C894.96 201.446 895.579 201.539 896.309 201.539C897.04 201.539 897.696 201.464 898.183 201.333C898.689 201.202 899.064 201.015 899.326 200.752C899.588 200.49 899.719 200.19 899.719 199.834V199.741H896.216V198.092H901.949V203.188H900.562L900.338 202.027C900 202.345 899.607 202.589 899.157 202.776C898.708 202.963 898.22 203.113 897.677 203.207C897.134 203.301 896.572 203.338 895.972 203.338H896.028Z" fill="black"/>
<path d="M904.347 203.17V194.044H913.697V195.843H906.633V197.642H912.872V199.422H906.633V201.352H913.79V203.17H904.328H904.347Z" fill="black"/>
<path d="M919.992 203.17V194.044H922.297V201.24H928.124V203.188H920.011L919.992 203.17Z" fill="black"/>
<path d="M934.569 203.338C933.351 203.338 932.302 203.151 931.421 202.776C930.541 202.401 929.847 201.858 929.36 201.165C928.873 200.453 928.648 199.61 928.648 198.598C928.648 197.586 928.892 196.743 929.36 196.031C929.847 195.319 930.522 194.794 931.421 194.419C932.321 194.044 933.37 193.876 934.569 193.876C935.768 193.876 936.836 194.063 937.735 194.419C938.635 194.775 939.309 195.319 939.778 196.031C940.246 196.743 940.49 197.586 940.49 198.598C940.49 199.61 940.246 200.453 939.778 201.165C939.309 201.877 938.616 202.401 937.735 202.776C936.855 203.151 935.787 203.338 934.569 203.338ZM934.569 201.502C935.094 201.502 935.562 201.446 936.012 201.315C936.461 201.183 936.817 201.015 937.136 200.79C937.454 200.565 937.698 200.265 937.867 199.928C938.035 199.572 938.129 199.179 938.129 198.748V198.448C938.129 197.998 938.035 197.605 937.867 197.267C937.698 196.911 937.454 196.63 937.136 196.405C936.817 196.181 936.443 195.993 936.012 195.881C935.581 195.768 935.094 195.693 934.569 195.693C934.044 195.693 933.576 195.75 933.126 195.881C932.695 195.993 932.321 196.181 932.002 196.405C931.684 196.63 931.44 196.93 931.271 197.267C931.103 197.605 931.009 197.998 931.009 198.448V198.748C931.009 199.197 931.103 199.591 931.271 199.928C931.44 200.284 931.684 200.565 932.002 200.79C932.321 201.015 932.695 201.202 933.126 201.315C933.557 201.427 934.044 201.502 934.569 201.502Z" fill="black"/>
<path d="M942.532 203.17V194.044H944.649L949.539 198.635C949.633 198.71 949.764 198.822 949.914 198.991C950.064 199.141 950.214 199.291 950.364 199.46C950.532 199.628 950.663 199.759 950.776 199.891H950.888C950.888 199.722 950.87 199.497 950.851 199.216C950.851 198.954 950.832 198.729 950.832 198.56V194.063H953.024V203.188H950.944L946.092 198.598C945.867 198.392 945.623 198.148 945.38 197.886C945.136 197.623 944.93 197.417 944.78 197.267H944.668C944.668 197.38 944.668 197.586 944.687 197.848C944.687 198.129 944.687 198.429 944.687 198.785V203.188H942.494L942.532 203.17Z" fill="black"/>
<path d="M955.479 203.17V194.044H960.444C961.568 194.044 962.542 194.213 963.348 194.569C964.154 194.925 964.772 195.431 965.203 196.106C965.634 196.78 965.859 197.623 965.859 198.616C965.859 199.609 965.634 200.434 965.203 201.108C964.772 201.783 964.154 202.308 963.348 202.645C962.542 203.001 961.568 203.17 960.444 203.17H955.479ZM957.783 201.352H960.331C960.8 201.352 961.212 201.296 961.605 201.183C961.999 201.071 962.317 200.902 962.617 200.696C962.917 200.49 963.123 200.209 963.273 199.891C963.423 199.572 963.498 199.197 963.498 198.766V198.466C963.498 198.035 963.423 197.661 963.273 197.342C963.123 197.024 962.898 196.743 962.617 196.537C962.336 196.33 961.999 196.162 961.605 196.031C961.212 195.899 960.8 195.862 960.331 195.862H957.783V201.371V201.352Z" fill="black"/>
<path d="M973.428 203.338C972.21 203.338 971.161 203.151 970.28 202.776C969.4 202.401 968.707 201.858 968.219 201.165C967.732 200.453 967.507 199.61 967.507 198.598C967.507 197.586 967.751 196.743 968.219 196.031C968.707 195.319 969.381 194.794 970.28 194.419C971.18 194.044 972.229 193.876 973.428 193.876C974.627 193.876 975.695 194.063 976.594 194.419C977.494 194.775 978.168 195.319 978.637 196.031C979.105 196.743 979.349 197.586 979.349 198.598C979.349 199.61 979.105 200.453 978.637 201.165C978.168 201.877 977.475 202.401 976.594 202.776C975.714 203.151 974.646 203.338 973.428 203.338ZM973.428 201.502C973.953 201.502 974.421 201.446 974.871 201.315C975.32 201.183 975.676 201.015 975.995 200.79C976.313 200.565 976.557 200.265 976.726 199.928C976.894 199.572 976.988 199.179 976.988 198.748V198.448C976.988 197.998 976.894 197.605 976.726 197.267C976.557 196.911 976.313 196.63 975.995 196.405C975.676 196.181 975.302 195.993 974.871 195.881C974.44 195.768 973.953 195.693 973.428 195.693C972.903 195.693 972.435 195.75 971.985 195.881C971.554 195.993 971.18 196.181 970.861 196.405C970.543 196.63 970.299 196.93 970.131 197.267C969.962 197.605 969.868 197.998 969.868 198.448V198.748C969.868 199.197 969.962 199.591 970.131 199.928C970.299 200.284 970.543 200.565 970.861 200.79C971.18 201.015 971.554 201.202 971.985 201.315C972.416 201.427 972.903 201.502 973.428 201.502Z" fill="black"/>
<path d="M981.391 203.17V194.044H983.508L988.398 198.635C988.492 198.71 988.623 198.822 988.773 198.991C988.923 199.141 989.073 199.291 989.223 199.46C989.391 199.628 989.523 199.759 989.635 199.891H989.747C989.747 199.722 989.729 199.497 989.71 199.216C989.71 198.954 989.691 198.729 989.691 198.56V194.063H991.883V203.188H989.804L984.951 198.598C984.726 198.392 984.483 198.148 984.239 197.886C983.995 197.623 983.789 197.417 983.639 197.267H983.527C983.527 197.38 983.527 197.586 983.546 197.848C983.546 198.129 983.546 198.429 983.546 198.785V203.188H981.354L981.391 203.17Z" fill="black"/>
<path d="M859.23 245.366C857.9 245.366 856.757 245.179 855.801 244.823C854.846 244.467 854.078 243.942 853.459 243.249C852.86 242.556 852.41 241.731 852.129 240.738C851.848 239.764 851.698 238.621 851.698 237.347C851.698 236.072 851.848 234.948 852.129 233.955C852.41 232.981 852.86 232.138 853.459 231.444C854.059 230.751 854.827 230.226 855.783 229.889C856.738 229.533 857.881 229.365 859.211 229.365C860.542 229.365 861.684 229.533 862.64 229.889C863.596 230.245 864.364 230.77 864.982 231.444C865.582 232.138 866.031 232.962 866.312 233.955C866.593 234.93 866.725 236.072 866.725 237.347C866.725 238.621 866.593 239.745 866.312 240.738C866.031 241.712 865.6 242.556 865.001 243.249C864.401 243.942 863.633 244.467 862.678 244.823C861.722 245.179 860.579 245.366 859.249 245.366H859.23ZM859.23 242.799C860.167 242.799 860.935 242.612 861.497 242.256C862.059 241.881 862.471 241.338 862.715 240.607C862.977 239.876 863.09 238.958 863.09 237.834V236.841C863.09 235.754 862.959 234.836 862.715 234.105C862.453 233.374 862.059 232.831 861.497 232.475C860.935 232.119 860.186 231.932 859.23 231.932C858.275 231.932 857.544 232.119 856.982 232.475C856.42 232.831 856.007 233.374 855.745 234.105C855.483 234.836 855.37 235.735 855.37 236.841V237.834C855.37 238.939 855.502 239.857 855.745 240.607C856.007 241.338 856.42 241.9 856.982 242.256C857.544 242.631 858.293 242.799 859.23 242.799Z" fill="black"/>
<path d="M876.299 245.366C874.875 245.366 873.657 245.16 872.627 244.767C871.596 244.373 870.809 243.792 870.266 243.043C869.722 242.293 869.441 241.375 869.441 240.307H872.851C872.851 240.888 873.001 241.375 873.282 241.731C873.582 242.106 873.976 242.368 874.5 242.537C875.025 242.705 875.624 242.799 876.299 242.799C877.367 242.799 878.191 242.612 878.81 242.218C879.409 241.844 879.84 241.281 880.084 240.551C880.327 239.82 880.458 238.921 880.458 237.852C880.046 238.283 879.559 238.639 878.978 238.902C878.397 239.164 877.798 239.351 877.198 239.464C876.599 239.576 875.999 239.614 875.475 239.614C874.163 239.614 873.001 239.426 872.008 239.033C871.015 238.639 870.247 238.077 869.685 237.328C869.123 236.578 868.861 235.698 868.861 234.686C868.861 233.562 869.179 232.606 869.835 231.8C870.491 230.995 871.371 230.395 872.495 229.983C873.62 229.571 874.931 229.346 876.411 229.346C877.648 229.346 878.753 229.496 879.709 229.777C880.664 230.058 881.47 230.507 882.126 231.107C882.782 231.707 883.269 232.494 883.606 233.468C883.943 234.442 884.112 235.585 884.112 236.916C884.112 238.433 883.943 239.726 883.587 240.776C883.25 241.844 882.744 242.705 882.07 243.38C881.395 244.055 880.589 244.542 879.615 244.86C878.641 245.179 877.517 245.329 876.261 245.329L876.299 245.366ZM876.411 237.215C877.254 237.215 877.966 237.103 878.547 236.878C879.128 236.653 879.578 236.335 879.877 235.941C880.177 235.548 880.346 235.079 880.346 234.536C880.346 234.03 880.196 233.58 879.877 233.168C879.559 232.756 879.128 232.456 878.547 232.25C877.966 232.025 877.254 231.931 876.43 231.931C875.606 231.931 874.912 232.044 874.332 232.25C873.732 232.475 873.282 232.775 872.964 233.168C872.645 233.562 872.495 234.049 872.495 234.592C872.495 235.098 872.645 235.548 872.926 235.941C873.207 236.335 873.657 236.635 874.238 236.859C874.819 237.084 875.549 237.197 876.393 237.197L876.411 237.215Z" fill="black"/>
<path d="M886.829 236.991V233.243H891.026V236.991H886.829ZM886.829 245.085V241.338H891.026V245.085H886.829Z" fill="black"/>
<path d="M901.218 245.366C899.888 245.366 898.745 245.179 897.789 244.823C896.834 244.467 896.066 243.942 895.447 243.249C894.848 242.556 894.398 241.731 894.117 240.738C893.836 239.764 893.686 238.621 893.686 237.347C893.686 236.072 893.836 234.948 894.117 233.955C894.398 232.981 894.848 232.138 895.447 231.444C896.047 230.751 896.815 230.226 897.771 229.889C898.726 229.533 899.869 229.365 901.199 229.365C902.53 229.365 903.673 229.533 904.628 229.889C905.584 230.245 906.352 230.77 906.97 231.444C907.57 232.138 908.02 232.962 908.301 233.955C908.582 234.93 908.713 236.072 908.713 237.347C908.713 238.621 908.582 239.745 908.301 240.738C908.02 241.712 907.589 242.556 906.989 243.249C906.389 243.942 905.621 244.467 904.666 244.823C903.71 245.179 902.567 245.366 901.237 245.366H901.218ZM901.218 242.799C902.155 242.799 902.923 242.612 903.485 242.256C904.047 241.881 904.46 241.338 904.703 240.607C904.965 239.876 905.078 238.958 905.078 237.834V236.841C905.078 235.754 904.947 234.836 904.703 234.105C904.441 233.374 904.047 232.831 903.485 232.475C902.923 232.119 902.174 231.932 901.218 231.932C900.263 231.932 899.532 232.119 898.97 232.475C898.408 232.831 897.996 233.374 897.733 234.105C897.471 234.836 897.359 235.735 897.359 236.841V237.834C897.359 238.939 897.49 239.857 897.733 240.607C897.996 241.338 898.408 241.9 898.97 242.256C899.532 242.631 900.281 242.799 901.218 242.799Z" fill="black"/>
<path d="M918.512 245.366C917.182 245.366 916.039 245.179 915.083 244.823C914.128 244.467 913.359 243.942 912.741 243.249C912.142 242.556 911.692 241.731 911.411 240.738C911.13 239.764 910.98 238.621 910.98 237.347C910.98 236.072 911.13 234.948 911.411 233.955C911.692 232.981 912.142 232.138 912.741 231.444C913.341 230.751 914.109 230.226 915.064 229.889C916.02 229.533 917.163 229.365 918.493 229.365C919.823 229.365 920.966 229.533 921.922 229.889C922.877 230.245 923.646 230.77 924.264 231.444C924.863 232.138 925.313 232.962 925.594 233.955C925.875 234.93 926.006 236.072 926.006 237.347C926.006 238.621 925.875 239.745 925.594 240.738C925.313 241.712 924.882 242.556 924.283 243.249C923.683 243.942 922.915 244.467 921.959 244.823C921.004 245.179 919.861 245.366 918.531 245.366H918.512ZM918.512 242.799C919.449 242.799 920.217 242.612 920.779 242.256C921.341 241.881 921.753 241.338 921.997 240.607C922.259 239.876 922.372 238.958 922.372 237.834V236.841C922.372 235.754 922.24 234.836 921.997 234.105C921.735 233.374 921.341 232.831 920.779 232.475C920.217 232.119 919.467 231.932 918.512 231.932C917.556 231.932 916.826 232.119 916.264 232.475C915.701 232.831 915.289 233.374 915.027 234.105C914.765 234.836 914.652 235.735 914.652 236.841V237.834C914.652 238.939 914.783 239.857 915.027 240.607C915.289 241.338 915.701 241.9 916.264 242.256C916.826 242.631 917.575 242.799 918.512 242.799Z" fill="black"/>
<path d="M733.678 261.312V356.797" stroke="black" stroke-miterlimit="10"/>
<path d="M630.178 261.312H1020.61" stroke="black" stroke-miterlimit="10"/>
<path d="M755.168 232.475C755.075 231.313 754.344 230.732 753.014 230.732C752.414 230.732 751.964 230.863 751.627 231.107C751.29 231.351 751.121 231.688 751.121 232.119C751.121 232.512 751.253 232.793 751.496 232.943C751.74 233.093 752.283 233.281 753.126 233.487C753.351 233.543 753.52 233.599 753.632 233.618C754.737 233.899 755.487 234.142 755.88 234.367C756.761 234.836 757.192 235.567 757.192 236.578C757.192 237.009 757.117 237.403 756.967 237.759C756.817 238.115 756.611 238.396 756.368 238.639C756.124 238.883 755.824 239.07 755.487 239.22C755.15 239.37 754.794 239.483 754.419 239.558C754.044 239.633 753.67 239.67 753.257 239.67C752.021 239.67 751.009 239.37 750.241 238.789C749.473 238.19 749.098 237.328 749.098 236.185H750.803C750.803 236.897 751.046 237.44 751.515 237.796C751.983 238.152 752.602 238.321 753.37 238.321C754.044 238.321 754.55 238.19 754.925 237.909C755.3 237.628 755.487 237.253 755.487 236.766C755.487 236.447 755.393 236.204 755.187 235.997C754.981 235.791 754.775 235.66 754.55 235.567C754.325 235.492 753.913 235.36 753.351 235.211C753.295 235.211 753.239 235.173 753.201 235.173C751.965 234.854 751.159 234.592 750.765 234.386C749.96 233.974 749.529 233.318 749.473 232.456V232.269C749.473 231.388 749.81 230.695 750.466 230.17C751.121 229.645 752.021 229.383 753.126 229.383C754.232 229.383 755.075 229.645 755.749 230.151C756.424 230.657 756.78 231.444 756.817 232.494H755.168V232.475Z" fill="black"/>
<path d="M765.811 231.07H762.663V239.464H760.92V231.07H757.773V229.571H765.811V231.07Z" fill="black"/>
<path d="M773.998 239.445H772.143L771.207 236.822H767.291L766.317 239.445H764.518L768.34 229.552H770.195L774.017 239.445H773.998ZM769.258 231.351L767.722 235.51H770.738L769.258 231.351Z" fill="black"/>
<path d="M779.601 229.571C780.575 229.571 781.381 229.795 781.999 230.226C782.617 230.657 782.936 231.369 782.936 232.306C782.936 232.906 782.786 233.412 782.505 233.824C782.224 234.255 781.811 234.555 781.306 234.742C781.549 234.798 781.755 234.873 781.924 234.986C782.093 235.098 782.242 235.211 782.336 235.342C782.43 235.473 782.505 235.641 782.58 235.848C782.636 236.054 782.692 236.222 782.711 236.391C782.73 236.541 782.748 236.747 782.767 236.991C782.767 237.047 782.786 237.178 782.804 237.365C782.804 237.553 782.823 237.665 782.842 237.74C782.861 237.815 782.842 237.909 782.88 238.059C782.88 238.209 782.898 238.302 782.917 238.377C782.936 238.452 782.936 238.527 782.973 238.639C782.992 238.752 783.011 238.846 783.029 238.902C783.029 238.958 783.067 239.033 783.104 239.108C783.123 239.183 783.161 239.258 783.198 239.314C783.235 239.37 783.273 239.426 783.329 239.464H781.474C781.474 239.464 781.418 239.389 781.399 239.333C781.381 239.277 781.362 239.22 781.343 239.164C781.324 239.108 781.306 239.052 781.306 238.995C781.306 238.939 781.287 238.883 781.268 238.789C781.268 238.696 781.249 238.621 781.249 238.583L781.212 238.34V238.096C781.212 238.096 781.174 237.946 781.174 237.796C781.174 237.665 781.174 237.553 781.174 237.496C781.137 236.691 780.968 236.147 780.669 235.829C780.369 235.529 779.825 235.379 779.001 235.379H776.696V239.464H774.973V229.571H779.657H779.601ZM776.64 234.086H778.926C779.263 234.086 779.544 234.086 779.769 234.03C779.994 233.993 780.238 233.918 780.462 233.824C780.706 233.73 780.875 233.562 781.006 233.337C781.137 233.112 781.193 232.831 781.193 232.494C781.193 232.175 781.137 231.913 781.025 231.707C780.912 231.501 780.762 231.351 780.537 231.238C780.313 231.126 780.125 231.07 779.9 231.032C779.676 230.995 779.432 230.976 779.132 230.976H776.622V234.068L776.64 234.086Z" fill="black"/>
<path d="M791.554 231.07H788.407V239.464H786.664V231.07H783.516V229.571H791.554V231.07Z" fill="black"/>
<path d="M803.658 231.07H800.51V239.464H798.768V231.07H795.62V229.571H803.658V231.07Z" fill="black"/>
<path d="M806.562 239.445H804.82V229.552H806.562V239.445Z" fill="black"/>
<path d="M818.928 239.445H817.279V231.819L814.525 239.445H813.101L810.291 231.819V239.445H808.661V229.552H811.096L813.851 237.29L816.511 229.552H818.928V239.445Z" fill="black"/>
<path d="M828.109 231.032H822.713V233.655H827.716V235.061H822.713V237.984H828.203V239.464H820.989V229.571H828.109V231.032Z" fill="black"/>
<path d="M29.5472 328.167H22.6897V335.025H29.5472V328.167Z" fill="black"/>
<path d="M41.4073 328.167H34.5498V335.025H41.4073V328.167Z" fill="black"/>
<path d="M53.2862 328.167H46.4286V335.025H53.2862V328.167Z" fill="black"/>
<path d="M65.1463 328.167H58.2888V335.025H65.1463V328.167Z" fill="black"/>
<path d="M454.019 398.301V405.159H460.877V398.301H454.019Z" fill="black"/>
<path d="M454 386.421V393.279H460.858V386.421H454Z" fill="black"/>
<path d="M454 328.167V335.025H460.858V328.167H454Z" fill="black"/>
<path d="M754.962 289.024H750.522V291.179H754.644V292.322H750.522V294.72H755.018V295.938H749.098V287.825H754.944V289.024H754.962Z" fill="black"/>
<path d="M762.888 295.938H761.426L757.642 289.961V295.938H756.293V287.825H757.792L761.539 293.802V287.825H762.907V295.938H762.888Z" fill="black"/>
<path d="M770.364 289.062H767.778V295.938H766.354V289.062H763.768V287.825H770.364V289.062Z" fill="black"/>
<path d="M775.141 287.825C775.947 287.825 776.603 288.012 777.109 288.368C777.615 288.724 777.877 289.305 777.877 290.092C777.877 290.579 777.764 290.992 777.521 291.348C777.277 291.685 776.959 291.947 776.528 292.097C776.734 292.135 776.902 292.21 777.034 292.303C777.184 292.397 777.296 292.491 777.371 292.603C777.446 292.716 777.521 292.847 777.577 293.015C777.633 293.184 777.671 293.334 777.689 293.446C777.708 293.577 777.727 293.746 777.746 293.933C777.746 293.99 777.746 294.083 777.764 294.233C777.764 294.383 777.783 294.477 777.783 294.533C777.783 294.589 777.783 294.664 777.802 294.795C777.802 294.908 777.821 295.001 777.821 295.058C777.821 295.114 777.839 295.17 777.858 295.283C777.877 295.376 777.896 295.451 777.914 295.507C777.914 295.564 777.952 295.62 777.97 295.676C777.989 295.732 778.027 295.788 778.045 295.845C778.064 295.901 778.102 295.938 778.139 295.976H776.622C776.622 295.976 776.584 295.901 776.565 295.863C776.565 295.826 776.528 295.77 776.509 295.732C776.49 295.695 776.49 295.639 776.472 295.601C776.453 295.564 776.472 295.507 776.434 295.432C776.434 295.358 776.434 295.301 776.434 295.264V295.058L776.397 294.852C776.397 294.814 776.397 294.72 776.397 294.608C776.397 294.496 776.397 294.421 776.397 294.364C776.359 293.709 776.228 293.259 775.984 292.997C775.741 292.753 775.291 292.622 774.617 292.622H772.724V295.976H771.319V287.863H775.16L775.141 287.825ZM772.706 291.535H774.579C774.86 291.535 775.085 291.535 775.273 291.498C775.46 291.46 775.647 291.404 775.853 291.329C776.041 291.254 776.191 291.123 776.303 290.935C776.397 290.748 776.453 290.523 776.453 290.242C776.453 289.98 776.415 289.774 776.322 289.605C776.228 289.436 776.097 289.305 775.928 289.23C775.76 289.155 775.591 289.08 775.404 289.062C775.216 289.024 775.01 289.024 774.767 289.024H772.706V291.573V291.535Z" fill="black"/>
<path d="M782.467 292.716V295.938H781.062V292.716L777.989 287.825H779.638L781.793 291.423L783.929 287.825H785.521L782.467 292.716Z" fill="black"/>
<path d="M752.789 317.861C753.557 317.861 754.175 318.03 754.663 318.386C755.15 318.723 755.393 319.285 755.393 320.016C755.393 320.484 755.281 320.878 755.056 321.215C754.831 321.552 754.513 321.777 754.119 321.927C754.307 321.965 754.475 322.04 754.606 322.115C754.737 322.208 754.85 322.302 754.925 322.396C755 322.489 755.056 322.62 755.112 322.789C755.168 322.958 755.206 323.089 755.206 323.201C755.206 323.314 755.243 323.482 755.262 323.67C755.262 323.726 755.262 323.82 755.281 323.97C755.281 324.119 755.281 324.213 755.3 324.251C755.318 324.288 755.3 324.382 755.318 324.494C755.318 324.607 755.337 324.7 755.337 324.738C755.337 324.775 755.356 324.85 755.374 324.944C755.374 325.038 755.412 325.113 755.431 325.15C755.431 325.206 755.468 325.244 755.487 325.319C755.506 325.375 755.543 325.431 755.562 325.469C755.581 325.506 755.618 325.543 755.656 325.581H754.194C754.194 325.581 754.157 325.525 754.138 325.469C754.138 325.431 754.1 325.394 754.082 325.337C754.063 325.281 754.063 325.244 754.044 325.206C754.026 325.169 754.044 325.113 754.025 325.038C754.025 324.963 754.025 324.906 754.025 324.869V324.682L753.988 324.494C753.988 324.457 753.988 324.382 753.988 324.269C753.988 324.157 753.988 324.082 753.988 324.044C753.951 323.407 753.819 322.976 753.595 322.752C753.37 322.508 752.939 322.396 752.302 322.396H750.503V325.6H749.154V317.861H752.826H752.789ZM750.466 321.403H752.264C752.527 321.403 752.751 321.403 752.92 321.365C753.107 321.328 753.276 321.29 753.463 321.215C753.651 321.14 753.782 321.009 753.894 320.84C753.988 320.672 754.044 320.447 754.044 320.185C754.044 319.941 754.007 319.735 753.913 319.566C753.819 319.398 753.707 319.285 753.538 319.21C753.37 319.135 753.201 319.079 753.032 319.042C752.864 319.004 752.658 319.004 752.433 319.004H750.466V321.421V321.403Z" fill="black"/>
<path d="M762.794 318.798C763.487 319.548 763.825 320.522 763.825 321.721C763.825 322.92 763.487 323.895 762.794 324.644C762.101 325.394 761.202 325.768 760.115 325.768C759.028 325.768 758.11 325.394 757.417 324.644C756.724 323.895 756.386 322.92 756.386 321.702C756.386 320.484 756.724 319.566 757.398 318.798C758.073 318.03 758.972 317.655 760.134 317.655C761.295 317.655 762.12 318.03 762.813 318.779L762.794 318.798ZM758.391 319.604C757.96 320.128 757.754 320.84 757.754 321.702C757.754 322.564 757.96 323.314 758.391 323.838C758.822 324.363 759.403 324.625 760.134 324.625C760.864 324.625 761.408 324.363 761.82 323.82C762.251 323.295 762.457 322.583 762.457 321.702C762.457 320.822 762.251 320.11 761.82 319.585C761.389 319.06 760.827 318.798 760.115 318.798C759.403 318.798 758.841 319.06 758.41 319.585L758.391 319.604Z" fill="black"/>
<path d="M771.076 318.798C771.769 319.548 772.106 320.522 772.106 321.721C772.106 322.92 771.769 323.895 771.076 324.644C770.382 325.394 769.483 325.768 768.396 325.768C767.31 325.768 766.391 325.394 765.698 324.644C765.005 323.895 764.668 322.92 764.668 321.702C764.668 320.484 765.005 319.566 765.679 318.798C766.354 318.03 767.253 317.655 768.415 317.655C769.577 317.655 770.401 318.03 771.094 318.779L771.076 318.798ZM766.673 319.604C766.242 320.128 766.035 320.84 766.035 321.702C766.035 322.564 766.242 323.314 766.673 323.838C767.103 324.363 767.666 324.625 768.415 324.625C769.164 324.625 769.689 324.363 770.101 323.82C770.532 323.295 770.738 322.583 770.738 321.702C770.738 320.822 770.532 320.11 770.101 319.585C769.67 319.06 769.108 318.798 768.396 318.798C767.684 318.798 767.122 319.06 766.691 319.585L766.673 319.604Z" fill="black"/>
<path d="M781.381 325.6H780.088V319.622L777.933 325.6H776.828L774.617 319.622V325.6H773.343V317.861H775.254L777.427 323.913L779.507 317.861H781.399V325.6H781.381Z" fill="black"/>
<path d="M787.282 320.147C787.208 319.248 786.645 318.779 785.596 318.779C785.128 318.779 784.772 318.873 784.51 319.06C784.247 319.248 784.116 319.51 784.116 319.847C784.116 320.166 784.21 320.372 784.397 320.484C784.585 320.597 785.015 320.747 785.671 320.915C785.84 320.972 785.971 321.009 786.083 321.028C786.945 321.253 787.526 321.44 787.845 321.609C788.538 321.983 788.875 322.564 788.875 323.332C788.875 323.67 788.819 323.988 788.706 324.251C788.594 324.513 788.425 324.757 788.238 324.944C788.051 325.131 787.807 325.281 787.545 325.412C787.283 325.543 787.001 325.618 786.702 325.675C786.402 325.731 786.102 325.75 785.802 325.75C784.828 325.75 784.041 325.525 783.442 325.056C782.842 324.588 782.542 323.913 782.542 323.014H783.872C783.872 323.576 784.06 324.007 784.435 324.269C784.809 324.532 785.278 324.682 785.877 324.682C786.402 324.682 786.814 324.569 787.095 324.363C787.395 324.157 787.526 323.857 787.526 323.464C787.526 323.22 787.451 323.014 787.301 322.864C787.151 322.714 786.983 322.602 786.795 322.527C786.608 322.471 786.289 322.377 785.859 322.246C785.802 322.246 785.765 322.227 785.746 322.208C784.791 321.965 784.153 321.759 783.835 321.59C783.198 321.271 782.861 320.765 782.823 320.072V319.922C782.823 319.229 783.085 318.686 783.591 318.273C784.116 317.861 784.809 317.655 785.671 317.655C786.533 317.655 787.189 317.861 787.732 318.255C788.257 318.648 788.538 319.266 788.575 320.091H787.282V320.147Z" fill="black"/>
<path d="M804.22 300.21V288.031H807.293V300.21H804.22Z" fill="black"/>
<path d="M817.56 300.435C815.893 300.435 814.506 300.192 813.382 299.723C812.258 299.236 811.415 298.543 810.853 297.587C810.291 296.65 810.01 295.489 810.01 294.121C810.01 292.116 810.647 290.561 811.939 289.474C813.232 288.387 815.087 287.844 817.542 287.844C818.928 287.844 820.146 288.05 821.195 288.443C822.244 288.837 823.069 289.418 823.65 290.167C824.231 290.917 824.53 291.797 824.53 292.828H821.532C821.532 292.285 821.364 291.816 821.027 291.441C820.689 291.067 820.221 290.767 819.603 290.561C818.984 290.355 818.291 290.261 817.467 290.261C816.567 290.261 815.799 290.411 815.143 290.711C814.488 291.01 814.001 291.423 813.663 291.966C813.326 292.509 813.157 293.165 813.157 293.915V294.364C813.157 295.114 813.326 295.77 813.663 296.313C814.001 296.857 814.506 297.287 815.143 297.587C815.799 297.887 816.567 298.037 817.467 298.037C818.366 298.037 819.059 297.943 819.678 297.756C820.296 297.569 820.764 297.287 821.102 296.913C821.439 296.538 821.608 296.07 821.608 295.526H824.53C824.53 296.538 824.249 297.4 823.668 298.149C823.088 298.899 822.282 299.461 821.233 299.873C820.184 300.267 818.947 300.473 817.542 300.473L817.56 300.435Z" fill="black"/>
<path d="M827.266 300.21V288.031H832.025L834.517 293.896C834.611 294.102 834.723 294.364 834.835 294.702C834.967 295.039 835.098 295.376 835.229 295.751C835.36 296.126 835.491 296.444 835.585 296.725H835.716C835.81 296.463 835.922 296.163 836.053 295.826C836.184 295.489 836.316 295.133 836.447 294.795C836.578 294.458 836.69 294.158 836.784 293.933L839.295 288.05H843.941V300.229H840.887V293.24C840.887 293.015 840.887 292.772 840.887 292.491C840.887 292.228 840.887 291.947 840.906 291.685C840.906 291.423 840.906 291.198 840.906 290.992H840.756C840.7 291.198 840.625 291.423 840.512 291.704C840.419 291.966 840.306 292.247 840.213 292.509C840.119 292.79 840.025 293.015 839.95 293.221L836.934 300.21H834.03L831.013 293.221C830.901 292.94 830.788 292.678 830.676 292.397C830.563 292.116 830.47 291.854 830.395 291.61C830.32 291.366 830.245 291.16 830.189 290.992H830.039C830.039 291.142 830.058 291.348 830.058 291.591C830.058 291.835 830.058 292.097 830.058 292.397C830.058 292.697 830.058 292.959 830.058 293.221V300.21H827.135H827.266Z" fill="black"/>
<path d="M847.22 300.21V288.031H859.699V290.448H850.293V292.847H858.593V295.226H850.293V297.793H859.848V300.229H847.239L847.22 300.21Z" fill="black"/>
<path d="M813.363 330.265L811.396 328.467C811.396 328.467 811.246 328.467 811.171 328.467C811.096 328.467 811.003 328.467 810.928 328.467C809.56 328.467 808.38 328.26 807.387 327.829C806.394 327.398 805.625 326.78 805.063 325.974C804.52 325.169 804.239 324.194 804.239 323.051C804.239 321.908 804.52 320.934 805.063 320.128C805.607 319.323 806.394 318.704 807.405 318.292C808.417 317.88 809.616 317.655 811.021 317.655C812.427 317.655 813.626 317.861 814.638 318.292C815.649 318.723 816.436 319.323 816.98 320.128C817.523 320.934 817.804 321.908 817.804 323.051C817.804 324.288 817.485 325.319 816.848 326.162C816.211 327.005 815.312 327.605 814.169 327.998L816.811 330.265H813.382H813.363ZM811.003 326.405C811.602 326.405 812.146 326.33 812.651 326.199C813.157 326.068 813.57 325.862 813.944 325.6C814.319 325.337 814.581 325 814.787 324.607C814.994 324.213 815.087 323.763 815.087 323.239V322.883C815.087 322.358 814.994 321.908 814.787 321.515C814.581 321.121 814.3 320.803 813.944 320.541C813.588 320.278 813.157 320.072 812.651 319.941C812.164 319.81 811.602 319.735 811.003 319.735C810.403 319.735 809.86 319.81 809.354 319.941C808.867 320.072 808.436 320.278 808.061 320.541C807.686 320.803 807.405 321.121 807.218 321.515C807.012 321.908 806.918 322.358 806.918 322.883V323.239C806.918 323.763 807.012 324.213 807.218 324.607C807.405 325 807.705 325.337 808.061 325.6C808.417 325.862 808.848 326.068 809.354 326.199C809.841 326.33 810.403 326.405 811.003 326.405Z" fill="black"/>
<path d="M850.724 325.187V323.07H855.52V325.187H850.724Z" fill="black"/>
<path d="M867.718 328.485C866.893 328.485 866.144 328.429 865.432 328.335C864.72 328.242 864.101 328.073 863.577 327.811C863.052 327.548 862.621 327.211 862.322 326.761C862.022 326.312 861.891 325.731 861.891 325.038V324.963C861.891 324.963 861.891 324.906 861.891 324.888H864.458C864.458 324.888 864.458 324.981 864.458 325.019V325.187C864.458 325.506 864.589 325.75 864.832 325.937C865.095 326.124 865.45 326.256 865.919 326.349C866.387 326.443 866.949 326.48 867.586 326.48C867.868 326.48 868.13 326.48 868.411 326.443C868.692 326.405 868.954 326.387 869.217 326.349C869.479 326.312 869.704 326.237 869.91 326.162C870.116 326.087 870.266 325.974 870.397 325.843C870.509 325.712 870.584 325.562 870.584 325.394C870.584 325.15 870.472 324.963 870.228 324.813C869.985 324.663 869.666 324.55 869.273 324.457C868.879 324.363 868.43 324.288 867.924 324.213C867.418 324.138 866.893 324.063 866.369 323.988C865.825 323.895 865.319 323.782 864.814 323.632C864.308 323.482 863.858 323.295 863.464 323.051C863.071 322.808 862.753 322.508 862.509 322.133C862.265 321.759 862.153 321.29 862.153 320.747C862.153 320.241 862.284 319.791 862.528 319.416C862.771 319.042 863.146 318.704 863.614 318.442C864.083 318.18 864.664 317.992 865.338 317.861C866.013 317.73 866.762 317.674 867.605 317.674C868.448 317.674 869.217 317.749 869.872 317.88C870.528 318.011 871.09 318.217 871.54 318.479C871.989 318.742 872.327 319.06 872.552 319.435C872.776 319.81 872.889 320.241 872.889 320.728V320.953H870.341V320.784C870.341 320.559 870.228 320.372 870.022 320.203C869.797 320.035 869.498 319.904 869.104 319.791C868.711 319.679 868.261 319.641 867.736 319.641C867.062 319.641 866.5 319.679 866.088 319.772C865.657 319.866 865.357 319.978 865.151 320.128C864.945 320.278 864.851 320.428 864.851 320.616C864.851 320.84 864.963 321.009 865.207 321.14C865.451 321.271 865.769 321.384 866.162 321.459C866.556 321.534 867.006 321.609 867.512 321.684C868.017 321.74 868.523 321.833 869.067 321.927C869.61 322.021 870.116 322.133 870.622 322.264C871.128 322.396 871.577 322.583 871.971 322.827C872.364 323.07 872.683 323.37 872.926 323.726C873.17 324.082 873.282 324.532 873.282 325.075C873.282 325.899 873.039 326.555 872.57 327.061C872.102 327.567 871.446 327.923 870.603 328.148C869.76 328.373 868.804 328.485 867.718 328.485Z" fill="black"/>
<path d="M881.47 328.485C880.046 328.485 878.847 328.279 877.891 327.867C876.936 327.455 876.205 326.855 875.718 326.049C875.231 325.244 874.987 324.251 874.987 323.07C874.987 321.346 875.531 320.016 876.636 319.079C877.742 318.142 879.334 317.674 881.433 317.674C882.613 317.674 883.662 317.842 884.562 318.198C885.461 318.536 886.173 319.042 886.679 319.679C887.185 320.316 887.447 321.084 887.447 321.965H884.88C884.88 321.496 884.73 321.103 884.449 320.765C884.168 320.428 883.756 320.185 883.231 320.016C882.707 319.847 882.107 319.754 881.395 319.754C880.627 319.754 879.971 319.885 879.409 320.128C878.847 320.391 878.435 320.747 878.135 321.215C877.835 321.684 877.704 322.246 877.704 322.883V323.258C877.704 323.913 877.854 324.457 878.135 324.944C878.435 325.412 878.847 325.768 879.409 326.031C879.971 326.293 880.627 326.405 881.395 326.405C882.163 326.405 882.763 326.33 883.288 326.162C883.812 325.993 884.224 325.75 884.505 325.431C884.786 325.113 884.936 324.719 884.936 324.251H887.447C887.447 325.113 887.203 325.862 886.698 326.499C886.192 327.136 885.498 327.623 884.618 327.979C883.719 328.317 882.669 328.504 881.451 328.504L881.47 328.485Z" fill="black"/>
<path d="M889.789 328.298V317.861H898.22C898.97 317.861 899.588 318.011 900.075 318.311C900.562 318.611 900.918 319.023 901.162 319.51C901.406 319.997 901.518 320.559 901.518 321.159C901.518 321.759 901.349 322.377 901.031 322.92C900.712 323.464 900.225 323.895 899.588 324.213L901.762 328.298H898.82L896.984 324.682H892.431V328.298H889.808H889.789ZM892.431 322.62H897.452C897.883 322.62 898.22 322.489 898.464 322.227C898.708 321.965 898.839 321.646 898.839 321.234C898.839 320.953 898.783 320.709 898.67 320.522C898.558 320.334 898.408 320.185 898.202 320.072C897.996 319.96 897.752 319.922 897.452 319.922H892.431V322.62Z" fill="black"/>
<path d="M907.963 325.187V323.07H912.76V325.187H907.963Z" fill="black"/>
<path d="M923.327 328.485C922.372 328.485 921.547 328.354 920.873 328.092C920.198 327.829 919.673 327.398 919.317 326.836C918.961 326.274 918.774 325.543 918.774 324.663V324.457H921.304V324.738C921.304 325.3 921.472 325.712 921.809 325.993C922.147 326.274 922.615 326.405 923.233 326.405C923.908 326.405 924.433 326.237 924.789 325.899C925.145 325.562 925.332 325.019 925.332 324.288V317.861H927.936V324.176C927.936 325.169 927.749 325.974 927.374 326.63C926.999 327.286 926.475 327.736 925.782 328.036C925.088 328.335 924.264 328.485 923.308 328.485H923.327Z" fill="black"/>
<path d="M936.536 328.485C935.112 328.485 933.913 328.279 932.958 327.867C932.002 327.455 931.271 326.855 930.784 326.049C930.297 325.244 930.053 324.251 930.053 323.07C930.053 321.346 930.597 320.016 931.702 319.079C932.808 318.142 934.4 317.674 936.499 317.674C937.679 317.674 938.728 317.842 939.628 318.198C940.527 318.536 941.239 319.042 941.745 319.679C942.251 320.316 942.513 321.084 942.513 321.965H939.946C939.946 321.496 939.796 321.103 939.515 320.765C939.234 320.428 938.822 320.185 938.297 320.016C937.773 319.847 937.173 319.754 936.461 319.754C935.693 319.754 935.037 319.885 934.475 320.128C933.913 320.391 933.501 320.747 933.201 321.215C932.901 321.684 932.77 322.246 932.77 322.883V323.258C932.77 323.913 932.92 324.457 933.201 324.944C933.501 325.412 933.913 325.768 934.475 326.031C935.037 326.293 935.693 326.405 936.461 326.405C937.229 326.405 937.829 326.33 938.354 326.162C938.878 325.993 939.29 325.75 939.571 325.431C939.853 325.113 940.002 324.719 940.002 324.251H942.513C942.513 325.113 942.27 325.862 941.764 326.499C941.258 327.136 940.565 327.623 939.684 327.979C938.785 328.317 937.735 328.504 936.518 328.504L936.536 328.485Z" fill="black"/>
<path d="M944.855 328.298V317.861H953.286C954.036 317.861 954.654 318.011 955.141 318.311C955.629 318.611 955.985 319.023 956.228 319.51C956.472 319.997 956.584 320.559 956.584 321.159C956.584 321.759 956.415 322.377 956.097 322.92C955.778 323.464 955.291 323.895 954.654 324.213L956.828 328.298H953.886L952.05 324.682H947.497V328.298H944.874H944.855ZM947.497 322.62H952.518C952.949 322.62 953.286 322.489 953.53 322.227C953.774 321.965 953.905 321.646 953.905 321.234C953.905 320.953 953.849 320.709 953.736 320.522C953.624 320.334 953.474 320.185 953.268 320.072C953.062 319.96 952.818 319.922 952.518 319.922H947.497V322.62Z" fill="black"/>
<path d="M832.831 328.298V317.861H841.262C842.011 317.861 842.63 318.011 843.117 318.311C843.604 318.611 843.96 319.023 844.204 319.51C844.447 319.997 844.56 320.559 844.56 321.159C844.56 321.759 844.391 322.377 844.072 322.92C843.754 323.464 843.267 323.895 842.63 324.213L844.803 328.298H841.861L840.025 324.682H835.472V328.298H832.849H832.831ZM835.454 322.62H840.475C840.906 322.62 841.243 322.489 841.487 322.227C841.73 321.965 841.861 321.646 841.861 321.234C841.861 320.953 841.805 320.709 841.693 320.522C841.58 320.334 841.431 320.185 841.224 320.072C841.018 319.96 840.775 319.922 840.475 319.922H835.454V322.62Z" fill="black"/>
<path d="M824.006 328.298V320.072H819.397V317.861H831.201V320.072H826.61V328.298H823.987H824.006Z" fill="black"/>
</svg>
