<svg width="920" height="377" viewBox="0 0 920 377" fill="none" xmlns="http://www.w3.org/2000/svg">
<mask id="mask0_655_1825" style="mask-type:luminance" maskUnits="userSpaceOnUse" x="0" y="0" width="915" height="377">
<path d="M14.2776 0.579102V14.5376H0V362.878H14.2776V376.837H450.333V362.878H464.611V376.837H900.667V362.878H914.944V14.5376H900.667V0.579102H464.611V14.5376H459.152V18.6361H455.792V14.5376H450.333V0.579102H14.2776ZM459.169 358.78V362.878H455.809V358.78H459.169ZM459.169 342.184V350.482H455.809V342.184H459.169ZM459.169 325.588V333.886H455.809V325.588H459.169ZM459.169 309.009V317.307H455.809V309.009H459.169ZM459.169 292.414V300.712H455.809V292.414H459.169ZM459.169 275.818V284.116H455.809V275.818H459.169ZM459.169 259.223V267.52H455.809V259.223H459.169ZM459.169 242.644V250.942H455.809V242.644H459.169ZM459.169 226.048V234.346H455.809V226.048H459.169ZM459.169 209.452V217.75H455.809V209.452H459.169ZM459.169 192.857V201.155H455.809V192.857H459.169ZM459.169 176.278V184.576H455.809V176.278H459.169ZM459.169 159.682V167.98H455.809V159.682H459.169ZM459.169 143.087V151.384H455.809V143.087H459.169ZM459.169 126.491V134.789H455.809V126.491H459.169ZM459.169 109.895V118.193H455.809V109.895H459.169ZM459.169 93.3165V101.614H455.809V93.3165H459.169ZM459.169 76.7209V85.0187H455.809V76.7209H459.169ZM459.169 60.1252V68.423H455.809V60.1252H459.169ZM459.169 43.5296V51.8274H455.809V43.5296H459.169ZM459.169 26.9507V35.2485H455.809V26.9507H459.169Z" fill="white"/>
</mask>
<g mask="url(#mask0_655_1825)">
<path d="M0.00012207 6.37529V362.829H14.2778V377.107H450.333V362.829H464.628V377.107H900.683V362.829H914.978V6.37529H900.683V-7.90234H464.628V6.37529H450.333V-7.90234H14.2778V6.37529H0.00012207Z" fill="#F3F3F3"/>
<path d="M0.00012207 313.31H261.583C262.322 313.31 262.675 313.31 263.112 313.277L264.388 313.243C267.798 313.109 271.191 312.588 274.483 311.731C281.085 310.001 287.316 306.86 292.624 302.594C293.296 302.073 293.918 301.485 294.573 300.947L296.437 299.184L301.947 293.674L312.983 282.639L335.071 260.55L423.407 172.214L467.584 128.037L473.312 122.343C475.815 119.907 478.435 117.572 481.19 115.406C486.682 111.072 492.629 107.309 498.911 104.219C511.458 98.0036 525.35 94.5266 539.342 94.0899L665.136 94.0059H914.995V107.007H665.136L539.779 107.074C527.617 107.46 515.557 110.484 504.656 115.876C499.196 118.563 494.023 121.822 489.252 125.601C486.85 127.483 484.583 129.498 482.416 131.632L476.789 137.225L432.612 181.402L344.276 269.738L322.187 291.827L311.152 302.862L305.642 308.372L303.274 310.606C302.451 311.295 301.644 312.034 300.805 312.706C294.069 318.131 286.157 322.112 277.776 324.312C273.593 325.421 269.293 326.059 264.959 326.244L263.33 326.278C262.792 326.278 262.289 326.311 261.583 326.311H0.00012207V313.31Z" fill="#ED4250"/>
<path d="M0.00012207 332.224H249.859H257.669H261.566C262.876 332.224 263.968 332.174 265.194 332.157C269.931 331.972 274.651 331.25 279.254 330.04C288.442 327.638 297.092 323.271 304.5 317.325C305.424 316.586 306.297 315.779 307.221 315.024L309.808 312.588L315.334 307.079L326.37 296.043L348.458 273.954L436.795 185.618L480.971 141.441L486.548 135.881C488.581 133.916 490.697 132.018 492.931 130.271C497.382 126.76 502.186 123.72 507.276 121.217C517.421 116.195 528.676 113.373 539.997 113.02L665.153 112.953H915.011V125.954H665.153L540.434 126.005C530.943 126.307 521.52 128.659 513.021 132.875C508.771 134.974 504.723 137.527 501.011 140.467C499.146 141.928 497.366 143.507 495.669 145.17L490.176 150.629L446 194.806L357.663 283.142L335.575 305.231L324.539 316.267L319.013 321.793C317.988 322.767 316.98 323.758 315.922 324.716C314.847 325.639 313.789 326.58 312.68 327.47C303.862 334.576 293.515 339.783 282.563 342.655C277.087 344.1 271.443 344.939 265.782 345.175C264.388 345.208 262.893 345.259 261.6 345.259H0.00012207V332.258V332.224Z" fill="#FAA701"/>
<path d="M0.00012207 351.138H261.583L263.75 351.104L266.034 351.054C272.115 350.802 278.162 349.895 284.041 348.35C295.816 345.276 306.902 339.682 316.376 332.056C317.568 331.116 318.694 330.091 319.853 329.1C320.978 328.075 322.07 327.017 323.162 325.976L328.688 320.449L339.724 309.414L361.812 287.325L450.149 198.989L494.325 154.812L499.768 149.387C501.33 147.875 502.942 146.43 504.639 145.103C508.032 142.416 511.71 140.098 515.591 138.183C523.351 134.336 531.934 132.186 540.602 131.918L665.119 131.867H914.978V144.868H665.119L541.038 144.919C534.219 145.12 527.449 146.817 521.335 149.857C518.278 151.369 515.372 153.2 512.701 155.316C511.358 156.358 510.081 157.5 508.855 158.692L503.513 164.017L459.337 208.194L371 296.53L348.912 318.619L337.876 329.654L332.333 335.181C331.073 336.39 329.813 337.616 328.52 338.792C327.193 339.934 325.883 341.11 324.522 342.185C313.621 350.97 300.838 357.403 287.3 360.948C280.53 362.728 273.56 363.769 266.572 364.072L263.952 364.139L261.566 364.173H0.00012207V351.172V351.138Z" fill="#0060E6"/>
<path d="M713.378 333.165H711.211V374.637H713.378V333.165Z" fill="black"/>
<path d="M715.561 333.165H714.469V374.637H715.561V333.165Z" fill="black"/>
<path d="M718.82 333.165H717.728V374.637H718.82V333.165Z" fill="black"/>
<path d="M724.262 333.165H723.17V374.637H724.262V333.165Z" fill="black"/>
<path d="M730.763 341.244H728.596V374.637H730.763V341.244Z" fill="black"/>
<path d="M732.963 341.244H731.871V374.637H732.963V341.244Z" fill="black"/>
<path d="M736.222 341.244H735.13V374.637H736.222V341.244Z" fill="black"/>
<path d="M741.647 341.244H740.556V374.637H741.647V341.244Z" fill="black"/>
<path d="M744.906 341.244H742.739V374.637H744.906V341.244Z" fill="black"/>
<path d="M748.181 341.244H747.09V374.637H748.181V341.244Z" fill="black"/>
<path d="M752.515 341.244H750.348V374.637H752.515V341.244Z" fill="black"/>
<path d="M756.866 341.244H753.607V374.637H756.866V341.244Z" fill="black"/>
<path d="M760.141 341.244H759.049V374.637H760.141V341.244Z" fill="black"/>
<path d="M764.475 341.244H762.308V374.637H764.475V341.244Z" fill="black"/>
<path d="M769.917 341.244H768.825V374.637H769.917V341.244Z" fill="black"/>
<path d="M772.101 341.244H771.009V374.637H772.101V341.244Z" fill="black"/>
<path d="M775.359 341.244H774.268V374.637H775.359V341.244Z" fill="black"/>
<path d="M778.601 341.244H776.434V374.637H778.601V341.244Z" fill="black"/>
<path d="M784.06 341.244H782.968V374.637H784.06V341.244Z" fill="black"/>
<path d="M789.486 341.244H788.394V374.637H789.486V341.244Z" fill="black"/>
<path d="M792.744 341.244H790.578V374.637H792.744V341.244Z" fill="black"/>
<path d="M797.095 341.244H794.928V374.637H797.095V341.244Z" fill="black"/>
<path d="M802.537 341.244H801.445V374.637H802.537V341.244Z" fill="black"/>
<path d="M805.796 341.244H804.704V374.637H805.796V341.244Z" fill="black"/>
<path d="M807.98 341.244H806.888V374.637H807.98V341.244Z" fill="black"/>
<path d="M812.313 341.244H810.146V374.637H812.313V341.244Z" fill="black"/>
<path d="M816.664 341.244H813.405V374.637H816.664V341.244Z" fill="black"/>
<path d="M819.939 341.244H818.847V374.637H819.939V341.244Z" fill="black"/>
<path d="M824.273 341.244H821.014V374.637H824.273V341.244Z" fill="black"/>
<path d="M829.715 341.244H825.365V374.637H829.715V341.244Z" fill="black"/>
<path d="M832.974 341.244H830.807V374.637H832.974V341.244Z" fill="black"/>
<path d="M836.232 341.244H835.141V374.637H836.232V341.244Z" fill="black"/>
<path d="M841.675 341.244H838.416V374.637H841.675V341.244Z" fill="black"/>
<path d="M846.025 341.244H842.767V374.637H846.025V341.244Z" fill="black"/>
<path d="M849.284 341.244H848.192V374.637H849.284V341.244Z" fill="black"/>
<path d="M852.543 341.244H850.376V374.637H852.543V341.244Z" fill="black"/>
<path d="M855.818 341.244H854.726V374.637H855.818V341.244Z" fill="black"/>
<path d="M857.985 341.244H856.893V374.637H857.985V341.244Z" fill="black"/>
<path d="M864.502 341.244H862.335V374.637H864.502V341.244Z" fill="black"/>
<path d="M868.836 333.165H866.669V374.637H868.836V333.165Z" fill="black"/>
<path d="M875.37 333.165H872.111V374.637H875.37V333.165Z" fill="black"/>
<path d="M877.554 333.165H876.462V374.637H877.554V333.165Z" fill="black"/>
<path d="M880.795 333.165H878.629V374.637H880.795V333.165Z" fill="black"/>
<path d="M851.686 40.4229V76.2513H887.514V40.4229H851.686ZM883.046 54.986V61.7049V71.7832H876.327V61.7049H862.89V71.7832H856.171V61.7049V54.986V44.9077H862.89V54.986H876.327V44.9077H883.046V54.986Z" fill="black"/>
<path d="M755.287 40.4229V76.2513H791.115V40.4229H755.287ZM786.647 51.6266H776.569V65.0644H786.647V71.7832H776.569H769.85H759.772V65.0644H769.85V51.6266H759.772V44.9077H769.85H776.569H786.647V51.6266Z" fill="black"/>
<path d="M839.323 76.2679H803.495V40.4395H839.323V76.2679ZM834.838 51.6264V44.9075H814.682H807.963V51.6264V65.0642V71.783H814.682H834.838V65.0642H814.682V51.6264H834.838ZM826.843 55.8257H823.047V57.0855H826.843V57.7238H823.047V60.8817H828.103V59.6219H824.306V58.9836H828.103V55.8257H826.843ZM834.838 57.0855V55.8257H829.782V58.9836H833.578V59.6219H829.782V60.8817H834.838V57.7238H831.042V57.0855H834.838Z" fill="black"/>
<path d="M577.438 47.2598H570.047V54.6505H577.438V47.2598Z" fill="black"/>
<path d="M584.946 54.6514H577.555V62.0421H584.946V54.6514Z" fill="black"/>
<path d="M577.555 62.041H570.165V69.4318H577.555V62.041Z" fill="black"/>
<path d="M592.32 62.041H584.929V69.4318H592.32V62.041Z" fill="black"/>
<path d="M592.32 47.2598H584.929V54.6505H592.32V47.2598Z" fill="black"/>
<path d="M599.711 54.8184H592.32V62.2091H599.711V54.8184Z" fill="black"/>
<path d="M607.102 47.2598H599.711V54.6505H607.102V47.2598Z" fill="black"/>
<path d="M614.593 54.6514H607.202V62.0421H614.593V54.6514Z" fill="black"/>
<path d="M607.219 62.041H599.829V69.4318H607.219V62.041Z" fill="black"/>
<path d="M621.984 62.041H614.593V69.4318H621.984V62.041Z" fill="black"/>
<path d="M621.984 47.2598H614.593V54.6505H621.984V47.2598Z" fill="black"/>
<path d="M629.375 54.8184H621.984V62.2091H629.375V54.8184Z" fill="black"/>
<path d="M636.766 47.2598H629.375V54.6505H636.766V47.2598Z" fill="black"/>
<path d="M644.257 54.6514H636.866V62.0421H644.257V54.6514Z" fill="black"/>
<path d="M636.866 62.041H629.476V69.4318H636.866V62.041Z" fill="black"/>
<path d="M651.648 62.041H644.257V69.4318H651.648V62.041Z" fill="black"/>
<path d="M651.648 47.2598H644.257V54.6505H651.648V47.2598Z" fill="black"/>
<path d="M515.07 0.580078H488.093V27.5564H515.07V0.580078Z" fill="black"/>
<path d="M567.914 27.5576H922.956" stroke="black" stroke-miterlimit="10"/>
<path d="M567.914 320.433H922.956" stroke="black" stroke-miterlimit="10"/>
<path d="M0.00012207 27.5576H424.701" stroke="black" stroke-miterlimit="10"/>
<path d="M128.7 287.663L215.105 237.456C217.877 235.844 219.573 232.887 219.59 229.696L219.876 129.769C219.876 126.544 218.162 123.554 215.374 121.942L128.415 71.7348C125.626 70.1223 122.166 70.1223 119.378 71.7348L32.9731 121.942C30.2015 123.554 28.505 126.51 28.4882 129.702L28.2026 229.629C28.2026 232.854 29.916 235.844 32.7043 237.456L119.663 287.663C122.452 289.275 125.912 289.275 128.7 287.663Z" fill="#F3F3F3"/>
<path d="M128.7 287.663L215.105 237.456C217.877 235.844 219.573 232.887 219.59 229.696L219.876 129.769C219.876 126.544 218.162 123.554 215.374 121.942L128.415 71.7348C125.626 70.1223 122.166 70.1223 119.378 71.7348L32.9731 121.942C30.2015 123.554 28.505 126.51 28.4882 129.702L28.2026 229.629C28.2026 232.854 29.916 235.844 32.7043 237.456L119.663 287.663C122.452 289.275 125.912 289.275 128.7 287.663Z" stroke="black" stroke-width="1.15" stroke-miterlimit="10"/>
<path d="M131.791 277.064L151.813 265.44L151.897 230.686L191.925 207.422L191.824 242.176L211.83 230.552L212.098 137.882L192.093 149.522L191.992 184.259L151.964 207.523L152.065 172.77L132.06 184.393L131.791 277.064Z" fill="#FAA701"/>
<path d="M116.791 184.41L36.2318 137.882L36.1646 161.062L66.3828 178.497L66.2484 224.824L36.0302 207.389L35.963 230.552L116.539 277.064L116.59 253.9L86.3882 236.448L86.5226 190.121L116.724 207.573L116.791 184.41Z" fill="#ED4250"/>
<path d="M132.362 125.368L136.158 123.185L147.446 129.752L151.209 131.936L141.735 137.395L130.431 130.844L128.549 131.936L139.837 138.504L136.041 140.687L120.99 131.936L130.464 126.46L141.769 133.028L143.65 131.936L132.362 125.368Z" fill="black"/>
<path d="M146.757 140.317L156.231 134.858L171.281 143.593L167.502 145.793L156.197 139.226L154.316 140.317L165.604 146.885L156.13 152.361L141.08 143.61L144.876 141.409L156.164 147.977L158.062 146.885L146.757 140.317Z" fill="black"/>
<path d="M43.3202 124.713L63.4768 113.073L103.773 89.8084L123.93 78.168L143.952 89.8084L204.002 124.713L183.862 136.337L123.796 101.449L83.4991 124.713L143.566 159.618L123.409 171.241L63.3425 136.354L43.3202 124.713Z" fill="#0060E6"/>
<path d="M249.909 103.565V87.6074H255.637V103.565H249.909Z" fill="black"/>
<path d="M268.655 103.832C266.354 103.832 264.439 103.513 262.927 102.892C261.415 102.27 260.273 101.346 259.534 100.12C258.778 98.8938 258.408 97.382 258.408 95.5679C258.408 92.9308 259.282 90.8815 261.029 89.4538C262.776 88.026 265.329 87.3037 268.705 87.3037C270.57 87.3037 272.199 87.5893 273.593 88.1772C275.004 88.7651 276.096 89.5545 276.902 90.596C277.692 91.6206 278.095 92.8132 278.095 94.157H272.518C272.518 93.6027 272.35 93.0988 272.031 92.6788C271.712 92.2421 271.242 91.9061 270.67 91.6542C270.083 91.4022 269.394 91.2846 268.604 91.2846C267.613 91.2846 266.79 91.4694 266.152 91.8222C265.514 92.1749 265.043 92.662 264.741 93.2667C264.439 93.8714 264.287 94.5433 264.287 95.2824V95.8703C264.287 96.5758 264.439 97.2477 264.741 97.8524C265.043 98.4571 265.497 98.961 266.118 99.3305C266.74 99.7001 267.529 99.8848 268.487 99.8848C269.36 99.8848 270.116 99.7672 270.754 99.5321C271.393 99.2969 271.863 98.9778 272.199 98.5578C272.535 98.1379 272.703 97.6508 272.703 97.0965H278.112C278.112 98.3899 277.742 99.5489 276.986 100.574C276.23 101.598 275.155 102.388 273.744 102.976C272.333 103.563 270.637 103.849 268.655 103.849V103.832Z" fill="black"/>
<path d="M287.585 103.565V87.6074H293.313V93.2681H301.829V87.6074H307.557V103.565H301.829V97.6522H293.313V103.565H287.585Z" fill="black"/>
<path d="M309.455 103.565L317.182 87.6074H323.498L331.224 103.565H325.077L324.119 101.448H316.292L315.368 103.565H309.455ZM318.039 97.4842H322.372L321.264 94.7966C321.213 94.679 321.163 94.5111 321.079 94.2927C320.995 94.0911 320.911 93.856 320.827 93.5872C320.726 93.3185 320.642 93.0665 320.558 92.7978C320.474 92.529 320.39 92.2938 320.306 92.0755H320.138C320.037 92.3442 319.937 92.6466 319.819 92.9825C319.701 93.3185 319.567 93.6544 319.466 93.9736C319.366 94.2927 319.248 94.5615 319.147 94.7798L318.039 97.4674V97.4842Z" fill="black"/>
<path d="M341.79 103.832C339.489 103.832 337.574 103.513 336.062 102.892C334.55 102.27 333.408 101.346 332.669 100.12C331.913 98.8938 331.543 97.382 331.543 95.5679C331.543 92.9308 332.417 90.8815 334.164 89.4538C335.911 88.026 338.464 87.3037 341.84 87.3037C343.705 87.3037 345.334 87.5893 346.728 88.1772C348.139 88.7651 349.231 89.5545 350.037 90.596C350.827 91.6206 351.23 92.8132 351.23 94.157H345.653C345.653 93.6027 345.485 93.0988 345.166 92.6788C344.847 92.2421 344.377 91.9061 343.805 91.6542C343.217 91.4022 342.529 91.2846 341.739 91.2846C340.748 91.2846 339.925 91.4694 339.287 91.8222C338.649 92.1749 338.178 92.662 337.876 93.2667C337.574 93.8714 337.422 94.5433 337.422 95.2824V95.8703C337.422 96.5758 337.574 97.2477 337.876 97.8524C338.178 98.4571 338.632 98.961 339.253 99.3305C339.875 99.7001 340.664 99.8848 341.622 99.8848C342.495 99.8848 343.251 99.7672 343.889 99.5321C344.528 99.2969 344.998 98.9778 345.334 98.5578C345.67 98.1379 345.838 97.6508 345.838 97.0965H351.247C351.247 98.3899 350.877 99.5489 350.121 100.574C349.365 101.598 348.29 102.388 346.879 102.976C345.468 103.563 343.772 103.849 341.79 103.849V103.832Z" fill="black"/>
<path d="M353.984 103.565V87.6074H359.712V94.6623L367.439 87.6074H374.544L367.489 94.1247L374.729 103.565H367.741L363.257 97.5514L359.712 100.424V103.548H353.984V103.565Z" fill="black"/>
<path d="M386.957 87.5893V89.6553C386.588 89.6889 386.218 89.8065 385.849 90.0081C385.479 90.2096 385.16 90.512 384.925 90.8815C384.673 91.2678 384.556 91.7214 384.556 92.2589H386.974V96.6262H381.666V92.746C381.666 91.5702 381.918 90.6128 382.405 89.8737C382.893 89.1346 383.548 88.5803 384.371 88.2108C385.194 87.8412 386.05 87.6229 386.974 87.5557L386.957 87.5893Z" fill="black"/>
<path d="M389.192 103.564V102.421C389.192 101.666 389.393 100.977 389.779 100.355C390.166 99.7338 390.703 99.1627 391.342 98.642C391.997 98.1213 392.702 97.6342 393.458 97.1639C394.214 96.6936 394.97 96.24 395.709 95.7697C396.448 95.2994 397.153 94.8963 397.809 94.5099C398.464 94.1404 399.001 93.7708 399.404 93.4013C399.807 93.0318 400.026 92.6622 400.026 92.2591C400.026 91.9567 399.925 91.6712 399.74 91.4192C399.555 91.1673 399.253 90.9825 398.867 90.8313C398.464 90.6969 397.926 90.6298 397.237 90.6298C396.633 90.6298 396.112 90.7305 395.692 90.9153C395.272 91.1001 394.936 91.352 394.718 91.6712C394.499 91.9903 394.382 92.3431 394.382 92.7462V93.2165H389.259C389.259 93.1157 389.242 93.0318 389.242 92.9478V92.6958C389.242 91.604 389.561 90.6466 390.199 89.8403C390.838 89.034 391.778 88.4125 393.055 87.959C394.315 87.5055 395.91 87.2871 397.809 87.2871C399.001 87.2871 400.059 87.3879 401.017 87.5895C401.957 87.791 402.764 88.0934 403.436 88.4965C404.107 88.8996 404.628 89.4036 404.981 90.0083C405.334 90.613 405.518 91.3016 405.518 92.0911C405.518 92.8302 405.317 93.5189 404.897 94.1404C404.477 94.7619 403.923 95.333 403.251 95.8537C402.562 96.3744 401.84 96.8447 401.05 97.2647C400.261 97.6846 399.488 98.0877 398.732 98.4405C398.514 98.5412 398.279 98.642 398.01 98.7596C397.741 98.8772 397.489 99.0116 397.237 99.1123C396.985 99.2299 396.784 99.3307 396.616 99.4315H405.737V103.53H389.225L389.192 103.564Z" fill="black"/>
<path d="M416.537 103.834C414.606 103.834 412.976 103.598 411.683 103.145C410.373 102.691 409.382 102.053 408.727 101.247C408.055 100.44 407.736 99.4831 407.736 98.408H412.792C412.825 98.8784 412.976 99.2647 413.228 99.5838C413.497 99.903 413.867 100.155 414.337 100.323C414.807 100.491 415.362 100.575 416.017 100.575C416.672 100.575 417.276 100.491 417.764 100.306C418.251 100.121 418.62 99.8694 418.889 99.5166C419.158 99.1639 419.275 98.744 419.275 98.2233C419.275 97.7025 419.141 97.2826 418.889 96.9299C418.62 96.5771 418.251 96.3252 417.764 96.1404C417.276 95.9556 416.689 95.8716 416.017 95.8716C415.546 95.8716 415.126 95.922 414.74 96.006C414.354 96.09 414.018 96.2244 413.749 96.3924C413.463 96.5603 413.245 96.7787 413.077 97.0475L408.592 96.5435L409.432 87.6074H423.239V91.622H413.43L413.178 93.9904C413.43 93.8392 413.783 93.6712 414.236 93.52C414.69 93.3521 415.227 93.2177 415.832 93.1001C416.437 92.9825 417.092 92.9321 417.797 92.9321C419.225 92.9321 420.451 93.1337 421.493 93.5536C422.534 93.9736 423.323 94.5783 423.895 95.3845C424.466 96.1908 424.734 97.1818 424.734 98.3576C424.734 99.4159 424.398 100.357 423.743 101.18C423.071 102.003 422.131 102.658 420.905 103.145C419.678 103.632 418.234 103.867 416.571 103.867L416.537 103.834Z" fill="black"/>
<path fill-rule="evenodd" clip-rule="evenodd" d="M257.451 170.115C257.451 171.106 256.645 171.912 255.654 171.912H252.076C251.085 171.912 250.279 171.106 250.279 170.115C250.279 169.124 251.085 168.317 252.076 168.317H255.654C256.645 168.317 257.451 169.124 257.451 170.115Z" fill="black"/>
<path fill-rule="evenodd" clip-rule="evenodd" d="M257.451 159.366C257.451 160.357 256.645 161.163 255.654 161.163H252.076C251.085 161.163 250.279 160.357 250.279 159.366C250.279 158.375 251.085 157.568 252.076 157.568H255.654C256.645 157.568 257.451 158.375 257.451 159.366Z" fill="black"/>
<path fill-rule="evenodd" clip-rule="evenodd" d="M257.451 148.615C257.451 149.606 256.645 150.412 255.654 150.412H252.076C251.085 150.412 250.279 149.606 250.279 148.615C250.279 147.624 251.085 146.817 252.076 146.817H255.654C256.645 146.817 257.451 147.624 257.451 148.615Z" fill="black"/>
<path fill-rule="evenodd" clip-rule="evenodd" d="M314.797 170.115C314.797 171.106 313.99 171.912 312.999 171.912H309.422C308.43 171.912 307.624 171.106 307.624 170.115C307.624 169.124 308.43 168.317 309.422 168.317H312.999C313.99 168.317 314.797 169.124 314.797 170.115Z" fill="black"/>
<path fill-rule="evenodd" clip-rule="evenodd" d="M314.797 159.366C314.797 160.357 313.99 161.163 312.999 161.163H309.422C308.43 161.163 307.624 160.357 307.624 159.366C307.624 158.375 308.43 157.568 309.422 157.568H312.999C313.99 157.568 314.797 158.375 314.797 159.366Z" fill="black"/>
<path fill-rule="evenodd" clip-rule="evenodd" d="M314.797 148.615C314.797 149.606 313.99 150.412 312.999 150.412H309.422C308.43 150.412 307.624 149.606 307.624 148.615C307.624 147.624 308.43 146.817 309.422 146.817H312.999C313.99 146.817 314.797 147.624 314.797 148.615Z" fill="black"/>
<path fill-rule="evenodd" clip-rule="evenodd" d="M372.159 170.115C372.159 171.106 371.353 171.912 370.362 171.912H366.784C365.793 171.912 364.987 171.106 364.987 170.115C364.987 169.124 365.793 168.317 366.784 168.317H370.362C371.353 168.317 372.159 169.124 372.159 170.115Z" fill="black"/>
<path fill-rule="evenodd" clip-rule="evenodd" d="M372.159 159.366C372.159 160.357 371.353 161.163 370.362 161.163H366.784C365.793 161.163 364.987 160.357 364.987 159.366C364.987 158.375 365.793 157.568 366.784 157.568H370.362C371.353 157.568 372.159 158.375 372.159 159.366Z" fill="black"/>
<path fill-rule="evenodd" clip-rule="evenodd" d="M372.159 148.615C372.159 149.606 371.353 150.412 370.362 150.412H366.784C365.793 150.412 364.987 149.606 364.987 148.615C364.987 147.624 365.793 146.817 366.784 146.817H370.362C371.353 146.817 372.159 147.624 372.159 148.615Z" fill="black"/>
<path fill-rule="evenodd" clip-rule="evenodd" d="M271.779 148.615C271.779 149.606 270.973 150.412 269.982 150.412H266.404C265.413 150.412 264.607 149.606 264.607 148.615C264.607 147.624 265.413 146.817 266.404 146.817H269.982C270.973 146.817 271.779 147.624 271.779 148.615Z" fill="black"/>
<path fill-rule="evenodd" clip-rule="evenodd" d="M300.469 148.615C300.469 149.606 299.662 150.412 298.671 150.412H295.094C294.102 150.412 293.296 149.606 293.296 148.615C293.296 147.624 294.102 146.817 295.094 146.817H298.671C299.662 146.817 300.469 147.624 300.469 148.615Z" fill="black"/>
<path fill-rule="evenodd" clip-rule="evenodd" d="M329.142 170.115C329.142 171.106 328.335 171.912 327.344 171.912H323.766C322.775 171.912 321.969 171.106 321.969 170.115C321.969 169.124 322.775 168.317 323.766 168.317H327.344C328.335 168.317 329.142 169.124 329.142 170.115Z" fill="black"/>
<path fill-rule="evenodd" clip-rule="evenodd" d="M357.814 170.165C357.814 171.157 357.008 171.963 356.017 171.963H352.439C351.448 171.963 350.642 171.157 350.642 170.165C350.642 169.174 351.448 168.368 352.439 168.368H356.017C357.008 168.368 357.814 169.174 357.814 170.165Z" fill="black"/>
<path fill-rule="evenodd" clip-rule="evenodd" d="M285.049 148.615C285.049 150.009 283.923 151.118 282.546 151.118C281.169 151.118 280.043 149.992 280.043 148.615C280.043 147.238 281.169 146.112 282.546 146.112C283.923 146.112 285.049 147.238 285.049 148.615Z" fill="black"/>
<path fill-rule="evenodd" clip-rule="evenodd" d="M285.049 159.366C285.049 160.743 283.923 161.869 282.546 161.869C281.169 161.869 280.043 160.743 280.043 159.366C280.043 157.989 281.169 156.863 282.546 156.863C283.923 156.863 285.049 157.989 285.049 159.366Z" fill="black"/>
<path fill-rule="evenodd" clip-rule="evenodd" d="M342.411 170.115C342.411 171.492 341.286 172.618 339.908 172.618C338.531 172.618 337.406 171.492 337.406 170.115C337.406 168.738 338.531 167.612 339.908 167.612C341.286 167.612 342.411 168.738 342.411 170.115Z" fill="black"/>
<path fill-rule="evenodd" clip-rule="evenodd" d="M342.411 159.366C342.411 160.743 341.286 161.869 339.908 161.869C338.531 161.869 337.406 160.743 337.406 159.366C337.406 157.989 338.531 156.863 339.908 156.863C341.286 156.863 342.411 157.989 342.411 159.366Z" fill="black"/>
<path d="M265.245 188.44L264.036 186.139L262.809 188.44H265.228M264.002 184.913H264.086L267.009 190.271H266.202L265.497 188.944H262.524L261.818 190.271H261.046L263.968 184.913H264.002Z" fill="black"/>
<path d="M273.425 187.635C274.685 187.635 275.323 187.248 275.323 186.576C275.323 185.837 274.635 185.552 273.308 185.552H272.787V187.635H273.425ZM272.048 185.048H273.375C275.172 185.048 276.062 185.602 276.062 186.576C276.062 187.315 275.441 187.92 274.416 188.055L276.684 190.289H275.743L273.56 188.139H272.77V190.289H272.031V185.065L272.048 185.048Z" fill="black"/>
<path d="M283.386 189.87C284.192 189.87 284.696 189.483 284.696 188.946C284.696 188.408 284.243 188.14 283.453 187.837L283.016 187.669C282.093 187.317 281.622 186.813 281.622 186.191C281.622 185.435 282.344 184.864 283.436 184.864C284.007 184.864 284.528 185.015 284.931 185.217V185.889C284.394 185.553 283.907 185.402 283.403 185.402C282.731 185.402 282.311 185.721 282.311 186.174C282.311 186.628 282.697 186.914 283.487 187.199L283.923 187.367C284.914 187.737 285.402 188.291 285.402 188.946C285.402 189.803 284.595 190.441 283.386 190.441C282.832 190.441 282.227 190.307 281.589 190.038L281.521 189.299C282.21 189.651 282.781 189.853 283.352 189.853" fill="black"/>
<path d="M291.029 185.048H291.768V187.231H295.262V185.048H296.001V190.272H295.262V187.803H291.768V190.272H291.029V185.048Z" fill="black"/>
<path d="M305.189 188.44L303.979 186.139L302.753 188.44H305.172M303.946 184.913H304.03L306.952 190.271H306.146L305.441 188.944H302.468L301.762 190.271H300.989L303.912 184.913H303.946Z" fill="black"/>
<path d="M311.992 185.048H312.731V189.717H315.67V190.272H311.975V185.048H311.992Z" fill="black"/>
<path d="M320.844 185.048H321.583V189.717H324.539V190.272H320.844V185.048Z" fill="black"/>
<path d="M337.893 190.491L335.709 185.049H336.482L337.96 188.929L339.606 184.881H339.69L341.219 188.929L342.68 185.049H343.419L341.219 190.491H341.135L339.623 186.443L337.994 190.491H337.893Z" fill="black"/>
<path d="M351.347 188.44L350.138 186.139L348.912 188.44H351.331H351.347ZM350.104 184.913H350.188L353.111 190.271H352.305L351.599 188.944H348.626L347.921 190.271H347.148L350.071 184.913H350.104Z" fill="black"/>
<path d="M360.653 190.441C359.931 190.441 359.259 190.239 358.721 189.87C357.949 189.349 357.512 188.56 357.512 187.653C357.512 186.04 358.873 184.864 360.67 184.864C361.325 184.864 361.93 185.032 362.501 185.351L362.417 186.006C361.863 185.62 361.308 185.419 360.67 185.419C359.276 185.419 358.251 186.342 358.251 187.653C358.251 188.963 359.259 189.853 360.636 189.853C361.325 189.853 361.93 189.635 362.551 189.181L362.484 189.92C361.93 190.256 361.291 190.424 360.62 190.424" fill="black"/>
<path d="M368.027 185.048H371.471V185.569H368.749V187.282H371.101V187.819H368.749V189.717H371.504V190.272H368.027V185.048Z" fill="black"/>
<path d="M255.435 184.829L257.619 190.271H256.846L255.368 186.391L253.722 190.439H253.638L252.109 186.391L250.631 190.271H249.892L252.093 184.829H252.177L253.688 188.877L255.318 184.829H255.419H255.435Z" fill="black"/>
<path d="M424.701 295.053V650.095" stroke="black" stroke-miterlimit="10"/>
<path d="M384.455 47.2598H209.008V52.0134H384.455V47.2598Z" fill="#0060E6"/>
<path d="M270.586 47.2598H151.041V52.0134H270.586V47.2598Z" fill="#FAA701"/>
<path d="M155.643 47.2598H-199.467V52.0134H155.643V47.2598Z" fill="black"/>
<path d="M185.525 47.2598H116.287V52.0134H185.525V47.2598Z" fill="#D62D3B"/>
<path d="M424.701 47.2598H401.37V52.0134H424.701V47.2598Z" fill="black"/>
<path d="M585.668 361.854V363.786L585.685 365.684V365.718V367.616V369.547H583.77V371.479H585.719H587.651V369.531V367.599V365.701H589.582V363.769H591.514V365.701H593.446V367.599L593.462 369.531H591.531V371.479H593.462L595.394 371.462V369.531L595.377 367.599V365.667H597.309V363.752V363.719H599.241V361.821H601.139V359.889H603.07V357.957H605.002V356.026H606.934V354.094L606.917 352.162V350.231L606.9 348.299H604.968V350.247V352.179H603.037V354.111H601.105V356.042H599.207H599.173H597.275H595.344V356.009V354.111H593.395V352.179H591.447V350.247H589.498V348.316H587.55V346.384L587.533 344.452V342.521L587.516 340.589V338.657H585.568V336.726H583.619H581.687L579.756 336.742H577.824L575.892 336.759H573.961L572.029 336.776V338.708H570.097V340.639L570.114 342.571V344.503L570.131 346.434H572.063L573.994 346.418H575.926L577.858 346.401V348.332H575.926H573.994V350.281H575.926L577.858 350.264H579.789V352.196V354.127H577.858H575.926V356.076H577.858V358.008H579.789V356.059H581.721V357.991H583.653V359.923H585.584V361.854M581.704 344.452V342.521H583.636V344.452H581.704Z" fill="black"/>
<path d="M665.976 360.678H664.431V357.587H665.976V360.678ZM675.265 357.587H673.72V360.678H675.265V357.587ZM667.521 371.512V369.966H664.431V371.512H667.521ZM662.868 369.966H664.414V368.421H662.868V369.966ZM672.157 369.966V371.512H675.248V369.966H672.157ZM676.81 369.966V368.421H675.265V369.966H676.81ZM676.81 363.785V366.876H675.265V368.421H664.431V366.876H662.885V363.785H664.431V362.24H665.976V360.694H673.72V362.24H675.265V363.785H676.81ZM673.703 363.785H670.612V365.33H673.703V363.785ZM665.976 363.785V365.33H669.067V363.785H665.976Z" fill="black"/>
<path d="M675.433 343.074L675.231 342.402L674.559 342.586L674.358 341.915L673.686 342.116L673.484 341.444L672.812 341.646L672.611 340.974L671.939 341.175L671.737 340.487L671.049 340.688L670.864 340.016L670.175 340.218L669.974 339.529L669.302 339.731L669.1 339.059L668.428 339.261L668.227 338.589L667.538 338.79L667.336 338.102L666.665 338.303L666.463 337.631L665.791 337.833L665.59 337.161L664.918 337.363L664.716 336.674L664.044 336.875L663.356 337.077L663.557 337.749L663.759 338.438L663.96 339.109L664.162 339.781L664.363 340.47L664.565 341.142L664.767 341.814L664.968 342.486L665.17 343.174L665.371 343.846L665.573 344.518L665.758 345.19L665.959 345.879L666.161 346.551L666.362 347.222L666.564 347.911L666.765 348.583L666.967 349.255L667.169 349.927L667.37 350.616L668.042 350.414L668.714 350.212L668.512 349.54L669.201 349.339L668.999 348.667L669.671 348.465L669.47 347.777L670.142 347.575L670.83 347.374L671.032 348.062L671.233 348.734L671.905 348.533L672.107 349.205L672.779 349.02L672.98 349.692L673.652 349.49L674.341 349.289L675.013 349.087L674.811 348.415L674.61 347.726L674.408 347.055L674.207 346.383L673.535 346.584L673.333 345.912L673.132 345.224L672.46 345.425L672.258 344.753L672.93 344.552L673.619 344.35L674.291 344.149L674.962 343.947L675.634 343.745L676.323 343.544L676.121 342.872L675.433 343.074Z" fill="black"/>
<path d="M534.269 371.511V336.674H527.214V371.511H534.269Z" fill="#0060E6"/>
<path d="M520.361 371.511V336.674H513.306V371.511H520.361Z" fill="#D62D3B"/>
<path d="M548.16 371.511V336.674H541.105V371.511H548.16Z" fill="#FAA701"/>
<path d="M495.551 342.906H488.093V350.364H495.551V342.906Z" fill="black"/>
<path d="M503.009 350.365H495.551V357.823H503.009V350.365Z" fill="black"/>
<path d="M495.551 357.822H488.093V365.28H495.551V357.822Z" fill="black"/>
<path d="M626.469 338.925H625.343V343.426H626.469V338.925Z" fill="black"/>
<path d="M634.33 338.925H633.205V345.661H634.33V338.925Z" fill="black"/>
<path d="M633.204 345.678H632.079V351.305H633.204V345.678Z" fill="black"/>
<path d="M632.079 336.674H627.577V337.799H632.079V336.674Z" fill="black"/>
<path d="M633.204 337.799H632.079V338.924H633.204V337.799Z" fill="black"/>
<path d="M627.594 337.799H626.469V338.924H627.594V337.799Z" fill="black"/>
<path d="M627.594 346.785H626.469V347.911H627.594V346.785Z" fill="black"/>
<path d="M625.343 343.426H624.218V344.551H625.343V343.426Z" fill="black"/>
<path d="M626.469 345.678H624.218V346.803H626.469V345.678Z" fill="black"/>
<path d="M624.218 344.553H623.093V345.678H624.218V344.553Z" fill="black"/>
<path d="M628.703 347.912H627.577V351.288H628.703V347.912Z" fill="black"/>
<path d="M627.594 351.288H626.469V352.413H627.594V351.288Z" fill="black"/>
<path d="M626.469 352.413H625.343V353.538H626.469V352.413Z" fill="black"/>
<path d="M624.218 354.664V355.789H625.343V354.664V353.538H624.218V354.664Z" fill="black"/>
<path d="M624.218 355.789H623.093V361.416H624.218V355.789Z" fill="black"/>
<path d="M625.343 361.398H624.218V363.649H625.343V361.398Z" fill="black"/>
<path d="M626.469 363.649H625.343V364.775H626.469V363.649Z" fill="black"/>
<path d="M635.455 351.288H633.205V352.413H635.455V351.288Z" fill="black"/>
<path d="M637.706 352.413H635.455V353.538H637.706V352.413Z" fill="black"/>
<path d="M639.957 353.538H637.706V354.664H639.957V353.538Z" fill="black"/>
<path d="M643.316 354.664H639.94V355.789H643.316V354.664Z" fill="black"/>
<path d="M628.72 364.776H626.469V365.902H628.72V364.776Z" fill="black"/>
<path d="M645.567 355.789H644.442V356.914H645.567V355.789Z" fill="black"/>
<path d="M645.567 353.538H643.316V354.664H645.567V353.538Z" fill="black"/>
<path d="M646.693 354.664H645.567V355.789H646.693V354.664Z" fill="black"/>
<path d="M643.316 358.039H642.191V359.148H644.442V360.274H645.567V358.039H644.442V356.914H643.316V358.039Z" fill="black"/>
<path d="M643.316 361.398H642.191V362.524H643.316V361.398Z" fill="black"/>
<path d="M644.442 360.273H643.316V361.399H644.442V360.273Z" fill="black"/>
<path d="M641.082 363.649H637.706V364.775H641.082V363.649Z" fill="black"/>
<path d="M642.191 362.524H641.066V363.65H642.191V362.524Z" fill="black"/>
<path d="M642.191 356.914H639.94V358.039H642.191V356.914Z" fill="black"/>
<path d="M628.703 370.386H629.828V367.027H630.954V371.512H632.079V367.027H634.33V370.386H635.455V367.027V365.901H628.703V367.027V370.386Z" fill="black"/>
<path d="M637.706 364.776H636.581V371.512H637.706V364.776Z" fill="black"/>
<path d="M628.703 370.387H627.577V371.512H628.703V370.387Z" fill="black"/>
<path d="M634.33 370.387H633.205V371.512H634.33V370.387Z" fill="black"/>
<path d="M643.316 354.664V355.79H639.94V354.664H637.689V353.539H635.439V352.413H633.188V351.288H632.062V345.661H633.188V338.925H632.062V337.8H627.561V338.925H626.435V342.301H628.686V343.427H629.812V345.678H626.435V346.803H627.561V347.929H628.686V351.305H627.561V352.43H626.435V353.556H625.31V355.806H624.184V361.433H625.31V363.684H626.435V364.81H628.686V365.935H636.547V364.81H637.673V363.684H641.049V362.559H642.174V361.433H643.3V360.308H644.425V359.183H642.174V358.057H639.923V356.932H642.174V358.057H643.3V356.932H644.425V355.806H645.551V354.681H643.3L643.316 354.664ZM630.954 342.301V341.176H632.079V343.427H630.954V342.301Z" fill="black"/>
<path d="M261.734 120.664V128.055H252.865V132.489H249.909V120.664H261.734ZM258.778 123.62H252.865V125.099H258.778V123.62Z" fill="black"/>
<path d="M277.507 120.664V132.489H265.682V120.664H277.507ZM274.551 123.62H268.638V129.533H274.551V123.62Z" fill="black"/>
<path d="M290.323 120.664H293.28V132.489H288.106V129.533H286.628V132.489H281.454V120.664H284.411V129.533H285.889V126.577H288.845V129.533H290.323V120.664Z" fill="black"/>
<path d="M300.183 123.62V125.099H306.096V128.055H300.183V129.533H309.052V132.489H297.227V120.664H309.052V123.62H300.183Z" fill="black"/>
<path d="M324.841 120.664V125.099H323.347V128.055H324.841V132.489H321.885V128.055H315.973V132.489H313.016V120.664H324.841ZM321.885 123.62H315.973V125.099H321.885V123.62Z" fill="black"/>
<path d="M331.745 123.62V125.099H337.658V128.055H331.745V129.533H340.614V132.489H328.789V120.664H340.614V123.62H331.745Z" fill="black"/>
<path d="M356.387 122.142V131.011H353.43V132.489H344.561V120.664H353.43V122.142H356.387ZM353.43 123.62H347.518V129.533H353.43V123.62Z" fill="black"/>
<path d="M387.949 122.142V131.011H384.992V132.489H376.123V120.664H384.992V122.142H387.949ZM384.992 123.62H379.08V125.099H384.992V123.62ZM384.992 128.055H379.08V129.533H384.992V128.055Z" fill="black"/>
<path d="M403.721 120.664V125.099H402.243V128.055H399.287V132.489H396.33V128.055H393.374V125.099H391.896V120.664H394.852V125.099H400.765V120.664H403.721Z" fill="black"/>
</g>
<path d="M573.188 178.865V181.099H583.77V185.584H573.188V192.303H567.897V174.363H589.045V178.848H573.171L573.188 178.865Z" fill="black"/>
<path d="M601.407 178.865V181.099H611.99V185.584H601.407V187.818H617.281V192.303H596.133V174.363H617.281V178.848H601.407V178.865Z" fill="black"/>
<path d="M645.466 176.631V190.068H640.175V192.319H624.302V174.38H640.175V176.631H645.466ZM640.175 178.865H629.593V181.099H640.175V178.865ZM640.175 185.6H629.593V187.834H640.175V185.6Z" fill="black"/>
<path d="M589.061 216.524V221.009H567.914V216.524H575.842V207.554H567.914V203.069H581.133V216.524H589.061Z" fill="black"/>
<path d="M596.116 209.805H617.264V214.29H596.116V209.805Z" fill="black"/>
<path d="M645.466 203.069V214.273H629.593V216.507H645.466V220.992H624.319V209.788H640.192V207.554H624.319V203.069H645.466Z" fill="black"/>
<path d="M670.797 182.711V174.53H672.863V182.711H670.797Z" fill="black"/>
<path d="M675.047 182.711V174.53H678.255L679.934 178.478C680.002 178.612 680.069 178.797 680.153 179.015C680.237 179.233 680.321 179.469 680.422 179.721C680.522 179.973 680.59 180.191 680.674 180.376H680.758C680.825 180.208 680.892 180.006 680.976 179.771C681.06 179.536 681.144 179.317 681.245 179.082C681.329 178.847 681.413 178.662 681.48 178.494L683.176 174.547H686.301V182.727H684.251V178.041C684.251 177.89 684.251 177.722 684.251 177.537C684.251 177.352 684.251 177.184 684.268 176.999C684.268 176.831 684.268 176.664 684.268 176.529H684.167C684.134 176.664 684.067 176.831 683.999 176.999C683.932 177.167 683.865 177.369 683.798 177.554C683.731 177.739 683.68 177.89 683.613 178.024L681.581 182.711H679.632L677.6 178.024C677.516 177.839 677.449 177.655 677.365 177.47C677.297 177.285 677.23 177.1 677.18 176.932C677.129 176.764 677.079 176.63 677.045 176.512H676.945C676.945 176.613 676.945 176.748 676.961 176.915C676.961 177.083 676.961 177.268 676.961 177.453C676.961 177.638 676.961 177.823 676.961 178.007V182.694H674.996L675.047 182.711Z" fill="black"/>
<path d="M688.468 182.711V174.53H694.599C695.136 174.53 695.59 174.648 695.993 174.883C696.396 175.118 696.698 175.437 696.917 175.84C697.135 176.244 697.252 176.714 697.252 177.251C697.252 177.789 697.135 178.259 696.917 178.679C696.698 179.099 696.379 179.418 695.976 179.653C695.573 179.889 695.102 180.006 694.565 180.006H690.534V182.727H688.468V182.711ZM690.517 178.36H693.977C694.38 178.36 694.683 178.259 694.901 178.074C695.119 177.89 695.22 177.621 695.22 177.268C695.22 177.033 695.17 176.848 695.069 176.68C694.968 176.512 694.834 176.395 694.649 176.294C694.464 176.21 694.246 176.16 693.977 176.16H690.517V178.36Z" fill="black"/>
<path d="M698.68 182.711V174.53H707.062V176.143H700.729V177.755H706.323V179.351H700.729V181.081H707.146V182.711H698.663H698.68Z" fill="black"/>
<path d="M708.994 182.711V174.53H715.612C716.2 174.53 716.687 174.648 717.056 174.883C717.426 175.118 717.711 175.437 717.913 175.824C718.098 176.21 718.199 176.647 718.199 177.117C718.199 177.587 718.081 178.074 717.829 178.494C717.577 178.914 717.208 179.25 716.687 179.502L718.383 182.711H716.065L714.621 179.872H711.043V182.711H708.977H708.994ZM711.06 178.259H715.007C715.343 178.259 715.612 178.158 715.797 177.957C715.981 177.755 716.082 177.487 716.082 177.184C716.082 176.966 716.032 176.781 715.948 176.63C715.864 176.479 715.729 176.361 715.578 176.277C715.427 176.193 715.225 176.16 714.99 176.16H711.043V178.276L711.06 178.259Z" fill="black"/>
<path d="M720.013 182.711V174.53H722.079V182.711H720.013Z" fill="black"/>
<path d="M723.422 182.711L727.487 174.53H729.805L733.87 182.711H731.636L730.914 181.232H726.261L725.539 182.711H723.422ZM727 179.653H730.158L729.285 177.789C729.285 177.789 729.201 177.587 729.134 177.436C729.066 177.285 728.999 177.117 728.932 176.949C728.865 176.781 728.798 176.63 728.747 176.496C728.697 176.361 728.663 176.277 728.646 176.244H728.546C728.478 176.395 728.411 176.58 728.327 176.781C728.243 176.983 728.159 177.167 728.092 177.352C728.008 177.537 727.958 177.688 727.891 177.806L727.017 179.67L727 179.653Z" fill="black"/>
<path d="M735.197 182.711V174.53H737.263V180.98H742.487V182.727H735.214L735.197 182.711Z" fill="black"/>
<path d="M752.347 182.862C751.222 182.862 750.281 182.694 749.542 182.374C748.786 182.055 748.215 181.568 747.846 180.947C747.476 180.325 747.275 179.536 747.275 178.612C747.275 177.268 747.711 176.227 748.568 175.488C749.425 174.748 750.684 174.379 752.331 174.379C753.254 174.379 754.077 174.513 754.783 174.782C755.488 175.051 756.043 175.437 756.446 175.941C756.849 176.445 757.034 177.033 757.034 177.722H755.018C755.018 177.352 754.9 177.05 754.682 176.781C754.464 176.529 754.145 176.327 753.725 176.193C753.305 176.059 752.834 175.991 752.28 175.991C751.675 175.991 751.155 176.092 750.718 176.294C750.281 176.495 749.945 176.781 749.71 177.134C749.475 177.503 749.357 177.94 749.357 178.444V178.746C749.357 179.25 749.475 179.687 749.71 180.056C749.945 180.426 750.281 180.711 750.718 180.913C751.155 181.115 751.675 181.215 752.28 181.215C752.885 181.215 753.355 181.148 753.775 181.031C754.195 180.913 754.514 180.711 754.733 180.46C754.951 180.208 755.068 179.888 755.068 179.536H757.034C757.034 180.208 756.832 180.795 756.446 181.299C756.06 181.803 755.505 182.19 754.8 182.458C754.094 182.727 753.271 182.862 752.314 182.862H752.347Z" fill="black"/>
<path d="M763.837 182.862C762.745 182.862 761.804 182.694 761.015 182.358C760.225 182.022 759.604 181.535 759.167 180.913C758.73 180.275 758.529 179.519 758.529 178.612C758.529 177.705 758.747 176.949 759.167 176.311C759.604 175.672 760.208 175.202 761.015 174.866C761.821 174.53 762.762 174.379 763.837 174.379C764.912 174.379 765.869 174.547 766.675 174.866C767.482 175.185 768.086 175.672 768.506 176.311C768.926 176.949 769.145 177.705 769.145 178.612C769.145 179.519 768.926 180.275 768.506 180.913C768.086 181.551 767.465 182.022 766.675 182.358C765.886 182.694 764.928 182.862 763.837 182.862ZM763.837 181.215C764.307 181.215 764.727 181.165 765.13 181.047C765.533 180.93 765.852 180.779 766.138 180.577C766.423 180.376 766.642 180.107 766.793 179.804C766.944 179.485 767.028 179.133 767.028 178.746V178.477C767.028 178.074 766.944 177.722 766.793 177.419C766.642 177.1 766.423 176.848 766.138 176.647C765.852 176.445 765.516 176.277 765.13 176.176C764.744 176.075 764.307 176.008 763.837 176.008C763.366 176.008 762.946 176.059 762.543 176.176C762.157 176.277 761.821 176.445 761.535 176.647C761.25 176.848 761.031 177.117 760.88 177.419C760.729 177.722 760.645 178.074 760.645 178.477V178.746C760.645 179.149 760.729 179.502 760.88 179.804C761.031 180.124 761.25 180.376 761.535 180.577C761.821 180.779 762.157 180.947 762.543 181.047C762.93 181.148 763.366 181.215 763.837 181.215Z" fill="black"/>
<path d="M770.975 182.711V174.53H773.041V180.98H778.265V182.727H770.992L770.975 182.711Z" fill="black"/>
<path d="M779.676 182.711V174.53H781.742V180.98H786.966V182.727H779.693L779.676 182.711Z" fill="black"/>
<path d="M788.377 182.711V174.53H796.759V176.143H790.427V177.755H796.02V179.351H790.427V181.081H796.843V182.711H788.361H788.377Z" fill="black"/>
<path d="M803.293 182.861C801.647 182.861 800.404 182.508 799.564 181.82C798.741 181.114 798.321 180.056 798.321 178.645C798.321 177.721 798.54 176.932 798.96 176.31C799.38 175.672 800.001 175.202 800.807 174.882C801.614 174.563 802.588 174.412 803.713 174.412C804.435 174.412 805.091 174.479 805.679 174.597C806.283 174.714 806.804 174.916 807.241 175.168C807.694 175.42 808.03 175.739 808.265 176.125C808.5 176.512 808.618 176.948 808.618 177.469H806.619C806.619 177.2 806.535 176.982 806.384 176.797C806.233 176.613 806.014 176.461 805.746 176.361C805.477 176.243 805.175 176.176 804.839 176.109C804.503 176.058 804.15 176.025 803.764 176.025C803.276 176.025 802.823 176.075 802.403 176.176C801.983 176.277 801.63 176.428 801.345 176.629C801.042 176.831 800.824 177.083 800.656 177.402C800.488 177.704 800.404 178.074 800.404 178.494V178.779C800.404 179.367 800.539 179.838 800.79 180.207C801.042 180.577 801.412 180.829 801.866 180.997C802.336 181.165 802.89 181.249 803.545 181.249C804.2 181.249 804.788 181.181 805.225 181.064C805.678 180.946 806.014 180.778 806.25 180.543C806.485 180.308 806.602 180.039 806.602 179.72V179.636H803.461V178.158H808.601V182.727H807.358L807.157 181.685C806.854 181.971 806.502 182.189 806.098 182.357C805.695 182.525 805.259 182.66 804.771 182.744C804.284 182.828 803.78 182.861 803.243 182.861H803.293Z" fill="black"/>
<path d="M810.751 182.711V174.53H819.133V176.143H812.801V177.755H818.394V179.351H812.801V181.081H819.217V182.711H810.734H810.751Z" fill="black"/>
<path d="M824.777 182.711V174.53H826.843V180.98H832.067V182.727H824.794L824.777 182.711Z" fill="black"/>
<path d="M837.845 182.862C836.753 182.862 835.813 182.694 835.023 182.358C834.234 182.022 833.612 181.535 833.176 180.913C832.739 180.275 832.537 179.519 832.537 178.612C832.537 177.705 832.756 176.949 833.176 176.311C833.612 175.672 834.217 175.202 835.023 174.866C835.829 174.53 836.77 174.379 837.845 174.379C838.92 174.379 839.878 174.547 840.684 174.866C841.49 175.185 842.095 175.672 842.515 176.311C842.935 176.949 843.153 177.705 843.153 178.612C843.153 179.519 842.935 180.275 842.515 180.913C842.095 181.551 841.473 182.022 840.684 182.358C839.894 182.694 838.937 182.862 837.845 182.862ZM837.845 181.215C838.315 181.215 838.735 181.165 839.139 181.047C839.542 180.93 839.861 180.779 840.146 180.577C840.432 180.376 840.65 180.107 840.801 179.804C840.953 179.485 841.037 179.133 841.037 178.746V178.477C841.037 178.074 840.953 177.722 840.801 177.419C840.65 177.1 840.432 176.848 840.146 176.647C839.861 176.445 839.525 176.277 839.139 176.176C838.752 176.075 838.315 176.008 837.845 176.008C837.375 176.008 836.955 176.059 836.552 176.176C836.165 176.277 835.829 176.445 835.544 176.647C835.258 176.848 835.04 177.117 834.889 177.419C834.738 177.722 834.654 178.074 834.654 178.477V178.746C834.654 179.149 834.738 179.502 834.889 179.804C835.04 180.124 835.258 180.376 835.544 180.577C835.829 180.779 836.165 180.947 836.552 181.047C836.938 181.148 837.375 181.215 837.845 181.215Z" fill="black"/>
<path d="M844.984 182.711V174.53H846.882L851.266 178.646C851.35 178.713 851.468 178.814 851.602 178.965C851.736 179.099 851.871 179.233 852.005 179.385C852.156 179.536 852.274 179.653 852.375 179.771H852.475C852.475 179.62 852.459 179.418 852.442 179.166C852.442 178.931 852.425 178.73 852.425 178.578V174.547H854.39V182.727H852.526L848.175 178.612C847.974 178.427 847.755 178.209 847.537 177.974C847.319 177.739 847.134 177.554 847 177.419H846.899C846.899 177.52 846.899 177.705 846.916 177.94C846.916 178.192 846.916 178.461 846.916 178.78V182.727H844.95L844.984 182.711Z" fill="black"/>
<path d="M856.591 182.711V174.53H861.042C862.05 174.53 862.923 174.681 863.646 175.001C864.368 175.32 864.922 175.773 865.309 176.378C865.695 176.983 865.896 177.739 865.896 178.629C865.896 179.519 865.695 180.258 865.309 180.863C864.922 181.468 864.368 181.938 863.646 182.24C862.923 182.559 862.05 182.711 861.042 182.711H856.591ZM858.657 181.081H860.941C861.361 181.081 861.731 181.031 862.083 180.93C862.436 180.829 862.722 180.678 862.991 180.493C863.259 180.309 863.444 180.057 863.578 179.771C863.713 179.485 863.78 179.15 863.78 178.763V178.494C863.78 178.108 863.713 177.772 863.578 177.487C863.444 177.201 863.243 176.949 862.991 176.764C862.739 176.58 862.436 176.428 862.083 176.311C861.731 176.193 861.361 176.16 860.941 176.16H858.657V181.098V181.081Z" fill="black"/>
<path d="M872.683 182.862C871.591 182.862 870.65 182.694 869.861 182.358C869.071 182.022 868.45 181.535 868.013 180.913C867.576 180.275 867.375 179.519 867.375 178.612C867.375 177.705 867.593 176.949 868.013 176.311C868.45 175.672 869.054 175.202 869.861 174.866C870.667 174.53 871.607 174.379 872.683 174.379C873.758 174.379 874.715 174.547 875.521 174.866C876.328 175.185 876.932 175.672 877.352 176.311C877.772 176.949 877.99 177.705 877.99 178.612C877.99 179.519 877.772 180.275 877.352 180.913C876.932 181.551 876.311 182.022 875.521 182.358C874.732 182.694 873.774 182.862 872.683 182.862ZM872.683 181.215C873.153 181.215 873.573 181.165 873.976 181.047C874.379 180.93 874.698 180.779 874.984 180.577C875.269 180.376 875.488 180.107 875.639 179.804C875.79 179.485 875.874 179.133 875.874 178.746V178.477C875.874 178.074 875.79 177.722 875.639 177.419C875.488 177.1 875.269 176.848 874.984 176.647C874.698 176.445 874.362 176.277 873.976 176.176C873.59 176.075 873.153 176.008 872.683 176.008C872.212 176.008 871.792 176.059 871.389 176.176C871.003 176.277 870.667 176.445 870.381 176.647C870.096 176.848 869.877 177.117 869.726 177.419C869.575 177.722 869.491 178.074 869.491 178.477V178.746C869.491 179.149 869.575 179.502 869.726 179.804C869.877 180.124 870.096 180.376 870.381 180.577C870.667 180.779 871.003 180.947 871.389 181.047C871.776 181.148 872.212 181.215 872.683 181.215Z" fill="black"/>
<path d="M879.821 182.711V174.53H881.719L886.104 178.646C886.188 178.713 886.305 178.814 886.439 178.965C886.574 179.099 886.708 179.233 886.843 179.385C886.994 179.536 887.111 179.653 887.212 179.771H887.313C887.313 179.62 887.296 179.418 887.279 179.166C887.279 178.931 887.262 178.73 887.262 178.578V174.547H889.228V182.727H887.363L883.013 178.612C882.811 178.427 882.593 178.209 882.375 177.974C882.156 177.739 881.971 177.554 881.837 177.419H881.736C881.736 177.52 881.736 177.705 881.753 177.94C881.753 178.192 881.753 178.461 881.753 178.78V182.727H879.788L879.821 182.711Z" fill="black"/>
<path d="M770.303 220.539C769.111 220.539 768.086 220.371 767.23 220.052C766.373 219.733 765.684 219.263 765.13 218.641C764.592 218.02 764.189 217.28 763.937 216.39C763.685 215.517 763.551 214.492 763.551 213.35C763.551 212.208 763.685 211.2 763.937 210.31C764.189 209.436 764.592 208.68 765.13 208.059C765.667 207.437 766.356 206.967 767.213 206.665C768.069 206.346 769.094 206.194 770.287 206.194C771.479 206.194 772.504 206.346 773.36 206.665C774.217 206.984 774.906 207.454 775.46 208.059C775.998 208.68 776.401 209.419 776.653 210.31C776.905 211.183 777.022 212.208 777.022 213.35C777.022 214.492 776.905 215.5 776.653 216.39C776.401 217.264 776.014 218.02 775.477 218.641C774.939 219.263 774.251 219.733 773.394 220.052C772.537 220.371 771.513 220.539 770.32 220.539H770.303ZM770.303 218.238C771.143 218.238 771.832 218.07 772.336 217.751C772.84 217.415 773.209 216.928 773.428 216.273C773.663 215.618 773.764 214.795 773.764 213.787V212.896C773.764 211.922 773.646 211.099 773.428 210.444C773.193 209.789 772.84 209.302 772.336 208.983C771.832 208.664 771.16 208.496 770.303 208.496C769.447 208.496 768.792 208.664 768.288 208.983C767.784 209.302 767.414 209.789 767.179 210.444C766.944 211.099 766.843 211.905 766.843 212.896V213.787C766.843 214.778 766.961 215.601 767.179 216.273C767.414 216.928 767.784 217.432 768.288 217.751C768.792 218.087 769.464 218.238 770.303 218.238Z" fill="black"/>
<path d="M785.606 220.539C784.329 220.539 783.237 220.355 782.313 220.002C781.39 219.649 780.684 219.128 780.197 218.456C779.71 217.785 779.458 216.962 779.458 216.004H782.515C782.515 216.525 782.649 216.962 782.901 217.281C783.17 217.617 783.523 217.852 783.993 218.003C784.463 218.154 785.001 218.238 785.606 218.238C786.563 218.238 787.302 218.07 787.856 217.717C788.394 217.381 788.78 216.878 788.999 216.222C789.217 215.567 789.335 214.761 789.335 213.804C788.965 214.19 788.528 214.509 788.008 214.744C787.487 214.979 786.949 215.147 786.412 215.248C785.874 215.349 785.337 215.383 784.867 215.383C783.691 215.383 782.649 215.215 781.759 214.862C780.869 214.509 780.18 214.005 779.676 213.333C779.172 212.661 778.937 211.872 778.937 210.965C778.937 209.957 779.223 209.1 779.811 208.378C780.399 207.656 781.188 207.118 782.196 206.749C783.204 206.379 784.38 206.178 785.706 206.178C786.815 206.178 787.806 206.312 788.663 206.564C789.519 206.816 790.242 207.219 790.83 207.757C791.418 208.294 791.854 209 792.157 209.873C792.459 210.747 792.61 211.771 792.61 212.964C792.61 214.324 792.459 215.483 792.14 216.424C791.838 217.381 791.384 218.154 790.779 218.759C790.175 219.364 789.452 219.8 788.579 220.086C787.705 220.371 786.697 220.506 785.572 220.506L785.606 220.539ZM785.706 213.233C786.462 213.233 787.101 213.132 787.621 212.93C788.142 212.729 788.545 212.443 788.814 212.09C789.083 211.738 789.234 211.318 789.234 210.831C789.234 210.377 789.099 209.974 788.814 209.604C788.528 209.235 788.142 208.966 787.621 208.781C787.101 208.58 786.462 208.496 785.723 208.496C784.984 208.496 784.363 208.597 783.842 208.781C783.305 208.983 782.901 209.252 782.616 209.604C782.33 209.957 782.196 210.394 782.196 210.881C782.196 211.334 782.33 211.738 782.582 212.09C782.834 212.443 783.237 212.712 783.758 212.913C784.279 213.115 784.934 213.216 785.69 213.216L785.706 213.233Z" fill="black"/>
<path d="M795.046 213.031V209.672H798.808V213.031H795.046ZM795.046 220.288V216.928H798.808V220.288H795.046Z" fill="black"/>
<path d="M807.946 220.539C806.753 220.539 805.729 220.371 804.872 220.052C804.015 219.733 803.327 219.263 802.772 218.641C802.235 218.02 801.832 217.28 801.58 216.39C801.328 215.517 801.193 214.492 801.193 213.35C801.193 212.208 801.328 211.2 801.58 210.31C801.832 209.436 802.235 208.68 802.772 208.059C803.31 207.437 803.999 206.967 804.855 206.665C805.712 206.346 806.737 206.194 807.929 206.194C809.122 206.194 810.146 206.346 811.003 206.665C811.86 206.984 812.548 207.454 813.103 208.059C813.64 208.68 814.043 209.419 814.295 210.31C814.547 211.183 814.665 212.208 814.665 213.35C814.665 214.492 814.547 215.5 814.295 216.39C814.043 217.264 813.657 218.02 813.12 218.641C812.582 219.263 811.893 219.733 811.037 220.052C810.18 220.371 809.155 220.539 807.963 220.539H807.946ZM807.946 218.238C808.786 218.238 809.475 218.07 809.978 217.751C810.482 217.415 810.852 216.928 811.07 216.273C811.305 215.618 811.406 214.795 811.406 213.787V212.896C811.406 211.922 811.289 211.099 811.07 210.444C810.835 209.789 810.482 209.302 809.978 208.983C809.475 208.664 808.803 208.496 807.946 208.496C807.089 208.496 806.434 208.664 805.93 208.983C805.426 209.302 805.057 209.789 804.822 210.444C804.587 211.099 804.486 211.905 804.486 212.896V213.787C804.486 214.778 804.603 215.601 804.822 216.273C805.057 216.928 805.426 217.432 805.93 217.751C806.434 218.087 807.106 218.238 807.946 218.238Z" fill="black"/>
<path d="M823.45 220.539C822.257 220.539 821.233 220.371 820.376 220.052C819.519 219.733 818.831 219.263 818.276 218.641C817.739 218.02 817.336 217.28 817.084 216.39C816.832 215.517 816.697 214.492 816.697 213.35C816.697 212.208 816.832 211.2 817.084 210.31C817.336 209.436 817.739 208.68 818.276 208.059C818.814 207.437 819.502 206.967 820.359 206.665C821.216 206.346 822.24 206.194 823.433 206.194C824.626 206.194 825.65 206.346 826.507 206.665C827.364 206.984 828.052 207.454 828.607 208.059C829.144 208.68 829.547 209.419 829.799 210.31C830.051 211.183 830.169 212.208 830.169 213.35C830.169 214.492 830.051 215.5 829.799 216.39C829.547 217.264 829.161 218.02 828.623 218.641C828.086 219.263 827.397 219.733 826.54 220.052C825.684 220.371 824.659 220.539 823.467 220.539H823.45ZM823.45 218.238C824.29 218.238 824.978 218.07 825.482 217.751C825.986 217.415 826.356 216.928 826.574 216.273C826.809 215.618 826.91 214.795 826.91 213.787V212.896C826.91 211.922 826.792 211.099 826.574 210.444C826.339 209.789 825.986 209.302 825.482 208.983C824.978 208.664 824.306 208.496 823.45 208.496C822.593 208.496 821.938 208.664 821.434 208.983C820.93 209.302 820.561 209.789 820.326 210.444C820.09 211.099 819.99 211.905 819.99 212.896V213.787C819.99 214.778 820.107 215.601 820.326 216.273C820.561 216.928 820.93 217.432 821.434 217.751C821.938 218.087 822.61 218.238 823.45 218.238Z" fill="black"/>
<path d="M657.745 234.833V320.432" stroke="black" stroke-miterlimit="10"/>
<path d="M564.957 234.833H920" stroke="black" stroke-miterlimit="10"/>
<path d="M677.012 208.981C676.928 207.94 676.273 207.419 675.08 207.419C674.543 207.419 674.139 207.537 673.837 207.755C673.535 207.974 673.384 208.276 673.384 208.662C673.384 209.015 673.501 209.267 673.719 209.401C673.938 209.536 674.425 209.704 675.181 209.889C675.382 209.939 675.534 209.989 675.634 210.006C676.625 210.258 677.297 210.476 677.65 210.678C678.439 211.098 678.826 211.753 678.826 212.66C678.826 213.046 678.759 213.399 678.624 213.718C678.49 214.037 678.305 214.289 678.087 214.508C677.868 214.726 677.6 214.894 677.297 215.028C676.995 215.163 676.676 215.264 676.34 215.331C676.004 215.398 675.668 215.432 675.298 215.432C674.19 215.432 673.283 215.163 672.594 214.642C671.905 214.105 671.569 213.332 671.569 212.307H673.098C673.098 212.946 673.316 213.433 673.736 213.752C674.156 214.071 674.711 214.222 675.399 214.222C676.004 214.222 676.457 214.105 676.793 213.853C677.129 213.601 677.297 213.265 677.297 212.828C677.297 212.543 677.213 212.324 677.028 212.139C676.844 211.955 676.659 211.837 676.457 211.753C676.256 211.686 675.886 211.568 675.382 211.434C675.332 211.434 675.282 211.4 675.248 211.4C674.139 211.115 673.417 210.88 673.064 210.695C672.342 210.325 671.956 209.737 671.905 208.965V208.797C671.905 208.007 672.208 207.386 672.796 206.915C673.383 206.445 674.19 206.21 675.181 206.21C676.172 206.21 676.928 206.445 677.532 206.899C678.137 207.352 678.456 208.058 678.49 208.998H677.012V208.981Z" fill="black"/>
<path d="M686.552 207.721H683.731V215.246H682.168V207.721H679.346V206.377H686.552V207.721Z" fill="black"/>
<path d="M693.893 215.23H692.23L691.39 212.879H687.88L687.006 215.23H685.393L688.82 206.361H690.483L693.91 215.23H693.893ZM689.643 207.974L688.266 211.703H690.97L689.643 207.974Z" fill="black"/>
<path d="M698.915 206.377C699.789 206.377 700.511 206.579 701.065 206.965C701.62 207.351 701.905 207.989 701.905 208.829C701.905 209.367 701.771 209.82 701.519 210.19C701.267 210.576 700.897 210.845 700.444 211.013C700.662 211.063 700.847 211.131 700.998 211.231C701.149 211.332 701.284 211.433 701.368 211.55C701.452 211.668 701.519 211.819 701.586 212.004C701.636 212.189 701.687 212.34 701.704 212.491C701.72 212.626 701.737 212.81 701.754 213.029C701.754 213.079 701.771 213.197 701.788 213.365C701.788 213.533 701.804 213.633 701.821 213.701C701.838 213.768 701.821 213.852 701.855 213.986C701.855 214.12 701.872 214.204 701.888 214.272C701.905 214.339 701.905 214.406 701.939 214.507C701.956 214.608 701.972 214.692 701.989 214.742C701.989 214.792 702.023 214.86 702.056 214.927C702.073 214.994 702.107 215.061 702.14 215.112C702.174 215.162 702.208 215.212 702.258 215.246H700.595C700.595 215.246 700.545 215.179 700.528 215.128C700.511 215.078 700.494 215.028 700.477 214.977C700.461 214.927 700.444 214.876 700.444 214.826C700.444 214.776 700.427 214.725 700.41 214.641C700.41 214.557 700.393 214.49 700.393 214.456L700.36 214.238V214.02C700.36 214.02 700.326 213.885 700.326 213.751C700.326 213.633 700.326 213.533 700.326 213.482C700.293 212.76 700.141 212.273 699.873 211.987C699.604 211.718 699.117 211.584 698.378 211.584H696.312V215.246H694.766V206.377H698.966H698.915ZM696.261 210.425H698.311C698.613 210.425 698.865 210.425 699.066 210.375C699.268 210.341 699.486 210.274 699.688 210.19C699.906 210.106 700.058 209.955 700.175 209.753C700.293 209.552 700.343 209.3 700.343 208.997C700.343 208.712 700.293 208.477 700.192 208.292C700.091 208.107 699.957 207.973 699.755 207.872C699.554 207.771 699.386 207.721 699.184 207.687C698.982 207.654 698.764 207.637 698.495 207.637H696.245V210.408L696.261 210.425Z" fill="black"/>
<path d="M709.632 207.721H706.81V215.246H705.248V207.721H702.426V206.377H709.632V207.721Z" fill="black"/>
<path d="M720.483 207.721H717.661V215.246H716.099V207.721H713.277V206.377H720.483V207.721Z" fill="black"/>
<path d="M723.086 215.23H721.524V206.361H723.086V215.23Z" fill="black"/>
<path d="M734.173 215.23H732.694V208.394L730.225 215.23H728.949L726.429 208.394V215.23H724.968V206.361H727.151L729.621 213.299L732.006 206.361H734.173V215.23Z" fill="black"/>
<path d="M742.403 207.687H737.566V210.039H742.051V211.299H737.566V213.919H742.487V215.246H736.02V206.377H742.403V207.687Z" fill="black"/>
<path d="M676.827 259.675H672.846V261.606H676.541V262.631H672.846V264.781H676.877V265.873H671.569V258.6H676.81V259.675H676.827Z" fill="black"/>
<path d="M683.932 265.873H682.622L679.229 260.514V265.873H678.02V258.6H679.363L682.723 263.958V258.6H683.949V265.873H683.932Z" fill="black"/>
<path d="M690.634 259.708H688.316V265.873H687.04V259.708H684.722V258.6H690.634V259.708Z" fill="black"/>
<path d="M694.918 258.6C695.64 258.6 696.228 258.768 696.681 259.087C697.135 259.406 697.37 259.927 697.37 260.632C697.37 261.069 697.269 261.438 697.051 261.757C696.832 262.06 696.547 262.295 696.161 262.429C696.345 262.463 696.496 262.53 696.614 262.614C696.748 262.698 696.849 262.782 696.916 262.883C696.984 262.984 697.051 263.101 697.101 263.252C697.152 263.404 697.185 263.538 697.202 263.639C697.219 263.756 697.235 263.908 697.252 264.075C697.252 264.126 697.252 264.21 697.269 264.344C697.269 264.479 697.286 264.563 697.286 264.613C697.286 264.663 697.286 264.731 697.303 264.848C697.303 264.949 697.32 265.033 697.32 265.083C697.32 265.134 697.336 265.184 697.353 265.285C697.37 265.369 697.387 265.436 697.403 265.486C697.403 265.537 697.437 265.587 697.454 265.638C697.471 265.688 697.504 265.738 697.521 265.789C697.538 265.839 697.571 265.873 697.605 265.906H696.244C696.244 265.906 696.211 265.839 696.194 265.806C696.194 265.772 696.161 265.722 696.144 265.688C696.127 265.654 696.127 265.604 696.11 265.57C696.093 265.537 696.11 265.486 696.077 265.419C696.077 265.352 696.077 265.302 696.077 265.268V265.083L696.043 264.899C696.043 264.865 696.043 264.781 696.043 264.68C696.043 264.579 696.043 264.512 696.043 264.462C696.009 263.874 695.892 263.471 695.673 263.236C695.455 263.017 695.052 262.9 694.447 262.9H692.751V265.906H691.491V258.633H694.934L694.918 258.6ZM692.734 261.925H694.414C694.666 261.925 694.867 261.925 695.035 261.892C695.203 261.858 695.371 261.808 695.556 261.741C695.724 261.673 695.858 261.556 695.959 261.388C696.043 261.22 696.093 261.018 696.093 260.766C696.093 260.531 696.06 260.347 695.976 260.195C695.892 260.044 695.774 259.927 695.623 259.859C695.472 259.792 695.321 259.725 695.153 259.708C694.985 259.675 694.8 259.675 694.582 259.675H692.734V261.959V261.925Z" fill="black"/>
<path d="M701.485 262.984V265.873H700.225V262.984L697.471 258.6H698.949L700.881 261.825L702.795 258.6H704.223L701.485 262.984Z" fill="black"/>
<path d="M674.878 285.527C675.567 285.527 676.121 285.679 676.558 285.998C676.995 286.3 677.213 286.804 677.213 287.459C677.213 287.879 677.112 288.232 676.911 288.534C676.709 288.836 676.424 289.038 676.071 289.172C676.239 289.206 676.39 289.273 676.508 289.34C676.625 289.424 676.726 289.508 676.793 289.592C676.86 289.676 676.911 289.794 676.961 289.945C677.012 290.096 677.045 290.214 677.045 290.315C677.045 290.415 677.079 290.566 677.096 290.734C677.096 290.785 677.096 290.869 677.112 291.003C677.112 291.138 677.112 291.222 677.129 291.255C677.146 291.289 677.129 291.373 677.146 291.474C677.146 291.574 677.163 291.658 677.163 291.692C677.163 291.726 677.18 291.793 677.196 291.877C677.196 291.961 677.23 292.028 677.247 292.061C677.247 292.112 677.28 292.145 677.297 292.213C677.314 292.263 677.348 292.313 677.364 292.347C677.381 292.381 677.415 292.414 677.448 292.448H676.138C676.138 292.448 676.105 292.397 676.088 292.347C676.088 292.313 676.054 292.28 676.037 292.229C676.021 292.179 676.021 292.145 676.004 292.112C675.987 292.078 676.004 292.028 675.987 291.961C675.987 291.893 675.987 291.843 675.987 291.809V291.642L675.953 291.474C675.953 291.44 675.953 291.373 675.953 291.272C675.953 291.171 675.953 291.104 675.953 291.07C675.92 290.499 675.802 290.113 675.601 289.911C675.399 289.693 675.013 289.592 674.442 289.592H672.829V292.465H671.62V285.527H674.912H674.878ZM672.796 288.702H674.408C674.643 288.702 674.845 288.702 674.996 288.668C675.164 288.635 675.315 288.601 675.483 288.534C675.651 288.467 675.769 288.349 675.869 288.198C675.953 288.047 676.004 287.845 676.004 287.61C676.004 287.392 675.97 287.207 675.886 287.056C675.802 286.905 675.701 286.804 675.55 286.737C675.399 286.67 675.248 286.619 675.097 286.586C674.946 286.552 674.761 286.552 674.559 286.552H672.796V288.719V288.702Z" fill="black"/>
<path d="M683.848 286.366C684.47 287.038 684.772 287.912 684.772 288.987C684.772 290.062 684.47 290.935 683.848 291.607C683.227 292.279 682.42 292.615 681.446 292.615C680.472 292.615 679.649 292.279 679.027 291.607C678.406 290.935 678.104 290.062 678.104 288.97C678.104 287.878 678.406 287.055 679.011 286.366C679.615 285.678 680.422 285.342 681.463 285.342C682.504 285.342 683.243 285.678 683.865 286.35L683.848 286.366ZM679.901 287.089C679.514 287.559 679.33 288.197 679.33 288.97C679.33 289.743 679.514 290.415 679.901 290.885C680.287 291.355 680.808 291.59 681.463 291.59C682.118 291.59 682.605 291.355 682.975 290.868C683.361 290.398 683.546 289.759 683.546 288.97C683.546 288.181 683.361 287.542 682.975 287.072C682.588 286.602 682.084 286.366 681.446 286.366C680.808 286.366 680.304 286.602 679.918 287.072L679.901 287.089Z" fill="black"/>
<path d="M691.272 286.366C691.894 287.038 692.196 287.912 692.196 288.987C692.196 290.062 691.894 290.935 691.272 291.607C690.651 292.279 689.845 292.615 688.87 292.615C687.896 292.615 687.073 292.279 686.452 291.607C685.83 290.935 685.528 290.062 685.528 288.97C685.528 287.878 685.83 287.055 686.435 286.366C687.04 285.678 687.846 285.342 688.887 285.342C689.929 285.342 690.668 285.678 691.289 286.35L691.272 286.366ZM687.325 287.089C686.939 287.559 686.754 288.197 686.754 288.97C686.754 289.743 686.939 290.415 687.325 290.885C687.711 291.355 688.215 291.59 688.887 291.59C689.559 291.59 690.03 291.355 690.399 290.868C690.785 290.398 690.97 289.759 690.97 288.97C690.97 288.181 690.785 287.542 690.399 287.072C690.013 286.602 689.509 286.366 688.87 286.366C688.232 286.366 687.728 286.602 687.342 287.072L687.325 287.089Z" fill="black"/>
<path d="M700.511 292.465H699.352V287.106L697.42 292.465H696.429L694.447 287.106V292.465H693.305V285.527H695.018L696.967 290.953L698.831 285.527H700.528V292.465H700.511Z" fill="black"/>
<path d="M705.802 287.576C705.735 286.77 705.231 286.35 704.29 286.35C703.87 286.35 703.551 286.434 703.316 286.602C703.081 286.77 702.963 287.005 702.963 287.307C702.963 287.593 703.047 287.777 703.215 287.878C703.383 287.979 703.77 288.113 704.358 288.265C704.509 288.315 704.626 288.349 704.727 288.365C705.5 288.567 706.02 288.735 706.306 288.886C706.928 289.222 707.23 289.743 707.23 290.431C707.23 290.734 707.179 291.019 707.079 291.254C706.978 291.49 706.827 291.708 706.659 291.876C706.491 292.044 706.272 292.178 706.037 292.296C705.802 292.413 705.55 292.481 705.281 292.531C705.013 292.581 704.744 292.598 704.475 292.598C703.602 292.598 702.896 292.397 702.359 291.977C701.821 291.557 701.552 290.952 701.552 290.146H702.745C702.745 290.65 702.913 291.036 703.249 291.271C703.585 291.506 704.005 291.641 704.542 291.641C705.013 291.641 705.382 291.54 705.634 291.355C705.903 291.17 706.02 290.902 706.02 290.549C706.02 290.331 705.953 290.146 705.819 290.011C705.685 289.877 705.533 289.776 705.365 289.709C705.197 289.659 704.912 289.575 704.526 289.457C704.475 289.457 704.442 289.44 704.425 289.424C703.568 289.205 702.997 289.02 702.711 288.869C702.14 288.584 701.838 288.13 701.804 287.509V287.374C701.804 286.753 702.039 286.266 702.493 285.896C702.963 285.527 703.585 285.342 704.358 285.342C705.13 285.342 705.718 285.527 706.205 285.879C706.676 286.232 706.928 286.786 706.961 287.525H705.802V287.576Z" fill="black"/>
<path d="M720.987 269.702V258.784H723.742V269.702H720.987Z" fill="black"/>
<path d="M732.946 269.905C731.451 269.905 730.208 269.687 729.201 269.267C728.193 268.83 727.437 268.208 726.933 267.352C726.429 266.512 726.177 265.47 726.177 264.244C726.177 262.447 726.748 261.053 727.907 260.079C729.066 259.104 730.729 258.617 732.93 258.617C734.173 258.617 735.264 258.802 736.205 259.155C737.146 259.507 737.885 260.028 738.405 260.7C738.926 261.372 739.195 262.161 739.195 263.085H736.507C736.507 262.598 736.356 262.178 736.054 261.842C735.752 261.506 735.332 261.238 734.777 261.053C734.223 260.868 733.601 260.784 732.862 260.784C732.056 260.784 731.367 260.918 730.78 261.187C730.192 261.456 729.755 261.825 729.453 262.313C729.15 262.8 728.999 263.388 728.999 264.059V264.463C728.999 265.134 729.15 265.722 729.453 266.21C729.755 266.697 730.208 267.083 730.78 267.352C731.367 267.62 732.056 267.755 732.862 267.755C733.669 267.755 734.29 267.671 734.844 267.503C735.399 267.335 735.819 267.083 736.121 266.747C736.423 266.411 736.575 265.991 736.575 265.504H739.195C739.195 266.411 738.943 267.184 738.422 267.856C737.902 268.528 737.179 269.031 736.239 269.401C735.298 269.754 734.189 269.939 732.93 269.939L732.946 269.905Z" fill="black"/>
<path d="M741.647 269.702V258.784H745.914L748.148 264.042C748.232 264.226 748.333 264.462 748.433 264.764C748.551 265.066 748.669 265.369 748.786 265.705C748.904 266.041 749.021 266.326 749.105 266.578H749.223C749.307 266.343 749.408 266.074 749.525 265.772C749.643 265.469 749.76 265.15 749.878 264.848C749.996 264.546 750.096 264.277 750.18 264.075L752.431 258.801H756.597V269.719H753.859V263.454C753.859 263.252 753.859 263.034 753.859 262.782C753.859 262.547 753.859 262.295 753.876 262.06C753.876 261.824 753.876 261.623 753.876 261.438H753.741C753.691 261.623 753.624 261.824 753.523 262.076C753.439 262.312 753.338 262.564 753.254 262.799C753.17 263.051 753.086 263.252 753.019 263.437L750.315 269.702H747.711L745.007 263.437C744.906 263.185 744.805 262.95 744.704 262.698C744.604 262.446 744.52 262.211 744.452 261.992C744.385 261.774 744.318 261.589 744.268 261.438H744.133C744.133 261.573 744.15 261.757 744.15 261.976C744.15 262.194 744.15 262.429 744.15 262.698C744.15 262.967 744.15 263.202 744.15 263.437V269.702H741.53H741.647Z" fill="black"/>
<path d="M759.536 269.702V258.784H770.723V260.951H762.291V263.101H769.732V265.234H762.291V267.536H770.858V269.719H759.553L759.536 269.702Z" fill="black"/>
<path d="M729.184 296.646L727.42 295.034C727.42 295.034 727.286 295.034 727.219 295.034C727.151 295.034 727.067 295.034 727 295.034C725.774 295.034 724.716 294.849 723.825 294.463C722.935 294.076 722.247 293.522 721.743 292.8C721.256 292.077 721.004 291.204 721.004 290.179C721.004 289.155 721.256 288.281 721.743 287.559C722.23 286.837 722.935 286.282 723.842 285.913C724.749 285.543 725.824 285.342 727.084 285.342C728.344 285.342 729.419 285.527 730.326 285.913C731.233 286.299 731.939 286.837 732.426 287.559C732.913 288.281 733.165 289.155 733.165 290.179C733.165 291.288 732.879 292.212 732.308 292.968C731.737 293.724 730.931 294.261 729.906 294.614L732.275 296.646H729.201H729.184ZM727.067 293.186C727.605 293.186 728.092 293.119 728.545 293.001C728.999 292.884 729.369 292.699 729.704 292.464C730.04 292.229 730.276 291.926 730.46 291.574C730.645 291.221 730.729 290.818 730.729 290.347V290.028C730.729 289.558 730.645 289.155 730.46 288.802C730.276 288.449 730.024 288.164 729.704 287.929C729.385 287.693 728.999 287.509 728.545 287.391C728.109 287.273 727.605 287.206 727.067 287.206C726.53 287.206 726.043 287.273 725.589 287.391C725.152 287.509 724.766 287.693 724.43 287.929C724.094 288.164 723.842 288.449 723.674 288.802C723.49 289.155 723.406 289.558 723.406 290.028V290.347C723.406 290.818 723.49 291.221 723.674 291.574C723.842 291.926 724.111 292.229 724.43 292.464C724.749 292.699 725.136 292.884 725.589 293.001C726.026 293.119 726.53 293.186 727.067 293.186Z" fill="black"/>
<path d="M735.231 294.883V285.527H742.79C743.461 285.527 744.016 285.662 744.452 285.93C744.889 286.199 745.208 286.569 745.427 287.006C745.645 287.442 745.746 287.946 745.746 288.484C745.746 289.021 745.595 289.575 745.309 290.063C745.024 290.55 744.587 290.936 744.016 291.222L745.964 294.883H743.327L741.681 291.642H737.599V294.883H735.248H735.231ZM737.599 289.794H742.101C742.487 289.794 742.79 289.676 743.008 289.441C743.226 289.206 743.344 288.92 743.344 288.551C743.344 288.299 743.293 288.081 743.193 287.913C743.092 287.745 742.958 287.61 742.773 287.509C742.588 287.409 742.37 287.375 742.101 287.375H737.599V289.794Z" fill="black"/>
<path d="M750.919 294.883V287.509H746.787V285.527H757.37V287.509H753.254V294.883H750.903H750.919Z" fill="black"/>
<path d="M762.677 292.093V290.195H766.978V292.093H762.677Z" fill="black"/>
<path d="M777.913 295.05C777.173 295.05 776.502 295 775.863 294.916C775.225 294.832 774.671 294.681 774.2 294.446C773.73 294.211 773.344 293.908 773.075 293.505C772.806 293.102 772.689 292.581 772.689 291.96V291.893C772.689 291.893 772.689 291.842 772.689 291.825H774.99C774.99 291.825 774.99 291.909 774.99 291.943V292.094C774.99 292.38 775.107 292.598 775.326 292.766C775.561 292.934 775.88 293.052 776.3 293.136C776.72 293.22 777.224 293.253 777.795 293.253C778.047 293.253 778.282 293.253 778.534 293.22C778.786 293.186 779.021 293.169 779.256 293.136C779.491 293.102 779.693 293.035 779.878 292.968C780.063 292.9 780.197 292.8 780.314 292.682C780.415 292.564 780.483 292.43 780.483 292.279C780.483 292.061 780.382 291.893 780.163 291.758C779.945 291.624 779.659 291.523 779.307 291.439C778.954 291.355 778.551 291.288 778.097 291.221C777.644 291.153 777.173 291.086 776.703 291.019C776.216 290.935 775.762 290.834 775.309 290.7C774.855 290.566 774.452 290.398 774.1 290.179C773.747 289.961 773.461 289.692 773.243 289.356C773.025 289.02 772.924 288.6 772.924 288.113C772.924 287.66 773.041 287.256 773.26 286.921C773.478 286.585 773.814 286.282 774.234 286.047C774.654 285.812 775.175 285.644 775.779 285.526C776.384 285.409 777.056 285.358 777.812 285.358C778.568 285.358 779.256 285.426 779.844 285.543C780.432 285.661 780.936 285.846 781.339 286.081C781.742 286.316 782.045 286.601 782.246 286.937C782.448 287.273 782.549 287.66 782.549 288.096V288.298H780.264V288.147C780.264 287.945 780.163 287.777 779.979 287.626C779.777 287.475 779.508 287.357 779.155 287.256C778.803 287.156 778.4 287.122 777.929 287.122C777.325 287.122 776.821 287.156 776.451 287.24C776.065 287.324 775.796 287.424 775.611 287.559C775.427 287.693 775.343 287.828 775.343 287.996C775.343 288.197 775.443 288.348 775.662 288.466C775.88 288.583 776.166 288.684 776.518 288.751C776.871 288.819 777.274 288.886 777.728 288.953C778.181 289.003 778.635 289.087 779.122 289.171C779.609 289.255 780.063 289.356 780.516 289.474C780.97 289.591 781.373 289.759 781.726 289.978C782.078 290.196 782.364 290.465 782.582 290.784C782.801 291.103 782.901 291.506 782.901 291.993C782.901 292.732 782.683 293.32 782.263 293.774C781.843 294.227 781.255 294.546 780.499 294.748C779.743 294.95 778.887 295.05 777.913 295.05Z" fill="black"/>
<path d="M790.242 295.05C788.965 295.05 787.89 294.866 787.033 294.496C786.177 294.127 785.522 293.589 785.085 292.867C784.648 292.144 784.43 291.254 784.43 290.196C784.43 288.651 784.917 287.458 785.908 286.618C786.899 285.778 788.327 285.358 790.208 285.358C791.266 285.358 792.207 285.51 793.013 285.829C793.819 286.131 794.458 286.585 794.911 287.156C795.365 287.727 795.6 288.416 795.6 289.205H793.299C793.299 288.785 793.164 288.432 792.912 288.13C792.66 287.828 792.291 287.609 791.821 287.458C791.35 287.307 790.813 287.223 790.174 287.223C789.486 287.223 788.898 287.34 788.394 287.559C787.89 287.794 787.52 288.113 787.252 288.533C786.983 288.953 786.865 289.457 786.865 290.028V290.364C786.865 290.952 787 291.439 787.252 291.876C787.52 292.296 787.89 292.615 788.394 292.85C788.898 293.085 789.486 293.186 790.174 293.186C790.863 293.186 791.401 293.119 791.871 292.968C792.341 292.816 792.711 292.598 792.963 292.312C793.215 292.027 793.349 291.674 793.349 291.254H795.6C795.6 292.027 795.382 292.699 794.928 293.27C794.475 293.841 793.853 294.278 793.064 294.597C792.257 294.899 791.317 295.067 790.225 295.067L790.242 295.05Z" fill="black"/>
<path d="M797.7 294.883V285.527H805.258C805.93 285.527 806.485 285.662 806.921 285.93C807.358 286.199 807.677 286.569 807.895 287.006C808.114 287.442 808.215 287.946 808.215 288.484C808.215 289.021 808.064 289.575 807.778 290.063C807.492 290.55 807.056 290.936 806.485 291.222L808.433 294.883H805.796L804.15 291.642H800.068V294.883H797.716H797.7ZM800.068 289.794H804.57C804.956 289.794 805.258 289.676 805.477 289.441C805.695 289.206 805.813 288.92 805.813 288.551C805.813 288.299 805.762 288.081 805.662 287.913C805.561 287.745 805.426 287.61 805.242 287.509C805.057 287.409 804.838 287.375 804.57 287.375H800.068V289.794Z" fill="black"/>
<path d="M813.993 292.093V290.195H818.293V292.093H813.993Z" fill="black"/>
<path d="M827.767 295.051C826.91 295.051 826.171 294.934 825.566 294.699C824.961 294.463 824.491 294.077 824.172 293.573C823.853 293.069 823.685 292.414 823.685 291.625V291.44H825.952V291.692C825.952 292.196 826.104 292.565 826.406 292.817C826.708 293.069 827.128 293.187 827.683 293.187C828.287 293.187 828.758 293.036 829.077 292.733C829.396 292.431 829.564 291.944 829.564 291.289V285.527H831.899V291.188C831.899 292.078 831.731 292.801 831.395 293.388C831.059 293.976 830.589 294.379 829.967 294.648C829.346 294.917 828.606 295.051 827.75 295.051H827.767Z" fill="black"/>
<path d="M839.609 295.05C838.332 295.05 837.257 294.866 836.4 294.496C835.544 294.127 834.889 293.589 834.452 292.867C834.015 292.144 833.797 291.254 833.797 290.196C833.797 288.651 834.284 287.458 835.275 286.618C836.266 285.778 837.694 285.358 839.575 285.358C840.633 285.358 841.574 285.51 842.38 285.829C843.186 286.131 843.825 286.585 844.278 287.156C844.732 287.727 844.967 288.416 844.967 289.205H842.666C842.666 288.785 842.531 288.432 842.279 288.13C842.027 287.828 841.658 287.609 841.188 287.458C840.717 287.307 840.18 287.223 839.541 287.223C838.853 287.223 838.265 287.34 837.761 287.559C837.257 287.794 836.888 288.113 836.619 288.533C836.35 288.953 836.232 289.457 836.232 290.028V290.364C836.232 290.952 836.367 291.439 836.619 291.876C836.888 292.296 837.257 292.615 837.761 292.85C838.265 293.085 838.853 293.186 839.541 293.186C840.23 293.186 840.768 293.119 841.238 292.968C841.708 292.816 842.078 292.598 842.33 292.312C842.582 292.027 842.716 291.674 842.716 291.254H844.967C844.967 292.027 844.749 292.699 844.295 293.27C843.842 293.841 843.22 294.278 842.431 294.597C841.624 294.899 840.684 295.067 839.592 295.067L839.609 295.05Z" fill="black"/>
<path d="M847.067 294.883V285.527H854.625C855.297 285.527 855.852 285.662 856.288 285.93C856.725 286.199 857.044 286.569 857.263 287.006C857.481 287.442 857.582 287.946 857.582 288.484C857.582 289.021 857.43 289.575 857.145 290.063C856.859 290.55 856.423 290.936 855.852 291.222L857.8 294.883H855.163L853.517 291.642H849.435V294.883H847.083H847.067ZM849.435 289.794H853.937C854.323 289.794 854.625 289.676 854.844 289.441C855.062 289.206 855.18 288.92 855.18 288.551C855.18 288.299 855.129 288.081 855.029 287.913C854.928 287.745 854.793 287.61 854.609 287.509C854.424 287.409 854.205 287.375 853.937 287.375H849.435V289.794Z" fill="black"/>
<path d="M26.4891 294.766H20.3413V300.913H26.4891V294.766Z" fill="black"/>
<path d="M37.1217 294.766H30.9739V300.913H37.1217V294.766Z" fill="black"/>
<path d="M47.7712 294.766H41.6234V300.913H47.7712V294.766Z" fill="black"/>
<path d="M58.4038 294.766H52.256V300.913H58.4038V294.766Z" fill="black"/>
<path d="M407.03 357.637V363.785H413.178V357.637H407.03Z" fill="black"/>
<path d="M407.013 346.988V353.136H413.161V346.988H407.013Z" fill="black"/>
<path d="M407.013 294.765V300.913H413.161V294.765H407.013Z" fill="black"/>
</svg>
