<svg width="295" height="723" viewBox="0 0 295 723" fill="none" xmlns="http://www.w3.org/2000/svg">
<mask id="mask0_360_1605" style="mask-type:luminance" maskUnits="userSpaceOnUse" x="0" y="0" width="295" height="719">
<path d="M295 12.0116H284.056V0.817383H10.944V12.0116H0V353.896H10.944V365.09H0V706.974H10.944V718.168H284.056V706.974H295V365.09H284.056V360.81H280.843V358.176H284.056V353.896H295V12.0116ZM14.1574 360.81H10.944V358.176H14.1574V360.81ZM27.169 360.81H20.6632V358.176H27.169V360.81ZM40.1806 360.81H33.6748V358.176H40.1806V360.81ZM53.179 360.81H46.6732V358.176H53.179V360.81ZM66.1906 360.81H59.6848V358.176H66.1906V360.81ZM79.2022 360.81H72.6964V358.176H79.2022V360.81ZM92.2139 360.81H85.7081V358.176H92.2139V360.81ZM105.212 360.81H98.7065V358.176H105.212V360.81ZM118.224 360.81H111.718V358.176H118.224V360.81ZM131.235 360.81H124.73V358.176H131.235V360.81ZM144.247 360.81H137.741V358.176H144.247V360.81ZM157.246 360.81H150.74V358.176H157.246V360.81ZM170.257 360.81H163.751V358.176H170.257V360.81ZM183.269 360.81H176.763V358.176H183.269V360.81ZM196.28 360.81H189.775V358.176H196.28V360.81ZM209.292 360.81H202.786V358.176H209.292V360.81ZM222.29 360.81H215.785V358.176H222.29V360.81ZM235.302 360.81H228.796V358.176H235.302V360.81ZM248.314 360.81H241.808V358.176H248.314V360.81ZM261.325 360.81H254.819V358.176H261.325V360.81ZM274.324 360.81H267.818V358.176H274.324V360.81Z" fill="white"/>
</mask>
<g mask="url(#mask0_360_1605)">
<path d="M290.457 0.804199H10.9835V12.0115H-0.210693V353.896H10.9835V365.09H-0.210693V706.987H10.9835V718.181H290.457V706.987H301.651V365.09H290.457V353.896H301.651V12.0115H290.457V0.804199Z" fill="#F2F2F2"/>
<path d="M49.8077 0.804199V205.895C49.8077 206.474 49.8077 206.751 49.834 207.093L49.8604 208.094C49.9657 210.768 50.374 213.428 51.0456 216.009C52.4021 221.185 54.8648 226.071 58.2099 230.233C58.6182 230.759 59.0791 231.247 59.5005 231.76L60.8833 233.222L65.203 237.542L73.8554 246.194L91.1735 263.512L160.433 332.771L195.069 367.408L199.533 371.898C201.443 373.861 203.274 375.915 204.972 378.075C208.37 382.381 211.32 387.043 213.743 391.969C218.616 401.807 221.342 412.698 221.685 423.668L221.751 522.296V718.194H211.557V522.296L211.505 424.011C211.202 414.476 208.831 405.02 204.604 396.473C202.497 392.193 199.942 388.137 196.978 384.396C195.503 382.513 193.923 380.735 192.251 379.036L187.865 374.625L153.229 339.988L83.9697 270.729L66.6517 253.411L57.9992 244.759L53.6795 240.439L51.928 238.582C51.388 237.937 50.8085 237.305 50.2818 236.646C46.028 231.365 42.9068 225.162 41.1816 218.591C40.3124 215.311 39.8119 211.94 39.667 208.542L39.6407 207.265C39.6407 206.843 39.6144 206.448 39.6144 205.895V0.804199H49.8077Z" fill="#ED4250"/>
<path d="M34.9786 0.804199V196.703V202.827V205.882C34.9786 206.909 35.0182 207.765 35.0313 208.726C35.1762 212.44 35.7425 216.141 36.6907 219.75C38.574 226.953 41.9981 233.736 46.6601 239.543C47.2396 240.268 47.8718 240.953 48.4644 241.677L50.374 243.705L54.6936 248.038L63.3461 256.69L80.6641 274.008L149.923 343.268L184.559 377.904L188.919 382.276C190.459 383.87 191.948 385.529 193.317 387.281C196.07 390.77 198.453 394.537 200.416 398.527C204.353 406.482 206.566 415.306 206.842 424.182L206.895 522.309V718.207H196.702V522.309L196.662 424.524C196.425 417.083 194.582 409.695 191.276 403.031C189.63 399.7 187.628 396.526 185.323 393.615C184.178 392.153 182.94 390.757 181.636 389.427L177.356 385.121L142.719 350.485L73.4603 281.225L56.1423 263.907L47.4898 255.255L43.157 250.922C42.3932 250.119 41.6161 249.329 40.8655 248.499C40.1412 247.656 39.4037 246.826 38.7057 245.957C33.1349 239.043 29.0523 230.931 26.8003 222.344C25.6677 218.051 25.0092 213.626 24.8249 209.187C24.7985 208.094 24.759 206.922 24.759 205.908V0.817342H34.9523L34.9786 0.804199Z" fill="#FAA701"/>
<path d="M20.1496 0.804198V205.895L20.1759 207.594L20.2154 209.385C20.413 214.152 21.1241 218.893 22.3357 223.503C24.7458 232.735 29.1313 241.427 35.1103 248.854C35.8478 249.789 36.6511 250.672 37.4282 251.581C38.2315 252.463 39.0612 253.319 39.8777 254.175L44.2105 258.508L52.863 267.16L70.181 284.478L139.44 353.737L174.076 388.374L178.33 392.641C179.515 393.865 180.648 395.13 181.688 396.46C183.796 399.12 185.613 402.004 187.114 405.046C190.13 411.131 191.816 417.86 192.027 424.656L192.066 522.283V718.181H181.873V522.283L181.833 424.998C181.675 419.652 180.345 414.344 177.961 409.55C176.776 407.153 175.341 404.875 173.681 402.781C172.865 401.728 171.969 400.727 171.034 399.765L166.859 395.577L132.223 360.941L62.9641 291.682L45.646 274.364L36.9935 265.712L32.6607 261.366C31.7125 260.378 30.7511 259.39 29.8292 258.376C28.9337 257.336 28.0118 256.308 27.169 255.242C20.2813 246.695 15.2373 236.672 12.4585 226.058C11.0625 220.75 10.246 215.285 10.0089 209.806L9.95626 207.752L9.92993 205.882V0.791016H20.1232L20.1496 0.804198Z" fill="#0060E6"/>
<path d="M34.2412 558.42H1.72534V560.119H34.2412V558.42Z" fill="black"/>
<path d="M34.2412 560.988H1.72534V561.844H34.2412V560.988Z" fill="black"/>
<path d="M34.2412 563.543H1.72534V564.399H34.2412V563.543Z" fill="black"/>
<path d="M34.2412 567.797H1.72534V568.653H34.2412V567.797Z" fill="black"/>
<path d="M27.9066 572.063H1.72534V573.762H27.9066V572.063Z" fill="black"/>
<path d="M27.9066 574.619H1.72534V575.475H27.9066V574.619Z" fill="black"/>
<path d="M27.9066 577.174H1.72534V578.03H27.9066V577.174Z" fill="black"/>
<path d="M27.9066 581.44H1.72534V582.296H27.9066V581.44Z" fill="black"/>
<path d="M27.9066 583.139H1.72534V584.838H27.9066V583.139Z" fill="black"/>
<path d="M27.9066 586.55H1.72534V587.406H27.9066V586.55Z" fill="black"/>
<path d="M27.9066 589.118H1.72534V590.817H27.9066V589.118Z" fill="black"/>
<path d="M27.9066 591.673H1.72534V594.228H27.9066V591.673Z" fill="black"/>
<path d="M27.9066 595.927H1.72534V596.783H27.9066V595.927Z" fill="black"/>
<path d="M27.9066 598.495H1.72534V600.194H27.9066V598.495Z" fill="black"/>
<path d="M27.9066 603.605H1.72534V604.461H27.9066V603.605Z" fill="black"/>
<path d="M27.9066 605.304H1.72534V606.16H27.9066V605.304Z" fill="black"/>
<path d="M27.9066 607.872H1.72534V608.728H27.9066V607.872Z" fill="black"/>
<path d="M27.9066 609.571H1.72534V611.269H27.9066V609.571Z" fill="black"/>
<path d="M27.9066 614.681H1.72534V615.537H27.9066V614.681Z" fill="black"/>
<path d="M27.9066 618.948H1.72534V619.804H27.9066V618.948Z" fill="black"/>
<path d="M27.9066 620.646H1.72534V622.345H27.9066V620.646Z" fill="black"/>
<path d="M27.9066 624.057H1.72534V625.756H27.9066V624.057Z" fill="black"/>
<path d="M27.9066 629.18H1.72534V630.036H27.9066V629.18Z" fill="black"/>
<path d="M27.9066 631.735H1.72534V632.591H27.9066V631.735Z" fill="black"/>
<path d="M27.9066 633.434H1.72534V634.29H27.9066V633.434Z" fill="black"/>
<path d="M27.9066 635.989H1.72534V637.688H27.9066V635.989Z" fill="black"/>
<path d="M27.9066 638.557H1.72534V641.112H27.9066V638.557Z" fill="black"/>
<path d="M27.9066 642.811H1.72534V643.667H27.9066V642.811Z" fill="black"/>
<path d="M27.9066 644.523H1.72534V647.078H27.9066V644.523Z" fill="black"/>
<path d="M27.9066 647.934H1.72534V651.345H27.9066V647.934Z" fill="black"/>
<path d="M27.9066 652.188H1.72534V653.887H27.9066V652.188Z" fill="black"/>
<path d="M27.9066 655.599H1.72534V656.455H27.9066V655.599Z" fill="black"/>
<path d="M27.9066 658.154H1.72534V660.708H27.9066V658.154Z" fill="black"/>
<path d="M27.9066 661.565H1.72534V664.12H27.9066V661.565Z" fill="black"/>
<path d="M27.9066 665.832H1.72534V666.688H27.9066V665.832Z" fill="black"/>
<path d="M27.9066 667.531H1.72534V669.229H27.9066V667.531Z" fill="black"/>
<path d="M27.9066 670.941H1.72534V671.797H27.9066V670.941Z" fill="black"/>
<path d="M27.9066 672.653H1.72534V673.509H27.9066V672.653Z" fill="black"/>
<path d="M27.9066 676.907H1.72534V678.606H27.9066V676.907Z" fill="black"/>
<path d="M34.2412 680.318H1.72534V682.017H34.2412V680.318Z" fill="black"/>
<path d="M34.2412 684.585H1.72534V687.14H34.2412V684.585Z" fill="black"/>
<path d="M34.2412 687.996H1.72534V688.852H34.2412V687.996Z" fill="black"/>
<path d="M34.2412 689.695H1.72534V691.394H34.2412V689.695Z" fill="black"/>
<path d="M263.761 668.571H235.671V696.661H263.761V668.571ZM252.343 693.158H247.076H239.174V687.89H247.076V677.355H239.174V672.087H247.076H252.343H260.245V677.355H252.343V687.89H260.245V693.158H252.343Z" fill="black"/>
<path d="M263.761 592.99H235.671V621.081H263.761V592.99ZM254.977 617.565V609.663H244.442V617.565H239.174V609.663V604.395V596.493H244.442V604.395H254.977V596.493H260.245V604.395V609.663V617.565H254.977Z" fill="black"/>
<path d="M235.657 658.878V630.787H263.748V658.878H235.657ZM254.977 655.362H260.245V639.558V634.29H254.977H244.442H239.174V639.558V655.362H244.442V639.558H254.977V655.362ZM251.685 649.093V646.117H250.697V649.093H250.197V646.117H247.721V650.081H248.709V647.104H249.209V650.081H251.685V649.093ZM250.697 655.362H251.685V651.398H249.209V654.374H248.709V651.398H247.721V655.362H250.197V652.385H250.697V655.362Z" fill="black"/>
<path d="M258.401 453.55V447.756H252.607V453.55H258.401Z" fill="black"/>
<path d="M252.607 459.424V453.629H246.812V459.424H252.607Z" fill="black"/>
<path d="M246.812 453.629V447.835H241.018V453.629H246.812Z" fill="black"/>
<path d="M246.812 465.219V459.424H241.018V465.219H246.812Z" fill="black"/>
<path d="M258.401 465.218V459.424H252.607V465.218H258.401Z" fill="black"/>
<path d="M252.475 471V465.206H246.681V471H252.475Z" fill="black"/>
<path d="M258.388 476.808V471.013H252.594V476.808H258.388Z" fill="black"/>
<path d="M252.607 482.681V476.887H246.812V482.681H252.607Z" fill="black"/>
<path d="M246.812 476.887V471.092H241.018V476.887H246.812Z" fill="black"/>
<path d="M246.812 488.476V482.682H241.018V488.476H246.812Z" fill="black"/>
<path d="M258.388 488.476V482.682H252.594V488.476H258.388Z" fill="black"/>
<path d="M252.488 494.258V488.463H246.694V494.258H252.488Z" fill="black"/>
<path d="M258.402 500.066V494.271H252.607V500.066H258.402Z" fill="black"/>
<path d="M252.594 505.939V500.145H246.799V505.939H252.594Z" fill="black"/>
<path d="M246.812 500.145V494.35H241.018V500.145H246.812Z" fill="black"/>
<path d="M246.812 511.721V505.926H241.018V511.721H246.812Z" fill="black"/>
<path d="M258.402 511.734V505.939H252.607V511.734H258.402Z" fill="black"/>
<path d="M295 404.638V383.488H273.85V404.638H295Z" fill="black"/>
<path d="M273.849 446.07V724.45" stroke="black" stroke-miterlimit="10"/>
<path d="M44.2238 446.07V724.45" stroke="black" stroke-miterlimit="10"/>
<path d="M273.849 0.804199V333.799" stroke="black" stroke-miterlimit="10"/>
<path d="M158.22 210.36L225.965 170.996C228.138 169.731 229.468 167.413 229.481 164.911L229.705 86.5651C229.705 84.0365 228.362 81.6923 226.176 80.428L157.996 41.0639C155.81 39.7997 153.097 39.7997 150.911 41.0639L83.1664 80.428C80.9935 81.6923 79.6633 84.0102 79.6502 86.5124L79.4263 164.859C79.4263 167.387 80.7696 169.731 82.9558 170.996L151.135 210.36C153.321 211.624 156.034 211.624 158.22 210.36Z" fill="#F2F2F2"/>
<path d="M158.22 210.36L225.965 170.996C228.138 169.731 229.468 167.414 229.481 164.911L229.705 86.5651C229.705 84.0365 228.362 81.6923 226.176 80.428L157.996 41.0639C155.81 39.7997 153.097 39.7997 150.911 41.0639L83.1664 80.428C80.9935 81.6923 79.6633 84.0102 79.6502 86.5124L79.4263 164.859C79.4263 167.387 80.7696 169.731 82.9558 170.996L151.135 210.36C153.321 211.624 156.034 211.624 158.22 210.36Z" stroke="black" stroke-width="1.15" stroke-miterlimit="10"/>
<path d="M160.643 202.05L176.328 192.936L176.407 165.688L207.791 147.448L207.712 174.696L223.397 165.583L223.607 92.926L207.922 102.053L207.843 129.287L176.46 147.527L176.539 120.279L160.854 129.393L160.643 202.05Z" fill="#FAA701"/>
<path d="M148.883 129.406L85.7213 92.926L85.6687 111.087L109.348 124.77L109.255 161.092L85.5633 147.422L85.5106 165.583L148.672 202.05L148.725 183.889L125.046 170.205L125.151 133.884L148.83 147.567L148.883 129.406Z" fill="#ED4250"/>
<path d="M161.091 83.1147L164.067 81.4026L172.917 86.5519L175.867 88.264L168.44 92.5441L159.577 87.4079L158.102 88.264L166.952 93.4002L163.975 95.1254L152.175 88.264L159.603 83.9707L168.466 89.12L169.941 88.264L161.091 83.1147Z" fill="black"/>
<path d="M172.377 94.8356L179.805 90.5554L191.605 97.4036L188.642 99.1288L179.779 93.9795L178.304 94.8356L187.154 99.9849L179.726 104.278L167.926 97.4168L170.889 95.6916L179.753 100.841L181.227 99.9849L172.377 94.8356Z" fill="black"/>
<path d="M91.2789 82.601L107.083 73.4744L138.677 55.2345L154.48 46.1079L170.178 55.2345L217.26 82.601L201.469 91.7144L154.375 64.361L122.781 82.601L169.862 109.967L154.072 119.081L106.977 91.7275L91.2789 82.601Z" fill="#0060E6"/>
<path d="M64.123 333.799H-214.244" stroke="black" stroke-miterlimit="10"/>
<path d="M258.388 302.244V164.687H254.661V302.244H258.388Z" fill="#0060E6"/>
<path d="M258.388 212.967V119.239H254.661V212.967H258.388Z" fill="#FAA701"/>
<path d="M258.401 122.847V-155.572H254.674L254.674 122.847H258.401Z" fill="black"/>
<path d="M258.388 146.276V91.9907H254.661V146.276H258.388Z" fill="#D62D3B"/>
<path d="M258.389 333.799V315.506H254.662V333.799H258.389Z" fill="black"/>
<path d="M116.275 247.59V237.239H119.989V247.59H116.275Z" fill="black"/>
<path d="M128.444 247.762C126.942 247.762 125.704 247.564 124.73 247.156C123.742 246.748 123.004 246.155 122.53 245.352C122.043 244.561 121.806 243.574 121.806 242.402C121.806 240.69 122.372 239.359 123.505 238.437C124.637 237.516 126.297 237.042 128.483 237.042C129.681 237.042 130.748 237.226 131.657 237.608C132.566 237.99 133.29 238.503 133.804 239.175C134.317 239.847 134.581 240.611 134.581 241.48H130.972C130.972 241.124 130.867 240.795 130.656 240.518C130.445 240.242 130.156 240.018 129.774 239.86C129.392 239.702 128.944 239.623 128.43 239.623C127.785 239.623 127.258 239.741 126.837 239.965C126.415 240.202 126.112 240.505 125.915 240.9C125.717 241.295 125.625 241.73 125.625 242.204V242.586C125.625 243.047 125.717 243.481 125.915 243.877C126.112 244.272 126.415 244.588 126.81 244.838C127.206 245.075 127.719 245.194 128.351 245.194C128.918 245.194 129.418 245.115 129.813 244.97C130.208 244.825 130.524 244.614 130.748 244.337C130.959 244.061 131.077 243.745 131.077 243.389H134.581C134.581 244.232 134.344 244.983 133.856 245.641C133.369 246.3 132.671 246.827 131.762 247.195C130.854 247.577 129.747 247.762 128.47 247.762H128.444Z" fill="black"/>
<path d="M140.731 247.59V237.239H144.445V240.913H149.976V237.239H153.69V247.59H149.976V243.745H144.445V247.59H140.731Z" fill="black"/>
<path d="M154.928 247.59L159.945 237.239H164.041L169.059 247.59H165.068L164.449 246.22H159.379L158.773 247.59H154.928ZM160.498 243.639H163.317L162.592 241.888C162.566 241.809 162.527 241.703 162.474 241.558C162.421 241.427 162.369 241.269 162.303 241.097C162.237 240.926 162.184 240.755 162.132 240.584C162.079 240.413 162.026 240.255 161.974 240.123H161.868C161.802 240.294 161.736 240.492 161.657 240.716C161.578 240.939 161.499 241.15 161.42 241.361C161.341 241.572 161.276 241.743 161.223 241.888L160.498 243.639Z" fill="black"/>
<path d="M175.894 247.762C174.392 247.762 173.154 247.564 172.18 247.156C171.192 246.748 170.455 246.155 169.981 245.352C169.493 244.561 169.256 243.574 169.256 242.402C169.256 240.69 169.822 239.359 170.955 238.437C172.088 237.516 173.747 237.042 175.933 237.042C177.132 237.042 178.198 237.226 179.107 237.608C180.016 237.99 180.74 238.503 181.254 239.175C181.767 239.847 182.031 240.611 182.031 241.48H178.422C178.422 241.124 178.317 240.795 178.106 240.518C177.896 240.242 177.606 240.018 177.224 239.86C176.842 239.702 176.394 239.623 175.881 239.623C175.235 239.623 174.708 239.741 174.287 239.965C173.866 240.202 173.563 240.505 173.365 240.9C173.168 241.295 173.075 241.73 173.075 242.204V242.586C173.075 243.047 173.168 243.481 173.365 243.877C173.563 244.272 173.866 244.588 174.261 244.838C174.656 245.075 175.169 245.194 175.802 245.194C176.368 245.194 176.868 245.115 177.263 244.97C177.658 244.825 177.974 244.614 178.198 244.337C178.409 244.061 178.528 243.745 178.528 243.389H182.031C182.031 244.232 181.794 244.983 181.306 245.641C180.819 246.3 180.121 246.827 179.212 247.195C178.304 247.577 177.198 247.762 175.92 247.762H175.894Z" fill="black"/>
<path d="M183.809 247.59V237.239H187.523V241.822L192.54 237.239H197.15L192.567 241.466L197.268 247.59H192.738L189.827 243.692L187.523 245.562V247.59H183.809Z" fill="black"/>
<path d="M205.209 237.226V238.569C204.972 238.595 204.722 238.661 204.485 238.806C204.248 238.951 204.037 239.135 203.879 239.372C203.721 239.622 203.642 239.912 203.642 240.268H205.209V243.099H201.759V240.584C201.759 239.82 201.917 239.201 202.246 238.727C202.562 238.253 202.997 237.897 203.524 237.647C204.051 237.397 204.617 237.265 205.223 237.226H205.209Z" fill="black"/>
<path d="M206.645 247.59V246.853C206.645 246.366 206.777 245.918 207.027 245.51C207.277 245.114 207.619 244.746 208.041 244.403C208.462 244.061 208.923 243.745 209.41 243.442C209.898 243.139 210.385 242.836 210.872 242.533C211.36 242.23 211.807 241.967 212.229 241.717C212.65 241.48 213.006 241.243 213.269 241.006C213.533 240.768 213.664 240.518 213.664 240.255C213.664 240.057 213.598 239.873 213.48 239.715C213.361 239.557 213.164 239.425 212.914 239.333C212.65 239.241 212.308 239.201 211.86 239.201C211.465 239.201 211.136 239.267 210.859 239.386C210.583 239.504 210.372 239.675 210.227 239.873C210.082 240.084 210.003 240.308 210.003 240.571V240.874H206.671C206.671 240.874 206.658 240.755 206.658 240.703V240.545C206.658 239.833 206.869 239.214 207.277 238.688C207.685 238.161 208.304 237.766 209.134 237.463C209.95 237.173 210.991 237.028 212.216 237.028C212.993 237.028 213.677 237.094 214.296 237.226C214.902 237.358 215.429 237.555 215.864 237.819C216.298 238.082 216.627 238.411 216.865 238.793C217.102 239.188 217.207 239.636 217.207 240.15C217.207 240.637 217.075 241.071 216.799 241.48C216.522 241.875 216.166 242.243 215.732 242.586C215.284 242.928 214.81 243.231 214.296 243.508C213.783 243.784 213.282 244.035 212.795 244.272C212.65 244.337 212.505 244.403 212.334 244.482C212.163 244.561 211.992 244.64 211.834 244.719C211.676 244.798 211.544 244.864 211.425 244.917H217.339V247.577H206.619L206.645 247.59Z" fill="black"/>
<path d="M224.398 247.761C223.147 247.761 222.093 247.616 221.25 247.314C220.407 247.024 219.762 246.602 219.327 246.076C218.893 245.549 218.682 244.93 218.682 244.232H221.961C221.988 244.535 222.08 244.785 222.251 244.996C222.422 245.206 222.659 245.364 222.962 245.47C223.265 245.575 223.634 245.628 224.055 245.628C224.477 245.628 224.872 245.575 225.188 245.457C225.504 245.338 225.741 245.167 225.912 244.943C226.083 244.719 226.162 244.443 226.162 244.113C226.162 243.784 226.083 243.508 225.912 243.284C225.741 243.06 225.504 242.889 225.188 242.77C224.872 242.651 224.49 242.599 224.055 242.599C223.752 242.599 223.476 242.625 223.226 242.678C222.975 242.73 222.765 242.809 222.58 242.928C222.396 243.033 222.251 243.178 222.146 243.349L219.235 243.02L219.775 237.226H228.73V239.833H222.356L222.185 241.374C222.343 241.269 222.58 241.176 222.87 241.071C223.16 240.966 223.515 240.874 223.91 240.795C224.305 240.716 224.727 240.676 225.188 240.676C226.11 240.676 226.913 240.808 227.585 241.084C228.256 241.361 228.77 241.756 229.139 242.27C229.507 242.796 229.692 243.428 229.692 244.192C229.692 244.877 229.481 245.483 229.047 246.023C228.612 246.563 228.006 246.984 227.216 247.3C226.426 247.616 225.491 247.761 224.398 247.761Z" fill="black"/>
<path fill-rule="evenodd" clip-rule="evenodd" d="M185.995 265.172C185.995 265.554 185.692 265.856 185.31 265.856H183.94C183.559 265.856 183.256 265.554 183.256 265.172C183.256 264.79 183.559 264.487 183.94 264.487H185.31C185.692 264.487 185.995 264.79 185.995 265.172Z" fill="black"/>
<path fill-rule="evenodd" clip-rule="evenodd" d="M185.995 261.076C185.995 261.458 185.692 261.761 185.31 261.761H183.94C183.559 261.761 183.256 261.458 183.256 261.076C183.256 260.694 183.559 260.391 183.94 260.391H185.31C185.692 260.391 185.995 260.694 185.995 261.076Z" fill="black"/>
<path fill-rule="evenodd" clip-rule="evenodd" d="M185.995 256.98C185.995 257.362 185.692 257.665 185.31 257.665H183.94C183.559 257.665 183.256 257.362 183.256 256.98C183.256 256.598 183.559 256.295 183.94 256.295H185.31C185.692 256.295 185.995 256.598 185.995 256.98Z" fill="black"/>
<path fill-rule="evenodd" clip-rule="evenodd" d="M207.843 265.172C207.843 265.554 207.54 265.856 207.158 265.856H205.789C205.407 265.856 205.104 265.554 205.104 265.172C205.104 264.79 205.407 264.487 205.789 264.487H207.158C207.54 264.487 207.843 264.79 207.843 265.172Z" fill="black"/>
<path fill-rule="evenodd" clip-rule="evenodd" d="M207.843 261.076C207.843 261.458 207.54 261.761 207.158 261.761H205.789C205.407 261.761 205.104 261.458 205.104 261.076C205.104 260.694 205.407 260.391 205.789 260.391H207.158C207.54 260.391 207.843 260.694 207.843 261.076Z" fill="black"/>
<path fill-rule="evenodd" clip-rule="evenodd" d="M207.843 256.98C207.843 257.362 207.54 257.665 207.158 257.665H205.789C205.407 257.665 205.104 257.362 205.104 256.98C205.104 256.598 205.407 256.295 205.789 256.295H207.158C207.54 256.295 207.843 256.598 207.843 256.98Z" fill="black"/>
<path fill-rule="evenodd" clip-rule="evenodd" d="M229.705 265.172C229.705 265.554 229.402 265.856 229.02 265.856H227.651C227.269 265.856 226.966 265.554 226.966 265.172C226.966 264.79 227.269 264.487 227.651 264.487H229.02C229.402 264.487 229.705 264.79 229.705 265.172Z" fill="black"/>
<path fill-rule="evenodd" clip-rule="evenodd" d="M229.705 261.076C229.705 261.458 229.402 261.761 229.02 261.761H227.651C227.269 261.761 226.966 261.458 226.966 261.076C226.966 260.694 227.269 260.391 227.651 260.391H229.02C229.402 260.391 229.705 260.694 229.705 261.076Z" fill="black"/>
<path fill-rule="evenodd" clip-rule="evenodd" d="M229.705 256.98C229.705 257.362 229.402 257.665 229.02 257.665H227.651C227.269 257.665 226.966 257.362 226.966 256.98C226.966 256.598 227.269 256.295 227.651 256.295H229.02C229.402 256.295 229.705 256.598 229.705 256.98Z" fill="black"/>
<path fill-rule="evenodd" clip-rule="evenodd" d="M191.46 256.98C191.46 257.362 191.157 257.665 190.776 257.665H189.406C189.024 257.665 188.721 257.362 188.721 256.98C188.721 256.598 189.024 256.295 189.406 256.295H190.776C191.157 256.295 191.46 256.598 191.46 256.98Z" fill="black"/>
<path fill-rule="evenodd" clip-rule="evenodd" d="M202.391 256.98C202.391 257.362 202.088 257.665 201.706 257.665H200.337C199.955 257.665 199.652 257.362 199.652 256.98C199.652 256.598 199.955 256.295 200.337 256.295H201.706C202.088 256.295 202.391 256.598 202.391 256.98Z" fill="black"/>
<path fill-rule="evenodd" clip-rule="evenodd" d="M213.309 265.172C213.309 265.554 213.006 265.856 212.624 265.856H211.254C210.872 265.856 210.569 265.554 210.569 265.172C210.569 264.79 210.872 264.487 211.254 264.487H212.624C213.006 264.487 213.309 264.79 213.309 265.172Z" fill="black"/>
<path fill-rule="evenodd" clip-rule="evenodd" d="M224.24 265.185C224.24 265.567 223.937 265.87 223.555 265.87H222.185C221.803 265.87 221.5 265.567 221.5 265.185C221.5 264.803 221.803 264.5 222.185 264.5H223.555C223.937 264.5 224.24 264.803 224.24 265.185Z" fill="black"/>
<path fill-rule="evenodd" clip-rule="evenodd" d="M196.517 256.98C196.517 257.507 196.083 257.942 195.556 257.942C195.029 257.942 194.595 257.52 194.595 256.98C194.595 256.44 195.029 256.019 195.556 256.019C196.083 256.019 196.517 256.453 196.517 256.98Z" fill="black"/>
<path fill-rule="evenodd" clip-rule="evenodd" d="M196.517 261.076C196.517 261.603 196.083 262.038 195.556 262.038C195.029 262.038 194.595 261.616 194.595 261.076C194.595 260.536 195.029 260.115 195.556 260.115C196.083 260.115 196.517 260.549 196.517 261.076Z" fill="black"/>
<path fill-rule="evenodd" clip-rule="evenodd" d="M218.366 265.172C218.366 265.698 217.931 266.133 217.405 266.133C216.878 266.133 216.443 265.698 216.443 265.172C216.443 264.645 216.865 264.21 217.405 264.21C217.945 264.21 218.366 264.645 218.366 265.172Z" fill="black"/>
<path fill-rule="evenodd" clip-rule="evenodd" d="M218.366 261.076C218.366 261.603 217.931 262.038 217.405 262.038C216.878 262.038 216.443 261.616 216.443 261.076C216.443 260.536 216.865 260.115 217.405 260.115C217.945 260.115 218.366 260.549 218.366 261.076Z" fill="black"/>
<path d="M188.971 272.152L188.51 271.269L188.049 272.152H188.971ZM188.497 270.808H188.537L189.656 272.85H189.353L189.09 272.349H187.957L187.694 272.85H187.404L188.523 270.808H188.497Z" fill="black"/>
<path d="M192.079 271.849C192.553 271.849 192.804 271.704 192.804 271.441C192.804 271.151 192.54 271.045 192.04 271.045H191.842V271.836H192.079M191.566 270.861H192.066C192.751 270.861 193.093 271.072 193.093 271.441C193.093 271.717 192.856 271.954 192.474 272.007L193.343 272.85H192.988L192.158 272.033H191.855V272.85H191.579V270.861H191.566Z" fill="black"/>
<path d="M195.885 272.692C196.188 272.692 196.386 272.547 196.386 272.336C196.386 272.125 196.215 272.033 195.912 271.915L195.74 271.849C195.385 271.717 195.214 271.519 195.214 271.282C195.214 270.993 195.49 270.782 195.912 270.782C196.122 270.782 196.333 270.835 196.478 270.914V271.164C196.28 271.032 196.083 270.98 195.898 270.98C195.648 270.98 195.477 271.098 195.477 271.269C195.477 271.44 195.622 271.546 195.925 271.664L196.096 271.73C196.465 271.862 196.662 272.086 196.662 272.336C196.662 272.665 196.359 272.902 195.898 272.902C195.688 272.902 195.451 272.85 195.214 272.744L195.187 272.468C195.451 272.599 195.661 272.678 195.885 272.678" fill="black"/>
<path d="M198.796 270.861H199.072V271.691H200.403V270.861H200.679V272.85H200.403V271.901H199.072V272.85H198.796V270.861Z" fill="black"/>
<path d="M204.182 272.152L203.721 271.269L203.26 272.152H204.182ZM203.708 270.808H203.748L204.867 272.85H204.564L204.301 272.349H203.168L202.905 272.85H202.615L203.735 270.808H203.708Z" fill="black"/>
<path d="M206.777 270.861H207.066V272.639H208.186V272.85H206.777V270.861Z" fill="black"/>
<path d="M210.148 270.861H210.425V272.639H211.544V272.85H210.135V270.861H210.148Z" fill="black"/>
<path d="M216.654 272.929L215.824 270.848H216.114L216.68 272.323L217.299 270.782H217.325L217.905 272.323L218.458 270.848H218.735L217.892 272.929H217.852L217.273 271.388L216.654 272.929Z" fill="black"/>
<path d="M221.777 272.152L221.316 271.269L220.855 272.152H221.777ZM221.303 270.808H221.342L222.462 272.85H222.159L221.895 272.349H220.763L220.499 272.85H220.21L221.329 270.808H221.303Z" fill="black"/>
<path d="M225.32 272.915C225.043 272.915 224.793 272.836 224.582 272.705C224.292 272.507 224.121 272.204 224.121 271.862C224.121 271.256 224.635 270.795 225.32 270.795C225.57 270.795 225.794 270.861 226.018 270.98L225.991 271.23C225.78 271.085 225.57 271.006 225.32 271.006C224.793 271.006 224.398 271.361 224.398 271.849C224.398 272.336 224.78 272.692 225.306 272.692C225.57 272.692 225.794 272.613 226.044 272.441L226.018 272.718C225.807 272.85 225.57 272.915 225.306 272.915" fill="black"/>
<path d="M228.125 270.861H229.441V271.059H228.401V271.704H229.297V271.901H228.401V272.626H229.455V272.837H228.125V270.848V270.861Z" fill="black"/>
<path d="M185.231 270.782L186.061 272.863H185.758L185.192 271.388L184.573 272.929H184.546L183.967 271.388L183.4 272.863H183.124L183.967 270.782H184.006L184.586 272.323L185.205 270.782H185.244H185.231Z" fill="black"/>
<path d="M122.781 255.755V259.825H117.908V262.261H116.288V255.755H122.794H122.781ZM121.161 257.388H117.908V258.205H121.161V257.388Z" fill="black"/>
<path d="M131.446 255.755V262.261H124.94V255.755H131.446ZM129.826 257.388H126.573V260.641H129.826V257.388Z" fill="black"/>
<path d="M138.492 255.755H140.112V262.261H137.267V260.641H136.451V262.261H133.606V255.755H135.226V260.628H136.042V259.008H137.662V260.628H138.479V255.755H138.492Z" fill="black"/>
<path d="M143.918 257.388V258.205H147.171V259.825H143.918V260.641H148.791V262.261H142.285V255.755H148.791V257.375H143.918V257.388Z" fill="black"/>
<path d="M157.469 255.755V258.192H156.653V259.812H157.469V262.248H155.85V259.812H152.597V262.248H150.977V255.742H157.483L157.469 255.755ZM155.836 257.388H152.584V258.205H155.836V257.388Z" fill="black"/>
<path d="M161.262 257.388V258.205H164.515V259.825H161.262V260.641H166.135V262.261H159.629V255.755H166.135V257.375H161.262V257.388Z" fill="black"/>
<path d="M174.814 256.572V261.445H173.194V262.261H168.321V255.755H173.194V256.572H174.814ZM173.181 257.388H169.928V260.641H173.181V257.388Z" fill="black"/>
<path d="M166.135 266.976V271.849H164.515V272.665H159.642V266.159H164.515V266.976H166.135ZM164.515 267.792H161.262V268.609H164.515V267.792ZM164.515 270.229H161.262V271.045H164.515V270.229Z" fill="black"/>
<path d="M174.814 266.159V268.596H173.997V270.216H172.378V272.652H170.758V270.216H169.138V268.596H168.321V266.159H169.941V268.596H173.194V266.159H174.814Z" fill="black"/>
<path d="M11.7474 460.003H10.2329L8.74471 460.017H8.71835H7.23021H5.71569V458.515H4.20117V460.043V461.557H5.72886L7.24336 461.544H8.73153V463.059H10.246V464.573H8.73153V466.088H7.24336L5.72886 466.101V464.586H4.20117V466.101L4.21435 467.615H5.72886L7.24336 467.602H8.75786V469.117H10.2592H10.2855V470.631H11.7737V472.119H13.2882V473.634H14.8028V475.148H16.3173V476.663H17.8318L19.3463 476.65H20.8608L22.3753 476.637V475.122H20.8476H19.3331V473.608H17.8186V472.093H16.3041V470.605V470.579V469.09V467.576H16.3304H17.8186V466.048H19.3331V464.521H20.8476V462.993H22.3621V461.465H23.8766L25.3911 461.452H26.9056L28.4202 461.439H29.9347V459.911H31.4492V458.384V456.869L31.436 455.355V453.84L31.4228 452.326V450.811L31.4097 449.296H29.8952V447.782H28.3807L26.8661 447.795H25.3516L23.8371 447.808V449.323L23.8503 450.837V452.352L23.8634 453.866H22.3489V452.352V450.837H20.8213V452.352L20.8344 453.866V455.381H19.3199H17.8054V453.866V452.352H16.2778V453.866H14.7632V455.381H16.2909V456.895H14.7764V458.41H13.2619V459.924H11.7474M25.3911 456.882H26.9056V458.397H25.3911V456.882Z" fill="black"/>
<path d="M12.6692 522.954V521.743H15.0924V522.954H12.6692ZM15.0924 530.237V529.026H12.6692V530.237H15.0924ZM4.1748 524.166H5.38641V521.743H4.1748V524.166ZM5.38641 520.531V521.743H6.59801V520.531H5.38641ZM5.38641 527.814H4.1748V530.237H5.38641V527.814ZM5.38641 531.462H6.59801V530.25H5.38641V531.462ZM10.2328 531.462H7.8096V530.25H6.59801V521.756H7.8096V520.544H10.2328V521.756H11.4444V522.968H12.6561V529.039H11.4444V530.25H10.2328V531.462ZM10.2328 529.026V526.602H9.02122V529.026H10.2328ZM10.2328 522.954H9.02122V525.378H10.2328V522.954Z" fill="black"/>
<path d="M26.4711 530.382L27.0111 530.224L26.8531 529.697L27.3798 529.539L27.2218 529.012L27.7486 528.854L27.5906 528.314L28.1173 528.17L27.9725 527.63L28.4993 527.472L28.3412 526.945L28.868 526.787L28.71 526.26L29.2499 526.102L29.0919 525.575L29.6187 525.417L29.4606 524.877L29.9875 524.719L29.8294 524.192L30.3693 524.034L30.2113 523.508L30.7381 523.35L30.5801 522.823L31.1068 522.665L30.9488 522.138V522.125L31.4888 521.967L31.3307 521.44L31.1727 520.913L30.6459 521.071L30.106 521.229L29.5792 521.387L29.0524 521.545L28.5124 521.703L27.9856 521.861L27.4589 522.019L26.9321 522.164L26.3921 522.322L25.8653 522.48L25.3386 522.638L24.8118 522.796L24.2718 522.954L23.745 523.112L23.2182 523.271L22.6783 523.429L22.1515 523.587L21.6247 523.745L21.0979 523.903L20.558 524.061L20.716 524.587L20.874 525.114L21.4008 524.956L21.5588 525.483L22.0857 525.325L22.2437 525.865L22.7837 525.707L22.9417 526.234L23.0997 526.76L22.5598 526.918L22.033 527.077L22.191 527.616L21.6642 527.774L21.8091 528.301L21.2823 528.459L21.4403 528.986L21.5984 529.513L21.7564 530.053L22.2832 529.895L22.8232 529.737L23.3499 529.579L23.8767 529.421L23.7187 528.894L24.2455 528.736L24.7854 528.578L24.6274 528.051L25.1542 527.893L25.3122 528.42L25.4702 528.947L25.6283 529.473L25.7863 530.013L25.9444 530.54L26.1024 531.067L26.6292 530.909L26.4711 530.382Z" fill="black"/>
<path d="M4.16164 419.691H31.4755V414.16H4.16164V419.691Z" fill="#0060E6"/>
<path d="M4.16164 408.787H31.4755V403.255H4.16164V408.787Z" fill="#D62D3B"/>
<path d="M4.16164 430.583H31.4755V425.051H4.16164V430.583Z" fill="#FAA701"/>
<path d="M26.6027 389.348V383.501H20.7553V389.348H26.6027Z" fill="black"/>
<path d="M20.7554 395.195V389.348H14.908V395.195H20.7554Z" fill="black"/>
<path d="M14.9081 389.348V383.501H9.06076V389.348H14.9081Z" fill="black"/>
<path d="M29.7239 491.097H26.1945V491.979H29.7239V491.097Z" fill="black"/>
<path d="M29.7108 497.273H24.4298V498.156H29.7108V497.273Z" fill="black"/>
<path d="M24.4428 496.391H20.031V497.273H24.4428V496.391Z" fill="black"/>
<path d="M31.4885 492.861H30.6062V496.391H31.4885V492.861Z" fill="black"/>
<path d="M30.6064 496.391H29.724V497.273H30.6064V496.391Z" fill="black"/>
<path d="M30.6064 491.979H29.724V492.862H30.6064V491.979Z" fill="black"/>
<path d="M23.5605 491.979H22.6781V492.862H23.5605V491.979Z" fill="black"/>
<path d="M26.1944 490.214H25.312V491.097H26.1944V490.214Z" fill="black"/>
<path d="M24.4429 490.214H23.5605V491.979H24.4429V490.214Z" fill="black"/>
<path d="M25.3122 489.332H24.4298V490.214H25.3122V489.332Z" fill="black"/>
<path d="M22.6781 492.861H20.031V493.744H22.6781V492.861Z" fill="black"/>
<path d="M20.031 491.979H19.1487V492.862H20.031V491.979Z" fill="black"/>
<path d="M19.1486 491.097H18.2662V491.979H19.1486V491.097Z" fill="black"/>
<path d="M17.384 490.214H16.5016V491.097H17.384H18.2663V490.214H17.384Z" fill="black"/>
<path d="M16.5149 489.332H12.103V490.214H16.5149V489.332Z" fill="black"/>
<path d="M12.103 490.214H10.3383V491.097H12.103V490.214Z" fill="black"/>
<path d="M10.3383 491.097H9.45593V491.979H10.3383V491.097Z" fill="black"/>
<path d="M20.031 497.273H19.1487V499.038H20.031V497.273Z" fill="black"/>
<path d="M19.1486 499.025H18.2662V500.789H19.1486V499.025Z" fill="black"/>
<path d="M18.2664 500.79H17.384V502.554H18.2664V500.79Z" fill="black"/>
<path d="M17.384 502.554H16.5016V505.202H17.384V502.554Z" fill="black"/>
<path d="M9.45583 491.979H8.57349V493.744H9.45583V491.979Z" fill="black"/>
<path d="M16.5017 506.084H15.6194V506.966H16.5017V506.084Z" fill="black"/>
<path d="M18.2664 505.201H17.384V506.966H18.2664V505.201Z" fill="black"/>
<path d="M17.384 506.966H16.5016V507.849H17.384V506.966Z" fill="black"/>
<path d="M14.7369 505.201V504.319H13.8677V506.084H12.9854V506.966H14.7369V506.084H15.6193V505.201H14.7369Z" fill="black"/>
<path d="M12.1029 504.319H11.2206V505.201H12.1029V504.319Z" fill="black"/>
<path d="M12.9854 505.201H12.103V506.084H12.9854V505.201Z" fill="black"/>
<path d="M10.3383 500.79H9.45593V503.437H10.3383V500.79Z" fill="black"/>
<path d="M11.2206 503.437H10.3383V504.319H11.2206V503.437Z" fill="black"/>
<path d="M15.6193 502.554H14.7369V504.319H15.6193V502.554Z" fill="black"/>
<path d="M5.05717 493.744V494.626H7.69108V495.509H4.1748V496.391H7.69108V498.156H5.05717V499.025H7.69108H8.57346V493.744H7.69108H5.05717Z" fill="black"/>
<path d="M9.4558 499.907H4.1748V500.79H9.4558V499.907Z" fill="black"/>
<path d="M5.05717 492.861H4.1748V493.744H5.05717V492.861Z" fill="black"/>
<path d="M5.05717 497.273H4.1748V498.156H5.05717V497.273Z" fill="black"/>
<path d="M17.3839 505.202H16.5016V502.554H17.3839V500.79H18.2663V499.025H19.1487V497.26H20.031V496.378H24.4428V497.26H29.7239V496.378H30.6063V492.848H29.7239V491.966H27.0768V493.731H26.1944V494.613H24.4297V491.966H23.5473V492.848H22.6649V493.731H20.0179V492.848H19.1355V491.966H18.2531V491.084H16.4884V490.201H12.0766V491.084H10.3118V491.966H9.42946V493.731H8.54712V499.894H9.42946V500.777H10.3118V503.424H11.1942V504.306H12.0766V505.188H12.9589V506.071H13.8413V504.306H14.7236V502.541H15.606V504.306H14.7236V505.188H15.606V506.071H16.4884V506.953H17.3708V505.188L17.3839 505.202ZM27.0768 495.509H27.9592V496.391H26.1944V495.509H27.0768Z" fill="black"/>
</g>
<path d="M155.217 450.218H153.466V458.515H149.949V450.218H144.682V446.07H158.747V462.65H155.23V450.205L155.217 450.218Z" fill="black"/>
<path d="M155.217 472.33H153.466V480.627H149.949V472.33H148.198V484.776H144.682V468.195H158.747V484.776H155.23V472.33H155.217Z" fill="black"/>
<path d="M156.969 506.887H146.433V502.739H144.668V490.293H158.734V502.739H156.969V506.887ZM155.217 502.739V494.442H153.466V502.739H155.217ZM149.936 502.739V494.442H148.185V502.739H149.936Z" fill="black"/>
<path d="M125.691 462.664H122.175V446.083H125.691V452.299H132.724V446.083H136.24V456.448H125.691V462.664Z" fill="black"/>
<path d="M130.959 468.182V484.763H127.443V468.182H130.959Z" fill="black"/>
<path d="M136.24 506.888H127.456V494.442H125.704V506.888H122.188V490.307H130.972V502.752H132.724V490.307H136.24V506.888Z" fill="black"/>
<path d="M152.202 526.747H158.615V528.367H152.202V526.747Z" fill="black"/>
<path d="M152.202 530.079H158.615V532.594L155.52 533.911C155.415 533.964 155.27 534.017 155.099 534.083C154.928 534.148 154.743 534.214 154.546 534.293C154.348 534.372 154.177 534.425 154.032 534.491V534.557C154.164 534.609 154.322 534.662 154.506 534.728C154.691 534.794 154.862 534.86 155.046 534.939C155.231 535.004 155.375 535.07 155.507 535.123L158.602 536.453V538.903H152.188V537.296H155.863C155.981 537.296 156.113 537.296 156.258 537.296C156.403 537.296 156.534 537.296 156.679 537.309C156.811 537.309 156.943 537.309 157.048 537.309V537.23C156.943 537.204 156.811 537.151 156.679 537.098C156.548 537.046 156.389 536.993 156.245 536.94C156.1 536.888 155.981 536.848 155.876 536.796L152.202 535.202V533.674L155.876 532.081C156.021 532.015 156.166 531.962 156.31 531.896C156.455 531.844 156.6 531.791 156.732 531.752C156.864 531.712 156.969 531.673 157.061 531.646V531.567C156.982 531.567 156.877 531.567 156.745 531.58C156.613 531.58 156.469 531.58 156.324 531.58C156.179 531.58 156.034 531.58 155.889 531.58H152.215V530.04L152.202 530.079Z" fill="black"/>
<path d="M152.202 540.588H158.615V545.395C158.615 545.817 158.523 546.172 158.339 546.488C158.154 546.805 157.904 547.042 157.588 547.213C157.272 547.384 156.903 547.476 156.482 547.476C156.06 547.476 155.691 547.384 155.362 547.213C155.033 547.042 154.783 546.791 154.598 546.475C154.414 546.159 154.322 545.79 154.322 545.369V542.208H152.188V540.588H152.202ZM155.626 542.208V544.921C155.626 545.237 155.705 545.474 155.85 545.646C155.994 545.817 156.205 545.896 156.482 545.896C156.666 545.896 156.811 545.856 156.943 545.777C157.074 545.698 157.166 545.593 157.245 545.448C157.311 545.303 157.351 545.132 157.351 544.921V542.208H155.626Z" fill="black"/>
<path d="M152.202 548.609H158.615V555.18H157.351V550.215H156.087V554.601H154.835V550.215H153.479V555.246H152.202V548.595V548.609Z" fill="black"/>
<path d="M152.202 556.682H158.615V561.87C158.615 562.331 158.523 562.713 158.339 563.003C158.154 563.293 157.904 563.517 157.601 563.675C157.298 563.82 156.956 563.899 156.587 563.899C156.218 563.899 155.836 563.806 155.507 563.609C155.178 563.411 154.914 563.122 154.717 562.713L152.202 564.043V562.226L154.427 561.093V558.288H152.202V556.668V556.682ZM155.691 558.301V561.396C155.691 561.66 155.77 561.87 155.929 562.015C156.087 562.16 156.297 562.239 156.534 562.239C156.706 562.239 156.85 562.2 156.969 562.134C157.087 562.068 157.18 561.963 157.245 561.844C157.311 561.726 157.338 561.568 157.338 561.383V558.288H155.678L155.691 558.301Z" fill="black"/>
<path d="M152.202 565.334H158.615V566.954H152.202V565.334Z" fill="black"/>
<path d="M152.202 567.994L158.615 571.181V572.999L152.202 576.186V574.434L153.36 573.868V570.22L152.202 569.654V567.994ZM154.598 570.8V573.275L156.06 572.591C156.06 572.591 156.218 572.525 156.337 572.472C156.455 572.419 156.587 572.367 156.719 572.314C156.85 572.261 156.969 572.209 157.074 572.169C157.18 572.13 157.246 572.103 157.272 572.09V572.011C157.153 571.959 157.008 571.906 156.85 571.84C156.692 571.774 156.548 571.708 156.403 571.656C156.258 571.59 156.139 571.55 156.047 571.498L154.585 570.813L154.598 570.8Z" fill="black"/>
<path d="M152.202 577.24H158.615V578.859H153.558V582.955H152.188V577.253L152.202 577.24Z" fill="black"/>
<path d="M152.083 590.686C152.083 589.803 152.215 589.066 152.465 588.486C152.715 587.894 153.097 587.446 153.584 587.156C154.072 586.867 154.691 586.708 155.415 586.708C156.468 586.708 157.285 587.051 157.864 587.723C158.444 588.394 158.734 589.382 158.734 590.673C158.734 591.397 158.628 592.042 158.418 592.595C158.207 593.148 157.904 593.583 157.509 593.899C157.114 594.215 156.653 594.36 156.113 594.36V592.78C156.403 592.78 156.64 592.687 156.85 592.516C157.048 592.345 157.206 592.095 157.311 591.766C157.417 591.436 157.469 591.068 157.469 590.633C157.469 590.159 157.39 589.751 157.232 589.408C157.074 589.066 156.85 588.802 156.574 588.618C156.284 588.434 155.942 588.342 155.547 588.342H155.31C154.914 588.342 154.572 588.434 154.282 588.618C153.993 588.802 153.769 589.066 153.611 589.408C153.453 589.751 153.374 590.159 153.374 590.633C153.374 591.107 153.426 591.476 153.518 591.805C153.611 592.134 153.769 592.385 153.966 592.556C154.164 592.727 154.414 592.819 154.691 592.819V594.36C154.164 594.36 153.703 594.202 153.308 593.899C152.913 593.596 152.61 593.162 152.399 592.608C152.188 592.055 152.083 591.41 152.083 590.659V590.686Z" fill="black"/>
<path d="M152.083 599.681C152.083 598.825 152.215 598.087 152.478 597.468C152.741 596.849 153.123 596.362 153.611 596.019C154.111 595.677 154.704 595.519 155.415 595.519C156.126 595.519 156.719 595.69 157.219 596.019C157.72 596.362 158.088 596.836 158.352 597.468C158.615 598.1 158.734 598.838 158.734 599.681C158.734 600.523 158.602 601.274 158.352 601.906C158.102 602.538 157.72 603.013 157.219 603.342C156.719 603.671 156.126 603.842 155.415 603.842C154.704 603.842 154.111 603.671 153.611 603.342C153.11 603.013 152.741 602.525 152.478 601.906C152.215 601.287 152.083 600.537 152.083 599.681ZM153.374 599.681C153.374 600.049 153.413 600.379 153.505 600.695C153.597 601.011 153.716 601.261 153.874 601.485C154.032 601.709 154.243 601.88 154.48 601.998C154.73 602.117 155.007 602.183 155.31 602.183H155.52C155.836 602.183 156.113 602.117 156.35 601.998C156.6 601.88 156.798 601.709 156.956 601.485C157.114 601.261 157.245 600.998 157.325 600.695C157.404 600.392 157.456 600.049 157.456 599.681C157.456 599.312 157.417 598.983 157.325 598.667C157.245 598.364 157.114 598.1 156.956 597.876C156.798 597.652 156.587 597.481 156.35 597.363C156.113 597.244 155.836 597.178 155.52 597.178H155.31C154.993 597.178 154.717 597.244 154.48 597.363C154.23 597.481 154.032 597.652 153.874 597.876C153.716 598.1 153.584 598.364 153.505 598.667C153.426 598.97 153.374 599.312 153.374 599.681Z" fill="black"/>
<path d="M152.202 605.291H158.615V606.911H153.558V611.006H152.188V605.304L152.202 605.291Z" fill="black"/>
<path d="M152.202 612.113H158.615V613.732H153.558V617.828H152.188V612.126L152.202 612.113Z" fill="black"/>
<path d="M152.202 618.921H158.615V625.493H157.351V620.528H156.087V624.914H154.835V620.528H153.479V625.559H152.202V618.908V618.921Z" fill="black"/>
<path d="M152.083 630.616C152.083 629.325 152.36 628.351 152.9 627.692C153.453 627.047 154.282 626.718 155.389 626.718C156.113 626.718 156.732 626.889 157.219 627.218C157.72 627.547 158.088 628.035 158.339 628.667C158.589 629.299 158.707 630.063 158.707 630.945C158.707 631.512 158.655 632.025 158.562 632.486C158.47 632.96 158.312 633.368 158.115 633.711C157.917 634.066 157.667 634.33 157.364 634.514C157.061 634.699 156.719 634.791 156.31 634.791V633.224C156.521 633.224 156.692 633.158 156.837 633.039C156.982 632.921 157.101 632.749 157.18 632.539C157.272 632.328 157.325 632.091 157.377 631.828C157.417 631.564 157.443 631.288 157.443 630.985C157.443 630.603 157.404 630.247 157.325 629.918C157.245 629.589 157.127 629.312 156.969 629.088C156.811 628.851 156.613 628.68 156.363 628.548C156.126 628.417 155.836 628.351 155.507 628.351H155.283C154.822 628.351 154.454 628.456 154.164 628.654C153.874 628.851 153.677 629.141 153.545 629.497C153.413 629.865 153.347 630.3 153.347 630.814C153.347 631.327 153.4 631.788 153.492 632.13C153.584 632.486 153.716 632.749 153.9 632.934C154.085 633.118 154.296 633.21 154.546 633.21H154.612V630.748H155.77V634.778H152.188V633.803L153.005 633.645C152.781 633.408 152.61 633.131 152.478 632.815C152.346 632.499 152.241 632.157 152.175 631.775C152.109 631.393 152.083 630.998 152.083 630.576V630.616Z" fill="black"/>
<path d="M152.202 636.464H158.615V643.035H157.351V638.07H156.087V642.456H154.835V638.07H153.479V643.101H152.202V636.45V636.464Z" fill="black"/>
<path d="M152.202 647.473H158.615V649.093H153.558V653.189H152.188V647.486L152.202 647.473Z" fill="black"/>
<path d="M152.083 657.706C152.083 656.85 152.215 656.112 152.478 655.494C152.741 654.875 153.123 654.387 153.611 654.045C154.111 653.702 154.704 653.544 155.415 653.544C156.126 653.544 156.719 653.716 157.219 654.045C157.72 654.387 158.088 654.861 158.352 655.494C158.615 656.126 158.734 656.863 158.734 657.706C158.734 658.549 158.602 659.3 158.352 659.932C158.102 660.564 157.72 661.038 157.219 661.367C156.719 661.696 156.126 661.868 155.415 661.868C154.704 661.868 154.111 661.696 153.611 661.367C153.11 661.038 152.741 660.551 152.478 659.932C152.215 659.313 152.083 658.562 152.083 657.706ZM153.374 657.706C153.374 658.075 153.413 658.404 153.505 658.72C153.597 659.036 153.716 659.286 153.874 659.51C154.032 659.734 154.243 659.905 154.48 660.024C154.73 660.142 155.007 660.208 155.31 660.208H155.52C155.836 660.208 156.113 660.142 156.35 660.024C156.6 659.905 156.798 659.734 156.956 659.51C157.114 659.286 157.245 659.023 157.325 658.72C157.404 658.417 157.456 658.075 157.456 657.706C157.456 657.337 157.417 657.008 157.325 656.692C157.245 656.389 157.114 656.126 156.956 655.902C156.798 655.678 156.587 655.507 156.35 655.388C156.113 655.27 155.836 655.204 155.52 655.204H155.31C154.993 655.204 154.717 655.27 154.48 655.388C154.23 655.507 154.032 655.678 153.874 655.902C153.716 656.126 153.584 656.389 153.505 656.692C153.426 656.995 153.374 657.337 153.374 657.706Z" fill="black"/>
<path d="M152.202 663.316H158.615V664.804L155.389 668.242C155.336 668.308 155.257 668.4 155.138 668.505C155.033 668.611 154.928 668.716 154.809 668.821C154.691 668.94 154.598 669.032 154.506 669.111V669.19C154.625 669.19 154.783 669.177 154.98 669.164C155.165 669.164 155.323 669.15 155.441 669.15H158.602V670.691H152.188V669.229L155.415 665.819C155.56 665.661 155.731 665.489 155.915 665.318C156.1 665.147 156.245 665.002 156.35 664.897V664.818C156.271 664.818 156.126 664.818 155.942 664.831C155.744 664.831 155.533 664.831 155.283 664.831H152.188V663.29L152.202 663.316Z" fill="black"/>
<path d="M152.202 672.417H158.615V675.906C158.615 676.697 158.497 677.381 158.246 677.948C157.996 678.514 157.641 678.949 157.166 679.252C156.692 679.554 156.1 679.712 155.402 679.712C154.704 679.712 154.124 679.554 153.65 679.252C153.176 678.949 152.807 678.514 152.57 677.948C152.32 677.381 152.202 676.697 152.202 675.906V672.417ZM153.479 674.023V675.814C153.479 676.143 153.518 676.433 153.598 676.71C153.677 676.986 153.795 677.21 153.94 677.421C154.085 677.632 154.282 677.777 154.506 677.882C154.73 677.987 154.994 678.04 155.296 678.04H155.507C155.81 678.04 156.073 677.987 156.297 677.882C156.521 677.777 156.719 677.618 156.864 677.421C157.008 677.223 157.127 676.986 157.219 676.71C157.311 676.433 157.338 676.143 157.338 675.814V674.023H153.466H153.479Z" fill="black"/>
<path d="M152.083 685.02C152.083 684.164 152.215 683.427 152.478 682.808C152.741 682.189 153.123 681.701 153.611 681.359C154.111 681.016 154.704 680.858 155.415 680.858C156.126 680.858 156.719 681.03 157.219 681.359C157.72 681.701 158.088 682.175 158.352 682.808C158.615 683.44 158.734 684.177 158.734 685.02C158.734 685.863 158.602 686.614 158.352 687.246C158.102 687.878 157.72 688.352 157.219 688.681C156.719 689.01 156.126 689.182 155.415 689.182C154.704 689.182 154.111 689.01 153.611 688.681C153.11 688.352 152.741 687.865 152.478 687.246C152.215 686.627 152.083 685.876 152.083 685.02ZM153.374 685.02C153.374 685.389 153.413 685.718 153.505 686.034C153.597 686.35 153.716 686.6 153.874 686.824C154.032 687.048 154.243 687.219 154.48 687.338C154.73 687.456 155.007 687.522 155.31 687.522H155.52C155.836 687.522 156.113 687.456 156.35 687.338C156.6 687.219 156.798 687.048 156.956 686.824C157.114 686.6 157.245 686.337 157.325 686.034C157.404 685.731 157.456 685.389 157.456 685.02C157.456 684.651 157.417 684.322 157.325 684.006C157.245 683.703 157.114 683.44 156.956 683.216C156.798 682.992 156.587 682.821 156.35 682.702C156.113 682.584 155.836 682.518 155.52 682.518H155.31C154.993 682.518 154.717 682.584 154.48 682.702C154.23 682.821 154.032 682.992 153.874 683.216C153.716 683.44 153.584 683.703 153.505 684.006C153.426 684.309 153.374 684.651 153.374 685.02Z" fill="black"/>
<path d="M152.202 690.63H158.615V692.118L155.389 695.556C155.336 695.621 155.257 695.714 155.138 695.819C155.033 695.924 154.928 696.03 154.809 696.135C154.691 696.254 154.598 696.346 154.506 696.425V696.504C154.625 696.504 154.783 696.491 154.98 696.477C155.165 696.477 155.323 696.464 155.441 696.464H158.602V698.005H152.188V696.543L155.415 693.132C155.56 692.974 155.731 692.803 155.915 692.632C156.1 692.461 156.245 692.316 156.35 692.21V692.131C156.271 692.131 156.126 692.131 155.942 692.145C155.744 692.145 155.533 692.145 155.283 692.145H152.188V690.604L152.202 690.63Z" fill="black"/>
<path d="M122.544 604.751C122.544 603.816 122.675 603.013 122.925 602.341C123.176 601.669 123.544 601.129 124.032 600.695C124.519 600.273 125.098 599.957 125.796 599.76C126.481 599.562 127.285 599.457 128.18 599.457C129.076 599.457 129.866 599.562 130.564 599.76C131.249 599.957 131.841 600.273 132.329 600.695C132.816 601.116 133.185 601.656 133.422 602.328C133.672 602.999 133.79 603.803 133.79 604.738C133.79 605.673 133.672 606.476 133.422 607.148C133.171 607.82 132.803 608.359 132.329 608.794C131.841 609.216 131.262 609.532 130.564 609.729C129.879 609.927 129.076 610.019 128.18 610.019C127.285 610.019 126.494 609.927 125.796 609.729C125.112 609.532 124.519 609.229 124.032 608.807C123.544 608.386 123.176 607.846 122.925 607.174C122.675 606.503 122.544 605.699 122.544 604.764V604.751ZM124.348 604.751C124.348 605.409 124.479 605.949 124.73 606.344C124.993 606.74 125.375 607.029 125.889 607.201C126.402 607.385 127.048 607.464 127.838 607.464H128.536C129.3 607.464 129.945 607.372 130.459 607.201C130.972 607.016 131.354 606.74 131.604 606.344C131.854 605.949 131.986 605.423 131.986 604.751C131.986 604.079 131.854 603.566 131.604 603.171C131.354 602.776 130.972 602.486 130.459 602.301C129.945 602.117 129.313 602.038 128.536 602.038H127.838C127.061 602.038 126.415 602.13 125.889 602.301C125.375 602.486 124.98 602.776 124.73 603.171C124.466 603.566 124.348 604.093 124.348 604.751Z" fill="black"/>
<path d="M122.544 616.749C122.544 615.748 122.688 614.892 122.965 614.167C123.242 613.443 123.65 612.89 124.177 612.508C124.703 612.126 125.349 611.929 126.099 611.929V614.325C125.691 614.325 125.349 614.431 125.098 614.628C124.835 614.839 124.651 615.116 124.532 615.484C124.414 615.853 124.348 616.274 124.348 616.749C124.348 617.499 124.48 618.079 124.756 618.513C125.019 618.935 125.415 619.238 125.928 619.409C126.442 619.58 127.074 619.672 127.825 619.672C127.522 619.383 127.271 619.04 127.087 618.632C126.903 618.224 126.771 617.802 126.692 617.381C126.613 616.959 126.587 616.538 126.587 616.169C126.587 615.247 126.718 614.431 126.995 613.733C127.271 613.035 127.667 612.495 128.193 612.1C128.72 611.705 129.339 611.52 130.05 611.52C130.84 611.52 131.512 611.744 132.078 612.205C132.645 612.666 133.066 613.285 133.356 614.075C133.646 614.865 133.804 615.787 133.804 616.828C133.804 617.697 133.698 618.474 133.501 619.145C133.303 619.817 132.987 620.383 132.566 620.844C132.144 621.305 131.591 621.648 130.906 621.885C130.221 622.122 129.418 622.24 128.483 622.24C127.416 622.24 126.508 622.122 125.77 621.872C125.019 621.635 124.414 621.279 123.94 620.805C123.465 620.331 123.123 619.764 122.899 619.08C122.675 618.395 122.57 617.605 122.57 616.722L122.544 616.749ZM128.272 616.828C128.272 617.42 128.351 617.921 128.509 618.329C128.667 618.737 128.891 619.053 129.168 619.264C129.444 619.475 129.774 619.593 130.156 619.593C130.511 619.593 130.827 619.488 131.117 619.264C131.407 619.04 131.617 618.737 131.762 618.329C131.92 617.921 131.986 617.42 131.986 616.841C131.986 616.261 131.907 615.774 131.762 615.366C131.604 614.944 131.394 614.628 131.117 614.404C130.84 614.181 130.498 614.075 130.116 614.075C129.761 614.075 129.444 614.181 129.168 614.378C128.891 614.576 128.681 614.892 128.523 615.3C128.365 615.708 128.286 616.222 128.286 616.814L128.272 616.828Z" fill="black"/>
<path d="M128.431 624.163H131.064V627.113H128.431V624.163ZM122.741 624.163H125.375V627.113H122.741V624.163Z" fill="black"/>
<path d="M122.544 634.277C122.544 633.342 122.675 632.539 122.925 631.867C123.176 631.195 123.544 630.655 124.032 630.221C124.519 629.799 125.098 629.483 125.796 629.286C126.481 629.088 127.285 628.983 128.18 628.983C129.076 628.983 129.866 629.088 130.564 629.286C131.249 629.483 131.841 629.799 132.329 630.221C132.816 630.642 133.185 631.182 133.422 631.854C133.672 632.526 133.79 633.329 133.79 634.264C133.79 635.199 133.672 636.002 133.422 636.674C133.171 637.346 132.803 637.886 132.329 638.32C131.841 638.742 131.262 639.058 130.564 639.255C129.879 639.453 129.076 639.545 128.18 639.545C127.285 639.545 126.494 639.453 125.796 639.255C125.112 639.058 124.519 638.755 124.032 638.333C123.544 637.912 123.176 637.372 122.925 636.7C122.675 636.029 122.544 635.225 122.544 634.29V634.277ZM124.348 634.277C124.348 634.936 124.479 635.476 124.73 635.871C124.993 636.266 125.375 636.555 125.889 636.727C126.402 636.911 127.048 636.99 127.838 636.99H128.536C129.3 636.99 129.945 636.898 130.459 636.727C130.972 636.542 131.354 636.266 131.604 635.871C131.854 635.476 131.986 634.949 131.986 634.277C131.986 633.605 131.854 633.092 131.604 632.697C131.354 632.302 130.972 632.012 130.459 631.828C129.945 631.643 129.313 631.564 128.536 631.564H127.838C127.061 631.564 126.415 631.656 125.889 631.828C125.375 632.012 124.98 632.302 124.73 632.697C124.466 633.092 124.348 633.619 124.348 634.277Z" fill="black"/>
<path d="M122.544 646.433C122.544 645.498 122.675 644.694 122.925 644.023C123.176 643.351 123.544 642.811 124.032 642.376C124.519 641.955 125.098 641.639 125.796 641.441C126.481 641.244 127.285 641.138 128.18 641.138C129.076 641.138 129.866 641.244 130.564 641.441C131.249 641.639 131.841 641.955 132.329 642.376C132.816 642.798 133.185 643.338 133.422 644.009C133.672 644.681 133.79 645.484 133.79 646.419C133.79 647.355 133.672 648.158 133.422 648.829C133.171 649.501 132.803 650.041 132.329 650.476C131.841 650.897 131.262 651.213 130.564 651.411C129.879 651.608 129.076 651.7 128.18 651.7C127.285 651.7 126.494 651.608 125.796 651.411C125.112 651.213 124.519 650.91 124.032 650.489C123.544 650.067 123.176 649.527 122.925 648.856C122.675 648.184 122.544 647.381 122.544 646.446V646.433ZM124.348 646.433C124.348 647.091 124.479 647.631 124.73 648.026C124.993 648.421 125.375 648.711 125.889 648.882C126.402 649.067 127.048 649.146 127.838 649.146H128.536C129.3 649.146 129.945 649.053 130.459 648.882C130.972 648.698 131.354 648.421 131.604 648.026C131.854 647.631 131.986 647.104 131.986 646.433C131.986 645.761 131.854 645.247 131.604 644.852C131.354 644.457 130.972 644.167 130.459 643.983C129.945 643.799 129.313 643.72 128.536 643.72H127.838C127.061 643.72 126.415 643.812 125.889 643.983C125.375 644.167 124.98 644.457 124.73 644.852C124.466 645.247 124.348 645.774 124.348 646.433Z" fill="black"/>
<path d="M111.336 516.514H44.2238" stroke="black" stroke-miterlimit="10"/>
<path d="M111.336 443.765V722.132" stroke="black" stroke-miterlimit="10"/>
<path d="M131.604 531.62C132.421 531.554 132.829 531.041 132.829 530.106C132.829 529.684 132.737 529.368 132.566 529.131C132.394 528.894 132.157 528.775 131.854 528.775C131.578 528.775 131.38 528.868 131.275 529.039C131.17 529.21 131.038 529.592 130.893 530.185C130.853 530.343 130.814 530.461 130.801 530.54C130.603 531.317 130.432 531.844 130.274 532.12C129.945 532.739 129.431 533.042 128.72 533.042C128.417 533.042 128.141 532.99 127.89 532.884C127.64 532.779 127.443 532.634 127.271 532.463C127.1 532.292 126.968 532.081 126.863 531.844C126.758 531.607 126.679 531.357 126.626 531.093C126.573 530.83 126.547 530.566 126.547 530.277C126.547 529.408 126.758 528.696 127.166 528.156C127.587 527.616 128.193 527.353 128.997 527.353V528.552C128.496 528.552 128.114 528.723 127.864 529.052C127.614 529.381 127.495 529.816 127.495 530.356C127.495 530.83 127.587 531.185 127.785 531.449C127.982 531.712 128.246 531.844 128.588 531.844C128.812 531.844 128.983 531.778 129.128 531.633C129.273 531.488 129.365 531.343 129.431 531.185C129.484 531.027 129.576 530.738 129.681 530.343C129.681 530.303 129.708 530.264 129.708 530.237C129.932 529.368 130.116 528.802 130.261 528.525C130.551 527.959 131.012 527.656 131.617 527.616H131.749C132.368 527.616 132.855 527.853 133.224 528.314C133.593 528.775 133.777 529.408 133.777 530.185C133.777 530.962 133.593 531.554 133.237 532.028C132.882 532.502 132.328 532.753 131.591 532.779V531.62H131.604Z" fill="black"/>
<path d="M132.592 539.087V536.875H126.692V535.65H132.592V533.438H133.645V539.087H132.592Z" fill="black"/>
<path d="M126.705 544.855V543.551L128.549 542.893V540.141L126.705 539.456V538.191L133.659 540.878V542.182L126.705 544.868V544.855ZM132.394 541.523L129.471 540.443V542.564L132.394 541.523Z" fill="black"/>
<path d="M133.645 548.793C133.645 549.478 133.487 550.044 133.185 550.479C132.882 550.913 132.381 551.137 131.723 551.137C131.301 551.137 130.946 551.032 130.656 550.835C130.353 550.637 130.142 550.347 130.011 549.992C129.971 550.163 129.918 550.308 129.839 550.426C129.76 550.545 129.681 550.65 129.589 550.716C129.497 550.782 129.378 550.834 129.234 550.887C129.089 550.927 128.97 550.966 128.852 550.979C128.746 550.993 128.602 551.006 128.43 551.019C128.391 551.019 128.299 551.032 128.167 551.045C128.035 551.045 127.956 551.058 127.903 551.072C127.851 551.085 127.785 551.072 127.68 551.098C127.574 551.098 127.508 551.111 127.456 551.124C127.403 551.137 127.35 551.137 127.271 551.164C127.192 551.177 127.126 551.19 127.087 551.203C127.047 551.203 126.995 551.23 126.942 551.256C126.889 551.269 126.837 551.295 126.797 551.322C126.758 551.348 126.718 551.374 126.692 551.414V550.11C126.692 550.11 126.745 550.071 126.784 550.057C126.824 550.044 126.863 550.031 126.903 550.018C126.942 550.005 126.982 549.992 127.021 549.992C127.061 549.992 127.1 549.978 127.166 549.965C127.232 549.965 127.285 549.952 127.311 549.952L127.482 549.926H127.653C127.653 549.926 127.759 549.899 127.864 549.899C127.956 549.899 128.035 549.899 128.075 549.899C128.641 549.873 129.023 549.755 129.247 549.544C129.458 549.333 129.563 548.951 129.563 548.372V546.752H126.692V545.54H133.645V548.833V548.793ZM130.472 546.712V548.319C130.472 548.556 130.472 548.754 130.511 548.912C130.537 549.07 130.59 549.241 130.656 549.399C130.722 549.57 130.84 549.689 130.998 549.781C131.156 549.873 131.354 549.913 131.591 549.913C131.815 549.913 131.999 549.873 132.144 549.794C132.289 549.715 132.394 549.61 132.473 549.452C132.552 549.294 132.592 549.162 132.618 549.004C132.645 548.846 132.658 548.675 132.658 548.464V546.699H130.485L130.472 546.712Z" fill="black"/>
<path d="M132.592 557.195V554.983H126.692V553.758H132.592V551.546H133.645V557.195H132.592Z" fill="black"/>
<path d="M132.592 565.69V563.477H126.692V562.253H132.592V560.04H133.645V565.69H132.592Z" fill="black"/>
<path d="M126.705 567.744V566.52H133.659V567.744H126.705Z" fill="black"/>
<path d="M126.705 576.436V575.277H132.065L126.705 573.341V572.34L132.065 570.365H126.705V569.219H133.659V570.931L128.22 572.867L133.659 574.737V576.436H126.705Z" fill="black"/>
<path d="M132.618 582.889V579.097H130.774V582.613H129.787V579.097H127.732V582.955H126.692V577.885H133.645V582.889H132.618Z" fill="black"/>
<path d="M91.8584 531.475V528.354H90.3439V531.251H89.5406V528.354H87.8548V531.515H86.9988V527.353H92.7013V531.462H91.8584V531.475Z" fill="black"/>
<path d="M86.9988 537.046V536.019L91.1999 533.358H86.9988V532.41H92.7013V533.464L88.5001 536.098H92.7013V537.059H86.9988V537.046Z" fill="black"/>
<path d="M91.8321 542.301V540.483H86.9988V539.482H91.8321V537.665H92.7013V542.301H91.8321Z" fill="black"/>
<path d="M92.7012 545.646C92.7012 546.212 92.5695 546.673 92.3193 547.028C92.0691 547.384 91.6608 547.568 91.1077 547.568C90.7652 547.568 90.4755 547.489 90.2253 547.318C89.9883 547.147 89.8039 546.923 89.6985 546.62C89.6722 546.765 89.6195 546.884 89.5537 546.976C89.4878 547.081 89.4219 547.16 89.3429 547.213C89.2639 547.265 89.1717 547.318 89.0532 547.358C88.9347 547.397 88.8293 547.423 88.7503 547.437C88.6581 547.45 88.5396 547.463 88.4079 547.476C88.3684 547.476 88.3025 547.476 88.1972 547.489C88.0918 547.489 88.026 547.502 87.9865 547.502C87.947 547.502 87.8943 547.502 87.8021 547.516C87.7231 547.516 87.6572 547.529 87.6177 547.529C87.5782 547.529 87.5387 547.542 87.4597 547.555C87.3938 547.568 87.3412 547.581 87.3017 547.595C87.2621 547.595 87.2226 547.621 87.1831 547.634C87.1436 547.647 87.1041 547.674 87.0646 547.687C87.0251 547.7 86.9988 547.726 86.9724 547.753V546.686C86.9724 546.686 87.0251 546.66 87.0514 546.646C87.0778 546.646 87.1173 546.62 87.1436 546.607C87.17 546.594 87.2095 546.594 87.2358 546.581C87.2622 546.567 87.3017 546.581 87.3543 546.554C87.407 546.554 87.4465 546.554 87.4729 546.554H87.6177L87.7626 546.528C87.7889 546.528 87.8548 546.528 87.9338 546.528C88.0128 546.528 88.0655 546.528 88.105 546.528C88.5659 546.502 88.882 546.409 89.0664 546.238C89.2376 546.067 89.3298 545.751 89.3298 545.277V543.947H86.9724V542.959H92.6748V545.659L92.7012 545.646ZM90.0936 543.947V545.264C90.0936 545.461 90.0936 545.619 90.1199 545.751C90.1463 545.883 90.1858 546.014 90.2385 546.159C90.2912 546.291 90.3834 546.396 90.515 546.475C90.6467 546.541 90.8048 546.581 91.0023 546.581C91.1867 546.581 91.3316 546.554 91.4501 546.488C91.5686 546.423 91.6608 546.33 91.7135 546.212C91.7662 546.093 91.8188 545.975 91.832 545.843C91.8584 545.711 91.8583 545.567 91.8583 545.395V543.947H90.0673H90.0936Z" fill="black"/>
<path d="M89.264 550.808H86.9988V549.82H89.264L92.7013 547.66V548.819L90.1727 550.334L92.7013 551.835V552.955L89.264 550.808Z" fill="black"/>
<path d="M71.5902 529.934C71.5902 530.474 71.4717 530.909 71.2214 531.251C70.9844 531.594 70.5893 531.765 70.0757 531.765C69.7464 531.765 69.4699 531.686 69.2328 531.528C68.9958 531.37 68.8377 531.146 68.7324 530.869C68.706 531.001 68.6533 531.12 68.6007 531.212C68.5348 531.304 68.469 531.383 68.4031 531.436C68.3373 531.488 68.2451 531.528 68.1266 531.567C68.008 531.607 67.9159 531.633 67.8368 531.633C67.7578 531.633 67.6393 531.66 67.5076 531.673C67.4681 531.673 67.4022 531.673 67.2969 531.686C67.1915 531.686 67.1257 531.686 67.0993 531.699C67.073 531.712 67.0071 531.699 66.9281 531.712C66.8491 531.712 66.7833 531.725 66.7569 531.725C66.7306 531.725 66.6779 531.739 66.6121 531.752C66.5462 531.752 66.4935 531.778 66.4672 531.791C66.4277 531.791 66.4013 531.818 66.3487 531.831C66.3092 531.844 66.2697 531.87 66.2433 531.883C66.217 531.897 66.1906 531.923 66.1643 531.949V530.922C66.1643 530.922 66.2038 530.896 66.2433 530.882C66.2697 530.882 66.296 530.856 66.3355 530.843C66.375 530.83 66.4013 530.83 66.4277 530.817C66.454 530.803 66.4935 530.817 66.5462 530.803C66.5989 530.803 66.6384 530.803 66.6647 530.803H66.7964L66.9281 530.777C66.9545 530.777 67.0071 530.777 67.0862 530.777C67.1652 530.777 67.2178 530.777 67.2442 530.777C67.692 530.751 67.9949 530.659 68.1529 530.501C68.3241 530.343 68.4031 530.04 68.4031 529.592V528.328H66.1511V527.379H71.5902V529.961V529.934ZM69.1011 528.314V529.579C69.1011 529.763 69.1011 529.921 69.1275 530.04C69.1538 530.171 69.1801 530.29 69.2328 530.422C69.2855 530.553 69.3777 530.645 69.4962 530.724C69.6148 530.79 69.7728 530.83 69.9571 530.83C70.1283 530.83 70.2732 530.803 70.3917 530.738C70.5103 530.672 70.5893 530.593 70.642 530.474C70.6947 530.356 70.7342 530.237 70.7605 530.119C70.7868 530 70.7868 529.855 70.7868 529.697V528.314H69.0879H69.1011Z" fill="black"/>
<path d="M70.9317 536.98C70.4049 537.467 69.7201 537.704 68.8772 537.704C68.0344 537.704 67.3496 537.467 66.8228 536.98C66.296 536.493 66.0326 535.861 66.0326 535.097C66.0326 534.333 66.296 533.688 66.8228 533.2C67.3496 532.713 68.0344 532.476 68.8904 532.476C69.7464 532.476 70.3917 532.713 70.9317 533.187C71.4717 533.661 71.735 534.293 71.735 535.11C71.735 535.927 71.4716 536.506 70.9448 536.993L70.9317 536.98ZM70.3654 533.885C69.9966 533.582 69.4962 533.437 68.8904 533.437C68.2846 533.437 67.7578 533.582 67.3891 533.885C67.0203 534.188 66.8359 534.596 66.8359 535.11C66.8359 535.624 67.0203 536.006 67.4022 536.295C67.771 536.598 68.2714 536.743 68.8904 536.743C69.5094 536.743 70.0098 536.598 70.3786 536.295C70.7473 535.992 70.9317 535.597 70.9317 535.097C70.9317 534.596 70.7473 534.201 70.3786 533.898L70.3654 533.885Z" fill="black"/>
<path d="M70.9317 542.788C70.4049 543.275 69.7201 543.512 68.8772 543.512C68.0344 543.512 67.3496 543.275 66.8228 542.788C66.296 542.3 66.0326 541.668 66.0326 540.905C66.0326 540.141 66.296 539.495 66.8228 539.008C67.3496 538.521 68.0344 538.284 68.8904 538.284C69.7464 538.284 70.3917 538.521 70.9317 538.995C71.4717 539.469 71.735 540.101 71.735 540.918C71.735 541.734 71.4716 542.314 70.9448 542.801L70.9317 542.788ZM70.3654 539.693C69.9966 539.39 69.4962 539.245 68.8904 539.245C68.2846 539.245 67.7578 539.39 67.3891 539.693C67.0203 539.996 66.8359 540.391 66.8359 540.918C66.8359 541.444 67.0203 541.813 67.4022 542.103C67.771 542.406 68.2714 542.551 68.8904 542.551C69.5094 542.551 70.0098 542.406 70.3786 542.103C70.7473 541.8 70.9317 541.405 70.9317 540.905C70.9317 540.404 70.7473 540.009 70.3786 539.706L70.3654 539.693Z" fill="black"/>
<path d="M66.1511 550.031V549.122H70.3522L66.1511 547.608V546.831L70.3522 545.277H66.1511V544.381H71.5902V545.724L67.3364 547.252L71.5902 548.714V550.044H66.1511V550.031Z" fill="black"/>
<path d="M69.9835 554.18C70.6157 554.127 70.9449 553.732 70.9449 552.994C70.9449 552.665 70.879 552.415 70.7473 552.23C70.6157 552.046 70.4313 551.954 70.1942 551.954C69.9704 551.954 69.8255 552.02 69.7464 552.151C69.6674 552.283 69.5621 552.586 69.4436 553.047C69.4041 553.165 69.3777 553.258 69.3646 553.337C69.2065 553.942 69.0748 554.351 68.9563 554.575C68.6929 555.062 68.2846 555.299 67.7447 555.299C67.5076 555.299 67.2837 555.259 67.0994 555.18C66.915 555.101 66.7438 554.983 66.6121 554.851C66.4804 554.72 66.375 554.548 66.2829 554.364C66.1907 554.18 66.138 553.982 66.0985 553.771C66.059 553.561 66.0458 553.35 66.0458 553.139C66.0458 552.454 66.2038 551.901 66.5331 551.48C66.8623 551.058 67.3364 550.848 67.9686 550.848V551.783C67.5735 551.783 67.2706 551.914 67.0862 552.178C66.9018 552.441 66.7965 552.77 66.7965 553.192C66.7965 553.561 66.8755 553.85 67.0204 554.048C67.1652 554.259 67.3759 554.351 67.6525 554.351C67.8237 554.351 67.9686 554.298 68.0739 554.193C68.1793 554.087 68.2583 553.969 68.311 553.837C68.3505 553.705 68.4163 553.482 68.5085 553.179C68.5085 553.139 68.5217 553.113 68.5349 553.1C68.7061 552.428 68.8509 551.98 68.9694 551.756C69.1933 551.309 69.5489 551.071 70.0362 551.045H70.1416C70.6288 551.045 71.0108 551.23 71.3005 551.585C71.5902 551.954 71.7351 552.441 71.7351 553.047C71.7351 553.653 71.5902 554.114 71.3136 554.496C71.0371 554.864 70.6025 555.062 70.023 555.088V554.18H69.9835Z" fill="black"/>
<path d="M83.996 566.098H92.5562V568.258H83.996V566.098Z" fill="black"/>
<path d="M83.838 575.475C83.838 574.303 84.0092 573.328 84.3384 572.538C84.6808 571.748 85.1681 571.155 85.8397 570.76C86.4982 570.365 87.3147 570.167 88.2761 570.167C89.6853 570.167 90.7784 570.615 91.5422 571.524C92.3061 572.433 92.688 573.736 92.688 575.462C92.688 576.436 92.5431 577.292 92.2665 578.03C91.99 578.767 91.5817 579.347 91.0549 579.755C90.5282 580.163 89.9092 580.374 89.1848 580.374V578.267C89.5668 578.267 89.896 578.148 90.1594 577.911C90.4228 577.674 90.6335 577.345 90.7784 576.91C90.9232 576.476 90.9891 575.988 90.9891 575.409C90.9891 574.777 90.8837 574.237 90.673 573.776C90.4623 573.315 90.1726 572.973 89.7906 572.736C89.4087 572.499 88.9478 572.38 88.421 572.38H88.1049C87.5781 572.38 87.1172 572.499 86.7353 572.736C86.3534 572.973 86.0505 573.328 85.8397 573.776C85.629 574.237 85.5237 574.777 85.5237 575.409C85.5237 576.041 85.5895 576.528 85.7212 576.963C85.8529 577.398 86.0505 577.727 86.3139 577.964C86.5773 578.201 86.9065 578.319 87.2884 578.319V580.374C86.5772 580.374 85.9715 580.176 85.4447 579.768C84.9179 579.36 84.5228 578.794 84.233 578.056C83.9565 577.319 83.8116 576.449 83.8116 575.462L83.838 575.475Z" fill="black"/>
<path d="M83.9959 582.297H92.5562V585.642L88.4341 587.393C88.2892 587.459 88.1049 587.538 87.8678 587.617C87.6308 587.709 87.3937 587.801 87.1303 587.894C86.8669 587.986 86.643 588.078 86.4455 588.144V588.236C86.6299 588.302 86.8406 588.381 87.0776 588.473C87.3147 588.565 87.5649 588.657 87.802 588.75C88.039 588.842 88.2497 588.921 88.4078 588.987L92.5431 590.751V594.017H83.9828V591.871H88.895C89.0531 591.871 89.2243 591.871 89.4218 591.871C89.6062 591.871 89.8038 591.871 89.9881 591.884C90.1725 591.884 90.3305 591.884 90.4754 591.884V591.779C90.3305 591.739 90.1725 591.687 89.975 591.607C89.7906 591.542 89.593 591.463 89.4087 591.397C89.2111 591.331 89.0531 591.265 88.9082 591.212L83.9959 589.092V587.051L88.9082 584.93C89.1058 584.851 89.2901 584.772 89.4877 584.693C89.6852 584.614 89.8696 584.549 90.0408 584.496C90.212 584.443 90.3569 584.391 90.4754 584.351V584.246C90.3701 584.246 90.2252 584.259 90.054 584.259C89.8828 584.259 89.6984 584.259 89.4877 584.259C89.277 584.259 89.0926 584.259 88.9082 584.259H83.9959V582.204V582.297Z" fill="black"/>
<path d="M83.9959 596.322H92.5562V605.093H90.8573V598.482H89.1716V604.316H87.4991V598.482H85.6948V605.199H83.9828V596.335L83.9959 596.322Z" fill="black"/>
<path d="M62.8718 572.512L64.1361 571.129C64.1361 571.129 64.1361 571.023 64.1361 570.971C64.1361 570.918 64.1361 570.852 64.1361 570.799C64.1361 569.838 64.281 569.008 64.5839 568.31C64.8868 567.612 65.3214 567.072 65.8876 566.677C66.4539 566.295 67.1388 566.098 67.9421 566.098C68.7455 566.098 69.4303 566.295 69.9966 566.677C70.5629 567.059 70.9975 567.612 71.2872 568.324C71.5769 569.035 71.735 569.878 71.735 570.865C71.735 571.853 71.5901 572.696 71.2872 573.407C70.9843 574.118 70.5629 574.671 69.9966 575.053C69.4303 575.435 68.7455 575.633 67.9421 575.633C67.0729 575.633 66.3486 575.409 65.7559 574.961C65.1633 574.513 64.7419 573.881 64.4653 573.078L62.8718 574.935V572.525V572.512ZM65.5848 570.852C65.5848 571.274 65.6374 571.656 65.7296 572.011C65.8218 572.367 65.9667 572.656 66.1511 572.92C66.3354 573.183 66.5725 573.368 66.849 573.512C67.1256 573.657 67.4417 573.723 67.8104 573.723H68.0606C68.4294 573.723 68.7455 573.657 69.022 573.512C69.2986 573.368 69.5225 573.17 69.7068 572.92C69.8912 572.67 70.0361 572.367 70.1283 572.011C70.2205 571.669 70.2732 571.274 70.2732 570.852C70.2732 570.431 70.2205 570.049 70.1283 569.693C70.0361 569.351 69.8912 569.048 69.7068 568.785C69.5225 568.521 69.2986 568.324 69.022 568.192C68.7455 568.047 68.4294 567.981 68.0606 567.981H67.8104C67.4417 567.981 67.1256 568.047 66.849 568.192C66.5725 568.324 66.3354 568.534 66.1511 568.785C65.9667 569.035 65.8218 569.338 65.7296 569.693C65.6374 570.036 65.5848 570.431 65.5848 570.852Z" fill="black"/>
<path d="M64.2548 577.266H71.5903V583.192C71.5903 583.719 71.4849 584.154 71.2742 584.496C71.0634 584.838 70.7737 585.089 70.4313 585.26C70.0889 585.431 69.6938 585.51 69.2724 585.51C68.851 585.51 68.4164 585.392 68.0344 585.168C67.6525 584.944 67.3496 584.601 67.1257 584.154L64.2548 585.681V583.614L66.7965 582.323V579.123H64.2548V577.279V577.266ZM68.2452 579.11V582.639C68.2452 582.942 68.3373 583.179 68.5217 583.35C68.7061 583.521 68.93 583.614 69.2197 583.614C69.4172 583.614 69.5885 583.574 69.7202 583.495C69.8519 583.416 69.9572 583.311 70.0362 583.166C70.1152 583.021 70.1416 582.85 70.1416 582.639V579.11H68.2452Z" fill="black"/>
<path d="M64.2548 589.553H70.0362V586.313H71.5903V594.61H70.0362V591.384H64.2548V589.54V589.553Z" fill="black"/>
<path d="M66.4408 598.772H67.929V602.143H66.4408V598.772Z" fill="black"/>
<path d="M64.1229 610.73C64.1229 610.15 64.1625 609.624 64.2283 609.123C64.2942 608.623 64.4127 608.188 64.5971 607.819C64.7814 607.451 65.0185 607.148 65.3345 606.937C65.6506 606.726 66.0589 606.634 66.5461 606.634H66.5988C66.5988 606.634 66.6383 606.634 66.6515 606.634V608.438C66.6515 608.438 66.5857 608.438 66.5593 608.438H66.4408C66.2169 608.438 66.0457 608.53 65.914 608.702C65.7823 608.886 65.6901 609.136 65.6243 609.466C65.5584 609.795 65.5321 610.19 65.5321 610.638C65.5321 610.835 65.5321 611.019 65.5584 611.217C65.5848 611.415 65.5979 611.599 65.6243 611.783C65.6506 611.968 65.7033 612.126 65.7559 612.271C65.8086 612.415 65.8877 612.521 65.9798 612.613C66.072 612.692 66.1774 612.745 66.2959 612.745C66.4671 612.745 66.5988 612.666 66.7042 612.495C66.8095 612.323 66.8885 612.099 66.9544 611.823C67.0202 611.546 67.0729 611.23 67.1256 610.875C67.1783 610.519 67.231 610.15 67.2836 609.782C67.3495 609.4 67.4285 609.044 67.5339 608.688C67.6392 608.333 67.7709 608.017 67.9421 607.74C68.1133 607.464 68.3241 607.24 68.5875 607.069C68.8508 606.897 69.1801 606.818 69.562 606.818C69.9176 606.818 70.2336 606.911 70.497 607.082C70.7604 607.253 70.9975 607.516 71.1819 607.846C71.3662 608.175 71.4979 608.583 71.5901 609.057C71.6823 609.531 71.7218 610.058 71.7218 610.651C71.7218 611.243 71.6691 611.783 71.5769 612.244C71.4848 612.705 71.3399 613.1 71.1555 613.416C70.9711 613.733 70.7473 613.97 70.4839 614.128C70.2205 614.286 69.9176 614.365 69.5752 614.365H69.4171V612.574H69.5357C69.6937 612.574 69.8254 612.495 69.9439 612.35C70.0625 612.192 70.1546 611.981 70.2337 611.704C70.3127 611.428 70.339 611.112 70.339 610.743C70.339 610.269 70.3126 609.874 70.2468 609.584C70.181 609.281 70.1019 609.07 69.9966 608.926C69.8912 608.781 69.7859 608.715 69.6542 608.715C69.4962 608.715 69.3776 608.794 69.2854 608.965C69.1933 609.136 69.1142 609.36 69.0615 609.637C69.0089 609.913 68.9562 610.229 68.9035 610.585C68.864 610.941 68.7981 611.296 68.7323 611.678C68.6665 612.06 68.5874 612.415 68.4953 612.771C68.4031 613.127 68.2713 613.443 68.1001 613.719C67.9289 613.996 67.7182 614.22 67.468 614.391C67.2178 614.562 66.9017 614.641 66.5198 614.641C65.9403 614.641 65.4794 614.47 65.1238 614.141C64.7683 613.812 64.518 613.351 64.36 612.758C64.2019 612.165 64.1229 611.494 64.1229 610.73Z" fill="black"/>
<path d="M64.1229 620.396C64.1229 619.395 64.2678 618.553 64.5575 617.881C64.8473 617.209 65.2687 616.696 65.835 616.353C66.4013 616.011 67.0993 615.84 67.929 615.84C69.1406 615.84 70.0756 616.222 70.7341 616.999C71.3926 617.776 71.7218 618.895 71.7218 620.37C71.7218 621.2 71.6033 621.937 71.353 622.569C71.116 623.201 70.7604 623.702 70.3127 624.057C69.8649 624.413 69.3249 624.597 68.706 624.597V622.793C69.0352 622.793 69.3118 622.688 69.5488 622.49C69.7859 622.293 69.9571 622.003 70.0756 621.634C70.1941 621.266 70.26 620.844 70.26 620.344C70.26 619.804 70.1678 619.343 69.9966 618.948C69.8122 618.553 69.562 618.263 69.2328 618.052C68.9035 617.841 68.5084 617.749 68.0606 617.749H67.7973C67.3363 617.749 66.9544 617.855 66.612 618.052C66.2828 618.263 66.0325 618.553 65.8481 618.948C65.6638 619.343 65.5848 619.804 65.5848 620.344C65.5848 620.884 65.6374 621.305 65.7559 621.674C65.8745 622.042 66.0457 622.332 66.2696 622.53C66.4935 622.727 66.77 622.833 67.0993 622.833V624.597C66.4935 624.597 65.9667 624.426 65.5189 624.071C65.0711 623.715 64.7287 623.228 64.4785 622.609C64.2414 621.977 64.1097 621.239 64.1097 620.383L64.1229 620.396Z" fill="black"/>
<path d="M64.2548 626.244H71.5903V632.17C71.5903 632.697 71.4849 633.131 71.2742 633.474C71.0634 633.816 70.7737 634.066 70.4313 634.238C70.0889 634.409 69.6938 634.488 69.2724 634.488C68.851 634.488 68.4164 634.369 68.0344 634.145C67.6525 633.922 67.3496 633.579 67.1257 633.131L64.2548 634.659V632.591L66.7965 631.301V628.101H64.2548V626.257V626.244ZM68.2452 628.087V631.617C68.2452 631.92 68.3373 632.157 68.5217 632.328C68.7061 632.499 68.93 632.591 69.2197 632.591C69.4172 632.591 69.5885 632.552 69.7202 632.473C69.8519 632.394 69.9572 632.288 70.0362 632.144C70.1152 631.999 70.1416 631.828 70.1416 631.617V628.087H68.2452Z" fill="black"/>
<path d="M66.4408 639.018H67.929V642.39H66.4408V639.018Z" fill="black"/>
<path d="M64.1229 649.817C64.1229 649.146 64.2151 648.566 64.3995 648.092C64.5839 647.618 64.8868 647.249 65.2819 646.999C65.6769 646.749 66.1906 646.617 66.8095 646.617H66.9544V648.395H66.7569C66.3618 648.395 66.0721 648.514 65.8745 648.751C65.677 648.988 65.5848 649.317 65.5848 649.752C65.5848 650.226 65.7033 650.594 65.9403 650.845C66.1774 651.095 66.5593 651.227 67.0729 651.227H71.5901V653.057H67.152C66.454 653.057 65.8876 652.925 65.4267 652.662C64.9658 652.399 64.6497 652.03 64.439 651.543C64.2283 651.055 64.1229 650.476 64.1229 649.804V649.817Z" fill="black"/>
<path d="M64.1229 659.089C64.1229 658.088 64.2678 657.245 64.5575 656.573C64.8473 655.902 65.2687 655.388 65.835 655.046C66.4013 654.703 67.0993 654.532 67.929 654.532C69.1406 654.532 70.0756 654.914 70.7341 655.691C71.3926 656.468 71.7218 657.587 71.7218 659.062C71.7218 659.892 71.6033 660.63 71.353 661.262C71.116 661.894 70.7604 662.394 70.3127 662.75C69.8649 663.105 69.3249 663.29 68.706 663.29V661.486C69.0352 661.486 69.3118 661.38 69.5488 661.183C69.7859 660.985 69.9571 660.695 70.0756 660.327C70.1941 659.958 70.26 659.536 70.26 659.036C70.26 658.496 70.1678 658.035 69.9966 657.64C69.8122 657.245 69.562 656.955 69.2328 656.744C68.9035 656.534 68.5084 656.442 68.0606 656.442H67.7973C67.3363 656.442 66.9544 656.547 66.612 656.744C66.2828 656.955 66.0325 657.245 65.8481 657.64C65.6638 658.035 65.5848 658.496 65.5848 659.036C65.5848 659.576 65.6374 659.997 65.7559 660.366C65.8745 660.735 66.0457 661.025 66.2696 661.222C66.4935 661.42 66.77 661.525 67.0993 661.525V663.29C66.4935 663.29 65.9667 663.119 65.5189 662.763C65.0711 662.407 64.7287 661.92 64.4785 661.301C64.2414 660.669 64.1097 659.932 64.1097 659.076L64.1229 659.089Z" fill="black"/>
<path d="M64.2548 664.949H71.5903V670.876C71.5903 671.402 71.4849 671.837 71.2742 672.179C71.0634 672.522 70.7737 672.772 70.4313 672.943C70.0889 673.114 69.6938 673.193 69.2724 673.193C68.851 673.193 68.4164 673.075 68.0344 672.851C67.6525 672.627 67.3496 672.285 67.1257 671.837L64.2548 673.365V671.297L66.7965 670.006V666.806H64.2548V664.962V664.949ZM68.2452 666.793V670.322C68.2452 670.625 68.3373 670.862 68.5217 671.034C68.7061 671.205 68.93 671.297 69.2197 671.297C69.4172 671.297 69.5885 671.258 69.7202 671.179C69.8519 671.099 69.9572 670.994 70.0362 670.849C70.1152 670.704 70.1416 670.533 70.1416 670.322V666.793H68.2452Z" fill="black"/>
<path d="M64.3336 21.586V16.7659H59.5135V21.586H64.3336Z" fill="black"/>
<path d="M64.3468 29.9358V25.1157H59.5267V29.9358H64.3468Z" fill="black"/>
<path d="M64.3336 38.272V33.4519H59.5135V38.272H64.3336Z" fill="black"/>
<path d="M64.3467 46.6084V41.7883H59.5266V46.6084H64.3467Z" fill="black"/>
<path d="M15.0528 319.931H10.2328V324.751H15.0528V319.931Z" fill="black"/>
<path d="M23.3893 319.931H18.5692V324.751H23.3893V319.931Z" fill="black"/>
<path d="M64.3468 319.931H59.5267V324.751H64.3468V319.931Z" fill="black"/>
</svg>
