<svg width="420" height="1027" viewBox="0 0 420 1027" fill="none" xmlns="http://www.w3.org/2000/svg">
<mask id="mask0_1050_5233" style="mask-type:luminance" maskUnits="userSpaceOnUse" x="0" y="0" width="420" height="1021">
<path d="M419.72 15.9269H404.149V0H15.5709V15.9269H0V502.352H15.5709V518.279H0V1004.7H15.5709V1020.63H404.149V1004.7H419.72V518.279H404.149V512.19H399.577V508.442H404.149V502.352H419.72V15.9269ZM20.1428 512.19H15.5709V508.442H20.1428V512.19ZM38.6555 512.19H29.3991V508.442H38.6555V512.19ZM57.1681 512.19H47.9118V508.442H57.1681V512.19ZM75.662 512.19H66.4057V508.442H75.662V512.19ZM94.1747 512.19H84.9184V508.442H94.1747V512.19ZM112.687 512.19H103.431V508.442H112.687V512.19ZM131.2 512.19H121.944V508.442H131.2V512.19ZM149.694 512.19H140.438V508.442H149.694V512.19ZM168.207 512.19H158.95V508.442H168.207V512.19ZM186.719 512.19H177.463V508.442H186.719V512.19ZM205.232 512.19H195.976V508.442H205.232V512.19ZM223.726 512.19H214.469V508.442H223.726V512.19ZM242.238 512.19H232.982V508.442H242.238V512.19ZM260.751 512.19H251.495V508.442H260.751V512.19ZM279.264 512.19H270.007V508.442H279.264V512.19ZM297.776 512.19H288.52V508.442H297.776V512.19ZM316.27 512.19H307.014V508.442H316.27V512.19ZM334.783 512.19H325.527V508.442H334.783V512.19ZM353.296 512.19H344.039V508.442H353.296V512.19ZM371.808 512.19H362.552V508.442H371.808V512.19ZM390.302 512.19H381.046V508.442H390.302V512.19Z" fill="white"/>
</mask>
<g mask="url(#mask0_1050_5233)">
<path d="M413.256 -0.0187988H15.627V15.9268H-0.299805V502.352H15.627V518.279H-0.299805V1004.72H15.627V1020.65H413.256V1004.72H429.182V518.279H413.256V502.352H429.182V15.9268H413.256V-0.0187988Z" fill="#F2F2F2"/>
<path d="M70.8652 -0.0187988V291.78C70.8652 292.605 70.8652 292.998 70.9027 293.485L70.9402 294.909C71.0901 298.713 71.671 302.498 72.6266 306.171C74.5565 313.534 78.0604 320.486 82.8198 326.407C83.4006 327.157 84.0564 327.85 84.656 328.581L86.6235 330.661L92.7694 336.806L105.08 349.117L129.72 373.757L228.26 472.297L277.54 521.577L283.892 527.966C286.609 530.758 289.213 533.681 291.63 536.754C296.465 542.881 300.662 549.515 304.11 556.522C311.043 570.519 314.921 586.015 315.408 601.624L315.502 741.949V1020.67H300.999V741.949L300.924 602.111C300.493 588.545 297.121 575.091 291.106 562.931C288.108 556.841 284.473 551.07 280.257 545.748C278.158 543.069 275.91 540.539 273.53 538.122L267.29 531.845L218.011 482.565L119.47 384.025L94.8305 359.385L82.52 347.075L76.3741 340.929L73.8819 338.287C73.1137 337.369 72.2893 336.469 71.5398 335.532C65.4875 328.019 61.0468 319.193 58.5922 309.843C57.3555 305.178 56.6434 300.381 56.4373 295.546L56.3999 293.729C56.3999 293.129 56.3624 292.567 56.3624 291.78V-0.0187988H70.8652Z" fill="#ED4250"/>
<path d="M49.7668 -0.0187988V278.701V287.414V291.762C49.7668 293.223 49.8231 294.441 49.8418 295.809C50.0479 301.093 50.8536 306.358 52.2027 311.492C54.8822 321.742 59.7539 331.391 66.387 339.655C67.2114 340.685 68.1109 341.659 68.9541 342.69L71.671 345.576L77.8169 351.74L90.1274 364.051L114.767 388.691L213.308 487.231L262.587 536.511L268.79 542.732C270.982 544.999 273.099 547.36 275.048 549.852C278.964 554.817 282.355 560.176 285.147 565.854C290.75 577.171 293.898 589.725 294.291 602.354L294.366 741.967V1020.69H279.863V741.967L279.807 602.841C279.47 592.255 276.847 581.743 272.144 572.262C269.801 567.521 266.953 563.006 263.674 558.865C262.044 556.785 260.283 554.799 258.428 552.906L252.338 546.779L203.058 497.499L104.518 398.959L79.878 374.319L67.5675 362.008L61.4029 355.844C60.3161 354.701 59.2105 353.577 58.1425 352.396C57.1119 351.197 56.0627 350.016 55.0696 348.78C47.1436 338.943 41.335 327.4 38.1309 315.183C36.5194 309.075 35.5826 302.779 35.3202 296.465C35.2828 294.909 35.2266 293.242 35.2266 291.799V-0.000100214H49.7294L49.7668 -0.0187988Z" fill="#FAA701"/>
<path d="M28.6684 -0.0187198V291.78L28.7058 294.197L28.762 296.746C29.0431 303.529 30.0549 310.274 31.7787 316.832C35.2077 329.967 41.4473 342.334 49.9541 352.902C51.0034 354.232 52.1465 355.488 53.252 356.781C54.395 358.036 55.5754 359.254 56.7371 360.472L62.9018 366.637L75.2123 378.947L99.8521 403.587L198.393 502.127L247.672 551.407L253.724 557.478C255.411 559.221 257.022 561.019 258.503 562.912C261.501 566.697 264.086 570.8 266.222 575.129C270.513 583.785 272.912 593.36 273.211 603.029L273.268 741.93V1020.65H258.765V741.93L258.709 603.516C258.484 595.909 256.591 588.357 253.2 581.537C251.513 578.127 249.471 574.885 247.11 571.906C245.948 570.407 244.674 568.983 243.344 567.615L237.404 561.656L188.124 512.377L89.5839 413.836L64.9441 389.197L52.6336 376.886L46.469 370.703C45.1199 369.297 43.752 367.892 42.4404 366.449C41.1662 364.969 39.8546 363.507 38.6554 361.99C28.8557 349.829 21.6792 335.57 17.7256 320.467C15.7394 312.916 14.5777 305.14 14.2405 297.345L14.1655 294.422L14.1281 291.762V-0.0374756H28.6309L28.6684 -0.0187198Z" fill="#0060E6"/>
<path d="M48.7175 793.346H2.45459V795.763H48.7175V793.346Z" fill="black"/>
<path d="M48.7175 797H2.45459V798.217H48.7175V797Z" fill="black"/>
<path d="M48.7175 800.635H2.45459V801.853H48.7175V800.635Z" fill="black"/>
<path d="M48.7175 806.687H2.45459V807.905H48.7175V806.687Z" fill="black"/>
<path d="M39.7047 812.758H2.45459V815.175H39.7047V812.758Z" fill="black"/>
<path d="M39.7047 816.393H2.45459V817.611H39.7047V816.393Z" fill="black"/>
<path d="M39.7047 820.028H2.45459V821.246H39.7047V820.028Z" fill="black"/>
<path d="M39.7047 826.099H2.45459V827.317H39.7047V826.099Z" fill="black"/>
<path d="M39.7047 828.516H2.45459V830.933H39.7047V828.516Z" fill="black"/>
<path d="M39.7047 833.369H2.45459V834.587H39.7047V833.369Z" fill="black"/>
<path d="M39.7047 837.023H2.45459V839.44H39.7047V837.023Z" fill="black"/>
<path d="M39.7047 840.658H2.45459V844.293H39.7047V840.658Z" fill="black"/>
<path d="M39.7047 846.71H2.45459V847.928H39.7047V846.71Z" fill="black"/>
<path d="M39.7047 850.364H2.45459V852.781H39.7047V850.364Z" fill="black"/>
<path d="M39.7047 857.634H2.45459V858.852H39.7047V857.634Z" fill="black"/>
<path d="M39.7047 860.051H2.45459V861.269H39.7047V860.051Z" fill="black"/>
<path d="M39.7047 863.705H2.45459V864.923H39.7047V863.705Z" fill="black"/>
<path d="M39.7047 866.122H2.45459V868.539H39.7047V866.122Z" fill="black"/>
<path d="M39.7047 873.392H2.45459V874.61H39.7047V873.392Z" fill="black"/>
<path d="M39.7047 879.463H2.45459V880.681H39.7047V879.463Z" fill="black"/>
<path d="M39.7047 881.88H2.45459V884.297H39.7047V881.88Z" fill="black"/>
<path d="M39.7047 886.733H2.45459V889.151H39.7047V886.733Z" fill="black"/>
<path d="M39.7047 894.022H2.45459V895.24H39.7047V894.022Z" fill="black"/>
<path d="M39.7047 897.657H2.45459V898.875H39.7047V897.657Z" fill="black"/>
<path d="M39.7047 900.074H2.45459V901.292H39.7047V900.074Z" fill="black"/>
<path d="M39.7047 903.709H2.45459V906.127H39.7047V903.709Z" fill="black"/>
<path d="M39.7047 907.363H2.45459V910.998H39.7047V907.363Z" fill="black"/>
<path d="M39.7047 913.416H2.45459V914.634H39.7047V913.416Z" fill="black"/>
<path d="M39.7047 915.852H2.45459V919.487H39.7047V915.852Z" fill="black"/>
<path d="M39.7047 920.704H2.45459V925.557H39.7047V920.704Z" fill="black"/>
<path d="M39.7047 926.757H2.45459V929.174H39.7047V926.757Z" fill="black"/>
<path d="M39.7047 931.61H2.45459V932.828H39.7047V931.61Z" fill="black"/>
<path d="M39.7047 935.245H2.45459V938.88H39.7047V935.245Z" fill="black"/>
<path d="M39.7047 940.098H2.45459V943.733H39.7047V940.098Z" fill="black"/>
<path d="M39.7047 946.169H2.45459V947.387H39.7047V946.169Z" fill="black"/>
<path d="M39.7047 948.586H2.45459V951.003H39.7047V948.586Z" fill="black"/>
<path d="M39.7047 953.439H2.45459V954.657H39.7047V953.439Z" fill="black"/>
<path d="M39.7047 955.875H2.45459V957.093H39.7047V955.875Z" fill="black"/>
<path d="M39.7047 961.927H2.45459V964.344H39.7047V961.927Z" fill="black"/>
<path d="M48.7175 966.78H2.45459V969.197H48.7175V966.78Z" fill="black"/>
<path d="M48.7175 972.851H2.45459V976.486H48.7175V972.851Z" fill="black"/>
<path d="M48.7175 977.704H2.45459V978.922H48.7175V977.704Z" fill="black"/>
<path d="M48.7175 980.121H2.45459V982.538H48.7175V980.121Z" fill="black"/>
<path d="M375.275 950.066H335.308V990.033H375.275V950.066ZM359.029 985.049H351.534H340.292V977.554H351.534V962.564H340.292V955.069H351.534H359.029H370.272V962.564H359.029V977.554H370.272V985.049H359.029Z" fill="black"/>
<path d="M375.275 842.532H335.308V882.499H375.275V842.532ZM362.777 877.496V866.253H347.787V877.496H340.292V866.253V858.758V847.516H347.787V858.758H362.777V847.516H370.272V858.758V866.253V877.496H362.777Z" fill="black"/>
<path d="M335.289 936.275V896.308H375.256V936.275H335.289ZM362.777 931.272H370.272V908.787V901.292H362.777H347.787H340.292V908.787V931.272H347.787V908.787H362.777V931.272ZM358.092 922.353V918.119H356.687V922.353H355.975V918.119H352.452V923.759H353.858V919.524H354.57V923.759H358.092V922.353ZM356.687 931.272H358.092V925.632H354.57V929.867H353.858V925.632H352.452V931.272H355.975V927.038H356.687V931.272Z" fill="black"/>
<path d="M367.649 644.139V635.895H359.404V644.139H367.649Z" fill="black"/>
<path d="M359.404 652.496V644.251H351.159V652.496H359.404Z" fill="black"/>
<path d="M351.16 644.251V636.007H342.915V644.251H351.16Z" fill="black"/>
<path d="M351.16 660.741V652.496H342.915V660.741H351.16Z" fill="black"/>
<path d="M367.649 660.74V652.496H359.404V660.74H367.649Z" fill="black"/>
<path d="M359.217 668.966V660.722H350.972V668.966H359.217Z" fill="black"/>
<path d="M367.63 677.229V668.985H359.385V677.229H367.63Z" fill="black"/>
<path d="M359.404 685.586V677.342H351.16V685.586H359.404Z" fill="black"/>
<path d="M351.16 677.342V669.098H342.915V677.342H351.16Z" fill="black"/>
<path d="M351.16 693.831V685.587H342.915V693.831H351.16Z" fill="black"/>
<path d="M367.63 693.831V685.587H359.385V693.831H367.63Z" fill="black"/>
<path d="M359.235 702.057V693.812H350.991V702.057H359.235Z" fill="black"/>
<path d="M367.648 710.32V702.075H359.404V710.32H367.648Z" fill="black"/>
<path d="M359.385 718.677V710.432H351.141V718.677H359.385Z" fill="black"/>
<path d="M351.159 710.432V702.188H342.915V710.432H351.159Z" fill="black"/>
<path d="M351.16 726.903V718.658H342.915V726.903H351.16Z" fill="black"/>
<path d="M367.648 726.921V718.677H359.404V726.921H367.648Z" fill="black"/>
<path d="M419.72 574.548V544.456H389.628V574.548H419.72Z" fill="black"/>
<path d="M389.628 633.496V1029.57" stroke="black" stroke-miterlimit="10"/>
<path d="M62.9205 633.496V1029.57" stroke="black" stroke-miterlimit="10"/>
<path d="M389.628 -0.0187988V473.759" stroke="black" stroke-miterlimit="10"/>
<path d="M225.112 298.132L321.498 242.126C324.59 240.327 326.482 237.029 326.501 233.469L326.82 122C326.82 118.402 324.908 115.067 321.798 113.268L224.794 57.2617C221.683 55.4629 217.823 55.4629 214.713 57.2617L118.327 113.268C115.236 115.067 113.343 118.365 113.324 121.925L113.006 233.394C113.006 236.992 114.917 240.327 118.028 242.126L215.032 298.132C218.142 299.931 222.002 299.931 225.112 298.132Z" fill="#F2F2F2"/>
<path d="M225.112 298.132L321.498 242.126C324.59 240.327 326.482 237.029 326.501 233.469L326.819 122C326.819 118.402 324.908 115.067 321.798 113.268L224.794 57.2617C221.683 55.4629 217.823 55.4629 214.713 57.2617L118.327 113.268C115.236 115.067 113.343 118.365 113.324 121.925L113.006 233.394C113.006 236.992 114.917 240.327 118.028 242.126L215.032 298.132C218.142 299.931 222.002 299.931 225.112 298.132Z" stroke="black" stroke-width="1.15" stroke-miterlimit="10"/>
<path d="M228.56 286.309L250.876 273.342L250.989 234.575L295.64 208.623L295.528 247.391L317.844 234.425L318.144 131.05L295.828 144.035L295.715 182.784L251.064 208.736L251.176 169.968L228.86 182.934L228.56 286.309Z" fill="#FAA701"/>
<path d="M211.827 182.953L121.962 131.05L121.887 156.889L155.577 176.357L155.446 228.035L121.738 208.586L121.663 234.425L211.528 286.309L211.603 260.47L177.913 241.002L178.062 189.324L211.753 208.792L211.827 182.953Z" fill="#ED4250"/>
<path d="M229.197 117.091L233.432 114.655L246.023 121.981L250.221 124.417L239.653 130.507L227.042 123.199L224.944 124.417L237.535 131.725L233.301 134.179L216.512 124.417L227.08 118.308L239.69 125.635L241.789 124.417L229.197 117.091Z" fill="black"/>
<path d="M245.255 133.767L255.823 127.677L272.612 137.421L268.396 139.875L255.786 132.549L253.687 133.767L266.279 141.093L255.711 147.202L238.922 137.44L243.138 134.985L255.748 142.311L257.847 141.093L245.255 133.767Z" fill="black"/>
<path d="M129.87 116.36L152.355 103.375L197.306 77.4233L219.791 64.4382L242.126 77.4233L309.113 116.36L286.646 129.326L219.641 90.4084L174.69 116.36L241.676 155.296L219.21 168.263L152.205 129.345L129.87 116.36Z" fill="#0060E6"/>
<path d="M91.2329 473.759H-304.822" stroke="black" stroke-miterlimit="10"/>
<path d="M367.63 428.864V233.151H362.327V428.864H367.63Z" fill="#0060E6"/>
<path d="M367.63 301.842V168.488H362.327V301.842H367.63Z" fill="#FAA701"/>
<path d="M367.649 173.622V-222.508H362.346V173.622H367.649Z" fill="black"/>
<path d="M367.63 206.956V129.72H362.327V206.956H367.63Z" fill="#D62D3B"/>
<path d="M367.63 473.759V447.733H362.327V473.759H367.63Z" fill="black"/>
<path d="M165.433 351.103V336.376H170.717V351.103H165.433Z" fill="black"/>
<path d="M182.747 351.347C180.611 351.347 178.849 351.066 177.463 350.485C176.057 349.904 175.008 349.061 174.334 347.918C173.64 346.794 173.303 345.388 173.303 343.721C173.303 341.285 174.109 339.392 175.72 338.081C177.332 336.769 179.693 336.094 182.803 336.094C184.508 336.094 186.026 336.357 187.319 336.9C188.612 337.444 189.642 338.174 190.373 339.13C191.104 340.086 191.478 341.172 191.478 342.409H186.344C186.344 341.903 186.194 341.435 185.895 341.041C185.595 340.648 185.183 340.329 184.639 340.104C184.096 339.879 183.459 339.767 182.728 339.767C181.81 339.767 181.06 339.936 180.461 340.254C179.861 340.591 179.43 341.022 179.149 341.585C178.868 342.147 178.737 342.765 178.737 343.44V343.983C178.737 344.639 178.868 345.257 179.149 345.819C179.43 346.381 179.861 346.831 180.423 347.187C180.985 347.524 181.716 347.693 182.616 347.693C183.421 347.693 184.133 347.581 184.695 347.374C185.258 347.168 185.707 346.869 186.026 346.475C186.326 346.082 186.494 345.632 186.494 345.126H191.478C191.478 346.325 191.141 347.393 190.448 348.33C189.755 349.267 188.762 350.016 187.469 350.541C186.176 351.085 184.602 351.347 182.784 351.347H182.747Z" fill="black"/>
<path d="M200.229 351.103V336.376H205.513V341.603H213.383V336.376H218.667V351.103H213.383V345.632H205.513V351.103H200.229Z" fill="black"/>
<path d="M220.428 351.103L227.567 336.376H233.394L240.533 351.103H234.856L233.975 349.155H226.761L225.899 351.103H220.428ZM228.354 345.482H232.364L231.333 342.99C231.296 342.878 231.239 342.728 231.165 342.522C231.09 342.334 231.015 342.109 230.921 341.866C230.827 341.622 230.752 341.378 230.677 341.135C230.602 340.891 230.528 340.667 230.453 340.479H230.303C230.209 340.723 230.115 341.004 230.003 341.322C229.89 341.641 229.778 341.941 229.666 342.24C229.553 342.54 229.459 342.784 229.385 342.99L228.354 345.482Z" fill="black"/>
<path d="M250.258 351.347C248.122 351.347 246.361 351.066 244.974 350.485C243.569 349.904 242.519 349.061 241.845 347.918C241.152 346.794 240.814 345.388 240.814 343.721C240.814 341.285 241.62 339.392 243.231 338.081C244.843 336.769 247.204 336.094 250.314 336.094C252.019 336.094 253.537 336.357 254.83 336.9C256.123 337.444 257.153 338.174 257.884 339.13C258.615 340.086 258.99 341.172 258.99 342.409H253.856C253.856 341.903 253.706 341.435 253.406 341.041C253.106 340.648 252.694 340.329 252.15 340.104C251.607 339.879 250.97 339.767 250.239 339.767C249.321 339.767 248.572 339.936 247.972 340.254C247.372 340.591 246.941 341.022 246.66 341.585C246.379 342.147 246.248 342.765 246.248 343.44V343.983C246.248 344.639 246.379 345.257 246.66 345.819C246.941 346.381 247.372 346.831 247.935 347.187C248.497 347.524 249.227 347.693 250.127 347.693C250.933 347.693 251.645 347.581 252.207 347.374C252.769 347.168 253.219 346.869 253.537 346.475C253.837 346.082 254.005 345.632 254.005 345.126H258.99C258.99 346.325 258.652 347.393 257.959 348.33C257.266 349.267 256.273 350.016 254.98 350.541C253.687 351.085 252.113 351.347 250.296 351.347H250.258Z" fill="black"/>
<path d="M261.519 351.103V336.376H266.803V342.896L273.942 336.376H280.5L273.98 342.39L280.669 351.103H274.223L270.082 345.557L266.803 348.218V351.103H261.519Z" fill="black"/>
<path d="M291.968 336.357V338.268C291.63 338.305 291.274 338.399 290.937 338.605C290.6 338.811 290.3 339.074 290.075 339.411C289.85 339.767 289.738 340.179 289.738 340.685H291.968V344.714H287.058V341.135C287.058 340.048 287.283 339.167 287.752 338.493C288.201 337.818 288.82 337.312 289.569 336.956C290.319 336.6 291.125 336.413 291.986 336.357H291.968Z" fill="black"/>
<path d="M294.01 351.103V350.054C294.01 349.361 294.198 348.723 294.554 348.143C294.91 347.581 295.397 347.056 295.996 346.569C296.596 346.082 297.252 345.632 297.945 345.201C298.638 344.77 299.332 344.339 300.025 343.908C300.718 343.477 301.355 343.102 301.955 342.746C302.554 342.409 303.06 342.072 303.435 341.734C303.81 341.397 303.997 341.041 303.997 340.666C303.997 340.385 303.904 340.123 303.735 339.898C303.566 339.673 303.285 339.486 302.929 339.355C302.554 339.224 302.067 339.167 301.43 339.167C300.868 339.167 300.4 339.261 300.006 339.43C299.613 339.598 299.313 339.842 299.107 340.123C298.901 340.423 298.788 340.741 298.788 341.116V341.547H294.048C294.048 341.547 294.029 341.378 294.029 341.303V341.079C294.029 340.067 294.329 339.186 294.91 338.437C295.49 337.687 296.371 337.125 297.552 336.694C298.713 336.282 300.194 336.076 301.936 336.076C303.042 336.076 304.016 336.169 304.897 336.357C305.759 336.544 306.508 336.825 307.126 337.2C307.745 337.575 308.213 338.043 308.55 338.587C308.888 339.149 309.038 339.786 309.038 340.516C309.038 341.21 308.85 341.828 308.457 342.409C308.063 342.971 307.557 343.496 306.939 343.983C306.302 344.47 305.627 344.901 304.897 345.295C304.166 345.688 303.454 346.044 302.761 346.381C302.554 346.475 302.348 346.569 302.105 346.681C301.861 346.794 301.618 346.906 301.393 347.018C301.168 347.131 300.98 347.224 300.812 347.299H309.225V351.084H293.973L294.01 351.103Z" fill="black"/>
<path d="M319.268 351.347C317.488 351.347 315.989 351.141 314.79 350.71C313.591 350.298 312.673 349.698 312.054 348.948C311.436 348.199 311.136 347.318 311.136 346.325H315.802C315.839 346.756 315.97 347.112 316.214 347.412C316.458 347.712 316.795 347.937 317.226 348.087C317.657 348.236 318.181 348.311 318.781 348.311C319.381 348.311 319.943 348.236 320.392 348.068C320.842 347.899 321.179 347.655 321.423 347.337C321.667 347.018 321.779 346.625 321.779 346.157C321.779 345.688 321.667 345.295 321.423 344.976C321.179 344.658 320.842 344.414 320.392 344.245C319.943 344.077 319.399 344.002 318.781 344.002C318.35 344.002 317.957 344.039 317.601 344.114C317.244 344.189 316.945 344.301 316.682 344.47C316.42 344.62 316.214 344.826 316.064 345.07L311.923 344.601L312.691 336.357H325.433V340.067H316.364L316.12 342.259C316.345 342.109 316.682 341.978 317.095 341.828C317.507 341.678 318.013 341.547 318.575 341.435C319.137 341.322 319.737 341.266 320.392 341.266C321.704 341.266 322.847 341.453 323.803 341.847C324.758 342.24 325.489 342.802 326.014 343.533C326.538 344.283 326.801 345.182 326.801 346.269C326.801 347.243 326.501 348.105 325.883 348.873C325.264 349.642 324.402 350.241 323.278 350.691C322.154 351.141 320.823 351.347 319.268 351.347Z" fill="black"/>
<path fill-rule="evenodd" clip-rule="evenodd" d="M264.63 376.118C264.63 376.661 264.199 377.092 263.655 377.092H261.707C261.163 377.092 260.732 376.661 260.732 376.118C260.732 375.574 261.163 375.143 261.707 375.143H263.655C264.199 375.143 264.63 375.574 264.63 376.118Z" fill="black"/>
<path fill-rule="evenodd" clip-rule="evenodd" d="M264.63 370.29C264.63 370.834 264.199 371.265 263.655 371.265H261.707C261.163 371.265 260.732 370.834 260.732 370.29C260.732 369.747 261.163 369.316 261.707 369.316H263.655C264.199 369.316 264.63 369.747 264.63 370.29Z" fill="black"/>
<path fill-rule="evenodd" clip-rule="evenodd" d="M264.63 364.463C264.63 365.006 264.199 365.437 263.655 365.437H261.707C261.163 365.437 260.732 365.006 260.732 364.463C260.732 363.92 261.163 363.489 261.707 363.489H263.655C264.199 363.489 264.63 363.92 264.63 364.463Z" fill="black"/>
<path fill-rule="evenodd" clip-rule="evenodd" d="M295.715 376.118C295.715 376.661 295.284 377.092 294.741 377.092H292.792C292.249 377.092 291.818 376.661 291.818 376.118C291.818 375.574 292.249 375.143 292.792 375.143H294.741C295.284 375.143 295.715 375.574 295.715 376.118Z" fill="black"/>
<path fill-rule="evenodd" clip-rule="evenodd" d="M295.715 370.29C295.715 370.834 295.284 371.265 294.741 371.265H292.792C292.249 371.265 291.818 370.834 291.818 370.29C291.818 369.747 292.249 369.316 292.792 369.316H294.741C295.284 369.316 295.715 369.747 295.715 370.29Z" fill="black"/>
<path fill-rule="evenodd" clip-rule="evenodd" d="M295.715 364.463C295.715 365.006 295.284 365.437 294.741 365.437H292.792C292.249 365.437 291.818 365.006 291.818 364.463C291.818 363.92 292.249 363.489 292.792 363.489H294.741C295.284 363.489 295.715 363.92 295.715 364.463Z" fill="black"/>
<path fill-rule="evenodd" clip-rule="evenodd" d="M326.819 376.118C326.819 376.661 326.388 377.092 325.845 377.092H323.896C323.353 377.092 322.922 376.661 322.922 376.118C322.922 375.574 323.353 375.143 323.896 375.143H325.845C326.388 375.143 326.819 375.574 326.819 376.118Z" fill="black"/>
<path fill-rule="evenodd" clip-rule="evenodd" d="M326.819 370.29C326.819 370.834 326.388 371.265 325.845 371.265H323.896C323.353 371.265 322.922 370.834 322.922 370.29C322.922 369.747 323.353 369.316 323.896 369.316H325.845C326.388 369.316 326.819 369.747 326.819 370.29Z" fill="black"/>
<path fill-rule="evenodd" clip-rule="evenodd" d="M326.819 364.463C326.819 365.006 326.388 365.437 325.845 365.437H323.896C323.353 365.437 322.922 365.006 322.922 364.463C322.922 363.92 323.353 363.489 323.896 363.489H325.845C326.388 363.489 326.819 363.92 326.819 364.463Z" fill="black"/>
<path fill-rule="evenodd" clip-rule="evenodd" d="M272.406 364.463C272.406 365.006 271.975 365.437 271.431 365.437H269.483C268.939 365.437 268.508 365.006 268.508 364.463C268.508 363.92 268.939 363.489 269.483 363.489H271.431C271.975 363.489 272.406 363.92 272.406 364.463Z" fill="black"/>
<path fill-rule="evenodd" clip-rule="evenodd" d="M287.958 364.463C287.958 365.006 287.527 365.437 286.983 365.437H285.035C284.491 365.437 284.06 365.006 284.06 364.463C284.06 363.92 284.491 363.489 285.035 363.489H286.983C287.527 363.489 287.958 363.92 287.958 364.463Z" fill="black"/>
<path fill-rule="evenodd" clip-rule="evenodd" d="M303.491 376.118C303.491 376.661 303.06 377.092 302.517 377.092H300.568C300.025 377.092 299.594 376.661 299.594 376.118C299.594 375.574 300.025 375.143 300.568 375.143H302.517C303.06 375.143 303.491 375.574 303.491 376.118Z" fill="black"/>
<path fill-rule="evenodd" clip-rule="evenodd" d="M319.043 376.136C319.043 376.68 318.612 377.111 318.069 377.111H316.12C315.577 377.111 315.146 376.68 315.146 376.136C315.146 375.593 315.577 375.162 316.12 375.162H318.069C318.612 375.162 319.043 375.593 319.043 376.136Z" fill="black"/>
<path fill-rule="evenodd" clip-rule="evenodd" d="M279.601 364.463C279.601 365.212 278.983 365.831 278.233 365.831C277.484 365.831 276.865 365.231 276.865 364.463C276.865 363.695 277.484 363.095 278.233 363.095C278.983 363.095 279.601 363.713 279.601 364.463Z" fill="black"/>
<path fill-rule="evenodd" clip-rule="evenodd" d="M279.601 370.29C279.601 371.04 278.983 371.658 278.233 371.658C277.484 371.658 276.865 371.059 276.865 370.29C276.865 369.522 277.484 368.922 278.233 368.922C278.983 368.922 279.601 369.541 279.601 370.29Z" fill="black"/>
<path fill-rule="evenodd" clip-rule="evenodd" d="M310.686 376.118C310.686 376.867 310.068 377.486 309.319 377.486C308.569 377.486 307.951 376.867 307.951 376.118C307.951 375.368 308.55 374.75 309.319 374.75C310.087 374.75 310.686 375.368 310.686 376.118Z" fill="black"/>
<path fill-rule="evenodd" clip-rule="evenodd" d="M310.686 370.29C310.686 371.04 310.068 371.658 309.319 371.658C308.569 371.658 307.951 371.059 307.951 370.29C307.951 369.522 308.55 368.922 309.319 368.922C310.087 368.922 310.686 369.541 310.686 370.29Z" fill="black"/>
<path d="M268.864 386.049L268.209 384.793L267.553 386.049H268.864ZM268.19 384.137H268.246L269.839 387.042H269.408L269.033 386.33H267.422L267.047 387.042H266.635L268.227 384.137H268.19Z" fill="black"/>
<path d="M273.286 385.618C273.961 385.618 274.317 385.411 274.317 385.037C274.317 384.625 273.942 384.475 273.23 384.475H272.949V385.599H273.286M272.556 384.212H273.268C274.242 384.212 274.729 384.512 274.729 385.037C274.729 385.43 274.392 385.767 273.848 385.842L275.085 387.042H274.579L273.399 385.88H272.968V387.042H272.574V384.212H272.556Z" fill="black"/>
<path d="M278.702 386.817C279.132 386.817 279.413 386.611 279.413 386.311C279.413 386.011 279.17 385.88 278.739 385.711L278.495 385.618C277.989 385.43 277.746 385.149 277.746 384.812C277.746 384.4 278.139 384.1 278.739 384.1C279.039 384.1 279.339 384.175 279.545 384.287V384.643C279.264 384.456 278.983 384.381 278.72 384.381C278.364 384.381 278.121 384.55 278.121 384.793C278.121 385.037 278.327 385.187 278.758 385.355L279.001 385.449C279.526 385.636 279.807 385.955 279.807 386.311C279.807 386.779 279.376 387.117 278.72 387.117C278.42 387.117 278.083 387.042 277.746 386.892L277.708 386.498C278.083 386.686 278.383 386.798 278.702 386.798" fill="black"/>
<path d="M282.843 384.212H283.236V385.393H285.129V384.212H285.522V387.042H285.129V385.693H283.236V387.042H282.843V384.212Z" fill="black"/>
<path d="M290.506 386.049L289.85 384.793L289.194 386.049H290.506ZM289.832 384.137H289.888L291.48 387.042H291.05L290.675 386.33H289.063L288.689 387.042H288.276L289.869 384.137H289.832Z" fill="black"/>
<path d="M294.197 384.212H294.61V386.742H296.202V387.042H294.197V384.212Z" fill="black"/>
<path d="M298.994 384.212H299.388V386.742H300.98V387.042H298.975V384.212H298.994Z" fill="black"/>
<path d="M308.251 387.154L307.07 384.194H307.482L308.288 386.292L309.169 384.1H309.206L310.031 386.292L310.818 384.194H311.211L310.012 387.154H309.956L309.131 384.962L308.251 387.154Z" fill="black"/>
<path d="M315.539 386.049L314.884 384.793L314.228 386.049H315.539ZM314.865 384.137H314.921L316.514 387.042H316.083L315.708 386.33H314.097L313.722 387.042H313.31L314.902 384.137H314.865Z" fill="black"/>
<path d="M320.58 387.135C320.186 387.135 319.83 387.023 319.531 386.836C319.118 386.555 318.875 386.124 318.875 385.636C318.875 384.774 319.606 384.119 320.58 384.119C320.936 384.119 321.254 384.212 321.573 384.381L321.536 384.737C321.236 384.531 320.936 384.418 320.58 384.418C319.83 384.418 319.268 384.924 319.268 385.618C319.268 386.311 319.812 386.817 320.561 386.817C320.936 386.817 321.254 386.704 321.61 386.461L321.573 386.854C321.273 387.042 320.936 387.135 320.561 387.135" fill="black"/>
<path d="M324.571 384.212H326.445V384.493H324.964V385.411H326.239V385.692H324.964V386.723H326.463V387.023H324.571V384.193V384.212Z" fill="black"/>
<path d="M263.543 384.1L264.723 387.06H264.292L263.487 384.962L262.606 387.154H262.569L261.744 384.962L260.938 387.06H260.545L261.744 384.1H261.8L262.625 386.292L263.505 384.1H263.562H263.543Z" fill="black"/>
<path d="M174.69 362.72V368.51H167.757V371.977H165.452V362.72H174.708H174.69ZM172.385 365.044H167.757V366.206H172.385V365.044Z" fill="black"/>
<path d="M187.019 362.72V371.977H177.763V362.72H187.019ZM184.714 365.044H180.086V369.672H184.714V365.044Z" fill="black"/>
<path d="M197.044 362.72H199.348V371.977H195.301V369.672H194.139V371.977H190.092V362.72H192.397V369.653H193.558V367.349H195.863V369.653H197.025V362.72H197.044Z" fill="black"/>
<path d="M204.763 365.044V366.206H209.392V368.51H204.763V369.672H211.696V371.977H202.44V362.72H211.696V365.025H204.763V365.044Z" fill="black"/>
<path d="M224.044 362.72V366.187H222.883V368.492H224.044V371.958H221.74V368.492H217.111V371.958H214.807V362.702H224.063L224.044 362.72ZM221.721 365.044H217.093V366.206H221.721V365.044Z" fill="black"/>
<path d="M229.441 365.044V366.206H234.069V368.51H229.441V369.672H236.374V371.977H227.117V362.72H236.374V365.025H229.441V365.044Z" fill="black"/>
<path d="M248.722 363.882V370.815H246.417V371.977H239.484V362.72H246.417V363.882H248.722ZM246.398 365.044H241.77V369.672H246.398V365.044Z" fill="black"/>
<path d="M236.374 378.685V385.618H234.069V386.779H227.136V377.523H234.069V378.685H236.374ZM234.069 379.847H229.441V381.008H234.069V379.847ZM234.069 383.313H229.441V384.475H234.069V383.313Z" fill="black"/>
<path d="M248.722 377.523V380.99H247.56V383.294H245.255V386.761H242.95V383.294H240.646V380.99H239.484V377.523H241.789V380.99H246.417V377.523H248.722Z" fill="black"/>
<path d="M16.7139 653.32H14.5591L12.4418 653.339H12.4042H10.287H8.13212V651.203H5.97729V653.377V655.532H8.15085L10.3057 655.513H12.423V657.668H14.5778V659.822H12.423V661.977H10.3057L8.15085 661.996V659.841H5.97729V661.996L5.99605 664.151H8.15085L10.3057 664.132H12.4605V666.287H14.5966H14.634V668.442H16.7514V670.559H18.9062V672.714H21.061V674.869H23.2158V677.023H25.3706L27.5254 677.005H29.6802L31.8351 676.986V674.831H29.6615H27.5067V672.676H25.3519V670.522H23.1971V668.404V668.367V666.249V664.095H23.2345H25.3519V661.921H27.5067V659.748H29.6615V657.574H31.8163V655.4H33.9711L36.1259 655.382H38.2807L40.4356 655.363H42.5904V653.189H44.7452V651.016V648.861L44.7264 646.706V644.551L44.7077 642.397V640.242L44.689 638.087H42.5342V635.932H40.3794L38.2245 635.951H36.0697L33.9149 635.97V638.124L33.9337 640.279V642.434L33.9524 644.589H31.7976V642.434V640.279H29.624V642.434L29.6428 644.589V646.744H27.488H25.3332V644.589V642.434H23.1596V644.589H21.0047V646.744H23.1783V648.898H21.0235V651.053H18.8687V653.208H16.7139M36.1259 648.88H38.2807V651.035H36.1259V648.88Z" fill="black"/>
<path d="M18.0255 742.886V741.162H21.4732V742.886H18.0255ZM21.4732 753.248V751.524H18.0255V753.248H21.4732ZM5.93982 744.61H7.66367V741.162H5.93982V744.61ZM7.66367 739.438V741.162H9.38751V739.438H7.66367ZM7.66367 749.8H5.93982V753.248H7.66367V749.8ZM7.66367 754.99H9.38751V753.266H7.66367V754.99ZM14.5591 754.99H11.1113V753.266H9.38751V741.181H11.1113V739.457H14.5591V741.181H16.2829V742.904H18.0068V751.542H16.2829V753.266H14.5591V754.99ZM14.5591 751.524V748.076H12.8352V751.524H14.5591ZM14.5591 742.886H12.8352V746.333H14.5591V742.886Z" fill="black"/>
<path d="M37.6624 753.454L38.4306 753.229L38.2058 752.479L38.9553 752.254L38.7304 751.505L39.4799 751.28L39.2551 750.512L40.0046 750.306L39.7985 749.538L40.548 749.313L40.3231 748.563L41.0726 748.338L40.8478 747.589L41.616 747.364L41.3911 746.614L42.1407 746.39L41.9158 745.621L42.6653 745.396L42.4404 744.647L43.2087 744.422L42.9838 743.673L43.7333 743.448L43.5085 742.698L44.258 742.473L44.0331 741.724V741.705L44.8014 741.48L44.5765 740.731L44.3517 739.981L43.6022 740.206L42.834 740.431L42.0844 740.656L41.3349 740.881L40.5667 741.106L39.8172 741.33L39.0677 741.555L38.3182 741.761L37.55 741.986L36.8005 742.211L36.051 742.436L35.3014 742.661L34.5332 742.886L33.7837 743.111L33.0342 743.335L32.266 743.56L31.5165 743.785L30.767 744.01L30.0175 744.235L29.2493 744.46L29.4741 745.209L29.6989 745.959L30.4484 745.734L30.6733 746.483L31.4228 746.258L31.6477 747.027L32.4159 746.802L32.6408 747.551L32.8656 748.301L32.0973 748.526L31.3479 748.751L31.5727 749.519L30.8232 749.744L31.0293 750.493L30.2798 750.718L30.5046 751.467L30.7295 752.217L30.9544 752.985L31.7039 752.76L32.4721 752.535L33.2216 752.311L33.9711 752.086L33.7463 751.336L34.4957 751.111L35.264 750.887L35.0391 750.137L35.7886 749.912L36.0135 750.662L36.2383 751.411L36.4632 752.161L36.6881 752.929L36.9129 753.678L37.1377 754.428L37.8872 754.203L37.6624 753.454Z" fill="black"/>
<path d="M5.92104 595.965H44.7826V588.095H5.92104V595.965Z" fill="#0060E6"/>
<path d="M5.92104 580.45H44.7826V572.581H5.92104V580.45Z" fill="#D62D3B"/>
<path d="M5.92104 611.461H44.7826V603.591H5.92104V611.461Z" fill="#FAA701"/>
<path d="M37.8497 552.794V544.474H29.5303V552.794H37.8497Z" fill="black"/>
<path d="M29.5303 561.113V552.794H21.2108V561.113H29.5303Z" fill="black"/>
<path d="M21.2108 552.794V544.474H12.8914V552.794H21.2108Z" fill="black"/>
<path d="M36.8866 697.68L36.8866 696.42L35.6355 696.42L35.6355 697.68L36.8866 697.68Z" fill="black"/>
<path d="M35.6354 696.42L35.6354 695.161L34.3843 695.161L34.3843 696.42L35.6354 696.42Z" fill="black"/>
<path d="M24.3815 720.334L25.6326 720.334L25.6326 717.817L24.3815 717.817L24.3815 714.042L25.6326 714.042L25.6326 711.525L26.8837 711.525L26.8837 709.009L28.1348 709.009L28.1348 706.492L34.3862 706.492L34.3862 707.752L41.8888 707.752L41.8888 706.492L43.1399 706.492L43.1399 705.233L44.3889 705.233L44.3889 700.198L43.1378 700.198L43.1378 698.939L41.8867 698.939L41.8867 697.68L36.8843 697.68L36.8843 698.939L38.1354 698.939L38.1354 701.455L36.8843 701.455L36.8843 702.715L34.3842 702.715L34.3842 696.42L33.1331 696.42L33.1331 698.937L31.882 698.937L31.882 700.196L28.1307 700.196L28.1307 698.937L26.8796 698.937L26.8796 697.678L25.6285 697.678L25.6285 696.418L23.1283 696.418L23.1283 695.161L16.8769 695.161L16.8769 696.42L14.3767 696.42L14.3767 697.68L13.1256 697.68L13.1256 698.939L11.8745 698.939L11.8745 701.563L10.6234 701.563L10.6234 702.244L6.87213 702.244L6.87213 701.232L5.62103 701.232L5.62103 704.184L10.6234 704.184L10.6234 708.325L6.87213 708.325L6.87213 707.314L5.62103 707.314L5.62103 710.266L11.8725 710.266L11.8725 711.525L13.1236 711.525L13.1236 715.301L14.3747 715.301L14.3747 716.56L15.6258 716.56L15.6258 717.819L16.8769 717.819L16.8769 719.079L18.128 719.079L18.128 720.338L20.6282 720.338L20.6282 719.079L21.8793 719.079L21.8793 720.338L23.1304 720.338L23.1304 721.597L24.3815 721.597L24.3815 720.338L24.3815 720.334ZM36.8864 703.972L39.3865 703.972L39.3865 705.231L36.8864 705.231L36.8864 703.972Z" fill="black"/>
</g>
<path d="M220.84 639.398H218.348V651.203H213.345V639.398H205.85V633.496H225.862V657.087H220.859V639.38L220.84 639.398Z" fill="black"/>
<path d="M220.84 670.859H218.348V682.663H213.345V670.859H210.853V688.566H205.85V664.975H225.862V688.566H220.859V670.859H220.84Z" fill="black"/>
<path d="M223.332 720.026H208.342V714.123H205.832V696.417H225.843V714.123H223.332V720.026ZM220.84 714.123V702.319H218.348V714.123H220.84ZM213.327 714.123V702.319H210.834V714.123H213.327Z" fill="black"/>
<path d="M178.831 657.105H173.828V633.515H178.831V642.359H188.837V633.515H193.84V648.261H178.831V657.105Z" fill="black"/>
<path d="M186.326 664.956V688.547H181.323V664.956H186.326Z" fill="black"/>
<path d="M193.839 720.026H181.342V702.319H178.849V720.026H173.847V696.435H186.344V714.142H188.837V696.435H193.839V720.026Z" fill="black"/>
<path d="M216.549 748.282H225.674V750.587H216.549V748.282Z" fill="black"/>
<path d="M216.549 753.023H225.674V756.601L221.271 758.475C221.121 758.55 220.915 758.625 220.672 758.719C220.428 758.812 220.166 758.906 219.885 759.019C219.603 759.131 219.36 759.206 219.154 759.3V759.393C219.341 759.468 219.566 759.543 219.828 759.637C220.091 759.731 220.334 759.824 220.597 759.937C220.859 760.03 221.065 760.124 221.252 760.199L225.656 762.092V765.577H216.531V763.291H221.758C221.927 763.291 222.114 763.291 222.32 763.291C222.527 763.291 222.714 763.291 222.92 763.309C223.107 763.309 223.295 763.309 223.445 763.309V763.197C223.295 763.16 223.107 763.085 222.92 763.01C222.733 762.935 222.508 762.86 222.302 762.785C222.096 762.71 221.927 762.654 221.777 762.579L216.549 760.311V758.138L221.777 755.871C221.983 755.777 222.189 755.702 222.395 755.608C222.601 755.533 222.808 755.458 222.995 755.402C223.182 755.346 223.332 755.29 223.463 755.252V755.14C223.351 755.14 223.201 755.14 223.014 755.159C222.826 755.159 222.62 755.159 222.414 755.159C222.208 755.159 222.002 755.159 221.796 755.159H216.568V752.966L216.549 753.023Z" fill="black"/>
<path d="M216.549 767.975H225.674V774.814C225.674 775.414 225.543 775.92 225.281 776.37C225.019 776.819 224.663 777.157 224.213 777.4C223.763 777.644 223.239 777.775 222.639 777.775C222.039 777.775 221.515 777.644 221.046 777.4C220.578 777.157 220.222 776.801 219.96 776.351C219.697 775.901 219.566 775.376 219.566 774.777V770.28H216.531V767.975H216.549ZM221.421 770.28V774.14C221.421 774.59 221.533 774.927 221.74 775.17C221.946 775.414 222.245 775.526 222.639 775.526C222.901 775.526 223.107 775.47 223.295 775.358C223.482 775.245 223.613 775.095 223.726 774.889C223.819 774.683 223.876 774.44 223.876 774.14V770.28H221.421Z" fill="black"/>
<path d="M216.549 779.386H225.674V788.736H223.876V781.672H222.077V787.912H220.297V781.672H218.367V788.83H216.549V779.368V779.386Z" fill="black"/>
<path d="M216.549 790.872H225.674V798.255C225.674 798.911 225.543 799.454 225.281 799.866C225.019 800.279 224.663 800.597 224.232 800.822C223.801 801.028 223.313 801.141 222.789 801.141C222.264 801.141 221.721 801.009 221.252 800.728C220.784 800.447 220.409 800.035 220.128 799.454L216.549 801.347V798.761L219.716 797.149V793.158H216.549V790.854V790.872ZM221.515 793.177V797.58C221.515 797.955 221.627 798.255 221.852 798.461C222.077 798.667 222.377 798.78 222.714 798.78C222.957 798.78 223.164 798.723 223.332 798.63C223.501 798.536 223.632 798.386 223.726 798.217C223.819 798.049 223.857 797.824 223.857 797.562V793.158H221.496L221.515 793.177Z" fill="black"/>
<path d="M216.549 803.183H225.674V805.488H216.549V803.183Z" fill="black"/>
<path d="M216.549 806.968L225.674 811.502V814.088L216.549 818.623V816.13L218.198 815.325V810.134L216.549 809.329V806.968ZM219.959 810.959V814.482L222.039 813.507C222.039 813.507 222.264 813.414 222.433 813.339C222.601 813.264 222.789 813.189 222.976 813.114C223.164 813.039 223.332 812.964 223.482 812.908C223.632 812.851 223.726 812.814 223.763 812.795V812.683C223.595 812.608 223.388 812.533 223.164 812.439C222.939 812.346 222.733 812.252 222.526 812.177C222.32 812.083 222.152 812.027 222.021 811.952L219.941 810.978L219.959 810.959Z" fill="black"/>
<path d="M216.549 820.122H225.674V822.426H218.479V828.254H216.531V820.14L216.549 820.122Z" fill="black"/>
<path d="M216.381 839.253C216.381 837.997 216.568 836.948 216.924 836.123C217.28 835.28 217.823 834.643 218.517 834.231C219.21 833.819 220.091 833.594 221.121 833.594C222.62 833.594 223.782 834.081 224.606 835.037C225.431 835.992 225.843 837.398 225.843 839.234C225.843 840.264 225.693 841.183 225.393 841.97C225.094 842.757 224.663 843.375 224.1 843.825C223.538 844.274 222.883 844.48 222.114 844.48V842.232C222.527 842.232 222.864 842.101 223.164 841.857C223.445 841.613 223.67 841.258 223.819 840.789C223.969 840.321 224.044 839.796 224.044 839.178C224.044 838.503 223.932 837.922 223.707 837.435C223.482 836.948 223.164 836.573 222.77 836.311C222.358 836.049 221.871 835.917 221.309 835.917H220.971C220.409 835.917 219.922 836.049 219.51 836.311C219.098 836.573 218.779 836.948 218.554 837.435C218.329 837.922 218.217 838.503 218.217 839.178C218.217 839.852 218.292 840.377 218.423 840.845C218.554 841.314 218.779 841.67 219.06 841.913C219.341 842.157 219.697 842.288 220.091 842.288V844.48C219.341 844.48 218.685 844.256 218.123 843.825C217.561 843.394 217.13 842.775 216.83 841.988C216.53 841.201 216.381 840.283 216.381 839.215V839.253Z" fill="black"/>
<path d="M216.381 852.05C216.381 850.832 216.568 849.783 216.943 848.902C217.317 848.022 217.861 847.328 218.554 846.841C219.266 846.354 220.109 846.129 221.121 846.129C222.133 846.129 222.976 846.373 223.688 846.841C224.4 847.328 224.925 848.003 225.3 848.902C225.674 849.802 225.843 850.851 225.843 852.05C225.843 853.249 225.656 854.318 225.3 855.217C224.944 856.116 224.4 856.791 223.688 857.259C222.976 857.728 222.133 857.971 221.121 857.971C220.109 857.971 219.266 857.728 218.554 857.259C217.842 856.791 217.317 856.098 216.943 855.217C216.568 854.336 216.381 853.268 216.381 852.05ZM218.217 852.05C218.217 852.575 218.273 853.043 218.404 853.493C218.535 853.943 218.704 854.299 218.929 854.617C219.154 854.936 219.454 855.179 219.791 855.348C220.147 855.517 220.54 855.61 220.971 855.61H221.271C221.721 855.61 222.114 855.517 222.452 855.348C222.808 855.179 223.089 854.936 223.313 854.617C223.538 854.299 223.726 853.924 223.838 853.493C223.951 853.062 224.025 852.575 224.025 852.05C224.025 851.526 223.969 851.057 223.838 850.608C223.726 850.177 223.538 849.802 223.313 849.483C223.089 849.165 222.789 848.921 222.452 848.753C222.114 848.584 221.721 848.49 221.271 848.49H220.971C220.522 848.49 220.128 848.584 219.791 848.753C219.435 848.921 219.154 849.165 218.929 849.483C218.704 849.802 218.517 850.177 218.404 850.608C218.292 851.039 218.217 851.526 218.217 852.05Z" fill="black"/>
<path d="M216.549 860.032H225.674V862.337H218.479V868.165H216.531V860.051L216.549 860.032Z" fill="black"/>
<path d="M216.549 869.738H225.674V872.043H218.479V877.871H216.531V869.757L216.549 869.738Z" fill="black"/>
<path d="M216.549 879.426H225.674V888.776H223.876V881.712H222.077V887.951H220.297V881.712H218.367V888.87H216.549V879.407V879.426Z" fill="black"/>
<path d="M216.381 896.065C216.381 894.228 216.774 892.842 217.542 891.905C218.329 890.987 219.51 890.518 221.084 890.518C222.114 890.518 222.995 890.762 223.688 891.23C224.4 891.699 224.925 892.392 225.281 893.292C225.637 894.191 225.806 895.278 225.806 896.533C225.806 897.339 225.731 898.07 225.599 898.725C225.468 899.4 225.243 899.981 224.962 900.468C224.681 900.974 224.325 901.349 223.894 901.611C223.463 901.873 222.976 902.005 222.395 902.005V899.775C222.695 899.775 222.939 899.681 223.145 899.512C223.351 899.344 223.52 899.1 223.632 898.8C223.763 898.501 223.838 898.163 223.913 897.789C223.969 897.414 224.007 897.02 224.007 896.589C224.007 896.046 223.951 895.54 223.838 895.072C223.726 894.603 223.557 894.21 223.332 893.891C223.107 893.554 222.826 893.31 222.47 893.123C222.133 892.936 221.721 892.842 221.252 892.842H220.934C220.278 892.842 219.753 892.992 219.341 893.273C218.929 893.554 218.648 893.966 218.46 894.472C218.273 894.997 218.179 895.615 218.179 896.346C218.179 897.077 218.254 897.732 218.386 898.22C218.517 898.725 218.704 899.1 218.966 899.362C219.229 899.625 219.529 899.756 219.885 899.756H219.978V896.252H221.627V901.986H216.53V900.599L217.692 900.374C217.374 900.037 217.13 899.644 216.943 899.194C216.755 898.744 216.605 898.257 216.512 897.714C216.418 897.17 216.381 896.608 216.381 896.009V896.065Z" fill="black"/>
<path d="M216.549 904.384H225.674V913.734H223.876V906.67H222.077V912.91H220.297V906.67H218.367V913.828H216.549V904.365V904.384Z" fill="black"/>
<path d="M216.549 920.049H225.674V922.353H218.479V928.181H216.531V920.067L216.549 920.049Z" fill="black"/>
<path d="M216.381 934.608C216.381 933.39 216.568 932.34 216.943 931.46C217.317 930.579 217.861 929.886 218.554 929.399C219.266 928.912 220.109 928.687 221.121 928.687C222.133 928.687 222.976 928.93 223.688 929.399C224.4 929.886 224.925 930.56 225.3 931.46C225.674 932.359 225.843 933.408 225.843 934.608C225.843 935.807 225.656 936.875 225.3 937.774C224.944 938.674 224.4 939.348 223.688 939.817C222.976 940.285 222.133 940.529 221.121 940.529C220.109 940.529 219.266 940.285 218.554 939.817C217.842 939.348 217.317 938.655 216.943 937.774C216.568 936.894 216.381 935.826 216.381 934.608ZM218.217 934.608C218.217 935.132 218.273 935.601 218.404 936.05C218.535 936.5 218.704 936.856 218.929 937.175C219.154 937.493 219.454 937.737 219.791 937.905C220.147 938.074 220.54 938.168 220.971 938.168H221.271C221.721 938.168 222.114 938.074 222.452 937.905C222.808 937.737 223.089 937.493 223.313 937.175C223.538 936.856 223.726 936.481 223.838 936.05C223.951 935.62 224.025 935.132 224.025 934.608C224.025 934.083 223.969 933.615 223.838 933.165C223.726 932.734 223.538 932.359 223.313 932.041C223.089 931.722 222.789 931.479 222.452 931.31C222.114 931.141 221.721 931.048 221.271 931.048H220.971C220.522 931.048 220.128 931.141 219.791 931.31C219.435 931.479 219.154 931.722 218.929 932.041C218.704 932.359 218.517 932.734 218.404 933.165C218.292 933.596 218.217 934.083 218.217 934.608Z" fill="black"/>
<path d="M216.549 942.59H225.674V944.707L221.084 949.598C221.009 949.691 220.896 949.823 220.728 949.972C220.578 950.122 220.428 950.272 220.259 950.422C220.091 950.591 219.959 950.722 219.828 950.834V950.947C219.997 950.947 220.222 950.928 220.503 950.909C220.765 950.909 220.99 950.891 221.159 950.891H225.656V953.083H216.531V951.003L221.121 946.15C221.327 945.925 221.571 945.682 221.833 945.438C222.096 945.194 222.302 944.988 222.452 944.838V944.726C222.339 944.726 222.133 944.726 221.871 944.745C221.59 944.745 221.29 944.745 220.934 944.745H216.531V942.552L216.549 942.59Z" fill="black"/>
<path d="M216.549 955.538H225.674V960.503C225.674 961.627 225.506 962.602 225.15 963.407C224.794 964.213 224.288 964.831 223.613 965.262C222.939 965.693 222.095 965.918 221.102 965.918C220.109 965.918 219.285 965.693 218.61 965.262C217.936 964.831 217.411 964.213 217.074 963.407C216.718 962.602 216.549 961.627 216.549 960.503V955.538ZM218.367 957.823V960.372C218.367 960.84 218.423 961.252 218.535 961.646C218.648 962.039 218.816 962.358 219.023 962.658C219.229 962.958 219.51 963.164 219.828 963.314C220.147 963.463 220.522 963.538 220.953 963.538H221.252C221.683 963.538 222.058 963.463 222.377 963.314C222.695 963.164 222.976 962.939 223.182 962.658C223.388 962.377 223.557 962.039 223.688 961.646C223.819 961.252 223.857 960.84 223.857 960.372V957.823H218.348H218.367Z" fill="black"/>
<path d="M216.381 973.469C216.381 972.251 216.568 971.202 216.943 970.321C217.317 969.441 217.861 968.747 218.554 968.26C219.266 967.773 220.109 967.548 221.121 967.548C222.133 967.548 222.976 967.792 223.688 968.26C224.4 968.747 224.925 969.422 225.3 970.321C225.674 971.221 225.843 972.27 225.843 973.469C225.843 974.669 225.656 975.737 225.3 976.636C224.944 977.535 224.4 978.21 223.688 978.678C222.976 979.147 222.133 979.39 221.121 979.39C220.109 979.39 219.266 979.147 218.554 978.678C217.842 978.21 217.317 977.517 216.943 976.636C216.568 975.755 216.381 974.687 216.381 973.469ZM218.217 973.469C218.217 973.994 218.273 974.462 218.404 974.912C218.535 975.362 218.704 975.718 218.929 976.036C219.154 976.355 219.454 976.598 219.791 976.767C220.147 976.936 220.54 977.029 220.971 977.029H221.271C221.721 977.029 222.114 976.936 222.452 976.767C222.808 976.598 223.089 976.355 223.313 976.036C223.538 975.718 223.726 975.343 223.838 974.912C223.951 974.481 224.025 973.994 224.025 973.469C224.025 972.945 223.969 972.476 223.838 972.027C223.726 971.596 223.538 971.221 223.313 970.902C223.089 970.584 222.789 970.34 222.452 970.172C222.114 970.003 221.721 969.909 221.271 969.909H220.971C220.522 969.909 220.128 970.003 219.791 970.172C219.435 970.34 219.154 970.584 218.929 970.902C218.704 971.221 218.517 971.596 218.404 972.027C218.292 972.457 218.217 972.945 218.217 973.469Z" fill="black"/>
<path d="M216.549 981.451H225.674V983.569L221.084 988.459C221.009 988.553 220.896 988.684 220.728 988.834C220.578 988.984 220.428 989.134 220.259 989.284C220.091 989.452 219.959 989.584 219.828 989.696V989.808C219.997 989.808 220.222 989.79 220.503 989.771C220.765 989.771 220.99 989.752 221.159 989.752H225.656V991.945H216.531V989.865L221.121 985.012C221.327 984.787 221.571 984.543 221.833 984.3C222.096 984.056 222.302 983.85 222.452 983.7V983.588C222.339 983.588 222.133 983.588 221.871 983.606C221.59 983.606 221.29 983.606 220.934 983.606H216.531V981.414L216.549 981.451Z" fill="black"/>
<path d="M174.353 859.264C174.353 857.934 174.54 856.791 174.896 855.835C175.252 854.88 175.777 854.111 176.47 853.493C177.163 852.893 177.988 852.444 178.981 852.163C179.955 851.882 181.098 851.732 182.372 851.732C183.646 851.732 184.771 851.882 185.764 852.163C186.738 852.444 187.581 852.893 188.274 853.493C188.968 854.093 189.492 854.861 189.83 855.817C190.186 856.772 190.354 857.915 190.354 859.246C190.354 860.576 190.186 861.719 189.83 862.674C189.474 863.63 188.949 864.398 188.274 865.017C187.581 865.616 186.757 866.066 185.764 866.347C184.789 866.628 183.646 866.759 182.372 866.759C181.098 866.759 179.974 866.628 178.981 866.347C178.006 866.066 177.163 865.635 176.47 865.035C175.777 864.436 175.252 863.668 174.896 862.712C174.54 861.756 174.353 860.613 174.353 859.283V859.264ZM176.92 859.264C176.92 860.201 177.107 860.969 177.463 861.531C177.838 862.094 178.381 862.506 179.112 862.749C179.843 863.012 180.761 863.124 181.885 863.124H182.878C183.965 863.124 184.883 862.993 185.614 862.749C186.344 862.487 186.888 862.094 187.244 861.531C187.6 860.969 187.787 860.22 187.787 859.264C187.787 858.309 187.6 857.578 187.244 857.016C186.888 856.454 186.344 856.041 185.614 855.779C184.883 855.517 183.984 855.404 182.878 855.404H181.885C180.779 855.404 179.861 855.536 179.112 855.779C178.381 856.041 177.819 856.454 177.463 857.016C177.088 857.578 176.92 858.327 176.92 859.264Z" fill="black"/>
<path d="M174.353 876.334C174.353 874.91 174.559 873.692 174.952 872.662C175.346 871.631 175.926 870.844 176.676 870.301C177.425 869.757 178.344 869.476 179.412 869.476V872.886C178.831 872.886 178.344 873.036 177.988 873.317C177.613 873.617 177.351 874.011 177.182 874.535C177.013 875.06 176.92 875.66 176.92 876.334C176.92 877.402 177.107 878.227 177.5 878.845C177.875 879.445 178.437 879.876 179.168 880.119C179.899 880.363 180.798 880.494 181.866 880.494C181.435 880.082 181.079 879.594 180.817 879.014C180.555 878.433 180.367 877.833 180.255 877.233C180.142 876.634 180.105 876.034 180.105 875.51C180.105 874.198 180.292 873.036 180.686 872.043C181.079 871.05 181.641 870.282 182.391 869.72C183.14 869.158 184.021 868.895 185.033 868.895C186.157 868.895 187.113 869.214 187.918 869.87C188.724 870.525 189.324 871.406 189.736 872.53C190.148 873.655 190.373 874.966 190.373 876.447C190.373 877.683 190.223 878.789 189.942 879.744C189.661 880.7 189.211 881.506 188.612 882.161C188.012 882.817 187.225 883.305 186.251 883.642C185.276 883.979 184.133 884.148 182.803 884.148C181.285 884.148 179.992 883.979 178.943 883.623C177.875 883.286 177.013 882.78 176.339 882.105C175.664 881.431 175.177 880.625 174.858 879.651C174.54 878.676 174.39 877.552 174.39 876.297L174.353 876.334ZM182.503 876.447C182.503 877.29 182.616 878.002 182.841 878.583C183.065 879.164 183.384 879.613 183.778 879.913C184.171 880.213 184.639 880.381 185.183 880.381C185.689 880.381 186.138 880.232 186.551 879.913C186.963 879.595 187.263 879.164 187.469 878.583C187.694 878.002 187.787 877.29 187.787 876.465C187.787 875.641 187.675 874.948 187.469 874.367C187.244 873.767 186.944 873.317 186.551 872.999C186.157 872.68 185.67 872.53 185.127 872.53C184.621 872.53 184.171 872.68 183.778 872.961C183.384 873.242 183.084 873.692 182.859 874.273C182.634 874.854 182.522 875.585 182.522 876.428L182.503 876.447Z" fill="black"/>
<path d="M182.728 886.883H186.476V891.08H182.728V886.883ZM174.634 886.883H178.381V891.08H174.634V886.883Z" fill="black"/>
<path d="M174.353 901.274C174.353 899.943 174.54 898.8 174.896 897.845C175.252 896.889 175.777 896.121 176.47 895.503C177.163 894.903 177.988 894.453 178.981 894.172C179.955 893.891 181.098 893.741 182.372 893.741C183.646 893.741 184.771 893.891 185.764 894.172C186.738 894.453 187.581 894.903 188.274 895.503C188.968 896.102 189.492 896.87 189.83 897.826C190.186 898.782 190.354 899.925 190.354 901.255C190.354 902.585 190.186 903.728 189.83 904.684C189.474 905.64 188.949 906.408 188.274 907.026C187.581 907.626 186.757 908.075 185.764 908.357C184.789 908.638 183.646 908.769 182.372 908.769C181.098 908.769 179.974 908.638 178.981 908.357C178.006 908.075 177.163 907.645 176.47 907.045C175.777 906.445 175.252 905.677 174.896 904.721C174.54 903.766 174.353 902.623 174.353 901.292V901.274ZM176.92 901.274C176.92 902.211 177.107 902.979 177.463 903.541C177.838 904.103 178.381 904.515 179.112 904.759C179.843 905.021 180.761 905.134 181.885 905.134H182.878C183.965 905.134 184.883 905.002 185.614 904.759C186.344 904.497 186.888 904.103 187.244 903.541C187.6 902.979 187.787 902.229 187.787 901.274C187.787 900.318 187.6 899.587 187.244 899.025C186.888 898.463 186.344 898.051 185.614 897.789C184.883 897.526 183.984 897.414 182.878 897.414H181.885C180.779 897.414 179.861 897.545 179.112 897.789C178.381 898.051 177.819 898.463 177.463 899.025C177.088 899.587 176.92 900.337 176.92 901.274Z" fill="black"/>
<path d="M174.353 918.568C174.353 917.238 174.54 916.095 174.896 915.14C175.252 914.184 175.777 913.416 176.47 912.797C177.163 912.198 177.988 911.748 178.981 911.467C179.955 911.186 181.098 911.036 182.372 911.036C183.646 911.036 184.771 911.186 185.764 911.467C186.738 911.748 187.581 912.198 188.274 912.797C188.968 913.397 189.492 914.165 189.83 915.121C190.186 916.076 190.354 917.219 190.354 918.55C190.354 919.88 190.186 921.023 189.83 921.979C189.474 922.934 188.949 923.702 188.274 924.321C187.581 924.92 186.757 925.37 185.764 925.651C184.789 925.932 183.646 926.063 182.372 926.063C181.098 926.063 179.974 925.932 178.981 925.651C178.006 925.37 177.163 924.939 176.47 924.34C175.777 923.74 175.252 922.972 174.896 922.016C174.54 921.061 174.353 919.918 174.353 918.587V918.568ZM176.92 918.568C176.92 919.505 177.107 920.274 177.463 920.836C177.838 921.398 178.381 921.81 179.112 922.054C179.843 922.316 180.761 922.428 181.885 922.428H182.878C183.965 922.428 184.883 922.297 185.614 922.054C186.344 921.791 186.888 921.398 187.244 920.836C187.6 920.274 187.787 919.524 187.787 918.568C187.787 917.613 187.6 916.882 187.244 916.32C186.888 915.758 186.344 915.346 185.614 915.083C184.883 914.821 183.984 914.708 182.878 914.708H181.885C180.779 914.708 179.861 914.84 179.112 915.083C178.381 915.346 177.819 915.758 177.463 916.32C177.088 916.882 176.92 917.632 176.92 918.568Z" fill="black"/>
<path d="M158.407 733.723H62.9205" stroke="black" stroke-miterlimit="10"/>
<path d="M158.407 630.217V1026.27" stroke="black" stroke-miterlimit="10"/>
<path d="M187.244 755.215C188.406 755.121 188.986 754.39 188.986 753.06C188.986 752.461 188.855 752.011 188.612 751.674C188.368 751.336 188.031 751.168 187.6 751.168C187.206 751.168 186.925 751.299 186.775 751.542C186.625 751.786 186.438 752.329 186.232 753.173C186.176 753.397 186.12 753.566 186.101 753.678C185.82 754.784 185.576 755.533 185.351 755.927C184.883 756.808 184.152 757.239 183.14 757.239C182.709 757.239 182.316 757.164 181.96 757.014C181.604 756.864 181.323 756.658 181.079 756.414C180.836 756.17 180.648 755.871 180.498 755.533C180.348 755.196 180.236 754.84 180.161 754.465C180.086 754.091 180.049 753.716 180.049 753.304C180.049 752.067 180.348 751.055 180.929 750.287C181.529 749.519 182.391 749.144 183.534 749.144V750.849C182.822 750.849 182.278 751.093 181.922 751.561C181.566 752.03 181.398 752.648 181.398 753.416C181.398 754.091 181.529 754.597 181.81 754.971C182.091 755.346 182.466 755.533 182.953 755.533C183.271 755.533 183.515 755.44 183.721 755.234C183.927 755.027 184.058 754.821 184.152 754.597C184.227 754.372 184.358 753.959 184.508 753.397C184.508 753.341 184.546 753.285 184.546 753.247C184.864 752.011 185.126 751.205 185.333 750.812C185.745 750.006 186.401 749.575 187.263 749.519H187.45C188.331 749.519 189.024 749.856 189.549 750.512C190.073 751.168 190.336 752.067 190.336 753.173C190.336 754.278 190.073 755.121 189.567 755.796C189.061 756.47 188.274 756.826 187.225 756.864V755.215H187.244Z" fill="black"/>
<path d="M188.649 765.839V762.691H180.255V760.949H188.649V757.801H190.148V765.839H188.649Z" fill="black"/>
<path d="M180.273 774.046V772.191L182.897 771.254V767.338L180.273 766.364V764.565L190.167 768.387V770.242L180.273 774.065V774.046ZM188.368 769.305L184.208 767.769V770.786L188.368 769.305Z" fill="black"/>
<path d="M190.148 779.649C190.148 780.623 189.923 781.429 189.492 782.047C189.061 782.665 188.349 782.984 187.412 782.984C186.813 782.984 186.307 782.834 185.895 782.553C185.464 782.272 185.164 781.86 184.977 781.354C184.92 781.597 184.845 781.803 184.733 781.972C184.621 782.141 184.508 782.291 184.377 782.384C184.246 782.478 184.077 782.553 183.871 782.628C183.665 782.684 183.496 782.74 183.328 782.759C183.178 782.778 182.972 782.797 182.728 782.815C182.672 782.815 182.541 782.834 182.353 782.853C182.166 782.853 182.054 782.871 181.979 782.89C181.904 782.909 181.81 782.89 181.66 782.928C181.51 782.928 181.416 782.946 181.342 782.965C181.267 782.984 181.192 782.984 181.079 783.021C180.967 783.04 180.873 783.059 180.817 783.077C180.761 783.077 180.686 783.115 180.611 783.153C180.536 783.171 180.461 783.209 180.405 783.246C180.348 783.284 180.292 783.321 180.255 783.377V781.522C180.255 781.522 180.33 781.466 180.386 781.447C180.442 781.429 180.498 781.41 180.555 781.391C180.611 781.372 180.667 781.354 180.723 781.354C180.779 781.354 180.836 781.335 180.929 781.316C181.023 781.316 181.098 781.298 181.135 781.298L181.379 781.26H181.623C181.623 781.26 181.772 781.222 181.922 781.222C182.054 781.222 182.166 781.222 182.222 781.222C183.028 781.185 183.571 781.016 183.89 780.717C184.19 780.417 184.34 779.873 184.34 779.049V776.744H180.255V775.02H190.148V779.705V779.649ZM185.632 776.688V778.974C185.632 779.311 185.632 779.592 185.689 779.817C185.726 780.042 185.801 780.286 185.895 780.51C185.988 780.754 186.157 780.923 186.382 781.054C186.607 781.185 186.888 781.241 187.225 781.241C187.544 781.241 187.806 781.185 188.012 781.073C188.218 780.96 188.368 780.81 188.48 780.585C188.593 780.361 188.649 780.173 188.687 779.948C188.724 779.724 188.743 779.48 188.743 779.18V776.669H185.651L185.632 776.688Z" fill="black"/>
<path d="M188.649 791.603V788.455H180.255V786.713H188.649V783.565H190.148V791.603H188.649Z" fill="black"/>
<path d="M188.649 803.689V800.541H180.255V798.798H188.649V795.65H190.148V803.689H188.649Z" fill="black"/>
<path d="M180.273 806.612V804.869H190.167V806.612H180.273Z" fill="black"/>
<path d="M180.273 818.979V817.33H187.9L180.273 814.575V813.151L187.9 810.341H180.273V808.711H190.167V811.146L182.428 813.901L190.167 816.561V818.979H180.273Z" fill="black"/>
<path d="M188.687 828.16V822.764H186.063V827.767H184.658V822.764H181.735V828.254H180.255V821.04H190.148V828.16H188.687Z" fill="black"/>
<path d="M130.984 755.045L130.984 750.604L128.829 750.604L128.829 754.726L127.686 754.726L127.686 750.604L125.288 750.604L125.288 755.101L124.07 755.101L124.07 749.18L132.183 749.18L132.183 755.026L130.984 755.026L130.984 755.045Z" fill="black"/>
<path d="M124.07 762.97L124.07 761.509L130.047 757.724L124.07 757.724L124.07 756.375L132.183 756.375L132.183 757.874L126.206 761.621L132.183 761.621L132.183 762.989L124.07 762.989L124.07 762.97Z" fill="black"/>
<path d="M130.946 770.446L130.946 767.86L124.07 767.86L124.07 766.436L130.946 766.436L130.946 763.851L132.183 763.851L132.183 770.446L130.946 770.446Z" fill="black"/>
<path d="M132.183 775.224C132.183 776.029 131.995 776.685 131.639 777.191C131.283 777.697 130.703 777.959 129.916 777.959C129.428 777.959 129.016 777.847 128.66 777.603C128.323 777.36 128.061 777.041 127.911 776.61C127.873 776.816 127.798 776.985 127.705 777.116C127.611 777.266 127.517 777.378 127.405 777.453C127.292 777.528 127.161 777.603 126.993 777.659C126.824 777.716 126.674 777.753 126.562 777.772C126.43 777.791 126.262 777.809 126.074 777.828C126.018 777.828 125.925 777.828 125.775 777.847C125.625 777.847 125.531 777.866 125.475 777.866C125.419 777.866 125.344 777.866 125.213 777.884C125.1 777.884 125.006 777.903 124.95 777.903C124.894 777.903 124.838 777.922 124.725 777.94C124.632 777.959 124.557 777.978 124.501 777.997C124.444 777.997 124.388 778.034 124.332 778.053C124.276 778.072 124.219 778.109 124.163 778.128C124.107 778.147 124.07 778.184 124.032 778.222L124.032 776.704C124.032 776.704 124.107 776.666 124.145 776.648C124.182 776.648 124.238 776.61 124.276 776.591C124.313 776.573 124.369 776.573 124.407 776.554C124.444 776.535 124.501 776.554 124.575 776.517C124.65 776.517 124.707 776.517 124.744 776.517L124.95 776.517L125.156 776.479C125.194 776.479 125.288 776.479 125.4 776.479C125.512 776.479 125.587 776.479 125.644 776.479C126.299 776.442 126.749 776.31 127.011 776.067C127.255 775.823 127.386 775.374 127.386 774.699L127.386 772.807L124.032 772.807L124.032 771.401L132.145 771.401L132.145 775.242L132.183 775.224ZM128.473 772.788L128.473 774.662C128.473 774.943 128.473 775.168 128.51 775.355C128.548 775.542 128.604 775.73 128.679 775.936C128.754 776.123 128.885 776.273 129.072 776.385C129.26 776.479 129.485 776.535 129.766 776.535C130.028 776.535 130.234 776.498 130.403 776.404C130.571 776.31 130.703 776.179 130.778 776.011C130.853 775.842 130.927 775.673 130.946 775.486C130.984 775.299 130.984 775.093 130.984 774.849L130.984 772.788L128.435 772.788L128.473 772.788Z" fill="black"/>
<path d="M127.292 782.55L124.07 782.55L124.07 781.144L127.292 781.144L132.183 778.072L132.183 779.72L128.585 781.875L132.183 784.011L132.183 785.604L127.292 782.55Z" fill="black"/>
<path d="M102.147 752.871C102.147 753.639 101.978 754.258 101.622 754.745C101.285 755.232 100.723 755.476 99.9921 755.476C99.5236 755.476 99.1301 755.363 98.7929 755.138C98.4556 754.913 98.2307 754.595 98.0808 754.202C98.0434 754.389 97.9684 754.558 97.8935 754.689C97.7998 754.82 97.7061 754.932 97.6124 755.007C97.5187 755.082 97.3875 755.138 97.2189 755.195C97.0503 755.251 96.9191 755.288 96.8067 755.288C96.6943 755.288 96.5256 755.326 96.3383 755.344C96.2821 755.344 96.1884 755.344 96.0385 755.363C95.8886 755.363 95.7949 755.363 95.7574 755.382C95.7199 755.401 95.6262 755.382 95.5138 755.401C95.4014 755.401 95.3077 755.419 95.2702 755.419C95.2328 755.419 95.1578 755.438 95.0641 755.457C94.9704 755.457 94.8955 755.494 94.858 755.513C94.8018 755.513 94.7643 755.55 94.6894 755.569C94.6332 755.588 94.5769 755.626 94.5395 755.644C94.502 755.663 94.4645 755.7 94.4271 755.738L94.4271 754.277C94.4271 754.277 94.4833 754.239 94.5395 754.22C94.5769 754.22 94.6144 754.183 94.6706 754.164C94.7269 754.145 94.7643 754.145 94.8018 754.127C94.8393 754.108 94.8955 754.127 94.9704 754.108C95.0454 754.108 95.1016 754.108 95.1391 754.108L95.3264 754.108L95.5138 754.07C95.5513 754.07 95.6262 754.07 95.7387 754.07C95.8511 754.07 95.926 754.07 95.9635 754.07C96.6006 754.033 97.0315 753.902 97.2564 753.677C97.5 753.452 97.6124 753.021 97.6124 752.384L97.6124 750.585L94.4083 750.585L94.4083 749.236L102.147 749.236L102.147 752.909L102.147 752.871ZM98.6055 750.548L98.6055 752.347C98.6055 752.609 98.6055 752.834 98.643 753.002C98.6804 753.19 98.7179 753.358 98.7929 753.546C98.8678 753.733 98.999 753.864 99.1676 753.977C99.3362 754.07 99.5611 754.127 99.8234 754.127C100.067 754.127 100.273 754.089 100.442 753.995C100.61 753.902 100.723 753.789 100.798 753.621C100.873 753.452 100.929 753.283 100.966 753.115C101.004 752.946 101.004 752.74 101.004 752.515L101.004 750.548L98.5868 750.548L98.6055 750.548Z" fill="black"/>
<path d="M101.21 762.876C100.46 763.57 99.4861 763.907 98.2869 763.907C97.0877 763.907 96.1134 763.57 95.3639 762.876C94.6144 762.183 94.2396 761.284 94.2396 760.197C94.2396 759.11 94.6144 758.192 95.3639 757.499C96.1134 756.806 97.0877 756.469 98.3056 756.469C99.5236 756.469 100.442 756.806 101.21 757.48C101.978 758.155 102.353 759.054 102.353 760.216C102.353 761.378 101.978 762.202 101.229 762.895L101.21 762.876ZM100.404 758.473C99.8796 758.042 99.1675 757.836 98.3056 757.836C97.4437 757.836 96.6942 758.042 96.1696 758.473C95.6449 758.904 95.3826 759.485 95.3826 760.216C95.3826 760.947 95.6449 761.49 96.1883 761.902C96.713 762.333 97.425 762.539 98.3056 762.539C99.1863 762.539 99.8983 762.333 100.423 761.902C100.948 761.471 101.21 760.909 101.21 760.197C101.21 759.485 100.948 758.923 100.423 758.492L100.404 758.473Z" fill="black"/>
<path d="M101.21 771.158C100.46 771.851 99.4861 772.189 98.2869 772.189C97.0877 772.189 96.1134 771.851 95.3639 771.158C94.6144 770.465 94.2396 769.565 94.2396 768.479C94.2396 767.392 94.6144 766.474 95.3639 765.781C96.1134 765.087 97.0877 764.75 98.3056 764.75C99.5236 764.75 100.442 765.087 101.21 765.762C101.978 766.436 102.353 767.336 102.353 768.497C102.353 769.659 101.978 770.483 101.229 771.177L101.21 771.158ZM100.404 766.755C99.8796 766.324 99.1675 766.118 98.3056 766.118C97.4437 766.118 96.6942 766.324 96.1696 766.755C95.6449 767.186 95.3826 767.748 95.3826 768.497C95.3826 769.247 95.6449 769.772 96.1883 770.184C96.713 770.615 97.425 770.821 98.3056 770.821C99.1863 770.821 99.8983 770.615 100.423 770.184C100.948 769.753 101.21 769.191 101.21 768.479C101.21 767.767 100.948 767.205 100.423 766.774L100.404 766.755Z" fill="black"/>
<path d="M94.4083 781.463L94.4083 780.17L100.386 780.17L94.4083 778.015L94.4083 776.91L100.386 774.699L94.4083 774.699L94.4083 773.425L102.147 773.425L102.147 775.336L96.0947 777.51L102.147 779.589L102.147 781.482L94.4083 781.482L94.4083 781.463Z" fill="black"/>
<path d="M99.8608 787.365C100.76 787.29 101.229 786.728 101.229 785.679C101.229 785.21 101.135 784.854 100.948 784.592C100.76 784.33 100.498 784.198 100.161 784.198C99.8421 784.198 99.636 784.292 99.5236 784.48C99.4111 784.667 99.2612 785.098 99.0926 785.754C99.0364 785.922 98.9989 786.053 98.9802 786.166C98.7553 787.028 98.568 787.608 98.3993 787.927C98.0246 788.62 97.4437 788.957 96.6755 788.957C96.3382 788.957 96.0197 788.901 95.7573 788.789C95.495 788.676 95.2514 788.508 95.0641 788.32C94.8767 788.133 94.7268 787.89 94.5956 787.627C94.4645 787.365 94.3895 787.084 94.3333 786.784C94.2771 786.484 94.2584 786.185 94.2584 785.885C94.2584 784.91 94.4832 784.123 94.9516 783.524C95.4201 782.924 96.0946 782.625 96.994 782.625L96.994 783.955C96.4319 783.955 96.0009 784.142 95.7386 784.517C95.4763 784.892 95.3264 785.36 95.3264 785.96C95.3264 786.484 95.4388 786.896 95.6449 787.178C95.851 787.477 96.1508 787.608 96.5443 787.608C96.7879 787.608 96.994 787.534 97.1439 787.384C97.2938 787.234 97.4062 787.065 97.4812 786.878C97.5374 786.69 97.6311 786.372 97.7622 785.941C97.7622 785.885 97.781 785.847 97.7997 785.828C98.0433 784.873 98.2494 784.236 98.4181 783.917C98.7366 783.28 99.2425 782.943 99.9358 782.906L100.086 782.906C100.779 782.906 101.322 783.168 101.735 783.674C102.147 784.198 102.353 784.892 102.353 785.754C102.353 786.615 102.147 787.271 101.753 787.815C101.36 788.339 100.741 788.62 99.917 788.658L99.917 787.365L99.8608 787.365Z" fill="black"/>
<path d="M119.797 804.302L131.977 804.302L131.977 807.375L119.797 807.375L119.797 804.302Z" fill="black"/>
<path d="M119.573 817.643C119.573 815.975 119.816 814.589 120.285 813.465C120.772 812.34 121.465 811.497 122.421 810.935C123.357 810.373 124.519 810.092 125.887 810.092C127.892 810.092 129.447 810.729 130.534 812.022C131.621 813.315 132.164 815.17 132.164 817.624C132.164 819.011 131.958 820.228 131.564 821.278C131.171 822.327 130.59 823.151 129.841 823.732C129.091 824.313 128.21 824.613 127.18 824.613L127.18 821.615C127.723 821.615 128.192 821.446 128.566 821.109C128.941 820.772 129.241 820.303 129.447 819.685C129.653 819.067 129.747 818.373 129.747 817.549C129.747 816.65 129.597 815.882 129.297 815.226C128.997 814.57 128.585 814.083 128.042 813.746C127.498 813.408 126.843 813.24 126.093 813.24L125.643 813.24C124.894 813.24 124.238 813.408 123.695 813.746C123.151 814.083 122.72 814.589 122.421 815.226C122.121 815.882 121.971 816.65 121.971 817.549C121.971 818.448 122.065 819.142 122.252 819.76C122.439 820.378 122.72 820.847 123.095 821.184C123.47 821.521 123.938 821.69 124.482 821.69L124.482 824.613C123.47 824.613 122.608 824.332 121.858 823.751C121.109 823.17 120.547 822.364 120.135 821.315C119.741 820.266 119.535 819.029 119.535 817.624L119.573 817.643Z" fill="black"/>
<path d="M119.797 827.348L131.977 827.348L131.977 832.107L126.112 834.599C125.906 834.693 125.643 834.805 125.306 834.918C124.969 835.049 124.632 835.18 124.257 835.311C123.882 835.442 123.564 835.573 123.283 835.667L123.283 835.798C123.545 835.892 123.845 836.004 124.182 836.135C124.519 836.267 124.875 836.398 125.212 836.529C125.55 836.66 125.85 836.773 126.074 836.866L131.958 839.377L131.958 844.023L119.779 844.023L119.779 840.969L126.768 840.969C126.993 840.969 127.236 840.969 127.517 840.969C127.78 840.969 128.061 840.969 128.323 840.988C128.585 840.988 128.81 840.988 129.016 840.988L129.016 840.838C128.81 840.782 128.585 840.707 128.304 840.595C128.042 840.501 127.761 840.389 127.498 840.295C127.217 840.201 126.993 840.108 126.786 840.033L119.797 837.016L119.797 834.112L126.786 831.095C127.068 830.983 127.33 830.871 127.611 830.758C127.892 830.646 128.154 830.552 128.398 830.477C128.641 830.402 128.848 830.327 129.016 830.271L129.016 830.121C128.866 830.121 128.66 830.14 128.417 830.14C128.173 830.14 127.911 830.14 127.611 830.14C127.311 830.14 127.049 830.14 126.786 830.14L119.797 830.14L119.797 827.217L119.797 827.348Z" fill="black"/>
<path d="M119.797 847.302L131.977 847.302L131.977 859.781L129.56 859.781L129.56 850.375L127.161 850.375L127.161 858.675L124.782 858.675L124.782 850.375L122.215 850.375L122.215 859.931L119.779 859.931L119.779 847.321L119.797 847.302Z" fill="black"/>
<path d="M89.7426 813.446L91.5414 811.479C91.5414 811.479 91.5414 811.329 91.5414 811.254C91.5414 811.179 91.5414 811.085 91.5414 811.01C91.5414 809.642 91.7476 808.462 92.1785 807.469C92.6095 806.476 93.2278 805.708 94.0335 805.146C94.8392 804.602 95.8135 804.321 96.9565 804.321C98.0995 804.321 99.0739 804.602 99.8796 805.146C100.685 805.689 101.304 806.476 101.716 807.488C102.128 808.499 102.353 809.699 102.353 811.104C102.353 812.509 102.147 813.708 101.716 814.72C101.285 815.732 100.685 816.519 99.8796 817.062C99.0739 817.605 98.0995 817.886 96.9565 817.886C95.7199 817.886 94.6893 817.568 93.8461 816.931C93.003 816.294 92.4033 815.394 92.0099 814.251L89.7426 816.893L89.7426 813.465L89.7426 813.446ZM93.6025 811.085C93.6025 811.685 93.6775 812.228 93.8087 812.734C93.9398 813.24 94.1459 813.652 94.4082 814.027C94.6706 814.401 95.0079 814.664 95.4013 814.87C95.7948 815.076 96.2445 815.17 96.7692 815.17L97.1252 815.17C97.6498 815.17 98.0995 815.076 98.493 814.87C98.8865 814.664 99.205 814.383 99.4674 814.027C99.7297 813.671 99.9358 813.24 100.067 812.734C100.198 812.247 100.273 811.685 100.273 811.085C100.273 810.485 100.198 809.942 100.067 809.436C99.9358 808.949 99.7297 808.518 99.4674 808.144C99.205 807.769 98.8865 807.488 98.493 807.3C98.0995 807.094 97.6498 807.001 97.1252 807.001L96.7692 807.001C96.2445 807.001 95.7948 807.094 95.4013 807.3C95.0079 807.488 94.6706 807.788 94.4082 808.144C94.1459 808.5 93.9398 808.93 93.8087 809.436C93.6775 809.923 93.6025 810.485 93.6025 811.085Z" fill="black"/>
<path d="M94.8204 850.806L96.9377 850.806L96.9377 855.603L94.8204 855.603L94.8204 850.806Z" fill="black"/>
<path d="M91.5227 867.8C91.5227 866.976 91.579 866.226 91.6726 865.514C91.7663 864.802 91.935 864.184 92.1973 863.659C92.4596 863.135 92.7969 862.704 93.2466 862.404C93.6963 862.104 94.2771 861.973 94.9704 861.973L95.0454 861.973C95.0454 861.973 95.1016 861.973 95.1203 861.973L95.1203 864.54C95.1203 864.54 95.0266 864.54 94.9892 864.54L94.8205 864.54C94.502 864.54 94.2584 864.671 94.071 864.915C93.8837 865.177 93.7525 865.533 93.6588 866.001C93.5651 866.47 93.5277 867.032 93.5277 867.669C93.5277 867.95 93.5276 868.212 93.5651 868.493C93.6026 868.774 93.6213 869.037 93.6588 869.299C93.6963 869.561 93.7712 869.786 93.8462 869.992C93.9211 870.198 94.0336 870.348 94.1647 870.479C94.2959 870.592 94.4458 870.667 94.6144 870.667C94.858 870.667 95.0454 870.554 95.1953 870.311C95.3452 870.067 95.4576 869.749 95.5513 869.355C95.645 868.962 95.7199 868.512 95.7949 868.006C95.8698 867.5 95.9448 866.976 96.0197 866.451C96.1134 865.908 96.2258 865.402 96.3757 864.896C96.5256 864.39 96.713 863.94 96.9566 863.547C97.2002 863.153 97.5 862.835 97.8747 862.591C98.2495 862.348 98.7179 862.235 99.2613 862.235C99.7672 862.235 100.217 862.366 100.592 862.61C100.966 862.854 101.304 863.228 101.566 863.697C101.828 864.165 102.016 864.746 102.147 865.42C102.278 866.095 102.334 866.844 102.334 867.688C102.334 868.531 102.259 869.299 102.128 869.955C101.997 870.61 101.791 871.172 101.529 871.622C101.266 872.072 100.948 872.409 100.573 872.634C100.198 872.859 99.7672 872.971 99.28 872.971L99.0552 872.971L99.0552 870.423L99.2238 870.423C99.4487 870.423 99.636 870.311 99.8047 870.105C99.9733 869.88 100.104 869.58 100.217 869.186C100.329 868.793 100.367 868.343 100.367 867.819C100.367 867.144 100.329 866.582 100.236 866.17C100.142 865.739 100.03 865.439 99.8796 865.233C99.7297 865.027 99.5798 864.933 99.3924 864.933C99.1676 864.933 98.999 865.046 98.8678 865.289C98.7366 865.533 98.6242 865.851 98.5493 866.245C98.4743 866.638 98.3994 867.088 98.3244 867.594C98.2682 868.1 98.1745 868.606 98.0808 869.149C97.9871 869.692 97.8747 870.198 97.7436 870.704C97.6124 871.21 97.425 871.66 97.1814 872.053C96.9379 872.447 96.638 872.765 96.282 873.009C95.926 873.252 95.4763 873.365 94.933 873.365C94.1085 873.365 93.4527 873.121 92.9468 872.653C92.4409 872.184 92.0849 871.528 91.86 870.685C91.6352 869.842 91.5227 868.887 91.5227 867.8Z" fill="black"/>
<path d="M91.5227 881.553C91.5227 880.129 91.7289 878.929 92.1411 877.974C92.5533 877.018 93.1529 876.288 93.9586 875.8C94.7643 875.313 95.7574 875.07 96.9378 875.07C98.6617 875.07 99.9921 875.613 100.929 876.719C101.866 877.824 102.334 879.417 102.334 881.515C102.334 882.695 102.166 883.745 101.81 884.644C101.472 885.543 100.966 886.255 100.329 886.761C99.6922 887.267 98.924 887.529 98.0433 887.529L98.0433 884.963C98.5118 884.963 98.9053 884.813 99.2425 884.532C99.5798 884.25 99.8234 883.838 99.9921 883.314C100.161 882.789 100.254 882.189 100.254 881.477C100.254 880.709 100.123 880.054 99.8796 879.491C99.6173 878.929 99.2613 878.517 98.7929 878.217C98.3244 877.918 97.7623 877.786 97.1252 877.786L96.7505 877.786C96.0947 877.786 95.5513 877.936 95.0641 878.217C94.5957 878.517 94.2397 878.929 93.9773 879.491C93.715 880.054 93.6026 880.709 93.6026 881.477C93.6026 882.246 93.6776 882.845 93.8462 883.37C94.0148 883.895 94.2584 884.307 94.5769 884.588C94.8955 884.869 95.2889 885.019 95.7574 885.019L95.7574 887.529C94.8955 887.529 94.146 887.286 93.5089 886.78C92.8718 886.274 92.3847 885.581 92.0287 884.7C91.6914 883.801 91.504 882.752 91.504 881.534L91.5227 881.553Z" fill="black"/>
<path d="M91.71 889.871L102.147 889.871L102.147 898.303C102.147 899.052 101.997 899.671 101.697 900.158C101.397 900.645 100.985 901.001 100.498 901.244C100.011 901.488 99.4486 901.6 98.849 901.6C98.2494 901.6 97.631 901.432 97.0876 901.113C96.5443 900.795 96.1133 900.308 95.7948 899.671L91.71 901.844L91.71 898.902L95.3263 897.066L95.3263 892.513L91.71 892.513L91.71 889.89L91.71 889.871ZM97.3874 892.513L97.3874 897.535C97.3874 897.965 97.5186 898.303 97.7809 898.546C98.0432 898.79 98.3618 898.921 98.774 898.921C99.0551 898.921 99.2986 898.865 99.486 898.752C99.6734 898.64 99.8233 898.49 99.9357 898.284C100.048 898.078 100.086 897.834 100.086 897.535L100.086 892.513L97.3874 892.513Z" fill="black"/>
<path d="M94.8204 908.046L96.9377 908.046L96.9377 912.842L94.8204 912.842L94.8204 908.046Z" fill="black"/>
<path d="M91.5226 923.409C91.5226 922.454 91.6538 921.629 91.9161 920.955C92.1785 920.28 92.6094 919.756 93.1715 919.4C93.7337 919.044 94.4644 918.857 95.345 918.857L95.5512 918.857L95.5512 921.386L95.2701 921.386C94.708 921.386 94.2958 921.555 94.0147 921.892C93.7336 922.229 93.6025 922.697 93.6025 923.316C93.6025 923.99 93.7711 924.515 94.1084 924.871C94.4457 925.227 94.9891 925.414 95.7198 925.414L102.147 925.414L102.147 928.019L95.8322 928.019C94.8392 928.019 94.0334 927.831 93.3776 927.457C92.7218 927.082 92.2721 926.557 91.9723 925.864C91.6725 925.171 91.5226 924.346 91.5226 923.391L91.5226 923.409Z" fill="black"/>
<path d="M91.5227 936.619C91.5227 935.195 91.7289 933.995 92.1411 933.04C92.5533 932.084 93.1529 931.354 93.9586 930.867C94.7643 930.379 95.7574 930.136 96.9378 930.136C98.6617 930.136 99.9921 930.679 100.929 931.785C101.866 932.89 102.334 934.483 102.334 936.581C102.334 937.761 102.166 938.811 101.81 939.71C101.472 940.609 100.966 941.321 100.329 941.827C99.6922 942.333 98.924 942.595 98.0433 942.595L98.0433 940.029C98.5118 940.029 98.9053 939.879 99.2425 939.598C99.5798 939.317 99.8234 938.904 99.9921 938.38C100.161 937.855 100.254 937.256 100.254 936.544C100.254 935.775 100.123 935.12 99.8796 934.558C99.6173 933.995 99.2613 933.583 98.7929 933.283C98.3244 932.984 97.7623 932.853 97.1252 932.853L96.7505 932.853C96.0947 932.853 95.5513 933.002 95.0641 933.283C94.5957 933.583 94.2397 933.995 93.9773 934.558C93.715 935.12 93.6026 935.775 93.6026 936.544C93.6026 937.312 93.6776 937.911 93.8462 938.436C94.0148 938.961 94.2584 939.373 94.5769 939.654C94.8955 939.935 95.2889 940.085 95.7574 940.085L95.7574 942.595C94.8955 942.595 94.146 942.352 93.5089 941.846C92.8718 941.34 92.3847 940.647 92.0287 939.766C91.6914 938.867 91.504 937.818 91.504 936.6L91.5227 936.619Z" fill="black"/>
<path d="M91.71 944.937L102.147 944.937L102.147 953.369C102.147 954.118 101.997 954.737 101.697 955.224C101.397 955.711 100.985 956.067 100.498 956.31C100.011 956.554 99.4486 956.666 98.849 956.666C98.2494 956.666 97.631 956.498 97.0876 956.179C96.5443 955.861 96.1133 955.374 95.7948 954.737L91.71 956.91L91.71 953.968L95.3263 952.132L95.3263 947.579L91.71 947.579L91.71 944.956L91.71 944.937ZM97.3874 947.579L97.3874 952.601C97.3874 953.032 97.5186 953.369 97.7809 953.612C98.0432 953.856 98.3618 953.987 98.774 953.987C99.0551 953.987 99.2986 953.931 99.486 953.819C99.6734 953.706 99.8233 953.556 99.9357 953.35C100.048 953.144 100.086 952.9 100.086 952.601L100.086 947.579L97.3874 947.579Z" fill="black"/>
<path d="M91.7101 832.913L102.147 832.913L102.147 841.344C102.147 842.094 101.997 842.712 101.697 843.199C101.397 843.686 100.985 844.042 100.498 844.286C100.011 844.529 99.4487 844.642 98.8491 844.642C98.2495 844.642 97.6311 844.473 97.0878 844.155C96.5444 843.836 96.1134 843.349 95.7949 842.712L91.7101 844.885L91.7101 841.944L95.3264 840.108L95.3264 835.555L91.7101 835.555L91.7101 832.932L91.7101 832.913ZM97.3876 835.536L97.3876 840.557C97.3876 840.988 97.5187 841.326 97.781 841.569C98.0434 841.813 98.3619 841.944 98.7741 841.944C99.0552 841.944 99.2988 841.888 99.4861 841.775C99.6735 841.663 99.8234 841.513 99.9359 841.307C100.048 841.101 100.086 840.857 100.086 840.557L100.086 835.536L97.3876 835.536Z" fill="black"/>
<path d="M91.7101 824.088L99.9359 824.088L99.9359 819.479L102.147 819.479L102.147 831.283L99.9359 831.283L99.9359 826.692L91.7101 826.692L91.7101 824.069L91.7101 824.088Z" fill="black"/>
<path d="M91.5327 29.549V22.691H84.6748V29.549H91.5327Z" fill="black"/>
<path d="M91.5515 41.4285V34.5706H84.6936V41.4285H91.5515Z" fill="black"/>
<path d="M91.5327 53.2895V46.4315H84.6748V53.2895H91.5327Z" fill="black"/>
<path d="M91.5514 65.1503V58.2924H84.6935V65.1503H91.5514Z" fill="black"/>
<path d="M21.417 454.028H14.5591V460.886H21.417V454.028Z" fill="black"/>
<path d="M33.2779 454.028H26.4199V460.886H33.2779V454.028Z" fill="black"/>
<path d="M91.5514 454.028H84.6935V460.886H91.5514V454.028Z" fill="black"/>
</svg>
