<svg width="38" height="38" viewBox="0 0 38 38" fill="none" xmlns="http://www.w3.org/2000/svg">
<g id="age">
<rect id="Rectangle 634" x="11.793" y="0.655174" width="14.4138" height="2.62069" fill="black"/>
<rect id="Rectangle 635" x="23.5864" y="3.27586" width="7.86207" height="3.27586" fill="black"/>
<rect id="Rectangle 651" x="20.3105" y="17.0345" width="5.89655" height="3.27586" fill="black"/>
<rect id="Rectangle 636" x="28.8276" y="6.55173" width="5.89655" height="2.62069" fill="black"/>
<rect id="Rectangle 637" x="31.4482" y="9.17242" width="3.27586" height="5.24138" fill="black"/>
<rect id="Rectangle 650" x="17.0347" y="9.17242" width="3.27586" height="11.1379" fill="black"/>
<rect id="Rectangle 639" width="14.4138" height="2.62069" transform="matrix(1 0 0 -1 11.793 37.3448)" fill="black"/>
<rect id="Rectangle 640" width="7.86207" height="3.27586" transform="matrix(1 0 0 -1 23.5864 34.7241)" fill="black"/>
<rect id="Rectangle 641" width="5.89655" height="2.62069" transform="matrix(1 0 0 -1 28.8276 31.4483)" fill="black"/>
<rect id="Rectangle 642" width="3.27586" height="5.24138" transform="matrix(1 0 0 -1 31.4482 28.8276)" fill="black"/>
<rect id="Rectangle 638" x="34.7241" y="11.7931" width="3.27586" height="14.4138" fill="black"/>
<rect id="Rectangle 643" width="7.86207" height="3.27586" transform="matrix(-1 0 0 1 14.4136 3.27586)" fill="black"/>
<rect id="Rectangle 644" width="5.89655" height="2.62069" transform="matrix(-1 0 0 1 9.17236 6.55173)" fill="black"/>
<rect id="Rectangle 645" width="3.27586" height="5.24138" transform="matrix(-1 0 0 1 6.55176 9.17242)" fill="black"/>
<rect id="Rectangle 646" x="14.4136" y="34.7241" width="7.86207" height="3.27586" transform="rotate(180 14.4136 34.7241)" fill="black"/>
<rect id="Rectangle 647" x="9.17236" y="31.4483" width="5.89655" height="2.62069" transform="rotate(180 9.17236 31.4483)" fill="black"/>
<rect id="Rectangle 648" x="6.55176" y="28.8276" width="3.27586" height="5.24138" transform="rotate(180 6.55176 28.8276)" fill="black"/>
<rect id="Rectangle 649" width="3.27586" height="14.4138" transform="matrix(-1 0 0 1 3.27588 11.7931)" fill="black"/>
</g>
</svg>
