<svg width="38" height="36" viewBox="0 0 38 36" fill="none" xmlns="http://www.w3.org/2000/svg">
<g id="yum">
<rect id="Rectangle 711" x="6.45264" y="0.07547" width="9.32076" height="2.15094" fill="black"/>
<rect id="Rectangle 712" x="15.7734" y="2.22641" width="2.15094" height="2.15094" fill="black"/>
<rect id="Rectangle 714" x="4.30176" y="2.22641" width="2.15094" height="2.15094" fill="black"/>
<rect id="Rectangle 715" x="2.15088" y="4.37735" width="2.15094" height="2.15094" fill="black"/>
<rect id="Rectangle 717" x="2.15088" y="18.717" width="2.15094" height="2.15094" fill="black"/>
<rect id="Rectangle 720" x="8.604" y="25.1698" width="2.15094" height="2.15094" fill="black"/>
<rect id="Rectangle 718" x="4.30176" y="20.8679" width="2.15094" height="2.15094" fill="black"/>
<rect id="Rectangle 721" x="10.7549" y="27.3207" width="2.15094" height="2.15094" fill="black"/>
<rect id="Rectangle 723" x="15.0566" y="31.6227" width="2.15094" height="2.15094" fill="black"/>
<rect id="Rectangle 719" x="6.45264" y="23.0189" width="2.15094" height="2.15094" fill="black"/>
<rect id="Rectangle 722" x="12.9058" y="29.4717" width="2.15094" height="2.15094" fill="black"/>
<rect id="Rectangle 724" x="17.2075" y="33.7736" width="2.15094" height="2.15094" fill="black"/>
<rect id="Rectangle 716" y="6.52829" width="2.15094" height="12.1887" fill="black"/>
<rect id="Rectangle 713" x="17.9243" y="4.37735" width="2.15094" height="2.15094" fill="black"/>
<rect id="Rectangle 725" width="9.32076" height="2.15094" transform="matrix(-1 0 0 1 31.5474 0.07547)" fill="black"/>
<rect id="Rectangle 726" width="2.15094" height="2.15094" transform="matrix(-1 0 0 1 22.2266 2.22641)" fill="black"/>
<rect id="Rectangle 727" width="2.15094" height="2.15094" transform="matrix(-1 0 0 1 33.6982 2.22641)" fill="black"/>
<rect id="Rectangle 728" width="2.15094" height="2.15094" transform="matrix(-1 0 0 1 35.8491 4.37735)" fill="black"/>
<rect id="Rectangle 729" width="2.15094" height="2.15094" transform="matrix(-1 0 0 1 35.8491 18.717)" fill="black"/>
<rect id="Rectangle 730" width="2.15094" height="4.30189" transform="matrix(-1 0 0 1 30.1133 25.8868)" fill="black"/>
<rect id="Rectangle 741" width="2.15094" height="2.15094" transform="matrix(-1 0 0 1 27.9624 23.7358)" fill="black"/>
<rect id="Rectangle 731" width="2.15094" height="2.15094" transform="matrix(-1 0 0 1 33.6982 20.8679)" fill="black"/>
<rect id="Rectangle 742" width="2.15094" height="2.15094" transform="matrix(-1 0 0 1 29.396 19.434)" fill="black"/>
<rect id="Rectangle 743" width="2.15094" height="4.30189" transform="matrix(-1 0 0 1 31.5474 15.1321)" fill="black"/>
<rect id="Rectangle 744" x="9.3208" y="19.434" width="2.15094" height="2.15094" fill="black"/>
<rect id="Rectangle 745" x="7.16992" y="15.1321" width="2.15094" height="4.30189" fill="black"/>
<rect id="Rectangle 746" x="7.16992" y="9.39624" width="2.15094" height="2.15094" transform="rotate(90 7.16992 9.39624)" fill="black"/>
<rect id="Rectangle 748" x="15.7734" y="9.39624" width="2.15094" height="2.15094" transform="rotate(90 15.7734 9.39624)" fill="black"/>
<rect id="Rectangle 747" x="13.6226" y="7.24527" width="2.15094" height="6.45283" transform="rotate(90 13.6226 7.24527)" fill="black"/>
<rect id="Rectangle 749" x="25.0942" y="9.39624" width="2.15094" height="2.15094" transform="rotate(90 25.0942 9.39624)" fill="black"/>
<rect id="Rectangle 750" x="33.6982" y="9.39624" width="2.15094" height="2.15094" transform="rotate(90 33.6982 9.39624)" fill="black"/>
<rect id="Rectangle 751" x="31.5474" y="7.24527" width="2.15094" height="6.45283" transform="rotate(90 31.5474 7.24527)" fill="black"/>
<rect id="Rectangle 732" width="2.15094" height="2.15094" transform="matrix(-1 0 0 1 22.9434 28.0377)" fill="black"/>
<rect id="Rectangle 738" width="2.15094" height="2.15094" transform="matrix(-1 0 0 1 20.7925 25.8868)" fill="black"/>
<rect id="Rectangle 739" width="2.15094" height="2.15094" transform="matrix(-1 0 0 1 18.6416 23.7358)" fill="black"/>
<rect id="Rectangle 740" width="15.7736" height="2.15094" transform="matrix(-1 0 0 1 27.2451 21.5849)" fill="black"/>
<rect id="Rectangle 733" width="2.15094" height="2.15094" transform="matrix(-1 0 0 1 22.9434 31.6227)" fill="black"/>
<rect id="Rectangle 734" width="2.15094" height="2.86792" transform="matrix(-1 0 0 1 31.5474 23.0189)" fill="black"/>
<rect id="Rectangle 735" width="6.45283" height="2.15094" transform="matrix(-1 0 0 1 29.396 30.1887)" fill="black"/>
<rect id="Rectangle 736" width="2.15094" height="2.15094" transform="matrix(-1 0 0 1 20.7925 33.7736)" fill="black"/>
<rect id="Rectangle 737" width="2.15094" height="12.1887" transform="matrix(-1 0 0 1 38 6.52829)" fill="black"/>
</g>
</svg>
