<svg width="816" height="28" viewBox="0 0 816 28" fill="none" xmlns="http://www.w3.org/2000/svg">
<g clip-path="url(#clip0_624_1883)">
<path d="M423.83 0.927734H419.044V3.78518H423.83V0.927734Z" fill="#F2F2F2"/>
<path d="M815.62 12.7324H50.6283V18.8561H815.62V12.7324Z" fill="#F2F2F2"/>
<path d="M816 12.7324H411.861V18.8561H816V12.7324Z" fill="#0060E6"/>
<path d="M816 12.7324H599.229V18.8561H816V12.7324Z" fill="#D62D3B"/>
<path d="M310.484 12.7324H228.17V18.8561H310.484V12.7324Z" fill="#FAA701"/>
<path d="M24.9591 12.7324H0V18.8561H24.9591V12.7324Z" fill="#0060E6"/>
<path d="M56.0804 24.2148H51.2939V27.0723H56.0804V24.2148Z" fill="#F2F2F2"/>
<path d="M64.3599 24.2148H59.5735V27.0723H64.3599V24.2148Z" fill="#F2F2F2"/>
<path d="M72.6395 24.2148H67.8531V27.0723H72.6395V24.2148Z" fill="#F2F2F2"/>
<path d="M80.9191 24.2148H76.1326V27.0723H80.9191V24.2148Z" fill="#F2F2F2"/>
</g>
<defs>
<clipPath id="clip0_624_1883">
<rect width="816" height="26.1446" fill="white" transform="translate(0 0.927734)"/>
</clipPath>
</defs>
</svg>
