<svg width="28" height="30" viewBox="0 0 28 30" fill="none" xmlns="http://www.w3.org/2000/svg">
<g id="Isolation_Mode" clip-path="url(#clip0_324_3267)">
<path id="Vector" d="M15.071 30.0034L18.0892 28.2496L18.104 23.0082L24.1412 19.4997L24.1264 24.7419L27.1445 22.9872L27.1838 9.01074L24.1656 10.7646L24.1508 16.006L18.1145 19.5136L18.1293 14.2722L15.1112 16.0269L15.071 30.0034Z" fill="#FAA701"/>
<path id="Vector_2" d="M12.8085 16.0269L0.655598 9.01074L0.646 12.5044L5.20333 15.136L5.18326 22.1243L0.625931 19.4936L0.616333 22.9872L12.7683 30.0034L12.7788 26.5097L8.22148 23.8781L8.24154 16.8899L12.798 19.5206L12.8085 16.0269Z" fill="#ED4250"/>
<g id="Group">
<path id="Vector_3" d="M1.7262 7.02259L4.76616 5.26702L10.8452 1.75763L13.8843 0.00292969L16.9042 1.7585L25.963 7.02259L22.9248 8.77729L13.866 3.51232L7.78693 7.02259L16.8457 12.2867L13.8049 14.0423L4.74609 8.77729L1.7262 7.02259Z" fill="#0060E6"/>
</g>
</g>
<defs>
<clipPath id="clip0_324_3267">
<rect width="26.5674" height="30" fill="white" transform="translate(0.616333 0.00292969)"/>
</clipPath>
</defs>
</svg>
